ISO-10303-21;
HEADER;
FILE_DESCRIPTION(('Open CASCADE Model'),'2;1');
FILE_NAME('Open CASCADE Shape Model','2026-09-18T15:44:49',('Author'),(
    'Open CASCADE'),'Open CASCADE STEP processor 7.3','Open CASCADE 7.3'
  ,'Unknown');
FILE_SCHEMA(('AUTOMOTIVE_DESIGN { 1 0 10303 214 1 1 1 1 }'));
ENDSEC;
DATA;
#1 = APPLICATION_PROTOCOL_DEFINITION('international standard',
  'automotive_design',2000,#2);
#2 = APPLICATION_CONTEXT(
  'core data for automotive mechanical design processes');
#3 = SHAPE_DEFINITION_REPRESENTATION(#4,#10);
#4 = PRODUCT_DEFINITION_SHAPE('','',#5);
#5 = PRODUCT_DEFINITION('design','',#6,#9);
#6 = PRODUCT_DEFINITION_FORMATION('','',#7);
#7 = PRODUCT('Pottmanager 90','Pottmanager 90','',(#8));
#8 = PRODUCT_CONTEXT('',#2,'mechanical');
#9 = PRODUCT_DEFINITION_CONTEXT('part definition',#2,'design');
#10 = ADVANCED_BREP_SHAPE_REPRESENTATION('',(#11,#15),#467);
#11 = AXIS2_PLACEMENT_3D('',#12,#13,#14);
#12 = CARTESIAN_POINT('',(0.,0.,0.));
#13 = DIRECTION('',(0.,0.,1.));
#14 = DIRECTION('',(1.,0.,-0.));
#15 = MANIFOLD_SOLID_BREP('',#16);
#16 = CLOSED_SHELL('',(#17,#34,#59,#79,#104,#129,#149,#174,#194,#219,
    #244,#298,#330,#370,#395,#426,#444,#456));
#17 = ADVANCED_FACE('',(#18),#29,.F.);
#18 = FACE_BOUND('',#19,.T.);
#19 = EDGE_LOOP('',(#20));
#20 = ORIENTED_EDGE('',*,*,#21,.F.);
#21 = EDGE_CURVE('',#22,#22,#24,.T.);
#22 = VERTEX_POINT('',#23);
#23 = CARTESIAN_POINT('',(-0.708431375041,72.664788083427,
    -7.027670215441E-02));
#24 = CIRCLE('',#25,44.);
#25 = AXIS2_PLACEMENT_3D('',#26,#27,#28);
#26 = CARTESIAN_POINT('',(-44.70843137504,72.664788083427,
    -7.027670215441E-02));
#27 = DIRECTION('',(0.,-1.,1.110223024625E-16));
#28 = DIRECTION('',(1.,0.,0.));
#29 = PLANE('',#30);
#30 = AXIS2_PLACEMENT_3D('',#31,#32,#33);
#31 = CARTESIAN_POINT('',(-44.70843137504,72.664788083427,
    -7.027670215441E-02));
#32 = DIRECTION('',(0.,-1.,1.110223024625E-16));
#33 = DIRECTION('',(1.,0.,0.));
#34 = ADVANCED_FACE('',(#35),#54,.T.);
#35 = FACE_BOUND('',#36,.T.);
#36 = EDGE_LOOP('',(#37,#38,#46,#53));
#37 = ORIENTED_EDGE('',*,*,#21,.T.);
#38 = ORIENTED_EDGE('',*,*,#39,.T.);
#39 = EDGE_CURVE('',#22,#40,#42,.T.);
#40 = VERTEX_POINT('',#41);
#41 = CARTESIAN_POINT('',(0.291568624959,69.664788083427,
    -7.027670215441E-02));
#42 = LINE('',#43,#44);
#43 = CARTESIAN_POINT('',(-0.708431375041,72.664788083427,
    -7.027670215441E-02));
#44 = VECTOR('',#45,1.);
#45 = DIRECTION('',(0.316227766017,-0.948683298051,1.053250040573E-16));
#46 = ORIENTED_EDGE('',*,*,#47,.F.);
#47 = EDGE_CURVE('',#40,#40,#48,.T.);
#48 = CIRCLE('',#49,45.);
#49 = AXIS2_PLACEMENT_3D('',#50,#51,#52);
#50 = CARTESIAN_POINT('',(-44.70843137504,69.664788083427,
    -7.027670215441E-02));
#51 = DIRECTION('',(0.,-1.,1.110223024625E-16));
#52 = DIRECTION('',(1.,0.,0.));
#53 = ORIENTED_EDGE('',*,*,#39,.F.);
#54 = CONICAL_SURFACE('',#55,44.,0.321750554397);
#55 = AXIS2_PLACEMENT_3D('',#56,#57,#58);
#56 = CARTESIAN_POINT('',(-44.70843137504,72.664788083427,
    -7.027670215441E-02));
#57 = DIRECTION('',(0.,-1.,1.110223024625E-16));
#58 = DIRECTION('',(1.,0.,0.));
#59 = ADVANCED_FACE('',(#60,#63),#74,.F.);
#60 = FACE_BOUND('',#61,.T.);
#61 = EDGE_LOOP('',(#62));
#62 = ORIENTED_EDGE('',*,*,#47,.T.);
#63 = FACE_BOUND('',#64,.T.);
#64 = EDGE_LOOP('',(#65));
#65 = ORIENTED_EDGE('',*,*,#66,.F.);
#66 = EDGE_CURVE('',#67,#67,#69,.T.);
#67 = VERTEX_POINT('',#68);
#68 = CARTESIAN_POINT('',(5.291568624959,69.664788083427,
    -7.027670215441E-02));
#69 = CIRCLE('',#70,50.);
#70 = AXIS2_PLACEMENT_3D('',#71,#72,#73);
#71 = CARTESIAN_POINT('',(-44.70843137504,69.664788083427,
    -7.027670215441E-02));
#72 = DIRECTION('',(0.,-1.,1.110223024625E-16));
#73 = DIRECTION('',(1.,0.,0.));
#74 = PLANE('',#75);
#75 = AXIS2_PLACEMENT_3D('',#76,#77,#78);
#76 = CARTESIAN_POINT('',(-44.70843137504,69.664788083427,
    -7.027670215441E-02));
#77 = DIRECTION('',(0.,-1.,1.110223024625E-16));
#78 = DIRECTION('',(1.,0.,0.));
#79 = ADVANCED_FACE('',(#80),#99,.T.);
#80 = FACE_BOUND('',#81,.T.);
#81 = EDGE_LOOP('',(#82,#83,#91,#98));
#82 = ORIENTED_EDGE('',*,*,#66,.T.);
#83 = ORIENTED_EDGE('',*,*,#84,.T.);
#84 = EDGE_CURVE('',#67,#85,#87,.T.);
#85 = VERTEX_POINT('',#86);
#86 = CARTESIAN_POINT('',(5.291568624959,55.064788083427,
    -7.027670215441E-02));
#87 = LINE('',#88,#89);
#88 = CARTESIAN_POINT('',(5.291568624959,69.664788083427,
    -7.027670215441E-02));
#89 = VECTOR('',#90,1.);
#90 = DIRECTION('',(0.,-1.,1.110223024625E-16));
#91 = ORIENTED_EDGE('',*,*,#92,.F.);
#92 = EDGE_CURVE('',#85,#85,#93,.T.);
#93 = CIRCLE('',#94,50.);
#94 = AXIS2_PLACEMENT_3D('',#95,#96,#97);
#95 = CARTESIAN_POINT('',(-44.70843137504,55.064788083427,
    -7.027670215441E-02));
#96 = DIRECTION('',(0.,-1.,1.110223024625E-16));
#97 = DIRECTION('',(1.,0.,0.));
#98 = ORIENTED_EDGE('',*,*,#84,.F.);
#99 = CYLINDRICAL_SURFACE('',#100,50.);
#100 = AXIS2_PLACEMENT_3D('',#101,#102,#103);
#101 = CARTESIAN_POINT('',(-44.70843137504,69.664788083427,
    -7.027670215441E-02));
#102 = DIRECTION('',(0.,-1.,1.110223024625E-16));
#103 = DIRECTION('',(1.,0.,0.));
#104 = ADVANCED_FACE('',(#105),#124,.T.);
#105 = FACE_BOUND('',#106,.T.);
#106 = EDGE_LOOP('',(#107,#108,#116,#123));
#107 = ORIENTED_EDGE('',*,*,#92,.T.);
#108 = ORIENTED_EDGE('',*,*,#109,.T.);
#109 = EDGE_CURVE('',#85,#110,#112,.T.);
#110 = VERTEX_POINT('',#111);
#111 = CARTESIAN_POINT('',(2.791568624959,53.564788083427,
    -7.027670215441E-02));
#112 = LINE('',#113,#114);
#113 = CARTESIAN_POINT('',(5.291568624959,55.064788083427,
    -7.027670215441E-02));
#114 = VECTOR('',#115,1.);
#115 = DIRECTION('',(-0.857492925713,-0.514495755428,5.712050337476E-17)
  );
#116 = ORIENTED_EDGE('',*,*,#117,.F.);
#117 = EDGE_CURVE('',#110,#110,#118,.T.);
#118 = CIRCLE('',#119,47.5);
#119 = AXIS2_PLACEMENT_3D('',#120,#121,#122);
#120 = CARTESIAN_POINT('',(-44.70843137504,53.564788083427,
    -7.027670215441E-02));
#121 = DIRECTION('',(0.,-1.,1.110223024625E-16));
#122 = DIRECTION('',(1.,0.,0.));
#123 = ORIENTED_EDGE('',*,*,#109,.F.);
#124 = CONICAL_SURFACE('',#125,50.,1.030376826524);
#125 = AXIS2_PLACEMENT_3D('',#126,#127,#128);
#126 = CARTESIAN_POINT('',(-44.70843137504,55.064788083427,
    -7.027670215441E-02));
#127 = DIRECTION('',(-0.,1.,-1.110223024625E-16));
#128 = DIRECTION('',(1.,0.,0.));
#129 = ADVANCED_FACE('',(#130,#133),#144,.T.);
#130 = FACE_BOUND('',#131,.T.);
#131 = EDGE_LOOP('',(#132));
#132 = ORIENTED_EDGE('',*,*,#117,.T.);
#133 = FACE_BOUND('',#134,.T.);
#134 = EDGE_LOOP('',(#135));
#135 = ORIENTED_EDGE('',*,*,#136,.F.);
#136 = EDGE_CURVE('',#137,#137,#139,.T.);
#137 = VERTEX_POINT('',#138);
#138 = CARTESIAN_POINT('',(1.291568624959,53.564788083427,
    -7.027670215441E-02));
#139 = CIRCLE('',#140,46.);
#140 = AXIS2_PLACEMENT_3D('',#141,#142,#143);
#141 = CARTESIAN_POINT('',(-44.70843137504,53.564788083427,
    -7.027670215441E-02));
#142 = DIRECTION('',(0.,-1.,1.110223024625E-16));
#143 = DIRECTION('',(1.,0.,0.));
#144 = PLANE('',#145);
#145 = AXIS2_PLACEMENT_3D('',#146,#147,#148);
#146 = CARTESIAN_POINT('',(-44.70843137504,53.564788083427,
    -7.027670215441E-02));
#147 = DIRECTION('',(0.,-1.,1.110223024625E-16));
#148 = DIRECTION('',(1.,0.,0.));
#149 = ADVANCED_FACE('',(#150),#169,.T.);
#150 = FACE_BOUND('',#151,.T.);
#151 = EDGE_LOOP('',(#152,#153,#161,#168));
#152 = ORIENTED_EDGE('',*,*,#136,.T.);
#153 = ORIENTED_EDGE('',*,*,#154,.T.);
#154 = EDGE_CURVE('',#137,#155,#157,.T.);
#155 = VERTEX_POINT('',#156);
#156 = CARTESIAN_POINT('',(1.291568624959,49.814788083427,
    -7.027670215441E-02));
#157 = LINE('',#158,#159);
#158 = CARTESIAN_POINT('',(1.291568624959,53.564788083427,
    -7.027670215441E-02));
#159 = VECTOR('',#160,1.);
#160 = DIRECTION('',(0.,-1.,1.110223024625E-16));
#161 = ORIENTED_EDGE('',*,*,#162,.F.);
#162 = EDGE_CURVE('',#155,#155,#163,.T.);
#163 = CIRCLE('',#164,46.);
#164 = AXIS2_PLACEMENT_3D('',#165,#166,#167);
#165 = CARTESIAN_POINT('',(-44.70843137504,49.814788083427,
    -7.027670215441E-02));
#166 = DIRECTION('',(0.,-1.,1.110223024625E-16));
#167 = DIRECTION('',(1.,0.,0.));
#168 = ORIENTED_EDGE('',*,*,#154,.F.);
#169 = CYLINDRICAL_SURFACE('',#170,46.);
#170 = AXIS2_PLACEMENT_3D('',#171,#172,#173);
#171 = CARTESIAN_POINT('',(-44.70843137504,53.564788083427,
    -7.027670215441E-02));
#172 = DIRECTION('',(0.,-1.,1.110223024625E-16));
#173 = DIRECTION('',(1.,0.,0.));
#174 = ADVANCED_FACE('',(#175,#178),#189,.F.);
#175 = FACE_BOUND('',#176,.T.);
#176 = EDGE_LOOP('',(#177));
#177 = ORIENTED_EDGE('',*,*,#162,.T.);
#178 = FACE_BOUND('',#179,.T.);
#179 = EDGE_LOOP('',(#180));
#180 = ORIENTED_EDGE('',*,*,#181,.F.);
#181 = EDGE_CURVE('',#182,#182,#184,.T.);
#182 = VERTEX_POINT('',#183);
#183 = CARTESIAN_POINT('',(2.791568624959,49.814788083427,
    -7.027670215441E-02));
#184 = CIRCLE('',#185,47.5);
#185 = AXIS2_PLACEMENT_3D('',#186,#187,#188);
#186 = CARTESIAN_POINT('',(-44.70843137504,49.814788083427,
    -7.027670215441E-02));
#187 = DIRECTION('',(0.,-1.,1.110223024625E-16));
#188 = DIRECTION('',(1.,0.,0.));
#189 = PLANE('',#190);
#190 = AXIS2_PLACEMENT_3D('',#191,#192,#193);
#191 = CARTESIAN_POINT('',(-44.70843137504,49.814788083427,
    -7.027670215441E-02));
#192 = DIRECTION('',(0.,-1.,1.110223024625E-16));
#193 = DIRECTION('',(1.,0.,0.));
#194 = ADVANCED_FACE('',(#195),#214,.T.);
#195 = FACE_BOUND('',#196,.T.);
#196 = EDGE_LOOP('',(#197,#198,#206,#213));
#197 = ORIENTED_EDGE('',*,*,#181,.T.);
#198 = ORIENTED_EDGE('',*,*,#199,.T.);
#199 = EDGE_CURVE('',#182,#200,#202,.T.);
#200 = VERTEX_POINT('',#201);
#201 = CARTESIAN_POINT('',(5.291568624959,48.314788083427,
    -7.027670215441E-02));
#202 = LINE('',#203,#204);
#203 = CARTESIAN_POINT('',(2.791568624959,49.814788083427,
    -7.027670215441E-02));
#204 = VECTOR('',#205,1.);
#205 = DIRECTION('',(0.857492925713,-0.514495755428,5.712050337476E-17)
  );
#206 = ORIENTED_EDGE('',*,*,#207,.F.);
#207 = EDGE_CURVE('',#200,#200,#208,.T.);
#208 = CIRCLE('',#209,50.);
#209 = AXIS2_PLACEMENT_3D('',#210,#211,#212);
#210 = CARTESIAN_POINT('',(-44.70843137504,48.314788083427,
    -7.027670215441E-02));
#211 = DIRECTION('',(0.,-1.,1.110223024625E-16));
#212 = DIRECTION('',(1.,0.,0.));
#213 = ORIENTED_EDGE('',*,*,#199,.F.);
#214 = CONICAL_SURFACE('',#215,47.5,1.030376826524);
#215 = AXIS2_PLACEMENT_3D('',#216,#217,#218);
#216 = CARTESIAN_POINT('',(-44.70843137504,49.814788083427,
    -7.027670215441E-02));
#217 = DIRECTION('',(0.,-1.,1.110223024625E-16));
#218 = DIRECTION('',(1.,0.,0.));
#219 = ADVANCED_FACE('',(#220),#239,.T.);
#220 = FACE_BOUND('',#221,.T.);
#221 = EDGE_LOOP('',(#222,#223,#231,#238));
#222 = ORIENTED_EDGE('',*,*,#207,.T.);
#223 = ORIENTED_EDGE('',*,*,#224,.T.);
#224 = EDGE_CURVE('',#200,#225,#227,.T.);
#225 = VERTEX_POINT('',#226);
#226 = CARTESIAN_POINT('',(5.291568624959,43.664788083427,
    -7.027670215441E-02));
#227 = LINE('',#228,#229);
#228 = CARTESIAN_POINT('',(5.291568624959,48.314788083427,
    -7.027670215441E-02));
#229 = VECTOR('',#230,1.);
#230 = DIRECTION('',(0.,-1.,1.110223024625E-16));
#231 = ORIENTED_EDGE('',*,*,#232,.F.);
#232 = EDGE_CURVE('',#225,#225,#233,.T.);
#233 = CIRCLE('',#234,50.);
#234 = AXIS2_PLACEMENT_3D('',#235,#236,#237);
#235 = CARTESIAN_POINT('',(-44.70843137504,43.664788083427,
    -7.027670215441E-02));
#236 = DIRECTION('',(0.,-1.,1.110223024625E-16));
#237 = DIRECTION('',(1.,0.,0.));
#238 = ORIENTED_EDGE('',*,*,#224,.F.);
#239 = CYLINDRICAL_SURFACE('',#240,50.);
#240 = AXIS2_PLACEMENT_3D('',#241,#242,#243);
#241 = CARTESIAN_POINT('',(-44.70843137504,48.314788083427,
    -7.027670215441E-02));
#242 = DIRECTION('',(0.,-1.,1.110223024625E-16));
#243 = DIRECTION('',(1.,0.,0.));
#244 = ADVANCED_FACE('',(#245,#248),#293,.T.);
#245 = FACE_BOUND('',#246,.T.);
#246 = EDGE_LOOP('',(#247));
#247 = ORIENTED_EDGE('',*,*,#232,.T.);
#248 = FACE_BOUND('',#249,.T.);
#249 = EDGE_LOOP('',(#250,#261,#270,#278,#287));
#250 = ORIENTED_EDGE('',*,*,#251,.F.);
#251 = EDGE_CURVE('',#252,#254,#256,.T.);
#252 = VERTEX_POINT('',#253);
#253 = CARTESIAN_POINT('',(-13.20843137504,43.664788083427,
    -7.027670215441E-02));
#254 = VERTEX_POINT('',#255);
#255 = CARTESIAN_POINT('',(-20.41051479768,43.664788083427,
    19.976200544484));
#256 = CIRCLE('',#257,31.5);
#257 = AXIS2_PLACEMENT_3D('',#258,#259,#260);
#258 = CARTESIAN_POINT('',(-44.70843137504,43.664788083427,
    -7.027670215441E-02));
#259 = DIRECTION('',(0.,-1.,1.110223024625E-16));
#260 = DIRECTION('',(1.,0.,0.));
#261 = ORIENTED_EDGE('',*,*,#262,.F.);
#262 = EDGE_CURVE('',#263,#252,#265,.T.);
#263 = VERTEX_POINT('',#264);
#264 = CARTESIAN_POINT('',(-24.6619541284,43.664788083427,
    24.227639875198));
#265 = CIRCLE('',#266,31.5);
#266 = AXIS2_PLACEMENT_3D('',#267,#268,#269);
#267 = CARTESIAN_POINT('',(-44.70843137504,43.664788083427,
    -7.027670215441E-02));
#268 = DIRECTION('',(0.,-1.,1.110223024625E-16));
#269 = DIRECTION('',(1.,0.,0.));
#270 = ORIENTED_EDGE('',*,*,#271,.T.);
#271 = EDGE_CURVE('',#263,#272,#274,.T.);
#272 = VERTEX_POINT('',#273);
#273 = CARTESIAN_POINT('',(-24.6619541284,43.664788083427,
    24.430973265959));
#274 = LINE('',#275,#276);
#275 = CARTESIAN_POINT('',(-24.6619541284,43.664788083427,
    12.180348281903));
#276 = VECTOR('',#277,1.);
#277 = DIRECTION('',(0.,1.110223024625E-16,1.));
#278 = ORIENTED_EDGE('',*,*,#279,.T.);
#279 = EDGE_CURVE('',#272,#280,#282,.T.);
#280 = VERTEX_POINT('',#281);
#281 = CARTESIAN_POINT('',(-20.20718140692,43.664788083427,
    19.976200544484));
#282 = CIRCLE('',#283,4.454772721475);
#283 = AXIS2_PLACEMENT_3D('',#284,#285,#286);
#284 = CARTESIAN_POINT('',(-24.6619541284,43.664788083427,
    19.976200544484));
#285 = DIRECTION('',(0.,1.,-1.110223024625E-16));
#286 = DIRECTION('',(1.,0.,0.));
#287 = ORIENTED_EDGE('',*,*,#288,.T.);
#288 = EDGE_CURVE('',#280,#254,#289,.T.);
#289 = LINE('',#290,#291);
#290 = CARTESIAN_POINT('',(-34.68519275172,43.664788083427,
    19.976200544484));
#291 = VECTOR('',#292,1.);
#292 = DIRECTION('',(-1.,0.,0.));
#293 = PLANE('',#294);
#294 = AXIS2_PLACEMENT_3D('',#295,#296,#297);
#295 = CARTESIAN_POINT('',(-44.70843137504,43.664788083427,
    -7.027670215441E-02));
#296 = DIRECTION('',(0.,-1.,1.110223024625E-16));
#297 = DIRECTION('',(1.,0.,0.));
#298 = ADVANCED_FACE('',(#299),#325,.T.);
#299 = FACE_BOUND('',#300,.T.);
#300 = EDGE_LOOP('',(#301,#309,#310,#318));
#301 = ORIENTED_EDGE('',*,*,#302,.F.);
#302 = EDGE_CURVE('',#252,#303,#305,.T.);
#303 = VERTEX_POINT('',#304);
#304 = CARTESIAN_POINT('',(-13.20843137504,39.703789083427,
    -7.027670215441E-02));
#305 = LINE('',#306,#307);
#306 = CARTESIAN_POINT('',(-13.20843137504,43.664788083427,
    -7.027670215441E-02));
#307 = VECTOR('',#308,1.);
#308 = DIRECTION('',(0.,-1.,1.110223024625E-16));
#309 = ORIENTED_EDGE('',*,*,#251,.T.);
#310 = ORIENTED_EDGE('',*,*,#311,.T.);
#311 = EDGE_CURVE('',#254,#312,#314,.T.);
#312 = VERTEX_POINT('',#313);
#313 = CARTESIAN_POINT('',(-20.41051479768,39.703789083427,
    19.976200544484));
#314 = LINE('',#315,#316);
#315 = CARTESIAN_POINT('',(-20.41051479768,43.664788083427,
    19.976200544484));
#316 = VECTOR('',#317,1.);
#317 = DIRECTION('',(0.,-1.,1.110223024625E-16));
#318 = ORIENTED_EDGE('',*,*,#319,.F.);
#319 = EDGE_CURVE('',#303,#312,#320,.T.);
#320 = CIRCLE('',#321,31.5);
#321 = AXIS2_PLACEMENT_3D('',#322,#323,#324);
#322 = CARTESIAN_POINT('',(-44.70843137504,39.703789083427,
    -7.027670215441E-02));
#323 = DIRECTION('',(0.,-1.,1.110223024625E-16));
#324 = DIRECTION('',(1.,0.,0.));
#325 = CYLINDRICAL_SURFACE('',#326,31.5);
#326 = AXIS2_PLACEMENT_3D('',#327,#328,#329);
#327 = CARTESIAN_POINT('',(-44.70843137504,43.664788083427,
    -7.027670215441E-02));
#328 = DIRECTION('',(0.,-1.,1.110223024625E-16));
#329 = DIRECTION('',(1.,0.,0.));
#330 = ADVANCED_FACE('',(#331),#365,.T.);
#331 = FACE_BOUND('',#332,.T.);
#332 = EDGE_LOOP('',(#333,#343,#351,#357,#358,#359));
#333 = ORIENTED_EDGE('',*,*,#334,.F.);
#334 = EDGE_CURVE('',#335,#337,#339,.T.);
#335 = VERTEX_POINT('',#336);
#336 = CARTESIAN_POINT('',(-24.6619541284,69.664788083427,
    19.976200544484));
#337 = VERTEX_POINT('',#338);
#338 = CARTESIAN_POINT('',(-20.20718140692,69.664788083427,
    19.976200544484));
#339 = LINE('',#340,#341);
#340 = CARTESIAN_POINT('',(-24.6619541284,69.664788083427,
    19.976200544484));
#341 = VECTOR('',#342,1.);
#342 = DIRECTION('',(1.,0.,0.));
#343 = ORIENTED_EDGE('',*,*,#344,.T.);
#344 = EDGE_CURVE('',#335,#345,#347,.T.);
#345 = VERTEX_POINT('',#346);
#346 = CARTESIAN_POINT('',(-24.6619541284,39.703789083427,
    19.976200544484));
#347 = LINE('',#348,#349);
#348 = CARTESIAN_POINT('',(-24.6619541284,69.664788083427,
    19.976200544484));
#349 = VECTOR('',#350,1.);
#350 = DIRECTION('',(0.,-1.,1.110223024625E-16));
#351 = ORIENTED_EDGE('',*,*,#352,.F.);
#352 = EDGE_CURVE('',#312,#345,#353,.T.);
#353 = LINE('',#354,#355);
#354 = CARTESIAN_POINT('',(-34.68519275172,39.703789083427,
    19.976200544484));
#355 = VECTOR('',#356,1.);
#356 = DIRECTION('',(-1.,0.,0.));
#357 = ORIENTED_EDGE('',*,*,#311,.F.);
#358 = ORIENTED_EDGE('',*,*,#288,.F.);
#359 = ORIENTED_EDGE('',*,*,#360,.F.);
#360 = EDGE_CURVE('',#337,#280,#361,.T.);
#361 = LINE('',#362,#363);
#362 = CARTESIAN_POINT('',(-20.20718140692,69.664788083427,
    19.976200544484));
#363 = VECTOR('',#364,1.);
#364 = DIRECTION('',(0.,-1.,1.110223024625E-16));
#365 = PLANE('',#366);
#366 = AXIS2_PLACEMENT_3D('',#367,#368,#369);
#367 = CARTESIAN_POINT('',(-24.6619541284,69.664788083427,
    19.976200544484));
#368 = DIRECTION('',(0.,1.110223024625E-16,1.));
#369 = DIRECTION('',(1.,0.,0.));
#370 = ADVANCED_FACE('',(#371),#390,.F.);
#371 = FACE_BOUND('',#372,.T.);
#372 = EDGE_LOOP('',(#373,#382,#383,#384));
#373 = ORIENTED_EDGE('',*,*,#374,.F.);
#374 = EDGE_CURVE('',#337,#375,#377,.T.);
#375 = VERTEX_POINT('',#376);
#376 = CARTESIAN_POINT('',(-24.6619541284,69.664788083427,
    24.430973265959));
#377 = CIRCLE('',#378,4.454772721475);
#378 = AXIS2_PLACEMENT_3D('',#379,#380,#381);
#379 = CARTESIAN_POINT('',(-24.6619541284,69.664788083427,
    19.976200544484));
#380 = DIRECTION('',(0.,-1.,1.110223024625E-16));
#381 = DIRECTION('',(1.,0.,0.));
#382 = ORIENTED_EDGE('',*,*,#360,.T.);
#383 = ORIENTED_EDGE('',*,*,#279,.F.);
#384 = ORIENTED_EDGE('',*,*,#385,.F.);
#385 = EDGE_CURVE('',#375,#272,#386,.T.);
#386 = LINE('',#387,#388);
#387 = CARTESIAN_POINT('',(-24.6619541284,69.664788083427,
    24.430973265959));
#388 = VECTOR('',#389,1.);
#389 = DIRECTION('',(0.,-1.,1.110223024625E-16));
#390 = CYLINDRICAL_SURFACE('',#391,4.454772721475);
#391 = AXIS2_PLACEMENT_3D('',#392,#393,#394);
#392 = CARTESIAN_POINT('',(-24.6619541284,69.664788083427,
    19.976200544484));
#393 = DIRECTION('',(0.,1.,-1.110223024625E-16));
#394 = DIRECTION('',(1.,0.,0.));
#395 = ADVANCED_FACE('',(#396),#421,.T.);
#396 = FACE_BOUND('',#397,.T.);
#397 = EDGE_LOOP('',(#398,#404,#405,#406,#414,#420));
#398 = ORIENTED_EDGE('',*,*,#399,.F.);
#399 = EDGE_CURVE('',#375,#335,#400,.T.);
#400 = LINE('',#401,#402);
#401 = CARTESIAN_POINT('',(-24.6619541284,69.664788083427,
    24.430973265959));
#402 = VECTOR('',#403,1.);
#403 = DIRECTION('',(0.,-1.110223024625E-16,-1.));
#404 = ORIENTED_EDGE('',*,*,#385,.T.);
#405 = ORIENTED_EDGE('',*,*,#271,.F.);
#406 = ORIENTED_EDGE('',*,*,#407,.T.);
#407 = EDGE_CURVE('',#263,#408,#410,.T.);
#408 = VERTEX_POINT('',#409);
#409 = CARTESIAN_POINT('',(-24.6619541284,39.703789083427,
    24.227639875198));
#410 = LINE('',#411,#412);
#411 = CARTESIAN_POINT('',(-24.6619541284,43.664788083427,
    24.227639875198));
#412 = VECTOR('',#413,1.);
#413 = DIRECTION('',(0.,-1.,1.110223024625E-16));
#414 = ORIENTED_EDGE('',*,*,#415,.F.);
#415 = EDGE_CURVE('',#345,#408,#416,.T.);
#416 = LINE('',#417,#418);
#417 = CARTESIAN_POINT('',(-24.6619541284,39.703789083427,
    12.180348281903));
#418 = VECTOR('',#419,1.);
#419 = DIRECTION('',(0.,1.110223024625E-16,1.));
#420 = ORIENTED_EDGE('',*,*,#344,.F.);
#421 = PLANE('',#422);
#422 = AXIS2_PLACEMENT_3D('',#423,#424,#425);
#423 = CARTESIAN_POINT('',(-24.6619541284,69.664788083427,
    24.430973265959));
#424 = DIRECTION('',(1.,0.,0.));
#425 = DIRECTION('',(0.,-1.110223024625E-16,-1.));
#426 = ADVANCED_FACE('',(#427),#439,.T.);
#427 = FACE_BOUND('',#428,.T.);
#428 = EDGE_LOOP('',(#429,#430,#431,#438));
#429 = ORIENTED_EDGE('',*,*,#262,.T.);
#430 = ORIENTED_EDGE('',*,*,#302,.T.);
#431 = ORIENTED_EDGE('',*,*,#432,.F.);
#432 = EDGE_CURVE('',#408,#303,#433,.T.);
#433 = CIRCLE('',#434,31.5);
#434 = AXIS2_PLACEMENT_3D('',#435,#436,#437);
#435 = CARTESIAN_POINT('',(-44.70843137504,39.703789083427,
    -7.027670215441E-02));
#436 = DIRECTION('',(0.,-1.,1.110223024625E-16));
#437 = DIRECTION('',(1.,0.,0.));
#438 = ORIENTED_EDGE('',*,*,#407,.F.);
#439 = CYLINDRICAL_SURFACE('',#440,31.5);
#440 = AXIS2_PLACEMENT_3D('',#441,#442,#443);
#441 = CARTESIAN_POINT('',(-44.70843137504,43.664788083427,
    -7.027670215441E-02));
#442 = DIRECTION('',(0.,-1.,1.110223024625E-16));
#443 = DIRECTION('',(1.,0.,0.));
#444 = ADVANCED_FACE('',(#445),#451,.T.);
#445 = FACE_BOUND('',#446,.T.);
#446 = EDGE_LOOP('',(#447,#448,#449,#450));
#447 = ORIENTED_EDGE('',*,*,#432,.T.);
#448 = ORIENTED_EDGE('',*,*,#319,.T.);
#449 = ORIENTED_EDGE('',*,*,#352,.T.);
#450 = ORIENTED_EDGE('',*,*,#415,.T.);
#451 = PLANE('',#452);
#452 = AXIS2_PLACEMENT_3D('',#453,#454,#455);
#453 = CARTESIAN_POINT('',(-44.70843137504,39.703789083427,
    -7.027670215441E-02));
#454 = DIRECTION('',(0.,-1.,1.110223024625E-16));
#455 = DIRECTION('',(1.,0.,0.));
#456 = ADVANCED_FACE('',(#457),#462,.T.);
#457 = FACE_BOUND('',#458,.T.);
#458 = EDGE_LOOP('',(#459,#460,#461));
#459 = ORIENTED_EDGE('',*,*,#334,.T.);
#460 = ORIENTED_EDGE('',*,*,#374,.T.);
#461 = ORIENTED_EDGE('',*,*,#399,.T.);
#462 = PLANE('',#463);
#463 = AXIS2_PLACEMENT_3D('',#464,#465,#466);
#464 = CARTESIAN_POINT('',(-22.82392318105,69.664788083427,
    21.81423149183));
#465 = DIRECTION('',(0.,-1.,1.110223024625E-16));
#466 = DIRECTION('',(1.,0.,0.));
#467 = ( GEOMETRIC_REPRESENTATION_CONTEXT(3) 
GLOBAL_UNCERTAINTY_ASSIGNED_CONTEXT((#471)) GLOBAL_UNIT_ASSIGNED_CONTEXT
((#468,#469,#470)) REPRESENTATION_CONTEXT('Context #1',
  '3D Context with UNIT and UNCERTAINTY') );
#468 = ( LENGTH_UNIT() NAMED_UNIT(*) SI_UNIT(.MILLI.,.METRE.) );
#469 = ( NAMED_UNIT(*) PLANE_ANGLE_UNIT() SI_UNIT($,.RADIAN.) );
#470 = ( NAMED_UNIT(*) SI_UNIT($,.STERADIAN.) SOLID_ANGLE_UNIT() );
#471 = UNCERTAINTY_MEASURE_WITH_UNIT(LENGTH_MEASURE(1.E-07),#468,
  'distance_accuracy_value','confusion accuracy');
#472 = PRODUCT_RELATED_PRODUCT_CATEGORY('part',$,(#7));
#473 = MECHANICAL_DESIGN_GEOMETRIC_PRESENTATION_REPRESENTATION('',(#474)
  ,#467);
#474 = STYLED_ITEM('color',(#475),#15);
#475 = PRESENTATION_STYLE_ASSIGNMENT((#476));
#476 = SURFACE_STYLE_USAGE(.BOTH.,#477);
#477 = SURFACE_SIDE_STYLE('',(#478));
#478 = SURFACE_STYLE_FILL_AREA(#479);
#479 = FILL_AREA_STYLE('',(#480));
#480 = FILL_AREA_STYLE_COLOUR('',#481);
#481 = COLOUR_RGB('',0.784313738346,0.784313738346,0.784313738346);
ENDSEC;
END-ISO-10303-21;
