ISO-10303-21;
HEADER;
FILE_DESCRIPTION(('Open CASCADE Model'),'2;1');
FILE_NAME('Open CASCADE Shape Model','2026-09-18T15:44:49',('Author'),(
    'Open CASCADE'),'Open CASCADE STEP processor 7.3','Open CASCADE 7.3'
  ,'Unknown');
FILE_SCHEMA(('AUTOMOTIVE_DESIGN { 1 0 10303 214 1 1 1 1 }'));
ENDSEC;
DATA;
#1 = APPLICATION_PROTOCOL_DEFINITION('international standard',
  'automotive_design',2000,#2);
#2 = APPLICATION_CONTEXT(
  'core data for automotive mechanical design processes');
#3 = SHAPE_DEFINITION_REPRESENTATION(#4,#10);
#4 = PRODUCT_DEFINITION_SHAPE('','',#5);
#5 = PRODUCT_DEFINITION('design','',#6,#9);
#6 = PRODUCT_DEFINITION_FORMATION('','',#7);
#7 = PRODUCT('Pottmanager 91','Pottmanager 91','',(#8));
#8 = PRODUCT_CONTEXT('',#2,'mechanical');
#9 = PRODUCT_DEFINITION_CONTEXT('part definition',#2,'design');
#10 = ADVANCED_BREP_SHAPE_REPRESENTATION('',(#11,#15),#336);
#11 = AXIS2_PLACEMENT_3D('',#12,#13,#14);
#12 = CARTESIAN_POINT('',(0.,0.,0.));
#13 = DIRECTION('',(0.,0.,1.));
#14 = DIRECTION('',(1.,0.,-0.));
#15 = MANIFOLD_SOLID_BREP('',#16);
#16 = CLOSED_SHELL('',(#17,#57,#134,#157,#227,#243,#259,#275,#291,#307,
    #319));
#17 = ADVANCED_FACE('',(#18),#52,.T.);
#18 = FACE_BOUND('',#19,.T.);
#19 = EDGE_LOOP('',(#20,#31,#38,#47));
#20 = ORIENTED_EDGE('',*,*,#21,.T.);
#21 = EDGE_CURVE('',#22,#24,#26,.T.);
#22 = VERTEX_POINT('',#23);
#23 = CARTESIAN_POINT('',(0.295436020449,0.137045375977,
    -1.631678803303E-02));
#24 = VERTEX_POINT('',#25);
#25 = CARTESIAN_POINT('',(-0.140290907945,-0.293894757207,
    -1.656646194356E-02));
#26 = CIRCLE('',#27,0.4);
#27 = AXIS2_PLACEMENT_3D('',#28,#29,#30);
#28 = CARTESIAN_POINT('',(-0.101263780384,0.102376162792,
    2.146301710819E-02));
#29 = DIRECTION('',(-0.103379886883,0.10510124939,-0.989073468639));
#30 = DIRECTION('',(0.991749502082,8.66730329624E-02,-9.444951285306E-02
    ));
#31 = ORIENTED_EDGE('',*,*,#32,.T.);
#32 = EDGE_CURVE('',#24,#33,#35,.T.);
#33 = VERTEX_POINT('',#34);
#34 = CARTESIAN_POINT('',(-0.632379169508,0.206387189888,-4.724556172663
    ));
#35 = B_SPLINE_CURVE_WITH_KNOTS('',1,(#36,#37),.UNSPECIFIED.,.F.,.F.,(2,
    2),(0.,1.),.PIECEWISE_BEZIER_KNOTS.);
#36 = CARTESIAN_POINT('',(-0.140290907945,-0.293894757207,
    -1.656646194356E-02));
#37 = CARTESIAN_POINT('',(-0.632379169508,0.206387189888,-4.724556172663
    ));
#38 = ORIENTED_EDGE('',*,*,#39,.F.);
#39 = EDGE_CURVE('',#40,#33,#42,.T.);
#40 = VERTEX_POINT('',#41);
#41 = CARTESIAN_POINT('',(-0.196652241115,0.637327323073,-4.724306498753
    ));
#42 = CIRCLE('',#43,0.4);
#43 = AXIS2_PLACEMENT_3D('',#44,#45,#46);
#44 = CARTESIAN_POINT('',(-0.593352041947,0.602658109888,-4.686526693611
    ));
#45 = DIRECTION('',(-0.103379886883,0.10510124939,-0.989073468639));
#46 = DIRECTION('',(0.991749502082,8.66730329624E-02,-9.444951285306E-02
    ));
#47 = ORIENTED_EDGE('',*,*,#48,.F.);
#48 = EDGE_CURVE('',#22,#40,#49,.T.);
#49 = B_SPLINE_CURVE_WITH_KNOTS('',1,(#50,#51),.UNSPECIFIED.,.F.,.F.,(2,
    2),(0.,1.),.PIECEWISE_BEZIER_KNOTS.);
#50 = CARTESIAN_POINT('',(0.295436020449,0.137045375977,
    -1.631678803303E-02));
#51 = CARTESIAN_POINT('',(-0.196652241115,0.637327323073,-4.724306498753
    ));
#52 = CYLINDRICAL_SURFACE('',#53,0.4);
#53 = AXIS2_PLACEMENT_3D('',#54,#55,#56);
#54 = CARTESIAN_POINT('',(-0.101263780384,0.102376162792,
    2.146301710819E-02));
#55 = DIRECTION('',(-0.103379886883,0.10510124939,-0.989073468639));
#56 = DIRECTION('',(0.991749502082,8.66730329624E-02,-9.444951285306E-02
    ));
#57 = ADVANCED_FACE('',(#58,#118),#129,.F.);
#58 = FACE_BOUND('',#59,.F.);
#59 = EDGE_LOOP('',(#60,#61,#69,#78,#86,#95,#103,#112));
#60 = ORIENTED_EDGE('',*,*,#21,.T.);
#61 = ORIENTED_EDGE('',*,*,#62,.F.);
#62 = EDGE_CURVE('',#63,#24,#65,.T.);
#63 = VERTEX_POINT('',#64);
#64 = CARTESIAN_POINT('',(-12.1011588418,0.753425482807,1.344897456016)
  );
#65 = LINE('',#66,#67);
#66 = CARTESIAN_POINT('',(-12.1011588418,0.753425482807,1.344897456016)
  );
#67 = VECTOR('',#68,1.);
#68 = DIRECTION('',(0.989844997817,-8.66730329624E-02,-0.112670606878));
#69 = ORIENTED_EDGE('',*,*,#70,.T.);
#70 = EDGE_CURVE('',#63,#71,#73,.T.);
#71 = VERTEX_POINT('',#72);
#72 = CARTESIAN_POINT('',(-12.45883151507,1.115027189622,1.420706740209)
  );
#73 = CIRCLE('',#74,0.4);
#74 = AXIS2_PLACEMENT_3D('',#75,#76,#77);
#75 = CARTESIAN_POINT('',(-12.06213171424,1.149696402807,1.382926935068)
  );
#76 = DIRECTION('',(-0.103379886883,0.10510124939,-0.989073468639));
#77 = DIRECTION('',(0.991749502082,8.66730329624E-02,-9.444951285306E-02
    ));
#78 = ORIENTED_EDGE('',*,*,#79,.F.);
#79 = EDGE_CURVE('',#80,#71,#82,.T.);
#80 = VERTEX_POINT('',#81);
#81 = CARTESIAN_POINT('',(-13.37475739017,13.085952310725,2.788499470312
    ));
#82 = LINE('',#83,#84);
#83 = CARTESIAN_POINT('',(-13.37475739017,13.085952310725,2.788499470312
    ));
#84 = VECTOR('',#85,1.);
#85 = DIRECTION('',(7.579923554443E-02,-0.990677299999,-0.113194360094)
  );
#86 = ORIENTED_EDGE('',*,*,#87,.T.);
#87 = EDGE_CURVE('',#80,#88,#90,.T.);
#88 = VERTEX_POINT('',#89);
#89 = CARTESIAN_POINT('',(-12.93903046177,13.516892443909,2.788749144222
    ));
#90 = CIRCLE('',#91,0.4);
#91 = AXIS2_PLACEMENT_3D('',#92,#93,#94);
#92 = CARTESIAN_POINT('',(-12.97805758933,13.12062152391,2.75071966517)
  );
#93 = DIRECTION('',(-0.103379886883,0.10510124939,-0.989073468639));
#94 = DIRECTION('',(0.991749502082,8.66730329624E-02,-9.444951285306E-02
    ));
#95 = ORIENTED_EDGE('',*,*,#96,.F.);
#96 = EDGE_CURVE('',#97,#88,#99,.T.);
#97 = VERTEX_POINT('',#98);
#98 = CARTESIAN_POINT('',(-0.978162527919,12.469572203895,1.427285226262
    ));
#99 = LINE('',#100,#101);
#100 = CARTESIAN_POINT('',(-0.978162527919,12.469572203895,
    1.427285226262));
#101 = VECTOR('',#102,1.);
#102 = DIRECTION('',(-0.989844997817,8.66730329624E-02,0.112670606878));
#103 = ORIENTED_EDGE('',*,*,#104,.T.);
#104 = EDGE_CURVE('',#97,#105,#107,.T.);
#105 = VERTEX_POINT('',#106);
#106 = CARTESIAN_POINT('',(-0.620489854647,12.107970497081,
    1.351475942069));
#107 = CIRCLE('',#108,0.4);
#108 = AXIS2_PLACEMENT_3D('',#109,#110,#111);
#109 = CARTESIAN_POINT('',(-1.017189655479,12.073301283896,
    1.389255747211));
#110 = DIRECTION('',(-0.103379886883,0.10510124939,-0.989073468639));
#111 = DIRECTION('',(0.991749502082,8.66730329624E-02,
    -9.444951285306E-02));
#112 = ORIENTED_EDGE('',*,*,#113,.F.);
#113 = EDGE_CURVE('',#22,#105,#114,.T.);
#114 = LINE('',#115,#116);
#115 = CARTESIAN_POINT('',(0.295436020449,0.137045375977,
    -1.631678803303E-02));
#116 = VECTOR('',#117,1.);
#117 = DIRECTION('',(-7.579923554443E-02,0.990677299999,0.113194360094)
  );
#118 = FACE_BOUND('',#119,.F.);
#119 = EDGE_LOOP('',(#120));
#120 = ORIENTED_EDGE('',*,*,#121,.T.);
#121 = EDGE_CURVE('',#122,#122,#124,.T.);
#122 = VERTEX_POINT('',#123);
#123 = CARTESIAN_POINT('',(-4.556161680698,6.784844909276,1.197192315433
    ));
#124 = CIRCLE('',#125,2.);
#125 = AXIS2_PLACEMENT_3D('',#126,#127,#128);
#126 = CARTESIAN_POINT('',(-6.539660684861,6.611498843351,1.386091341139
    ));
#127 = DIRECTION('',(0.103379886883,-0.10510124939,0.989073468639));
#128 = DIRECTION('',(0.991749502082,8.66730329624E-02,
    -9.444951285306E-02));
#129 = PLANE('',#130);
#130 = AXIS2_PLACEMENT_3D('',#131,#132,#133);
#131 = CARTESIAN_POINT('',(-0.101263780384,0.102376162792,
    2.146301710819E-02));
#132 = DIRECTION('',(-0.103379886883,0.10510124939,-0.989073468639));
#133 = DIRECTION('',(0.991749502082,8.66730329624E-02,
    -9.444951285306E-02));
#134 = ADVANCED_FACE('',(#135),#152,.T.);
#135 = FACE_BOUND('',#136,.T.);
#136 = EDGE_LOOP('',(#137,#138,#145,#151));
#137 = ORIENTED_EDGE('',*,*,#62,.F.);
#138 = ORIENTED_EDGE('',*,*,#139,.T.);
#139 = EDGE_CURVE('',#63,#140,#142,.T.);
#140 = VERTEX_POINT('',#141);
#141 = CARTESIAN_POINT('',(-12.59324710336,1.253707429903,
    -3.363092254703));
#142 = B_SPLINE_CURVE_WITH_KNOTS('',1,(#143,#144),.UNSPECIFIED.,.F.,.F.,
  (2,2),(0.,1.),.PIECEWISE_BEZIER_KNOTS.);
#143 = CARTESIAN_POINT('',(-12.1011588418,0.753425482807,1.344897456016)
  );
#144 = CARTESIAN_POINT('',(-12.59324710336,1.253707429903,
    -3.363092254703));
#145 = ORIENTED_EDGE('',*,*,#146,.T.);
#146 = EDGE_CURVE('',#140,#33,#147,.T.);
#147 = LINE('',#148,#149);
#148 = CARTESIAN_POINT('',(-12.59324710336,1.253707429903,
    -3.363092254703));
#149 = VECTOR('',#150,1.);
#150 = DIRECTION('',(0.989844997817,-8.66730329624E-02,-0.112670606878)
  );
#151 = ORIENTED_EDGE('',*,*,#32,.F.);
#152 = PLANE('',#153);
#153 = AXIS2_PLACEMENT_3D('',#154,#155,#156);
#154 = CARTESIAN_POINT('',(-12.59324710336,1.253707429903,
    -3.363092254703));
#155 = DIRECTION('',(-9.756781890198E-02,-0.990677299999,
    -9.507369762936E-02));
#156 = DIRECTION('',(-0.989844997817,8.66730329624E-02,0.112670606878));
#157 = ADVANCED_FACE('',(#158,#211),#222,.T.);
#158 = FACE_BOUND('',#159,.T.);
#159 = EDGE_LOOP('',(#160,#161,#162,#171,#179,#188,#196,#205));
#160 = ORIENTED_EDGE('',*,*,#39,.T.);
#161 = ORIENTED_EDGE('',*,*,#146,.F.);
#162 = ORIENTED_EDGE('',*,*,#163,.T.);
#163 = EDGE_CURVE('',#140,#164,#166,.T.);
#164 = VERTEX_POINT('',#165);
#165 = CARTESIAN_POINT('',(-12.95091977663,1.615309136717,-3.28728297051
    ));
#166 = CIRCLE('',#167,0.4);
#167 = AXIS2_PLACEMENT_3D('',#168,#169,#170);
#168 = CARTESIAN_POINT('',(-12.5542199758,1.649978349902,-3.325062775652
    ));
#169 = DIRECTION('',(-0.103379886883,0.10510124939,-0.989073468639));
#170 = DIRECTION('',(0.991749502082,8.66730329624E-02,
    -9.444951285306E-02));
#171 = ORIENTED_EDGE('',*,*,#172,.F.);
#172 = EDGE_CURVE('',#173,#164,#175,.T.);
#173 = VERTEX_POINT('',#174);
#174 = CARTESIAN_POINT('',(-13.86684565173,13.586234257821,
    -1.919490240408));
#175 = LINE('',#176,#177);
#176 = CARTESIAN_POINT('',(-13.86684565173,13.586234257821,
    -1.919490240408));
#177 = VECTOR('',#178,1.);
#178 = DIRECTION('',(7.579923554443E-02,-0.990677299999,-0.113194360094)
  );
#179 = ORIENTED_EDGE('',*,*,#180,.T.);
#180 = EDGE_CURVE('',#173,#181,#183,.T.);
#181 = VERTEX_POINT('',#182);
#182 = CARTESIAN_POINT('',(-13.43111872334,14.017174391005,
    -1.919240566498));
#183 = CIRCLE('',#184,0.4);
#184 = AXIS2_PLACEMENT_3D('',#185,#186,#187);
#185 = CARTESIAN_POINT('',(-13.4701458509,13.620903471005,
    -1.957270045549));
#186 = DIRECTION('',(-0.103379886883,0.10510124939,-0.989073468639));
#187 = DIRECTION('',(0.991749502082,8.66730329624E-02,
    -9.444951285306E-02));
#188 = ORIENTED_EDGE('',*,*,#189,.F.);
#189 = EDGE_CURVE('',#190,#181,#192,.T.);
#190 = VERTEX_POINT('',#191);
#191 = CARTESIAN_POINT('',(-1.470250789482,12.969854150991,
    -3.280704484457));
#192 = LINE('',#193,#194);
#193 = CARTESIAN_POINT('',(-1.470250789482,12.969854150991,
    -3.280704484457));
#194 = VECTOR('',#195,1.);
#195 = DIRECTION('',(-0.989844997817,8.66730329624E-02,0.112670606878));
#196 = ORIENTED_EDGE('',*,*,#197,.T.);
#197 = EDGE_CURVE('',#190,#198,#200,.T.);
#198 = VERTEX_POINT('',#199);
#199 = CARTESIAN_POINT('',(-1.11257811621,12.608252444176,-3.35651376865
    ));
#200 = CIRCLE('',#201,0.4);
#201 = AXIS2_PLACEMENT_3D('',#202,#203,#204);
#202 = CARTESIAN_POINT('',(-1.509277917043,12.573583230991,
    -3.318733963509));
#203 = DIRECTION('',(-0.103379886883,0.10510124939,-0.989073468639));
#204 = DIRECTION('',(0.991749502082,8.66730329624E-02,
    -9.444951285306E-02));
#205 = ORIENTED_EDGE('',*,*,#206,.F.);
#206 = EDGE_CURVE('',#40,#198,#207,.T.);
#207 = LINE('',#208,#209);
#208 = CARTESIAN_POINT('',(-0.196652241115,0.637327323073,
    -4.724306498753));
#209 = VECTOR('',#210,1.);
#210 = DIRECTION('',(-7.579923554443E-02,0.990677299999,0.113194360094)
  );
#211 = FACE_BOUND('',#212,.T.);
#212 = EDGE_LOOP('',(#213));
#213 = ORIENTED_EDGE('',*,*,#214,.T.);
#214 = EDGE_CURVE('',#215,#215,#217,.T.);
#215 = VERTEX_POINT('',#216);
#216 = CARTESIAN_POINT('',(-5.048249942261,7.285126856372,
    -3.510797395286));
#217 = CIRCLE('',#218,2.);
#218 = AXIS2_PLACEMENT_3D('',#219,#220,#221);
#219 = CARTESIAN_POINT('',(-7.031748946424,7.111780790447,-3.32189836958
    ));
#220 = DIRECTION('',(0.103379886883,-0.10510124939,0.989073468639));
#221 = DIRECTION('',(0.991749502082,8.66730329624E-02,
    -9.444951285306E-02));
#222 = PLANE('',#223);
#223 = AXIS2_PLACEMENT_3D('',#224,#225,#226);
#224 = CARTESIAN_POINT('',(-0.593352041947,0.602658109888,
    -4.686526693611));
#225 = DIRECTION('',(-0.103379886883,0.10510124939,-0.989073468639));
#226 = DIRECTION('',(0.991749502082,8.66730329624E-02,
    -9.444951285306E-02));
#227 = ADVANCED_FACE('',(#228),#238,.T.);
#228 = FACE_BOUND('',#229,.T.);
#229 = EDGE_LOOP('',(#230,#231,#232,#233));
#230 = ORIENTED_EDGE('',*,*,#113,.F.);
#231 = ORIENTED_EDGE('',*,*,#48,.T.);
#232 = ORIENTED_EDGE('',*,*,#206,.T.);
#233 = ORIENTED_EDGE('',*,*,#234,.F.);
#234 = EDGE_CURVE('',#105,#198,#235,.T.);
#235 = B_SPLINE_CURVE_WITH_KNOTS('',1,(#236,#237),.UNSPECIFIED.,.F.,.F.,
  (2,2),(0.,1.),.PIECEWISE_BEZIER_KNOTS.);
#236 = CARTESIAN_POINT('',(-0.620489854647,12.107970497081,
    1.351475942069));
#237 = CARTESIAN_POINT('',(-1.11257811621,12.608252444176,-3.35651376865
    ));
#238 = PLANE('',#239);
#239 = AXIS2_PLACEMENT_3D('',#240,#241,#242);
#240 = CARTESIAN_POINT('',(-0.196652241115,0.637327323073,
    -4.724306498753));
#241 = DIRECTION('',(0.991749502082,8.66730329624E-02,
    -9.444951285306E-02));
#242 = DIRECTION('',(7.579923554443E-02,-0.990677299999,-0.113194360094)
  );
#243 = ADVANCED_FACE('',(#244),#254,.T.);
#244 = FACE_BOUND('',#245,.T.);
#245 = EDGE_LOOP('',(#246,#247,#248,#249));
#246 = ORIENTED_EDGE('',*,*,#104,.T.);
#247 = ORIENTED_EDGE('',*,*,#234,.T.);
#248 = ORIENTED_EDGE('',*,*,#197,.F.);
#249 = ORIENTED_EDGE('',*,*,#250,.F.);
#250 = EDGE_CURVE('',#97,#190,#251,.T.);
#251 = B_SPLINE_CURVE_WITH_KNOTS('',1,(#252,#253),.UNSPECIFIED.,.F.,.F.,
  (2,2),(0.,1.),.PIECEWISE_BEZIER_KNOTS.);
#252 = CARTESIAN_POINT('',(-0.978162527919,12.469572203895,
    1.427285226262));
#253 = CARTESIAN_POINT('',(-1.470250789482,12.969854150991,
    -3.280704484457));
#254 = CYLINDRICAL_SURFACE('',#255,0.4);
#255 = AXIS2_PLACEMENT_3D('',#256,#257,#258);
#256 = CARTESIAN_POINT('',(-1.017189655479,12.073301283896,
    1.389255747211));
#257 = DIRECTION('',(-0.103379886883,0.10510124939,-0.989073468639));
#258 = DIRECTION('',(0.991749502082,8.66730329624E-02,
    -9.444951285306E-02));
#259 = ADVANCED_FACE('',(#260),#270,.T.);
#260 = FACE_BOUND('',#261,.T.);
#261 = EDGE_LOOP('',(#262,#263,#268,#269));
#262 = ORIENTED_EDGE('',*,*,#70,.T.);
#263 = ORIENTED_EDGE('',*,*,#264,.T.);
#264 = EDGE_CURVE('',#71,#164,#265,.T.);
#265 = B_SPLINE_CURVE_WITH_KNOTS('',1,(#266,#267),.UNSPECIFIED.,.F.,.F.,
  (2,2),(0.,1.),.PIECEWISE_BEZIER_KNOTS.);
#266 = CARTESIAN_POINT('',(-12.45883151507,1.115027189622,1.420706740209
    ));
#267 = CARTESIAN_POINT('',(-12.95091977663,1.615309136717,-3.28728297051
    ));
#268 = ORIENTED_EDGE('',*,*,#163,.F.);
#269 = ORIENTED_EDGE('',*,*,#139,.F.);
#270 = CYLINDRICAL_SURFACE('',#271,0.4);
#271 = AXIS2_PLACEMENT_3D('',#272,#273,#274);
#272 = CARTESIAN_POINT('',(-12.06213171424,1.149696402807,1.382926935068
    ));
#273 = DIRECTION('',(-0.103379886883,0.10510124939,-0.989073468639));
#274 = DIRECTION('',(0.991749502082,8.66730329624E-02,
    -9.444951285306E-02));
#275 = ADVANCED_FACE('',(#276),#286,.T.);
#276 = FACE_BOUND('',#277,.T.);
#277 = EDGE_LOOP('',(#278,#279,#280,#281));
#278 = ORIENTED_EDGE('',*,*,#96,.F.);
#279 = ORIENTED_EDGE('',*,*,#250,.T.);
#280 = ORIENTED_EDGE('',*,*,#189,.T.);
#281 = ORIENTED_EDGE('',*,*,#282,.F.);
#282 = EDGE_CURVE('',#88,#181,#283,.T.);
#283 = B_SPLINE_CURVE_WITH_KNOTS('',1,(#284,#285),.UNSPECIFIED.,.F.,.F.,
  (2,2),(0.,1.),.PIECEWISE_BEZIER_KNOTS.);
#284 = CARTESIAN_POINT('',(-12.93903046177,13.516892443909,
    2.788749144222));
#285 = CARTESIAN_POINT('',(-13.43111872334,14.017174391005,
    -1.919240566498));
#286 = PLANE('',#287);
#287 = AXIS2_PLACEMENT_3D('',#288,#289,#290);
#288 = CARTESIAN_POINT('',(-1.470250789482,12.969854150991,
    -3.280704484457));
#289 = DIRECTION('',(9.756781890198E-02,0.990677299999,
    9.507369762936E-02));
#290 = DIRECTION('',(0.989844997817,-8.66730329624E-02,-0.112670606878)
  );
#291 = ADVANCED_FACE('',(#292),#302,.T.);
#292 = FACE_BOUND('',#293,.T.);
#293 = EDGE_LOOP('',(#294,#295,#300,#301));
#294 = ORIENTED_EDGE('',*,*,#79,.F.);
#295 = ORIENTED_EDGE('',*,*,#296,.T.);
#296 = EDGE_CURVE('',#80,#173,#297,.T.);
#297 = B_SPLINE_CURVE_WITH_KNOTS('',1,(#298,#299),.UNSPECIFIED.,.F.,.F.,
  (2,2),(0.,1.),.PIECEWISE_BEZIER_KNOTS.);
#298 = CARTESIAN_POINT('',(-13.37475739017,13.085952310725,
    2.788499470312));
#299 = CARTESIAN_POINT('',(-13.86684565173,13.586234257821,
    -1.919490240408));
#300 = ORIENTED_EDGE('',*,*,#172,.T.);
#301 = ORIENTED_EDGE('',*,*,#264,.F.);
#302 = PLANE('',#303);
#303 = AXIS2_PLACEMENT_3D('',#304,#305,#306);
#304 = CARTESIAN_POINT('',(-13.86684565173,13.586234257821,
    -1.919490240408));
#305 = DIRECTION('',(-0.991749502082,-8.66730329624E-02,
    9.444951285306E-02));
#306 = DIRECTION('',(-7.579923554443E-02,0.990677299999,0.113194360094)
  );
#307 = ADVANCED_FACE('',(#308),#314,.T.);
#308 = FACE_BOUND('',#309,.T.);
#309 = EDGE_LOOP('',(#310,#311,#312,#313));
#310 = ORIENTED_EDGE('',*,*,#87,.T.);
#311 = ORIENTED_EDGE('',*,*,#282,.T.);
#312 = ORIENTED_EDGE('',*,*,#180,.F.);
#313 = ORIENTED_EDGE('',*,*,#296,.F.);
#314 = CYLINDRICAL_SURFACE('',#315,0.4);
#315 = AXIS2_PLACEMENT_3D('',#316,#317,#318);
#316 = CARTESIAN_POINT('',(-12.97805758933,13.12062152391,2.75071966517)
  );
#317 = DIRECTION('',(-0.103379886883,0.10510124939,-0.989073468639));
#318 = DIRECTION('',(0.991749502082,8.66730329624E-02,
    -9.444951285306E-02));
#319 = ADVANCED_FACE('',(#320),#331,.F.);
#320 = FACE_BOUND('',#321,.F.);
#321 = EDGE_LOOP('',(#322,#323,#329,#330));
#322 = ORIENTED_EDGE('',*,*,#121,.F.);
#323 = ORIENTED_EDGE('',*,*,#324,.F.);
#324 = EDGE_CURVE('',#215,#122,#325,.T.);
#325 = LINE('',#326,#327);
#326 = CARTESIAN_POINT('',(-5.294294093719,7.53526785094,-5.864792448461
    ));
#327 = VECTOR('',#328,1.);
#328 = DIRECTION('',(0.103379886883,-0.10510124939,0.989073468639));
#329 = ORIENTED_EDGE('',*,*,#214,.T.);
#330 = ORIENTED_EDGE('',*,*,#324,.T.);
#331 = CYLINDRICAL_SURFACE('',#332,2.);
#332 = AXIS2_PLACEMENT_3D('',#333,#334,#335);
#333 = CARTESIAN_POINT('',(-7.277793097882,7.361921785015,
    -5.675893422755));
#334 = DIRECTION('',(0.103379886883,-0.10510124939,0.989073468639));
#335 = DIRECTION('',(0.991749502082,8.66730329624E-02,
    -9.444951285306E-02));
#336 = ( GEOMETRIC_REPRESENTATION_CONTEXT(3) 
GLOBAL_UNCERTAINTY_ASSIGNED_CONTEXT((#340)) GLOBAL_UNIT_ASSIGNED_CONTEXT
((#337,#338,#339)) REPRESENTATION_CONTEXT('Context #1',
  '3D Context with UNIT and UNCERTAINTY') );
#337 = ( LENGTH_UNIT() NAMED_UNIT(*) SI_UNIT(.MILLI.,.METRE.) );
#338 = ( NAMED_UNIT(*) PLANE_ANGLE_UNIT() SI_UNIT($,.RADIAN.) );
#339 = ( NAMED_UNIT(*) SI_UNIT($,.STERADIAN.) SOLID_ANGLE_UNIT() );
#340 = UNCERTAINTY_MEASURE_WITH_UNIT(LENGTH_MEASURE(1.E-07),#337,
  'distance_accuracy_value','confusion accuracy');
#341 = PRODUCT_RELATED_PRODUCT_CATEGORY('part',$,(#7));
#342 = MECHANICAL_DESIGN_GEOMETRIC_PRESENTATION_REPRESENTATION('',(#343)
  ,#336);
#343 = STYLED_ITEM('color',(#344),#15);
#344 = PRESENTATION_STYLE_ASSIGNMENT((#345));
#345 = SURFACE_STYLE_USAGE(.BOTH.,#346);
#346 = SURFACE_SIDE_STYLE('',(#347));
#347 = SURFACE_STYLE_FILL_AREA(#348);
#348 = FILL_AREA_STYLE('',(#349));
#349 = FILL_AREA_STYLE_COLOUR('',#350);
#350 = DRAUGHTING_PRE_DEFINED_COLOUR('green');
ENDSEC;
END-ISO-10303-21;
