ISO-10303-21;
HEADER;
FILE_DESCRIPTION(('Open CASCADE Model'),'2;1');
FILE_NAME('Open CASCADE Shape Model','2026-09-18T15:44:49',('Author'),(
    'Open CASCADE'),'Open CASCADE STEP processor 7.3','Open CASCADE 7.3'
  ,'Unknown');
FILE_SCHEMA(('AUTOMOTIVE_DESIGN { 1 0 10303 214 1 1 1 1 }'));
ENDSEC;
DATA;
#1 = APPLICATION_PROTOCOL_DEFINITION('international standard',
  'automotive_design',2000,#2);
#2 = APPLICATION_CONTEXT(
  'core data for automotive mechanical design processes');
#3 = SHAPE_DEFINITION_REPRESENTATION(#4,#10);
#4 = PRODUCT_DEFINITION_SHAPE('','',#5);
#5 = PRODUCT_DEFINITION('design','',#6,#9);
#6 = PRODUCT_DEFINITION_FORMATION('','',#7);
#7 = PRODUCT('Pottmanager 89','Pottmanager 89','',(#8));
#8 = PRODUCT_CONTEXT('',#2,'mechanical');
#9 = PRODUCT_DEFINITION_CONTEXT('part definition',#2,'design');
#10 = ADVANCED_BREP_SHAPE_REPRESENTATION('',(#11,#15),#432);
#11 = AXIS2_PLACEMENT_3D('',#12,#13,#14);
#12 = CARTESIAN_POINT('',(0.,0.,0.));
#13 = DIRECTION('',(0.,0.,1.));
#14 = DIRECTION('',(1.,0.,-0.));
#15 = MANIFOLD_SOLID_BREP('',#16);
#16 = CLOSED_SHELL('',(#17,#123,#146,#170,#194,#288,#338,#389,#407,#421)
  );
#17 = ADVANCED_FACE('',(#18),#118,.T.);
#18 = FACE_BOUND('',#19,.T.);
#19 = EDGE_LOOP('',(#20,#31,#40,#48,#57,#66,#103,#112));
#20 = ORIENTED_EDGE('',*,*,#21,.T.);
#21 = EDGE_CURVE('',#22,#24,#26,.T.);
#22 = VERTEX_POINT('',#23);
#23 = CARTESIAN_POINT('',(-4.708574232475,0.305743533492,-0.170276702154
    ));
#24 = VERTEX_POINT('',#25);
#25 = CARTESIAN_POINT('',(-45.29783939147,3.856844095753,-34.62108737319
    ));
#26 = ELLIPSE('',#27,35.133694314017,35.);
#27 = AXIS2_PLACEMENT_3D('',#28,#29,#30);
#28 = CARTESIAN_POINT('',(-39.70843137504,3.367834258494,
    -7.02767021544E-02));
#29 = DIRECTION('',(8.715574274766E-02,0.996194698092,
    -2.318731583045E-16));
#30 = DIRECTION('',(-0.996194698092,8.715574274766E-02,
    1.026462023692E-16));
#31 = ORIENTED_EDGE('',*,*,#32,.T.);
#32 = EDGE_CURVE('',#24,#33,#35,.T.);
#33 = VERTEX_POINT('',#34);
#34 = CARTESIAN_POINT('',(-74.70843137504,25.914788083427,
    -7.02767021544E-02));
#35 = ELLIPSE('',#36,43.75,35.);
#36 = AXIS2_PLACEMENT_3D('',#37,#38,#39);
#37 = CARTESIAN_POINT('',(-39.70843137504,-0.335211916573,
    -7.02767021544E-02));
#38 = DIRECTION('',(0.6,0.8,-2.511144918889E-16));
#39 = DIRECTION('',(-0.8,0.6,-3.525501902323E-17));
#40 = ORIENTED_EDGE('',*,*,#41,.T.);
#41 = EDGE_CURVE('',#33,#42,#44,.T.);
#42 = VERTEX_POINT('',#43);
#43 = CARTESIAN_POINT('',(-74.70843137504,29.664788083427,
    -7.02767021544E-02));
#44 = LINE('',#45,#46);
#45 = CARTESIAN_POINT('',(-74.70843137504,-0.335211916573,
    -7.027670215439E-02));
#46 = VECTOR('',#47,1.);
#47 = DIRECTION('',(-1.359631073447E-32,1.,-2.22044604925E-16));
#48 = ORIENTED_EDGE('',*,*,#49,.F.);
#49 = EDGE_CURVE('',#50,#42,#52,.T.);
#50 = VERTEX_POINT('',#51);
#51 = CARTESIAN_POINT('',(-39.70843137504,29.664788083427,
    -35.07027670215));
#52 = CIRCLE('',#53,35.);
#53 = AXIS2_PLACEMENT_3D('',#54,#55,#56);
#54 = CARTESIAN_POINT('',(-39.70843137504,29.664788083427,
    -7.027670215441E-02));
#55 = DIRECTION('',(-1.359631073447E-32,1.,-2.22044604925E-16));
#56 = DIRECTION('',(-1.,1.359631073447E-32,1.224646799147E-16));
#57 = ORIENTED_EDGE('',*,*,#58,.F.);
#58 = EDGE_CURVE('',#59,#50,#61,.T.);
#59 = VERTEX_POINT('',#60);
#60 = CARTESIAN_POINT('',(-4.887270809603,29.664788083427,3.463386676829
    ));
#61 = CIRCLE('',#62,35.);
#62 = AXIS2_PLACEMENT_3D('',#63,#64,#65);
#63 = CARTESIAN_POINT('',(-39.70843137504,29.664788083427,
    -7.027670215441E-02));
#64 = DIRECTION('',(-1.359631073447E-32,1.,-2.22044604925E-16));
#65 = DIRECTION('',(-1.,1.359631073447E-32,1.224646799147E-16));
#66 = ORIENTED_EDGE('',*,*,#67,.F.);
#67 = EDGE_CURVE('',#68,#59,#70,.T.);
#68 = VERTEX_POINT('',#69);
#69 = CARTESIAN_POINT('',(-4.708431375041,15.168788083427,
    -7.02767021544E-02));
#70 = B_SPLINE_CURVE_WITH_KNOTS('',6,(#71,#72,#73,#74,#75,#76,#77,#78,
    #79,#80,#81,#82,#83,#84,#85,#86,#87,#88,#89,#90,#91,#92,#93,#94,#95,
    #96,#97,#98,#99,#100,#101,#102),.UNSPECIFIED.,.F.,.F.,(7,5,5,5,5,5,7
    ),(0.,0.259237506156,0.50612180783,0.69050439538,0.80996725686,
    0.904096747124,1.),.UNSPECIFIED.);
#71 = CARTESIAN_POINT('',(-4.907432548961,0.305742933472,3.656716819065)
  );
#72 = CARTESIAN_POINT('',(-4.838129700459,1.514946041827,3.009597811309)
  );
#73 = CARTESIAN_POINT('',(-4.790989774766,2.744141452557,2.433050117642)
  );
#74 = CARTESIAN_POINT('',(-4.759759666203,3.989447889713,1.925667873355)
  );
#75 = CARTESIAN_POINT('',(-4.739669205594,5.247650243335,1.486053830372)
  );
#76 = CARTESIAN_POINT('',(-4.727087203399,6.516067662709,1.112995281942)
  );
#77 = CARTESIAN_POINT('',(-4.71206279017,9.007935869281,0.512784270752)
  );
#78 = CARTESIAN_POINT('',(-4.709165405206,10.230683254987,0.279518028234
    ));
#79 = CARTESIAN_POINT('',(-4.708434990008,11.458634022205,0.104982647046
    ));
#80 = CARTESIAN_POINT('',(-4.708431419729,12.689982190297,
    -1.135871913078E-02));
#81 = CARTESIAN_POINT('',(-4.708431375077,13.923038482419,
    -6.977875618291E-02));
#82 = CARTESIAN_POINT('',(-4.708431375014,16.077054455254,
    -7.064414636717E-02));
#83 = CARTESIAN_POINT('',(-4.708431105156,16.9979700195,
    -3.870601438146E-02));
#84 = CARTESIAN_POINT('',(-4.708430349632,17.918191661087,
    2.553963006479E-02));
#85 = CARTESIAN_POINT('',(-4.708648694182,18.837005667892,0.122175040244
    ));
#86 = CARTESIAN_POINT('',(-4.709534350764,19.75367217566,0.251365045627)
  );
#87 = CARTESIAN_POINT('',(-4.713223408287,21.259452218973,0.518312421448
    ));
#88 = CARTESIAN_POINT('',(-4.715241874642,21.850252919087,0.63703722212)
  );
#89 = CARTESIAN_POINT('',(-4.718015387556,22.439621231732,0.769599138648
    ));
#90 = CARTESIAN_POINT('',(-4.721773143538,23.027337445537,0.916079890345
    ));
#91 = CARTESIAN_POINT('',(-4.72678952229,23.613167980776,1.076574503654)
  );
#92 = CARTESIAN_POINT('',(-4.738585554824,24.656783601792,1.388777973327
    ));
#93 = CARTESIAN_POINT('',(-4.744765710538,25.115377420558,1.535132545394
    ));
#94 = CARTESIAN_POINT('',(-4.752085446311,25.572525973236,1.69030749582)
  );
#95 = CARTESIAN_POINT('',(-4.760721247066,26.028099847057,1.854359826144
    ));
#96 = CARTESIAN_POINT('',(-4.770869587955,26.481961166222,2.027350225512
    ));
#97 = CARTESIAN_POINT('',(-4.794850931808,27.394483584276,2.394764551296
    ));
#98 = CARTESIAN_POINT('',(-4.808749813977,27.85307589715,2.589531719326)
  );
#99 = CARTESIAN_POINT('',(-4.824675392123,28.309580600337,2.793709934026
    ));
#100 = CARTESIAN_POINT('',(-4.842880916835,28.763825621446,
    3.007366547725));
#101 = CARTESIAN_POINT('',(-4.863644451531,29.21562693172,3.230569612325
    ));
#102 = CARTESIAN_POINT('',(-4.887270841163,29.664788683427,
    3.463386987832));
#103 = ORIENTED_EDGE('',*,*,#104,.T.);
#104 = EDGE_CURVE('',#68,#105,#107,.T.);
#105 = VERTEX_POINT('',#106);
#106 = CARTESIAN_POINT('',(-4.708574232475,15.168788083427,
    -0.170276702154));
#107 = CIRCLE('',#108,35.);
#108 = AXIS2_PLACEMENT_3D('',#109,#110,#111);
#109 = CARTESIAN_POINT('',(-39.70843137504,15.168788083427,
    -7.02767021544E-02));
#110 = DIRECTION('',(-1.359631073447E-32,1.,-2.22044604925E-16));
#111 = DIRECTION('',(-1.,1.359631073447E-32,1.224646799147E-16));
#112 = ORIENTED_EDGE('',*,*,#113,.F.);
#113 = EDGE_CURVE('',#22,#105,#114,.T.);
#114 = LINE('',#115,#116);
#115 = CARTESIAN_POINT('',(-4.708574232475,-0.335211916573,
    -0.170276702154));
#116 = VECTOR('',#117,1.);
#117 = DIRECTION('',(-1.359631073447E-32,1.,-2.22044604925E-16));
#118 = CYLINDRICAL_SURFACE('',#119,35.);
#119 = AXIS2_PLACEMENT_3D('',#120,#121,#122);
#120 = CARTESIAN_POINT('',(-39.70843137504,-0.335211916573,
    -7.02767021544E-02));
#121 = DIRECTION('',(-1.359631073447E-32,1.,-2.22044604925E-16));
#122 = DIRECTION('',(-1.,1.359631073447E-32,1.224646799147E-16));
#123 = ADVANCED_FACE('',(#124),#141,.F.);
#124 = FACE_BOUND('',#125,.F.);
#125 = EDGE_LOOP('',(#126,#134,#140));
#126 = ORIENTED_EDGE('',*,*,#127,.F.);
#127 = EDGE_CURVE('',#128,#24,#130,.T.);
#128 = VERTEX_POINT('',#129);
#129 = CARTESIAN_POINT('',(-45.29783939147,3.856844095753,
    -0.170276702154));
#130 = LINE('',#131,#132);
#131 = CARTESIAN_POINT('',(-45.29783939147,3.856844095753,
    34.929723297846));
#132 = VECTOR('',#133,1.);
#133 = DIRECTION('',(-1.224646799147E-16,-2.22044604925E-16,-1.));
#134 = ORIENTED_EDGE('',*,*,#135,.T.);
#135 = EDGE_CURVE('',#128,#22,#136,.T.);
#136 = LINE('',#137,#138);
#137 = CARTESIAN_POINT('',(12.725451916437,-1.219536114152,
    -0.170276702154));
#138 = VECTOR('',#139,1.);
#139 = DIRECTION('',(0.996194698092,-8.715574274766E-02,
    -1.026462023692E-16));
#140 = ORIENTED_EDGE('',*,*,#21,.T.);
#141 = PLANE('',#142);
#142 = AXIS2_PLACEMENT_3D('',#143,#144,#145);
#143 = CARTESIAN_POINT('',(0.331569624959,-0.135211916573,
    -7.02767021544E-02));
#144 = DIRECTION('',(8.715574274766E-02,0.996194698092,
    -2.318731583045E-16));
#145 = DIRECTION('',(-1.224646799147E-16,-2.22044604925E-16,-1.));
#146 = ADVANCED_FACE('',(#147),#165,.T.);
#147 = FACE_BOUND('',#148,.T.);
#148 = EDGE_LOOP('',(#149,#150,#151,#159));
#149 = ORIENTED_EDGE('',*,*,#135,.T.);
#150 = ORIENTED_EDGE('',*,*,#113,.T.);
#151 = ORIENTED_EDGE('',*,*,#152,.T.);
#152 = EDGE_CURVE('',#105,#153,#155,.T.);
#153 = VERTEX_POINT('',#154);
#154 = CARTESIAN_POINT('',(-60.38043137504,15.168788083427,
    -0.170276702154));
#155 = LINE('',#156,#157);
#156 = CARTESIAN_POINT('',(25.291568624959,15.168788083427,
    -0.170276702154));
#157 = VECTOR('',#158,1.);
#158 = DIRECTION('',(-1.,1.359631073447E-32,1.224646799147E-16));
#159 = ORIENTED_EDGE('',*,*,#160,.F.);
#160 = EDGE_CURVE('',#128,#153,#161,.T.);
#161 = LINE('',#162,#163);
#162 = CARTESIAN_POINT('',(-18.90843137504,-15.93521191657,
    -0.170276702154));
#163 = VECTOR('',#164,1.);
#164 = DIRECTION('',(-0.8,0.6,-3.525501902323E-17));
#165 = PLANE('',#166);
#166 = AXIS2_PLACEMENT_3D('',#167,#168,#169);
#167 = CARTESIAN_POINT('',(25.291568624959,-0.335211916573,
    -0.170276702154));
#168 = DIRECTION('',(1.224646799147E-16,2.22044604925E-16,1.));
#169 = DIRECTION('',(-1.,1.359631073447E-32,1.224646799147E-16));
#170 = ADVANCED_FACE('',(#171),#189,.F.);
#171 = FACE_BOUND('',#172,.F.);
#172 = EDGE_LOOP('',(#173,#181,#182,#183));
#173 = ORIENTED_EDGE('',*,*,#174,.T.);
#174 = EDGE_CURVE('',#175,#68,#177,.T.);
#175 = VERTEX_POINT('',#176);
#176 = CARTESIAN_POINT('',(-60.38043137504,15.168788083427,
    -7.02767021544E-02));
#177 = LINE('',#178,#179);
#178 = CARTESIAN_POINT('',(-107.708431375,15.168788083427,
    -7.027670215439E-02));
#179 = VECTOR('',#180,1.);
#180 = DIRECTION('',(1.,-1.359631073447E-32,-1.224646799147E-16));
#181 = ORIENTED_EDGE('',*,*,#104,.T.);
#182 = ORIENTED_EDGE('',*,*,#152,.T.);
#183 = ORIENTED_EDGE('',*,*,#184,.F.);
#184 = EDGE_CURVE('',#175,#153,#185,.T.);
#185 = LINE('',#186,#187);
#186 = CARTESIAN_POINT('',(-60.38043137504,15.168788083427,
    52.404723297846));
#187 = VECTOR('',#188,1.);
#188 = DIRECTION('',(-1.224646799147E-16,-2.22044604925E-16,-1.));
#189 = PLANE('',#190);
#190 = AXIS2_PLACEMENT_3D('',#191,#192,#193);
#191 = CARTESIAN_POINT('',(-44.70843137504,15.168788083427,
    34.879723297846));
#192 = DIRECTION('',(-1.359631073447E-32,1.,-2.22044604925E-16));
#193 = DIRECTION('',(-1.224646799147E-16,-2.22044604925E-16,-1.));
#194 = ADVANCED_FACE('',(#195),#283,.F.);
#195 = FACE_BOUND('',#196,.F.);
#196 = EDGE_LOOP('',(#197,#198,#199,#208,#231,#254,#262));
#197 = ORIENTED_EDGE('',*,*,#67,.F.);
#198 = ORIENTED_EDGE('',*,*,#174,.F.);
#199 = ORIENTED_EDGE('',*,*,#200,.T.);
#200 = EDGE_CURVE('',#175,#201,#203,.T.);
#201 = VERTEX_POINT('',#202);
#202 = CARTESIAN_POINT('',(-74.65811991103,25.877054485421,
    1.805695370328));
#203 = ELLIPSE('',#204,52.5,31.5);
#204 = AXIS2_PLACEMENT_3D('',#205,#206,#207);
#205 = CARTESIAN_POINT('',(-60.38043137504,15.168788083427,
    31.429723297846));
#206 = DIRECTION('',(0.6,0.8,-2.511144918889E-16));
#207 = DIRECTION('',(0.8,-0.6,3.525501902323E-17));
#208 = ORIENTED_EDGE('',*,*,#209,.T.);
#209 = EDGE_CURVE('',#201,#210,#212,.T.);
#210 = VERTEX_POINT('',#211);
#211 = CARTESIAN_POINT('',(-74.52959194047,29.664788083427,
    3.463386676829));
#212 = B_SPLINE_CURVE_WITH_KNOTS('',5,(#213,#214,#215,#216,#217,#218,
    #219,#220,#221,#222,#223,#224,#225,#226,#227,#228,#229,#230),
  .UNSPECIFIED.,.F.,.F.,(6,4,4,4,6),(0.,0.37121216048,0.614089056493,
    0.804830569467,1.),.UNSPECIFIED.);
#213 = CARTESIAN_POINT('',(-74.70843137504,15.168788552814,
    -7.02767021544E-02));
#214 = CARTESIAN_POINT('',(-74.70843137504,16.266667714542,
    -7.027668579472E-02));
#215 = CARTESIAN_POINT('',(-74.70843177421,17.364528486742,
    -2.244626210983E-02));
#216 = CARTESIAN_POINT('',(-74.70843003287,18.461021634905,
    7.321450495842E-02));
#217 = CARTESIAN_POINT('',(-74.70778113788,19.55472230332,0.21694767416)
  );
#218 = CARTESIAN_POINT('',(-74.70342266568,21.356906187491,0.53504617919
    ));
#219 = CARTESIAN_POINT('',(-74.70084866309,22.067840163166,
    0.681641366342));
#220 = CARTESIAN_POINT('',(-74.69704850455,22.776515413142,
    0.849158046121));
#221 = CARTESIAN_POINT('',(-74.6915181033,23.482474575417,1.037774723433
    ));
#222 = CARTESIAN_POINT('',(-74.67739416757,24.737112812147,
    1.412579336562));
#223 = CARTESIAN_POINT('',(-74.66971297466,25.287024083605,
    1.590597557095));
#224 = CARTESIAN_POINT('',(-74.66024821765,25.834710609671,
    1.781869380846));
#225 = CARTESIAN_POINT('',(-74.64862893043,26.379905340138,
    1.986512781583));
#226 = CARTESIAN_POINT('',(-74.61988126389,27.477318358107,
    2.427862471924));
#227 = CARTESIAN_POINT('',(-74.60263118163,28.02940883713,2.665203983509
    ));
#228 = CARTESIAN_POINT('',(-74.58220369778,28.578263773381,
    2.916813305429));
#229 = CARTESIAN_POINT('',(-74.55806308544,29.123522594118,
    3.182828481047));
#230 = CARTESIAN_POINT('',(-74.52959190891,29.664788683427,
    3.463386987832));
#231 = ORIENTED_EDGE('',*,*,#232,.T.);
#232 = EDGE_CURVE('',#210,#233,#235,.T.);
#233 = VERTEX_POINT('',#234);
#234 = CARTESIAN_POINT('',(-73.93716835445,39.703789083427,
    11.674123435275));
#235 = B_SPLINE_CURVE_WITH_KNOTS('',5,(#236,#237,#238,#239,#240,#241,
    #242,#243,#244,#245,#246,#247,#248,#249,#250,#251,#252,#253),
  .UNSPECIFIED.,.F.,.F.,(6,4,4,4,6),(0.,0.238977095316,0.493646455746,
    0.730553495014,1.),.UNSPECIFIED.);
#236 = CARTESIAN_POINT('',(-74.52959189716,29.664788083427,
    3.463386676829));
#237 = CARTESIAN_POINT('',(-74.58239522704,30.220462932201,3.75141378106
    ));
#238 = CARTESIAN_POINT('',(-74.62939675699,30.769890520012,4.053711858)
  );
#239 = CARTESIAN_POINT('',(-74.66980068991,31.312571657968,
    4.370136360478));
#240 = CARTESIAN_POINT('',(-74.70271077212,31.847917179268,
    4.700469201377));
#241 = CARTESIAN_POINT('',(-74.75320492624,32.937257459914,
    5.410852607112));
#242 = CARTESIAN_POINT('',(-74.76964008726,33.490159583215,
    5.792737713533));
#243 = CARTESIAN_POINT('',(-74.77528830889,34.033186086699,
    6.189609969355));
#244 = CARTESIAN_POINT('',(-74.7688714411,34.565385606098,6.600846975508
    ));
#245 = CARTESIAN_POINT('',(-74.73076511969,35.569775907662,
    7.420557123105));
#246 = CARTESIAN_POINT('',(-74.70086965433,36.043560978512,
    7.827220656481));
#247 = CARTESIAN_POINT('',(-74.658434173,36.506235415545,8.244733861614)
  );
#248 = CARTESIAN_POINT('',(-74.60246668225,36.956878309806,8.67207288232
    ));
#249 = CARTESIAN_POINT('',(-74.45220889657,37.892409723508,9.60357952333
    ));
#250 = CARTESIAN_POINT('',(-74.35370723963,38.373523622715,
    10.110260569458));
#251 = CARTESIAN_POINT('',(-74.23549105995,38.836538981136,
    10.625917789841));
#252 = CARTESIAN_POINT('',(-74.09670940772,39.280258166706,
    11.148129231339));
#253 = CARTESIAN_POINT('',(-73.93716837335,39.703789083427,
    11.674123435275));
#254 = ORIENTED_EDGE('',*,*,#255,.T.);
#255 = EDGE_CURVE('',#233,#256,#258,.T.);
#256 = VERTEX_POINT('',#257);
#257 = CARTESIAN_POINT('',(-15.47969439562,39.703789083427,
    11.674123435275));
#258 = LINE('',#259,#260);
#259 = CARTESIAN_POINT('',(-107.708431375,39.703789083427,
    11.674123435275));
#260 = VECTOR('',#261,1.);
#261 = DIRECTION('',(1.,-1.359631073447E-32,-1.224646799147E-16));
#262 = ORIENTED_EDGE('',*,*,#263,.F.);
#263 = EDGE_CURVE('',#59,#256,#264,.T.);
#264 = B_SPLINE_CURVE_WITH_KNOTS('',5,(#265,#266,#267,#268,#269,#270,
    #271,#272,#273,#274,#275,#276,#277,#278,#279,#280,#281,#282),
  .UNSPECIFIED.,.F.,.F.,(6,4,4,4,6),(0.,0.220861617211,0.454628874558,
    0.709953812052,1.),.UNSPECIFIED.);
#265 = CARTESIAN_POINT('',(-4.88727085292,29.664788083427,3.463386676829
    ));
#266 = CARTESIAN_POINT('',(-5.352268958964,30.180827972227,
    3.730869495543));
#267 = CARTESIAN_POINT('',(-5.816813503192,30.691379833742,
    4.010608110777));
#268 = CARTESIAN_POINT('',(-6.281008085096,31.195897138655,4.30239909757
    ));
#269 = CARTESIAN_POINT('',(-6.74498994889,31.693808729912,4.605970260974
    ));
#270 = CARTESIAN_POINT('',(-7.699970892505,32.703938129591,
    5.254363762786));
#271 = CARTESIAN_POINT('',(-8.190965042615,33.21529244941,5.600560387546
    ));
#272 = CARTESIAN_POINT('',(-8.68210530364,33.717913151868,5.959130057848
    ));
#273 = CARTESIAN_POINT('',(-9.173629994599,34.211109785794,
    6.329543859675));
#274 = CARTESIAN_POINT('',(-10.20336962488,35.221881145294,
    7.127961805226));
#275 = CARTESIAN_POINT('',(-10.74171099894,35.737510504121,
    7.558127312894));
#276 = CARTESIAN_POINT('',(-11.28117689328,36.24024412006,8.000814106898
    ));
#277 = CARTESIAN_POINT('',(-11.82216022489,36.729264258152,
    8.455021263895));
#278 = CARTESIAN_POINT('',(-12.98180784226,37.742984925336,
    9.447348088078));
#279 = CARTESIAN_POINT('',(-13.60103260426,38.263495273784,9.98848019531
    ));
#280 = CARTESIAN_POINT('',(-14.22334108871,38.764335498894,
    10.54130474066));
#281 = CARTESIAN_POINT('',(-14.84936369083,39.244634731484,
    11.103887548592));
#282 = CARTESIAN_POINT('',(-15.47969437672,39.703789083427,
    11.674123435275));
#283 = CYLINDRICAL_SURFACE('',#284,31.5);
#284 = AXIS2_PLACEMENT_3D('',#285,#286,#287);
#285 = CARTESIAN_POINT('',(-107.708431375,15.168788083427,
    31.429723297846));
#286 = DIRECTION('',(1.,-1.359631073447E-32,-1.224646799147E-16));
#287 = DIRECTION('',(1.224646799147E-16,2.22044604925E-16,1.));
#288 = ADVANCED_FACE('',(#289),#307,.T.);
#289 = FACE_BOUND('',#290,.T.);
#290 = EDGE_LOOP('',(#291,#292,#299,#306));
#291 = ORIENTED_EDGE('',*,*,#58,.T.);
#292 = ORIENTED_EDGE('',*,*,#293,.T.);
#293 = EDGE_CURVE('',#50,#294,#296,.T.);
#294 = VERTEX_POINT('',#295);
#295 = CARTESIAN_POINT('',(-44.70843137504,39.703789083427,
    -31.57027670215));
#296 = B_SPLINE_CURVE_WITH_KNOTS('',1,(#297,#298),.UNSPECIFIED.,.F.,.F.,
  (2,2),(0.,1.),.PIECEWISE_BEZIER_KNOTS.);
#297 = CARTESIAN_POINT('',(-39.70843137504,29.664788083427,
    -35.07027670215));
#298 = CARTESIAN_POINT('',(-44.70843137504,39.703789083427,
    -31.57027670215));
#299 = ORIENTED_EDGE('',*,*,#300,.F.);
#300 = EDGE_CURVE('',#256,#294,#301,.T.);
#301 = CIRCLE('',#302,31.5);
#302 = AXIS2_PLACEMENT_3D('',#303,#304,#305);
#303 = CARTESIAN_POINT('',(-44.70843137504,39.703789083427,
    -7.027670215441E-02));
#304 = DIRECTION('',(-1.359631073447E-32,1.,-2.22044604925E-16));
#305 = DIRECTION('',(-1.224646799147E-16,-2.22044604925E-16,-1.));
#306 = ORIENTED_EDGE('',*,*,#263,.F.);
#307 = B_SPLINE_SURFACE_WITH_KNOTS('',14,1,(
    (#308,#309)
    ,(#310,#311)
    ,(#312,#313)
    ,(#314,#315)
    ,(#316,#317)
    ,(#318,#319)
    ,(#320,#321)
    ,(#322,#323)
    ,(#324,#325)
    ,(#326,#327)
    ,(#328,#329)
    ,(#330,#331)
    ,(#332,#333)
    ,(#334,#335)
    ,(#336,#337
    )),.UNSPECIFIED.,.T.,.F.,.F.,(15,15),(2,2),(0.,6.28318530718),(0.,1.
    ),.PIECEWISE_BEZIER_KNOTS.);
#308 = CARTESIAN_POINT('',(-39.70843137504,29.664788083427,
    -35.07027670215));
#309 = CARTESIAN_POINT('',(-44.70843137504,39.703789083427,
    -31.57027670215));
#310 = CARTESIAN_POINT('',(-55.416394643,29.664788083431,-35.07027670215
    ));
#311 = CARTESIAN_POINT('',(-58.8455983162,39.703789083425,
    -31.57027670215));
#312 = CARTESIAN_POINT('',(-71.12436370909,29.664788083413,
    -27.47827406017));
#313 = CARTESIAN_POINT('',(-72.98277047569,39.703789083438,
    -24.73747432435));
#314 = CARTESIAN_POINT('',(-82.85710850513,29.664788083456,
    -12.29425907053));
#315 = CARTESIAN_POINT('',(-83.5422407921,39.703789083384,
    -11.07186083374));
#316 = CARTESIAN_POINT('',(-86.63984722889,29.66478808339,8.21109481359)
  );
#317 = CARTESIAN_POINT('',(-86.94670564354,39.703789083546,
    7.382957662115));
#318 = CARTESIAN_POINT('',(-79.92262151048,29.664788083447,
    29.496871412151));
#319 = CARTESIAN_POINT('',(-80.90120249689,39.703789083182,
    26.540156600558));
#320 = CARTESIAN_POINT('',(-63.01441495918,29.664788083452,
    45.746182855629));
#321 = CARTESIAN_POINT('',(-65.68381660082,39.703789083816,
    41.164536900073));
#322 = CARTESIAN_POINT('',(-39.7084313756,29.664788083351,
    51.863724369849));
#323 = CARTESIAN_POINT('',(-44.70843137551,39.703789082939,
    46.670324262398));
#324 = CARTESIAN_POINT('',(-16.40244778986,29.664788083532,
    45.746182855616));
#325 = CARTESIAN_POINT('',(-23.73304614838,39.703789083918,
    41.164536900076));
#326 = CARTESIAN_POINT('',(0.505758759627,29.664788083327,
    29.496871412169));
#327 = CARTESIAN_POINT('',(-8.515660253861,39.70378908303,
    26.540156600553));
#328 = CARTESIAN_POINT('',(7.222984479294,29.664788083498,8.211094813575
    ));
#329 = CARTESIAN_POINT('',(-2.470157106116,39.703789083683,
    7.382957662117));
#330 = CARTESIAN_POINT('',(3.440245754813,29.66478808339,-12.29425907052
    ));
#331 = CARTESIAN_POINT('',(-5.874621958188,39.703789083299,
    -11.07186083374));
#332 = CARTESIAN_POINT('',(-8.292499040901,29.664788083441,
    -27.47827406017));
#333 = CARTESIAN_POINT('',(-16.4340922743,39.703789083474,
    -24.73747432435));
#334 = CARTESIAN_POINT('',(-24.00046810709,29.664788083424,
    -35.07027670215));
#335 = CARTESIAN_POINT('',(-30.57126443389,39.703789083417,
    -31.57027670215));
#336 = CARTESIAN_POINT('',(-39.70843137504,29.664788083427,
    -35.07027670215));
#337 = CARTESIAN_POINT('',(-44.70843137504,39.703789083427,
    -31.57027670215));
#338 = ADVANCED_FACE('',(#339),#358,.T.);
#339 = FACE_BOUND('',#340,.T.);
#340 = EDGE_LOOP('',(#341,#342,#343,#350,#351));
#341 = ORIENTED_EDGE('',*,*,#293,.F.);
#342 = ORIENTED_EDGE('',*,*,#49,.T.);
#343 = ORIENTED_EDGE('',*,*,#344,.T.);
#344 = EDGE_CURVE('',#42,#210,#345,.T.);
#345 = CIRCLE('',#346,35.);
#346 = AXIS2_PLACEMENT_3D('',#347,#348,#349);
#347 = CARTESIAN_POINT('',(-39.70843137504,29.664788083427,
    -7.027670215441E-02));
#348 = DIRECTION('',(-1.359631073447E-32,1.,-2.22044604925E-16));
#349 = DIRECTION('',(-1.,1.359631073447E-32,1.224646799147E-16));
#350 = ORIENTED_EDGE('',*,*,#232,.T.);
#351 = ORIENTED_EDGE('',*,*,#352,.F.);
#352 = EDGE_CURVE('',#294,#233,#353,.T.);
#353 = CIRCLE('',#354,31.5);
#354 = AXIS2_PLACEMENT_3D('',#355,#356,#357);
#355 = CARTESIAN_POINT('',(-44.70843137504,39.703789083427,
    -7.027670215441E-02));
#356 = DIRECTION('',(-1.359631073447E-32,1.,-2.22044604925E-16));
#357 = DIRECTION('',(-1.224646799147E-16,-2.22044604925E-16,-1.));
#358 = B_SPLINE_SURFACE_WITH_KNOTS('',14,1,(
    (#359,#360)
    ,(#361,#362)
    ,(#363,#364)
    ,(#365,#366)
    ,(#367,#368)
    ,(#369,#370)
    ,(#371,#372)
    ,(#373,#374)
    ,(#375,#376)
    ,(#377,#378)
    ,(#379,#380)
    ,(#381,#382)
    ,(#383,#384)
    ,(#385,#386)
    ,(#387,#388
    )),.UNSPECIFIED.,.T.,.F.,.F.,(15,15),(2,2),(0.,6.28318530718),(0.,1.
    ),.PIECEWISE_BEZIER_KNOTS.);
#359 = CARTESIAN_POINT('',(-39.70843137504,29.664788083427,
    -35.07027670215));
#360 = CARTESIAN_POINT('',(-44.70843137504,39.703789083427,
    -31.57027670215));
#361 = CARTESIAN_POINT('',(-55.416394643,29.664788083431,-35.07027670215
    ));
#362 = CARTESIAN_POINT('',(-58.8455983162,39.703789083425,
    -31.57027670215));
#363 = CARTESIAN_POINT('',(-71.12436370909,29.664788083413,
    -27.47827406017));
#364 = CARTESIAN_POINT('',(-72.98277047569,39.703789083438,
    -24.73747432435));
#365 = CARTESIAN_POINT('',(-82.85710850513,29.664788083456,
    -12.29425907053));
#366 = CARTESIAN_POINT('',(-83.5422407921,39.703789083384,
    -11.07186083374));
#367 = CARTESIAN_POINT('',(-86.63984722889,29.66478808339,8.21109481359)
  );
#368 = CARTESIAN_POINT('',(-86.94670564354,39.703789083546,
    7.382957662115));
#369 = CARTESIAN_POINT('',(-79.92262151048,29.664788083447,
    29.496871412151));
#370 = CARTESIAN_POINT('',(-80.90120249689,39.703789083182,
    26.540156600558));
#371 = CARTESIAN_POINT('',(-63.01441495918,29.664788083452,
    45.746182855629));
#372 = CARTESIAN_POINT('',(-65.68381660082,39.703789083816,
    41.164536900073));
#373 = CARTESIAN_POINT('',(-39.7084313756,29.664788083351,
    51.863724369849));
#374 = CARTESIAN_POINT('',(-44.70843137551,39.703789082939,
    46.670324262398));
#375 = CARTESIAN_POINT('',(-16.40244778986,29.664788083532,
    45.746182855616));
#376 = CARTESIAN_POINT('',(-23.73304614838,39.703789083918,
    41.164536900076));
#377 = CARTESIAN_POINT('',(0.505758759627,29.664788083327,
    29.496871412169));
#378 = CARTESIAN_POINT('',(-8.515660253861,39.70378908303,
    26.540156600553));
#379 = CARTESIAN_POINT('',(7.222984479294,29.664788083498,8.211094813575
    ));
#380 = CARTESIAN_POINT('',(-2.470157106116,39.703789083683,
    7.382957662117));
#381 = CARTESIAN_POINT('',(3.440245754813,29.66478808339,-12.29425907052
    ));
#382 = CARTESIAN_POINT('',(-5.874621958188,39.703789083299,
    -11.07186083374));
#383 = CARTESIAN_POINT('',(-8.292499040901,29.664788083441,
    -27.47827406017));
#384 = CARTESIAN_POINT('',(-16.4340922743,39.703789083474,
    -24.73747432435));
#385 = CARTESIAN_POINT('',(-24.00046810709,29.664788083424,
    -35.07027670215));
#386 = CARTESIAN_POINT('',(-30.57126443389,39.703789083417,
    -31.57027670215));
#387 = CARTESIAN_POINT('',(-39.70843137504,29.664788083427,
    -35.07027670215));
#388 = CARTESIAN_POINT('',(-44.70843137504,39.703789083427,
    -31.57027670215));
#389 = ADVANCED_FACE('',(#390),#402,.T.);
#390 = FACE_BOUND('',#391,.T.);
#391 = EDGE_LOOP('',(#392,#393,#394,#401));
#392 = ORIENTED_EDGE('',*,*,#344,.F.);
#393 = ORIENTED_EDGE('',*,*,#41,.F.);
#394 = ORIENTED_EDGE('',*,*,#395,.T.);
#395 = EDGE_CURVE('',#33,#201,#396,.T.);
#396 = ELLIPSE('',#397,43.75,35.);
#397 = AXIS2_PLACEMENT_3D('',#398,#399,#400);
#398 = CARTESIAN_POINT('',(-39.70843137504,-0.335211916573,
    -7.02767021544E-02));
#399 = DIRECTION('',(0.6,0.8,-2.511144918889E-16));
#400 = DIRECTION('',(-0.8,0.6,-3.525501902323E-17));
#401 = ORIENTED_EDGE('',*,*,#209,.T.);
#402 = CYLINDRICAL_SURFACE('',#403,35.);
#403 = AXIS2_PLACEMENT_3D('',#404,#405,#406);
#404 = CARTESIAN_POINT('',(-39.70843137504,-0.335211916573,
    -7.02767021544E-02));
#405 = DIRECTION('',(-1.359631073447E-32,1.,-2.22044604925E-16));
#406 = DIRECTION('',(-1.,1.359631073447E-32,1.224646799147E-16));
#407 = ADVANCED_FACE('',(#408),#416,.F.);
#408 = FACE_BOUND('',#409,.F.);
#409 = EDGE_LOOP('',(#410,#411,#412,#413,#414,#415));
#410 = ORIENTED_EDGE('',*,*,#127,.T.);
#411 = ORIENTED_EDGE('',*,*,#32,.T.);
#412 = ORIENTED_EDGE('',*,*,#395,.T.);
#413 = ORIENTED_EDGE('',*,*,#200,.F.);
#414 = ORIENTED_EDGE('',*,*,#184,.T.);
#415 = ORIENTED_EDGE('',*,*,#160,.F.);
#416 = PLANE('',#417);
#417 = AXIS2_PLACEMENT_3D('',#418,#419,#420);
#418 = CARTESIAN_POINT('',(-39.70843137504,-0.335211916573,
    69.929723297846));
#419 = DIRECTION('',(0.6,0.8,-2.511144918889E-16));
#420 = DIRECTION('',(-0.8,0.6,-3.525501902323E-17));
#421 = ADVANCED_FACE('',(#422),#427,.T.);
#422 = FACE_BOUND('',#423,.T.);
#423 = EDGE_LOOP('',(#424,#425,#426));
#424 = ORIENTED_EDGE('',*,*,#300,.T.);
#425 = ORIENTED_EDGE('',*,*,#352,.T.);
#426 = ORIENTED_EDGE('',*,*,#255,.T.);
#427 = PLANE('',#428);
#428 = AXIS2_PLACEMENT_3D('',#429,#430,#431);
#429 = CARTESIAN_POINT('',(-44.70843137504,39.703789083427,
    -7.027670215441E-02));
#430 = DIRECTION('',(-1.359631073447E-32,1.,-2.22044604925E-16));
#431 = DIRECTION('',(-1.224646799147E-16,-2.22044604925E-16,-1.));
#432 = ( GEOMETRIC_REPRESENTATION_CONTEXT(3) 
GLOBAL_UNCERTAINTY_ASSIGNED_CONTEXT((#436)) GLOBAL_UNIT_ASSIGNED_CONTEXT
((#433,#434,#435)) REPRESENTATION_CONTEXT('Context #1',
  '3D Context with UNIT and UNCERTAINTY') );
#433 = ( LENGTH_UNIT() NAMED_UNIT(*) SI_UNIT(.MILLI.,.METRE.) );
#434 = ( NAMED_UNIT(*) PLANE_ANGLE_UNIT() SI_UNIT($,.RADIAN.) );
#435 = ( NAMED_UNIT(*) SI_UNIT($,.STERADIAN.) SOLID_ANGLE_UNIT() );
#436 = UNCERTAINTY_MEASURE_WITH_UNIT(LENGTH_MEASURE(1.E-06),#433,
  'distance_accuracy_value','confusion accuracy');
#437 = PRODUCT_RELATED_PRODUCT_CATEGORY('part',$,(#7));
#438 = MECHANICAL_DESIGN_GEOMETRIC_PRESENTATION_REPRESENTATION('',(#439)
  ,#432);
#439 = STYLED_ITEM('color',(#440),#15);
#440 = PRESENTATION_STYLE_ASSIGNMENT((#441));
#441 = SURFACE_STYLE_USAGE(.BOTH.,#442);
#442 = SURFACE_SIDE_STYLE('',(#443));
#443 = SURFACE_STYLE_FILL_AREA(#444);
#444 = FILL_AREA_STYLE('',(#445));
#445 = FILL_AREA_STYLE_COLOUR('',#446);
#446 = COLOUR_RGB('',0.784313738346,0.784313738346,0.784313738346);
ENDSEC;
END-ISO-10303-21;
