ISO-10303-21;
HEADER;
FILE_DESCRIPTION(('Open CASCADE Model'),'2;1');
FILE_NAME('Open CASCADE Shape Model','2026-09-18T15:44:49',('Author'),(
    'Open CASCADE'),'Open CASCADE STEP processor 7.3','Open CASCADE 7.3'
  ,'Unknown');
FILE_SCHEMA(('AUTOMOTIVE_DESIGN { 1 0 10303 214 1 1 1 1 }'));
ENDSEC;
DATA;
#1 = APPLICATION_PROTOCOL_DEFINITION('international standard',
  'automotive_design',2000,#2);
#2 = APPLICATION_CONTEXT(
  'core data for automotive mechanical design processes');
#3 = SHAPE_DEFINITION_REPRESENTATION(#4,#10);
#4 = PRODUCT_DEFINITION_SHAPE('','',#5);
#5 = PRODUCT_DEFINITION('design','',#6,#9);
#6 = PRODUCT_DEFINITION_FORMATION('','',#7);
#7 = PRODUCT('Pottmanager 92','Pottmanager 92','',(#8));
#8 = PRODUCT_CONTEXT('',#2,'mechanical');
#9 = PRODUCT_DEFINITION_CONTEXT('part definition',#2,'design');
#10 = GEOMETRICALLY_BOUNDED_WIREFRAME_SHAPE_REPRESENTATION('',(#11,#15),
  #76);
#11 = AXIS2_PLACEMENT_3D('',#12,#13,#14);
#12 = CARTESIAN_POINT('',(0.,0.,0.));
#13 = DIRECTION('',(0.,0.,1.));
#14 = DIRECTION('',(1.,0.,-0.));
#15 = GEOMETRIC_CURVE_SET('',(#16,#24,#31,#39,#46,#54,#61,#69));
#16 = TRIMMED_CURVE('',#17,(#22,PARAMETER_VALUE(0.)),(#23,
    PARAMETER_VALUE(1.745329251994)),.T.,.PARAMETER.);
#17 = CIRCLE('',#18,0.4);
#18 = AXIS2_PLACEMENT_3D('',#19,#20,#21);
#19 = CARTESIAN_POINT('',(-0.101263780384,0.102376162792,
    2.146301710819E-02));
#20 = DIRECTION('',(-0.103379886883,0.10510124939,-0.989073468639));
#21 = DIRECTION('',(0.991749502082,8.66730329624E-02,-9.444951285306E-02
    ));
#22 = CARTESIAN_POINT('',(0.295436020449,0.137045375977,
    -1.631678803303E-02));
#23 = CARTESIAN_POINT('',(-0.140290907945,-0.293894757207,
    -1.656646194356E-02));
#24 = TRIMMED_CURVE('',#25,(#29,PARAMETER_VALUE(0.)),(#30,
    PARAMETER_VALUE(12.08357668144)),.T.,.PARAMETER.);
#25 = LINE('',#26,#27);
#26 = CARTESIAN_POINT('',(0.295436020449,0.137045375977,
    -1.631678803303E-02));
#27 = VECTOR('',#28,1.);
#28 = DIRECTION('',(-7.579923554443E-02,0.990677299999,0.113194360094));
#29 = CARTESIAN_POINT('',(0.295436020449,0.137045375977,
    -1.631678803303E-02));
#30 = CARTESIAN_POINT('',(-0.620489854647,12.107970497081,1.351475942069
    ));
#31 = TRIMMED_CURVE('',#32,(#37,PARAMETER_VALUE(4.886921905584)),(#38,
    PARAMETER_VALUE(6.28318530718)),.T.,.PARAMETER.);
#32 = CIRCLE('',#33,0.4);
#33 = AXIS2_PLACEMENT_3D('',#34,#35,#36);
#34 = CARTESIAN_POINT('',(-1.017189655479,12.073301283896,1.389255747211
    ));
#35 = DIRECTION('',(-0.103379886883,0.10510124939,-0.989073468639));
#36 = DIRECTION('',(0.991749502082,8.66730329624E-02,-9.444951285306E-02
    ));
#37 = CARTESIAN_POINT('',(-0.978162527919,12.469572203895,1.427285226262
    ));
#38 = CARTESIAN_POINT('',(-0.620489854647,12.107970497081,1.351475942069
    ));
#39 = TRIMMED_CURVE('',#40,(#44,PARAMETER_VALUE(0.)),(#45,
    PARAMETER_VALUE(12.08357668144)),.T.,.PARAMETER.);
#40 = LINE('',#41,#42);
#41 = CARTESIAN_POINT('',(-0.978162527919,12.469572203895,1.427285226262
    ));
#42 = VECTOR('',#43,1.);
#43 = DIRECTION('',(-0.989844997817,8.66730329624E-02,0.112670606878));
#44 = CARTESIAN_POINT('',(-0.978162527919,12.469572203895,1.427285226262
    ));
#45 = CARTESIAN_POINT('',(-12.93903046177,13.516892443909,2.788749144222
    ));
#46 = TRIMMED_CURVE('',#47,(#52,PARAMETER_VALUE(3.14159265359)),(#53,
    PARAMETER_VALUE(4.886921905584)),.T.,.PARAMETER.);
#47 = CIRCLE('',#48,0.4);
#48 = AXIS2_PLACEMENT_3D('',#49,#50,#51);
#49 = CARTESIAN_POINT('',(-12.97805758933,13.12062152391,2.75071966517)
  );
#50 = DIRECTION('',(-0.103379886883,0.10510124939,-0.989073468639));
#51 = DIRECTION('',(0.991749502082,8.66730329624E-02,-9.444951285306E-02
    ));
#52 = CARTESIAN_POINT('',(-13.37475739017,13.085952310725,2.788499470312
    ));
#53 = CARTESIAN_POINT('',(-12.93903046177,13.516892443909,2.788749144222
    ));
#54 = TRIMMED_CURVE('',#55,(#59,PARAMETER_VALUE(0.)),(#60,
    PARAMETER_VALUE(12.08357668144)),.T.,.PARAMETER.);
#55 = LINE('',#56,#57);
#56 = CARTESIAN_POINT('',(-13.37475739017,13.085952310725,2.788499470312
    ));
#57 = VECTOR('',#58,1.);
#58 = DIRECTION('',(7.579923554443E-02,-0.990677299999,-0.113194360094)
  );
#59 = CARTESIAN_POINT('',(-13.37475739017,13.085952310725,2.788499470312
    ));
#60 = CARTESIAN_POINT('',(-12.45883151507,1.115027189622,1.420706740209)
  );
#61 = TRIMMED_CURVE('',#62,(#67,PARAMETER_VALUE(1.745329251994)),(#68,
    PARAMETER_VALUE(3.14159265359)),.T.,.PARAMETER.);
#62 = CIRCLE('',#63,0.4);
#63 = AXIS2_PLACEMENT_3D('',#64,#65,#66);
#64 = CARTESIAN_POINT('',(-12.06213171424,1.149696402807,1.382926935068)
  );
#65 = DIRECTION('',(-0.103379886883,0.10510124939,-0.989073468639));
#66 = DIRECTION('',(0.991749502082,8.66730329624E-02,-9.444951285306E-02
    ));
#67 = CARTESIAN_POINT('',(-12.1011588418,0.753425482807,1.344897456016)
  );
#68 = CARTESIAN_POINT('',(-12.45883151507,1.115027189622,1.420706740209)
  );
#69 = TRIMMED_CURVE('',#70,(#74,PARAMETER_VALUE(0.)),(#75,
    PARAMETER_VALUE(12.08357668144)),.T.,.PARAMETER.);
#70 = LINE('',#71,#72);
#71 = CARTESIAN_POINT('',(-12.1011588418,0.753425482807,1.344897456016)
  );
#72 = VECTOR('',#73,1.);
#73 = DIRECTION('',(0.989844997817,-8.66730329624E-02,-0.112670606878));
#74 = CARTESIAN_POINT('',(-12.1011588418,0.753425482807,1.344897456016)
  );
#75 = CARTESIAN_POINT('',(-0.140290907945,-0.293894757207,
    -1.656646194356E-02));
#76 = ( GEOMETRIC_REPRESENTATION_CONTEXT(3) 
GLOBAL_UNCERTAINTY_ASSIGNED_CONTEXT((#80)) GLOBAL_UNIT_ASSIGNED_CONTEXT(
(#77,#78,#79)) REPRESENTATION_CONTEXT('Context #1',
  '3D Context with UNIT and UNCERTAINTY') );
#77 = ( LENGTH_UNIT() NAMED_UNIT(*) SI_UNIT(.MILLI.,.METRE.) );
#78 = ( NAMED_UNIT(*) PLANE_ANGLE_UNIT() SI_UNIT($,.RADIAN.) );
#79 = ( NAMED_UNIT(*) SI_UNIT($,.STERADIAN.) SOLID_ANGLE_UNIT() );
#80 = UNCERTAINTY_MEASURE_WITH_UNIT(LENGTH_MEASURE(1.E-07),#77,
  'distance_accuracy_value','confusion accuracy');
#81 = PRODUCT_RELATED_PRODUCT_CATEGORY('part',$,(#7));
#82 = MECHANICAL_DESIGN_GEOMETRIC_PRESENTATION_REPRESENTATION('',(#83),
  #76);
#83 = STYLED_ITEM('color',(#84),#15);
#84 = PRESENTATION_STYLE_ASSIGNMENT((#85));
#85 = SURFACE_STYLE_USAGE(.BOTH.,#86);
#86 = SURFACE_SIDE_STYLE('',(#87));
#87 = SURFACE_STYLE_FILL_AREA(#88);
#88 = FILL_AREA_STYLE('',(#89));
#89 = FILL_AREA_STYLE_COLOUR('',#90);
#90 = DRAUGHTING_PRE_DEFINED_COLOUR('green');
ENDSEC;
END-ISO-10303-21;
