ISO-10303-21;
HEADER;
FILE_DESCRIPTION(('Open CASCADE Model'),'2;1');
FILE_NAME('Open CASCADE Shape Model','2026-09-18T15:44:26',('Author'),(
    'Open CASCADE'),'Open CASCADE STEP processor 7.3','Open CASCADE 7.3'
  ,'Unknown');
FILE_SCHEMA(('AUTOMOTIVE_DESIGN { 1 0 10303 214 1 1 1 1 }'));
ENDSEC;
DATA;
#1 = APPLICATION_PROTOCOL_DEFINITION('international standard',
  'automotive_design',2000,#2);
#2 = APPLICATION_CONTEXT(
  'core data for automotive mechanical design processes');
#3 = SHAPE_DEFINITION_REPRESENTATION(#4,#10);
#4 = PRODUCT_DEFINITION_SHAPE('','',#5);
#5 = PRODUCT_DEFINITION('design','',#6,#9);
#6 = PRODUCT_DEFINITION_FORMATION('','',#7);
#7 = PRODUCT('Pottmanager 10','Pottmanager 10','',(#8));
#8 = PRODUCT_CONTEXT('',#2,'mechanical');
#9 = PRODUCT_DEFINITION_CONTEXT('part definition',#2,'design');
#10 = ADVANCED_BREP_SHAPE_REPRESENTATION('',(#11,#15),#1165);
#11 = AXIS2_PLACEMENT_3D('',#12,#13,#14);
#12 = CARTESIAN_POINT('',(0.,0.,0.));
#13 = DIRECTION('',(0.,0.,1.));
#14 = DIRECTION('',(1.,0.,-0.));
#15 = MANIFOLD_SOLID_BREP('',#16);
#16 = CLOSED_SHELL('',(#17,#125,#148,#222,#270,#389,#487,#518,#534,#576,
    #618,#642,#683,#699,#716,#738,#758,#769,#789,#811,#823,#835,#858,
    #909,#997,#1013,#1029,#1046,#1068,#1088,#1099,#1119,#1141,#1153));
#17 = ADVANCED_FACE('',(#18),#120,.T.);
#18 = FACE_BOUND('',#19,.T.);
#19 = EDGE_LOOP('',(#20,#30,#39,#47,#55,#64,#72,#80,#89,#97,#105,#114));
#20 = ORIENTED_EDGE('',*,*,#21,.F.);
#21 = EDGE_CURVE('',#22,#24,#26,.T.);
#22 = VERTEX_POINT('',#23);
#23 = CARTESIAN_POINT('',(5.800000873906,24.558173273119,-9.951718391309
    ));
#24 = VERTEX_POINT('',#25);
#25 = CARTESIAN_POINT('',(5.800000190674,5.273793226185,-6.551361733693)
  );
#26 = LINE('',#27,#28);
#27 = CARTESIAN_POINT('',(5.799999969769,-0.961324592884,-5.451942186085
    ));
#28 = VECTOR('',#29,1.);
#29 = DIRECTION('',(-3.489106770772E-08,-0.98480775171,0.173648185051));
#30 = ORIENTED_EDGE('',*,*,#31,.T.);
#31 = EDGE_CURVE('',#22,#32,#34,.T.);
#32 = VERTEX_POINT('',#33);
#33 = CARTESIAN_POINT('',(5.800000903318,25.396963534456,-9.648969942566
    ));
#34 = CIRCLE('',#35,7.);
#35 = AXIS2_PLACEMENT_3D('',#36,#37,#38);
#36 = CARTESIAN_POINT('',(5.800000976826,27.349225722728,-16.37122197204
    ));
#37 = DIRECTION('',(-1.,3.53092852401E-08,-6.807474578987E-10));
#38 = DIRECTION('',(-3.530928524521E-08,-1.,7.497805765144E-09));
#39 = ORIENTED_EDGE('',*,*,#40,.T.);
#40 = EDGE_CURVE('',#32,#41,#43,.T.);
#41 = VERTEX_POINT('',#42);
#42 = CARTESIAN_POINT('',(5.800000904336,25.429328271628,-9.465420405107
    ));
#43 = LINE('',#44,#45);
#44 = CARTESIAN_POINT('',(5.800000897268,25.204603674726,-10.73989687002
    ));
#45 = VECTOR('',#46,1.);
#46 = DIRECTION('',(5.46098792317E-09,0.173648185051,0.98480775171));
#47 = ORIENTED_EDGE('',*,*,#48,.T.);
#48 = EDGE_CURVE('',#41,#49,#51,.T.);
#49 = VERTEX_POINT('',#50);
#50 = CARTESIAN_POINT('',(5.800000892707,25.096797605858,-9.631001839596
    ));
#51 = LINE('',#52,#53);
#52 = CARTESIAN_POINT('',(5.800001122257,31.660946193187,-6.36242768638)
  );
#53 = VECTOR('',#54,1.);
#54 = DIRECTION('',(-3.130410774592E-08,-0.895162391803,-0.445740162315)
  );
#55 = ORIENTED_EDGE('',*,*,#56,.F.);
#56 = EDGE_CURVE('',#57,#49,#59,.T.);
#57 = VERTEX_POINT('',#58);
#58 = CARTESIAN_POINT('',(5.800000876488,24.663510364334,-8.281370917668
    ));
#59 = ELLIPSE('',#60,4.68579916805,0.5);
#60 = AXIS2_PLACEMENT_3D('',#61,#62,#63);
#61 = CARTESIAN_POINT('',(5.800000881874,24.880154015088,-4.955491976564
    ));
#62 = DIRECTION('',(1.,-3.53092852401E-08,6.807474578987E-10));
#63 = DIRECTION('',(2.134755010648E-09,4.11955503299E-02,-0.999151103003
    ));
#64 = ORIENTED_EDGE('',*,*,#65,.T.);
#65 = EDGE_CURVE('',#57,#66,#68,.T.);
#66 = VERTEX_POINT('',#67);
#67 = CARTESIAN_POINT('',(5.800000845521,23.887165817062,-3.05837946706)
  );
#68 = LINE('',#69,#70);
#69 = CARTESIAN_POINT('',(5.800000853581,24.089233125913,-4.417822037063
    ));
#70 = VECTOR('',#71,1.);
#71 = DIRECTION('',(-5.864680911978E-09,-0.14702453534,0.98913284548));
#72 = ORIENTED_EDGE('',*,*,#73,.F.);
#73 = EDGE_CURVE('',#74,#66,#76,.T.);
#74 = VERTEX_POINT('',#75);
#75 = CARTESIAN_POINT('',(5.800000162288,4.602785770135,0.341977190556)
  );
#76 = LINE('',#77,#78);
#77 = CARTESIAN_POINT('',(5.800000006204,0.197272486852,1.118788080331)
  );
#78 = VECTOR('',#79,1.);
#79 = DIRECTION('',(3.489106770772E-08,0.98480775171,-0.173648185051));
#80 = ORIENTED_EDGE('',*,*,#81,.T.);
#81 = EDGE_CURVE('',#74,#82,#84,.T.);
#82 = VERTEX_POINT('',#83);
#83 = CARTESIAN_POINT('',(5.800000132876,3.763995508791,
    3.922874181464E-02));
#84 = CIRCLE('',#85,7.);
#85 = AXIS2_PLACEMENT_3D('',#86,#87,#88);
#86 = CARTESIAN_POINT('',(5.80000005937,1.811733320519,6.761480771322));
#87 = DIRECTION('',(-1.,3.530928458189E-08,-6.807473634276E-10));
#88 = DIRECTION('',(3.530928458699E-08,1.,-7.497805765144E-09));
#89 = ORIENTED_EDGE('',*,*,#90,.T.);
#90 = EDGE_CURVE('',#82,#91,#93,.T.);
#91 = VERTEX_POINT('',#92);
#92 = CARTESIAN_POINT('',(5.80000013186,3.731630771615,-0.144320795646)
  );
#93 = LINE('',#94,#95);
#94 = CARTESIAN_POINT('',(5.800000138927,3.956355368512,1.130155669271)
  );
#95 = VECTOR('',#96,1.);
#96 = DIRECTION('',(-5.46098790343E-09,-0.173648185051,-0.98480775171));
#97 = ORIENTED_EDGE('',*,*,#98,.T.);
#98 = EDGE_CURVE('',#91,#99,#101,.T.);
#99 = VERTEX_POINT('',#100);
#100 = CARTESIAN_POINT('',(5.800000143488,4.064161437387,
    2.126063884391E-02));
#101 = LINE('',#102,#103);
#102 = CARTESIAN_POINT('',(5.799999913938,-2.499987149942,
    -3.247313514371));
#103 = VECTOR('',#104,1.);
#104 = DIRECTION('',(3.130410719882E-08,0.895162391803,0.445740162315));
#105 = ORIENTED_EDGE('',*,*,#106,.F.);
#106 = EDGE_CURVE('',#107,#99,#109,.T.);
#107 = VERTEX_POINT('',#108);
#108 = CARTESIAN_POINT('',(5.800000159707,4.497448678918,-1.328370283087
    ));
#109 = ELLIPSE('',#110,4.68579916805,0.5);
#110 = AXIS2_PLACEMENT_3D('',#111,#112,#113);
#111 = CARTESIAN_POINT('',(5.80000015432,4.280805028153,-4.654249224188)
  );
#112 = DIRECTION('',(1.,-3.530928458189E-08,6.807473634276E-10));
#113 = DIRECTION('',(-2.134754889141E-09,-4.11955503299E-02,
    0.999151103003));
#114 = ORIENTED_EDGE('',*,*,#115,.T.);
#115 = EDGE_CURVE('',#107,#24,#116,.T.);
#116 = LINE('',#117,#118);
#117 = CARTESIAN_POINT('',(5.800000182614,5.07172591734,-5.19191916369)
  );
#118 = VECTOR('',#119,1.);
#119 = DIRECTION('',(5.864680749218E-09,0.14702453534,-0.98913284548));
#120 = PLANE('',#121);
#121 = AXIS2_PLACEMENT_3D('',#122,#123,#124);
#122 = CARTESIAN_POINT('',(5.799999966143,-1.076618793226,
    -6.105808059718));
#123 = DIRECTION('',(1.,-3.530928458189E-08,6.807473634276E-10));
#124 = DIRECTION('',(3.530928458699E-08,1.,-7.497805765144E-09));
#125 = ADVANCED_FACE('',(#126),#143,.T.);
#126 = FACE_BOUND('',#127,.T.);
#127 = EDGE_LOOP('',(#128,#136,#142));
#128 = ORIENTED_EDGE('',*,*,#129,.T.);
#129 = EDGE_CURVE('',#82,#130,#132,.T.);
#130 = VERTEX_POINT('',#131);
#131 = CARTESIAN_POINT('',(5.81762227781,3.76399550817,
    3.922874182655E-02));
#132 = LINE('',#133,#134);
#133 = CARTESIAN_POINT('',(7.500000132876,3.763995448758,
    3.922874297087E-02));
#134 = VECTOR('',#135,1.);
#135 = DIRECTION('',(1.,-3.530928490915E-08,6.807474211337E-10));
#136 = ORIENTED_EDGE('',*,*,#137,.T.);
#137 = EDGE_CURVE('',#130,#91,#138,.T.);
#138 = LINE('',#139,#140);
#139 = CARTESIAN_POINT('',(5.923933476758,3.959246072728,1.146549691692)
  );
#140 = VECTOR('',#141,1.);
#141 = DIRECTION('',(-9.412920539185E-02,-0.172877182052,-0.980435195522
    ));
#142 = ORIENTED_EDGE('',*,*,#90,.F.);
#143 = PLANE('',#144);
#144 = AXIS2_PLACEMENT_3D('',#145,#146,#147);
#145 = CARTESIAN_POINT('',(6.100000138927,3.95635535792,1.130155669476)
  );
#146 = DIRECTION('',(3.489106804003E-08,0.98480775171,-0.173648185051));
#147 = DIRECTION('',(5.46098790267E-09,0.173648185051,0.98480775171));
#148 = ADVANCED_FACE('',(#149),#217,.T.);
#149 = FACE_BOUND('',#150,.T.);
#150 = EDGE_LOOP('',(#151,#161,#169,#178,#186,#195,#203,#211));
#151 = ORIENTED_EDGE('',*,*,#152,.F.);
#152 = EDGE_CURVE('',#153,#155,#157,.T.);
#153 = VERTEX_POINT('',#154);
#154 = CARTESIAN_POINT('',(5.271734058412,1.617362378474,-6.21633384242)
  );
#155 = VERTEX_POINT('',#156);
#156 = CARTESIAN_POINT('',(4.650000065488,1.727445808165,-6.600240319897
    ));
#157 = LINE('',#158,#159);
#158 = CARTESIAN_POINT('',(5.464085757217,1.583304831425,-6.097561081137
    ));
#159 = VECTOR('',#160,1.);
#160 = DIRECTION('',(-0.841368288432,0.148971598595,-0.519525616339));
#161 = ORIENTED_EDGE('',*,*,#162,.T.);
#162 = EDGE_CURVE('',#153,#163,#165,.T.);
#163 = VERTEX_POINT('',#164);
#164 = CARTESIAN_POINT('',(5.771459110818,0.425988626857,-2.061519756651
    ));
#165 = LINE('',#166,#167);
#166 = CARTESIAN_POINT('',(5.233136674307,1.709380799568,-6.537240217599
    ));
#167 = VECTOR('',#168,1.);
#168 = DIRECTION('',(0.114851779988,-0.273813360656,0.95490068183));
#169 = ORIENTED_EDGE('',*,*,#170,.T.);
#170 = EDGE_CURVE('',#163,#171,#173,.T.);
#171 = VERTEX_POINT('',#172);
#172 = CARTESIAN_POINT('',(5.700457887139,9.555751350692E-02,
    -0.909169477947));
#173 = ELLIPSE('',#174,1.158720161828,0.2);
#174 = AXIS2_PLACEMENT_3D('',#175,#176,#177);
#175 = CARTESIAN_POINT('',(5.575519541201,0.413023963361,-2.016306576643
    ));
#176 = DIRECTION('',(-3.375382381238E-08,-0.961261698005,-0.275637348609
    ));
#177 = DIRECTION('',(-0.111156113622,0.273929215861,-0.955304717408));
#178 = ORIENTED_EDGE('',*,*,#179,.F.);
#179 = EDGE_CURVE('',#180,#171,#182,.T.);
#180 = VERTEX_POINT('',#181);
#181 = CARTESIAN_POINT('',(3.299542120847,9.555759828739E-02,
    -0.909169479579));
#182 = LINE('',#183,#184);
#183 = CARTESIAN_POINT('',(5.800000003993,9.555750999946E-02,
    -0.909169477878));
#184 = VECTOR('',#185,1.);
#185 = DIRECTION('',(1.,-3.530928513808E-08,6.807482195261E-10));
#186 = ORIENTED_EDGE('',*,*,#187,.T.);
#187 = EDGE_CURVE('',#180,#188,#190,.T.);
#188 = VERTEX_POINT('',#189);
#189 = CARTESIAN_POINT('',(3.228540922074,0.42598871665,-2.061519758381)
  );
#190 = ELLIPSE('',#191,1.158720161828,0.2);
#191 = AXIS2_PLACEMENT_3D('',#192,#193,#194);
#192 = CARTESIAN_POINT('',(3.424480490713,0.413024039321,-2.016306578104
    ));
#193 = DIRECTION('',(-3.37538237187E-08,-0.961261698005,-0.275637348609)
  );
#194 = DIRECTION('',(0.111156134269,0.273929208011,-0.955304717257));
#195 = ORIENTED_EDGE('',*,*,#196,.F.);
#196 = EDGE_CURVE('',#197,#188,#199,.T.);
#197 = VERTEX_POINT('',#198);
#198 = CARTESIAN_POINT('',(3.728266064268,1.617362432974,-6.216333843472
    ));
#199 = LINE('',#200,#201);
#200 = CARTESIAN_POINT('',(3.801159886103,1.791145531086,-6.822387556021
    ));
#201 = VECTOR('',#202,1.);
#202 = DIRECTION('',(-0.114851800624,-0.273813352545,0.954900681674));
#203 = ORIENTED_EDGE('',*,*,#204,.F.);
#204 = EDGE_CURVE('',#205,#197,#207,.T.);
#205 = VERTEX_POINT('',#206);
#206 = CARTESIAN_POINT('',(4.350000065488,1.727445818757,-6.600240320101
    ));
#207 = LINE('',#208,#209);
#208 = CARTESIAN_POINT('',(5.376455951365,1.909188716943,-7.234053271924
    ));
#209 = VECTOR('',#210,1.);
#210 = DIRECTION('',(-0.84136829966,-0.14897153918,0.519525615192));
#211 = ORIENTED_EDGE('',*,*,#212,.F.);
#212 = EDGE_CURVE('',#155,#205,#213,.T.);
#213 = LINE('',#214,#215);
#214 = CARTESIAN_POINT('',(5.800000065488,1.727445767564,-6.600240319115
    ));
#215 = VECTOR('',#216,1.);
#216 = DIRECTION('',(-1.,3.530928490915E-08,-6.807474211337E-10));
#217 = PLANE('',#218);
#218 = AXIS2_PLACEMENT_3D('',#219,#220,#221);
#219 = CARTESIAN_POINT('',(5.800000065488,1.727445767564,-6.600240319115
    ));
#220 = DIRECTION('',(-3.375382375299E-08,-0.961261698005,-0.275637348609
    ));
#221 = DIRECTION('',(1.03869340956E-08,0.275637348609,-0.961261698005));
#222 = ADVANCED_FACE('',(#223),#265,.F.);
#223 = FACE_BOUND('',#224,.T.);
#224 = EDGE_LOOP('',(#225,#233,#240,#241,#249,#258,#264));
#225 = ORIENTED_EDGE('',*,*,#226,.T.);
#226 = EDGE_CURVE('',#155,#227,#229,.T.);
#227 = VERTEX_POINT('',#228);
#228 = CARTESIAN_POINT('',(4.650000840548,23.603670603202,
    -10.45760915645));
#229 = LINE('',#230,#231);
#230 = CARTESIAN_POINT('',(4.650001026365,28.848392396664,
    -11.38239515549));
#231 = VECTOR('',#232,1.);
#232 = DIRECTION('',(3.489107288337E-08,0.98480775171,-0.173648185051));
#233 = ORIENTED_EDGE('',*,*,#234,.F.);
#234 = EDGE_CURVE('',#22,#227,#235,.T.);
#235 = ELLIPSE('',#236,14.,7.);
#236 = AXIS2_PLACEMENT_3D('',#237,#238,#239);
#237 = CARTESIAN_POINT('',(-4.31052638883,27.349226079728,
    -16.37122197892));
#238 = DIRECTION('',(0.499999995271,-0.150383757231,-0.852868530484));
#239 = DIRECTION('',(-0.866025406515,-8.682406194814E-02,-0.492403876445
    ));
#240 = ORIENTED_EDGE('',*,*,#21,.T.);
#241 = ORIENTED_EDGE('',*,*,#242,.F.);
#242 = EDGE_CURVE('',#243,#24,#245,.T.);
#243 = VERTEX_POINT('',#244);
#244 = CARTESIAN_POINT('',(5.212435510423,4.722993600251,-6.798704685831
    ));
#245 = LINE('',#246,#247);
#246 = CARTESIAN_POINT('',(22.404287186527,20.839117987269,
    0.438427649122));
#247 = VECTOR('',#248,1.);
#248 = DIRECTION('',(0.69741363204,0.653775117128,0.29358528926));
#249 = ORIENTED_EDGE('',*,*,#250,.T.);
#250 = EDGE_CURVE('',#243,#251,#253,.T.);
#251 = VERTEX_POINT('',#252);
#252 = CARTESIAN_POINT('',(5.065347312309,4.346168217778,-6.8184916529)
  );
#253 = ELLIPSE('',#254,0.634705514858,0.5);
#254 = AXIS2_PLACEMENT_3D('',#255,#256,#257);
#255 = CARTESIAN_POINT('',(5.601066000739,4.357168689706,-6.506362596821
    ));
#256 = DIRECTION('',(-0.499999995271,0.150383757231,0.852868530484));
#257 = DIRECTION('',(0.812679223436,-0.25882235796,0.522076112091));
#258 = ORIENTED_EDGE('',*,*,#259,.F.);
#259 = EDGE_CURVE('',#153,#251,#260,.T.);
#260 = LINE('',#261,#262);
#261 = CARTESIAN_POINT('',(2.978676644173,31.93572622676,-12.90660081898
    ));
#262 = VECTOR('',#263,1.);
#263 = DIRECTION('',(-7.365521942916E-02,0.973855136865,-0.214897838641)
  );
#264 = ORIENTED_EDGE('',*,*,#152,.T.);
#265 = PLANE('',#266);
#266 = AXIS2_PLACEMENT_3D('',#267,#268,#269);
#267 = CARTESIAN_POINT('',(13.310255242363,33.974379260668,
    -7.209111963893));
#268 = DIRECTION('',(-0.499999995271,0.150383757231,0.852868530484));
#269 = DIRECTION('',(0.865459517283,5.117180249832E-02,0.498358576302));
#270 = ADVANCED_FACE('',(#271),#384,.F.);
#271 = FACE_BOUND('',#272,.F.);
#272 = EDGE_LOOP('',(#273,#283,#304,#313,#321,#330,#339,#347,#354,#355,
    #356,#365));
#273 = ORIENTED_EDGE('',*,*,#274,.T.);
#274 = EDGE_CURVE('',#275,#277,#279,.T.);
#275 = VERTEX_POINT('',#276);
#276 = CARTESIAN_POINT('',(5.801154543557,-4.594412131155E-08,
    8.864162843148E-10));
#277 = VERTEX_POINT('',#278);
#278 = CARTESIAN_POINT('',(3.198845456443,4.593950824686E-08,
    -8.850054804682E-10));
#279 = LINE('',#280,#281);
#280 = CARTESIAN_POINT('',(7.5,-1.059278551373E-07,2.042242301447E-09));
#281 = VECTOR('',#282,1.);
#282 = DIRECTION('',(-1.,3.530928490915E-08,-6.807474211337E-10));
#283 = ORIENTED_EDGE('',*,*,#284,.F.);
#284 = EDGE_CURVE('',#285,#277,#287,.T.);
#285 = VERTEX_POINT('',#286);
#286 = CARTESIAN_POINT('',(3.006191475754,0.214987001939,
    -5.39723247664E-02));
#287 = B_SPLINE_CURVE_WITH_KNOTS('',3,(#288,#289,#290,#291,#292,#293,
    #294,#295,#296,#297,#298,#299,#300,#301,#302,#303),.UNSPECIFIED.,.F.
  ,.F.,(4,3,3,3,3,4),(0.,0.223824208873,0.448255185794,0.662916134453,
    0.863043139764,1.),.UNSPECIFIED.);
#288 = CARTESIAN_POINT('',(3.006191475754,0.214987001939,
    -5.39723247664E-02));
#289 = CARTESIAN_POINT('',(3.004359003211,0.191208966668,
    -4.84015296654E-02));
#290 = CARTESIAN_POINT('',(3.006591172907,0.166828369179,
    -4.255096532116E-02));
#291 = CARTESIAN_POINT('',(3.01286140781,0.143835953848,
    -3.691007297087E-02));
#292 = CARTESIAN_POINT('',(3.019141298822,0.120808130388,
    -3.126049369258E-02));
#293 = CARTESIAN_POINT('',(3.029681112508,9.850787896479E-02,
    -2.56586154865E-02));
#294 = CARTESIAN_POINT('',(3.043782754595,7.906304595911E-02,
    -2.069096108571E-02));
#295 = CARTESIAN_POINT('',(3.057269639333,6.046590529534E-02,
    -1.593987026395E-02));
#296 = CARTESIAN_POINT('',(3.074446287412,4.393299272551E-02,
    -1.163189078536E-02));
#297 = CARTESIAN_POINT('',(3.093859552911,3.119621220556E-02,
    -8.28194908273E-03));
#298 = CARTESIAN_POINT('',(3.111981715837,1.930650658586E-02,
    -5.15479928508E-03));
#299 = CARTESIAN_POINT('',(3.132586626013,1.038365409193E-02,
    -2.77578989402E-03));
#300 = CARTESIAN_POINT('',(3.153842108478,5.293211266329E-03,
    -1.416079768109E-03));
#301 = CARTESIAN_POINT('',(3.16851007075,1.78040352578E-03,
    -4.777723540765E-04));
#302 = CARTESIAN_POINT('',(3.183733561912,4.647468990687E-08,
    -8.957368264274E-10));
#303 = CARTESIAN_POINT('',(3.198845456443,4.593950824686E-08,
    -8.850054804682E-10));
#304 = ORIENTED_EDGE('',*,*,#305,.T.);
#305 = EDGE_CURVE('',#285,#306,#308,.T.);
#306 = VERTEX_POINT('',#307);
#307 = CARTESIAN_POINT('',(3.182377987942,3.763995601219,
    3.922874003266E-02));
#308 = ELLIPSE('',#309,7.048217293788,7.);
#309 = AXIS2_PLACEMENT_3D('',#310,#311,#312);
#310 = CARTESIAN_POINT('',(2.372557415202,1.811733441532,6.761480768988)
  );
#311 = DIRECTION('',(0.993158935766,-5.204928868249E-02,0.104528464334)
  );
#312 = DIRECTION('',(-0.11677040853,-0.442690821962,0.88903853001));
#313 = ORIENTED_EDGE('',*,*,#314,.F.);
#314 = EDGE_CURVE('',#315,#306,#317,.T.);
#315 = VERTEX_POINT('',#316);
#316 = CARTESIAN_POINT('',(3.200000132876,3.763995600596,
    3.922874004393E-02));
#317 = LINE('',#318,#319);
#318 = CARTESIAN_POINT('',(7.500000132876,3.763995448758,
    3.922874297087E-02));
#319 = VECTOR('',#320,1.);
#320 = DIRECTION('',(-1.,3.530928490915E-08,-6.807474211337E-10));
#321 = ORIENTED_EDGE('',*,*,#322,.F.);
#322 = EDGE_CURVE('',#323,#315,#325,.T.);
#323 = VERTEX_POINT('',#324);
#324 = CARTESIAN_POINT('',(3.200000162288,4.602785861932,0.341977188785)
  );
#325 = CIRCLE('',#326,7.);
#326 = AXIS2_PLACEMENT_3D('',#327,#328,#329);
#327 = CARTESIAN_POINT('',(3.20000005937,1.811733412315,6.761480769552)
  );
#328 = DIRECTION('',(-1.,3.530928458189E-08,-6.807473634276E-10));
#329 = DIRECTION('',(3.530928458699E-08,1.,-7.497805765144E-09));
#330 = ORIENTED_EDGE('',*,*,#331,.F.);
#331 = EDGE_CURVE('',#332,#323,#334,.T.);
#332 = VERTEX_POINT('',#333);
#333 = CARTESIAN_POINT('',(4.350000195647,5.55728853185,0.847867953927)
  );
#334 = ELLIPSE('',#335,14.,7.);
#335 = AXIS2_PLACEMENT_3D('',#336,#337,#338);
#336 = CARTESIAN_POINT('',(13.310527425026,1.811733055323,6.761480776435
    ));
#337 = DIRECTION('',(-0.499999995271,0.150383757231,0.852868530484));
#338 = DIRECTION('',(-0.866025406515,-8.682406194605E-02,-0.492403876445
    ));
#339 = ORIENTED_EDGE('',*,*,#340,.T.);
#340 = EDGE_CURVE('',#332,#341,#343,.T.);
#341 = VERTEX_POINT('',#342);
#342 = CARTESIAN_POINT('',(4.650000195647,5.557288521257,0.847867954133)
  );
#343 = LINE('',#344,#345);
#344 = CARTESIAN_POINT('',(7.500000195647,5.557288420623,0.847867956072)
  );
#345 = VECTOR('',#346,1.);
#346 = DIRECTION('',(1.,-3.530928490915E-08,6.807474211337E-10));
#347 = ORIENTED_EDGE('',*,*,#348,.F.);
#348 = EDGE_CURVE('',#74,#341,#349,.T.);
#349 = ELLIPSE('',#350,14.,7.);
#350 = AXIS2_PLACEMENT_3D('',#351,#352,#353);
#351 = CARTESIAN_POINT('',(-4.310527306286,1.811733677512,6.761480764439
    ));
#352 = DIRECTION('',(0.50000000473,0.150383721921,0.852868531165));
#353 = DIRECTION('',(-0.866025401053,8.682412310326E-02,0.492403875267)
  );
#354 = ORIENTED_EDGE('',*,*,#81,.T.);
#355 = ORIENTED_EDGE('',*,*,#129,.T.);
#356 = ORIENTED_EDGE('',*,*,#357,.F.);
#357 = EDGE_CURVE('',#358,#130,#360,.T.);
#358 = VERTEX_POINT('',#359);
#359 = CARTESIAN_POINT('',(5.993808539504,0.214986896439,
    -5.397232273264E-02));
#360 = ELLIPSE('',#361,7.048217293788,7.);
#361 = AXIS2_PLACEMENT_3D('',#362,#363,#364);
#362 = CARTESIAN_POINT('',(6.627442703538,1.811733291302,6.761480771885)
  );
#363 = DIRECTION('',(0.993158939584,5.204921854702E-02,-0.104528462981)
  );
#364 = DIRECTION('',(-0.116770376057,0.442690830207,-0.889038530169));
#365 = ORIENTED_EDGE('',*,*,#366,.F.);
#366 = EDGE_CURVE('',#275,#358,#367,.T.);
#367 = B_SPLINE_CURVE_WITH_KNOTS('',3,(#368,#369,#370,#371,#372,#373,
    #374,#375,#376,#377,#378,#379,#380,#381,#382,#383),.UNSPECIFIED.,.F.
  ,.F.,(4,3,3,3,3,4),(0.,0.19100345032,0.381975166702,0.573931176279,
    0.775033470624,1.),.UNSPECIFIED.);
#368 = CARTESIAN_POINT('',(5.801154543557,-4.594412131155E-08,
    8.864162843148E-10));
#369 = CARTESIAN_POINT('',(5.822070656801,-4.668330084254E-08,
    9.006402718169E-10));
#370 = CARTESIAN_POINT('',(5.843280526607,3.463614381933E-03,
    -9.306841336956E-04));
#371 = CARTESIAN_POINT('',(5.863015417929,1.015967626613E-02,
    -2.714111426508E-03));
#372 = CARTESIAN_POINT('',(5.882750201642,1.685570164478E-02,
    -4.497528994133E-03));
#373 = CARTESIAN_POINT('',(5.901539475932,2.695935243696E-02,
    -7.178750467142E-03));
#374 = CARTESIAN_POINT('',(5.917899545479,3.956658657375E-02,
    -1.04779616282E-02));
#375 = CARTESIAN_POINT('',(5.934355795939,5.224793868807E-02,
    -1.379656886237E-02));
#376 = CARTESIAN_POINT('',(5.9487931966,6.777588384491E-02,
    -1.782033285801E-02));
#377 = CARTESIAN_POINT('',(5.960267207732,8.486561675513E-02,
    -2.217074918987E-02));
#378 = CARTESIAN_POINT('',(5.972286546496,0.102767576827,
    -2.672792863412E-02));
#379 = CARTESIAN_POINT('',(5.981372867382,0.122828784491,
    -3.175520100211E-02));
#380 = CARTESIAN_POINT('',(5.987049577118,0.143510457287,
    -3.683023207206E-02));
#381 = CARTESIAN_POINT('',(5.99338711988,0.166599710006,
    -4.249605399221E-02));
#382 = CARTESIAN_POINT('',(5.995649534263,0.191098255342,
    -4.837561456566E-02));
#383 = CARTESIAN_POINT('',(5.993808539504,0.214986896439,
    -5.397232273264E-02));
#384 = CYLINDRICAL_SURFACE('',#385,7.);
#385 = AXIS2_PLACEMENT_3D('',#386,#387,#388);
#386 = CARTESIAN_POINT('',(7.50000005937,1.811733260486,6.761480772479)
  );
#387 = DIRECTION('',(-1.,3.530928490915E-08,-6.807474211337E-10));
#388 = DIRECTION('',(-6.807471563915E-10,7.497805765144E-09,1.));
#389 = ADVANCED_FACE('',(#390),#482,.F.);
#390 = FACE_BOUND('',#391,.T.);
#391 = EDGE_LOOP('',(#392,#400,#408,#417,#425,#433,#442,#450,#458,#467,
    #475,#481));
#392 = ORIENTED_EDGE('',*,*,#393,.T.);
#393 = EDGE_CURVE('',#323,#394,#396,.T.);
#394 = VERTEX_POINT('',#395);
#395 = CARTESIAN_POINT('',(3.200000845521,23.88716590886,-3.058379468829
    ));
#396 = LINE('',#397,#398);
#397 = CARTESIAN_POINT('',(3.200000006204,0.197272578647,1.11878807856)
  );
#398 = VECTOR('',#399,1.);
#399 = DIRECTION('',(3.489106770772E-08,0.98480775171,-0.173648185051));
#400 = ORIENTED_EDGE('',*,*,#401,.T.);
#401 = EDGE_CURVE('',#394,#402,#404,.T.);
#402 = VERTEX_POINT('',#403);
#403 = CARTESIAN_POINT('',(3.200000876488,24.663510456132,
    -8.281370919436));
#404 = LINE('',#405,#406);
#405 = CARTESIAN_POINT('',(3.200000853581,24.08923321771,-4.417822038831
    ));
#406 = VECTOR('',#407,1.);
#407 = DIRECTION('',(5.864680925705E-09,0.14702453534,-0.98913284548));
#408 = ORIENTED_EDGE('',*,*,#409,.T.);
#409 = EDGE_CURVE('',#402,#410,#412,.T.);
#410 = VERTEX_POINT('',#411);
#411 = CARTESIAN_POINT('',(3.200000892707,25.096797697656,
    -9.631001841364));
#412 = ELLIPSE('',#413,4.68579916805,0.5);
#413 = AXIS2_PLACEMENT_3D('',#414,#415,#416);
#414 = CARTESIAN_POINT('',(3.200000881874,24.880154106896,
    -4.955491978333));
#415 = DIRECTION('',(1.,-3.53092852401E-08,6.807474578987E-10));
#416 = DIRECTION('',(2.134755010648E-09,4.11955503299E-02,
    -0.999151103003));
#417 = ORIENTED_EDGE('',*,*,#418,.T.);
#418 = EDGE_CURVE('',#410,#419,#421,.T.);
#419 = VERTEX_POINT('',#420);
#420 = CARTESIAN_POINT('',(3.200000904336,25.429328363425,
    -9.465420406876));
#421 = LINE('',#422,#423);
#422 = CARTESIAN_POINT('',(3.200001122257,31.660946285004,
    -6.362427688152));
#423 = VECTOR('',#424,1.);
#424 = DIRECTION('',(3.130410774592E-08,0.895162391803,0.445740162315));
#425 = ORIENTED_EDGE('',*,*,#426,.F.);
#426 = EDGE_CURVE('',#427,#419,#429,.T.);
#427 = VERTEX_POINT('',#428);
#428 = CARTESIAN_POINT('',(3.200000903318,25.396963626263,
    -9.648969944335));
#429 = LINE('',#430,#431);
#430 = CARTESIAN_POINT('',(3.200000897268,25.204603766543,
    -10.73989687179));
#431 = VECTOR('',#432,1.);
#432 = DIRECTION('',(5.46098792317E-09,0.173648185051,0.98480775171));
#433 = ORIENTED_EDGE('',*,*,#434,.F.);
#434 = EDGE_CURVE('',#435,#427,#437,.T.);
#435 = VERTEX_POINT('',#436);
#436 = CARTESIAN_POINT('',(3.200000873906,24.558173364917,
    -9.951718393077));
#437 = CIRCLE('',#438,7.);
#438 = AXIS2_PLACEMENT_3D('',#439,#440,#441);
#439 = CARTESIAN_POINT('',(3.200000976826,27.349225814546,
    -16.37122197381));
#440 = DIRECTION('',(-1.,3.53092852401E-08,-6.807474578987E-10));
#441 = DIRECTION('',(-3.530928524521E-08,-1.,7.497805765144E-09));
#442 = ORIENTED_EDGE('',*,*,#443,.T.);
#443 = EDGE_CURVE('',#435,#444,#446,.T.);
#444 = VERTEX_POINT('',#445);
#445 = CARTESIAN_POINT('',(3.200000190674,5.273793317991,-6.551361735462
    ));
#446 = LINE('',#447,#448);
#447 = CARTESIAN_POINT('',(3.199999969769,-0.961324501079,
    -5.451942187855));
#448 = VECTOR('',#449,1.);
#449 = DIRECTION('',(-3.489106770772E-08,-0.98480775171,0.173648185051)
  );
#450 = ORIENTED_EDGE('',*,*,#451,.T.);
#451 = EDGE_CURVE('',#444,#452,#454,.T.);
#452 = VERTEX_POINT('',#453);
#453 = CARTESIAN_POINT('',(3.200000159707,4.497448770725,-1.328370284855
    ));
#454 = LINE('',#455,#456);
#455 = CARTESIAN_POINT('',(3.200000182614,5.071726009145,-5.191919165459
    ));
#456 = VECTOR('',#457,1.);
#457 = DIRECTION('',(-5.864680735491E-09,-0.14702453534,0.98913284548));
#458 = ORIENTED_EDGE('',*,*,#459,.T.);
#459 = EDGE_CURVE('',#452,#460,#462,.T.);
#460 = VERTEX_POINT('',#461);
#461 = CARTESIAN_POINT('',(3.200000143488,4.064161529193,
    2.12606370732E-02));
#462 = ELLIPSE('',#463,4.68579916805,0.5);
#463 = AXIS2_PLACEMENT_3D('',#464,#465,#466);
#464 = CARTESIAN_POINT('',(3.20000015432,4.280805119959,-4.654249225958)
  );
#465 = DIRECTION('',(1.,-3.530928458189E-08,6.807473634276E-10));
#466 = DIRECTION('',(-2.134754889141E-09,-4.11955503299E-02,
    0.999151103003));
#467 = ORIENTED_EDGE('',*,*,#468,.T.);
#468 = EDGE_CURVE('',#460,#469,#471,.T.);
#469 = VERTEX_POINT('',#470);
#470 = CARTESIAN_POINT('',(3.20000013186,3.731630863421,-0.144320797415)
  );
#471 = LINE('',#472,#473);
#472 = CARTESIAN_POINT('',(3.199999913938,-2.499987058147,
    -3.247313516141));
#473 = VECTOR('',#474,1.);
#474 = DIRECTION('',(-3.130410719882E-08,-0.895162391803,-0.445740162315
    ));
#475 = ORIENTED_EDGE('',*,*,#476,.F.);
#476 = EDGE_CURVE('',#315,#469,#477,.T.);
#477 = LINE('',#478,#479);
#478 = CARTESIAN_POINT('',(3.200000138927,3.956355460318,1.130155667501)
  );
#479 = VECTOR('',#480,1.);
#480 = DIRECTION('',(-5.46098790343E-09,-0.173648185051,-0.98480775171)
  );
#481 = ORIENTED_EDGE('',*,*,#322,.F.);
#482 = PLANE('',#483);
#483 = AXIS2_PLACEMENT_3D('',#484,#485,#486);
#484 = CARTESIAN_POINT('',(3.199999966143,-1.076618701421,
    -6.105808061487));
#485 = DIRECTION('',(1.,-3.530928458189E-08,6.807473634276E-10));
#486 = DIRECTION('',(3.530928458699E-08,1.,-7.497805765144E-09));
#487 = ADVANCED_FACE('',(#488),#513,.T.);
#488 = FACE_BOUND('',#489,.T.);
#489 = EDGE_LOOP('',(#490,#498,#506,#512));
#490 = ORIENTED_EDGE('',*,*,#491,.F.);
#491 = EDGE_CURVE('',#492,#341,#494,.T.);
#492 = VERTEX_POINT('',#493);
#493 = CARTESIAN_POINT('',(4.650000970706,27.433513316294,
    -3.009500882422));
#494 = LINE('',#495,#496);
#495 = CARTESIAN_POINT('',(4.650000009831,0.312566727795,1.772653953181)
  );
#496 = VECTOR('',#497,1.);
#497 = DIRECTION('',(-3.489106308566E-08,-0.98480775171,0.173648185051)
  );
#498 = ORIENTED_EDGE('',*,*,#499,.T.);
#499 = EDGE_CURVE('',#492,#500,#502,.T.);
#500 = VERTEX_POINT('',#501);
#501 = CARTESIAN_POINT('',(4.350000970706,27.43351332688,-3.009500882626
    ));
#502 = LINE('',#503,#504);
#503 = CARTESIAN_POINT('',(5.800000970706,27.433513275684,
    -3.009500881638));
#504 = VECTOR('',#505,1.);
#505 = DIRECTION('',(-1.,3.530928491284E-08,-6.807474001937E-10));
#506 = ORIENTED_EDGE('',*,*,#507,.F.);
#507 = EDGE_CURVE('',#332,#500,#508,.T.);
#508 = LINE('',#509,#510);
#509 = CARTESIAN_POINT('',(4.350000009831,0.312566738387,1.772653952975)
  );
#510 = VECTOR('',#511,1.);
#511 = DIRECTION('',(3.489107260582E-08,0.98480775171,-0.173648185051));
#512 = ORIENTED_EDGE('',*,*,#340,.T.);
#513 = PLANE('',#514);
#514 = AXIS2_PLACEMENT_3D('',#515,#516,#517);
#515 = CARTESIAN_POINT('',(5.800000009831,0.312566687184,1.772653953963)
  );
#516 = DIRECTION('',(5.46098790267E-09,0.173648185051,0.98480775171));
#517 = DIRECTION('',(-3.489106804003E-08,-0.98480775171,0.173648185051)
  );
#518 = ADVANCED_FACE('',(#519),#529,.F.);
#519 = FACE_BOUND('',#520,.T.);
#520 = EDGE_LOOP('',(#521,#522,#528));
#521 = ORIENTED_EDGE('',*,*,#476,.T.);
#522 = ORIENTED_EDGE('',*,*,#523,.T.);
#523 = EDGE_CURVE('',#469,#306,#524,.T.);
#524 = LINE('',#525,#526);
#525 = CARTESIAN_POINT('',(3.076066801278,3.959246173282,1.146549689753)
  );
#526 = VECTOR('',#527,1.);
#527 = DIRECTION('',(-9.412919451821E-02,0.1728771887,0.980435195394));
#528 = ORIENTED_EDGE('',*,*,#314,.F.);
#529 = PLANE('',#530);
#530 = AXIS2_PLACEMENT_3D('',#531,#532,#533);
#531 = CARTESIAN_POINT('',(2.900000138927,3.956355470909,1.130155667296)
  );
#532 = DIRECTION('',(-3.489106804003E-08,-0.98480775171,0.173648185051)
  );
#533 = DIRECTION('',(-5.46098790267E-09,-0.173648185051,-0.98480775171)
  );
#534 = ADVANCED_FACE('',(#535),#571,.F.);
#535 = FACE_BOUND('',#536,.T.);
#536 = EDGE_LOOP('',(#537,#538,#546,#555,#563,#569,#570));
#537 = ORIENTED_EDGE('',*,*,#73,.T.);
#538 = ORIENTED_EDGE('',*,*,#539,.F.);
#539 = EDGE_CURVE('',#540,#66,#542,.T.);
#540 = VERTEX_POINT('',#541);
#541 = CARTESIAN_POINT('',(5.212436203831,24.437965484489,-2.81103651572
    ));
#542 = LINE('',#543,#544);
#543 = CARTESIAN_POINT('',(22.404286751689,8.321839883399,
    -10.04816882726));
#544 = VECTOR('',#545,1.);
#545 = DIRECTION('',(0.697413586271,-0.653775166377,-0.293585288312));
#546 = ORIENTED_EDGE('',*,*,#547,.T.);
#547 = EDGE_CURVE('',#540,#548,#550,.T.);
#548 = VERTEX_POINT('',#549);
#549 = CARTESIAN_POINT('',(5.0653480323,24.814790877337,-2.79124954885)
  );
#550 = ELLIPSE('',#551,0.634705514858,0.5);
#551 = AXIS2_PLACEMENT_3D('',#552,#553,#554);
#552 = CARTESIAN_POINT('',(5.601066720378,24.803790367577,
    -3.103378604203));
#553 = DIRECTION('',(-0.50000000473,-0.150383721921,-0.852868531165));
#554 = DIRECTION('',(0.812679242424,0.258822300569,-0.522076110985));
#555 = ORIENTED_EDGE('',*,*,#556,.F.);
#556 = EDGE_CURVE('',#557,#548,#559,.T.);
#557 = VERTEX_POINT('',#558);
#558 = CARTESIAN_POINT('',(5.271734971926,27.54359670208,-3.39340735905)
  );
#559 = LINE('',#560,#561);
#560 = CARTESIAN_POINT('',(2.978675407539,-2.774766984283,3.296859614405
    ));
#561 = VECTOR('',#562,1.);
#562 = DIRECTION('',(-7.365528849404E-02,-0.973855131664,0.214897838541)
  );
#563 = ORIENTED_EDGE('',*,*,#564,.T.);
#564 = EDGE_CURVE('',#557,#492,#565,.T.);
#565 = LINE('',#566,#567);
#566 = CARTESIAN_POINT('',(5.464086673299,27.577654235531,
    -3.512180120074));
#567 = VECTOR('',#568,1.);
#568 = DIRECTION('',(-0.84136829966,-0.14897153918,0.519525615192));
#569 = ORIENTED_EDGE('',*,*,#491,.T.);
#570 = ORIENTED_EDGE('',*,*,#348,.F.);
#571 = PLANE('',#572);
#572 = AXIS2_PLACEMENT_3D('',#573,#574,#575);
#573 = CARTESIAN_POINT('',(16.774355448669,-5.867973282291,
    -4.245536399739));
#574 = DIRECTION('',(-0.50000000473,-0.150383721921,-0.852868531165));
#575 = DIRECTION('',(-0.862642104331,-4.805335642032E-04,0.505814559816)
  );
#576 = ADVANCED_FACE('',(#577),#613,.F.);
#577 = FACE_BOUND('',#578,.T.);
#578 = EDGE_LOOP('',(#579,#580,#588,#596,#605,#611,#612));
#579 = ORIENTED_EDGE('',*,*,#507,.T.);
#580 = ORIENTED_EDGE('',*,*,#581,.T.);
#581 = EDGE_CURVE('',#500,#582,#584,.T.);
#582 = VERTEX_POINT('',#583);
#583 = CARTESIAN_POINT('',(3.728266977782,27.543596756575,
    -3.393407360102));
#584 = LINE('',#585,#586);
#585 = CARTESIAN_POINT('',(5.376456842887,27.251770356219,
    -2.375687929407));
#586 = VECTOR('',#587,1.);
#587 = DIRECTION('',(-0.841368288432,0.148971598595,-0.519525616339));
#588 = ORIENTED_EDGE('',*,*,#589,.T.);
#589 = EDGE_CURVE('',#582,#590,#592,.T.);
#590 = VERTEX_POINT('',#591);
#591 = CARTESIAN_POINT('',(3.934653723886,24.81479091728,-2.791249549623
    ));
#592 = LINE('',#593,#594);
#593 = CARTESIAN_POINT('',(6.209162997544,-5.258332985705,3.844901026884
    ));
#594 = VECTOR('',#595,1.);
#595 = DIRECTION('',(7.365521942916E-02,-0.973855136865,0.214897838641)
  );
#596 = ORIENTED_EDGE('',*,*,#597,.T.);
#597 = EDGE_CURVE('',#590,#598,#600,.T.);
#598 = VERTEX_POINT('',#599);
#599 = CARTESIAN_POINT('',(3.787565525771,24.437965534796,
    -2.811036516689));
#600 = ELLIPSE('',#601,0.634705514858,0.5);
#601 = AXIS2_PLACEMENT_3D('',#602,#603,#604);
#602 = CARTESIAN_POINT('',(3.398935035456,24.803790445338,
    -3.103378605703));
#603 = DIRECTION('',(0.499999995271,-0.150383757231,-0.852868530484));
#604 = DIRECTION('',(-0.812679223436,0.25882235796,-0.522076112091));
#605 = ORIENTED_EDGE('',*,*,#606,.T.);
#606 = EDGE_CURVE('',#598,#394,#607,.T.);
#607 = LINE('',#608,#609);
#608 = CARTESIAN_POINT('',(-2.369017988893,18.666611314747,
    -5.402729980912));
#609 = VECTOR('',#610,1.);
#610 = DIRECTION('',(-0.69741363204,-0.653775117128,-0.29358528926));
#611 = ORIENTED_EDGE('',*,*,#393,.F.);
#612 = ORIENTED_EDGE('',*,*,#331,.F.);
#613 = PLANE('',#614);
#614 = AXIS2_PLACEMENT_3D('',#615,#616,#617);
#615 = CARTESIAN_POINT('',(13.01025389988,-3.761402453486,7.568137689686
    ));
#616 = DIRECTION('',(0.499999995271,-0.150383757231,-0.852868530484));
#617 = DIRECTION('',(-0.862642103609,4.805944828562E-04,-0.50581456099)
  );
#618 = ADVANCED_FACE('',(#619),#637,.T.);
#619 = FACE_BOUND('',#620,.T.);
#620 = EDGE_LOOP('',(#621,#629,#635,#636));
#621 = ORIENTED_EDGE('',*,*,#622,.F.);
#622 = EDGE_CURVE('',#623,#205,#625,.T.);
#623 = VERTEX_POINT('',#624);
#624 = CARTESIAN_POINT('',(4.350000840548,23.603670613787,
    -10.45760915665));
#625 = LINE('',#626,#627);
#626 = CARTESIAN_POINT('',(4.350001026365,28.848392407249,-11.3823951557
    ));
#627 = VECTOR('',#628,1.);
#628 = DIRECTION('',(-3.489106300239E-08,-0.98480775171,0.173648185051)
  );
#629 = ORIENTED_EDGE('',*,*,#630,.T.);
#630 = EDGE_CURVE('',#623,#227,#631,.T.);
#631 = LINE('',#632,#633);
#632 = CARTESIAN_POINT('',(7.500000840548,23.60367050257,-10.45760915451
    ));
#633 = VECTOR('',#634,1.);
#634 = DIRECTION('',(1.,-3.530928491284E-08,6.807474001937E-10));
#635 = ORIENTED_EDGE('',*,*,#226,.F.);
#636 = ORIENTED_EDGE('',*,*,#212,.T.);
#637 = PLANE('',#638);
#638 = AXIS2_PLACEMENT_3D('',#639,#640,#641);
#639 = CARTESIAN_POINT('',(5.800001026365,28.848392356053,
    -11.38239515471));
#640 = DIRECTION('',(-5.46098790267E-09,-0.173648185051,-0.98480775171)
  );
#641 = DIRECTION('',(3.489106804003E-08,0.98480775171,-0.173648185051));
#642 = ADVANCED_FACE('',(#643),#678,.F.);
#643 = FACE_BOUND('',#644,.T.);
#644 = EDGE_LOOP('',(#645,#646,#653,#654,#655,#663,#672));
#645 = ORIENTED_EDGE('',*,*,#443,.F.);
#646 = ORIENTED_EDGE('',*,*,#647,.F.);
#647 = EDGE_CURVE('',#623,#435,#648,.T.);
#648 = ELLIPSE('',#649,14.,7.);
#649 = AXIS2_PLACEMENT_3D('',#650,#651,#652);
#650 = CARTESIAN_POINT('',(13.310528342482,27.349225457538,
    -16.37122196692));
#651 = DIRECTION('',(-0.50000000473,-0.150383721921,-0.852868531165));
#652 = DIRECTION('',(-0.866025401053,8.682412310509E-02,0.492403875266)
  );
#653 = ORIENTED_EDGE('',*,*,#622,.T.);
#654 = ORIENTED_EDGE('',*,*,#204,.T.);
#655 = ORIENTED_EDGE('',*,*,#656,.T.);
#656 = EDGE_CURVE('',#197,#657,#659,.T.);
#657 = VERTEX_POINT('',#658);
#658 = CARTESIAN_POINT('',(3.934653003895,4.346168257706,-6.818491653669
    ));
#659 = LINE('',#660,#661);
#660 = CARTESIAN_POINT('',(6.209164410308,34.41929200005,-13.45464222706
    ));
#661 = VECTOR('',#662,1.);
#662 = DIRECTION('',(7.365528849404E-02,0.973855131664,-0.214897838541)
  );
#663 = ORIENTED_EDGE('',*,*,#664,.T.);
#664 = EDGE_CURVE('',#657,#665,#667,.T.);
#665 = VERTEX_POINT('',#666);
#666 = CARTESIAN_POINT('',(3.787564832363,4.722993650556,-6.7987046868)
  );
#667 = ELLIPSE('',#668,0.634705514858,0.5);
#668 = AXIS2_PLACEMENT_3D('',#669,#670,#671);
#669 = CARTESIAN_POINT('',(3.398934315817,4.357168767466,-6.506362598318
    ));
#670 = DIRECTION('',(0.50000000473,0.150383721921,0.852868531165));
#671 = DIRECTION('',(-0.812679242424,-0.258822300569,0.522076110985));
#672 = ORIENTED_EDGE('',*,*,#673,.T.);
#673 = EDGE_CURVE('',#665,#444,#674,.T.);
#674 = LINE('',#675,#676);
#675 = CARTESIAN_POINT('',(-2.369018278265,10.49434830538,
    -4.207011230962));
#676 = VECTOR('',#677,1.);
#677 = DIRECTION('',(-0.697413586271,0.653775166377,0.293585288312));
#678 = PLANE('',#679);
#679 = AXIS2_PLACEMENT_3D('',#680,#681,#682);
#680 = CARTESIAN_POINT('',(13.235255216009,33.032885603741,
    -17.32927514098));
#681 = DIRECTION('',(0.50000000473,0.150383721921,0.852868531165));
#682 = DIRECTION('',(0.865459514347,-5.117186361481E-02,-0.498358575124)
  );
#683 = ADVANCED_FACE('',(#684),#694,.F.);
#684 = FACE_BOUND('',#685,.T.);
#685 = EDGE_LOOP('',(#686,#687,#693));
#686 = ORIENTED_EDGE('',*,*,#673,.F.);
#687 = ORIENTED_EDGE('',*,*,#688,.F.);
#688 = EDGE_CURVE('',#452,#665,#689,.T.);
#689 = LINE('',#690,#691);
#690 = CARTESIAN_POINT('',(3.058419120481,4.443100917686,
    -1.022495451584E-02));
#691 = VECTOR('',#692,1.);
#692 = DIRECTION('',(0.106705386214,4.096034808066E-02,-0.993446631902)
  );
#693 = ORIENTED_EDGE('',*,*,#451,.F.);
#694 = PLANE('',#695);
#695 = AXIS2_PLACEMENT_3D('',#696,#697,#698);
#696 = CARTESIAN_POINT('',(3.213870654912,4.286129541834,
    -3.301547313317E-08));
#697 = DIRECTION('',(0.703233201013,0.703233152207,0.104528458474));
#698 = DIRECTION('',(-0.707106756219,0.707106806154,-5.784498088857E-09)
  );
#699 = ADVANCED_FACE('',(#700),#711,.F.);
#700 = FACE_BOUND('',#701,.F.);
#701 = EDGE_LOOP('',(#702,#703,#709,#710));
#702 = ORIENTED_EDGE('',*,*,#459,.T.);
#703 = ORIENTED_EDGE('',*,*,#704,.F.);
#704 = EDGE_CURVE('',#657,#460,#705,.T.);
#705 = LINE('',#706,#707);
#706 = CARTESIAN_POINT('',(3.182091033957,4.05728686817,0.187997717328)
  );
#707 = VECTOR('',#708,1.);
#708 = DIRECTION('',(-0.106705386214,-4.096034808066E-02,0.993446631902)
  );
#709 = ORIENTED_EDGE('',*,*,#664,.T.);
#710 = ORIENTED_EDGE('',*,*,#688,.F.);
#711 = CYLINDRICAL_SURFACE('',#712,0.5);
#712 = AXIS2_PLACEMENT_3D('',#713,#714,#715);
#713 = CARTESIAN_POINT('',(2.685511566073,4.083311512505,0.135733485162)
  );
#714 = DIRECTION('',(-0.106705386214,-4.096034808066E-02,0.993446631902)
  );
#715 = DIRECTION('',(0.994281059771,-3.430693722162E-08,0.106795010095)
  );
#716 = ADVANCED_FACE('',(#717),#733,.F.);
#717 = FACE_BOUND('',#718,.F.);
#718 = EDGE_LOOP('',(#719,#725,#726,#732));
#719 = ORIENTED_EDGE('',*,*,#720,.F.);
#720 = EDGE_CURVE('',#243,#107,#721,.T.);
#721 = LINE('',#722,#723);
#722 = CARTESIAN_POINT('',(5.941581193299,4.443100815879,
    -1.022495255443E-02));
#723 = VECTOR('',#724,1.);
#724 = DIRECTION('',(0.106705381967,-4.096035561485E-02,0.993446632048)
  );
#725 = ORIENTED_EDGE('',*,*,#250,.T.);
#726 = ORIENTED_EDGE('',*,*,#727,.F.);
#727 = EDGE_CURVE('',#99,#251,#728,.T.);
#728 = LINE('',#729,#730);
#729 = CARTESIAN_POINT('',(5.817909252307,4.057286775098,0.187997719123)
  );
#730 = VECTOR('',#731,1.);
#731 = DIRECTION('',(-0.106705381967,4.096035561485E-02,-0.993446632048)
  );
#732 = ORIENTED_EDGE('',*,*,#106,.F.);
#733 = CYLINDRICAL_SURFACE('',#734,0.5);
#734 = AXIS2_PLACEMENT_3D('',#735,#736,#737);
#735 = CARTESIAN_POINT('',(6.293197769046,4.091484214949,
    -6.248918131039E-02));
#736 = DIRECTION('',(0.106705381967,-4.096035561485E-02,0.993446632048)
  );
#737 = DIRECTION('',(0.994281059916,-3.590820214783E-08,-0.10679500874)
  );
#738 = ADVANCED_FACE('',(#739),#753,.F.);
#739 = FACE_BOUND('',#740,.T.);
#740 = EDGE_LOOP('',(#741,#742,#748,#749,#750,#751,#752));
#741 = ORIENTED_EDGE('',*,*,#196,.T.);
#742 = ORIENTED_EDGE('',*,*,#743,.F.);
#743 = EDGE_CURVE('',#285,#188,#744,.T.);
#744 = LINE('',#745,#746);
#745 = CARTESIAN_POINT('',(4.403656401595,1.541131503247,-12.6713958078)
  );
#746 = VECTOR('',#747,1.);
#747 = DIRECTION('',(0.109487814806,0.103900041338,-0.98854296812));
#748 = ORIENTED_EDGE('',*,*,#305,.T.);
#749 = ORIENTED_EDGE('',*,*,#523,.F.);
#750 = ORIENTED_EDGE('',*,*,#468,.F.);
#751 = ORIENTED_EDGE('',*,*,#704,.F.);
#752 = ORIENTED_EDGE('',*,*,#656,.F.);
#753 = PLANE('',#754);
#754 = AXIS2_PLACEMENT_3D('',#755,#756,#757);
#755 = CARTESIAN_POINT('',(2.989243974944,5.334595956827E-08,
    -1.027639989193E-09));
#756 = DIRECTION('',(0.993158935766,-5.204928868249E-02,0.104528464334)
  );
#757 = DIRECTION('',(0.104670342615,-1.115363490456E-08,-0.994506973016)
  );
#758 = ADVANCED_FACE('',(#759),#764,.F.);
#759 = FACE_BOUND('',#760,.T.);
#760 = EDGE_LOOP('',(#761,#762,#763));
#761 = ORIENTED_EDGE('',*,*,#720,.F.);
#762 = ORIENTED_EDGE('',*,*,#242,.T.);
#763 = ORIENTED_EDGE('',*,*,#115,.F.);
#764 = PLANE('',#765);
#765 = AXIS2_PLACEMENT_3D('',#766,#767,#768);
#766 = CARTESIAN_POINT('',(5.78612964777,4.286129451013,
    -3.126501180173E-08));
#767 = DIRECTION('',(-0.703233151494,0.703233201868,0.104528457515));
#768 = DIRECTION('',(-0.707106806154,-0.707106756219,4.820630644664E-09)
  );
#769 = ADVANCED_FACE('',(#770),#784,.F.);
#770 = FACE_BOUND('',#771,.T.);
#771 = EDGE_LOOP('',(#772,#773,#774,#775,#776,#777,#783));
#772 = ORIENTED_EDGE('',*,*,#259,.T.);
#773 = ORIENTED_EDGE('',*,*,#727,.F.);
#774 = ORIENTED_EDGE('',*,*,#98,.F.);
#775 = ORIENTED_EDGE('',*,*,#137,.F.);
#776 = ORIENTED_EDGE('',*,*,#357,.F.);
#777 = ORIENTED_EDGE('',*,*,#778,.F.);
#778 = EDGE_CURVE('',#163,#358,#779,.T.);
#779 = LINE('',#780,#781);
#780 = CARTESIAN_POINT('',(6.002298953046,0.206929794789,
    2.268588151804E-02));
#781 = VECTOR('',#782,1.);
#782 = DIRECTION('',(0.109487806122,-0.10390004907,0.988542968269));
#783 = ORIENTED_EDGE('',*,*,#162,.F.);
#784 = PLANE('',#785);
#785 = AXIS2_PLACEMENT_3D('',#786,#787,#788);
#786 = CARTESIAN_POINT('',(6.010756025056,-5.335057263296E-08,
    1.029050793037E-09));
#787 = DIRECTION('',(-0.993158939584,-5.204921854702E-02,0.104528462981)
  );
#788 = DIRECTION('',(0.104670341261,3.762092470883E-09,0.994506973158));
#789 = ADVANCED_FACE('',(#790),#806,.F.);
#790 = FACE_BOUND('',#791,.T.);
#791 = EDGE_LOOP('',(#792,#793,#799,#800));
#792 = ORIENTED_EDGE('',*,*,#179,.T.);
#793 = ORIENTED_EDGE('',*,*,#794,.F.);
#794 = EDGE_CURVE('',#275,#171,#795,.T.);
#795 = LINE('',#796,#797);
#796 = CARTESIAN_POINT('',(5.803667158119,-2.3844281494E-03,
    2.268588295263E-02));
#797 = VECTOR('',#798,1.);
#798 = DIRECTION('',(-0.109487806122,0.10390004907,-0.988542968269));
#799 = ORIENTED_EDGE('',*,*,#274,.T.);
#800 = ORIENTED_EDGE('',*,*,#801,.F.);
#801 = EDGE_CURVE('',#180,#277,#802,.T.);
#802 = LINE('',#803,#804);
#803 = CARTESIAN_POINT('',(3.196332841681,-2.38433608365E-03,
    2.268588117745E-02));
#804 = VECTOR('',#805,1.);
#805 = DIRECTION('',(-0.109487814806,-0.103900041338,0.98854296812));
#806 = PLANE('',#807);
#807 = AXIS2_PLACEMENT_3D('',#808,#809,#810);
#808 = CARTESIAN_POINT('',(6.010756025056,-5.335057263296E-08,
    1.029050793037E-09));
#809 = DIRECTION('',(3.504469964709E-08,0.994521896152,0.10452845581));
#810 = DIRECTION('',(-4.367843243383E-09,-0.10452845581,0.994521896152)
  );
#811 = ADVANCED_FACE('',(#812),#818,.T.);
#812 = FACE_BOUND('',#813,.T.);
#813 = EDGE_LOOP('',(#814,#815,#816,#817));
#814 = ORIENTED_EDGE('',*,*,#778,.T.);
#815 = ORIENTED_EDGE('',*,*,#366,.F.);
#816 = ORIENTED_EDGE('',*,*,#794,.T.);
#817 = ORIENTED_EDGE('',*,*,#170,.F.);
#818 = CYLINDRICAL_SURFACE('',#819,0.2);
#819 = AXIS2_PLACEMENT_3D('',#820,#821,#822);
#820 = CARTESIAN_POINT('',(5.803667165129,0.19651995108,
    4.359157411373E-02));
#821 = DIRECTION('',(-0.109487806122,0.10390004907,-0.988542968269));
#822 = DIRECTION('',(-0.993922330309,3.592009405196E-08,0.110083610553)
  );
#823 = ADVANCED_FACE('',(#824),#830,.T.);
#824 = FACE_BOUND('',#825,.T.);
#825 = EDGE_LOOP('',(#826,#827,#828,#829));
#826 = ORIENTED_EDGE('',*,*,#801,.T.);
#827 = ORIENTED_EDGE('',*,*,#284,.F.);
#828 = ORIENTED_EDGE('',*,*,#743,.T.);
#829 = ORIENTED_EDGE('',*,*,#187,.F.);
#830 = CYLINDRICAL_SURFACE('',#831,0.2);
#831 = AXIS2_PLACEMENT_3D('',#832,#833,#834);
#832 = CARTESIAN_POINT('',(3.232553469483,0.230892123765,-0.283436965484
    ));
#833 = DIRECTION('',(0.109487814806,0.103900041338,-0.98854296812));
#834 = DIRECTION('',(-0.993922330159,3.42696566541E-08,-0.110083611907)
  );
#835 = ADVANCED_FACE('',(#836),#853,.T.);
#836 = FACE_BOUND('',#837,.T.);
#837 = EDGE_LOOP('',(#838,#846,#852));
#838 = ORIENTED_EDGE('',*,*,#839,.T.);
#839 = EDGE_CURVE('',#32,#840,#842,.T.);
#840 = VERTEX_POINT('',#841);
#841 = CARTESIAN_POINT('',(5.817623048252,25.396963533829,
    -9.648969942553));
#842 = LINE('',#843,#844);
#843 = CARTESIAN_POINT('',(7.500000903318,25.396963474425,
    -9.648969941407));
#844 = VECTOR('',#845,1.);
#845 = DIRECTION('',(1.,-3.530928491284E-08,6.807474001937E-10));
#846 = ORIENTED_EDGE('',*,*,#847,.T.);
#847 = EDGE_CURVE('',#840,#41,#848,.T.);
#848 = LINE('',#849,#850);
#849 = CARTESIAN_POINT('',(5.923934234918,25.201712961762,
    -10.75629089227));
#850 = VECTOR('',#851,1.);
#851 = DIRECTION('',(-9.412919451821E-02,0.1728771887,0.980435195394));
#852 = ORIENTED_EDGE('',*,*,#40,.F.);
#853 = PLANE('',#854);
#854 = AXIS2_PLACEMENT_3D('',#855,#856,#857);
#855 = CARTESIAN_POINT('',(6.100000897268,25.20460366414,-10.73989686981
    ));
#856 = DIRECTION('',(-3.489106804003E-08,-0.98480775171,0.173648185051)
  );
#857 = DIRECTION('',(-5.46098792392E-09,-0.173648185051,-0.98480775171)
  );
#858 = ADVANCED_FACE('',(#859),#904,.T.);
#859 = FACE_BOUND('',#860,.T.);
#860 = EDGE_LOOP('',(#861,#862,#870,#879,#887,#896,#902,#903));
#861 = ORIENTED_EDGE('',*,*,#564,.F.);
#862 = ORIENTED_EDGE('',*,*,#863,.T.);
#863 = EDGE_CURVE('',#557,#864,#866,.T.);
#864 = VERTEX_POINT('',#865);
#865 = CARTESIAN_POINT('',(5.771460114122,28.734970418392,
    -7.548221444141));
#866 = LINE('',#867,#868);
#867 = CARTESIAN_POINT('',(5.233137580887,27.451578283713,
    -3.072500983923));
#868 = VECTOR('',#869,1.);
#869 = DIRECTION('',(0.114851800624,0.273813352545,-0.954900681674));
#870 = ORIENTED_EDGE('',*,*,#871,.T.);
#871 = EDGE_CURVE('',#864,#872,#874,.T.);
#872 = VERTEX_POINT('',#873);
#873 = CARTESIAN_POINT('',(5.700458915347,29.065401536757,
    -8.700571722939));
#874 = ELLIPSE('',#875,1.158720161828,0.2);
#875 = AXIS2_PLACEMENT_3D('',#876,#877,#878);
#876 = CARTESIAN_POINT('',(5.575520545481,28.747935095731,
    -7.593434624416));
#877 = DIRECTION('',(3.375382365278E-08,0.961261698005,0.275637348609));
#878 = DIRECTION('',(-0.111156134269,-0.273929208011,0.955304717257));
#879 = ORIENTED_EDGE('',*,*,#880,.F.);
#880 = EDGE_CURVE('',#881,#872,#883,.T.);
#881 = VERTEX_POINT('',#882);
#882 = CARTESIAN_POINT('',(3.299543149055,29.065401621541,
    -8.700571724575));
#883 = LINE('',#884,#885);
#884 = CARTESIAN_POINT('',(5.800001032201,29.065401533245,
    -8.700571722873));
#885 = VECTOR('',#886,1.);
#886 = DIRECTION('',(1.,-3.530928468391E-08,6.807466018023E-10));
#887 = ORIENTED_EDGE('',*,*,#888,.T.);
#888 = EDGE_CURVE('',#881,#889,#891,.T.);
#889 = VERTEX_POINT('',#890);
#890 = CARTESIAN_POINT('',(3.228541925378,28.734970508185,
    -7.548221445872));
#891 = ELLIPSE('',#892,1.158720161828,0.2);
#892 = AXIS2_PLACEMENT_3D('',#893,#894,#895);
#893 = CARTESIAN_POINT('',(3.424481494993,28.74793517168,-7.59343462588)
  );
#894 = DIRECTION('',(3.375382387136E-08,0.961261698005,0.275637348609));
#895 = DIRECTION('',(0.111156113622,-0.273929215861,0.955304717408));
#896 = ORIENTED_EDGE('',*,*,#897,.F.);
#897 = EDGE_CURVE('',#582,#889,#898,.T.);
#898 = LINE('',#899,#900);
#899 = CARTESIAN_POINT('',(3.801160786521,27.369813653317,
    -2.787353647453));
#900 = VECTOR('',#901,1.);
#901 = DIRECTION('',(-0.114851779988,0.273813360656,-0.95490068183));
#902 = ORIENTED_EDGE('',*,*,#581,.F.);
#903 = ORIENTED_EDGE('',*,*,#499,.F.);
#904 = PLANE('',#905);
#905 = AXIS2_PLACEMENT_3D('',#906,#907,#908);
#906 = CARTESIAN_POINT('',(5.800000970706,27.433513275684,
    -3.009500881638));
#907 = DIRECTION('',(3.375382376232E-08,0.961261698005,0.275637348609));
#908 = DIRECTION('',(-1.038693407652E-08,-0.275637348609,0.961261698005)
  );
#909 = ADVANCED_FACE('',(#910),#992,.F.);
#910 = FACE_BOUND('',#911,.F.);
#911 = EDGE_LOOP('',(#912,#922,#943,#952,#958,#959,#960,#961,#962,#963,
    #964,#973));
#912 = ORIENTED_EDGE('',*,*,#913,.T.);
#913 = EDGE_CURVE('',#914,#916,#918,.T.);
#914 = VERTEX_POINT('',#915);
#915 = CARTESIAN_POINT('',(5.801155579751,29.160959089108,
    -9.609741201636));
#916 = VERTEX_POINT('',#917);
#917 = CARTESIAN_POINT('',(3.198846492637,29.160959180996,
    -9.609741203408));
#918 = LINE('',#919,#920);
#919 = CARTESIAN_POINT('',(7.500001036194,29.160959029127,-9.60974120048
    ));
#920 = VECTOR('',#921,1.);
#921 = DIRECTION('',(-1.,3.530928491284E-08,-6.807474001937E-10));
#922 = ORIENTED_EDGE('',*,*,#923,.F.);
#923 = EDGE_CURVE('',#924,#916,#926,.T.);
#924 = VERTEX_POINT('',#925);
#925 = CARTESIAN_POINT('',(3.006192496692,28.945972238599,
    -9.555768879789));
#926 = B_SPLINE_CURVE_WITH_KNOTS('',3,(#927,#928,#929,#930,#931,#932,
    #933,#934,#935,#936,#937,#938,#939,#940,#941,#942),.UNSPECIFIED.,.F.
  ,.F.,(4,3,3,3,3,4),(0.,0.223824208873,0.448255185794,0.662916134453,
    0.863043139764,1.),.UNSPECIFIED.);
#927 = CARTESIAN_POINT('',(3.006192496692,28.945972238599,
    -9.555768879789));
#928 = CARTESIAN_POINT('',(3.004360025837,28.969750273997,
    -9.561339674894));
#929 = CARTESIAN_POINT('',(3.006592197261,28.994130871338,
    -9.567190239234));
#930 = CARTESIAN_POINT('',(3.012862433797,29.017123286218,
    -9.572831131576));
#931 = CARTESIAN_POINT('',(3.019142326443,29.040151109238,
    -9.578480710845));
#932 = CARTESIAN_POINT('',(3.02968214171,29.062451359915,-9.584082589039
    ));
#933 = CARTESIAN_POINT('',(3.04378378518,29.081896191925,-9.589050243419
    ));
#934 = CARTESIAN_POINT('',(3.057270671235,29.100493331634,
    -9.593801334223));
#935 = CARTESIAN_POINT('',(3.074447320489,29.117026242995,
    -9.598109313679));
#936 = CARTESIAN_POINT('',(3.093860586891,29.129763022143,
    -9.601459255352));
#937 = CARTESIAN_POINT('',(3.111982750662,29.141652726478,-9.60458640513
    ));
#938 = CARTESIAN_POINT('',(3.132587661469,29.150575577524,
    -9.606965414492));
#939 = CARTESIAN_POINT('',(3.153843144295,29.155666018846,
    -9.608325124586));
#940 = CARTESIAN_POINT('',(3.168511106819,29.159178825554,
    -9.609263431982));
#941 = CARTESIAN_POINT('',(3.183734598106,29.160959181532,
    -9.609741203419));
#942 = CARTESIAN_POINT('',(3.198846492637,29.160959180996,
    -9.609741203408));
#943 = ORIENTED_EDGE('',*,*,#944,.T.);
#944 = EDGE_CURVE('',#924,#945,#947,.T.);
#945 = VERTEX_POINT('',#946);
#946 = CARTESIAN_POINT('',(3.182378758384,25.396963626881,
    -9.648969944346));
#947 = ELLIPSE('',#948,7.048217293788,7.);
#948 = AXIS2_PLACEMENT_3D('',#949,#950,#951);
#949 = CARTESIAN_POINT('',(2.372558332658,27.349225843752,
    -16.37122197437));
#950 = DIRECTION('',(0.993158939584,5.204921854702E-02,-0.104528462981)
  );
#951 = DIRECTION('',(-0.116770376057,0.442690830207,-0.889038530169));
#952 = ORIENTED_EDGE('',*,*,#953,.F.);
#953 = EDGE_CURVE('',#427,#945,#954,.T.);
#954 = LINE('',#955,#956);
#955 = CARTESIAN_POINT('',(7.500000903318,25.396963474425,
    -9.648969941407));
#956 = VECTOR('',#957,1.);
#957 = DIRECTION('',(-1.,3.530928491284E-08,-6.807474001937E-10));
#958 = ORIENTED_EDGE('',*,*,#434,.F.);
#959 = ORIENTED_EDGE('',*,*,#647,.F.);
#960 = ORIENTED_EDGE('',*,*,#630,.T.);
#961 = ORIENTED_EDGE('',*,*,#234,.F.);
#962 = ORIENTED_EDGE('',*,*,#31,.T.);
#963 = ORIENTED_EDGE('',*,*,#839,.T.);
#964 = ORIENTED_EDGE('',*,*,#965,.F.);
#965 = EDGE_CURVE('',#966,#840,#968,.T.);
#966 = VERTEX_POINT('',#967);
#967 = CARTESIAN_POINT('',(5.993809560442,28.945972133119,
    -9.555768877756));
#968 = ELLIPSE('',#969,7.048217293788,7.);
#969 = AXIS2_PLACEMENT_3D('',#970,#971,#972);
#970 = CARTESIAN_POINT('',(6.627443620994,27.349225693524,
    -16.37122197147));
#971 = DIRECTION('',(0.993158935766,-5.204928868249E-02,0.104528464334)
  );
#972 = DIRECTION('',(-0.11677040853,-0.442690821962,0.88903853001));
#973 = ORIENTED_EDGE('',*,*,#974,.F.);
#974 = EDGE_CURVE('',#914,#966,#975,.T.);
#975 = B_SPLINE_CURVE_WITH_KNOTS('',3,(#976,#977,#978,#979,#980,#981,
    #982,#983,#984,#985,#986,#987,#988,#989,#990,#991),.UNSPECIFIED.,.F.
  ,.F.,(4,3,3,3,3,4),(0.,0.19100345032,0.381975166702,0.573931176279,
    0.775033470624,1.),.UNSPECIFIED.);
#976 = CARTESIAN_POINT('',(5.801155579751,29.160959089108,
    -9.609741201636));
#977 = CARTESIAN_POINT('',(5.822071692995,29.160959088369,
    -9.609741201621));
#978 = CARTESIAN_POINT('',(5.843281562553,29.157495425807,-9.60881051656
    ));
#979 = CARTESIAN_POINT('',(5.863016453403,29.150799362523,
    -9.607027089242));
#980 = CARTESIAN_POINT('',(5.88275123664,29.144103335756,-9.605243671646
    ));
#981 = CARTESIAN_POINT('',(5.901540510215,29.133999683635,
    -9.602562450147));
#982 = CARTESIAN_POINT('',(5.917900578866,29.121392448352,
    -9.599263238966));
#983 = CARTESIAN_POINT('',(5.934356828425,29.108711095074,
    -9.595944631706));
#984 = CARTESIAN_POINT('',(5.948794227984,29.093183148889,
    -9.591920867691));
#985 = CARTESIAN_POINT('',(5.960268237904,29.076093415175,
    -9.587570451342));
#986 = CARTESIAN_POINT('',(5.972287575396,29.058191454261,
    -9.583013271884));
#987 = CARTESIAN_POINT('',(5.981373894862,29.038130245947,
    -9.577985999503));
#988 = CARTESIAN_POINT('',(5.987050603128,29.017448572748,
    -9.572910968423));
#989 = CARTESIAN_POINT('',(5.993388144252,28.994359319584,
    -9.567245146499));
#990 = CARTESIAN_POINT('',(5.995650556898,28.96986077409,-9.56136558592)
  );
#991 = CARTESIAN_POINT('',(5.993809560442,28.945972133119,
    -9.555768877756));
#992 = CYLINDRICAL_SURFACE('',#993,7.);
#993 = AXIS2_PLACEMENT_3D('',#994,#995,#996);
#994 = CARTESIAN_POINT('',(7.500000976826,27.349225662708,
    -16.37122197088));
#995 = DIRECTION('',(-1.,3.530928491284E-08,-6.807474001937E-10));
#996 = DIRECTION('',(6.807471354515E-10,-7.497805765144E-09,-1.));
#997 = ADVANCED_FACE('',(#998),#1008,.F.);
#998 = FACE_BOUND('',#999,.T.);
#999 = EDGE_LOOP('',(#1000,#1001,#1007));
#1000 = ORIENTED_EDGE('',*,*,#426,.T.);
#1001 = ORIENTED_EDGE('',*,*,#1002,.T.);
#1002 = EDGE_CURVE('',#419,#945,#1003,.T.);
#1003 = LINE('',#1004,#1005);
#1004 = CARTESIAN_POINT('',(3.076067559438,25.201713062323,
    -10.75629089421));
#1005 = VECTOR('',#1006,1.);
#1006 = DIRECTION('',(-9.412920539185E-02,-0.172877182052,
    -0.980435195522));
#1007 = ORIENTED_EDGE('',*,*,#953,.F.);
#1008 = PLANE('',#1009);
#1009 = AXIS2_PLACEMENT_3D('',#1010,#1011,#1012);
#1010 = CARTESIAN_POINT('',(2.900000897268,25.204603777128,
    -10.73989687199));
#1011 = DIRECTION('',(3.489106804003E-08,0.98480775171,-0.173648185051)
  );
#1012 = DIRECTION('',(5.46098792392E-09,0.173648185051,0.98480775171));
#1013 = ADVANCED_FACE('',(#1014),#1024,.F.);
#1014 = FACE_BOUND('',#1015,.T.);
#1015 = EDGE_LOOP('',(#1016,#1017,#1023));
#1016 = ORIENTED_EDGE('',*,*,#606,.F.);
#1017 = ORIENTED_EDGE('',*,*,#1018,.F.);
#1018 = EDGE_CURVE('',#402,#598,#1019,.T.);
#1019 = LINE('',#1020,#1021);
#1020 = CARTESIAN_POINT('',(3.058419842895,24.717858319173,
    -9.59951624997));
#1021 = VECTOR('',#1022,1.);
#1022 = DIRECTION('',(0.106705381967,-4.096035561485E-02,0.993446632048)
  );
#1023 = ORIENTED_EDGE('',*,*,#401,.F.);
#1024 = PLANE('',#1025);
#1025 = AXIS2_PLACEMENT_3D('',#1026,#1027,#1028);
#1026 = CARTESIAN_POINT('',(3.213871388424,24.87482968403,
    -9.609741171255));
#1027 = DIRECTION('',(0.703233151494,-0.703233201868,-0.104528457515));
#1028 = DIRECTION('',(-0.707106806154,-0.707106756219,4.820630644664E-09
    ));
#1029 = ADVANCED_FACE('',(#1030),#1041,.F.);
#1030 = FACE_BOUND('',#1031,.F.);
#1031 = EDGE_LOOP('',(#1032,#1033,#1039,#1040));
#1032 = ORIENTED_EDGE('',*,*,#409,.T.);
#1033 = ORIENTED_EDGE('',*,*,#1034,.F.);
#1034 = EDGE_CURVE('',#590,#410,#1035,.T.);
#1035 = LINE('',#1036,#1037);
#1036 = CARTESIAN_POINT('',(3.182091783888,25.103672359953,
    -9.797738921646));
#1037 = VECTOR('',#1038,1.);
#1038 = DIRECTION('',(-0.106705381967,4.096035561485E-02,-0.993446632048
    ));
#1039 = ORIENTED_EDGE('',*,*,#597,.T.);
#1040 = ORIENTED_EDGE('',*,*,#1018,.F.);
#1041 = CYLINDRICAL_SURFACE('',#1042,0.5);
#1042 = AXIS2_PLACEMENT_3D('',#1043,#1044,#1045);
#1043 = CARTESIAN_POINT('',(2.685512314095,25.077647750677,
    -9.745474690153));
#1044 = DIRECTION('',(-0.106705381967,4.096035561485E-02,-0.993446632048
    ));
#1045 = DIRECTION('',(0.994281059916,-3.590820214783E-08,-0.10679500874)
  );
#1046 = ADVANCED_FACE('',(#1047),#1063,.F.);
#1047 = FACE_BOUND('',#1048,.F.);
#1048 = EDGE_LOOP('',(#1049,#1055,#1056,#1062));
#1049 = ORIENTED_EDGE('',*,*,#1050,.F.);
#1050 = EDGE_CURVE('',#540,#57,#1051,.T.);
#1051 = LINE('',#1052,#1053);
#1052 = CARTESIAN_POINT('',(5.941581915713,24.717858217367,
    -9.599516248007));
#1053 = VECTOR('',#1054,1.);
#1054 = DIRECTION('',(0.106705386214,4.096034808066E-02,-0.993446631902)
  );
#1055 = ORIENTED_EDGE('',*,*,#547,.T.);
#1056 = ORIENTED_EDGE('',*,*,#1057,.F.);
#1057 = EDGE_CURVE('',#49,#548,#1058,.T.);
#1058 = LINE('',#1059,#1060);
#1059 = CARTESIAN_POINT('',(5.817910002238,25.103672266891,
    -9.797738919852));
#1060 = VECTOR('',#1061,1.);
#1061 = DIRECTION('',(-0.106705386214,-4.096034808066E-02,0.993446631902
    ));
#1062 = ORIENTED_EDGE('',*,*,#56,.F.);
#1063 = CYLINDRICAL_SURFACE('',#1064,0.5);
#1064 = AXIS2_PLACEMENT_3D('',#1065,#1066,#1067);
#1065 = CARTESIAN_POINT('',(6.29319851622,25.06947479347,-9.547252018769
    ));
#1066 = DIRECTION('',(0.106705386214,4.096034808066E-02,-0.993446631902)
  );
#1067 = DIRECTION('',(0.994281059771,-3.430693722162E-08,0.106795010095)
  );
#1068 = ADVANCED_FACE('',(#1069),#1083,.F.);
#1069 = FACE_BOUND('',#1070,.T.);
#1070 = EDGE_LOOP('',(#1071,#1072,#1078,#1079,#1080,#1081,#1082));
#1071 = ORIENTED_EDGE('',*,*,#897,.T.);
#1072 = ORIENTED_EDGE('',*,*,#1073,.F.);
#1073 = EDGE_CURVE('',#924,#889,#1074,.T.);
#1074 = LINE('',#1075,#1076);
#1075 = CARTESIAN_POINT('',(4.403657311705,27.61982763861,3.061654605172
    ));
#1076 = VECTOR('',#1077,1.);
#1077 = DIRECTION('',(0.109487806122,-0.10390004907,0.988542968269));
#1078 = ORIENTED_EDGE('',*,*,#944,.T.);
#1079 = ORIENTED_EDGE('',*,*,#1002,.F.);
#1080 = ORIENTED_EDGE('',*,*,#418,.F.);
#1081 = ORIENTED_EDGE('',*,*,#1034,.F.);
#1082 = ORIENTED_EDGE('',*,*,#589,.F.);
#1083 = PLANE('',#1084);
#1084 = AXIS2_PLACEMENT_3D('',#1085,#1086,#1087);
#1085 = CARTESIAN_POINT('',(2.989245011138,29.160959188394,
    -9.60974120355));
#1086 = DIRECTION('',(0.993158939584,5.204921854702E-02,-0.104528462981)
  );
#1087 = DIRECTION('',(0.104670341261,3.762092470883E-09,0.994506973158)
  );
#1088 = ADVANCED_FACE('',(#1089),#1094,.F.);
#1089 = FACE_BOUND('',#1090,.T.);
#1090 = EDGE_LOOP('',(#1091,#1092,#1093));
#1091 = ORIENTED_EDGE('',*,*,#1050,.F.);
#1092 = ORIENTED_EDGE('',*,*,#539,.T.);
#1093 = ORIENTED_EDGE('',*,*,#65,.F.);
#1094 = PLANE('',#1095);
#1095 = AXIS2_PLACEMENT_3D('',#1096,#1097,#1098);
#1096 = CARTESIAN_POINT('',(5.786130381282,24.874829593214,
    -9.609741169507));
#1097 = DIRECTION('',(-0.703233201013,-0.703233152207,-0.104528458474));
#1098 = DIRECTION('',(-0.707106756219,0.707106806154,-5.784498088857E-09
    ));
#1099 = ADVANCED_FACE('',(#1100),#1114,.F.);
#1100 = FACE_BOUND('',#1101,.T.);
#1101 = EDGE_LOOP('',(#1102,#1103,#1104,#1105,#1106,#1107,#1113));
#1102 = ORIENTED_EDGE('',*,*,#556,.T.);
#1103 = ORIENTED_EDGE('',*,*,#1057,.F.);
#1104 = ORIENTED_EDGE('',*,*,#48,.F.);
#1105 = ORIENTED_EDGE('',*,*,#847,.F.);
#1106 = ORIENTED_EDGE('',*,*,#965,.F.);
#1107 = ORIENTED_EDGE('',*,*,#1108,.F.);
#1108 = EDGE_CURVE('',#864,#966,#1109,.T.);
#1109 = LINE('',#1110,#1111);
#1110 = CARTESIAN_POINT('',(6.002299974658,28.954029234169,
    -9.632427081994));
#1111 = VECTOR('',#1112,1.);
#1112 = DIRECTION('',(0.109487814806,0.103900041338,-0.98854296812));
#1113 = ORIENTED_EDGE('',*,*,#863,.F.);
#1114 = PLANE('',#1115);
#1115 = AXIS2_PLACEMENT_3D('',#1116,#1117,#1118);
#1116 = CARTESIAN_POINT('',(6.01075706125,29.16095908171,-9.609741201495
    ));
#1117 = DIRECTION('',(-0.993158935766,5.204928868249E-02,-0.104528464334
    ));
#1118 = DIRECTION('',(0.104670342615,-1.115363490456E-08,-0.994506973016
    ));
#1119 = ADVANCED_FACE('',(#1120),#1136,.F.);
#1120 = FACE_BOUND('',#1121,.T.);
#1121 = EDGE_LOOP('',(#1122,#1123,#1129,#1130));
#1122 = ORIENTED_EDGE('',*,*,#880,.T.);
#1123 = ORIENTED_EDGE('',*,*,#1124,.F.);
#1124 = EDGE_CURVE('',#914,#872,#1125,.T.);
#1125 = LINE('',#1126,#1127);
#1126 = CARTESIAN_POINT('',(5.803668194513,29.163343471129,
    -9.632427083698));
#1127 = VECTOR('',#1128,1.);
#1128 = DIRECTION('',(-0.109487814806,-0.103900041338,0.98854296812));
#1129 = ORIENTED_EDGE('',*,*,#913,.T.);
#1130 = ORIENTED_EDGE('',*,*,#1131,.F.);
#1131 = EDGE_CURVE('',#881,#916,#1132,.T.);
#1132 = LINE('',#1133,#1134);
#1133 = CARTESIAN_POINT('',(3.196333878075,29.16334356319,
    -9.632427085472));
#1134 = VECTOR('',#1135,1.);
#1135 = DIRECTION('',(-0.109487806122,0.10390004907,-0.988542968269));
#1136 = PLANE('',#1137);
#1137 = AXIS2_PLACEMENT_3D('',#1138,#1139,#1140);
#1138 = CARTESIAN_POINT('',(6.01075706125,29.16095908171,-9.609741201495
    ));
#1139 = DIRECTION('',(-3.50446993645E-08,-0.994521896152,-0.10452845581)
  );
#1140 = DIRECTION('',(4.367843223E-09,0.10452845581,-0.994521896152));
#1141 = ADVANCED_FACE('',(#1142),#1148,.T.);
#1142 = FACE_BOUND('',#1143,.T.);
#1143 = EDGE_LOOP('',(#1144,#1145,#1146,#1147));
#1144 = ORIENTED_EDGE('',*,*,#1108,.T.);
#1145 = ORIENTED_EDGE('',*,*,#974,.F.);
#1146 = ORIENTED_EDGE('',*,*,#1124,.T.);
#1147 = ORIENTED_EDGE('',*,*,#871,.F.);
#1148 = CYLINDRICAL_SURFACE('',#1149,0.2);
#1149 = AXIS2_PLACEMENT_3D('',#1150,#1151,#1152);
#1150 = CARTESIAN_POINT('',(5.803668187503,28.9644390919,-9.65333277486)
  );
#1151 = DIRECTION('',(-0.109487814806,-0.103900041338,0.98854296812));
#1152 = DIRECTION('',(-0.993922330159,3.42696566541E-08,-0.110083611907)
  );
#1153 = ADVANCED_FACE('',(#1154),#1160,.T.);
#1154 = FACE_BOUND('',#1155,.T.);
#1155 = EDGE_LOOP('',(#1156,#1157,#1158,#1159));
#1156 = ORIENTED_EDGE('',*,*,#1131,.T.);
#1157 = ORIENTED_EDGE('',*,*,#923,.F.);
#1158 = ORIENTED_EDGE('',*,*,#1073,.T.);
#1159 = ORIENTED_EDGE('',*,*,#888,.F.);
#1160 = CYLINDRICAL_SURFACE('',#1161,0.2);
#1161 = AXIS2_PLACEMENT_3D('',#1162,#1163,#1164);
#1162 = CARTESIAN_POINT('',(3.232554488985,28.93006710079,
    -9.326304238765));
#1163 = DIRECTION('',(0.109487806122,-0.10390004907,0.988542968269));
#1164 = DIRECTION('',(-0.993922330309,3.592009405196E-08,0.110083610553)
  );
#1165 = ( GEOMETRIC_REPRESENTATION_CONTEXT(3) 
GLOBAL_UNCERTAINTY_ASSIGNED_CONTEXT((#1169)) 
GLOBAL_UNIT_ASSIGNED_CONTEXT((#1166,#1167,#1168)) REPRESENTATION_CONTEXT
('Context #1','3D Context with UNIT and UNCERTAINTY') );
#1166 = ( LENGTH_UNIT() NAMED_UNIT(*) SI_UNIT(.MILLI.,.METRE.) );
#1167 = ( NAMED_UNIT(*) PLANE_ANGLE_UNIT() SI_UNIT($,.RADIAN.) );
#1168 = ( NAMED_UNIT(*) SI_UNIT($,.STERADIAN.) SOLID_ANGLE_UNIT() );
#1169 = UNCERTAINTY_MEASURE_WITH_UNIT(LENGTH_MEASURE(2.E-06),#1166,
  'distance_accuracy_value','confusion accuracy');
#1170 = PRODUCT_RELATED_PRODUCT_CATEGORY('part',$,(#7));
#1171 = MECHANICAL_DESIGN_GEOMETRIC_PRESENTATION_REPRESENTATION('',(
    #1172),#1165);
#1172 = STYLED_ITEM('color',(#1173),#15);
#1173 = PRESENTATION_STYLE_ASSIGNMENT((#1174));
#1174 = SURFACE_STYLE_USAGE(.BOTH.,#1175);
#1175 = SURFACE_SIDE_STYLE('',(#1176));
#1176 = SURFACE_STYLE_FILL_AREA(#1177);
#1177 = FILL_AREA_STYLE('',(#1178));
#1178 = FILL_AREA_STYLE_COLOUR('',#1179);
#1179 = DRAUGHTING_PRE_DEFINED_COLOUR('green');
ENDSEC;
END-ISO-10303-21;
