ISO-10303-21;
HEADER;
FILE_DESCRIPTION(('Open CASCADE Model'),'2;1');
FILE_NAME('Open CASCADE Shape Model','2026-09-18T15:44:59',('Author'),(
    'Open CASCADE'),'Open CASCADE STEP processor 7.3','Open CASCADE 7.3'
  ,'Unknown');
FILE_SCHEMA(('AUTOMOTIVE_DESIGN { 1 0 10303 214 1 1 1 1 }'));
ENDSEC;
DATA;
#1 = APPLICATION_PROTOCOL_DEFINITION('international standard',
  'automotive_design',2000,#2);
#2 = APPLICATION_CONTEXT(
  'core data for automotive mechanical design processes');
#3 = SHAPE_DEFINITION_REPRESENTATION(#4,#10);
#4 = PRODUCT_DEFINITION_SHAPE('','',#5);
#5 = PRODUCT_DEFINITION('design','',#6,#9);
#6 = PRODUCT_DEFINITION_FORMATION('','',#7);
#7 = PRODUCT('Pottmanager 127','Pottmanager 127','',(#8));
#8 = PRODUCT_CONTEXT('',#2,'mechanical');
#9 = PRODUCT_DEFINITION_CONTEXT('part definition',#2,'design');
#10 = ADVANCED_BREP_SHAPE_REPRESENTATION('',(#11,#15),#161);
#11 = AXIS2_PLACEMENT_3D('',#12,#13,#14);
#12 = CARTESIAN_POINT('',(0.,0.,0.));
#13 = DIRECTION('',(0.,0.,1.));
#14 = DIRECTION('',(1.,0.,-0.));
#15 = MANIFOLD_SOLID_BREP('',#16);
#16 = CLOSED_SHELL('',(#17,#55,#85,#115,#137,#149));
#17 = ADVANCED_FACE('',(#18),#50,.F.);
#18 = FACE_BOUND('',#19,.T.);
#19 = EDGE_LOOP('',(#20,#30,#37,#45));
#20 = ORIENTED_EDGE('',*,*,#21,.T.);
#21 = EDGE_CURVE('',#22,#24,#26,.T.);
#22 = VERTEX_POINT('',#23);
#23 = CARTESIAN_POINT('',(-9.35,4.602981539343,4.874773736206E-02));
#24 = VERTEX_POINT('',#25);
#25 = CARTESIAN_POINT('',(-4.85,4.602981539343,4.874773736206E-02));
#26 = LINE('',#27,#28);
#27 = CARTESIAN_POINT('',(-9.35,4.602981539343,4.874773736206E-02));
#28 = VECTOR('',#29,1.);
#29 = DIRECTION('',(1.,-1.359631073447E-32,-1.224646799147E-16));
#30 = ORIENTED_EDGE('',*,*,#31,.T.);
#31 = EDGE_CURVE('',#24,#32,#34,.T.);
#32 = VERTEX_POINT('',#33);
#33 = CARTESIAN_POINT('',(-4.85,4.602981539343,6.048747737362));
#34 = B_SPLINE_CURVE_WITH_KNOTS('',1,(#35,#36),.UNSPECIFIED.,.F.,.F.,(2,
    2),(0.,1.),.PIECEWISE_BEZIER_KNOTS.);
#35 = CARTESIAN_POINT('',(-4.85,4.602981539343,4.874773736206E-02));
#36 = CARTESIAN_POINT('',(-4.85,4.602981539343,6.048747737362));
#37 = ORIENTED_EDGE('',*,*,#38,.F.);
#38 = EDGE_CURVE('',#39,#32,#41,.T.);
#39 = VERTEX_POINT('',#40);
#40 = CARTESIAN_POINT('',(-9.35,4.602981539343,6.048747737362));
#41 = LINE('',#42,#43);
#42 = CARTESIAN_POINT('',(-9.35,4.602981539343,6.048747737362));
#43 = VECTOR('',#44,1.);
#44 = DIRECTION('',(1.,-1.359631073447E-32,-1.224646799147E-16));
#45 = ORIENTED_EDGE('',*,*,#46,.F.);
#46 = EDGE_CURVE('',#22,#39,#47,.T.);
#47 = B_SPLINE_CURVE_WITH_KNOTS('',1,(#48,#49),.UNSPECIFIED.,.F.,.F.,(2,
    2),(0.,1.),.PIECEWISE_BEZIER_KNOTS.);
#48 = CARTESIAN_POINT('',(-9.35,4.602981539343,4.874773736206E-02));
#49 = CARTESIAN_POINT('',(-9.35,4.602981539343,6.048747737362));
#50 = PLANE('',#51);
#51 = AXIS2_PLACEMENT_3D('',#52,#53,#54);
#52 = CARTESIAN_POINT('',(-9.35,4.602981539343,6.048747737362));
#53 = DIRECTION('',(0.,1.,-1.110223024625E-16));
#54 = DIRECTION('',(-1.,1.359631073447E-32,1.224646799147E-16));
#55 = ADVANCED_FACE('',(#56),#80,.F.);
#56 = FACE_BOUND('',#57,.T.);
#57 = EDGE_LOOP('',(#58,#66,#73,#79));
#58 = ORIENTED_EDGE('',*,*,#59,.T.);
#59 = EDGE_CURVE('',#24,#60,#62,.T.);
#60 = VERTEX_POINT('',#61);
#61 = CARTESIAN_POINT('',(-4.85,14.602981539343,4.874773736205E-02));
#62 = LINE('',#63,#64);
#63 = CARTESIAN_POINT('',(-4.85,4.602981539343,4.874773736206E-02));
#64 = VECTOR('',#65,1.);
#65 = DIRECTION('',(0.,1.,-1.110223024625E-16));
#66 = ORIENTED_EDGE('',*,*,#67,.T.);
#67 = EDGE_CURVE('',#60,#68,#70,.T.);
#68 = VERTEX_POINT('',#69);
#69 = CARTESIAN_POINT('',(-4.85,14.602981539343,6.048747737362));
#70 = B_SPLINE_CURVE_WITH_KNOTS('',1,(#71,#72),.UNSPECIFIED.,.F.,.F.,(2,
    2),(0.,1.),.PIECEWISE_BEZIER_KNOTS.);
#71 = CARTESIAN_POINT('',(-4.85,14.602981539343,4.874773736205E-02));
#72 = CARTESIAN_POINT('',(-4.85,14.602981539343,6.048747737362));
#73 = ORIENTED_EDGE('',*,*,#74,.F.);
#74 = EDGE_CURVE('',#32,#68,#75,.T.);
#75 = LINE('',#76,#77);
#76 = CARTESIAN_POINT('',(-4.85,4.602981539343,6.048747737362));
#77 = VECTOR('',#78,1.);
#78 = DIRECTION('',(0.,1.,-1.110223024625E-16));
#79 = ORIENTED_EDGE('',*,*,#31,.F.);
#80 = PLANE('',#81);
#81 = AXIS2_PLACEMENT_3D('',#82,#83,#84);
#82 = CARTESIAN_POINT('',(-4.85,4.602981539343,6.048747737362));
#83 = DIRECTION('',(-1.,1.359631073447E-32,1.224646799147E-16));
#84 = DIRECTION('',(0.,-1.,1.110223024625E-16));
#85 = ADVANCED_FACE('',(#86),#110,.F.);
#86 = FACE_BOUND('',#87,.T.);
#87 = EDGE_LOOP('',(#88,#96,#103,#109));
#88 = ORIENTED_EDGE('',*,*,#89,.T.);
#89 = EDGE_CURVE('',#60,#90,#92,.T.);
#90 = VERTEX_POINT('',#91);
#91 = CARTESIAN_POINT('',(-9.35,14.602981539343,4.874773736206E-02));
#92 = LINE('',#93,#94);
#93 = CARTESIAN_POINT('',(-4.85,14.602981539343,4.874773736205E-02));
#94 = VECTOR('',#95,1.);
#95 = DIRECTION('',(-1.,1.359631073447E-32,1.224646799147E-16));
#96 = ORIENTED_EDGE('',*,*,#97,.T.);
#97 = EDGE_CURVE('',#90,#98,#100,.T.);
#98 = VERTEX_POINT('',#99);
#99 = CARTESIAN_POINT('',(-9.35,14.602981539343,6.048747737362));
#100 = B_SPLINE_CURVE_WITH_KNOTS('',1,(#101,#102),.UNSPECIFIED.,.F.,.F.,
  (2,2),(0.,1.),.PIECEWISE_BEZIER_KNOTS.);
#101 = CARTESIAN_POINT('',(-9.35,14.602981539343,4.874773736206E-02));
#102 = CARTESIAN_POINT('',(-9.35,14.602981539343,6.048747737362));
#103 = ORIENTED_EDGE('',*,*,#104,.F.);
#104 = EDGE_CURVE('',#68,#98,#105,.T.);
#105 = LINE('',#106,#107);
#106 = CARTESIAN_POINT('',(-4.85,14.602981539343,6.048747737362));
#107 = VECTOR('',#108,1.);
#108 = DIRECTION('',(-1.,1.359631073447E-32,1.224646799147E-16));
#109 = ORIENTED_EDGE('',*,*,#67,.F.);
#110 = PLANE('',#111);
#111 = AXIS2_PLACEMENT_3D('',#112,#113,#114);
#112 = CARTESIAN_POINT('',(-4.85,14.602981539343,6.048747737362));
#113 = DIRECTION('',(0.,-1.,1.110223024625E-16));
#114 = DIRECTION('',(1.,-1.359631073447E-32,-1.224646799147E-16));
#115 = ADVANCED_FACE('',(#116),#132,.F.);
#116 = FACE_BOUND('',#117,.T.);
#117 = EDGE_LOOP('',(#118,#124,#125,#131));
#118 = ORIENTED_EDGE('',*,*,#119,.T.);
#119 = EDGE_CURVE('',#90,#22,#120,.T.);
#120 = LINE('',#121,#122);
#121 = CARTESIAN_POINT('',(-9.35,14.602981539343,4.874773736206E-02));
#122 = VECTOR('',#123,1.);
#123 = DIRECTION('',(0.,-1.,1.110223024625E-16));
#124 = ORIENTED_EDGE('',*,*,#46,.T.);
#125 = ORIENTED_EDGE('',*,*,#126,.F.);
#126 = EDGE_CURVE('',#98,#39,#127,.T.);
#127 = LINE('',#128,#129);
#128 = CARTESIAN_POINT('',(-9.35,14.602981539343,6.048747737362));
#129 = VECTOR('',#130,1.);
#130 = DIRECTION('',(0.,-1.,1.110223024625E-16));
#131 = ORIENTED_EDGE('',*,*,#97,.F.);
#132 = PLANE('',#133);
#133 = AXIS2_PLACEMENT_3D('',#134,#135,#136);
#134 = CARTESIAN_POINT('',(-9.35,14.602981539343,6.048747737362));
#135 = DIRECTION('',(1.,-1.359631073447E-32,-1.224646799147E-16));
#136 = DIRECTION('',(-0.,1.,-1.110223024625E-16));
#137 = ADVANCED_FACE('',(#138),#144,.F.);
#138 = FACE_BOUND('',#139,.F.);
#139 = EDGE_LOOP('',(#140,#141,#142,#143));
#140 = ORIENTED_EDGE('',*,*,#21,.T.);
#141 = ORIENTED_EDGE('',*,*,#59,.T.);
#142 = ORIENTED_EDGE('',*,*,#89,.T.);
#143 = ORIENTED_EDGE('',*,*,#119,.T.);
#144 = PLANE('',#145);
#145 = AXIS2_PLACEMENT_3D('',#146,#147,#148);
#146 = CARTESIAN_POINT('',(-9.35,4.602981539343,4.874773736206E-02));
#147 = DIRECTION('',(1.224646799147E-16,1.110223024625E-16,1.));
#148 = DIRECTION('',(-0.410364677329,-0.911921505175,1.51498804027E-16)
  );
#149 = ADVANCED_FACE('',(#150),#156,.T.);
#150 = FACE_BOUND('',#151,.T.);
#151 = EDGE_LOOP('',(#152,#153,#154,#155));
#152 = ORIENTED_EDGE('',*,*,#38,.T.);
#153 = ORIENTED_EDGE('',*,*,#74,.T.);
#154 = ORIENTED_EDGE('',*,*,#104,.T.);
#155 = ORIENTED_EDGE('',*,*,#126,.T.);
#156 = PLANE('',#157);
#157 = AXIS2_PLACEMENT_3D('',#158,#159,#160);
#158 = CARTESIAN_POINT('',(-9.35,4.602981539343,6.048747737362));
#159 = DIRECTION('',(1.224646799147E-16,1.110223024625E-16,1.));
#160 = DIRECTION('',(-0.410364677329,-0.911921505175,1.51498804027E-16)
  );
#161 = ( GEOMETRIC_REPRESENTATION_CONTEXT(3) 
GLOBAL_UNCERTAINTY_ASSIGNED_CONTEXT((#165)) GLOBAL_UNIT_ASSIGNED_CONTEXT
((#162,#163,#164)) REPRESENTATION_CONTEXT('Context #1',
  '3D Context with UNIT and UNCERTAINTY') );
#162 = ( LENGTH_UNIT() NAMED_UNIT(*) SI_UNIT(.MILLI.,.METRE.) );
#163 = ( NAMED_UNIT(*) PLANE_ANGLE_UNIT() SI_UNIT($,.RADIAN.) );
#164 = ( NAMED_UNIT(*) SI_UNIT($,.STERADIAN.) SOLID_ANGLE_UNIT() );
#165 = UNCERTAINTY_MEASURE_WITH_UNIT(LENGTH_MEASURE(1.E-07),#162,
  'distance_accuracy_value','confusion accuracy');
#166 = PRODUCT_RELATED_PRODUCT_CATEGORY('part',$,(#7));
#167 = MECHANICAL_DESIGN_GEOMETRIC_PRESENTATION_REPRESENTATION('',(#168)
  ,#161);
#168 = STYLED_ITEM('color',(#169),#15);
#169 = PRESENTATION_STYLE_ASSIGNMENT((#170));
#170 = SURFACE_STYLE_USAGE(.BOTH.,#171);
#171 = SURFACE_SIDE_STYLE('',(#172));
#172 = SURFACE_STYLE_FILL_AREA(#173);
#173 = FILL_AREA_STYLE('',(#174));
#174 = FILL_AREA_STYLE_COLOUR('',#175);
#175 = COLOUR_RGB('',0.588235318661,0.588235318661,0.588235318661);
ENDSEC;
END-ISO-10303-21;
