ISO-10303-21;
HEADER;
FILE_DESCRIPTION(('Open CASCADE Model'),'2;1');
FILE_NAME('Open CASCADE Shape Model','2026-09-18T15:45:14',('Author'),(
    'Open CASCADE'),'Open CASCADE STEP processor 7.3','Open CASCADE 7.3'
  ,'Unknown');
FILE_SCHEMA(('AUTOMOTIVE_DESIGN { 1 0 10303 214 1 1 1 1 }'));
ENDSEC;
DATA;
#1 = APPLICATION_PROTOCOL_DEFINITION('international standard',
  'automotive_design',2000,#2);
#2 = APPLICATION_CONTEXT(
  'core data for automotive mechanical design processes');
#3 = SHAPE_DEFINITION_REPRESENTATION(#4,#10);
#4 = PRODUCT_DEFINITION_SHAPE('','',#5);
#5 = PRODUCT_DEFINITION('design','',#6,#9);
#6 = PRODUCT_DEFINITION_FORMATION('','',#7);
#7 = PRODUCT('Pottmanager 174','Pottmanager 174','',(#8));
#8 = PRODUCT_CONTEXT('',#2,'mechanical');
#9 = PRODUCT_DEFINITION_CONTEXT('part definition',#2,'design');
#10 = GEOMETRICALLY_BOUNDED_WIREFRAME_SHAPE_REPRESENTATION('',(#11,#15),
  #114);
#11 = AXIS2_PLACEMENT_3D('',#12,#13,#14);
#12 = CARTESIAN_POINT('',(0.,0.,0.));
#13 = DIRECTION('',(0.,0.,1.));
#14 = DIRECTION('',(1.,0.,-0.));
#15 = GEOMETRIC_CURVE_SET('',(#16,#23,#30,#37,#44,#51,#58,#65,#72,#79,
    #86,#93,#100,#107));
#16 = TRIMMED_CURVE('',#17,(#21,PARAMETER_VALUE(0.)),(#22,
    PARAMETER_VALUE(0.5)),.T.,.PARAMETER.);
#17 = LINE('',#18,#19);
#18 = CARTESIAN_POINT('',(-11.14239832695,0.,-0.10395441374));
#19 = VECTOR('',#20,1.);
#20 = DIRECTION('',(1.,0.,0.));
#21 = CARTESIAN_POINT('',(-11.14239832695,0.,-0.10395441374));
#22 = CARTESIAN_POINT('',(-10.64239832695,0.,-0.10395441374));
#23 = TRIMMED_CURVE('',#24,(#28,PARAMETER_VALUE(0.)),(#29,
    PARAMETER_VALUE(99.)),.T.,.PARAMETER.);
#24 = LINE('',#25,#26);
#25 = CARTESIAN_POINT('',(-10.64239832695,0.,-0.10395441374));
#26 = VECTOR('',#27,1.);
#27 = DIRECTION('',(0.,1.,-1.110223024625E-16));
#28 = CARTESIAN_POINT('',(-10.64239832695,0.,-0.10395441374));
#29 = CARTESIAN_POINT('',(-10.64239832695,99.,-0.10395441374));
#30 = TRIMMED_CURVE('',#31,(#35,PARAMETER_VALUE(0.)),(#36,
    PARAMETER_VALUE(49.5)),.T.,.PARAMETER.);
#31 = LINE('',#32,#33);
#32 = CARTESIAN_POINT('',(-10.64239832695,99.,-0.10395441374));
#33 = VECTOR('',#34,1.);
#34 = DIRECTION('',(1.,0.,0.));
#35 = CARTESIAN_POINT('',(-10.64239832695,99.,-0.10395441374));
#36 = CARTESIAN_POINT('',(38.857601673043,99.,-0.10395441374));
#37 = TRIMMED_CURVE('',#38,(#42,PARAMETER_VALUE(0.)),(#43,
    PARAMETER_VALUE(4.65)),.T.,.PARAMETER.);
#38 = LINE('',#39,#40);
#39 = CARTESIAN_POINT('',(38.857601673043,99.,-0.10395441374));
#40 = VECTOR('',#41,1.);
#41 = DIRECTION('',(0.,1.,-1.110223024625E-16));
#42 = CARTESIAN_POINT('',(38.857601673043,99.,-0.10395441374));
#43 = CARTESIAN_POINT('',(38.857601673043,103.65,-0.10395441374));
#44 = TRIMMED_CURVE('',#45,(#49,PARAMETER_VALUE(0.)),(#50,
    PARAMETER_VALUE(2.915475947423)),.T.,.PARAMETER.);
#45 = LINE('',#46,#47);
#46 = CARTESIAN_POINT('',(38.857601673043,103.65,-0.10395441374));
#47 = VECTOR('',#48,1.);
#48 = DIRECTION('',(-0.857492925713,0.514495755428,-5.712050337476E-17)
  );
#49 = CARTESIAN_POINT('',(38.857601673043,103.65,-0.10395441374));
#50 = CARTESIAN_POINT('',(36.357601673043,105.15,-0.10395441374));
#51 = TRIMMED_CURVE('',#52,(#56,PARAMETER_VALUE(0.)),(#57,
    PARAMETER_VALUE(1.5)),.T.,.PARAMETER.);
#52 = LINE('',#53,#54);
#53 = CARTESIAN_POINT('',(36.357601673043,105.15,-0.10395441374));
#54 = VECTOR('',#55,1.);
#55 = DIRECTION('',(-1.,0.,0.));
#56 = CARTESIAN_POINT('',(36.357601673043,105.15,-0.10395441374));
#57 = CARTESIAN_POINT('',(34.857601673043,105.15,-0.10395441374));
#58 = TRIMMED_CURVE('',#59,(#63,PARAMETER_VALUE(0.)),(#64,
    PARAMETER_VALUE(3.75)),.T.,.PARAMETER.);
#59 = LINE('',#60,#61);
#60 = CARTESIAN_POINT('',(34.857601673043,105.15,-0.10395441374));
#61 = VECTOR('',#62,1.);
#62 = DIRECTION('',(0.,1.,-1.110223024625E-16));
#63 = CARTESIAN_POINT('',(34.857601673043,105.15,-0.10395441374));
#64 = CARTESIAN_POINT('',(34.857601673043,108.9,-0.10395441374));
#65 = TRIMMED_CURVE('',#66,(#70,PARAMETER_VALUE(0.)),(#71,
    PARAMETER_VALUE(1.5)),.T.,.PARAMETER.);
#66 = LINE('',#67,#68);
#67 = CARTESIAN_POINT('',(34.857601673043,108.9,-0.10395441374));
#68 = VECTOR('',#69,1.);
#69 = DIRECTION('',(1.,0.,0.));
#70 = CARTESIAN_POINT('',(34.857601673043,108.9,-0.10395441374));
#71 = CARTESIAN_POINT('',(36.357601673043,108.9,-0.10395441374));
#72 = TRIMMED_CURVE('',#73,(#77,PARAMETER_VALUE(0.)),(#78,
    PARAMETER_VALUE(2.915475947423)),.T.,.PARAMETER.);
#73 = LINE('',#74,#75);
#74 = CARTESIAN_POINT('',(36.357601673043,108.9,-0.10395441374));
#75 = VECTOR('',#76,1.);
#76 = DIRECTION('',(0.857492925713,0.514495755428,-5.712050337476E-17));
#77 = CARTESIAN_POINT('',(36.357601673043,108.9,-0.10395441374));
#78 = CARTESIAN_POINT('',(38.857601673043,110.4,-0.10395441374));
#79 = TRIMMED_CURVE('',#80,(#84,PARAMETER_VALUE(0.)),(#85,
    PARAMETER_VALUE(14.6)),.T.,.PARAMETER.);
#80 = LINE('',#81,#82);
#81 = CARTESIAN_POINT('',(38.857601673043,110.4,-0.10395441374));
#82 = VECTOR('',#83,1.);
#83 = DIRECTION('',(0.,1.,-1.110223024625E-16));
#84 = CARTESIAN_POINT('',(38.857601673043,110.4,-0.10395441374));
#85 = CARTESIAN_POINT('',(38.857601673043,125.,-0.10395441374));
#86 = TRIMMED_CURVE('',#87,(#91,PARAMETER_VALUE(0.)),(#92,
    PARAMETER_VALUE(5.)),.T.,.PARAMETER.);
#87 = LINE('',#88,#89);
#88 = CARTESIAN_POINT('',(38.857601673043,125.,-0.10395441374));
#89 = VECTOR('',#90,1.);
#90 = DIRECTION('',(-1.,0.,0.));
#91 = CARTESIAN_POINT('',(38.857601673043,125.,-0.10395441374));
#92 = CARTESIAN_POINT('',(33.857601673043,125.,-0.10395441374));
#93 = TRIMMED_CURVE('',#94,(#98,PARAMETER_VALUE(0.)),(#99,
    PARAMETER_VALUE(3.162277660168)),.T.,.PARAMETER.);
#94 = LINE('',#95,#96);
#95 = CARTESIAN_POINT('',(33.857601673043,125.,-0.10395441374));
#96 = VECTOR('',#97,1.);
#97 = DIRECTION('',(-0.316227766017,0.948683298051,-1.053250040573E-16)
  );
#98 = CARTESIAN_POINT('',(33.857601673043,125.,-0.10395441374));
#99 = CARTESIAN_POINT('',(32.857601673043,128.,-0.10395441374));
#100 = TRIMMED_CURVE('',#101,(#105,PARAMETER_VALUE(0.)),(#106,
    PARAMETER_VALUE(44.)),.T.,.PARAMETER.);
#101 = LINE('',#102,#103);
#102 = CARTESIAN_POINT('',(32.857601673043,128.,-0.10395441374));
#103 = VECTOR('',#104,1.);
#104 = DIRECTION('',(-1.,0.,0.));
#105 = CARTESIAN_POINT('',(32.857601673043,128.,-0.10395441374));
#106 = CARTESIAN_POINT('',(-11.14239832695,128.,-0.10395441374));
#107 = TRIMMED_CURVE('',#108,(#112,PARAMETER_VALUE(0.)),(#113,
    PARAMETER_VALUE(128.)),.T.,.PARAMETER.);
#108 = LINE('',#109,#110);
#109 = CARTESIAN_POINT('',(-11.14239832695,128.,-0.10395441374));
#110 = VECTOR('',#111,1.);
#111 = DIRECTION('',(0.,-1.,1.110223024625E-16));
#112 = CARTESIAN_POINT('',(-11.14239832695,128.,-0.10395441374));
#113 = CARTESIAN_POINT('',(-11.14239832695,0.,-0.10395441374));
#114 = ( GEOMETRIC_REPRESENTATION_CONTEXT(3) 
GLOBAL_UNCERTAINTY_ASSIGNED_CONTEXT((#118)) GLOBAL_UNIT_ASSIGNED_CONTEXT
((#115,#116,#117)) REPRESENTATION_CONTEXT('Context #1',
  '3D Context with UNIT and UNCERTAINTY') );
#115 = ( LENGTH_UNIT() NAMED_UNIT(*) SI_UNIT(.MILLI.,.METRE.) );
#116 = ( NAMED_UNIT(*) PLANE_ANGLE_UNIT() SI_UNIT($,.RADIAN.) );
#117 = ( NAMED_UNIT(*) SI_UNIT($,.STERADIAN.) SOLID_ANGLE_UNIT() );
#118 = UNCERTAINTY_MEASURE_WITH_UNIT(LENGTH_MEASURE(20.),#115,
  'distance_accuracy_value','confusion accuracy');
#119 = PRODUCT_RELATED_PRODUCT_CATEGORY('part',$,(#7));
#120 = MECHANICAL_DESIGN_GEOMETRIC_PRESENTATION_REPRESENTATION('',(#121)
  ,#114);
#121 = STYLED_ITEM('color',(#122),#15);
#122 = PRESENTATION_STYLE_ASSIGNMENT((#123));
#123 = SURFACE_STYLE_USAGE(.BOTH.,#124);
#124 = SURFACE_SIDE_STYLE('',(#125));
#125 = SURFACE_STYLE_FILL_AREA(#126);
#126 = FILL_AREA_STYLE('',(#127));
#127 = FILL_AREA_STYLE_COLOUR('',#128);
#128 = COLOUR_RGB('',0.588235318661,0.588235318661,0.588235318661);
ENDSEC;
END-ISO-10303-21;
