ISO-10303-21;
HEADER;
FILE_DESCRIPTION(('Open CASCADE Model'),'2;1');
FILE_NAME('Open CASCADE Shape Model','2026-09-18T15:55:25',('Author'),(
    'Open CASCADE'),'Open CASCADE STEP processor 7.3','Open CASCADE 7.3'
  ,'Unknown');
FILE_SCHEMA(('AUTOMOTIVE_DESIGN { 1 0 10303 214 1 1 1 1 }'));
ENDSEC;
DATA;
#1 = APPLICATION_PROTOCOL_DEFINITION('international standard',
  'automotive_design',2000,#2);
#2 = APPLICATION_CONTEXT(
  'core data for automotive mechanical design processes');
#3 = SHAPE_DEFINITION_REPRESENTATION(#4,#10);
#4 = PRODUCT_DEFINITION_SHAPE('','',#5);
#5 = PRODUCT_DEFINITION('design','',#6,#9);
#6 = PRODUCT_DEFINITION_FORMATION('','',#7);
#7 = PRODUCT('Pottmanager 175','Pottmanager 175','',(#8));
#8 = PRODUCT_CONTEXT('',#2,'mechanical');
#9 = PRODUCT_DEFINITION_CONTEXT('part definition',#2,'design');
#10 = ADVANCED_BREP_SHAPE_REPRESENTATION('',(#11,#15),#141);
#11 = AXIS2_PLACEMENT_3D('',#12,#13,#14);
#12 = CARTESIAN_POINT('',(0.,0.,0.));
#13 = DIRECTION('',(0.,0.,1.));
#14 = DIRECTION('',(1.,0.,-0.));
#15 = MANIFOLD_SOLID_BREP('',#16);
#16 = CLOSED_SHELL('',(#17,#57,#79,#105,#120,#132));
#17 = ADVANCED_FACE('',(#18),#52,.F.);
#18 = FACE_BOUND('',#19,.F.);
#19 = EDGE_LOOP('',(#20,#30,#38,#46));
#20 = ORIENTED_EDGE('',*,*,#21,.T.);
#21 = EDGE_CURVE('',#22,#24,#26,.T.);
#22 = VERTEX_POINT('',#23);
#23 = CARTESIAN_POINT('',(-11.14239832695,0.1,0.89604558626));
#24 = VERTEX_POINT('',#25);
#25 = CARTESIAN_POINT('',(-11.14239832695,1.,0.89604558626));
#26 = LINE('',#27,#28);
#27 = CARTESIAN_POINT('',(-11.14239832695,0.1,0.89604558626));
#28 = VECTOR('',#29,1.);
#29 = DIRECTION('',(2.22044604925E-16,1.,-3.445092848398E-16));
#30 = ORIENTED_EDGE('',*,*,#31,.F.);
#31 = EDGE_CURVE('',#32,#24,#34,.T.);
#32 = VERTEX_POINT('',#33);
#33 = CARTESIAN_POINT('',(-11.14239832695,1.,0.156329111536));
#34 = LINE('',#35,#36);
#35 = CARTESIAN_POINT('',(-11.14239832695,1.,-0.10395441374));
#36 = VECTOR('',#37,1.);
#37 = DIRECTION('',(2.592226237855E-32,3.445092848398E-16,1.));
#38 = ORIENTED_EDGE('',*,*,#39,.F.);
#39 = EDGE_CURVE('',#40,#32,#42,.T.);
#40 = VERTEX_POINT('',#41);
#41 = CARTESIAN_POINT('',(-11.14239832695,0.1,0.156329111536));
#42 = LINE('',#43,#44);
#43 = CARTESIAN_POINT('',(-11.14239832695,5.E-02,0.156329111536));
#44 = VECTOR('',#45,1.);
#45 = DIRECTION('',(2.22044604925E-16,1.,-3.445092848398E-16));
#46 = ORIENTED_EDGE('',*,*,#47,.T.);
#47 = EDGE_CURVE('',#40,#22,#48,.T.);
#48 = LINE('',#49,#50);
#49 = CARTESIAN_POINT('',(-11.14239832695,0.1,-0.10395441374));
#50 = VECTOR('',#51,1.);
#51 = DIRECTION('',(2.592226237855E-32,3.445092848398E-16,1.));
#52 = PLANE('',#53);
#53 = AXIS2_PLACEMENT_3D('',#54,#55,#56);
#54 = CARTESIAN_POINT('',(-11.14239832695,0.1,0.89604558626));
#55 = DIRECTION('',(-1.,2.22044604925E-16,-5.05741656667E-32));
#56 = DIRECTION('',(-2.592226237855E-32,-3.445092848398E-16,-1.));
#57 = ADVANCED_FACE('',(#58),#74,.F.);
#58 = FACE_BOUND('',#59,.F.);
#59 = EDGE_LOOP('',(#60,#68));
#60 = ORIENTED_EDGE('',*,*,#61,.F.);
#61 = EDGE_CURVE('',#62,#32,#64,.T.);
#62 = VERTEX_POINT('',#63);
#63 = CARTESIAN_POINT('',(-11.14239832695,1.,-0.10395441374));
#64 = LINE('',#65,#66);
#65 = CARTESIAN_POINT('',(-11.14239832695,1.,-0.10395441374));
#66 = VECTOR('',#67,1.);
#67 = DIRECTION('',(2.592226237855E-32,3.445092848398E-16,1.));
#68 = ORIENTED_EDGE('',*,*,#69,.F.);
#69 = EDGE_CURVE('',#32,#62,#70,.T.);
#70 = LINE('',#71,#72);
#71 = CARTESIAN_POINT('',(-11.14239832695,1.,0.89604558626));
#72 = VECTOR('',#73,1.);
#73 = DIRECTION('',(-2.592226237855E-32,-3.445092848398E-16,-1.));
#74 = PLANE('',#75);
#75 = AXIS2_PLACEMENT_3D('',#76,#77,#78);
#76 = CARTESIAN_POINT('',(-11.14239832695,1.,0.39604558626));
#77 = DIRECTION('',(-2.22044604925E-16,-1.,3.445092848398E-16));
#78 = DIRECTION('',(2.592226237855E-32,3.445092848398E-16,1.));
#79 = ADVANCED_FACE('',(#80),#100,.F.);
#80 = FACE_BOUND('',#81,.F.);
#81 = EDGE_LOOP('',(#82,#90,#91,#92,#93,#94));
#82 = ORIENTED_EDGE('',*,*,#83,.T.);
#83 = EDGE_CURVE('',#84,#62,#86,.T.);
#84 = VERTEX_POINT('',#85);
#85 = CARTESIAN_POINT('',(-11.14239832695,0.1,-0.10395441374));
#86 = LINE('',#87,#88);
#87 = CARTESIAN_POINT('',(-11.14239832695,0.1,-0.10395441374));
#88 = VECTOR('',#89,1.);
#89 = DIRECTION('',(2.22044604925E-16,1.,-3.445092848398E-16));
#90 = ORIENTED_EDGE('',*,*,#61,.T.);
#91 = ORIENTED_EDGE('',*,*,#31,.T.);
#92 = ORIENTED_EDGE('',*,*,#21,.F.);
#93 = ORIENTED_EDGE('',*,*,#47,.F.);
#94 = ORIENTED_EDGE('',*,*,#95,.F.);
#95 = EDGE_CURVE('',#84,#40,#96,.T.);
#96 = LINE('',#97,#98);
#97 = CARTESIAN_POINT('',(-11.14239832695,0.1,-0.10395441374));
#98 = VECTOR('',#99,1.);
#99 = DIRECTION('',(2.592226237855E-32,3.445092848398E-16,1.));
#100 = PLANE('',#101);
#101 = AXIS2_PLACEMENT_3D('',#102,#103,#104);
#102 = CARTESIAN_POINT('',(-11.14239832695,0.1,-0.10395441374));
#103 = DIRECTION('',(1.,-2.22044604925E-16,5.05741656667E-32));
#104 = DIRECTION('',(2.592226237855E-32,3.445092848398E-16,1.));
#105 = ADVANCED_FACE('',(#106),#115,.T.);
#106 = FACE_BOUND('',#107,.T.);
#107 = EDGE_LOOP('',(#108,#109));
#108 = ORIENTED_EDGE('',*,*,#95,.F.);
#109 = ORIENTED_EDGE('',*,*,#110,.F.);
#110 = EDGE_CURVE('',#40,#84,#111,.T.);
#111 = LINE('',#112,#113);
#112 = CARTESIAN_POINT('',(-11.14239832695,0.1,0.89604558626));
#113 = VECTOR('',#114,1.);
#114 = DIRECTION('',(-2.592226237855E-32,-3.445092848398E-16,-1.));
#115 = PLANE('',#116);
#116 = AXIS2_PLACEMENT_3D('',#117,#118,#119);
#117 = CARTESIAN_POINT('',(-11.14239832695,0.1,0.39604558626));
#118 = DIRECTION('',(-2.22044604925E-16,-1.,3.445092848398E-16));
#119 = DIRECTION('',(2.592226237855E-32,3.445092848398E-16,1.));
#120 = ADVANCED_FACE('',(#121),#127,.F.);
#121 = FACE_BOUND('',#122,.F.);
#122 = EDGE_LOOP('',(#123,#124,#125,#126));
#123 = ORIENTED_EDGE('',*,*,#69,.T.);
#124 = ORIENTED_EDGE('',*,*,#83,.F.);
#125 = ORIENTED_EDGE('',*,*,#110,.F.);
#126 = ORIENTED_EDGE('',*,*,#39,.T.);
#127 = PLANE('',#128);
#128 = AXIS2_PLACEMENT_3D('',#129,#130,#131);
#129 = CARTESIAN_POINT('',(-11.14239832695,0.1,0.89604558626));
#130 = DIRECTION('',(-1.,2.22044604925E-16,-5.05741656667E-32));
#131 = DIRECTION('',(-2.592226237855E-32,-3.445092848398E-16,-1.));
#132 = ADVANCED_FACE('',(#133),#136,.T.);
#133 = FACE_BOUND('',#134,.T.);
#134 = EDGE_LOOP('',(#135));
#135 = ORIENTED_EDGE('',*,*,#39,.T.);
#136 = PLANE('',#137);
#137 = AXIS2_PLACEMENT_3D('',#138,#139,#140);
#138 = CARTESIAN_POINT('',(-11.64239832695,2.110978059022E-15,
    -0.10395441374));
#139 = DIRECTION('',(-0.461748613235,4.081122561838E-16,0.887010833178)
  );
#140 = DIRECTION('',(2.22044604925E-16,1.,-3.445092848398E-16));
#141 = ( GEOMETRIC_REPRESENTATION_CONTEXT(3) 
GLOBAL_UNCERTAINTY_ASSIGNED_CONTEXT((#145)) GLOBAL_UNIT_ASSIGNED_CONTEXT
((#142,#143,#144)) REPRESENTATION_CONTEXT('Context #1',
  '3D Context with UNIT and UNCERTAINTY') );
#142 = ( LENGTH_UNIT() NAMED_UNIT(*) SI_UNIT(.MILLI.,.METRE.) );
#143 = ( NAMED_UNIT(*) PLANE_ANGLE_UNIT() SI_UNIT($,.RADIAN.) );
#144 = ( NAMED_UNIT(*) SI_UNIT($,.STERADIAN.) SOLID_ANGLE_UNIT() );
#145 = UNCERTAINTY_MEASURE_WITH_UNIT(LENGTH_MEASURE(5.E-07),#142,
  'distance_accuracy_value','confusion accuracy');
#146 = PRODUCT_RELATED_PRODUCT_CATEGORY('part',$,(#7));
#147 = MECHANICAL_DESIGN_GEOMETRIC_PRESENTATION_REPRESENTATION('',(#148)
  ,#141);
#148 = STYLED_ITEM('color',(#149),#15);
#149 = PRESENTATION_STYLE_ASSIGNMENT((#150));
#150 = SURFACE_STYLE_USAGE(.BOTH.,#151);
#151 = SURFACE_SIDE_STYLE('',(#152));
#152 = SURFACE_STYLE_FILL_AREA(#153);
#153 = FILL_AREA_STYLE('',(#154));
#154 = FILL_AREA_STYLE_COLOUR('',#155);
#155 = COLOUR_RGB('',0.784313738346,0.784313738346,0.784313738346);
ENDSEC;
END-ISO-10303-21;
