ISO-10303-21;
HEADER;
FILE_DESCRIPTION(('Open CASCADE Model'),'2;1');
FILE_NAME('Open CASCADE Shape Model','2026-09-18T15:55:22',('Author'),(
    'Open CASCADE'),'Open CASCADE STEP processor 7.3','Open CASCADE 7.3'
  ,'Unknown');
FILE_SCHEMA(('AUTOMOTIVE_DESIGN { 1 0 10303 214 1 1 1 1 }'));
ENDSEC;
DATA;
#1 = APPLICATION_PROTOCOL_DEFINITION('international standard',
  'automotive_design',2000,#2);
#2 = APPLICATION_CONTEXT(
  'core data for automotive mechanical design processes');
#3 = SHAPE_DEFINITION_REPRESENTATION(#4,#10);
#4 = PRODUCT_DEFINITION_SHAPE('','',#5);
#5 = PRODUCT_DEFINITION('design','',#6,#9);
#6 = PRODUCT_DEFINITION_FORMATION('','',#7);
#7 = PRODUCT('Pottmanager 151','Pottmanager 151','',(#8));
#8 = PRODUCT_CONTEXT('',#2,'mechanical');
#9 = PRODUCT_DEFINITION_CONTEXT('part definition',#2,'design');
#10 = ADVANCED_BREP_SHAPE_REPRESENTATION('',(#11,#15),#336);
#11 = AXIS2_PLACEMENT_3D('',#12,#13,#14);
#12 = CARTESIAN_POINT('',(0.,0.,0.));
#13 = DIRECTION('',(0.,0.,1.));
#14 = DIRECTION('',(1.,0.,-0.));
#15 = MANIFOLD_SOLID_BREP('',#16);
#16 = CLOSED_SHELL('',(#17,#57,#134,#157,#227,#243,#259,#275,#291,#307,
    #319));
#17 = ADVANCED_FACE('',(#18),#52,.T.);
#18 = FACE_BOUND('',#19,.T.);
#19 = EDGE_LOOP('',(#20,#31,#38,#47));
#20 = ORIENTED_EDGE('',*,*,#21,.T.);
#21 = EDGE_CURVE('',#22,#24,#26,.T.);
#22 = VERTEX_POINT('',#23);
#23 = CARTESIAN_POINT('',(0.306417777248,-0.111526950168,
    -4.494710407133E-18));
#24 = VERTEX_POINT('',#25);
#25 = CARTESIAN_POINT('',(-0.306417777248,-0.111526950168,
    4.857415558202E-17));
#26 = CIRCLE('',#27,0.4);
#27 = AXIS2_PLACEMENT_3D('',#28,#29,#30);
#28 = CARTESIAN_POINT('',(-5.551115123126E-17,0.145588093706,
    -2.877081452051E-17));
#29 = DIRECTION('',(-8.659560562355E-17,-1.976179080861E-16,-1.));
#30 = DIRECTION('',(0.766044443119,-0.642787609687,6.069026028345E-17));
#31 = ORIENTED_EDGE('',*,*,#32,.T.);
#32 = EDGE_CURVE('',#24,#33,#35,.T.);
#33 = VERTEX_POINT('',#34);
#34 = CARTESIAN_POINT('',(-0.306417777248,-0.111526950168,-4.76));
#35 = B_SPLINE_CURVE_WITH_KNOTS('',1,(#36,#37),.UNSPECIFIED.,.F.,.F.,(2,
    2),(0.,1.),.PIECEWISE_BEZIER_KNOTS.);
#36 = CARTESIAN_POINT('',(-0.306417777248,-0.111526950168,
    4.857415558202E-17));
#37 = CARTESIAN_POINT('',(-0.306417777248,-0.111526950168,-4.76));
#38 = ORIENTED_EDGE('',*,*,#39,.F.);
#39 = EDGE_CURVE('',#40,#33,#42,.T.);
#40 = VERTEX_POINT('',#41);
#41 = CARTESIAN_POINT('',(0.306417777248,-0.111526950168,-4.76));
#42 = CIRCLE('',#43,0.4);
#43 = AXIS2_PLACEMENT_3D('',#44,#45,#46);
#44 = CARTESIAN_POINT('',(-4.440892098501E-16,0.145588093706,-4.76));
#45 = DIRECTION('',(-8.659560562355E-17,-1.976179080861E-16,-1.));
#46 = DIRECTION('',(0.766044443119,-0.642787609687,6.069026028345E-17));
#47 = ORIENTED_EDGE('',*,*,#48,.F.);
#48 = EDGE_CURVE('',#22,#40,#49,.T.);
#49 = B_SPLINE_CURVE_WITH_KNOTS('',1,(#50,#51),.UNSPECIFIED.,.F.,.F.,(2,
    2),(0.,1.),.PIECEWISE_BEZIER_KNOTS.);
#50 = CARTESIAN_POINT('',(0.306417777248,-0.111526950168,
    -4.494710407133E-18));
#51 = CARTESIAN_POINT('',(0.306417777248,-0.111526950168,-4.76));
#52 = CYLINDRICAL_SURFACE('',#53,0.4);
#53 = AXIS2_PLACEMENT_3D('',#54,#55,#56);
#54 = CARTESIAN_POINT('',(-5.551115123126E-17,0.145588093706,
    -2.877081452051E-17));
#55 = DIRECTION('',(-8.659560562355E-17,-1.976179080861E-16,-1.));
#56 = DIRECTION('',(0.766044443119,-0.642787609687,6.069026028345E-17));
#57 = ADVANCED_FACE('',(#58,#118),#129,.F.);
#58 = FACE_BOUND('',#59,.F.);
#59 = EDGE_LOOP('',(#60,#61,#69,#78,#86,#95,#103,#112));
#60 = ORIENTED_EDGE('',*,*,#21,.T.);
#61 = ORIENTED_EDGE('',*,*,#62,.F.);
#62 = EDGE_CURVE('',#63,#24,#65,.T.);
#63 = VERTEX_POINT('',#64);
#64 = CARTESIAN_POINT('',(-8.073591148775,9.145029819651,
    -1.108084147259E-15));
#65 = LINE('',#66,#67);
#66 = CARTESIAN_POINT('',(-8.073591148775,9.145029819651,
    -1.108084147259E-15));
#67 = VECTOR('',#68,1.);
#68 = DIRECTION('',(0.642787609687,-0.766044443119,9.572151800201E-17));
#69 = ORIENTED_EDGE('',*,*,#70,.T.);
#70 = EDGE_CURVE('',#63,#71,#73,.T.);
#71 = VERTEX_POINT('',#72);
#72 = CARTESIAN_POINT('',(-8.073591148775,9.659259907401,
    -1.209705221475E-15));
#73 = CIRCLE('',#74,0.4);
#74 = AXIS2_PLACEMENT_3D('',#75,#76,#77);
#75 = CARTESIAN_POINT('',(-7.767173371527,9.402144863526,
    -1.185429117362E-15));
#76 = DIRECTION('',(-8.659560562355E-17,-1.976179080861E-16,-1.));
#77 = DIRECTION('',(0.766044443119,-0.642787609687,6.069026028345E-17));
#78 = ORIENTED_EDGE('',*,*,#79,.F.);
#79 = EDGE_CURVE('',#80,#71,#82,.T.);
#80 = VERTEX_POINT('',#81);
#81 = CARTESIAN_POINT('',(-0.306417777248,18.91581667722,
    -3.711569688497E-15));
#82 = LINE('',#83,#84);
#83 = CARTESIAN_POINT('',(-0.306417777248,18.91581667722,
    -3.711569688497E-15));
#84 = VECTOR('',#85,1.);
#85 = DIRECTION('',(-0.642787609687,-0.766044443119,2.070466826982E-16)
  );
#86 = ORIENTED_EDGE('',*,*,#87,.T.);
#87 = EDGE_CURVE('',#80,#88,#90,.T.);
#88 = VERTEX_POINT('',#89);
#89 = CARTESIAN_POINT('',(0.306417777248,18.91581667722,
    -3.764638554486E-15));
#90 = CIRCLE('',#91,0.4);
#91 = AXIS2_PLACEMENT_3D('',#92,#93,#94);
#92 = CARTESIAN_POINT('',(-1.7763568394E-15,18.658701633345,
    -3.687293584384E-15));
#93 = DIRECTION('',(-8.659560562355E-17,-1.976179080861E-16,-1.));
#94 = DIRECTION('',(0.766044443119,-0.642787609687,6.069026028345E-17));
#95 = ORIENTED_EDGE('',*,*,#96,.F.);
#96 = EDGE_CURVE('',#97,#88,#99,.T.);
#97 = VERTEX_POINT('',#98);
#98 = CARTESIAN_POINT('',(8.073591148775,9.659259907401,
    -2.607980251645E-15));
#99 = LINE('',#100,#101);
#100 = CARTESIAN_POINT('',(8.073591148775,9.659259907401,
    -2.607980251645E-15));
#101 = VECTOR('',#102,1.);
#102 = DIRECTION('',(-0.642787609687,0.766044443119,-9.572151800201E-17)
  );
#103 = ORIENTED_EDGE('',*,*,#104,.T.);
#104 = EDGE_CURVE('',#97,#105,#107,.T.);
#105 = VERTEX_POINT('',#106);
#106 = CARTESIAN_POINT('',(8.073591148775,9.145029819651,
    -2.506359177429E-15));
#107 = CIRCLE('',#108,0.4);
#108 = AXIS2_PLACEMENT_3D('',#109,#110,#111);
#109 = CARTESIAN_POINT('',(7.767173371527,9.402144863526,
    -2.530635281543E-15));
#110 = DIRECTION('',(-8.659560562355E-17,-1.976179080861E-16,-1.));
#111 = DIRECTION('',(0.766044443119,-0.642787609687,6.069026028345E-17)
  );
#112 = ORIENTED_EDGE('',*,*,#113,.F.);
#113 = EDGE_CURVE('',#22,#105,#114,.T.);
#114 = LINE('',#115,#116);
#115 = CARTESIAN_POINT('',(0.306417777248,-0.111526950168,
    -4.494710407133E-18));
#116 = VECTOR('',#117,1.);
#117 = DIRECTION('',(0.642787609687,0.766044443119,-2.070466826982E-16)
  );
#118 = FACE_BOUND('',#119,.F.);
#119 = EDGE_LOOP('',(#120));
#120 = ORIENTED_EDGE('',*,*,#121,.T.);
#121 = EDGE_CURVE('',#122,#122,#124,.T.);
#122 = VERTEX_POINT('',#123);
#123 = CARTESIAN_POINT('',(1.532088886238,8.116569644153,
    -1.736651678885E-15));
#124 = CIRCLE('',#125,2.);
#125 = AXIS2_PLACEMENT_3D('',#126,#127,#128);
#126 = CARTESIAN_POINT('',(-1.7763568394E-15,9.402144863526,
    -1.858032199452E-15));
#127 = DIRECTION('',(8.659560562355E-17,1.976179080861E-16,1.));
#128 = DIRECTION('',(0.766044443119,-0.642787609687,6.069026028345E-17)
  );
#129 = PLANE('',#130);
#130 = AXIS2_PLACEMENT_3D('',#131,#132,#133);
#131 = CARTESIAN_POINT('',(-5.551115123126E-17,0.145588093706,
    -2.877081452051E-17));
#132 = DIRECTION('',(-8.659560562355E-17,-1.976179080861E-16,-1.));
#133 = DIRECTION('',(0.766044443119,-0.642787609687,6.069026028345E-17)
  );
#134 = ADVANCED_FACE('',(#135),#152,.T.);
#135 = FACE_BOUND('',#136,.T.);
#136 = EDGE_LOOP('',(#137,#138,#145,#151));
#137 = ORIENTED_EDGE('',*,*,#62,.F.);
#138 = ORIENTED_EDGE('',*,*,#139,.T.);
#139 = EDGE_CURVE('',#63,#140,#142,.T.);
#140 = VERTEX_POINT('',#141);
#141 = CARTESIAN_POINT('',(-8.073591148775,9.145029819651,-4.76));
#142 = B_SPLINE_CURVE_WITH_KNOTS('',1,(#143,#144),.UNSPECIFIED.,.F.,.F.,
  (2,2),(0.,1.),.PIECEWISE_BEZIER_KNOTS.);
#143 = CARTESIAN_POINT('',(-8.073591148775,9.145029819651,
    -1.108084147259E-15));
#144 = CARTESIAN_POINT('',(-8.073591148775,9.145029819651,-4.76));
#145 = ORIENTED_EDGE('',*,*,#146,.T.);
#146 = EDGE_CURVE('',#140,#33,#147,.T.);
#147 = LINE('',#148,#149);
#148 = CARTESIAN_POINT('',(-8.073591148775,9.145029819651,-4.76));
#149 = VECTOR('',#150,1.);
#150 = DIRECTION('',(0.642787609687,-0.766044443119,9.572151800201E-17)
  );
#151 = ORIENTED_EDGE('',*,*,#32,.F.);
#152 = PLANE('',#153);
#153 = AXIS2_PLACEMENT_3D('',#154,#155,#156);
#154 = CARTESIAN_POINT('',(-8.073591148775,9.145029819651,-4.76));
#155 = DIRECTION('',(-0.766044443119,-0.642787609687,1.933624252563E-16)
  );
#156 = DIRECTION('',(-0.642787609687,0.766044443119,-9.572151800201E-17)
  );
#157 = ADVANCED_FACE('',(#158,#211),#222,.T.);
#158 = FACE_BOUND('',#159,.T.);
#159 = EDGE_LOOP('',(#160,#161,#162,#171,#179,#188,#196,#205));
#160 = ORIENTED_EDGE('',*,*,#39,.T.);
#161 = ORIENTED_EDGE('',*,*,#146,.F.);
#162 = ORIENTED_EDGE('',*,*,#163,.T.);
#163 = EDGE_CURVE('',#140,#164,#166,.T.);
#164 = VERTEX_POINT('',#165);
#165 = CARTESIAN_POINT('',(-8.073591148775,9.659259907401,-4.76));
#166 = CIRCLE('',#167,0.4);
#167 = AXIS2_PLACEMENT_3D('',#168,#169,#170);
#168 = CARTESIAN_POINT('',(-7.767173371527,9.402144863526,-4.76));
#169 = DIRECTION('',(-8.659560562355E-17,-1.976179080861E-16,-1.));
#170 = DIRECTION('',(0.766044443119,-0.642787609687,6.069026028345E-17)
  );
#171 = ORIENTED_EDGE('',*,*,#172,.F.);
#172 = EDGE_CURVE('',#173,#164,#175,.T.);
#173 = VERTEX_POINT('',#174);
#174 = CARTESIAN_POINT('',(-0.306417777248,18.91581667722,-4.76));
#175 = LINE('',#176,#177);
#176 = CARTESIAN_POINT('',(-0.306417777248,18.91581667722,-4.76));
#177 = VECTOR('',#178,1.);
#178 = DIRECTION('',(-0.642787609687,-0.766044443119,2.070466826982E-16)
  );
#179 = ORIENTED_EDGE('',*,*,#180,.T.);
#180 = EDGE_CURVE('',#173,#181,#183,.T.);
#181 = VERTEX_POINT('',#182);
#182 = CARTESIAN_POINT('',(0.306417777248,18.91581667722,-4.76));
#183 = CIRCLE('',#184,0.4);
#184 = AXIS2_PLACEMENT_3D('',#185,#186,#187);
#185 = CARTESIAN_POINT('',(-1.7763568394E-15,18.658701633345,-4.76));
#186 = DIRECTION('',(-8.659560562355E-17,-1.976179080861E-16,-1.));
#187 = DIRECTION('',(0.766044443119,-0.642787609687,6.069026028345E-17)
  );
#188 = ORIENTED_EDGE('',*,*,#189,.F.);
#189 = EDGE_CURVE('',#190,#181,#192,.T.);
#190 = VERTEX_POINT('',#191);
#191 = CARTESIAN_POINT('',(8.073591148775,9.659259907401,-4.76));
#192 = LINE('',#193,#194);
#193 = CARTESIAN_POINT('',(8.073591148775,9.659259907401,-4.76));
#194 = VECTOR('',#195,1.);
#195 = DIRECTION('',(-0.642787609687,0.766044443119,-9.572151800201E-17)
  );
#196 = ORIENTED_EDGE('',*,*,#197,.T.);
#197 = EDGE_CURVE('',#190,#198,#200,.T.);
#198 = VERTEX_POINT('',#199);
#199 = CARTESIAN_POINT('',(8.073591148775,9.145029819651,-4.76));
#200 = CIRCLE('',#201,0.4);
#201 = AXIS2_PLACEMENT_3D('',#202,#203,#204);
#202 = CARTESIAN_POINT('',(7.767173371527,9.402144863526,-4.76));
#203 = DIRECTION('',(-8.659560562355E-17,-1.976179080861E-16,-1.));
#204 = DIRECTION('',(0.766044443119,-0.642787609687,6.069026028345E-17)
  );
#205 = ORIENTED_EDGE('',*,*,#206,.F.);
#206 = EDGE_CURVE('',#40,#198,#207,.T.);
#207 = LINE('',#208,#209);
#208 = CARTESIAN_POINT('',(0.306417777248,-0.111526950168,-4.76));
#209 = VECTOR('',#210,1.);
#210 = DIRECTION('',(0.642787609687,0.766044443119,-2.070466826982E-16)
  );
#211 = FACE_BOUND('',#212,.T.);
#212 = EDGE_LOOP('',(#213));
#213 = ORIENTED_EDGE('',*,*,#214,.T.);
#214 = EDGE_CURVE('',#215,#215,#217,.T.);
#215 = VERTEX_POINT('',#216);
#216 = CARTESIAN_POINT('',(1.532088886238,8.116569644153,-4.76));
#217 = CIRCLE('',#218,2.);
#218 = AXIS2_PLACEMENT_3D('',#219,#220,#221);
#219 = CARTESIAN_POINT('',(-1.7763568394E-15,9.402144863526,-4.76));
#220 = DIRECTION('',(8.659560562355E-17,1.976179080861E-16,1.));
#221 = DIRECTION('',(0.766044443119,-0.642787609687,6.069026028345E-17)
  );
#222 = PLANE('',#223);
#223 = AXIS2_PLACEMENT_3D('',#224,#225,#226);
#224 = CARTESIAN_POINT('',(-4.440892098501E-16,0.145588093706,-4.76));
#225 = DIRECTION('',(-8.659560562355E-17,-1.976179080861E-16,-1.));
#226 = DIRECTION('',(0.766044443119,-0.642787609687,6.069026028345E-17)
  );
#227 = ADVANCED_FACE('',(#228),#238,.T.);
#228 = FACE_BOUND('',#229,.T.);
#229 = EDGE_LOOP('',(#230,#231,#232,#233));
#230 = ORIENTED_EDGE('',*,*,#113,.F.);
#231 = ORIENTED_EDGE('',*,*,#48,.T.);
#232 = ORIENTED_EDGE('',*,*,#206,.T.);
#233 = ORIENTED_EDGE('',*,*,#234,.F.);
#234 = EDGE_CURVE('',#105,#198,#235,.T.);
#235 = B_SPLINE_CURVE_WITH_KNOTS('',1,(#236,#237),.UNSPECIFIED.,.F.,.F.,
  (2,2),(0.,1.),.PIECEWISE_BEZIER_KNOTS.);
#236 = CARTESIAN_POINT('',(8.073591148775,9.145029819651,
    -2.506359177429E-15));
#237 = CARTESIAN_POINT('',(8.073591148775,9.145029819651,-4.76));
#238 = PLANE('',#239);
#239 = AXIS2_PLACEMENT_3D('',#240,#241,#242);
#240 = CARTESIAN_POINT('',(0.306417777248,-0.111526950168,-4.76));
#241 = DIRECTION('',(0.766044443119,-0.642787609687,6.069026028345E-17)
  );
#242 = DIRECTION('',(-0.642787609687,-0.766044443119,2.070466826982E-16)
  );
#243 = ADVANCED_FACE('',(#244),#254,.T.);
#244 = FACE_BOUND('',#245,.T.);
#245 = EDGE_LOOP('',(#246,#247,#248,#249));
#246 = ORIENTED_EDGE('',*,*,#104,.T.);
#247 = ORIENTED_EDGE('',*,*,#234,.T.);
#248 = ORIENTED_EDGE('',*,*,#197,.F.);
#249 = ORIENTED_EDGE('',*,*,#250,.F.);
#250 = EDGE_CURVE('',#97,#190,#251,.T.);
#251 = B_SPLINE_CURVE_WITH_KNOTS('',1,(#252,#253),.UNSPECIFIED.,.F.,.F.,
  (2,2),(0.,1.),.PIECEWISE_BEZIER_KNOTS.);
#252 = CARTESIAN_POINT('',(8.073591148775,9.659259907401,
    -2.607980251645E-15));
#253 = CARTESIAN_POINT('',(8.073591148775,9.659259907401,-4.76));
#254 = CYLINDRICAL_SURFACE('',#255,0.4);
#255 = AXIS2_PLACEMENT_3D('',#256,#257,#258);
#256 = CARTESIAN_POINT('',(7.767173371527,9.402144863526,
    -2.530635281543E-15));
#257 = DIRECTION('',(-8.659560562355E-17,-1.976179080861E-16,-1.));
#258 = DIRECTION('',(0.766044443119,-0.642787609687,6.069026028345E-17)
  );
#259 = ADVANCED_FACE('',(#260),#270,.T.);
#260 = FACE_BOUND('',#261,.T.);
#261 = EDGE_LOOP('',(#262,#263,#268,#269));
#262 = ORIENTED_EDGE('',*,*,#70,.T.);
#263 = ORIENTED_EDGE('',*,*,#264,.T.);
#264 = EDGE_CURVE('',#71,#164,#265,.T.);
#265 = B_SPLINE_CURVE_WITH_KNOTS('',1,(#266,#267),.UNSPECIFIED.,.F.,.F.,
  (2,2),(0.,1.),.PIECEWISE_BEZIER_KNOTS.);
#266 = CARTESIAN_POINT('',(-8.073591148775,9.659259907401,
    -1.209705221475E-15));
#267 = CARTESIAN_POINT('',(-8.073591148775,9.659259907401,-4.76));
#268 = ORIENTED_EDGE('',*,*,#163,.F.);
#269 = ORIENTED_EDGE('',*,*,#139,.F.);
#270 = CYLINDRICAL_SURFACE('',#271,0.4);
#271 = AXIS2_PLACEMENT_3D('',#272,#273,#274);
#272 = CARTESIAN_POINT('',(-7.767173371527,9.402144863526,
    -1.185429117362E-15));
#273 = DIRECTION('',(-8.659560562355E-17,-1.976179080861E-16,-1.));
#274 = DIRECTION('',(0.766044443119,-0.642787609687,6.069026028345E-17)
  );
#275 = ADVANCED_FACE('',(#276),#286,.T.);
#276 = FACE_BOUND('',#277,.T.);
#277 = EDGE_LOOP('',(#278,#279,#280,#281));
#278 = ORIENTED_EDGE('',*,*,#96,.F.);
#279 = ORIENTED_EDGE('',*,*,#250,.T.);
#280 = ORIENTED_EDGE('',*,*,#189,.T.);
#281 = ORIENTED_EDGE('',*,*,#282,.F.);
#282 = EDGE_CURVE('',#88,#181,#283,.T.);
#283 = B_SPLINE_CURVE_WITH_KNOTS('',1,(#284,#285),.UNSPECIFIED.,.F.,.F.,
  (2,2),(0.,1.),.PIECEWISE_BEZIER_KNOTS.);
#284 = CARTESIAN_POINT('',(0.306417777248,18.91581667722,
    -3.764638554486E-15));
#285 = CARTESIAN_POINT('',(0.306417777248,18.91581667722,-4.76));
#286 = PLANE('',#287);
#287 = AXIS2_PLACEMENT_3D('',#288,#289,#290);
#288 = CARTESIAN_POINT('',(8.073591148775,9.659259907401,-4.76));
#289 = DIRECTION('',(0.766044443119,0.642787609687,-1.933624252563E-16)
  );
#290 = DIRECTION('',(0.642787609687,-0.766044443119,9.572151800201E-17)
  );
#291 = ADVANCED_FACE('',(#292),#302,.T.);
#292 = FACE_BOUND('',#293,.T.);
#293 = EDGE_LOOP('',(#294,#295,#300,#301));
#294 = ORIENTED_EDGE('',*,*,#79,.F.);
#295 = ORIENTED_EDGE('',*,*,#296,.T.);
#296 = EDGE_CURVE('',#80,#173,#297,.T.);
#297 = B_SPLINE_CURVE_WITH_KNOTS('',1,(#298,#299),.UNSPECIFIED.,.F.,.F.,
  (2,2),(0.,1.),.PIECEWISE_BEZIER_KNOTS.);
#298 = CARTESIAN_POINT('',(-0.306417777248,18.91581667722,
    -3.711569688497E-15));
#299 = CARTESIAN_POINT('',(-0.306417777248,18.91581667722,-4.76));
#300 = ORIENTED_EDGE('',*,*,#172,.T.);
#301 = ORIENTED_EDGE('',*,*,#264,.F.);
#302 = PLANE('',#303);
#303 = AXIS2_PLACEMENT_3D('',#304,#305,#306);
#304 = CARTESIAN_POINT('',(-0.306417777248,18.91581667722,-4.76));
#305 = DIRECTION('',(-0.766044443119,0.642787609687,-6.069026028345E-17)
  );
#306 = DIRECTION('',(0.642787609687,0.766044443119,-2.070466826982E-16)
  );
#307 = ADVANCED_FACE('',(#308),#314,.T.);
#308 = FACE_BOUND('',#309,.T.);
#309 = EDGE_LOOP('',(#310,#311,#312,#313));
#310 = ORIENTED_EDGE('',*,*,#87,.T.);
#311 = ORIENTED_EDGE('',*,*,#282,.T.);
#312 = ORIENTED_EDGE('',*,*,#180,.F.);
#313 = ORIENTED_EDGE('',*,*,#296,.F.);
#314 = CYLINDRICAL_SURFACE('',#315,0.4);
#315 = AXIS2_PLACEMENT_3D('',#316,#317,#318);
#316 = CARTESIAN_POINT('',(-1.7763568394E-15,18.658701633345,
    -3.687293584384E-15));
#317 = DIRECTION('',(-8.659560562355E-17,-1.976179080861E-16,-1.));
#318 = DIRECTION('',(0.766044443119,-0.642787609687,6.069026028345E-17)
  );
#319 = ADVANCED_FACE('',(#320),#331,.F.);
#320 = FACE_BOUND('',#321,.F.);
#321 = EDGE_LOOP('',(#322,#323,#329,#330));
#322 = ORIENTED_EDGE('',*,*,#121,.F.);
#323 = ORIENTED_EDGE('',*,*,#324,.F.);
#324 = EDGE_CURVE('',#215,#122,#325,.T.);
#325 = LINE('',#326,#327);
#326 = CARTESIAN_POINT('',(1.532088886238,8.116569644153,-7.1400002));
#327 = VECTOR('',#328,1.);
#328 = DIRECTION('',(8.659560562355E-17,1.976179080861E-16,1.));
#329 = ORIENTED_EDGE('',*,*,#214,.T.);
#330 = ORIENTED_EDGE('',*,*,#324,.T.);
#331 = CYLINDRICAL_SURFACE('',#332,2.);
#332 = AXIS2_PLACEMENT_3D('',#333,#334,#335);
#333 = CARTESIAN_POINT('',(-2.6645352591E-15,9.402144863526,-7.1400002)
  );
#334 = DIRECTION('',(8.659560562355E-17,1.976179080861E-16,1.));
#335 = DIRECTION('',(0.766044443119,-0.642787609687,6.069026028345E-17)
  );
#336 = ( GEOMETRIC_REPRESENTATION_CONTEXT(3) 
GLOBAL_UNCERTAINTY_ASSIGNED_CONTEXT((#340)) GLOBAL_UNIT_ASSIGNED_CONTEXT
((#337,#338,#339)) REPRESENTATION_CONTEXT('Context #1',
  '3D Context with UNIT and UNCERTAINTY') );
#337 = ( LENGTH_UNIT() NAMED_UNIT(*) SI_UNIT(.MILLI.,.METRE.) );
#338 = ( NAMED_UNIT(*) PLANE_ANGLE_UNIT() SI_UNIT($,.RADIAN.) );
#339 = ( NAMED_UNIT(*) SI_UNIT($,.STERADIAN.) SOLID_ANGLE_UNIT() );
#340 = UNCERTAINTY_MEASURE_WITH_UNIT(LENGTH_MEASURE(1.E-07),#337,
  'distance_accuracy_value','confusion accuracy');
#341 = PRODUCT_RELATED_PRODUCT_CATEGORY('part',$,(#7));
#342 = MECHANICAL_DESIGN_GEOMETRIC_PRESENTATION_REPRESENTATION('',(#343)
  ,#336);
#343 = STYLED_ITEM('color',(#344),#15);
#344 = PRESENTATION_STYLE_ASSIGNMENT((#345));
#345 = SURFACE_STYLE_USAGE(.BOTH.,#346);
#346 = SURFACE_SIDE_STYLE('',(#347));
#347 = SURFACE_STYLE_FILL_AREA(#348);
#348 = FILL_AREA_STYLE('',(#349));
#349 = FILL_AREA_STYLE_COLOUR('',#350);
#350 = DRAUGHTING_PRE_DEFINED_COLOUR('green');
ENDSEC;
END-ISO-10303-21;
