ISO-10303-21;
HEADER;
FILE_DESCRIPTION(('Open CASCADE Model'),'2;1');
FILE_NAME('Open CASCADE Shape Model','2026-09-18T15:45:45',('Author'),(
    'Open CASCADE'),'Open CASCADE STEP processor 7.3','Open CASCADE 7.3'
  ,'Unknown');
FILE_SCHEMA(('AUTOMOTIVE_DESIGN { 1 0 10303 214 1 1 1 1 }'));
ENDSEC;
DATA;
#1 = APPLICATION_PROTOCOL_DEFINITION('international standard',
  'automotive_design',2000,#2);
#2 = APPLICATION_CONTEXT(
  'core data for automotive mechanical design processes');
#3 = SHAPE_DEFINITION_REPRESENTATION(#4,#10);
#4 = PRODUCT_DEFINITION_SHAPE('','',#5);
#5 = PRODUCT_DEFINITION('design','',#6,#9);
#6 = PRODUCT_DEFINITION_FORMATION('','',#7);
#7 = PRODUCT('Pottmanager 74','Pottmanager 74','',(#8));
#8 = PRODUCT_CONTEXT('',#2,'mechanical');
#9 = PRODUCT_DEFINITION_CONTEXT('part definition',#2,'design');
#10 = ADVANCED_BREP_SHAPE_REPRESENTATION('',(#11,#15),#254);
#11 = AXIS2_PLACEMENT_3D('',#12,#13,#14);
#12 = CARTESIAN_POINT('',(0.,0.,0.));
#13 = DIRECTION('',(0.,0.,1.));
#14 = DIRECTION('',(1.,0.,-0.));
#15 = MANIFOLD_SOLID_BREP('',#16);
#16 = CLOSED_SHELL('',(#17,#59,#91,#123,#155,#173,#201,#218,#245));
#17 = ADVANCED_FACE('',(#18),#54,.T.);
#18 = FACE_BOUND('',#19,.F.);
#19 = EDGE_LOOP('',(#20,#31,#40,#48));
#20 = ORIENTED_EDGE('',*,*,#21,.F.);
#21 = EDGE_CURVE('',#22,#24,#26,.T.);
#22 = VERTEX_POINT('',#23);
#23 = CARTESIAN_POINT('',(21.45,46.95,-5.696232586278E-15));
#24 = VERTEX_POINT('',#25);
#25 = CARTESIAN_POINT('',(17.448842542974,46.95,11.136931803688));
#26 = CIRCLE('',#27,17.5);
#27 = AXIS2_PLACEMENT_3D('',#28,#29,#30);
#28 = CARTESIAN_POINT('',(3.95,46.95,-5.696232586278E-15));
#29 = DIRECTION('',(0.,-1.,1.110223024625E-16));
#30 = DIRECTION('',(1.,0.,0.));
#31 = ORIENTED_EDGE('',*,*,#32,.F.);
#32 = EDGE_CURVE('',#33,#22,#35,.T.);
#33 = VERTEX_POINT('',#34);
#34 = CARTESIAN_POINT('',(15.086931803688,46.95,13.498842542973));
#35 = CIRCLE('',#36,17.5);
#36 = AXIS2_PLACEMENT_3D('',#37,#38,#39);
#37 = CARTESIAN_POINT('',(3.95,46.95,-5.696232586278E-15));
#38 = DIRECTION('',(0.,-1.,1.110223024625E-16));
#39 = DIRECTION('',(1.,0.,0.));
#40 = ORIENTED_EDGE('',*,*,#41,.T.);
#41 = EDGE_CURVE('',#33,#42,#44,.T.);
#42 = VERTEX_POINT('',#43);
#43 = CARTESIAN_POINT('',(15.086931803688,46.95,11.136931803688));
#44 = LINE('',#45,#46);
#45 = CARTESIAN_POINT('',(15.086931803688,46.95,13.611805537841));
#46 = VECTOR('',#47,1.);
#47 = DIRECTION('',(0.,-1.110223024625E-16,-1.));
#48 = ORIENTED_EDGE('',*,*,#49,.T.);
#49 = EDGE_CURVE('',#42,#24,#50,.T.);
#50 = LINE('',#51,#52);
#51 = CARTESIAN_POINT('',(15.086931803688,46.95,11.136931803688));
#52 = VECTOR('',#53,1.);
#53 = DIRECTION('',(1.,0.,0.));
#54 = PLANE('',#55);
#55 = AXIS2_PLACEMENT_3D('',#56,#57,#58);
#56 = CARTESIAN_POINT('',(3.95,46.95,-5.696232586278E-15));
#57 = DIRECTION('',(0.,-1.,1.110223024625E-16));
#58 = DIRECTION('',(1.,0.,0.));
#59 = ADVANCED_FACE('',(#60),#86,.T.);
#60 = FACE_BOUND('',#61,.F.);
#61 = EDGE_LOOP('',(#62,#70,#71,#79));
#62 = ORIENTED_EDGE('',*,*,#63,.F.);
#63 = EDGE_CURVE('',#22,#64,#66,.T.);
#64 = VERTEX_POINT('',#65);
#65 = CARTESIAN_POINT('',(21.45,49.95,-6.029299493666E-15));
#66 = LINE('',#67,#68);
#67 = CARTESIAN_POINT('',(21.45,46.95,-5.696232586278E-15));
#68 = VECTOR('',#69,1.);
#69 = DIRECTION('',(0.,1.,-1.110223024625E-16));
#70 = ORIENTED_EDGE('',*,*,#21,.T.);
#71 = ORIENTED_EDGE('',*,*,#72,.T.);
#72 = EDGE_CURVE('',#24,#73,#75,.T.);
#73 = VERTEX_POINT('',#74);
#74 = CARTESIAN_POINT('',(17.448842542974,49.95,11.136931803688));
#75 = LINE('',#76,#77);
#76 = CARTESIAN_POINT('',(17.448842542974,46.95,11.136931803688));
#77 = VECTOR('',#78,1.);
#78 = DIRECTION('',(-0.,1.,-1.110223024625E-16));
#79 = ORIENTED_EDGE('',*,*,#80,.F.);
#80 = EDGE_CURVE('',#64,#73,#81,.T.);
#81 = CIRCLE('',#82,17.5);
#82 = AXIS2_PLACEMENT_3D('',#83,#84,#85);
#83 = CARTESIAN_POINT('',(3.95,49.95,-6.029299493666E-15));
#84 = DIRECTION('',(0.,-1.,1.110223024625E-16));
#85 = DIRECTION('',(1.,0.,0.));
#86 = CYLINDRICAL_SURFACE('',#87,17.5);
#87 = AXIS2_PLACEMENT_3D('',#88,#89,#90);
#88 = CARTESIAN_POINT('',(3.95,46.95,-5.696232586278E-15));
#89 = DIRECTION('',(-0.,1.,-1.110223024625E-16));
#90 = DIRECTION('',(1.,0.,0.));
#91 = ADVANCED_FACE('',(#92),#118,.T.);
#92 = FACE_BOUND('',#93,.T.);
#93 = EDGE_LOOP('',(#94,#104,#110,#111,#112));
#94 = ORIENTED_EDGE('',*,*,#95,.F.);
#95 = EDGE_CURVE('',#96,#98,#100,.T.);
#96 = VERTEX_POINT('',#97);
#97 = CARTESIAN_POINT('',(15.086931803688,49.95,11.136931803688));
#98 = VERTEX_POINT('',#99);
#99 = CARTESIAN_POINT('',(15.437765230888,49.95,11.136931803688));
#100 = LINE('',#101,#102);
#101 = CARTESIAN_POINT('',(15.086931803688,49.95,11.136931803688));
#102 = VECTOR('',#103,1.);
#103 = DIRECTION('',(1.,0.,0.));
#104 = ORIENTED_EDGE('',*,*,#105,.T.);
#105 = EDGE_CURVE('',#96,#42,#106,.T.);
#106 = LINE('',#107,#108);
#107 = CARTESIAN_POINT('',(15.086931803688,49.95,11.136931803688));
#108 = VECTOR('',#109,1.);
#109 = DIRECTION('',(0.,-1.,1.110223024625E-16));
#110 = ORIENTED_EDGE('',*,*,#49,.T.);
#111 = ORIENTED_EDGE('',*,*,#72,.T.);
#112 = ORIENTED_EDGE('',*,*,#113,.F.);
#113 = EDGE_CURVE('',#98,#73,#114,.T.);
#114 = LINE('',#115,#116);
#115 = CARTESIAN_POINT('',(15.086931803688,49.95,11.136931803688));
#116 = VECTOR('',#117,1.);
#117 = DIRECTION('',(1.,0.,0.));
#118 = PLANE('',#119);
#119 = AXIS2_PLACEMENT_3D('',#120,#121,#122);
#120 = CARTESIAN_POINT('',(15.086931803688,49.95,11.136931803688));
#121 = DIRECTION('',(0.,1.110223024625E-16,1.));
#122 = DIRECTION('',(1.,0.,0.));
#123 = ADVANCED_FACE('',(#124),#150,.T.);
#124 = FACE_BOUND('',#125,.T.);
#125 = EDGE_LOOP('',(#126,#136,#142,#143,#144));
#126 = ORIENTED_EDGE('',*,*,#127,.F.);
#127 = EDGE_CURVE('',#128,#130,#132,.T.);
#128 = VERTEX_POINT('',#129);
#129 = CARTESIAN_POINT('',(15.086931803688,49.95,13.498842542973));
#130 = VERTEX_POINT('',#131);
#131 = CARTESIAN_POINT('',(15.086931803688,49.95,11.487765230888));
#132 = LINE('',#133,#134);
#133 = CARTESIAN_POINT('',(15.086931803688,49.95,13.611805537841));
#134 = VECTOR('',#135,1.);
#135 = DIRECTION('',(0.,-1.110223024625E-16,-1.));
#136 = ORIENTED_EDGE('',*,*,#137,.F.);
#137 = EDGE_CURVE('',#33,#128,#138,.T.);
#138 = LINE('',#139,#140);
#139 = CARTESIAN_POINT('',(15.086931803688,46.95,13.498842542974));
#140 = VECTOR('',#141,1.);
#141 = DIRECTION('',(-0.,1.,-1.110223024625E-16));
#142 = ORIENTED_EDGE('',*,*,#41,.T.);
#143 = ORIENTED_EDGE('',*,*,#105,.F.);
#144 = ORIENTED_EDGE('',*,*,#145,.F.);
#145 = EDGE_CURVE('',#130,#96,#146,.T.);
#146 = LINE('',#147,#148);
#147 = CARTESIAN_POINT('',(15.086931803688,49.95,13.611805537841));
#148 = VECTOR('',#149,1.);
#149 = DIRECTION('',(0.,-1.110223024625E-16,-1.));
#150 = PLANE('',#151);
#151 = AXIS2_PLACEMENT_3D('',#152,#153,#154);
#152 = CARTESIAN_POINT('',(15.086931803688,49.95,13.611805537841));
#153 = DIRECTION('',(1.,0.,0.));
#154 = DIRECTION('',(0.,-1.110223024625E-16,-1.));
#155 = ADVANCED_FACE('',(#156),#168,.T.);
#156 = FACE_BOUND('',#157,.F.);
#157 = EDGE_LOOP('',(#158,#159,#160,#167));
#158 = ORIENTED_EDGE('',*,*,#32,.T.);
#159 = ORIENTED_EDGE('',*,*,#63,.T.);
#160 = ORIENTED_EDGE('',*,*,#161,.F.);
#161 = EDGE_CURVE('',#128,#64,#162,.T.);
#162 = CIRCLE('',#163,17.5);
#163 = AXIS2_PLACEMENT_3D('',#164,#165,#166);
#164 = CARTESIAN_POINT('',(3.95,49.95,-6.029299493666E-15));
#165 = DIRECTION('',(0.,-1.,1.110223024625E-16));
#166 = DIRECTION('',(1.,0.,0.));
#167 = ORIENTED_EDGE('',*,*,#137,.F.);
#168 = CYLINDRICAL_SURFACE('',#169,17.5);
#169 = AXIS2_PLACEMENT_3D('',#170,#171,#172);
#170 = CARTESIAN_POINT('',(3.95,46.95,-5.696232586278E-15));
#171 = DIRECTION('',(-0.,1.,-1.110223024625E-16));
#172 = DIRECTION('',(1.,0.,0.));
#173 = ADVANCED_FACE('',(#174),#196,.F.);
#174 = FACE_BOUND('',#175,.F.);
#175 = EDGE_LOOP('',(#176,#177,#178,#179,#188,#195));
#176 = ORIENTED_EDGE('',*,*,#161,.T.);
#177 = ORIENTED_EDGE('',*,*,#80,.T.);
#178 = ORIENTED_EDGE('',*,*,#113,.F.);
#179 = ORIENTED_EDGE('',*,*,#180,.F.);
#180 = EDGE_CURVE('',#181,#98,#183,.T.);
#181 = VERTEX_POINT('',#182);
#182 = CARTESIAN_POINT('',(19.95,49.95,-6.029299493666E-15));
#183 = CIRCLE('',#184,16.);
#184 = AXIS2_PLACEMENT_3D('',#185,#186,#187);
#185 = CARTESIAN_POINT('',(3.95,49.95,-6.029299493666E-15));
#186 = DIRECTION('',(0.,-1.,1.110223024625E-16));
#187 = DIRECTION('',(1.,0.,0.));
#188 = ORIENTED_EDGE('',*,*,#189,.F.);
#189 = EDGE_CURVE('',#130,#181,#190,.T.);
#190 = CIRCLE('',#191,16.);
#191 = AXIS2_PLACEMENT_3D('',#192,#193,#194);
#192 = CARTESIAN_POINT('',(3.95,49.95,-6.029299493666E-15));
#193 = DIRECTION('',(0.,-1.,1.110223024625E-16));
#194 = DIRECTION('',(1.,0.,0.));
#195 = ORIENTED_EDGE('',*,*,#127,.F.);
#196 = PLANE('',#197);
#197 = AXIS2_PLACEMENT_3D('',#198,#199,#200);
#198 = CARTESIAN_POINT('',(3.95,49.95,-6.029299493666E-15));
#199 = DIRECTION('',(0.,-1.,1.110223024625E-16));
#200 = DIRECTION('',(1.,0.,0.));
#201 = ADVANCED_FACE('',(#202),#213,.T.);
#202 = FACE_BOUND('',#203,.T.);
#203 = EDGE_LOOP('',(#204,#205,#206));
#204 = ORIENTED_EDGE('',*,*,#145,.T.);
#205 = ORIENTED_EDGE('',*,*,#95,.T.);
#206 = ORIENTED_EDGE('',*,*,#207,.T.);
#207 = EDGE_CURVE('',#98,#130,#208,.T.);
#208 = CIRCLE('',#209,16.);
#209 = AXIS2_PLACEMENT_3D('',#210,#211,#212);
#210 = CARTESIAN_POINT('',(3.95,49.95,-6.029299493666E-15));
#211 = DIRECTION('',(0.,-1.,1.110223024625E-16));
#212 = DIRECTION('',(1.,0.,0.));
#213 = PLANE('',#214);
#214 = AXIS2_PLACEMENT_3D('',#215,#216,#217);
#215 = CARTESIAN_POINT('',(16.108060107769,49.95,12.158060107769));
#216 = DIRECTION('',(0.,-1.,1.110223024625E-16));
#217 = DIRECTION('',(1.,0.,0.));
#218 = ADVANCED_FACE('',(#219),#240,.T.);
#219 = FACE_BOUND('',#220,.F.);
#220 = EDGE_LOOP('',(#221,#229,#230,#231,#232,#233));
#221 = ORIENTED_EDGE('',*,*,#222,.F.);
#222 = EDGE_CURVE('',#181,#223,#225,.T.);
#223 = VERTEX_POINT('',#224);
#224 = CARTESIAN_POINT('',(19.95,117.95,-1.357881606112E-14));
#225 = LINE('',#226,#227);
#226 = CARTESIAN_POINT('',(19.95,49.95,-6.029299493666E-15));
#227 = VECTOR('',#228,1.);
#228 = DIRECTION('',(0.,1.,-1.110223024625E-16));
#229 = ORIENTED_EDGE('',*,*,#180,.T.);
#230 = ORIENTED_EDGE('',*,*,#207,.T.);
#231 = ORIENTED_EDGE('',*,*,#189,.T.);
#232 = ORIENTED_EDGE('',*,*,#222,.T.);
#233 = ORIENTED_EDGE('',*,*,#234,.F.);
#234 = EDGE_CURVE('',#223,#223,#235,.T.);
#235 = CIRCLE('',#236,16.);
#236 = AXIS2_PLACEMENT_3D('',#237,#238,#239);
#237 = CARTESIAN_POINT('',(3.95,117.95,-1.357881606112E-14));
#238 = DIRECTION('',(0.,-1.,1.110223024625E-16));
#239 = DIRECTION('',(1.,0.,0.));
#240 = CYLINDRICAL_SURFACE('',#241,16.);
#241 = AXIS2_PLACEMENT_3D('',#242,#243,#244);
#242 = CARTESIAN_POINT('',(3.95,49.95,-6.029299493666E-15));
#243 = DIRECTION('',(-0.,1.,-1.110223024625E-16));
#244 = DIRECTION('',(1.,0.,0.));
#245 = ADVANCED_FACE('',(#246),#249,.F.);
#246 = FACE_BOUND('',#247,.F.);
#247 = EDGE_LOOP('',(#248));
#248 = ORIENTED_EDGE('',*,*,#234,.T.);
#249 = PLANE('',#250);
#250 = AXIS2_PLACEMENT_3D('',#251,#252,#253);
#251 = CARTESIAN_POINT('',(3.95,117.95,-1.357881606112E-14));
#252 = DIRECTION('',(0.,-1.,1.110223024625E-16));
#253 = DIRECTION('',(1.,0.,0.));
#254 = ( GEOMETRIC_REPRESENTATION_CONTEXT(3) 
GLOBAL_UNCERTAINTY_ASSIGNED_CONTEXT((#258)) GLOBAL_UNIT_ASSIGNED_CONTEXT
((#255,#256,#257)) REPRESENTATION_CONTEXT('Context #1',
  '3D Context with UNIT and UNCERTAINTY') );
#255 = ( LENGTH_UNIT() NAMED_UNIT(*) SI_UNIT(.MILLI.,.METRE.) );
#256 = ( NAMED_UNIT(*) PLANE_ANGLE_UNIT() SI_UNIT($,.RADIAN.) );
#257 = ( NAMED_UNIT(*) SI_UNIT($,.STERADIAN.) SOLID_ANGLE_UNIT() );
#258 = UNCERTAINTY_MEASURE_WITH_UNIT(LENGTH_MEASURE(1.E-07),#255,
  'distance_accuracy_value','confusion accuracy');
#259 = PRODUCT_RELATED_PRODUCT_CATEGORY('part',$,(#7));
#260 = MECHANICAL_DESIGN_GEOMETRIC_PRESENTATION_REPRESENTATION('',(#261)
  ,#254);
#261 = STYLED_ITEM('color',(#262),#15);
#262 = PRESENTATION_STYLE_ASSIGNMENT((#263));
#263 = SURFACE_STYLE_USAGE(.BOTH.,#264);
#264 = SURFACE_SIDE_STYLE('',(#265));
#265 = SURFACE_STYLE_FILL_AREA(#266);
#266 = FILL_AREA_STYLE('',(#267));
#267 = FILL_AREA_STYLE_COLOUR('',#268);
#268 = COLOUR_RGB('',0.29411765933,0.29411765933,0.29411765933);
ENDSEC;
END-ISO-10303-21;
