ISO-10303-21;
HEADER;
FILE_DESCRIPTION(('Open CASCADE Model'),'2;1');
FILE_NAME('Open CASCADE Shape Model','2026-09-18T15:44:51',('Author'),(
    'Open CASCADE'),'Open CASCADE STEP processor 7.3','Open CASCADE 7.3'
  ,'Unknown');
FILE_SCHEMA(('AUTOMOTIVE_DESIGN { 1 0 10303 214 1 1 1 1 }'));
ENDSEC;
DATA;
#1 = APPLICATION_PROTOCOL_DEFINITION('international standard',
  'automotive_design',2000,#2);
#2 = APPLICATION_CONTEXT(
  'core data for automotive mechanical design processes');
#3 = SHAPE_DEFINITION_REPRESENTATION(#4,#10);
#4 = PRODUCT_DEFINITION_SHAPE('','',#5);
#5 = PRODUCT_DEFINITION('design','',#6,#9);
#6 = PRODUCT_DEFINITION_FORMATION('','',#7);
#7 = PRODUCT('Pottmanager 96','Pottmanager 96','',(#8));
#8 = PRODUCT_CONTEXT('',#2,'mechanical');
#9 = PRODUCT_DEFINITION_CONTEXT('part definition',#2,'design');
#10 = ADVANCED_BREP_SHAPE_REPRESENTATION('',(#11,#15),#527);
#11 = AXIS2_PLACEMENT_3D('',#12,#13,#14);
#12 = CARTESIAN_POINT('',(0.,0.,0.));
#13 = DIRECTION('',(0.,0.,1.));
#14 = DIRECTION('',(1.,0.,-0.));
#15 = MANIFOLD_SOLID_BREP('',#16);
#16 = CLOSED_SHELL('',(#17,#123,#146,#170,#194,#359,#409,#460,#478,#492,
    #518));
#17 = ADVANCED_FACE('',(#18),#118,.T.);
#18 = FACE_BOUND('',#19,.F.);
#19 = EDGE_LOOP('',(#20,#31,#40,#48,#57,#66,#103,#112));
#20 = ORIENTED_EDGE('',*,*,#21,.T.);
#21 = EDGE_CURVE('',#22,#24,#26,.T.);
#22 = VERTEX_POINT('',#23);
#23 = CARTESIAN_POINT('',(4.707900529664,0.296308061462,-0.170276176642)
  );
#24 = VERTEX_POINT('',#25);
#25 = CARTESIAN_POINT('',(45.159523800252,3.754280293686,-34.64307250678
    ));
#26 = ELLIPSE('',#27,35.127649142979,35.);
#27 = AXIS2_PLACEMENT_3D('',#28,#29,#30);
#28 = CARTESIAN_POINT('',(39.707757672229,3.288240754032,
    -7.027617664189E-02));
#29 = DIRECTION('',(8.517350228695E-02,-0.996366134766,
    2.316684704495E-16));
#30 = DIRECTION('',(0.996366134766,8.517350228695E-02,1.031073431066E-16
    ));
#31 = ORIENTED_EDGE('',*,*,#32,.T.);
#32 = EDGE_CURVE('',#24,#33,#35,.T.);
#33 = VERTEX_POINT('',#34);
#34 = CARTESIAN_POINT('',(74.707757672229,25.915455697669,
    -7.027617664189E-02));
#35 = ELLIPSE('',#36,43.75,35.);
#36 = AXIS2_PLACEMENT_3D('',#37,#38,#39);
#37 = CARTESIAN_POINT('',(39.707757672229,-0.334544302331,
    -7.027617664189E-02));
#38 = DIRECTION('',(0.6,-0.8,2.511144918889E-16));
#39 = DIRECTION('',(0.8,0.6,-3.525501902323E-17));
#40 = ORIENTED_EDGE('',*,*,#41,.T.);
#41 = EDGE_CURVE('',#33,#42,#44,.T.);
#42 = VERTEX_POINT('',#43);
#43 = CARTESIAN_POINT('',(74.707757672229,29.665455697669,
    -7.027617664189E-02));
#44 = LINE('',#45,#46);
#45 = CARTESIAN_POINT('',(74.707757672229,-0.334544302331,
    -7.027617664189E-02));
#46 = VECTOR('',#47,1.);
#47 = DIRECTION('',(1.359631073447E-32,1.,-2.22044604925E-16));
#48 = ORIENTED_EDGE('',*,*,#49,.F.);
#49 = EDGE_CURVE('',#50,#42,#52,.T.);
#50 = VERTEX_POINT('',#51);
#51 = CARTESIAN_POINT('',(39.707757672229,29.665455697669,
    -35.07027617664));
#52 = CIRCLE('',#53,35.);
#53 = AXIS2_PLACEMENT_3D('',#54,#55,#56);
#54 = CARTESIAN_POINT('',(39.707757672229,29.665455697669,
    -7.02761766419E-02));
#55 = DIRECTION('',(-1.359631073447E-32,-1.,2.22044604925E-16));
#56 = DIRECTION('',(1.,1.359631073447E-32,1.224646799147E-16));
#57 = ORIENTED_EDGE('',*,*,#58,.F.);
#58 = EDGE_CURVE('',#59,#50,#61,.T.);
#59 = VERTEX_POINT('',#60);
#60 = CARTESIAN_POINT('',(4.886807610265,29.665455697669,3.465460915139)
  );
#61 = CIRCLE('',#62,35.);
#62 = AXIS2_PLACEMENT_3D('',#63,#64,#65);
#63 = CARTESIAN_POINT('',(39.707757672229,29.665455697669,
    -7.02761766419E-02));
#64 = DIRECTION('',(-1.359631073447E-32,-1.,2.22044604925E-16));
#65 = DIRECTION('',(1.,1.359631073447E-32,1.224646799147E-16));
#66 = ORIENTED_EDGE('',*,*,#67,.F.);
#67 = EDGE_CURVE('',#68,#59,#70,.T.);
#68 = VERTEX_POINT('',#69);
#69 = CARTESIAN_POINT('',(4.707757672229,15.165455697669,
    -7.027617664189E-02));
#70 = B_SPLINE_CURVE_WITH_KNOTS('',6,(#71,#72,#73,#74,#75,#76,#77,#78,
    #79,#80,#81,#82,#83,#84,#85,#86,#87,#88,#89,#90,#91,#92,#93,#94,#95,
    #96,#97,#98,#99,#100,#101,#102),.UNSPECIFIED.,.F.,.F.,(7,5,5,5,5,5,7
    ),(0.,0.26181350024,0.506325876703,0.690537141477,0.809999296698,
    0.904129410662,1.),.UNSPECIFIED.);
#71 = CARTESIAN_POINT('',(4.907108878778,0.296307461443,3.659984344401)
  );
#72 = CARTESIAN_POINT('',(4.836997883243,1.517882148526,3.005899162305)
  );
#73 = CARTESIAN_POINT('',(4.789530334531,2.759875236228,2.423852261719)
  );
#74 = CARTESIAN_POINT('',(4.758253883779,4.018283922172,1.912392784105)
  );
#75 = CARTESIAN_POINT('',(4.738261937687,5.289799065462,1.470079596239)
  );
#76 = CARTESIAN_POINT('',(4.725831350694,6.57166610284,1.095665785005));
#77 = CARTESIAN_POINT('',(4.71124245621,9.066168447089,0.50105933841));
#78 = CARTESIAN_POINT('',(4.7084592649,10.277813164444,0.272302861909));
#79 = CARTESIAN_POINT('',(4.707759736828,11.494511804724,0.101179426895)
  );
#80 = CARTESIAN_POINT('',(4.707757706402,12.714510273356,
    -1.282762611928E-02));
#81 = CARTESIAN_POINT('',(4.707757672237,13.936165596142,
    -6.998039420312E-02));
#82 = CARTESIAN_POINT('',(4.707757672224,16.078250326455,
    -7.049740512706E-02));
#83 = CARTESIAN_POINT('',(4.70775739879,16.998639040814,
    -3.844821246854E-02));
#84 = CARTESIAN_POINT('',(4.70775724693,17.918332423546,
    2.587194222364E-02));
#85 = CARTESIAN_POINT('',(4.707976916947,18.836617952942,0.122545352146)
  );
#86 = CARTESIAN_POINT('',(4.70886422555,19.752756980385,0.251736697388)
  );
#87 = CARTESIAN_POINT('',(4.712556370817,21.258218262205,0.518722281016)
  );
#88 = CARTESIAN_POINT('',(4.714577665898,21.849224121499,0.637530848676)
  );
#89 = CARTESIAN_POINT('',(4.717355075606,22.438796043216,0.770186528758)
  );
#90 = CARTESIAN_POINT('',(4.721118125328,23.026714060765,0.916771155069)
  );
#91 = CARTESIAN_POINT('',(4.726141591979,23.612744313406,1.077379885738)
  );
#92 = CARTESIAN_POINT('',(4.737954414491,24.656718506805,1.389807693919)
  );
#93 = CARTESIAN_POINT('',(4.744143437701,25.115472055378,1.536268767878)
  );
#94 = CARTESIAN_POINT('',(4.751473709795,25.57277866194,1.691556964814)
  );
#95 = CARTESIAN_POINT('',(4.760121982609,26.028508739558,1.855729363702)
  );
#96 = CARTESIAN_POINT('',(4.770285031138,26.482524221969,2.028846733828)
  );
#97 = CARTESIAN_POINT('',(4.794297050621,27.39519338305,2.39646706494));
#98 = CARTESIAN_POINT('',(4.8082107498,27.853779535705,2.591307042268));
#99 = CARTESIAN_POINT('',(4.824152680072,28.310277019074,2.795558834046)
  );
#100 = CARTESIAN_POINT('',(4.842376212997,28.764513684056,3.009289796034
    ));
#101 = CARTESIAN_POINT('',(4.863159540019,29.216305421084,3.23256797697)
  );
#102 = CARTESIAN_POINT('',(4.886807641856,29.665456297669,3.46546122625)
  );
#103 = ORIENTED_EDGE('',*,*,#104,.T.);
#104 = EDGE_CURVE('',#68,#105,#107,.T.);
#105 = VERTEX_POINT('',#106);
#106 = CARTESIAN_POINT('',(4.707900529664,15.165455697669,
    -0.170276176642));
#107 = CIRCLE('',#108,35.);
#108 = AXIS2_PLACEMENT_3D('',#109,#110,#111);
#109 = CARTESIAN_POINT('',(39.707757672229,15.165455697669,
    -7.027617664189E-02));
#110 = DIRECTION('',(-1.359631073447E-32,-1.,2.22044604925E-16));
#111 = DIRECTION('',(1.,1.359631073447E-32,1.224646799147E-16));
#112 = ORIENTED_EDGE('',*,*,#113,.F.);
#113 = EDGE_CURVE('',#22,#105,#114,.T.);
#114 = LINE('',#115,#116);
#115 = CARTESIAN_POINT('',(4.707900529664,-0.334544302331,
    -0.170276176642));
#116 = VECTOR('',#117,1.);
#117 = DIRECTION('',(1.359631073447E-32,1.,-2.22044604925E-16));
#118 = CYLINDRICAL_SURFACE('',#119,35.);
#119 = AXIS2_PLACEMENT_3D('',#120,#121,#122);
#120 = CARTESIAN_POINT('',(39.707757672229,-0.334544302331,
    -7.027617664189E-02));
#121 = DIRECTION('',(1.359631073447E-32,1.,-2.22044604925E-16));
#122 = DIRECTION('',(1.,1.359631073447E-32,1.224646799147E-16));
#123 = ADVANCED_FACE('',(#124),#141,.F.);
#124 = FACE_BOUND('',#125,.T.);
#125 = EDGE_LOOP('',(#126,#134,#140));
#126 = ORIENTED_EDGE('',*,*,#127,.F.);
#127 = EDGE_CURVE('',#128,#24,#130,.T.);
#128 = VERTEX_POINT('',#129);
#129 = CARTESIAN_POINT('',(45.159523800252,3.754280293686,
    -0.170276176642));
#130 = LINE('',#131,#132);
#131 = CARTESIAN_POINT('',(45.159523800252,3.754280293686,
    34.929723823358));
#132 = VECTOR('',#133,1.);
#133 = DIRECTION('',(1.224646799147E-16,-2.22044604925E-16,-1.));
#134 = ORIENTED_EDGE('',*,*,#135,.T.);
#135 = EDGE_CURVE('',#128,#22,#136,.T.);
#136 = LINE('',#137,#138);
#137 = CARTESIAN_POINT('',(-12.73019275258,-1.19437234831,
    -0.170276176642));
#138 = VECTOR('',#139,1.);
#139 = DIRECTION('',(-0.996366134766,-8.517350228695E-02,
    -1.031073431066E-16));
#140 = ORIENTED_EDGE('',*,*,#21,.T.);
#141 = PLANE('',#142);
#142 = AXIS2_PLACEMENT_3D('',#143,#144,#145);
#143 = CARTESIAN_POINT('',(-0.332243327771,-0.134544302331,
    -7.02761766419E-02));
#144 = DIRECTION('',(-8.517350228695E-02,0.996366134766,
    -2.316684704495E-16));
#145 = DIRECTION('',(-1.224646799147E-16,2.22044604925E-16,1.));
#146 = ADVANCED_FACE('',(#147),#165,.T.);
#147 = FACE_BOUND('',#148,.F.);
#148 = EDGE_LOOP('',(#149,#150,#151,#159));
#149 = ORIENTED_EDGE('',*,*,#135,.T.);
#150 = ORIENTED_EDGE('',*,*,#113,.T.);
#151 = ORIENTED_EDGE('',*,*,#152,.T.);
#152 = EDGE_CURVE('',#105,#153,#155,.T.);
#153 = VERTEX_POINT('',#154);
#154 = CARTESIAN_POINT('',(60.374424338896,15.165455697669,
    -0.170276176642));
#155 = LINE('',#156,#157);
#156 = CARTESIAN_POINT('',(-25.29224232777,15.165455697669,
    -0.170276176642));
#157 = VECTOR('',#158,1.);
#158 = DIRECTION('',(1.,1.359631073447E-32,1.224646799147E-16));
#159 = ORIENTED_EDGE('',*,*,#160,.F.);
#160 = EDGE_CURVE('',#128,#153,#161,.T.);
#161 = LINE('',#162,#163);
#162 = CARTESIAN_POINT('',(18.907757672229,-15.93454430233,
    -0.170276176642));
#163 = VECTOR('',#164,1.);
#164 = DIRECTION('',(0.8,0.6,-3.525501902323E-17));
#165 = PLANE('',#166);
#166 = AXIS2_PLACEMENT_3D('',#167,#168,#169);
#167 = CARTESIAN_POINT('',(-25.29224232777,-0.334544302331,
    -0.170276176642));
#168 = DIRECTION('',(-1.224646799147E-16,2.22044604925E-16,1.));
#169 = DIRECTION('',(-1.,-1.359631073447E-32,-1.224646799147E-16));
#170 = ADVANCED_FACE('',(#171),#189,.F.);
#171 = FACE_BOUND('',#172,.T.);
#172 = EDGE_LOOP('',(#173,#181,#182,#183));
#173 = ORIENTED_EDGE('',*,*,#174,.T.);
#174 = EDGE_CURVE('',#175,#68,#177,.T.);
#175 = VERTEX_POINT('',#176);
#176 = CARTESIAN_POINT('',(60.374424338896,15.165455697669,
    -7.027617664189E-02));
#177 = LINE('',#178,#179);
#178 = CARTESIAN_POINT('',(107.70775767222,15.165455697669,
    -7.027617664189E-02));
#179 = VECTOR('',#180,1.);
#180 = DIRECTION('',(-1.,-1.359631073447E-32,-1.224646799147E-16));
#181 = ORIENTED_EDGE('',*,*,#104,.T.);
#182 = ORIENTED_EDGE('',*,*,#152,.T.);
#183 = ORIENTED_EDGE('',*,*,#184,.F.);
#184 = EDGE_CURVE('',#175,#153,#185,.T.);
#185 = LINE('',#186,#187);
#186 = CARTESIAN_POINT('',(60.374424338896,15.165455697669,
    52.404723823358));
#187 = VECTOR('',#188,1.);
#188 = DIRECTION('',(1.224646799147E-16,-2.22044604925E-16,-1.));
#189 = PLANE('',#190);
#190 = AXIS2_PLACEMENT_3D('',#191,#192,#193);
#191 = CARTESIAN_POINT('',(44.707757672229,15.165455697669,
    34.879723823358));
#192 = DIRECTION('',(1.359631073447E-32,1.,-2.22044604925E-16));
#193 = DIRECTION('',(-1.224646799147E-16,2.22044604925E-16,1.));
#194 = ADVANCED_FACE('',(#195),#354,.F.);
#195 = FACE_BOUND('',#196,.T.);
#196 = EDGE_LOOP('',(#197,#198,#199,#208,#231,#254,#333));
#197 = ORIENTED_EDGE('',*,*,#67,.F.);
#198 = ORIENTED_EDGE('',*,*,#174,.F.);
#199 = ORIENTED_EDGE('',*,*,#200,.T.);
#200 = EDGE_CURVE('',#175,#201,#203,.T.);
#201 = VERTEX_POINT('',#202);
#202 = CARTESIAN_POINT('',(74.65736966689,25.877664693665,1.807121331131
    ));
#203 = ELLIPSE('',#204,52.5,31.5);
#204 = AXIS2_PLACEMENT_3D('',#205,#206,#207);
#205 = CARTESIAN_POINT('',(60.374424338896,15.165455697669,
    31.429723823358));
#206 = DIRECTION('',(0.6,-0.8,2.511144918889E-16));
#207 = DIRECTION('',(-0.8,-0.6,3.525501902323E-17));
#208 = ORIENTED_EDGE('',*,*,#209,.T.);
#209 = EDGE_CURVE('',#201,#210,#212,.T.);
#210 = VERTEX_POINT('',#211);
#211 = CARTESIAN_POINT('',(74.528707734194,29.665455697669,
    3.465460915139));
#212 = B_SPLINE_CURVE_WITH_KNOTS('',5,(#213,#214,#215,#216,#217,#218,
    #219,#220,#221,#222,#223,#224,#225,#226,#227,#228,#229,#230),
  .UNSPECIFIED.,.F.,.F.,(6,4,4,4,6),(0.,0.371233459957,0.614126321538,
    0.804882762504,1.),.UNSPECIFIED.);
#213 = CARTESIAN_POINT('',(74.707757672229,15.165456167055,
    -7.027617664189E-02));
#214 = CARTESIAN_POINT('',(74.707757672229,16.263715054223,
    -7.027616027656E-02));
#215 = CARTESIAN_POINT('',(74.707758072248,17.361955519958,
    -2.241264516939E-02));
#216 = CARTESIAN_POINT('',(74.707756327232,18.458826958868,
    7.331430460091E-02));
#217 = CARTESIAN_POINT('',(74.707106537464,19.552903012269,
    0.217147083446));
#218 = CARTESIAN_POINT('',(74.702741994585,21.355706329701,
    0.535467823633));
#219 = CARTESIAN_POINT('',(74.700164383643,22.066886913217,0.68216648361
    ));
#220 = CARTESIAN_POINT('',(74.69635888125,22.775806324154,0.849801770453
    ));
#221 = CARTESIAN_POINT('',(74.690820676258,23.482006659762,
    1.038552438385));
#222 = CARTESIAN_POINT('',(74.676676639241,24.737075951032,
    1.413626333953));
#223 = CARTESIAN_POINT('',(74.66898441938,25.287178437072,1.59177416664)
  );
#224 = CARTESIAN_POINT('',(74.659506021,25.83505359,1.783185751099));
#225 = CARTESIAN_POINT('',(74.647869915427,26.380433995441,
    1.987979219765));
#226 = CARTESIAN_POINT('',(74.619085469849,27.478023960105,
    2.429576503253));
#227 = CARTESIAN_POINT('',(74.601817122702,28.030107576316,
    2.667006258232));
#228 = CARTESIAN_POINT('',(74.581368988303,28.578954003081,
    2.918705031642));
#229 = CARTESIAN_POINT('',(74.557205086083,29.124202506603,
    3.184810868747));
#230 = CARTESIAN_POINT('',(74.528707702603,29.665456297669,3.46546122625
    ));
#231 = ORIENTED_EDGE('',*,*,#232,.T.);
#232 = EDGE_CURVE('',#210,#233,#235,.T.);
#233 = VERTEX_POINT('',#234);
#234 = CARTESIAN_POINT('',(73.953891810147,39.665455697669,
    11.630733950135));
#235 = B_SPLINE_CURVE_WITH_KNOTS('',5,(#236,#237,#238,#239,#240,#241,
    #242,#243,#244,#245,#246,#247,#248,#249,#250,#251,#252,#253),
  .UNSPECIFIED.,.F.,.F.,(6,4,4,4,6),(0.,0.240117044126,0.495991168642,
    0.731998557832,1.),.UNSPECIFIED.);
#236 = CARTESIAN_POINT('',(74.528707690885,29.665455697669,
    3.465460915139));
#237 = CARTESIAN_POINT('',(74.581790890166,30.221012135045,
    3.753527463224));
#238 = CARTESIAN_POINT('',(74.629066080395,30.770327218961,
    4.055863346048));
#239 = CARTESIAN_POINT('',(74.669736554479,31.312902213855,
    4.372324904133));
#240 = CARTESIAN_POINT('',(74.702904817725,31.848148121357,
    4.702694931131));
#241 = CARTESIAN_POINT('',(74.753910632875,32.937273927371,
    5.413142654967));
#242 = CARTESIAN_POINT('',(74.770598667246,33.49006272953,5.795053775761
    ));
#243 = CARTESIAN_POINT('',(74.776487360461,34.032983933968,
    6.191952837111));
#244 = CARTESIAN_POINT('',(74.770296187462,34.565085528598,
    6.603218087579));
#245 = CARTESIAN_POINT('',(74.732746116234,35.565190933352,
    7.419632019586));
#246 = CARTESIAN_POINT('',(74.703378737228,36.034961459564,
    7.822774379447));
#247 = CARTESIAN_POINT('',(74.661674829676,36.493820599937,
    8.236590479966));
#248 = CARTESIAN_POINT('',(74.606665118101,36.940869829624,8.66008370372
    ));
#249 = CARTESIAN_POINT('',(74.459094097336,37.868461813009,
    9.582360154768));
#250 = CARTESIAN_POINT('',(74.362449788775,38.345351374519,
    10.083588758603));
#251 = CARTESIAN_POINT('',(74.246488281965,38.804545626445,
    10.593680139703));
#252 = CARTESIAN_POINT('',(74.110371691336,39.244873905921,
    11.110290557467));
#253 = CARTESIAN_POINT('',(73.953891828749,39.665455697669,
    11.630733950135));
#254 = ORIENTED_EDGE('',*,*,#255,.T.);
#255 = EDGE_CURVE('',#233,#256,#258,.T.);
#256 = VERTEX_POINT('',#257);
#257 = CARTESIAN_POINT('',(15.461623534312,39.665455697669,
    11.630733950135));
#258 = B_SPLINE_CURVE_WITH_KNOTS('',7,(#259,#260,#261,#262,#263,#264,
    #265,#266,#267,#268,#269,#270,#271,#272,#273,#274,#275,#276,#277,
    #278,#279,#280,#281,#282,#283,#284,#285,#286,#287,#288,#289,#290,
    #291,#292,#293,#294,#295,#296,#297,#298,#299,#300,#301,#302,#303,
    #304,#305,#306,#307,#308,#309,#310,#311,#312,#313,#314,#315,#316,
    #317,#318,#319,#320,#321,#322,#323,#324,#325,#326,#327,#328,#329,
    #330,#331,#332),.UNSPECIFIED.,.F.,.F.,(8,6,6,6,6,6,6,6,6,6,6,6,8),(
    0.,6.271437413346E-02,0.147825814245,0.199494790495,0.264701787301,
    0.315882031191,0.499998956491,0.684268316467,0.735356334225,
    0.800993206063,0.852730740819,0.937488422622,1.),.UNSPECIFIED.);
#259 = CARTESIAN_POINT('',(73.953891810147,39.665455697669,
    11.630733950135));
#260 = CARTESIAN_POINT('',(73.731217661363,40.115227124791,
    12.187297695813));
#261 = CARTESIAN_POINT('',(73.489802694863,40.549514550627,
    12.754874549495));
#262 = CARTESIAN_POINT('',(73.228981697136,40.966815480098,
    13.331426996323));
#263 = CARTESIAN_POINT('',(72.948259218468,41.365981726082,
    13.914833713671));
#264 = CARTESIAN_POINT('',(72.647340979299,41.746189566469,
    14.502916135011));
#265 = CARTESIAN_POINT('',(72.326165276573,42.106909901216,
    15.093465013778));
#266 = CARTESIAN_POINT('',(71.52184036165,42.910616356889,
    16.486060953549));
#267 = CARTESIAN_POINT('',(71.022705178162,43.336079501751,
    17.286768497676));
#268 = CARTESIAN_POINT('',(70.488095970672,43.724057986308,
    18.081190036368));
#269 = CARTESIAN_POINT('',(69.919397286677,44.075130502466,
    18.864161490746));
#270 = CARTESIAN_POINT('',(69.31892381843,44.39054627396,19.63064561081)
  );
#271 = CARTESIAN_POINT('',(68.690041407162,44.672095831743,
    20.37584315054));
#272 = CARTESIAN_POINT('',(67.641031494483,45.073663146333,
    21.53210223235));
#273 = CARTESIAN_POINT('',(67.235609737028,45.213821089761,
    21.959802527118));
#274 = CARTESIAN_POINT('',(66.821523069298,45.343085556567,
    22.377949453285));
#275 = CARTESIAN_POINT('',(66.399309898672,45.462090074826,
    22.786099719106));
#276 = CARTESIAN_POINT('',(65.969555759279,45.571458566644,
    23.183844751817));
#277 = CARTESIAN_POINT('',(65.532894049811,45.671803357881,
    23.570813383789));
#278 = CARTESIAN_POINT('',(64.53107660765,45.879727345444,24.42101676306
    ));
#279 = CARTESIAN_POINT('',(63.962148252944,45.98233045427,
    24.877738536008));
#280 = CARTESIAN_POINT('',(63.384043149767,46.072840476927,
    25.31662784014));
#281 = CARTESIAN_POINT('',(62.797577524051,46.152468993818,
    25.737530872666));
#282 = CARTESIAN_POINT('',(62.203561275343,46.22233607653,
    26.140347404404));
#283 = CARTESIAN_POINT('',(61.602796867044,46.283475161168,
    26.525026138802));
#284 = CARTESIAN_POINT('',(60.519871520717,46.378721756748,
    27.179248462707));
#285 = CARTESIAN_POINT('',(60.039906039622,46.415822900493,
    27.455813625529));
#286 = CARTESIAN_POINT('',(59.556457874774,46.448607045065,
    27.721308410956));
#287 = CARTESIAN_POINT('',(59.06978928701,46.477503751867,
    27.975792011337));
#288 = CARTESIAN_POINT('',(58.580148458196,46.502908679033,
    28.219328579112));
#289 = CARTESIAN_POINT('',(58.087769252823,46.525185808896,
    28.451985846088));
#290 = CARTESIAN_POINT('',(55.812513140874,46.614761361816,
    29.471914203168));
#291 = CARTESIAN_POINT('',(53.999462563641,46.648707988918,
    30.130147211686));
#292 = CARTESIAN_POINT('',(52.162765854837,46.662111456575,
    30.652280617825));
#293 = CARTESIAN_POINT('',(50.309634711848,46.665453378714,
    31.041558662318));
#294 = CARTESIAN_POINT('',(48.446000586919,46.665456235732,
    31.300306634916));
#295 = CARTESIAN_POINT('',(46.577052988028,46.665455697669,
    31.429723823358));
#296 = CARTESIAN_POINT('',(42.836914723448,46.665455697669,
    31.429723823358));
#297 = CARTESIAN_POINT('',(40.966421139161,46.665456239472,
    31.300092251088));
#298 = CARTESIAN_POINT('',(39.1012538731,46.66545336282,31.040915993921)
  );
#299 = CARTESIAN_POINT('',(37.246614926897,46.662100386707,
    30.650991502263));
#300 = CARTESIAN_POINT('',(35.408451751108,46.648652467482,
    30.127985576292));
#301 = CARTESIAN_POINT('',(33.593997834101,46.614592542088,
    29.468643597445));
#302 = CARTESIAN_POINT('',(31.318368561426,46.524764454216,
    28.44756703445));
#303 = CARTESIAN_POINT('',(30.826920516882,46.502477684175,
    28.21515476438));
#304 = CARTESIAN_POINT('',(30.33820389584,46.477069661442,
    27.971901428819));
#305 = CARTESIAN_POINT('',(29.852451518842,46.448178052921,
    27.717739721895));
#306 = CARTESIAN_POINT('',(29.369910420133,46.415409065576,
    27.452605912421));
#307 = CARTESIAN_POINT('',(28.890841611005,46.378335238704,
    27.176441213599));
#308 = CARTESIAN_POINT('',(27.804835864273,46.282735461376,
    26.52014254194));
#309 = CARTESIAN_POINT('',(27.200184496306,46.221093726727,
    26.132704736747));
#310 = CARTESIAN_POINT('',(26.602377810377,46.150597096049,
    25.726887941492));
#311 = CARTESIAN_POINT('',(26.012236302964,46.070190788421,
    25.302746049215));
#312 = CARTESIAN_POINT('',(25.430587751699,45.978731175042,
    24.860383414262));
#313 = CARTESIAN_POINT('',(24.858266071176,45.874980776052,
    24.399959624887));
#314 = CARTESIAN_POINT('',(23.85299702631,45.665081732752,
    23.544706929799));
#315 = CARTESIAN_POINT('',(23.416148820204,45.564082674261,
    23.156590702986));
#316 = CARTESIAN_POINT('',(22.986253179604,45.454004688452,
    22.757682336985));
#317 = CARTESIAN_POINT('',(22.563948161195,45.334233093293,
    22.34835907402));
#318 = CARTESIAN_POINT('',(22.149823014006,45.204141967994,
    21.92903588278));
#319 = CARTESIAN_POINT('',(21.74441894423,45.063096202852,
    21.500162684234));
#320 = CARTESIAN_POINT('',(20.699183364898,44.660390658801,
    20.34477585543));
#321 = CARTESIAN_POINT('',(20.073913749896,44.378836705195,
    19.601939348674));
#322 = CARTESIAN_POINT('',(19.476897965282,44.063638273881,
    18.838107313984));
#323 = CARTESIAN_POINT('',(18.911449949048,43.713040786364,
    18.058036566758));
#324 = CARTESIAN_POINT('',(18.379847574869,43.325826479508,
    17.266716852399));
#325 = CARTESIAN_POINT('',(17.88345164761,42.901441419852,
    16.469261431961));
#326 = CARTESIAN_POINT('',(17.083083742236,42.099865606101,
    15.081937771554));
#327 = CARTESIAN_POINT('',(16.763280656007,41.740001834254,
    14.493348819368));
#328 = CARTESIAN_POINT('',(16.463603697061,41.360785189184,
    13.907240837345));
#329 = CARTESIAN_POINT('',(16.183988802706,40.962742076305,
    13.325800281096));
#330 = CARTESIAN_POINT('',(15.92414273606,40.546689683581,
    12.751183134302));
#331 = CARTESIAN_POINT('',(15.683573963868,40.113765310603,
    12.185488793044));
#332 = CARTESIAN_POINT('',(15.461623534312,39.665455697669,
    11.630733950135));
#333 = ORIENTED_EDGE('',*,*,#334,.F.);
#334 = EDGE_CURVE('',#59,#256,#335,.T.);
#335 = B_SPLINE_CURVE_WITH_KNOTS('',5,(#336,#337,#338,#339,#340,#341,
    #342,#343,#344,#345,#346,#347,#348,#349,#350,#351,#352,#353),
  .UNSPECIFIED.,.F.,.F.,(6,4,4,4,6),(0.,0.22109094098,0.455007716395,
    0.710321776853,1.),.UNSPECIFIED.);
#336 = CARTESIAN_POINT('',(4.886807653574,29.665455697669,3.465460915139
    ));
#337 = CARTESIAN_POINT('',(5.351662912637,30.179420048486,3.731961177611
    ));
#338 = CARTESIAN_POINT('',(5.81606236677,30.687948742001,4.010625503169)
  );
#339 = CARTESIAN_POINT('',(6.280107619762,31.19050175699,4.301254070717)
  );
#340 = CARTESIAN_POINT('',(6.743933363932,31.686514572881,4.603579367629
    ));
#341 = CARTESIAN_POINT('',(7.698377415614,32.692677338541,5.24911654492)
  );
#342 = CARTESIAN_POINT('',(8.188989663343,33.201978779199,5.59368325813)
  );
#343 = CARTESIAN_POINT('',(8.679733468813,33.702641835133,5.950533572197
    ));
#344 = CARTESIAN_POINT('',(9.170842842742,34.193984003114,6.319147789905
    ));
#345 = CARTESIAN_POINT('',(10.199298507806,35.200747137938,
    7.113372657543));
#346 = CARTESIAN_POINT('',(10.736765693081,35.71426016976,7.541113172996
    ));
#347 = CARTESIAN_POINT('',(11.275321965332,36.21503556082,7.981289867532
    ));
#348 = CARTESIAN_POINT('',(11.815353240816,36.702264391681,
    8.432920270697));
#349 = CARTESIAN_POINT('',(12.972107943951,37.711869053726,
    9.419000758505));
#350 = CARTESIAN_POINT('',(13.589371666946,38.23014993485,9.95641714966)
  );
#351 = CARTESIAN_POINT('',(14.209638305368,38.729041116874,
    10.505469333604));
#352 = CARTESIAN_POINT('',(14.83352709597,39.207678065729,
    11.064263055462));
#353 = CARTESIAN_POINT('',(15.46162351571,39.665455697669,
    11.630733950135));
#354 = CYLINDRICAL_SURFACE('',#355,31.5);
#355 = AXIS2_PLACEMENT_3D('',#356,#357,#358);
#356 = CARTESIAN_POINT('',(107.70775767222,15.165455697669,
    31.429723823358));
#357 = DIRECTION('',(-1.,-1.359631073447E-32,-1.224646799147E-16));
#358 = DIRECTION('',(-1.224646799147E-16,2.22044604925E-16,1.));
#359 = ADVANCED_FACE('',(#360),#378,.F.);
#360 = FACE_BOUND('',#361,.F.);
#361 = EDGE_LOOP('',(#362,#363,#370,#377));
#362 = ORIENTED_EDGE('',*,*,#58,.T.);
#363 = ORIENTED_EDGE('',*,*,#364,.T.);
#364 = EDGE_CURVE('',#50,#365,#367,.T.);
#365 = VERTEX_POINT('',#366);
#366 = CARTESIAN_POINT('',(44.707757672229,39.665455697669,
    -31.57027617664));
#367 = B_SPLINE_CURVE_WITH_KNOTS('',1,(#368,#369),.UNSPECIFIED.,.F.,.F.,
  (2,2),(0.,1.),.PIECEWISE_BEZIER_KNOTS.);
#368 = CARTESIAN_POINT('',(39.707757672229,29.665455697669,
    -35.07027617664));
#369 = CARTESIAN_POINT('',(44.707757672229,39.665455697669,
    -31.57027617664));
#370 = ORIENTED_EDGE('',*,*,#371,.F.);
#371 = EDGE_CURVE('',#256,#365,#372,.T.);
#372 = CIRCLE('',#373,31.5);
#373 = AXIS2_PLACEMENT_3D('',#374,#375,#376);
#374 = CARTESIAN_POINT('',(44.707757672229,39.665455697669,
    -7.02761766419E-02));
#375 = DIRECTION('',(-1.359631073447E-32,-1.,2.22044604925E-16));
#376 = DIRECTION('',(1.224646799147E-16,-2.22044604925E-16,-1.));
#377 = ORIENTED_EDGE('',*,*,#334,.F.);
#378 = B_SPLINE_SURFACE_WITH_KNOTS('',14,1,(
    (#379,#380)
    ,(#381,#382)
    ,(#383,#384)
    ,(#385,#386)
    ,(#387,#388)
    ,(#389,#390)
    ,(#391,#392)
    ,(#393,#394)
    ,(#395,#396)
    ,(#397,#398)
    ,(#399,#400)
    ,(#401,#402)
    ,(#403,#404)
    ,(#405,#406)
    ,(#407,#408
    )),.UNSPECIFIED.,.T.,.F.,.F.,(15,15),(2,2),(0.,6.28318530718),(0.,1.
    ),.PIECEWISE_BEZIER_KNOTS.);
#379 = CARTESIAN_POINT('',(39.707757672229,29.665455697669,
    -35.07027617664));
#380 = CARTESIAN_POINT('',(44.707757672229,39.665455697669,
    -31.57027617664));
#381 = CARTESIAN_POINT('',(55.415720940191,29.665455697672,
    -35.07027617664));
#382 = CARTESIAN_POINT('',(58.844924613393,39.665455697668,
    -31.57027617664));
#383 = CARTESIAN_POINT('',(71.123690006283,29.665455697655,
    -27.47827353466));
#384 = CARTESIAN_POINT('',(72.982096772886,39.665455697675,
    -24.73747379884));
#385 = CARTESIAN_POINT('',(82.85643480232,29.665455697698,
    -12.29425854502));
#386 = CARTESIAN_POINT('',(83.54156708929,39.665455697639,
    -11.07186030823));
#387 = CARTESIAN_POINT('',(86.639173526083,29.665455697632,
    8.211095339103));
#388 = CARTESIAN_POINT('',(86.946031940735,39.665455697754,
    7.382958187627));
#389 = CARTESIAN_POINT('',(79.921947807673,29.665455697689,
    29.496871937664));
#390 = CARTESIAN_POINT('',(80.900528794079,39.66545569749,26.54015712607
    ));
#391 = CARTESIAN_POINT('',(63.013741256378,29.665455697694,
    45.746183381142));
#392 = CARTESIAN_POINT('',(65.68314289801,39.665455697949,
    41.164537425585));
#393 = CARTESIAN_POINT('',(39.70775767279,29.665455697593,
    51.863724895362));
#394 = CARTESIAN_POINT('',(44.707757672707,39.665455697328,
    46.67032478791));
#395 = CARTESIAN_POINT('',(16.401774087058,29.665455697774,
    45.746183381129));
#396 = CARTESIAN_POINT('',(23.732372445573,39.665455697997,
    41.164537425589));
#397 = CARTESIAN_POINT('',(-0.506432462438,29.665455697569,
    29.496871937682));
#398 = CARTESIAN_POINT('',(8.51498655105,39.665455697417,26.540157126066
    ));
#399 = CARTESIAN_POINT('',(-7.223658182105,29.66545569774,8.211095339087
    ));
#400 = CARTESIAN_POINT('',(2.469483403305,39.665455697823,7.38295818763)
  );
#401 = CARTESIAN_POINT('',(-3.440919457624,29.665455697631,
    -12.29425854501));
#402 = CARTESIAN_POINT('',(5.873948255377,39.665455697595,
    -11.07186030823));
#403 = CARTESIAN_POINT('',(8.291825338089,29.665455697683,
    -27.47827353466));
#404 = CARTESIAN_POINT('',(16.433418571497,39.665455697695,
    -24.73747379884));
#405 = CARTESIAN_POINT('',(23.999794404287,29.665455697666,
    -35.07027617664));
#406 = CARTESIAN_POINT('',(30.570590731082,39.665455697663,
    -31.57027617664));
#407 = CARTESIAN_POINT('',(39.707757672229,29.665455697669,
    -35.07027617664));
#408 = CARTESIAN_POINT('',(44.707757672229,39.665455697669,
    -31.57027617664));
#409 = ADVANCED_FACE('',(#410),#429,.F.);
#410 = FACE_BOUND('',#411,.F.);
#411 = EDGE_LOOP('',(#412,#413,#414,#421,#422));
#412 = ORIENTED_EDGE('',*,*,#364,.F.);
#413 = ORIENTED_EDGE('',*,*,#49,.T.);
#414 = ORIENTED_EDGE('',*,*,#415,.T.);
#415 = EDGE_CURVE('',#42,#210,#416,.T.);
#416 = CIRCLE('',#417,35.);
#417 = AXIS2_PLACEMENT_3D('',#418,#419,#420);
#418 = CARTESIAN_POINT('',(39.707757672229,29.665455697669,
    -7.02761766419E-02));
#419 = DIRECTION('',(-1.359631073447E-32,-1.,2.22044604925E-16));
#420 = DIRECTION('',(1.,1.359631073447E-32,1.224646799147E-16));
#421 = ORIENTED_EDGE('',*,*,#232,.T.);
#422 = ORIENTED_EDGE('',*,*,#423,.F.);
#423 = EDGE_CURVE('',#365,#233,#424,.T.);
#424 = CIRCLE('',#425,31.5);
#425 = AXIS2_PLACEMENT_3D('',#426,#427,#428);
#426 = CARTESIAN_POINT('',(44.707757672229,39.665455697669,
    -7.02761766419E-02));
#427 = DIRECTION('',(-1.359631073447E-32,-1.,2.22044604925E-16));
#428 = DIRECTION('',(1.224646799147E-16,-2.22044604925E-16,-1.));
#429 = B_SPLINE_SURFACE_WITH_KNOTS('',14,1,(
    (#430,#431)
    ,(#432,#433)
    ,(#434,#435)
    ,(#436,#437)
    ,(#438,#439)
    ,(#440,#441)
    ,(#442,#443)
    ,(#444,#445)
    ,(#446,#447)
    ,(#448,#449)
    ,(#450,#451)
    ,(#452,#453)
    ,(#454,#455)
    ,(#456,#457)
    ,(#458,#459
    )),.UNSPECIFIED.,.T.,.F.,.F.,(15,15),(2,2),(0.,6.28318530718),(0.,1.
    ),.PIECEWISE_BEZIER_KNOTS.);
#430 = CARTESIAN_POINT('',(39.707757672229,29.665455697669,
    -35.07027617664));
#431 = CARTESIAN_POINT('',(44.707757672229,39.665455697669,
    -31.57027617664));
#432 = CARTESIAN_POINT('',(55.415720940191,29.665455697672,
    -35.07027617664));
#433 = CARTESIAN_POINT('',(58.844924613393,39.665455697668,
    -31.57027617664));
#434 = CARTESIAN_POINT('',(71.123690006283,29.665455697655,
    -27.47827353466));
#435 = CARTESIAN_POINT('',(72.982096772886,39.665455697675,
    -24.73747379884));
#436 = CARTESIAN_POINT('',(82.85643480232,29.665455697698,
    -12.29425854502));
#437 = CARTESIAN_POINT('',(83.54156708929,39.665455697639,
    -11.07186030823));
#438 = CARTESIAN_POINT('',(86.639173526083,29.665455697632,
    8.211095339103));
#439 = CARTESIAN_POINT('',(86.946031940735,39.665455697754,
    7.382958187627));
#440 = CARTESIAN_POINT('',(79.921947807673,29.665455697689,
    29.496871937664));
#441 = CARTESIAN_POINT('',(80.900528794079,39.66545569749,26.54015712607
    ));
#442 = CARTESIAN_POINT('',(63.013741256378,29.665455697694,
    45.746183381142));
#443 = CARTESIAN_POINT('',(65.68314289801,39.665455697949,
    41.164537425585));
#444 = CARTESIAN_POINT('',(39.70775767279,29.665455697593,
    51.863724895362));
#445 = CARTESIAN_POINT('',(44.707757672707,39.665455697328,
    46.67032478791));
#446 = CARTESIAN_POINT('',(16.401774087058,29.665455697774,
    45.746183381129));
#447 = CARTESIAN_POINT('',(23.732372445573,39.665455697997,
    41.164537425589));
#448 = CARTESIAN_POINT('',(-0.506432462438,29.665455697569,
    29.496871937682));
#449 = CARTESIAN_POINT('',(8.51498655105,39.665455697417,26.540157126066
    ));
#450 = CARTESIAN_POINT('',(-7.223658182105,29.66545569774,8.211095339087
    ));
#451 = CARTESIAN_POINT('',(2.469483403305,39.665455697823,7.38295818763)
  );
#452 = CARTESIAN_POINT('',(-3.440919457624,29.665455697631,
    -12.29425854501));
#453 = CARTESIAN_POINT('',(5.873948255377,39.665455697595,
    -11.07186030823));
#454 = CARTESIAN_POINT('',(8.291825338089,29.665455697683,
    -27.47827353466));
#455 = CARTESIAN_POINT('',(16.433418571497,39.665455697695,
    -24.73747379884));
#456 = CARTESIAN_POINT('',(23.999794404287,29.665455697666,
    -35.07027617664));
#457 = CARTESIAN_POINT('',(30.570590731082,39.665455697663,
    -31.57027617664));
#458 = CARTESIAN_POINT('',(39.707757672229,29.665455697669,
    -35.07027617664));
#459 = CARTESIAN_POINT('',(44.707757672229,39.665455697669,
    -31.57027617664));
#460 = ADVANCED_FACE('',(#461),#473,.T.);
#461 = FACE_BOUND('',#462,.F.);
#462 = EDGE_LOOP('',(#463,#464,#465,#472));
#463 = ORIENTED_EDGE('',*,*,#415,.F.);
#464 = ORIENTED_EDGE('',*,*,#41,.F.);
#465 = ORIENTED_EDGE('',*,*,#466,.T.);
#466 = EDGE_CURVE('',#33,#201,#467,.T.);
#467 = ELLIPSE('',#468,43.75,35.);
#468 = AXIS2_PLACEMENT_3D('',#469,#470,#471);
#469 = CARTESIAN_POINT('',(39.707757672229,-0.334544302331,
    -7.027617664189E-02));
#470 = DIRECTION('',(0.6,-0.8,2.511144918889E-16));
#471 = DIRECTION('',(0.8,0.6,-3.525501902323E-17));
#472 = ORIENTED_EDGE('',*,*,#209,.T.);
#473 = CYLINDRICAL_SURFACE('',#474,35.);
#474 = AXIS2_PLACEMENT_3D('',#475,#476,#477);
#475 = CARTESIAN_POINT('',(39.707757672229,-0.334544302331,
    -7.027617664189E-02));
#476 = DIRECTION('',(1.359631073447E-32,1.,-2.22044604925E-16));
#477 = DIRECTION('',(1.,1.359631073447E-32,1.224646799147E-16));
#478 = ADVANCED_FACE('',(#479),#487,.F.);
#479 = FACE_BOUND('',#480,.T.);
#480 = EDGE_LOOP('',(#481,#482,#483,#484,#485,#486));
#481 = ORIENTED_EDGE('',*,*,#127,.T.);
#482 = ORIENTED_EDGE('',*,*,#32,.T.);
#483 = ORIENTED_EDGE('',*,*,#466,.T.);
#484 = ORIENTED_EDGE('',*,*,#200,.F.);
#485 = ORIENTED_EDGE('',*,*,#184,.T.);
#486 = ORIENTED_EDGE('',*,*,#160,.F.);
#487 = PLANE('',#488);
#488 = AXIS2_PLACEMENT_3D('',#489,#490,#491);
#489 = CARTESIAN_POINT('',(39.707757672229,-0.334544302331,
    69.929723823358));
#490 = DIRECTION('',(-0.6,0.8,-2.511144918889E-16));
#491 = DIRECTION('',(-0.8,-0.6,3.525501902323E-17));
#492 = ADVANCED_FACE('',(#493),#513,.T.);
#493 = FACE_BOUND('',#494,.F.);
#494 = EDGE_LOOP('',(#495,#502,#503,#504,#505,#506));
#495 = ORIENTED_EDGE('',*,*,#496,.F.);
#496 = EDGE_CURVE('',#365,#497,#499,.T.);
#497 = VERTEX_POINT('',#498);
#498 = CARTESIAN_POINT('',(44.707757672229,69.665455697669,
    -31.57027617664));
#499 = B_SPLINE_CURVE_WITH_KNOTS('',1,(#500,#501),.UNSPECIFIED.,.F.,.F.,
  (2,2),(0.,1.),.PIECEWISE_BEZIER_KNOTS.);
#500 = CARTESIAN_POINT('',(44.707757672229,39.665455697669,
    -31.57027617664));
#501 = CARTESIAN_POINT('',(44.707757672229,69.665455697669,
    -31.57027617664));
#502 = ORIENTED_EDGE('',*,*,#423,.T.);
#503 = ORIENTED_EDGE('',*,*,#255,.T.);
#504 = ORIENTED_EDGE('',*,*,#371,.T.);
#505 = ORIENTED_EDGE('',*,*,#496,.T.);
#506 = ORIENTED_EDGE('',*,*,#507,.F.);
#507 = EDGE_CURVE('',#497,#497,#508,.T.);
#508 = CIRCLE('',#509,31.5);
#509 = AXIS2_PLACEMENT_3D('',#510,#511,#512);
#510 = CARTESIAN_POINT('',(44.707757672229,69.665455697669,
    -7.027617664191E-02));
#511 = DIRECTION('',(-1.359631073447E-32,-1.,2.22044604925E-16));
#512 = DIRECTION('',(1.224646799147E-16,-2.22044604925E-16,-1.));
#513 = CYLINDRICAL_SURFACE('',#514,31.5);
#514 = AXIS2_PLACEMENT_3D('',#515,#516,#517);
#515 = CARTESIAN_POINT('',(44.707757672229,39.665455697669,
    -7.02761766419E-02));
#516 = DIRECTION('',(1.359631073447E-32,1.,-2.22044604925E-16));
#517 = DIRECTION('',(1.224646799147E-16,-2.22044604925E-16,-1.));
#518 = ADVANCED_FACE('',(#519),#522,.T.);
#519 = FACE_BOUND('',#520,.F.);
#520 = EDGE_LOOP('',(#521));
#521 = ORIENTED_EDGE('',*,*,#507,.T.);
#522 = PLANE('',#523);
#523 = AXIS2_PLACEMENT_3D('',#524,#525,#526);
#524 = CARTESIAN_POINT('',(44.707757672229,69.665455697669,
    -7.027617664191E-02));
#525 = DIRECTION('',(1.359631073447E-32,1.,-2.22044604925E-16));
#526 = DIRECTION('',(-1.224646799147E-16,2.22044604925E-16,1.));
#527 = ( GEOMETRIC_REPRESENTATION_CONTEXT(3) 
GLOBAL_UNCERTAINTY_ASSIGNED_CONTEXT((#531)) GLOBAL_UNIT_ASSIGNED_CONTEXT
((#528,#529,#530)) REPRESENTATION_CONTEXT('Context #1',
  '3D Context with UNIT and UNCERTAINTY') );
#528 = ( LENGTH_UNIT() NAMED_UNIT(*) SI_UNIT(.MILLI.,.METRE.) );
#529 = ( NAMED_UNIT(*) PLANE_ANGLE_UNIT() SI_UNIT($,.RADIAN.) );
#530 = ( NAMED_UNIT(*) SI_UNIT($,.STERADIAN.) SOLID_ANGLE_UNIT() );
#531 = UNCERTAINTY_MEASURE_WITH_UNIT(LENGTH_MEASURE(1.E-06),#528,
  'distance_accuracy_value','confusion accuracy');
#532 = PRODUCT_RELATED_PRODUCT_CATEGORY('part',$,(#7));
#533 = MECHANICAL_DESIGN_GEOMETRIC_PRESENTATION_REPRESENTATION('',(#534)
  ,#527);
#534 = STYLED_ITEM('color',(#535),#15);
#535 = PRESENTATION_STYLE_ASSIGNMENT((#536));
#536 = SURFACE_STYLE_USAGE(.BOTH.,#537);
#537 = SURFACE_SIDE_STYLE('',(#538));
#538 = SURFACE_STYLE_FILL_AREA(#539);
#539 = FILL_AREA_STYLE('',(#540));
#540 = FILL_AREA_STYLE_COLOUR('',#541);
#541 = COLOUR_RGB('',0.784313738346,0.784313738346,0.784313738346);
ENDSEC;
END-ISO-10303-21;
