ISO-10303-21;
HEADER;
FILE_DESCRIPTION(('Open CASCADE Model'),'2;1');
FILE_NAME('Open CASCADE Shape Model','2026-09-18T15:44:51',('Author'),(
    'Open CASCADE'),'Open CASCADE STEP processor 7.3','Open CASCADE 7.3'
  ,'Unknown');
FILE_SCHEMA(('AUTOMOTIVE_DESIGN { 1 0 10303 214 1 1 1 1 }'));
ENDSEC;
DATA;
#1 = APPLICATION_PROTOCOL_DEFINITION('international standard',
  'automotive_design',2000,#2);
#2 = APPLICATION_CONTEXT(
  'core data for automotive mechanical design processes');
#3 = SHAPE_DEFINITION_REPRESENTATION(#4,#10);
#4 = PRODUCT_DEFINITION_SHAPE('','',#5);
#5 = PRODUCT_DEFINITION('design','',#6,#9);
#6 = PRODUCT_DEFINITION_FORMATION('','',#7);
#7 = PRODUCT('Pottmanager 99','Pottmanager 99','',(#8));
#8 = PRODUCT_CONTEXT('',#2,'mechanical');
#9 = PRODUCT_DEFINITION_CONTEXT('part definition',#2,'design');
#10 = GEOMETRICALLY_BOUNDED_WIREFRAME_SHAPE_REPRESENTATION('',(#11,#15),
  #76);
#11 = AXIS2_PLACEMENT_3D('',#12,#13,#14);
#12 = CARTESIAN_POINT('',(0.,0.,0.));
#13 = DIRECTION('',(0.,0.,1.));
#14 = DIRECTION('',(1.,0.,-0.));
#15 = GEOMETRIC_CURVE_SET('',(#16,#24,#31,#39,#46,#54,#61,#69));
#16 = TRIMMED_CURVE('',#17,(#22,PARAMETER_VALUE(0.)),(#23,
    PARAMETER_VALUE(1.745329251994)),.T.,.PARAMETER.);
#17 = CIRCLE('',#18,0.4);
#18 = AXIS2_PLACEMENT_3D('',#19,#20,#21);
#19 = CARTESIAN_POINT('',(0.101469534133,0.102172268537,
    2.146285661284E-02));
#20 = DIRECTION('',(0.103379886883,0.10510124939,-0.989073468639));
#21 = DIRECTION('',(9.559819144442E-02,-0.990847787176,
    -9.529768329478E-02));
#22 = CARTESIAN_POINT('',(0.139708810711,-0.294166846334,
    -1.665621670508E-02));
#23 = CARTESIAN_POINT('',(-0.295169156248,0.137629849227,
    -1.622678737837E-02));
#24 = TRIMMED_CURVE('',#25,(#29,PARAMETER_VALUE(0.)),(#30,
    PARAMETER_VALUE(12.08357668144)),.T.,.PARAMETER.);
#25 = LINE('',#26,#27);
#26 = CARTESIAN_POINT('',(0.139708810711,-0.294166846334,
    -1.665621670508E-02));
#27 = VECTOR('',#28,1.);
#28 = DIRECTION('',(0.990037163333,8.470177108827E-02,0.112481221517));
#29 = CARTESIAN_POINT('',(0.139708810711,-0.294166846334,
    -1.665621670508E-02));
#30 = CARTESIAN_POINT('',(12.102898791322,0.729333499665,1.342519248715)
  );
#31 = TRIMMED_CURVE('',#32,(#37,PARAMETER_VALUE(4.886921905584)),(#38,
    PARAMETER_VALUE(6.28318530718)),.T.,.PARAMETER.);
#32 = CIRCLE('',#33,0.4);
#33 = AXIS2_PLACEMENT_3D('',#34,#35,#36);
#34 = CARTESIAN_POINT('',(12.064659514744,1.125672614535,1.380638322033)
  );
#35 = DIRECTION('',(0.103379886883,0.10510124939,-0.989073468639));
#36 = DIRECTION('',(9.559819144442E-02,-0.990847787176,
    -9.529768329478E-02));
#37 = CARTESIAN_POINT('',(12.461298205125,1.090215033845,1.418327966025)
  );
#38 = CARTESIAN_POINT('',(12.102898791322,0.729333499665,1.342519248715)
  );
#39 = TRIMMED_CURVE('',#40,(#44,PARAMETER_VALUE(0.)),(#45,
    PARAMETER_VALUE(12.08357668144)),.T.,.PARAMETER.);
#40 = LINE('',#41,#42);
#41 = CARTESIAN_POINT('',(12.461298205125,1.090215033845,1.418327966025)
  );
#42 = VECTOR('',#43,1.);
#43 = DIRECTION('',(7.777230912692E-02,0.99050289106,0.113382056491));
#44 = CARTESIAN_POINT('',(12.461298205125,1.090215033845,1.418327966025)
  );
#45 = CARTESIAN_POINT('',(13.401065866153,13.059032671161,2.788388739932
    ));
#46 = TRIMMED_CURVE('',#47,(#52,PARAMETER_VALUE(3.14159265359)),(#53,
    PARAMETER_VALUE(4.886921905584)),.T.,.PARAMETER.);
#47 = CIRCLE('',#48,0.4);
#48 = AXIS2_PLACEMENT_3D('',#49,#50,#51);
#49 = CARTESIAN_POINT('',(13.004427175772,13.094490251852,2.750699095941
    ));
#50 = DIRECTION('',(0.103379886883,0.10510124939,-0.989073468639));
#51 = DIRECTION('',(9.559819144442E-02,-0.990847787176,
    -9.529768329478E-02));
#52 = CARTESIAN_POINT('',(12.966187899194,13.490829366722,2.788818169259
    ));
#53 = CARTESIAN_POINT('',(13.401065866153,13.059032671161,2.788388739932
    ));
#54 = TRIMMED_CURVE('',#55,(#59,PARAMETER_VALUE(0.)),(#60,
    PARAMETER_VALUE(12.08357668144)),.T.,.PARAMETER.);
#55 = LINE('',#56,#57);
#56 = CARTESIAN_POINT('',(12.966187899194,13.490829366722,2.788818169259
    ));
#57 = VECTOR('',#58,1.);
#58 = DIRECTION('',(-0.990037163333,-8.470177108827E-02,-0.112481221517)
  );
#59 = CARTESIAN_POINT('',(12.966187899194,13.490829366722,2.788818169259
    ));
#60 = CARTESIAN_POINT('',(1.002997918583,12.467329020723,1.429642703839)
  );
#61 = TRIMMED_CURVE('',#62,(#67,PARAMETER_VALUE(1.745329251994)),(#68,
    PARAMETER_VALUE(3.14159265359)),.T.,.PARAMETER.);
#62 = CIRCLE('',#63,0.4);
#63 = AXIS2_PLACEMENT_3D('',#64,#65,#66);
#64 = CARTESIAN_POINT('',(1.041237195161,12.070989905853,1.391523630521)
  );
#65 = DIRECTION('',(0.103379886883,0.10510124939,-0.989073468639));
#66 = DIRECTION('',(9.559819144442E-02,-0.990847787176,
    -9.529768329478E-02));
#67 = CARTESIAN_POINT('',(0.64459850478,12.106447486544,1.353833986529)
  );
#68 = CARTESIAN_POINT('',(1.002997918583,12.467329020723,1.429642703839)
  );
#69 = TRIMMED_CURVE('',#70,(#74,PARAMETER_VALUE(0.)),(#75,
    PARAMETER_VALUE(12.08357668144)),.T.,.PARAMETER.);
#70 = LINE('',#71,#72);
#71 = CARTESIAN_POINT('',(0.64459850478,12.106447486544,1.353833986529)
  );
#72 = VECTOR('',#73,1.);
#73 = DIRECTION('',(-7.777230912692E-02,-0.99050289106,-0.113382056491)
  );
#74 = CARTESIAN_POINT('',(0.64459850478,12.106447486544,1.353833986529)
  );
#75 = CARTESIAN_POINT('',(-0.295169156248,0.137629849227,
    -1.622678737837E-02));
#76 = ( GEOMETRIC_REPRESENTATION_CONTEXT(3) 
GLOBAL_UNCERTAINTY_ASSIGNED_CONTEXT((#80)) GLOBAL_UNIT_ASSIGNED_CONTEXT(
(#77,#78,#79)) REPRESENTATION_CONTEXT('Context #1',
  '3D Context with UNIT and UNCERTAINTY') );
#77 = ( LENGTH_UNIT() NAMED_UNIT(*) SI_UNIT(.MILLI.,.METRE.) );
#78 = ( NAMED_UNIT(*) PLANE_ANGLE_UNIT() SI_UNIT($,.RADIAN.) );
#79 = ( NAMED_UNIT(*) SI_UNIT($,.STERADIAN.) SOLID_ANGLE_UNIT() );
#80 = UNCERTAINTY_MEASURE_WITH_UNIT(LENGTH_MEASURE(1.E-07),#77,
  'distance_accuracy_value','confusion accuracy');
#81 = PRODUCT_RELATED_PRODUCT_CATEGORY('part',$,(#7));
#82 = MECHANICAL_DESIGN_GEOMETRIC_PRESENTATION_REPRESENTATION('',(#83),
  #76);
#83 = STYLED_ITEM('color',(#84),#15);
#84 = PRESENTATION_STYLE_ASSIGNMENT((#85));
#85 = SURFACE_STYLE_USAGE(.BOTH.,#86);
#86 = SURFACE_SIDE_STYLE('',(#87));
#87 = SURFACE_STYLE_FILL_AREA(#88);
#88 = FILL_AREA_STYLE('',(#89));
#89 = FILL_AREA_STYLE_COLOUR('',#90);
#90 = DRAUGHTING_PRE_DEFINED_COLOUR('green');
ENDSEC;
END-ISO-10303-21;
