ISO-10303-21;
HEADER;
FILE_DESCRIPTION(('Open CASCADE Model'),'2;1');
FILE_NAME('Open CASCADE Shape Model','2026-09-18T15:44:44',('Author'),(
    'Open CASCADE'),'Open CASCADE STEP processor 7.3','Open CASCADE 7.3'
  ,'Unknown');
FILE_SCHEMA(('AUTOMOTIVE_DESIGN { 1 0 10303 214 1 1 1 1 }'));
ENDSEC;
DATA;
#1 = APPLICATION_PROTOCOL_DEFINITION('international standard',
  'automotive_design',2000,#2);
#2 = APPLICATION_CONTEXT(
  'core data for automotive mechanical design processes');
#3 = SHAPE_DEFINITION_REPRESENTATION(#4,#10);
#4 = PRODUCT_DEFINITION_SHAPE('','',#5);
#5 = PRODUCT_DEFINITION('design','',#6,#9);
#6 = PRODUCT_DEFINITION_FORMATION('','',#7);
#7 = PRODUCT('Pottmanager 54','Pottmanager 54','',(#8));
#8 = PRODUCT_CONTEXT('',#2,'mechanical');
#9 = PRODUCT_DEFINITION_CONTEXT('part definition',#2,'design');
#10 = ADVANCED_BREP_SHAPE_REPRESENTATION('',(#11,#15),#333);
#11 = AXIS2_PLACEMENT_3D('',#12,#13,#14);
#12 = CARTESIAN_POINT('',(0.,0.,0.));
#13 = DIRECTION('',(0.,0.,1.));
#14 = DIRECTION('',(1.,0.,-0.));
#15 = MANIFOLD_SOLID_BREP('',#16);
#16 = CLOSED_SHELL('',(#17,#69,#99,#137,#167,#211,#241,#279,#301,#317));
#17 = ADVANCED_FACE('',(#18),#52,.T.);
#18 = FACE_BOUND('',#19,.T.);
#19 = EDGE_LOOP('',(#20,#31,#38,#47));
#20 = ORIENTED_EDGE('',*,*,#21,.T.);
#21 = EDGE_CURVE('',#22,#24,#26,.T.);
#22 = VERTEX_POINT('',#23);
#23 = CARTESIAN_POINT('',(3.342549337911E-03,-1.885975346369E-03,
    4.104134527515E-04));
#24 = VERTEX_POINT('',#25);
#25 = CARTESIAN_POINT('',(-3.750742432411E-03,7.860143799051E-04,
    -4.605332626236E-04));
#26 = CIRCLE('',#27,4.E-03);
#27 = AXIS2_PLACEMENT_3D('',#28,#29,#30);
#28 = CARTESIAN_POINT('',(2.140011741333E-04,5.766705549334E-04,
    2.627604019855E-05));
#29 = DIRECTION('',(0.121869343405,-1.110223024625E-16,-0.992546151641)
  );
#30 = DIRECTION('',(0.782137040944,-0.615661475326,9.603435313825E-02));
#31 = ORIENTED_EDGE('',*,*,#32,.T.);
#32 = EDGE_CURVE('',#24,#33,#35,.T.);
#33 = VERTEX_POINT('',#34);
#34 = CARTESIAN_POINT('',(0.779501959758,0.548228299682,-4.700035963332)
  );
#35 = B_SPLINE_CURVE_WITH_KNOTS('',1,(#36,#37),.UNSPECIFIED.,.F.,.F.,(2,
    2),(0.,1.),.PIECEWISE_BEZIER_KNOTS.);
#36 = CARTESIAN_POINT('',(-3.750742432411E-03,7.860143799052E-04,
    -4.605332626236E-04));
#37 = CARTESIAN_POINT('',(0.779501959758,0.548228299682,-4.700035963332)
  );
#38 = ORIENTED_EDGE('',*,*,#39,.F.);
#39 = EDGE_CURVE('',#40,#33,#42,.T.);
#40 = VERTEX_POINT('',#41);
#41 = CARTESIAN_POINT('',(0.786595251529,0.545556309956,-4.699165016617)
  );
#42 = CIRCLE('',#43,4.E-03);
#43 = AXIS2_PLACEMENT_3D('',#44,#45,#46);
#44 = CARTESIAN_POINT('',(0.783466703365,0.548018955857,-4.699549154029)
  );
#45 = DIRECTION('',(0.121869343405,-1.110223024625E-16,-0.992546151641)
  );
#46 = DIRECTION('',(0.782137040944,-0.615661475326,9.603435313825E-02));
#47 = ORIENTED_EDGE('',*,*,#48,.F.);
#48 = EDGE_CURVE('',#22,#40,#49,.T.);
#49 = B_SPLINE_CURVE_WITH_KNOTS('',1,(#50,#51),.UNSPECIFIED.,.F.,.F.,(2,
    2),(0.,1.),.PIECEWISE_BEZIER_KNOTS.);
#50 = CARTESIAN_POINT('',(3.342549337911E-03,-1.885975346369E-03,
    4.104134527515E-04));
#51 = CARTESIAN_POINT('',(0.786595251529,0.545556309956,-4.699165016617)
  );
#52 = B_SPLINE_SURFACE_WITH_KNOTS('',7,1,(
    (#53,#54)
    ,(#55,#56)
    ,(#57,#58)
    ,(#59,#60)
    ,(#61,#62)
    ,(#63,#64)
    ,(#65,#66)
    ,(#67,#68
    )),.UNSPECIFIED.,.F.,.F.,.F.,(8,8),(2,2),(0.,2.530727415392),(0.,1.)
  ,.PIECEWISE_BEZIER_KNOTS.);
#53 = CARTESIAN_POINT('',(3.342549337911E-03,-1.885975346369E-03,
    4.104134527515E-04));
#54 = CARTESIAN_POINT('',(0.786595251529,0.545556309956,-4.699165016617)
  );
#55 = CARTESIAN_POINT('',(2.458859197081E-03,-3.025541299384E-03,
    3.019099468355E-04));
#56 = CARTESIAN_POINT('',(0.785711561388,0.544416744003,-4.699273520123)
  );
#57 = CARTESIAN_POINT('',(1.098167717149E-03,-3.789297665132E-03,
    1.348380409478E-04));
#58 = CARTESIAN_POINT('',(0.784350869908,0.543652987637,-4.699440592029)
  );
#59 = CARTESIAN_POINT('',(-5.513321302178E-04,-3.936061755229E-03,
    -6.769507352056E-05));
#60 = CARTESIAN_POINT('',(0.782701370061,0.543506223547,-4.699643125143)
  );
#61 = CARTESIAN_POINT('',(-2.146945223094E-03,-3.335006289118E-03,
    -2.636117265003E-04));
#62 = CARTESIAN_POINT('',(0.781105756968,0.544107279013,-4.699839041796)
  );
#63 = CARTESIAN_POINT('',(-3.296270354583E-03,-2.133945853784E-03,
    -4.047311081049E-04));
#64 = CARTESIAN_POINT('',(0.779956431836,0.545308339448,-4.699980161178)
  );
#65 = CARTESIAN_POINT('',(-3.825862884796E-03,-6.581337009082E-04,
    -4.697568943845E-04));
#66 = CARTESIAN_POINT('',(0.779426839306,0.546784151601,-4.700045186964)
  );
#67 = CARTESIAN_POINT('',(-3.750742432411E-03,7.860143799052E-04,
    -4.605332626236E-04));
#68 = CARTESIAN_POINT('',(0.779501959758,0.548228299682,-4.700035963332)
  );
#69 = ADVANCED_FACE('',(#70),#94,.T.);
#70 = FACE_BOUND('',#71,.T.);
#71 = EDGE_LOOP('',(#72,#80,#87,#93));
#72 = ORIENTED_EDGE('',*,*,#73,.F.);
#73 = EDGE_CURVE('',#74,#24,#76,.T.);
#74 = VERTEX_POINT('',#75);
#75 = CARTESIAN_POINT('',(0.858154700342,16.570429187432,0.105368148068)
  );
#76 = LINE('',#77,#78);
#77 = CARTESIAN_POINT('',(0.858154700342,16.570429187432,0.105368148068)
  );
#78 = VECTOR('',#79,1.);
#79 = DIRECTION('',(-5.19458519614E-02,-0.998629534755,
    -6.378148623808E-03));
#80 = ORIENTED_EDGE('',*,*,#81,.T.);
#81 = EDGE_CURVE('',#74,#82,#84,.T.);
#82 = VERTEX_POINT('',#83);
#83 = CARTESIAN_POINT('',(1.609574071454,16.505893741976,-4.59811592358)
  );
#84 = B_SPLINE_CURVE_WITH_KNOTS('',1,(#85,#86),.UNSPECIFIED.,.F.,.F.,(2,
    2),(0.,1.),.PIECEWISE_BEZIER_KNOTS.);
#85 = CARTESIAN_POINT('',(0.858154700342,16.570429187432,0.105368148068)
  );
#86 = CARTESIAN_POINT('',(1.609574071454,16.505893741976,-4.59811592358)
  );
#87 = ORIENTED_EDGE('',*,*,#88,.T.);
#88 = EDGE_CURVE('',#82,#33,#89,.T.);
#89 = LINE('',#90,#91);
#90 = CARTESIAN_POINT('',(1.609574071454,16.505893741976,-4.59811592358)
  );
#91 = VECTOR('',#92,1.);
#92 = DIRECTION('',(-5.19458519614E-02,-0.998629534755,
    -6.378148623808E-03));
#93 = ORIENTED_EDGE('',*,*,#32,.F.);
#94 = B_SPLINE_SURFACE_WITH_KNOTS('',1,1,(
    (#95,#96)
    ,(#97,#98
    )),.UNSPECIFIED.,.F.,.F.,.F.,(2,2),(2,2),(-16.59238245654,0.),(0.,1.
    ),.PIECEWISE_BEZIER_KNOTS.);
#95 = CARTESIAN_POINT('',(-3.750742432411E-03,7.86014379905E-04,
    -4.605332626236E-04));
#96 = CARTESIAN_POINT('',(0.779501959758,0.548228299682,-4.700035963332)
  );
#97 = CARTESIAN_POINT('',(0.858154700342,16.570429187432,0.105368148068)
  );
#98 = CARTESIAN_POINT('',(1.609574071454,16.505893741976,-4.59811592358)
  );
#99 = ADVANCED_FACE('',(#100),#126,.T.);
#100 = FACE_BOUND('',#101,.T.);
#101 = EDGE_LOOP('',(#102,#111,#118,#125));
#102 = ORIENTED_EDGE('',*,*,#103,.T.);
#103 = EDGE_CURVE('',#74,#104,#106,.T.);
#104 = VERTEX_POINT('',#105);
#105 = CARTESIAN_POINT('',(0.858990895785,16.572682489508,0.105470819959
    ));
#106 = CIRCLE('',#107,4.E-03);
#107 = AXIS2_PLACEMENT_3D('',#108,#109,#110);
#108 = CARTESIAN_POINT('',(0.862119443949,16.570219843607,0.105854957371
    ));
#109 = DIRECTION('',(0.121869343405,-1.110223024625E-16,-0.992546151641)
  );
#110 = DIRECTION('',(0.782137040944,-0.615661475326,9.603435313825E-02)
  );
#111 = ORIENTED_EDGE('',*,*,#112,.T.);
#112 = EDGE_CURVE('',#104,#113,#115,.T.);
#113 = VERTEX_POINT('',#114);
#114 = CARTESIAN_POINT('',(1.610410266896,16.508147044052,-4.59801325169
    ));
#115 = B_SPLINE_CURVE_WITH_KNOTS('',1,(#116,#117),.UNSPECIFIED.,.F.,.F.,
  (2,2),(0.,1.),.PIECEWISE_BEZIER_KNOTS.);
#116 = CARTESIAN_POINT('',(0.858990895785,16.572682489508,0.105470819959
    ));
#117 = CARTESIAN_POINT('',(1.610410266896,16.508147044052,-4.59801325169
    ));
#118 = ORIENTED_EDGE('',*,*,#119,.F.);
#119 = EDGE_CURVE('',#82,#113,#120,.T.);
#120 = CIRCLE('',#121,4.E-03);
#121 = AXIS2_PLACEMENT_3D('',#122,#123,#124);
#122 = CARTESIAN_POINT('',(1.61353881506,16.505684398151,-4.597629114277
    ));
#123 = DIRECTION('',(0.121869343405,-1.110223024625E-16,-0.992546151641)
  );
#124 = DIRECTION('',(0.782137040944,-0.615661475326,9.603435313825E-02)
  );
#125 = ORIENTED_EDGE('',*,*,#81,.F.);
#126 = B_SPLINE_SURFACE_WITH_KNOTS('',4,1,(
    (#127,#128)
    ,(#129,#130)
    ,(#131,#132)
    ,(#133,#134)
    ,(#135,#136
    )),.UNSPECIFIED.,.F.,.F.,.F.,(5,5),(2,2),(2.530727415392,
    3.14159265359),(0.,1.),.PIECEWISE_BEZIER_KNOTS.);
#127 = CARTESIAN_POINT('',(0.858154700342,16.570429187432,0.105368148068
    ));
#128 = CARTESIAN_POINT('',(1.609574071454,16.505893741976,-4.59811592358
    ));
#129 = CARTESIAN_POINT('',(0.858186432258,16.5710392155,0.105372044258)
  );
#130 = CARTESIAN_POINT('',(1.609605803369,16.506503770044,
    -4.598112027391));
#131 = CARTESIAN_POINT('',(0.858341524744,16.571642957392,0.10539108722)
  );
#132 = CARTESIAN_POINT('',(1.609760895855,16.507107511936,
    -4.598092984428));
#133 = CARTESIAN_POINT('',(0.858617612881,16.572201121131,0.105424986581
    ));
#134 = CARTESIAN_POINT('',(1.610036983992,16.507665675675,
    -4.598059085067));
#135 = CARTESIAN_POINT('',(0.858990895785,16.572682489508,0.105470819959
    ));
#136 = CARTESIAN_POINT('',(1.610410266896,16.508147044052,-4.59801325169
    ));
#137 = ADVANCED_FACE('',(#138),#162,.T.);
#138 = FACE_BOUND('',#139,.T.);
#139 = EDGE_LOOP('',(#140,#148,#155,#161));
#140 = ORIENTED_EDGE('',*,*,#141,.F.);
#141 = EDGE_CURVE('',#142,#104,#144,.T.);
#142 = VERTEX_POINT('',#143);
#143 = CARTESIAN_POINT('',(10.998138330614,29.647658293223,
    1.350401585674));
#144 = LINE('',#145,#146);
#145 = CARTESIAN_POINT('',(10.998138330614,29.647658293223,
    1.350401585674));
#146 = VECTOR('',#147,1.);
#147 = DIRECTION('',(-0.611072428048,-0.788010753607,-7.503025975778E-02
    ));
#148 = ORIENTED_EDGE('',*,*,#149,.T.);
#149 = EDGE_CURVE('',#142,#150,#152,.T.);
#150 = VERTEX_POINT('',#151);
#151 = CARTESIAN_POINT('',(11.37508177764,29.100216007921,
    -3.399062347882));
#152 = B_SPLINE_CURVE_WITH_KNOTS('',1,(#153,#154),.UNSPECIFIED.,.F.,.F.,
  (2,2),(0.,1.),.PIECEWISE_BEZIER_KNOTS.);
#153 = CARTESIAN_POINT('',(10.998138330614,29.647658293223,
    1.350401585674));
#154 = CARTESIAN_POINT('',(11.37508177764,29.100216007921,
    -3.399062347882));
#155 = ORIENTED_EDGE('',*,*,#156,.T.);
#156 = EDGE_CURVE('',#150,#113,#157,.T.);
#157 = LINE('',#158,#159);
#158 = CARTESIAN_POINT('',(11.37508177764,29.100216007921,
    -3.399062347882));
#159 = VECTOR('',#160,1.);
#160 = DIRECTION('',(-0.611072428048,-0.788010753607,-7.503025975778E-02
    ));
#161 = ORIENTED_EDGE('',*,*,#112,.F.);
#162 = B_SPLINE_SURFACE_WITH_KNOTS('',1,1,(
    (#163,#164)
    ,(#165,#166
    )),.UNSPECIFIED.,.F.,.F.,.F.,(2,2),(2,2),(-16.59238245654,0.),(0.,1.
    ),.PIECEWISE_BEZIER_KNOTS.);
#163 = CARTESIAN_POINT('',(0.858990895785,16.572682489508,0.105470819959
    ));
#164 = CARTESIAN_POINT('',(1.610410266896,16.508147044052,-4.59801325169
    ));
#165 = CARTESIAN_POINT('',(10.998138330614,29.647658293223,
    1.350401585674));
#166 = CARTESIAN_POINT('',(11.37508177764,29.100216007921,
    -3.399062347882));
#167 = ADVANCED_FACE('',(#168),#194,.T.);
#168 = FACE_BOUND('',#169,.T.);
#169 = EDGE_LOOP('',(#170,#179,#186,#193));
#170 = ORIENTED_EDGE('',*,*,#171,.T.);
#171 = EDGE_CURVE('',#142,#172,#174,.T.);
#172 = VERTEX_POINT('',#173);
#173 = CARTESIAN_POINT('',(11.005231622384,29.644986303496,
    1.351272532389));
#174 = CIRCLE('',#175,4.E-03);
#175 = AXIS2_PLACEMENT_3D('',#176,#177,#178);
#176 = CARTESIAN_POINT('',(11.001266878777,29.645195647321,
    1.350785723086));
#177 = DIRECTION('',(0.121869343405,-1.110223024625E-16,-0.992546151641)
  );
#178 = DIRECTION('',(0.782137040944,-0.615661475326,9.603435313825E-02)
  );
#179 = ORIENTED_EDGE('',*,*,#180,.T.);
#180 = EDGE_CURVE('',#172,#181,#183,.T.);
#181 = VERTEX_POINT('',#182);
#182 = CARTESIAN_POINT('',(11.38217506941,29.097544018194,
    -3.398191401167));
#183 = B_SPLINE_CURVE_WITH_KNOTS('',1,(#184,#185),.UNSPECIFIED.,.F.,.F.,
  (2,2),(0.,1.),.PIECEWISE_BEZIER_KNOTS.);
#184 = CARTESIAN_POINT('',(11.005231622384,29.644986303496,
    1.351272532389));
#185 = CARTESIAN_POINT('',(11.38217506941,29.097544018194,
    -3.398191401167));
#186 = ORIENTED_EDGE('',*,*,#187,.F.);
#187 = EDGE_CURVE('',#150,#181,#188,.T.);
#188 = CIRCLE('',#189,4.E-03);
#189 = AXIS2_PLACEMENT_3D('',#190,#191,#192);
#190 = CARTESIAN_POINT('',(11.378210325803,29.097753362019,
    -3.398678210469));
#191 = DIRECTION('',(0.121869343405,-1.110223024625E-16,-0.992546151641)
  );
#192 = DIRECTION('',(0.782137040944,-0.615661475326,9.603435313825E-02)
  );
#193 = ORIENTED_EDGE('',*,*,#149,.F.);
#194 = B_SPLINE_SURFACE_WITH_KNOTS('',7,1,(
    (#195,#196)
    ,(#197,#198)
    ,(#199,#200)
    ,(#201,#202)
    ,(#203,#204)
    ,(#205,#206)
    ,(#207,#208)
    ,(#209,#210
    )),.UNSPECIFIED.,.F.,.F.,.F.,(8,8),(2,2),(3.14159265359,
    5.672320068981),(0.,1.),.PIECEWISE_BEZIER_KNOTS.);
#195 = CARTESIAN_POINT('',(10.998138330614,29.647658293223,
    1.350401585674));
#196 = CARTESIAN_POINT('',(11.37508177764,29.100216007921,
    -3.399062347882));
#197 = CARTESIAN_POINT('',(10.999022020754,29.648797859176,1.35051008918
    ));
#198 = CARTESIAN_POINT('',(11.375965467781,29.101355573874,
    -3.398953844376));
#199 = CARTESIAN_POINT('',(11.000382712234,29.649561615542,
    1.350677161086));
#200 = CARTESIAN_POINT('',(11.37732615926,29.10211933024,-3.39878677247)
  );
#201 = CARTESIAN_POINT('',(11.002032212082,29.649708379632,1.3508796942)
  );
#202 = CARTESIAN_POINT('',(11.378975659108,29.102266094329,
    -3.398584239356));
#203 = CARTESIAN_POINT('',(11.003627825174,29.649107324165,
    1.351075610853));
#204 = CARTESIAN_POINT('',(11.380571272201,29.101665038864,
    -3.398388322703));
#205 = CARTESIAN_POINT('',(11.004777150306,29.64790626373,1.351216730235
    ));
#206 = CARTESIAN_POINT('',(11.381720597332,29.100463978428,
    -3.398247203321));
#207 = CARTESIAN_POINT('',(11.005306742836,29.646430451577,
    1.351281756021));
#208 = CARTESIAN_POINT('',(11.382250189862,29.098988166275,
    -3.398182177535));
#209 = CARTESIAN_POINT('',(11.005231622384,29.644986303496,
    1.351272532389));
#210 = CARTESIAN_POINT('',(11.38217506941,29.097544018194,
    -3.398191401167));
#211 = ADVANCED_FACE('',(#212),#236,.T.);
#212 = FACE_BOUND('',#213,.T.);
#213 = EDGE_LOOP('',(#214,#222,#229,#235));
#214 = ORIENTED_EDGE('',*,*,#215,.F.);
#215 = EDGE_CURVE('',#216,#172,#218,.T.);
#216 = VERTEX_POINT('',#217);
#217 = CARTESIAN_POINT('',(10.143326179609,13.075343130445,
    1.245443851058));
#218 = LINE('',#219,#220);
#219 = CARTESIAN_POINT('',(10.143326179609,13.075343130445,
    1.245443851058));
#220 = VECTOR('',#221,1.);
#221 = DIRECTION('',(5.19458519614E-02,0.998629534755,6.378148623808E-03
    ));
#222 = ORIENTED_EDGE('',*,*,#223,.T.);
#223 = EDGE_CURVE('',#216,#224,#226,.T.);
#224 = VERTEX_POINT('',#225);
#225 = CARTESIAN_POINT('',(10.552102957715,13.139878575901,
    -3.500111440919));
#226 = B_SPLINE_CURVE_WITH_KNOTS('',1,(#227,#228),.UNSPECIFIED.,.F.,.F.,
  (2,2),(0.,1.),.PIECEWISE_BEZIER_KNOTS.);
#227 = CARTESIAN_POINT('',(10.143326179609,13.075343130445,
    1.245443851058));
#228 = CARTESIAN_POINT('',(10.552102957715,13.139878575901,
    -3.500111440919));
#229 = ORIENTED_EDGE('',*,*,#230,.T.);
#230 = EDGE_CURVE('',#224,#181,#231,.T.);
#231 = LINE('',#232,#233);
#232 = CARTESIAN_POINT('',(10.552102957715,13.139878575901,
    -3.500111440919));
#233 = VECTOR('',#234,1.);
#234 = DIRECTION('',(5.19458519614E-02,0.998629534755,6.378148623808E-03
    ));
#235 = ORIENTED_EDGE('',*,*,#180,.F.);
#236 = B_SPLINE_SURFACE_WITH_KNOTS('',1,1,(
    (#237,#238)
    ,(#239,#240
    )),.UNSPECIFIED.,.F.,.F.,.F.,(2,2),(2,2),(-16.59238245654,0.),(0.,1.
    ),.PIECEWISE_BEZIER_KNOTS.);
#237 = CARTESIAN_POINT('',(11.005231622384,29.644986303496,
    1.351272532389));
#238 = CARTESIAN_POINT('',(11.38217506941,29.097544018194,
    -3.398191401167));
#239 = CARTESIAN_POINT('',(10.143326179609,13.075343130445,
    1.245443851058));
#240 = CARTESIAN_POINT('',(10.552102957715,13.139878575901,
    -3.500111440919));
#241 = ADVANCED_FACE('',(#242),#268,.T.);
#242 = FACE_BOUND('',#243,.T.);
#243 = EDGE_LOOP('',(#244,#253,#260,#267));
#244 = ORIENTED_EDGE('',*,*,#245,.T.);
#245 = EDGE_CURVE('',#216,#246,#248,.T.);
#246 = VERTEX_POINT('',#247);
#247 = CARTESIAN_POINT('',(10.142489984166,13.073089828368,
    1.245341179168));
#248 = CIRCLE('',#249,4.E-03);
#249 = AXIS2_PLACEMENT_3D('',#250,#251,#252);
#250 = CARTESIAN_POINT('',(10.139361436003,13.07555247427,1.244957041755
    ));
#251 = DIRECTION('',(0.121869343405,-1.110223024625E-16,-0.992546151641)
  );
#252 = DIRECTION('',(0.782137040944,-0.615661475326,9.603435313825E-02)
  );
#253 = ORIENTED_EDGE('',*,*,#254,.T.);
#254 = EDGE_CURVE('',#246,#255,#257,.T.);
#255 = VERTEX_POINT('',#256);
#256 = CARTESIAN_POINT('',(10.551266762272,13.137625273824,
    -3.500214112809));
#257 = B_SPLINE_CURVE_WITH_KNOTS('',1,(#258,#259),.UNSPECIFIED.,.F.,.F.,
  (2,2),(0.,1.),.PIECEWISE_BEZIER_KNOTS.);
#258 = CARTESIAN_POINT('',(10.142489984166,13.073089828368,
    1.245341179168));
#259 = CARTESIAN_POINT('',(10.551266762272,13.137625273824,
    -3.500214112809));
#260 = ORIENTED_EDGE('',*,*,#261,.F.);
#261 = EDGE_CURVE('',#224,#255,#262,.T.);
#262 = CIRCLE('',#263,4.E-03);
#263 = AXIS2_PLACEMENT_3D('',#264,#265,#266);
#264 = CARTESIAN_POINT('',(10.548138214108,13.140087919726,
    -3.500598250222));
#265 = DIRECTION('',(0.121869343405,-1.110223024625E-16,-0.992546151641)
  );
#266 = DIRECTION('',(0.782137040944,-0.615661475326,9.603435313825E-02)
  );
#267 = ORIENTED_EDGE('',*,*,#223,.F.);
#268 = B_SPLINE_SURFACE_WITH_KNOTS('',4,1,(
    (#269,#270)
    ,(#271,#272)
    ,(#273,#274)
    ,(#275,#276)
    ,(#277,#278
    )),.UNSPECIFIED.,.F.,.F.,.F.,(5,5),(2,2),(5.672320068981,
    6.28318530718),(0.,1.),.PIECEWISE_BEZIER_KNOTS.);
#269 = CARTESIAN_POINT('',(10.143326179609,13.075343130445,
    1.245443851058));
#270 = CARTESIAN_POINT('',(10.552102957715,13.139878575901,
    -3.500111440919));
#271 = CARTESIAN_POINT('',(10.143294447694,13.074733102376,
    1.245439954869));
#272 = CARTESIAN_POINT('',(10.5520712258,13.139268547832,-3.500115337108
    ));
#273 = CARTESIAN_POINT('',(10.143139355207,13.074129360484,
    1.245420911906));
#274 = CARTESIAN_POINT('',(10.551916133313,13.13866480594,
    -3.500134380071));
#275 = CARTESIAN_POINT('',(10.142863267071,13.073571196745,
    1.245387012545));
#276 = CARTESIAN_POINT('',(10.551640045176,13.138106642201,
    -3.500168279432));
#277 = CARTESIAN_POINT('',(10.142489984166,13.073089828368,
    1.245341179168));
#278 = CARTESIAN_POINT('',(10.551266762272,13.137625273824,
    -3.500214112809));
#279 = ADVANCED_FACE('',(#280),#296,.T.);
#280 = FACE_BOUND('',#281,.T.);
#281 = EDGE_LOOP('',(#282,#288,#289,#295));
#282 = ORIENTED_EDGE('',*,*,#283,.F.);
#283 = EDGE_CURVE('',#22,#246,#284,.T.);
#284 = LINE('',#285,#286);
#285 = CARTESIAN_POINT('',(3.342549337911E-03,-1.885975346369E-03,
    4.104134527515E-04));
#286 = VECTOR('',#287,1.);
#287 = DIRECTION('',(0.611072428048,0.788010753607,7.503025975778E-02));
#288 = ORIENTED_EDGE('',*,*,#48,.T.);
#289 = ORIENTED_EDGE('',*,*,#290,.T.);
#290 = EDGE_CURVE('',#40,#255,#291,.T.);
#291 = LINE('',#292,#293);
#292 = CARTESIAN_POINT('',(0.786595251529,0.545556309956,-4.699165016617
    ));
#293 = VECTOR('',#294,1.);
#294 = DIRECTION('',(0.611072428048,0.788010753607,7.503025975778E-02));
#295 = ORIENTED_EDGE('',*,*,#254,.F.);
#296 = B_SPLINE_SURFACE_WITH_KNOTS('',1,1,(
    (#297,#298)
    ,(#299,#300
    )),.UNSPECIFIED.,.F.,.F.,.F.,(2,2),(2,2),(-16.59238245654,0.),(0.,1.
    ),.PIECEWISE_BEZIER_KNOTS.);
#297 = CARTESIAN_POINT('',(10.142489984166,13.073089828368,
    1.245341179168));
#298 = CARTESIAN_POINT('',(10.551266762272,13.137625273824,
    -3.500214112809));
#299 = CARTESIAN_POINT('',(3.342549337911E-03,-1.885975346369E-03,
    4.104134527515E-04));
#300 = CARTESIAN_POINT('',(0.786595251529,0.545556309956,-4.699165016617
    ));
#301 = ADVANCED_FACE('',(#302),#312,.F.);
#302 = FACE_BOUND('',#303,.F.);
#303 = EDGE_LOOP('',(#304,#305,#306,#307,#308,#309,#310,#311));
#304 = ORIENTED_EDGE('',*,*,#21,.T.);
#305 = ORIENTED_EDGE('',*,*,#73,.F.);
#306 = ORIENTED_EDGE('',*,*,#103,.T.);
#307 = ORIENTED_EDGE('',*,*,#141,.F.);
#308 = ORIENTED_EDGE('',*,*,#171,.T.);
#309 = ORIENTED_EDGE('',*,*,#215,.F.);
#310 = ORIENTED_EDGE('',*,*,#245,.T.);
#311 = ORIENTED_EDGE('',*,*,#283,.F.);
#312 = PLANE('',#313);
#313 = AXIS2_PLACEMENT_3D('',#314,#315,#316);
#314 = CARTESIAN_POINT('',(2.140011741333E-04,5.766705549334E-04,
    2.627604019855E-05));
#315 = DIRECTION('',(0.121869343405,-1.101947590555E-16,-0.992546151641)
  );
#316 = DIRECTION('',(0.782137040944,-0.615661475326,9.603435313825E-02)
  );
#317 = ADVANCED_FACE('',(#318),#328,.T.);
#318 = FACE_BOUND('',#319,.T.);
#319 = EDGE_LOOP('',(#320,#321,#322,#323,#324,#325,#326,#327));
#320 = ORIENTED_EDGE('',*,*,#39,.T.);
#321 = ORIENTED_EDGE('',*,*,#88,.F.);
#322 = ORIENTED_EDGE('',*,*,#119,.T.);
#323 = ORIENTED_EDGE('',*,*,#156,.F.);
#324 = ORIENTED_EDGE('',*,*,#187,.T.);
#325 = ORIENTED_EDGE('',*,*,#230,.F.);
#326 = ORIENTED_EDGE('',*,*,#261,.T.);
#327 = ORIENTED_EDGE('',*,*,#290,.F.);
#328 = PLANE('',#329);
#329 = AXIS2_PLACEMENT_3D('',#330,#331,#332);
#330 = CARTESIAN_POINT('',(0.783466703365,0.548018955857,-4.699549154029
    ));
#331 = DIRECTION('',(0.121869343405,-1.101947590555E-16,-0.992546151641)
  );
#332 = DIRECTION('',(0.782137040944,-0.615661475326,9.603435313825E-02)
  );
#333 = ( GEOMETRIC_REPRESENTATION_CONTEXT(3) 
GLOBAL_UNCERTAINTY_ASSIGNED_CONTEXT((#337)) GLOBAL_UNIT_ASSIGNED_CONTEXT
((#334,#335,#336)) REPRESENTATION_CONTEXT('Context #1',
  '3D Context with UNIT and UNCERTAINTY') );
#334 = ( LENGTH_UNIT() NAMED_UNIT(*) SI_UNIT(.MILLI.,.METRE.) );
#335 = ( NAMED_UNIT(*) PLANE_ANGLE_UNIT() SI_UNIT($,.RADIAN.) );
#336 = ( NAMED_UNIT(*) SI_UNIT($,.STERADIAN.) SOLID_ANGLE_UNIT() );
#337 = UNCERTAINTY_MEASURE_WITH_UNIT(LENGTH_MEASURE(1.E-07),#334,
  'distance_accuracy_value','confusion accuracy');
#338 = PRODUCT_RELATED_PRODUCT_CATEGORY('part',$,(#7));
#339 = MECHANICAL_DESIGN_GEOMETRIC_PRESENTATION_REPRESENTATION('',(#340)
  ,#333);
#340 = STYLED_ITEM('color',(#341),#15);
#341 = PRESENTATION_STYLE_ASSIGNMENT((#342));
#342 = SURFACE_STYLE_USAGE(.BOTH.,#343);
#343 = SURFACE_SIDE_STYLE('',(#344));
#344 = SURFACE_STYLE_FILL_AREA(#345);
#345 = FILL_AREA_STYLE('',(#346));
#346 = FILL_AREA_STYLE_COLOUR('',#347);
#347 = DRAUGHTING_PRE_DEFINED_COLOUR('green');
ENDSEC;
END-ISO-10303-21;
