ISO-10303-21;
HEADER;
FILE_DESCRIPTION(('Open CASCADE Model'),'2;1');
FILE_NAME('Open CASCADE Shape Model','2026-09-18T15:44:44',('Author'),(
    'Open CASCADE'),'Open CASCADE STEP processor 7.3','Open CASCADE 7.3'
  ,'Unknown');
FILE_SCHEMA(('AUTOMOTIVE_DESIGN { 1 0 10303 214 1 1 1 1 }'));
ENDSEC;
DATA;
#1 = APPLICATION_PROTOCOL_DEFINITION('international standard',
  'automotive_design',2000,#2);
#2 = APPLICATION_CONTEXT(
  'core data for automotive mechanical design processes');
#3 = SHAPE_DEFINITION_REPRESENTATION(#4,#10);
#4 = PRODUCT_DEFINITION_SHAPE('','',#5);
#5 = PRODUCT_DEFINITION('design','',#6,#9);
#6 = PRODUCT_DEFINITION_FORMATION('','',#7);
#7 = PRODUCT('Pottmanager 52','Pottmanager 52','',(#8));
#8 = PRODUCT_CONTEXT('',#2,'mechanical');
#9 = PRODUCT_DEFINITION_CONTEXT('part definition',#2,'design');
#10 = ADVANCED_BREP_SHAPE_REPRESENTATION('',(#11,#15),#342);
#11 = AXIS2_PLACEMENT_3D('',#12,#13,#14);
#12 = CARTESIAN_POINT('',(0.,0.,0.));
#13 = DIRECTION('',(0.,0.,1.));
#14 = DIRECTION('',(1.,0.,-0.));
#15 = MANIFOLD_SOLID_BREP('',#16);
#16 = CLOSED_SHELL('',(#17,#57,#96,#127,#167,#191,#207,#245,#269,#286,
    #302,#318,#329));
#17 = ADVANCED_FACE('',(#18),#52,.T.);
#18 = FACE_BOUND('',#19,.F.);
#19 = EDGE_LOOP('',(#20,#30,#38,#46));
#20 = ORIENTED_EDGE('',*,*,#21,.F.);
#21 = EDGE_CURVE('',#22,#24,#26,.T.);
#22 = VERTEX_POINT('',#23);
#23 = CARTESIAN_POINT('',(1.995590252791,35.988117021412,-0.100541448875
    ));
#24 = VERTEX_POINT('',#25);
#25 = CARTESIAN_POINT('',(1.995590252791,35.988117021412,-4.103295972937
    ));
#26 = LINE('',#27,#28);
#27 = CARTESIAN_POINT('',(1.995590252791,35.988117021412,-0.100541448875
    ));
#28 = VECTOR('',#29,1.);
#29 = DIRECTION('',(1.224646799147E-16,-2.22044604925E-16,-1.));
#30 = ORIENTED_EDGE('',*,*,#31,.F.);
#31 = EDGE_CURVE('',#32,#22,#34,.T.);
#32 = VERTEX_POINT('',#33);
#33 = CARTESIAN_POINT('',(1.995590252791,3.074042793674,-0.100541448875)
  );
#34 = LINE('',#35,#36);
#35 = CARTESIAN_POINT('',(1.995590252791,-1.188297858775E-02,
    -0.100541448875));
#36 = VECTOR('',#37,1.);
#37 = DIRECTION('',(1.359631073447E-32,1.,-2.22044604925E-16));
#38 = ORIENTED_EDGE('',*,*,#39,.F.);
#39 = EDGE_CURVE('',#40,#32,#42,.T.);
#40 = VERTEX_POINT('',#41);
#41 = CARTESIAN_POINT('',(1.995590252791,3.872332887072,-4.103295972937)
  );
#42 = LINE('',#43,#44);
#43 = CARTESIAN_POINT('',(1.995590252791,2.950082367236,0.521016004778)
  );
#44 = VECTOR('',#45,1.);
#45 = DIRECTION('',(-1.20099525843E-16,-0.195583504591,0.980687051374));
#46 = ORIENTED_EDGE('',*,*,#47,.F.);
#47 = EDGE_CURVE('',#24,#40,#48,.T.);
#48 = LINE('',#49,#50);
#49 = CARTESIAN_POINT('',(1.995590252791,-1.011882978588,-4.103295972937
    ));
#50 = VECTOR('',#51,1.);
#51 = DIRECTION('',(9.713675402944E-32,-1.,-6.821594875611E-16));
#52 = PLANE('',#53);
#53 = AXIS2_PLACEMENT_3D('',#54,#55,#56);
#54 = CARTESIAN_POINT('',(1.995590252791,-1.188297858775E-02,
    -0.100541448875));
#55 = DIRECTION('',(-1.,-1.359631073447E-32,-1.224646799147E-16));
#56 = DIRECTION('',(-1.359631073447E-32,-1.,2.22044604925E-16));
#57 = ADVANCED_FACE('',(#58),#91,.T.);
#58 = FACE_BOUND('',#59,.F.);
#59 = EDGE_LOOP('',(#60,#61,#69,#77,#85));
#60 = ORIENTED_EDGE('',*,*,#21,.T.);
#61 = ORIENTED_EDGE('',*,*,#62,.F.);
#62 = EDGE_CURVE('',#63,#24,#65,.T.);
#63 = VERTEX_POINT('',#64);
#64 = CARTESIAN_POINT('',(3.94752655812,38.59069876185,-20.00054144887)
  );
#65 = LINE('',#66,#67);
#66 = CARTESIAN_POINT('',(1.151400896492,34.862531213013,2.772074595576)
  );
#67 = VECTOR('',#68,1.);
#68 = DIRECTION('',(-0.120291612308,-0.16038881641,0.979696563013));
#69 = ORIENTED_EDGE('',*,*,#70,.T.);
#70 = EDGE_CURVE('',#63,#71,#73,.T.);
#71 = VERTEX_POINT('',#72);
#72 = CARTESIAN_POINT('',(4.995590252791,39.988117021412,-20.00054144887
    ));
#73 = LINE('',#74,#75);
#74 = CARTESIAN_POINT('',(1.995590252791,35.988117021412,-20.00054144887
    ));
#75 = VECTOR('',#76,1.);
#76 = DIRECTION('',(0.6,0.8,-1.041568759912E-16));
#77 = ORIENTED_EDGE('',*,*,#78,.F.);
#78 = EDGE_CURVE('',#79,#71,#81,.T.);
#79 = VERTEX_POINT('',#80);
#80 = CARTESIAN_POINT('',(4.995590252791,39.988117021412,-0.100541448875
    ));
#81 = LINE('',#82,#83);
#82 = CARTESIAN_POINT('',(4.995590252791,39.988117021412,-0.100541448875
    ));
#83 = VECTOR('',#84,1.);
#84 = DIRECTION('',(1.224646799147E-16,-2.22044604925E-16,-1.));
#85 = ORIENTED_EDGE('',*,*,#86,.F.);
#86 = EDGE_CURVE('',#22,#79,#87,.T.);
#87 = LINE('',#88,#89);
#88 = CARTESIAN_POINT('',(1.995590252791,35.988117021412,-0.100541448875
    ));
#89 = VECTOR('',#90,1.);
#90 = DIRECTION('',(0.6,0.8,-1.041568759912E-16));
#91 = PLANE('',#92);
#92 = AXIS2_PLACEMENT_3D('',#93,#94,#95);
#93 = CARTESIAN_POINT('',(1.995590252791,35.988117021412,-0.100541448875
    ));
#94 = DIRECTION('',(-0.8,0.6,-2.311985068868E-16));
#95 = DIRECTION('',(-0.6,-0.8,1.041568759912E-16));
#96 = ADVANCED_FACE('',(#97),#122,.T.);
#97 = FACE_BOUND('',#98,.F.);
#98 = EDGE_LOOP('',(#99,#100,#108,#116));
#99 = ORIENTED_EDGE('',*,*,#31,.T.);
#100 = ORIENTED_EDGE('',*,*,#101,.T.);
#101 = EDGE_CURVE('',#22,#102,#104,.T.);
#102 = VERTEX_POINT('',#103);
#103 = CARTESIAN_POINT('',(24.995590252791,35.988117021412,
    -0.100541448875));
#104 = LINE('',#105,#106);
#105 = CARTESIAN_POINT('',(1.995590252791,35.988117021412,
    -0.100541448875));
#106 = VECTOR('',#107,1.);
#107 = DIRECTION('',(1.,1.359631073447E-32,1.224646799147E-16));
#108 = ORIENTED_EDGE('',*,*,#109,.T.);
#109 = EDGE_CURVE('',#102,#110,#112,.T.);
#110 = VERTEX_POINT('',#111);
#111 = CARTESIAN_POINT('',(24.995590252791,32.512700334115,
    -0.100541448875));
#112 = LINE('',#113,#114);
#113 = CARTESIAN_POINT('',(24.995590252791,35.988117021412,
    -0.100541448875));
#114 = VECTOR('',#115,1.);
#115 = DIRECTION('',(-1.359631073447E-32,-1.,2.22044604925E-16));
#116 = ORIENTED_EDGE('',*,*,#117,.F.);
#117 = EDGE_CURVE('',#32,#110,#118,.T.);
#118 = LINE('',#119,#120);
#119 = CARTESIAN_POINT('',(6.786513190553,9.206144518344,-0.100541448875
    ));
#120 = VECTOR('',#121,1.);
#121 = DIRECTION('',(0.615661475326,0.788010753607,-9.957675094969E-17)
  );
#122 = PLANE('',#123);
#123 = AXIS2_PLACEMENT_3D('',#124,#125,#126);
#124 = CARTESIAN_POINT('',(13.495590252791,17.988117021412,
    -0.100541448875));
#125 = DIRECTION('',(-1.224646799147E-16,2.22044604925E-16,1.));
#126 = DIRECTION('',(1.,1.359631073447E-32,1.224646799147E-16));
#127 = ADVANCED_FACE('',(#128),#162,.F.);
#128 = FACE_BOUND('',#129,.T.);
#129 = EDGE_LOOP('',(#130,#131,#139,#147,#155,#161));
#130 = ORIENTED_EDGE('',*,*,#39,.F.);
#131 = ORIENTED_EDGE('',*,*,#132,.F.);
#132 = EDGE_CURVE('',#133,#40,#135,.T.);
#133 = VERTEX_POINT('',#134);
#134 = CARTESIAN_POINT('',(3.94752655812,9.541167537537,-20.00054144887)
  );
#135 = LINE('',#136,#137);
#136 = CARTESIAN_POINT('',(1.360427461428,2.027686199298,1.069689838088)
  );
#137 = VECTOR('',#138,1.);
#138 = DIRECTION('',(-0.114885760477,-0.333652475267,0.935669432966));
#139 = ORIENTED_EDGE('',*,*,#140,.T.);
#140 = EDGE_CURVE('',#133,#141,#143,.T.);
#141 = VERTEX_POINT('',#142);
#142 = CARTESIAN_POINT('',(24.610148054821,35.988117021412,
    -20.00054144887));
#143 = LINE('',#144,#145);
#144 = CARTESIAN_POINT('',(4.861077658623,10.710459624207,
    -20.00054144887));
#145 = VECTOR('',#146,1.);
#146 = DIRECTION('',(0.615661475326,0.788010753607,-9.957675094969E-17)
  );
#147 = ORIENTED_EDGE('',*,*,#148,.F.);
#148 = EDGE_CURVE('',#149,#141,#151,.T.);
#149 = VERTEX_POINT('',#150);
#150 = CARTESIAN_POINT('',(24.995590252791,35.988117021412,
    -17.52683795829));
#151 = LINE('',#152,#153);
#152 = CARTESIAN_POINT('',(27.089923798795,35.988117021412,
    -4.085755921969));
#153 = VECTOR('',#154,1.);
#154 = DIRECTION('',(-0.15395811053,-2.193972505038E-16,-0.988077375615)
  );
#155 = ORIENTED_EDGE('',*,*,#156,.F.);
#156 = EDGE_CURVE('',#110,#149,#157,.T.);
#157 = LINE('',#158,#159);
#158 = CARTESIAN_POINT('',(24.995590252791,31.951178001509,
    2.715021559845));
#159 = VECTOR('',#160,1.);
#160 = DIRECTION('',(1.20099525843E-16,0.195583504591,-0.980687051374));
#161 = ORIENTED_EDGE('',*,*,#117,.F.);
#162 = PLANE('',#163);
#163 = AXIS2_PLACEMENT_3D('',#164,#165,#166);
#164 = CARTESIAN_POINT('',(-1.472890877569E-03,0.485822497774,
    6.039322282786E-02));
#165 = DIRECTION('',(-0.782137040944,0.611072428048,0.121869343405));
#166 = DIRECTION('',(9.603435313825E-02,-7.503025975778E-02,
    0.992546151641));
#167 = ADVANCED_FACE('',(#168),#186,.F.);
#168 = FACE_BOUND('',#169,.F.);
#169 = EDGE_LOOP('',(#170,#178,#179,#180));
#170 = ORIENTED_EDGE('',*,*,#171,.T.);
#171 = EDGE_CURVE('',#172,#24,#174,.T.);
#172 = VERTEX_POINT('',#173);
#173 = CARTESIAN_POINT('',(3.94752655812,35.988117021412,-20.00054144887
    ));
#174 = LINE('',#175,#176);
#175 = CARTESIAN_POINT('',(1.505365224361,35.988117021412,
    -0.110733513734));
#176 = VECTOR('',#177,1.);
#177 = DIRECTION('',(-0.121869343405,2.203895181111E-16,0.992546151641)
  );
#178 = ORIENTED_EDGE('',*,*,#47,.T.);
#179 = ORIENTED_EDGE('',*,*,#132,.F.);
#180 = ORIENTED_EDGE('',*,*,#181,.F.);
#181 = EDGE_CURVE('',#172,#133,#182,.T.);
#182 = LINE('',#183,#184);
#183 = CARTESIAN_POINT('',(3.94752655812,7.988117021412,-20.00054144887)
  );
#184 = VECTOR('',#185,1.);
#185 = DIRECTION('',(-1.110223024625E-16,-1.,2.22044604925E-16));
#186 = PLANE('',#187);
#187 = AXIS2_PLACEMENT_3D('',#188,#189,#190);
#188 = CARTESIAN_POINT('',(1.499317176971,-2.011882978588,
    -6.147612057729E-02));
#189 = DIRECTION('',(0.992546151641,-8.313432884666E-17,0.121869343405)
  );
#190 = DIRECTION('',(0.121869343405,-2.339197332155E-16,-0.992546151641)
  );
#191 = ADVANCED_FACE('',(#192),#202,.F.);
#192 = FACE_BOUND('',#193,.F.);
#193 = EDGE_LOOP('',(#194,#195,#196));
#194 = ORIENTED_EDGE('',*,*,#62,.T.);
#195 = ORIENTED_EDGE('',*,*,#171,.F.);
#196 = ORIENTED_EDGE('',*,*,#197,.F.);
#197 = EDGE_CURVE('',#63,#172,#198,.T.);
#198 = LINE('',#199,#200);
#199 = CARTESIAN_POINT('',(3.94752655812,17.93042471372,-20.00054144887)
  );
#200 = VECTOR('',#201,1.);
#201 = DIRECTION('',(-1.110223024625E-16,-1.,2.22044604925E-16));
#202 = PLANE('',#203);
#203 = AXIS2_PLACEMENT_3D('',#204,#205,#206);
#204 = CARTESIAN_POINT('',(1.499317176971,-2.011882978588,
    -6.147612057729E-02));
#205 = DIRECTION('',(0.992546151641,-8.313432884666E-17,0.121869343405)
  );
#206 = DIRECTION('',(0.121869343405,-2.339197332155E-16,-0.992546151641)
  );
#207 = ADVANCED_FACE('',(#208),#240,.F.);
#208 = FACE_BOUND('',#209,.T.);
#209 = EDGE_LOOP('',(#210,#211,#219,#227,#233,#239));
#210 = ORIENTED_EDGE('',*,*,#70,.T.);
#211 = ORIENTED_EDGE('',*,*,#212,.T.);
#212 = EDGE_CURVE('',#71,#213,#215,.T.);
#213 = VERTEX_POINT('',#214);
#214 = CARTESIAN_POINT('',(24.995590252791,39.988117021412,
    -20.00054144887));
#215 = LINE('',#216,#217);
#216 = CARTESIAN_POINT('',(4.995590252791,39.988117021412,
    -20.00054144887));
#217 = VECTOR('',#218,1.);
#218 = DIRECTION('',(1.,1.359631073447E-32,1.224646799147E-16));
#219 = ORIENTED_EDGE('',*,*,#220,.T.);
#220 = EDGE_CURVE('',#213,#221,#223,.T.);
#221 = VERTEX_POINT('',#222);
#222 = CARTESIAN_POINT('',(24.995590252791,36.481460537399,
    -20.00054144887));
#223 = LINE('',#224,#225);
#224 = CARTESIAN_POINT('',(24.995590252791,39.988117021412,
    -20.00054144887));
#225 = VECTOR('',#226,1.);
#226 = DIRECTION('',(-1.359631073447E-32,-1.,2.22044604925E-16));
#227 = ORIENTED_EDGE('',*,*,#228,.F.);
#228 = EDGE_CURVE('',#141,#221,#229,.T.);
#229 = LINE('',#230,#231);
#230 = CARTESIAN_POINT('',(9.779326753256,17.005531397924,
    -20.00054144887));
#231 = VECTOR('',#232,1.);
#232 = DIRECTION('',(0.615661475326,0.788010753607,-9.957675094969E-17)
  );
#233 = ORIENTED_EDGE('',*,*,#234,.F.);
#234 = EDGE_CURVE('',#172,#141,#235,.T.);
#235 = LINE('',#236,#237);
#236 = CARTESIAN_POINT('',(1.995590252791,35.988117021412,
    -20.00054144887));
#237 = VECTOR('',#238,1.);
#238 = DIRECTION('',(1.,1.359631073447E-32,1.224646799147E-16));
#239 = ORIENTED_EDGE('',*,*,#197,.F.);
#240 = PLANE('',#241);
#241 = AXIS2_PLACEMENT_3D('',#242,#243,#244);
#242 = CARTESIAN_POINT('',(13.995590252791,37.872732406028,
    -20.00054144887));
#243 = DIRECTION('',(-1.224646799147E-16,2.22044604925E-16,1.));
#244 = DIRECTION('',(1.359631073447E-32,1.,-2.22044604925E-16));
#245 = ADVANCED_FACE('',(#246),#264,.T.);
#246 = FACE_BOUND('',#247,.F.);
#247 = EDGE_LOOP('',(#248,#249,#250,#258));
#248 = ORIENTED_EDGE('',*,*,#78,.T.);
#249 = ORIENTED_EDGE('',*,*,#212,.T.);
#250 = ORIENTED_EDGE('',*,*,#251,.F.);
#251 = EDGE_CURVE('',#252,#213,#254,.T.);
#252 = VERTEX_POINT('',#253);
#253 = CARTESIAN_POINT('',(24.995590252791,39.988117021412,
    -0.100541448875));
#254 = LINE('',#255,#256);
#255 = CARTESIAN_POINT('',(24.995590252791,39.988117021412,
    -0.100541448875));
#256 = VECTOR('',#257,1.);
#257 = DIRECTION('',(1.224646799147E-16,-2.22044604925E-16,-1.));
#258 = ORIENTED_EDGE('',*,*,#259,.F.);
#259 = EDGE_CURVE('',#79,#252,#260,.T.);
#260 = LINE('',#261,#262);
#261 = CARTESIAN_POINT('',(4.995590252791,39.988117021412,
    -0.100541448875));
#262 = VECTOR('',#263,1.);
#263 = DIRECTION('',(1.,1.359631073447E-32,1.224646799147E-16));
#264 = PLANE('',#265);
#265 = AXIS2_PLACEMENT_3D('',#266,#267,#268);
#266 = CARTESIAN_POINT('',(4.995590252791,39.988117021412,
    -0.100541448875));
#267 = DIRECTION('',(1.359631073447E-32,1.,-2.22044604925E-16));
#268 = DIRECTION('',(-1.,-1.359631073447E-32,-1.224646799147E-16));
#269 = ADVANCED_FACE('',(#270),#281,.T.);
#270 = FACE_BOUND('',#271,.F.);
#271 = EDGE_LOOP('',(#272,#273,#274,#280));
#272 = ORIENTED_EDGE('',*,*,#86,.T.);
#273 = ORIENTED_EDGE('',*,*,#259,.T.);
#274 = ORIENTED_EDGE('',*,*,#275,.T.);
#275 = EDGE_CURVE('',#252,#102,#276,.T.);
#276 = LINE('',#277,#278);
#277 = CARTESIAN_POINT('',(24.995590252791,39.988117021412,
    -0.100541448875));
#278 = VECTOR('',#279,1.);
#279 = DIRECTION('',(-1.359631073447E-32,-1.,2.22044604925E-16));
#280 = ORIENTED_EDGE('',*,*,#101,.F.);
#281 = PLANE('',#282);
#282 = AXIS2_PLACEMENT_3D('',#283,#284,#285);
#283 = CARTESIAN_POINT('',(13.995590252791,37.872732406028,
    -0.100541448875));
#284 = DIRECTION('',(-1.224646799147E-16,2.22044604925E-16,1.));
#285 = DIRECTION('',(1.359631073447E-32,1.,-2.22044604925E-16));
#286 = ADVANCED_FACE('',(#287),#297,.T.);
#287 = FACE_BOUND('',#288,.F.);
#288 = EDGE_LOOP('',(#289,#295,#296));
#289 = ORIENTED_EDGE('',*,*,#290,.T.);
#290 = EDGE_CURVE('',#102,#149,#291,.T.);
#291 = LINE('',#292,#293);
#292 = CARTESIAN_POINT('',(24.995590252791,35.988117021412,
    -0.100541448875));
#293 = VECTOR('',#294,1.);
#294 = DIRECTION('',(1.224646799147E-16,-2.22044604925E-16,-1.));
#295 = ORIENTED_EDGE('',*,*,#156,.F.);
#296 = ORIENTED_EDGE('',*,*,#109,.F.);
#297 = PLANE('',#298);
#298 = AXIS2_PLACEMENT_3D('',#299,#300,#301);
#299 = CARTESIAN_POINT('',(24.995590252791,35.988117021412,
    -0.100541448875));
#300 = DIRECTION('',(1.,1.359631073447E-32,1.224646799147E-16));
#301 = DIRECTION('',(1.359631073447E-32,1.,-2.22044604925E-16));
#302 = ADVANCED_FACE('',(#303),#313,.F.);
#303 = FACE_BOUND('',#304,.F.);
#304 = EDGE_LOOP('',(#305,#306,#312));
#305 = ORIENTED_EDGE('',*,*,#148,.F.);
#306 = ORIENTED_EDGE('',*,*,#307,.T.);
#307 = EDGE_CURVE('',#149,#221,#308,.T.);
#308 = LINE('',#309,#310);
#309 = CARTESIAN_POINT('',(24.995590252791,32.027683816046,
    2.331409139015));
#310 = VECTOR('',#311,1.);
#311 = DIRECTION('',(1.20099525843E-16,0.195583504591,-0.980687051374));
#312 = ORIENTED_EDGE('',*,*,#228,.F.);
#313 = PLANE('',#314);
#314 = AXIS2_PLACEMENT_3D('',#315,#316,#317);
#315 = CARTESIAN_POINT('',(-1.472890877569E-03,0.485822497774,
    6.039322282786E-02));
#316 = DIRECTION('',(-0.782137040944,0.611072428048,0.121869343405));
#317 = DIRECTION('',(9.603435313825E-02,-7.503025975778E-02,
    0.992546151641));
#318 = ADVANCED_FACE('',(#319),#324,.F.);
#319 = FACE_BOUND('',#320,.T.);
#320 = EDGE_LOOP('',(#321,#322,#323));
#321 = ORIENTED_EDGE('',*,*,#234,.T.);
#322 = ORIENTED_EDGE('',*,*,#140,.F.);
#323 = ORIENTED_EDGE('',*,*,#181,.F.);
#324 = PLANE('',#325);
#325 = AXIS2_PLACEMENT_3D('',#326,#327,#328);
#326 = CARTESIAN_POINT('',(13.495590252791,17.988117021412,
    -20.00054144887));
#327 = DIRECTION('',(-1.224646799147E-16,2.22044604925E-16,1.));
#328 = DIRECTION('',(1.,1.359631073447E-32,1.224646799147E-16));
#329 = ADVANCED_FACE('',(#330),#337,.T.);
#330 = FACE_BOUND('',#331,.F.);
#331 = EDGE_LOOP('',(#332,#333,#334,#335,#336));
#332 = ORIENTED_EDGE('',*,*,#251,.T.);
#333 = ORIENTED_EDGE('',*,*,#220,.T.);
#334 = ORIENTED_EDGE('',*,*,#307,.F.);
#335 = ORIENTED_EDGE('',*,*,#290,.F.);
#336 = ORIENTED_EDGE('',*,*,#275,.F.);
#337 = PLANE('',#338);
#338 = AXIS2_PLACEMENT_3D('',#339,#340,#341);
#339 = CARTESIAN_POINT('',(24.995590252791,39.988117021412,
    -0.100541448875));
#340 = DIRECTION('',(1.,1.359631073447E-32,1.224646799147E-16));
#341 = DIRECTION('',(1.359631073447E-32,1.,-2.22044604925E-16));
#342 = ( GEOMETRIC_REPRESENTATION_CONTEXT(3) 
GLOBAL_UNCERTAINTY_ASSIGNED_CONTEXT((#346)) GLOBAL_UNIT_ASSIGNED_CONTEXT
((#343,#344,#345)) REPRESENTATION_CONTEXT('Context #1',
  '3D Context with UNIT and UNCERTAINTY') );
#343 = ( LENGTH_UNIT() NAMED_UNIT(*) SI_UNIT(.MILLI.,.METRE.) );
#344 = ( NAMED_UNIT(*) PLANE_ANGLE_UNIT() SI_UNIT($,.RADIAN.) );
#345 = ( NAMED_UNIT(*) SI_UNIT($,.STERADIAN.) SOLID_ANGLE_UNIT() );
#346 = UNCERTAINTY_MEASURE_WITH_UNIT(LENGTH_MEASURE(5.E-07),#343,
  'distance_accuracy_value','confusion accuracy');
#347 = PRODUCT_RELATED_PRODUCT_CATEGORY('part',$,(#7));
#348 = MECHANICAL_DESIGN_GEOMETRIC_PRESENTATION_REPRESENTATION('',(#349)
  ,#342);
#349 = STYLED_ITEM('color',(#350),#15);
#350 = PRESENTATION_STYLE_ASSIGNMENT((#351));
#351 = SURFACE_STYLE_USAGE(.BOTH.,#352);
#352 = SURFACE_SIDE_STYLE('',(#353));
#353 = SURFACE_STYLE_FILL_AREA(#354);
#354 = FILL_AREA_STYLE('',(#355));
#355 = FILL_AREA_STYLE_COLOUR('',#356);
#356 = COLOUR_RGB('',0.784313738346,0.784313738346,0.784313738346);
ENDSEC;
END-ISO-10303-21;
