ISO-10303-21;
HEADER;
FILE_DESCRIPTION(('Open CASCADE Model'),'2;1');
FILE_NAME('Open CASCADE Shape Model','2026-09-18T15:44:44',('Author'),(
    'Open CASCADE'),'Open CASCADE STEP processor 7.3','Open CASCADE 7.3'
  ,'Unknown');
FILE_SCHEMA(('AUTOMOTIVE_DESIGN { 1 0 10303 214 1 1 1 1 }'));
ENDSEC;
DATA;
#1 = APPLICATION_PROTOCOL_DEFINITION('international standard',
  'automotive_design',2000,#2);
#2 = APPLICATION_CONTEXT(
  'core data for automotive mechanical design processes');
#3 = SHAPE_DEFINITION_REPRESENTATION(#4,#10);
#4 = PRODUCT_DEFINITION_SHAPE('','',#5);
#5 = PRODUCT_DEFINITION('design','',#6,#9);
#6 = PRODUCT_DEFINITION_FORMATION('','',#7);
#7 = PRODUCT('Pottmanager 55','Pottmanager 55','',(#8));
#8 = PRODUCT_CONTEXT('',#2,'mechanical');
#9 = PRODUCT_DEFINITION_CONTEXT('part definition',#2,'design');
#10 = GEOMETRICALLY_BOUNDED_WIREFRAME_SHAPE_REPRESENTATION('',(#11,#15),
  #76);
#11 = AXIS2_PLACEMENT_3D('',#12,#13,#14);
#12 = CARTESIAN_POINT('',(0.,0.,0.));
#13 = DIRECTION('',(0.,0.,1.));
#14 = DIRECTION('',(1.,0.,-0.));
#15 = GEOMETRIC_CURVE_SET('',(#16,#24,#31,#39,#46,#54,#61,#69));
#16 = TRIMMED_CURVE('',#17,(#22,PARAMETER_VALUE(0.)),(#23,
    PARAMETER_VALUE(2.530727415392)),.T.,.PARAMETER.);
#17 = CIRCLE('',#18,4.E-03);
#18 = AXIS2_PLACEMENT_3D('',#19,#20,#21);
#19 = CARTESIAN_POINT('',(2.140011741333E-04,5.766705549334E-04,
    2.627604019855E-05));
#20 = DIRECTION('',(0.121869343405,-1.110223024625E-16,-0.992546151641)
  );
#21 = DIRECTION('',(0.782137040944,-0.615661475326,9.603435313825E-02));
#22 = CARTESIAN_POINT('',(3.342549337911E-03,-1.885975346369E-03,
    4.104134527515E-04));
#23 = CARTESIAN_POINT('',(-3.750742432411E-03,7.860143799051E-04,
    -4.605332626236E-04));
#24 = TRIMMED_CURVE('',#25,(#29,PARAMETER_VALUE(0.)),(#30,
    PARAMETER_VALUE(16.592382456547)),.T.,.PARAMETER.);
#25 = LINE('',#26,#27);
#26 = CARTESIAN_POINT('',(3.342549337911E-03,-1.885975346369E-03,
    4.104134527515E-04));
#27 = VECTOR('',#28,1.);
#28 = DIRECTION('',(0.611072428048,0.788010753607,7.503025975778E-02));
#29 = CARTESIAN_POINT('',(3.342549337911E-03,-1.885975346369E-03,
    4.104134527515E-04));
#30 = CARTESIAN_POINT('',(10.142489984166,13.073089828368,1.245341179168
    ));
#31 = TRIMMED_CURVE('',#32,(#37,PARAMETER_VALUE(5.672320068981)),(#38,
    PARAMETER_VALUE(6.28318530718)),.T.,.PARAMETER.);
#32 = CIRCLE('',#33,4.E-03);
#33 = AXIS2_PLACEMENT_3D('',#34,#35,#36);
#34 = CARTESIAN_POINT('',(10.139361436003,13.07555247427,1.244957041755)
  );
#35 = DIRECTION('',(0.121869343405,-1.110223024625E-16,-0.992546151641)
  );
#36 = DIRECTION('',(0.782137040944,-0.615661475326,9.603435313825E-02));
#37 = CARTESIAN_POINT('',(10.143326179609,13.075343130445,1.245443851058
    ));
#38 = CARTESIAN_POINT('',(10.142489984166,13.073089828368,1.245341179168
    ));
#39 = TRIMMED_CURVE('',#40,(#44,PARAMETER_VALUE(0.)),(#45,
    PARAMETER_VALUE(16.592382456547)),.T.,.PARAMETER.);
#40 = LINE('',#41,#42);
#41 = CARTESIAN_POINT('',(10.143326179609,13.075343130445,1.245443851058
    ));
#42 = VECTOR('',#43,1.);
#43 = DIRECTION('',(5.19458519614E-02,0.998629534755,6.378148623808E-03)
  );
#44 = CARTESIAN_POINT('',(10.143326179609,13.075343130445,1.245443851058
    ));
#45 = CARTESIAN_POINT('',(11.005231622384,29.644986303496,1.351272532389
    ));
#46 = TRIMMED_CURVE('',#47,(#52,PARAMETER_VALUE(3.14159265359)),(#53,
    PARAMETER_VALUE(5.672320068981)),.T.,.PARAMETER.);
#47 = CIRCLE('',#48,4.E-03);
#48 = AXIS2_PLACEMENT_3D('',#49,#50,#51);
#49 = CARTESIAN_POINT('',(11.001266878777,29.645195647321,1.350785723086
    ));
#50 = DIRECTION('',(0.121869343405,-1.110223024625E-16,-0.992546151641)
  );
#51 = DIRECTION('',(0.782137040944,-0.615661475326,9.603435313825E-02));
#52 = CARTESIAN_POINT('',(10.998138330614,29.647658293223,1.350401585674
    ));
#53 = CARTESIAN_POINT('',(11.005231622384,29.644986303496,1.351272532389
    ));
#54 = TRIMMED_CURVE('',#55,(#59,PARAMETER_VALUE(0.)),(#60,
    PARAMETER_VALUE(16.592382456547)),.T.,.PARAMETER.);
#55 = LINE('',#56,#57);
#56 = CARTESIAN_POINT('',(10.998138330614,29.647658293223,1.350401585674
    ));
#57 = VECTOR('',#58,1.);
#58 = DIRECTION('',(-0.611072428048,-0.788010753607,-7.503025975778E-02)
  );
#59 = CARTESIAN_POINT('',(10.998138330614,29.647658293223,1.350401585674
    ));
#60 = CARTESIAN_POINT('',(0.858990895785,16.572682489508,0.105470819959)
  );
#61 = TRIMMED_CURVE('',#62,(#67,PARAMETER_VALUE(2.530727415392)),(#68,
    PARAMETER_VALUE(3.14159265359)),.T.,.PARAMETER.);
#62 = CIRCLE('',#63,4.E-03);
#63 = AXIS2_PLACEMENT_3D('',#64,#65,#66);
#64 = CARTESIAN_POINT('',(0.862119443949,16.570219843607,0.105854957371)
  );
#65 = DIRECTION('',(0.121869343405,-1.110223024625E-16,-0.992546151641)
  );
#66 = DIRECTION('',(0.782137040944,-0.615661475326,9.603435313825E-02));
#67 = CARTESIAN_POINT('',(0.858154700342,16.570429187432,0.105368148068)
  );
#68 = CARTESIAN_POINT('',(0.858990895785,16.572682489508,0.105470819959)
  );
#69 = TRIMMED_CURVE('',#70,(#74,PARAMETER_VALUE(0.)),(#75,
    PARAMETER_VALUE(16.592382456547)),.T.,.PARAMETER.);
#70 = LINE('',#71,#72);
#71 = CARTESIAN_POINT('',(0.858154700342,16.570429187432,0.105368148068)
  );
#72 = VECTOR('',#73,1.);
#73 = DIRECTION('',(-5.19458519614E-02,-0.998629534755,
    -6.378148623808E-03));
#74 = CARTESIAN_POINT('',(0.858154700342,16.570429187432,0.105368148068)
  );
#75 = CARTESIAN_POINT('',(-3.750742432411E-03,7.860143799051E-04,
    -4.605332626236E-04));
#76 = ( GEOMETRIC_REPRESENTATION_CONTEXT(3) 
GLOBAL_UNCERTAINTY_ASSIGNED_CONTEXT((#80)) GLOBAL_UNIT_ASSIGNED_CONTEXT(
(#77,#78,#79)) REPRESENTATION_CONTEXT('Context #1',
  '3D Context with UNIT and UNCERTAINTY') );
#77 = ( LENGTH_UNIT() NAMED_UNIT(*) SI_UNIT(.MILLI.,.METRE.) );
#78 = ( NAMED_UNIT(*) PLANE_ANGLE_UNIT() SI_UNIT($,.RADIAN.) );
#79 = ( NAMED_UNIT(*) SI_UNIT($,.STERADIAN.) SOLID_ANGLE_UNIT() );
#80 = UNCERTAINTY_MEASURE_WITH_UNIT(LENGTH_MEASURE(1.E-07),#77,
  'distance_accuracy_value','confusion accuracy');
#81 = PRODUCT_RELATED_PRODUCT_CATEGORY('part',$,(#7));
#82 = MECHANICAL_DESIGN_GEOMETRIC_PRESENTATION_REPRESENTATION('',(#83),
  #76);
#83 = STYLED_ITEM('color',(#84),#15);
#84 = PRESENTATION_STYLE_ASSIGNMENT((#85));
#85 = SURFACE_STYLE_USAGE(.BOTH.,#86);
#86 = SURFACE_SIDE_STYLE('',(#87));
#87 = SURFACE_STYLE_FILL_AREA(#88);
#88 = FILL_AREA_STYLE('',(#89));
#89 = FILL_AREA_STYLE_COLOUR('',#90);
#90 = DRAUGHTING_PRE_DEFINED_COLOUR('green');
ENDSEC;
END-ISO-10303-21;
