ISO-10303-21;
HEADER;
FILE_DESCRIPTION(('Open CASCADE Model'),'2;1');
FILE_NAME('Open CASCADE Shape Model','2026-09-18T15:55:23',('Author'),(
    'Open CASCADE'),'Open CASCADE STEP processor 7.3','Open CASCADE 7.3'
  ,'Unknown');
FILE_SCHEMA(('AUTOMOTIVE_DESIGN { 1 0 10303 214 1 1 1 1 }'));
ENDSEC;
DATA;
#1 = APPLICATION_PROTOCOL_DEFINITION('international standard',
  'automotive_design',2000,#2);
#2 = APPLICATION_CONTEXT(
  'core data for automotive mechanical design processes');
#3 = SHAPE_DEFINITION_REPRESENTATION(#4,#10);
#4 = PRODUCT_DEFINITION_SHAPE('','',#5);
#5 = PRODUCT_DEFINITION('design','',#6,#9);
#6 = PRODUCT_DEFINITION_FORMATION('','',#7);
#7 = PRODUCT('Pottmanager 158','Pottmanager 158','',(#8));
#8 = PRODUCT_CONTEXT('',#2,'mechanical');
#9 = PRODUCT_DEFINITION_CONTEXT('part definition',#2,'design');
#10 = ADVANCED_BREP_SHAPE_REPRESENTATION('',(#11,#15),#141);
#11 = AXIS2_PLACEMENT_3D('',#12,#13,#14);
#12 = CARTESIAN_POINT('',(0.,0.,0.));
#13 = DIRECTION('',(0.,0.,1.));
#14 = DIRECTION('',(1.,0.,-0.));
#15 = MANIFOLD_SOLID_BREP('',#16);
#16 = CLOSED_SHELL('',(#17,#57,#79,#103,#122,#132));
#17 = ADVANCED_FACE('',(#18),#52,.F.);
#18 = FACE_BOUND('',#19,.F.);
#19 = EDGE_LOOP('',(#20,#30,#38,#46));
#20 = ORIENTED_EDGE('',*,*,#21,.T.);
#21 = EDGE_CURVE('',#22,#24,#26,.T.);
#22 = VERTEX_POINT('',#23);
#23 = CARTESIAN_POINT('',(0.89604558626,11.142398326957,-0.1));
#24 = VERTEX_POINT('',#25);
#25 = CARTESIAN_POINT('',(0.89604558626,11.142398326957,-1.));
#26 = LINE('',#27,#28);
#27 = CARTESIAN_POINT('',(0.89604558626,11.142398326957,-0.1));
#28 = VECTOR('',#29,1.);
#29 = DIRECTION('',(-1.224646799147E-16,-2.22044604925E-16,-1.));
#30 = ORIENTED_EDGE('',*,*,#31,.F.);
#31 = EDGE_CURVE('',#32,#24,#34,.T.);
#32 = VERTEX_POINT('',#33);
#33 = CARTESIAN_POINT('',(0.156329111536,11.142398326957,-1.));
#34 = LINE('',#35,#36);
#35 = CARTESIAN_POINT('',(-0.10395441374,11.142398326957,-1.));
#36 = VECTOR('',#37,1.);
#37 = DIRECTION('',(1.,-1.359631073447E-32,-1.224646799147E-16));
#38 = ORIENTED_EDGE('',*,*,#39,.F.);
#39 = EDGE_CURVE('',#40,#32,#42,.T.);
#40 = VERTEX_POINT('',#41);
#41 = CARTESIAN_POINT('',(0.156329111536,11.142398326957,-0.1));
#42 = LINE('',#43,#44);
#43 = CARTESIAN_POINT('',(0.156329111536,11.142398326957,-5.E-02));
#44 = VECTOR('',#45,1.);
#45 = DIRECTION('',(-1.224646799147E-16,-2.22044604925E-16,-1.));
#46 = ORIENTED_EDGE('',*,*,#47,.T.);
#47 = EDGE_CURVE('',#40,#22,#48,.T.);
#48 = LINE('',#49,#50);
#49 = CARTESIAN_POINT('',(-0.10395441374,11.142398326957,-0.1));
#50 = VECTOR('',#51,1.);
#51 = DIRECTION('',(1.,-1.359631073447E-32,-1.224646799147E-16));
#52 = PLANE('',#53);
#53 = AXIS2_PLACEMENT_3D('',#54,#55,#56);
#54 = CARTESIAN_POINT('',(0.89604558626,11.142398326957,-0.1));
#55 = DIRECTION('',(-1.359631073447E-32,1.,-2.22044604925E-16));
#56 = DIRECTION('',(-1.,1.359631073447E-32,1.224646799147E-16));
#57 = ADVANCED_FACE('',(#58),#74,.F.);
#58 = FACE_BOUND('',#59,.F.);
#59 = EDGE_LOOP('',(#60,#68));
#60 = ORIENTED_EDGE('',*,*,#61,.F.);
#61 = EDGE_CURVE('',#62,#32,#64,.T.);
#62 = VERTEX_POINT('',#63);
#63 = CARTESIAN_POINT('',(-0.10395441374,11.142398326957,-1.));
#64 = LINE('',#65,#66);
#65 = CARTESIAN_POINT('',(-0.10395441374,11.142398326957,-1.));
#66 = VECTOR('',#67,1.);
#67 = DIRECTION('',(1.,-1.359631073447E-32,-1.224646799147E-16));
#68 = ORIENTED_EDGE('',*,*,#69,.F.);
#69 = EDGE_CURVE('',#32,#62,#70,.T.);
#70 = LINE('',#71,#72);
#71 = CARTESIAN_POINT('',(0.89604558626,11.142398326957,-1.));
#72 = VECTOR('',#73,1.);
#73 = DIRECTION('',(-1.,1.359631073447E-32,1.224646799147E-16));
#74 = PLANE('',#75);
#75 = AXIS2_PLACEMENT_3D('',#76,#77,#78);
#76 = CARTESIAN_POINT('',(0.39604558626,11.142398326957,-1.));
#77 = DIRECTION('',(1.224646799147E-16,2.22044604925E-16,1.));
#78 = DIRECTION('',(1.,-1.359631073447E-32,-1.224646799147E-16));
#79 = ADVANCED_FACE('',(#80),#98,.F.);
#80 = FACE_BOUND('',#81,.F.);
#81 = EDGE_LOOP('',(#82,#83,#91,#97));
#82 = ORIENTED_EDGE('',*,*,#69,.T.);
#83 = ORIENTED_EDGE('',*,*,#84,.F.);
#84 = EDGE_CURVE('',#85,#62,#87,.T.);
#85 = VERTEX_POINT('',#86);
#86 = CARTESIAN_POINT('',(-0.10395441374,11.142398326957,-0.1));
#87 = LINE('',#88,#89);
#88 = CARTESIAN_POINT('',(-0.10395441374,11.142398326957,-0.1));
#89 = VECTOR('',#90,1.);
#90 = DIRECTION('',(-1.224646799147E-16,-2.22044604925E-16,-1.));
#91 = ORIENTED_EDGE('',*,*,#92,.F.);
#92 = EDGE_CURVE('',#40,#85,#93,.T.);
#93 = LINE('',#94,#95);
#94 = CARTESIAN_POINT('',(0.89604558626,11.142398326957,-0.1));
#95 = VECTOR('',#96,1.);
#96 = DIRECTION('',(-1.,1.359631073447E-32,1.224646799147E-16));
#97 = ORIENTED_EDGE('',*,*,#39,.T.);
#98 = PLANE('',#99);
#99 = AXIS2_PLACEMENT_3D('',#100,#101,#102);
#100 = CARTESIAN_POINT('',(0.89604558626,11.142398326957,-0.1));
#101 = DIRECTION('',(-1.359631073447E-32,1.,-2.22044604925E-16));
#102 = DIRECTION('',(-1.,1.359631073447E-32,1.224646799147E-16));
#103 = ADVANCED_FACE('',(#104),#117,.F.);
#104 = FACE_BOUND('',#105,.F.);
#105 = EDGE_LOOP('',(#106,#107,#108,#109,#110,#111));
#106 = ORIENTED_EDGE('',*,*,#84,.T.);
#107 = ORIENTED_EDGE('',*,*,#61,.T.);
#108 = ORIENTED_EDGE('',*,*,#31,.T.);
#109 = ORIENTED_EDGE('',*,*,#21,.F.);
#110 = ORIENTED_EDGE('',*,*,#47,.F.);
#111 = ORIENTED_EDGE('',*,*,#112,.F.);
#112 = EDGE_CURVE('',#85,#40,#113,.T.);
#113 = LINE('',#114,#115);
#114 = CARTESIAN_POINT('',(-0.10395441374,11.142398326957,-0.1));
#115 = VECTOR('',#116,1.);
#116 = DIRECTION('',(1.,-1.359631073447E-32,-1.224646799147E-16));
#117 = PLANE('',#118);
#118 = AXIS2_PLACEMENT_3D('',#119,#120,#121);
#119 = CARTESIAN_POINT('',(-0.10395441374,11.142398326957,-0.1));
#120 = DIRECTION('',(1.359631073447E-32,-1.,2.22044604925E-16));
#121 = DIRECTION('',(1.,-1.359631073447E-32,-1.224646799147E-16));
#122 = ADVANCED_FACE('',(#123),#127,.T.);
#123 = FACE_BOUND('',#124,.T.);
#124 = EDGE_LOOP('',(#125,#126));
#125 = ORIENTED_EDGE('',*,*,#112,.F.);
#126 = ORIENTED_EDGE('',*,*,#92,.F.);
#127 = PLANE('',#128);
#128 = AXIS2_PLACEMENT_3D('',#129,#130,#131);
#129 = CARTESIAN_POINT('',(0.39604558626,11.142398326957,-0.1));
#130 = DIRECTION('',(1.224646799147E-16,2.22044604925E-16,1.));
#131 = DIRECTION('',(1.,-1.359631073447E-32,-1.224646799147E-16));
#132 = ADVANCED_FACE('',(#133),#136,.T.);
#133 = FACE_BOUND('',#134,.T.);
#134 = EDGE_LOOP('',(#135));
#135 = ORIENTED_EDGE('',*,*,#39,.T.);
#136 = PLANE('',#137);
#137 = AXIS2_PLACEMENT_3D('',#138,#139,#140);
#138 = CARTESIAN_POINT('',(-0.10395441374,11.642398326957,
    -1.237054717213E-15));
#139 = DIRECTION('',(0.887010833178,0.461748613235,-2.111562861665E-16)
  );
#140 = DIRECTION('',(-1.224646799147E-16,-2.22044604925E-16,-1.));
#141 = ( GEOMETRIC_REPRESENTATION_CONTEXT(3) 
GLOBAL_UNCERTAINTY_ASSIGNED_CONTEXT((#145)) GLOBAL_UNIT_ASSIGNED_CONTEXT
((#142,#143,#144)) REPRESENTATION_CONTEXT('Context #1',
  '3D Context with UNIT and UNCERTAINTY') );
#142 = ( LENGTH_UNIT() NAMED_UNIT(*) SI_UNIT(.MILLI.,.METRE.) );
#143 = ( NAMED_UNIT(*) PLANE_ANGLE_UNIT() SI_UNIT($,.RADIAN.) );
#144 = ( NAMED_UNIT(*) SI_UNIT($,.STERADIAN.) SOLID_ANGLE_UNIT() );
#145 = UNCERTAINTY_MEASURE_WITH_UNIT(LENGTH_MEASURE(5.E-07),#142,
  'distance_accuracy_value','confusion accuracy');
#146 = PRODUCT_RELATED_PRODUCT_CATEGORY('part',$,(#7));
#147 = MECHANICAL_DESIGN_GEOMETRIC_PRESENTATION_REPRESENTATION('',(#148)
  ,#141);
#148 = STYLED_ITEM('color',(#149),#15);
#149 = PRESENTATION_STYLE_ASSIGNMENT((#150));
#150 = SURFACE_STYLE_USAGE(.BOTH.,#151);
#151 = SURFACE_SIDE_STYLE('',(#152));
#152 = SURFACE_STYLE_FILL_AREA(#153);
#153 = FILL_AREA_STYLE('',(#154));
#154 = FILL_AREA_STYLE_COLOUR('',#155);
#155 = COLOUR_RGB('',0.784313738346,0.784313738346,0.784313738346);
ENDSEC;
END-ISO-10303-21;
