ISO-10303-21;
HEADER;
FILE_DESCRIPTION(('Open CASCADE Model'),'2;1');
FILE_NAME('Open CASCADE Shape Model','2026-09-18T15:55:23',('Author'),(
    'Open CASCADE'),'Open CASCADE STEP processor 7.3','Open CASCADE 7.3'
  ,'Unknown');
FILE_SCHEMA(('AUTOMOTIVE_DESIGN { 1 0 10303 214 1 1 1 1 }'));
ENDSEC;
DATA;
#1 = APPLICATION_PROTOCOL_DEFINITION('international standard',
  'automotive_design',2000,#2);
#2 = APPLICATION_CONTEXT(
  'core data for automotive mechanical design processes');
#3 = SHAPE_DEFINITION_REPRESENTATION(#4,#10);
#4 = PRODUCT_DEFINITION_SHAPE('','',#5);
#5 = PRODUCT_DEFINITION('design','',#6,#9);
#6 = PRODUCT_DEFINITION_FORMATION('','',#7);
#7 = PRODUCT('Pottmanager 159','Pottmanager 159','',(#8));
#8 = PRODUCT_CONTEXT('',#2,'mechanical');
#9 = PRODUCT_DEFINITION_CONTEXT('part definition',#2,'design');
#10 = ADVANCED_BREP_SHAPE_REPRESENTATION('',(#11,#15),#345);
#11 = AXIS2_PLACEMENT_3D('',#12,#13,#14);
#12 = CARTESIAN_POINT('',(0.,0.,0.));
#13 = DIRECTION('',(0.,0.,1.));
#14 = DIRECTION('',(1.,0.,-0.));
#15 = MANIFOLD_SOLID_BREP('',#16);
#16 = CLOSED_SHELL('',(#17,#71,#101,#143,#173,#219,#249,#291,#313,#329)
  );
#17 = ADVANCED_FACE('',(#18),#52,.T.);
#18 = FACE_BOUND('',#19,.T.);
#19 = EDGE_LOOP('',(#20,#31,#38,#47));
#20 = ORIENTED_EDGE('',*,*,#21,.T.);
#21 = EDGE_CURVE('',#22,#24,#26,.T.);
#22 = VERTEX_POINT('',#23);
#23 = CARTESIAN_POINT('',(0.354804333271,-8.682006800239E-02,
    9.638963849578E-18));
#24 = VERTEX_POINT('',#25);
#25 = CARTESIAN_POINT('',(-0.354804333271,-8.682006800239E-02,
    9.638963849578E-18));
#26 = CIRCLE('',#27,0.4);
#27 = AXIS2_PLACEMENT_3D('',#28,#29,#30);
#28 = CARTESIAN_POINT('',(0.,9.787937729162E-02,-1.086679383051E-17));
#29 = DIRECTION('',(0.,-1.110223024625E-16,-1.));
#30 = DIRECTION('',(0.887010833178,-0.461748613235,5.126439420023E-17));
#31 = ORIENTED_EDGE('',*,*,#32,.T.);
#32 = EDGE_CURVE('',#24,#33,#35,.T.);
#33 = VERTEX_POINT('',#34);
#34 = CARTESIAN_POINT('',(-0.354804333271,0.303634847947,-3.1800001));
#35 = B_SPLINE_CURVE_WITH_KNOTS('',1,(#36,#37),.UNSPECIFIED.,.F.,.F.,(2,
    2),(0.,1.),.PIECEWISE_BEZIER_KNOTS.);
#36 = CARTESIAN_POINT('',(-0.354804333271,-8.682006800239E-02,
    9.638963849578E-18));
#37 = CARTESIAN_POINT('',(-0.354804333271,0.303634847947,-3.1800001));
#38 = ORIENTED_EDGE('',*,*,#39,.F.);
#39 = EDGE_CURVE('',#40,#33,#42,.T.);
#40 = VERTEX_POINT('',#41);
#41 = CARTESIAN_POINT('',(0.354804333271,0.303634847947,-3.1800001));
#42 = CIRCLE('',#43,0.4);
#43 = AXIS2_PLACEMENT_3D('',#44,#45,#46);
#44 = CARTESIAN_POINT('',(8.881784197001E-16,0.488334293241,-3.1800001)
  );
#45 = DIRECTION('',(0.,-1.110223024625E-16,-1.));
#46 = DIRECTION('',(0.887010833178,-0.461748613235,5.126439420023E-17));
#47 = ORIENTED_EDGE('',*,*,#48,.F.);
#48 = EDGE_CURVE('',#22,#40,#49,.T.);
#49 = B_SPLINE_CURVE_WITH_KNOTS('',1,(#50,#51),.UNSPECIFIED.,.F.,.F.,(2,
    2),(0.,1.),.PIECEWISE_BEZIER_KNOTS.);
#50 = CARTESIAN_POINT('',(0.354804333271,-8.682006800239E-02,
    9.638963849578E-18));
#51 = CARTESIAN_POINT('',(0.354804333271,0.303634847947,-3.1800001));
#52 = B_SPLINE_SURFACE_WITH_KNOTS('',8,1,(
    (#53,#54)
    ,(#55,#56)
    ,(#57,#58)
    ,(#59,#60)
    ,(#61,#62)
    ,(#63,#64)
    ,(#65,#66)
    ,(#67,#68)
    ,(#69,#70
    )),.UNSPECIFIED.,.F.,.F.,.F.,(9,9),(2,2),(0.,2.181661564993),(0.,1.)
  ,.PIECEWISE_BEZIER_KNOTS.);
#53 = CARTESIAN_POINT('',(0.354804333271,-8.682006800239E-02,
    9.638963849578E-18));
#54 = CARTESIAN_POINT('',(0.354804333271,0.303634847947,-3.1800001));
#55 = CARTESIAN_POINT('',(0.304435373162,-0.183577940126,
    2.038124559414E-17));
#56 = CARTESIAN_POINT('',(0.304435373162,0.206876975823,-3.1800001));
#57 = CARTESIAN_POINT('',(0.223909656193,-0.264637573442,
    2.93806727216E-17));
#58 = CARTESIAN_POINT('',(0.223909656193,0.125817342508,-3.1800001));
#59 = CARTESIAN_POINT('',(0.118940217611,-0.31903338579,
    3.54198210528E-17));
#60 = CARTESIAN_POINT('',(0.118940217611,7.142153015986E-02,-3.1800001)
  );
#61 = CARTESIAN_POINT('',(1.7763568394E-15,-0.338293553018,
    3.755812916432E-17));
#62 = CARTESIAN_POINT('',(6.217248937901E-15,5.216136293138E-02,
    -3.1800001));
#63 = CARTESIAN_POINT('',(-0.118940217611,-0.31903338579,
    3.54198210528E-17));
#64 = CARTESIAN_POINT('',(-0.118940217611,7.142153015986E-02,-3.1800001)
  );
#65 = CARTESIAN_POINT('',(-0.223909656193,-0.264637573442,
    2.93806727216E-17));
#66 = CARTESIAN_POINT('',(-0.223909656193,0.125817342508,-3.1800001));
#67 = CARTESIAN_POINT('',(-0.304435373162,-0.183577940126,
    2.038124559414E-17));
#68 = CARTESIAN_POINT('',(-0.304435373162,0.206876975823,-3.1800001));
#69 = CARTESIAN_POINT('',(-0.354804333271,-8.682006800239E-02,
    9.638963849578E-18));
#70 = CARTESIAN_POINT('',(-0.354804333271,0.303634847947,-3.1800001));
#71 = ADVANCED_FACE('',(#72),#96,.T.);
#72 = FACE_BOUND('',#73,.T.);
#73 = EDGE_LOOP('',(#74,#82,#89,#95));
#74 = ORIENTED_EDGE('',*,*,#75,.F.);
#75 = EDGE_CURVE('',#76,#24,#78,.T.);
#76 = VERTEX_POINT('',#77);
#77 = CARTESIAN_POINT('',(-5.305702265673,9.4237663726,
    -1.046248240555E-15));
#78 = LINE('',#79,#80);
#79 = CARTESIAN_POINT('',(-5.305702265673,9.4237663726,
    -1.046248240555E-15));
#80 = VECTOR('',#81,1.);
#81 = DIRECTION('',(0.461748613235,-0.887010833178,9.847798500864E-17));
#82 = ORIENTED_EDGE('',*,*,#83,.T.);
#83 = EDGE_CURVE('',#76,#84,#86,.T.);
#84 = VERTEX_POINT('',#85);
#85 = CARTESIAN_POINT('',(-5.102444301704,9.4237663726,-3.1800001));
#86 = B_SPLINE_CURVE_WITH_KNOTS('',1,(#87,#88),.UNSPECIFIED.,.F.,.F.,(2,
    2),(0.,1.),.PIECEWISE_BEZIER_KNOTS.);
#87 = CARTESIAN_POINT('',(-5.305702265673,9.4237663726,
    -1.046248240555E-15));
#88 = CARTESIAN_POINT('',(-5.102444301704,9.4237663726,-3.1800001));
#89 = ORIENTED_EDGE('',*,*,#90,.T.);
#90 = EDGE_CURVE('',#84,#33,#91,.T.);
#91 = LINE('',#92,#93);
#92 = CARTESIAN_POINT('',(-5.102444301704,9.4237663726,-3.1800001));
#93 = VECTOR('',#94,1.);
#94 = DIRECTION('',(0.461748613235,-0.887010833178,9.847798500864E-17));
#95 = ORIENTED_EDGE('',*,*,#32,.F.);
#96 = B_SPLINE_SURFACE_WITH_KNOTS('',1,1,(
    (#97,#98)
    ,(#99,#100
    )),.UNSPECIFIED.,.F.,.F.,.F.,(2,2),(2,2),(-10.72206345724,0.),(0.,1.
    ),.PIECEWISE_BEZIER_KNOTS.);
#97 = CARTESIAN_POINT('',(-0.354804333271,-8.682006800239E-02,
    9.638963849578E-18));
#98 = CARTESIAN_POINT('',(-0.354804333271,0.303634847947,-3.1800001));
#99 = CARTESIAN_POINT('',(-5.305702265673,9.4237663726,
    -1.046248240555E-15));
#100 = CARTESIAN_POINT('',(-5.102444301704,9.4237663726,-3.1800001));
#101 = ADVANCED_FACE('',(#102),#128,.T.);
#102 = FACE_BOUND('',#103,.T.);
#103 = EDGE_LOOP('',(#104,#113,#120,#127));
#104 = ORIENTED_EDGE('',*,*,#105,.T.);
#105 = EDGE_CURVE('',#76,#106,#108,.T.);
#106 = VERTEX_POINT('',#107);
#107 = CARTESIAN_POINT('',(-5.305702265673,9.793165263188,
    -1.087259755915E-15));
#108 = CIRCLE('',#109,0.4);
#109 = AXIS2_PLACEMENT_3D('',#110,#111,#112);
#110 = CARTESIAN_POINT('',(-4.950897932402,9.608465817894,
    -1.066753998235E-15));
#111 = DIRECTION('',(0.,-1.110223024625E-16,-1.));
#112 = DIRECTION('',(0.887010833178,-0.461748613235,5.126439420023E-17)
  );
#113 = ORIENTED_EDGE('',*,*,#114,.T.);
#114 = EDGE_CURVE('',#106,#115,#117,.T.);
#115 = VERTEX_POINT('',#116);
#116 = CARTESIAN_POINT('',(-5.102444301704,9.793165263188,-3.1800001));
#117 = B_SPLINE_CURVE_WITH_KNOTS('',1,(#118,#119),.UNSPECIFIED.,.F.,.F.,
  (2,2),(0.,1.),.PIECEWISE_BEZIER_KNOTS.);
#118 = CARTESIAN_POINT('',(-5.305702265673,9.793165263188,
    -1.087259755915E-15));
#119 = CARTESIAN_POINT('',(-5.102444301704,9.793165263188,-3.1800001));
#120 = ORIENTED_EDGE('',*,*,#121,.F.);
#121 = EDGE_CURVE('',#84,#115,#122,.T.);
#122 = CIRCLE('',#123,0.4);
#123 = AXIS2_PLACEMENT_3D('',#124,#125,#126);
#124 = CARTESIAN_POINT('',(-4.747639968432,9.608465817894,-3.1800001));
#125 = DIRECTION('',(0.,-1.110223024625E-16,-1.));
#126 = DIRECTION('',(0.887010833178,-0.461748613235,5.126439420023E-17)
  );
#127 = ORIENTED_EDGE('',*,*,#83,.F.);
#128 = B_SPLINE_SURFACE_WITH_KNOTS('',6,1,(
    (#129,#130)
    ,(#131,#132)
    ,(#133,#134)
    ,(#135,#136)
    ,(#137,#138)
    ,(#139,#140)
    ,(#141,#142
    )),.UNSPECIFIED.,.F.,.F.,.F.,(7,7),(2,2),(2.181661564993,
    3.14159265359),(0.,1.),.PIECEWISE_BEZIER_KNOTS.);
#129 = CARTESIAN_POINT('',(-5.305702265673,9.4237663726,
    -1.046248240555E-15));
#130 = CARTESIAN_POINT('',(-5.102444301704,9.4237663726,-3.1800001));
#131 = CARTESIAN_POINT('',(-5.335252055604,9.480530990913,
    -1.052550379178E-15));
#132 = CARTESIAN_POINT('',(-5.131994091634,9.480530990913,-3.1800001));
#133 = CARTESIAN_POINT('',(-5.353903802981,9.542968383416,
    -1.059482322254E-15));
#134 = CARTESIAN_POINT('',(-5.150645839012,9.542968383416,-3.1800001));
#135 = CARTESIAN_POINT('',(-5.360296217918,9.608465817894,
    -1.066753998235E-15));
#136 = CARTESIAN_POINT('',(-5.157038253948,9.608465817894,-3.1800001));
#137 = CARTESIAN_POINT('',(-5.353903802981,9.673963252371,
    -1.074025674216E-15));
#138 = CARTESIAN_POINT('',(-5.150645839012,9.673963252371,-3.1800001));
#139 = CARTESIAN_POINT('',(-5.335252055604,9.736400644875,
    -1.080957617292E-15));
#140 = CARTESIAN_POINT('',(-5.131994091634,9.736400644875,-3.1800001));
#141 = CARTESIAN_POINT('',(-5.305702265673,9.793165263188,
    -1.087259755915E-15));
#142 = CARTESIAN_POINT('',(-5.102444301704,9.793165263188,-3.1800001));
#143 = ADVANCED_FACE('',(#144),#168,.T.);
#144 = FACE_BOUND('',#145,.T.);
#145 = EDGE_LOOP('',(#146,#154,#161,#167));
#146 = ORIENTED_EDGE('',*,*,#147,.F.);
#147 = EDGE_CURVE('',#148,#106,#150,.T.);
#148 = VERTEX_POINT('',#149);
#149 = CARTESIAN_POINT('',(-0.354804333271,19.30375170379,
    -2.143146960319E-15));
#150 = LINE('',#151,#152);
#151 = CARTESIAN_POINT('',(-0.354804333271,19.30375170379,
    -2.143146960319E-15));
#152 = VECTOR('',#153,1.);
#153 = DIRECTION('',(-0.461748613235,-0.887010833178,9.847798500864E-17)
  );
#154 = ORIENTED_EDGE('',*,*,#155,.T.);
#155 = EDGE_CURVE('',#148,#156,#158,.T.);
#156 = VERTEX_POINT('',#157);
#157 = CARTESIAN_POINT('',(-0.354804333271,18.91329678784,-3.1800001));
#158 = B_SPLINE_CURVE_WITH_KNOTS('',1,(#159,#160),.UNSPECIFIED.,.F.,.F.,
  (2,2),(0.,1.),.PIECEWISE_BEZIER_KNOTS.);
#159 = CARTESIAN_POINT('',(-0.354804333271,19.30375170379,
    -2.143146960319E-15));
#160 = CARTESIAN_POINT('',(-0.354804333271,18.91329678784,-3.1800001));
#161 = ORIENTED_EDGE('',*,*,#162,.T.);
#162 = EDGE_CURVE('',#156,#115,#163,.T.);
#163 = LINE('',#164,#165);
#164 = CARTESIAN_POINT('',(-0.354804333271,18.91329678784,-3.1800001));
#165 = VECTOR('',#166,1.);
#166 = DIRECTION('',(-0.461748613235,-0.887010833178,9.847798500864E-17)
  );
#167 = ORIENTED_EDGE('',*,*,#114,.F.);
#168 = B_SPLINE_SURFACE_WITH_KNOTS('',1,1,(
    (#169,#170)
    ,(#171,#172
    )),.UNSPECIFIED.,.F.,.F.,.F.,(2,2),(2,2),(-10.72206345724,0.),(0.,1.
    ),.PIECEWISE_BEZIER_KNOTS.);
#169 = CARTESIAN_POINT('',(-5.305702265673,9.793165263188,
    -1.087259755915E-15));
#170 = CARTESIAN_POINT('',(-5.102444301704,9.793165263188,-3.1800001));
#171 = CARTESIAN_POINT('',(-0.354804333271,19.30375170379,
    -2.143146960319E-15));
#172 = CARTESIAN_POINT('',(-0.354804333271,18.91329678784,-3.1800001));
#173 = ADVANCED_FACE('',(#174),#200,.T.);
#174 = FACE_BOUND('',#175,.T.);
#175 = EDGE_LOOP('',(#176,#185,#192,#199));
#176 = ORIENTED_EDGE('',*,*,#177,.T.);
#177 = EDGE_CURVE('',#148,#178,#180,.T.);
#178 = VERTEX_POINT('',#179);
#179 = CARTESIAN_POINT('',(0.354804333271,19.30375170379,
    -2.143146960319E-15));
#180 = CIRCLE('',#181,0.4);
#181 = AXIS2_PLACEMENT_3D('',#182,#183,#184);
#182 = CARTESIAN_POINT('',(1.33226762955E-15,19.119052258496,
    -2.122641202639E-15));
#183 = DIRECTION('',(0.,-1.110223024625E-16,-1.));
#184 = DIRECTION('',(0.887010833178,-0.461748613235,5.126439420023E-17)
  );
#185 = ORIENTED_EDGE('',*,*,#186,.T.);
#186 = EDGE_CURVE('',#178,#187,#189,.T.);
#187 = VERTEX_POINT('',#188);
#188 = CARTESIAN_POINT('',(0.354804333271,18.91329678784,-3.1800001));
#189 = B_SPLINE_CURVE_WITH_KNOTS('',1,(#190,#191),.UNSPECIFIED.,.F.,.F.,
  (2,2),(0.,1.),.PIECEWISE_BEZIER_KNOTS.);
#190 = CARTESIAN_POINT('',(0.354804333271,19.30375170379,
    -2.143146960319E-15));
#191 = CARTESIAN_POINT('',(0.354804333271,18.91329678784,-3.1800001));
#192 = ORIENTED_EDGE('',*,*,#193,.F.);
#193 = EDGE_CURVE('',#156,#187,#194,.T.);
#194 = CIRCLE('',#195,0.4);
#195 = AXIS2_PLACEMENT_3D('',#196,#197,#198);
#196 = CARTESIAN_POINT('',(4.440892098501E-16,18.728597342546,-3.1800001
    ));
#197 = DIRECTION('',(0.,-1.110223024625E-16,-1.));
#198 = DIRECTION('',(0.887010833178,-0.461748613235,5.126439420023E-17)
  );
#199 = ORIENTED_EDGE('',*,*,#155,.F.);
#200 = B_SPLINE_SURFACE_WITH_KNOTS('',8,1,(
    (#201,#202)
    ,(#203,#204)
    ,(#205,#206)
    ,(#207,#208)
    ,(#209,#210)
    ,(#211,#212)
    ,(#213,#214)
    ,(#215,#216)
    ,(#217,#218
    )),.UNSPECIFIED.,.F.,.F.,.F.,(9,9),(2,2),(3.14159265359,
    5.323254218583),(0.,1.),.PIECEWISE_BEZIER_KNOTS.);
#201 = CARTESIAN_POINT('',(-0.354804333271,19.30375170379,
    -2.143146960319E-15));
#202 = CARTESIAN_POINT('',(-0.354804333271,18.91329678784,-3.1800001));
#203 = CARTESIAN_POINT('',(-0.304435373162,19.400509575914,
    -2.153889242064E-15));
#204 = CARTESIAN_POINT('',(-0.304435373162,19.010054659964,-3.1800001));
#205 = CARTESIAN_POINT('',(-0.223909656193,19.481569209229,
    -2.162888669192E-15));
#206 = CARTESIAN_POINT('',(-0.223909656193,19.09111429328,-3.1800001));
#207 = CARTESIAN_POINT('',(-0.11894021761,19.535965021578,
    -2.168927817523E-15));
#208 = CARTESIAN_POINT('',(-0.118940217611,19.145510105628,-3.1800001));
#209 = CARTESIAN_POINT('',(-2.029487689015E-13,19.555225188806,
    -2.171066125634E-15));
#210 = CARTESIAN_POINT('',(-1.33226762955E-15,19.164770272856,-3.1800001
    ));
#211 = CARTESIAN_POINT('',(0.118940217611,19.535965021577,
    -2.168927817523E-15));
#212 = CARTESIAN_POINT('',(0.118940217611,19.145510105628,-3.1800001));
#213 = CARTESIAN_POINT('',(0.223909656193,19.48156920923,
    -2.162888669192E-15));
#214 = CARTESIAN_POINT('',(0.223909656193,19.09111429328,-3.1800001));
#215 = CARTESIAN_POINT('',(0.304435373162,19.400509575914,
    -2.153889242064E-15));
#216 = CARTESIAN_POINT('',(0.304435373162,19.010054659964,-3.1800001));
#217 = CARTESIAN_POINT('',(0.354804333271,19.30375170379,
    -2.143146960319E-15));
#218 = CARTESIAN_POINT('',(0.354804333271,18.91329678784,-3.1800001));
#219 = ADVANCED_FACE('',(#220),#244,.T.);
#220 = FACE_BOUND('',#221,.T.);
#221 = EDGE_LOOP('',(#222,#230,#237,#243));
#222 = ORIENTED_EDGE('',*,*,#223,.F.);
#223 = EDGE_CURVE('',#224,#178,#226,.T.);
#224 = VERTEX_POINT('',#225);
#225 = CARTESIAN_POINT('',(5.305702265673,9.793165263188,
    -1.087259755915E-15));
#226 = LINE('',#227,#228);
#227 = CARTESIAN_POINT('',(5.305702265673,9.793165263188,
    -1.087259755915E-15));
#228 = VECTOR('',#229,1.);
#229 = DIRECTION('',(-0.461748613235,0.887010833178,-9.847798500864E-17)
  );
#230 = ORIENTED_EDGE('',*,*,#231,.T.);
#231 = EDGE_CURVE('',#224,#232,#234,.T.);
#232 = VERTEX_POINT('',#233);
#233 = CARTESIAN_POINT('',(5.102444301704,9.793165263188,-3.1800001));
#234 = B_SPLINE_CURVE_WITH_KNOTS('',1,(#235,#236),.UNSPECIFIED.,.F.,.F.,
  (2,2),(0.,1.),.PIECEWISE_BEZIER_KNOTS.);
#235 = CARTESIAN_POINT('',(5.305702265673,9.793165263188,
    -1.087259755915E-15));
#236 = CARTESIAN_POINT('',(5.102444301704,9.793165263188,-3.1800001));
#237 = ORIENTED_EDGE('',*,*,#238,.T.);
#238 = EDGE_CURVE('',#232,#187,#239,.T.);
#239 = LINE('',#240,#241);
#240 = CARTESIAN_POINT('',(5.102444301704,9.793165263188,-3.1800001));
#241 = VECTOR('',#242,1.);
#242 = DIRECTION('',(-0.461748613235,0.887010833178,-9.847798500864E-17)
  );
#243 = ORIENTED_EDGE('',*,*,#186,.F.);
#244 = B_SPLINE_SURFACE_WITH_KNOTS('',1,1,(
    (#245,#246)
    ,(#247,#248
    )),.UNSPECIFIED.,.F.,.F.,.F.,(2,2),(2,2),(-10.72206345724,0.),(0.,1.
    ),.PIECEWISE_BEZIER_KNOTS.);
#245 = CARTESIAN_POINT('',(0.354804333271,19.30375170379,
    -2.143146960319E-15));
#246 = CARTESIAN_POINT('',(0.354804333271,18.91329678784,-3.1800001));
#247 = CARTESIAN_POINT('',(5.305702265673,9.793165263188,
    -1.087259755915E-15));
#248 = CARTESIAN_POINT('',(5.102444301704,9.793165263188,-3.1800001));
#249 = ADVANCED_FACE('',(#250),#276,.T.);
#250 = FACE_BOUND('',#251,.T.);
#251 = EDGE_LOOP('',(#252,#261,#268,#275));
#252 = ORIENTED_EDGE('',*,*,#253,.T.);
#253 = EDGE_CURVE('',#224,#254,#256,.T.);
#254 = VERTEX_POINT('',#255);
#255 = CARTESIAN_POINT('',(5.305702265673,9.4237663726,
    -1.046248240555E-15));
#256 = CIRCLE('',#257,0.4);
#257 = AXIS2_PLACEMENT_3D('',#258,#259,#260);
#258 = CARTESIAN_POINT('',(4.950897932402,9.608465817894,
    -1.066753998235E-15));
#259 = DIRECTION('',(0.,-1.110223024625E-16,-1.));
#260 = DIRECTION('',(0.887010833178,-0.461748613235,5.126439420023E-17)
  );
#261 = ORIENTED_EDGE('',*,*,#262,.T.);
#262 = EDGE_CURVE('',#254,#263,#265,.T.);
#263 = VERTEX_POINT('',#264);
#264 = CARTESIAN_POINT('',(5.102444301704,9.4237663726,-3.1800001));
#265 = B_SPLINE_CURVE_WITH_KNOTS('',1,(#266,#267),.UNSPECIFIED.,.F.,.F.,
  (2,2),(0.,1.),.PIECEWISE_BEZIER_KNOTS.);
#266 = CARTESIAN_POINT('',(5.305702265673,9.4237663726,
    -1.046248240555E-15));
#267 = CARTESIAN_POINT('',(5.102444301704,9.4237663726,-3.1800001));
#268 = ORIENTED_EDGE('',*,*,#269,.F.);
#269 = EDGE_CURVE('',#232,#263,#270,.T.);
#270 = CIRCLE('',#271,0.4);
#271 = AXIS2_PLACEMENT_3D('',#272,#273,#274);
#272 = CARTESIAN_POINT('',(4.747639968432,9.608465817894,-3.1800001));
#273 = DIRECTION('',(0.,-1.110223024625E-16,-1.));
#274 = DIRECTION('',(0.887010833178,-0.461748613235,5.126439420023E-17)
  );
#275 = ORIENTED_EDGE('',*,*,#231,.F.);
#276 = B_SPLINE_SURFACE_WITH_KNOTS('',6,1,(
    (#277,#278)
    ,(#279,#280)
    ,(#281,#282)
    ,(#283,#284)
    ,(#285,#286)
    ,(#287,#288)
    ,(#289,#290
    )),.UNSPECIFIED.,.F.,.F.,.F.,(7,7),(2,2),(5.323254218583,
    6.28318530718),(0.,1.),.PIECEWISE_BEZIER_KNOTS.);
#277 = CARTESIAN_POINT('',(5.305702265673,9.793165263188,
    -1.087259755915E-15));
#278 = CARTESIAN_POINT('',(5.102444301704,9.793165263188,-3.1800001));
#279 = CARTESIAN_POINT('',(5.335252055604,9.736400644875,
    -1.080957617292E-15));
#280 = CARTESIAN_POINT('',(5.131994091634,9.736400644875,-3.1800001));
#281 = CARTESIAN_POINT('',(5.353903802981,9.673963252371,
    -1.074025674216E-15));
#282 = CARTESIAN_POINT('',(5.150645839012,9.673963252371,-3.1800001));
#283 = CARTESIAN_POINT('',(5.360296217918,9.608465817894,
    -1.066753998235E-15));
#284 = CARTESIAN_POINT('',(5.157038253948,9.608465817894,-3.1800001));
#285 = CARTESIAN_POINT('',(5.353903802981,9.542968383416,
    -1.059482322254E-15));
#286 = CARTESIAN_POINT('',(5.150645839012,9.542968383416,-3.1800001));
#287 = CARTESIAN_POINT('',(5.335252055604,9.480530990913,
    -1.052550379178E-15));
#288 = CARTESIAN_POINT('',(5.131994091634,9.480530990913,-3.1800001));
#289 = CARTESIAN_POINT('',(5.305702265673,9.4237663726,
    -1.046248240555E-15));
#290 = CARTESIAN_POINT('',(5.102444301704,9.4237663726,-3.1800001));
#291 = ADVANCED_FACE('',(#292),#308,.T.);
#292 = FACE_BOUND('',#293,.T.);
#293 = EDGE_LOOP('',(#294,#300,#301,#307));
#294 = ORIENTED_EDGE('',*,*,#295,.F.);
#295 = EDGE_CURVE('',#22,#254,#296,.T.);
#296 = LINE('',#297,#298);
#297 = CARTESIAN_POINT('',(0.354804333271,-8.682006800239E-02,
    9.638963849578E-18));
#298 = VECTOR('',#299,1.);
#299 = DIRECTION('',(0.461748613235,0.887010833178,-9.847798500864E-17)
  );
#300 = ORIENTED_EDGE('',*,*,#48,.T.);
#301 = ORIENTED_EDGE('',*,*,#302,.T.);
#302 = EDGE_CURVE('',#40,#263,#303,.T.);
#303 = LINE('',#304,#305);
#304 = CARTESIAN_POINT('',(0.354804333271,0.303634847947,-3.1800001));
#305 = VECTOR('',#306,1.);
#306 = DIRECTION('',(0.461748613235,0.887010833178,-9.847798500864E-17)
  );
#307 = ORIENTED_EDGE('',*,*,#262,.F.);
#308 = B_SPLINE_SURFACE_WITH_KNOTS('',1,1,(
    (#309,#310)
    ,(#311,#312
    )),.UNSPECIFIED.,.F.,.F.,.F.,(2,2),(2,2),(-10.72206345724,0.),(0.,1.
    ),.PIECEWISE_BEZIER_KNOTS.);
#309 = CARTESIAN_POINT('',(5.305702265673,9.4237663726,
    -1.046248240555E-15));
#310 = CARTESIAN_POINT('',(5.102444301704,9.4237663726,-3.1800001));
#311 = CARTESIAN_POINT('',(0.354804333271,-8.682006800239E-02,
    9.638963849578E-18));
#312 = CARTESIAN_POINT('',(0.354804333271,0.303634847947,-3.1800001));
#313 = ADVANCED_FACE('',(#314),#324,.F.);
#314 = FACE_BOUND('',#315,.F.);
#315 = EDGE_LOOP('',(#316,#317,#318,#319,#320,#321,#322,#323));
#316 = ORIENTED_EDGE('',*,*,#21,.T.);
#317 = ORIENTED_EDGE('',*,*,#75,.F.);
#318 = ORIENTED_EDGE('',*,*,#105,.T.);
#319 = ORIENTED_EDGE('',*,*,#147,.F.);
#320 = ORIENTED_EDGE('',*,*,#177,.T.);
#321 = ORIENTED_EDGE('',*,*,#223,.F.);
#322 = ORIENTED_EDGE('',*,*,#253,.T.);
#323 = ORIENTED_EDGE('',*,*,#295,.F.);
#324 = PLANE('',#325);
#325 = AXIS2_PLACEMENT_3D('',#326,#327,#328);
#326 = CARTESIAN_POINT('',(0.,9.787937729162E-02,-1.086679383051E-17));
#327 = DIRECTION('',(0.,-1.110223024625E-16,-1.));
#328 = DIRECTION('',(0.887010833178,-0.461748613235,5.126439420023E-17)
  );
#329 = ADVANCED_FACE('',(#330),#340,.T.);
#330 = FACE_BOUND('',#331,.T.);
#331 = EDGE_LOOP('',(#332,#333,#334,#335,#336,#337,#338,#339));
#332 = ORIENTED_EDGE('',*,*,#39,.T.);
#333 = ORIENTED_EDGE('',*,*,#90,.F.);
#334 = ORIENTED_EDGE('',*,*,#121,.T.);
#335 = ORIENTED_EDGE('',*,*,#162,.F.);
#336 = ORIENTED_EDGE('',*,*,#193,.T.);
#337 = ORIENTED_EDGE('',*,*,#238,.F.);
#338 = ORIENTED_EDGE('',*,*,#269,.T.);
#339 = ORIENTED_EDGE('',*,*,#302,.F.);
#340 = PLANE('',#341);
#341 = AXIS2_PLACEMENT_3D('',#342,#343,#344);
#342 = CARTESIAN_POINT('',(8.881784197001E-16,0.488334293241,-3.1800001)
  );
#343 = DIRECTION('',(0.,-1.110223024625E-16,-1.));
#344 = DIRECTION('',(0.887010833178,-0.461748613235,5.126439420023E-17)
  );
#345 = ( GEOMETRIC_REPRESENTATION_CONTEXT(3) 
GLOBAL_UNCERTAINTY_ASSIGNED_CONTEXT((#349)) GLOBAL_UNIT_ASSIGNED_CONTEXT
((#346,#347,#348)) REPRESENTATION_CONTEXT('Context #1',
  '3D Context with UNIT and UNCERTAINTY') );
#346 = ( LENGTH_UNIT() NAMED_UNIT(*) SI_UNIT(.MILLI.,.METRE.) );
#347 = ( NAMED_UNIT(*) PLANE_ANGLE_UNIT() SI_UNIT($,.RADIAN.) );
#348 = ( NAMED_UNIT(*) SI_UNIT($,.STERADIAN.) SOLID_ANGLE_UNIT() );
#349 = UNCERTAINTY_MEASURE_WITH_UNIT(LENGTH_MEASURE(1.E-07),#346,
  'distance_accuracy_value','confusion accuracy');
#350 = PRODUCT_RELATED_PRODUCT_CATEGORY('part',$,(#7));
#351 = MECHANICAL_DESIGN_GEOMETRIC_PRESENTATION_REPRESENTATION('',(#352)
  ,#345);
#352 = STYLED_ITEM('color',(#353),#15);
#353 = PRESENTATION_STYLE_ASSIGNMENT((#354));
#354 = SURFACE_STYLE_USAGE(.BOTH.,#355);
#355 = SURFACE_SIDE_STYLE('',(#356));
#356 = SURFACE_STYLE_FILL_AREA(#357);
#357 = FILL_AREA_STYLE('',(#358));
#358 = FILL_AREA_STYLE_COLOUR('',#359);
#359 = DRAUGHTING_PRE_DEFINED_COLOUR('green');
ENDSEC;
END-ISO-10303-21;
