ISO-10303-21;
HEADER;
FILE_DESCRIPTION(('Open CASCADE Model'),'2;1');
FILE_NAME('Open CASCADE Shape Model','2026-09-18T15:55:25',('Author'),(
    'Open CASCADE'),'Open CASCADE STEP processor 7.3','Open CASCADE 7.3'
  ,'Unknown');
FILE_SCHEMA(('AUTOMOTIVE_DESIGN { 1 0 10303 214 1 1 1 1 }'));
ENDSEC;
DATA;
#1 = APPLICATION_PROTOCOL_DEFINITION('international standard',
  'automotive_design',2000,#2);
#2 = APPLICATION_CONTEXT(
  'core data for automotive mechanical design processes');
#3 = SHAPE_DEFINITION_REPRESENTATION(#4,#10);
#4 = PRODUCT_DEFINITION_SHAPE('','',#5);
#5 = PRODUCT_DEFINITION('design','',#6,#9);
#6 = PRODUCT_DEFINITION_FORMATION('','',#7);
#7 = PRODUCT('Pottmanager 178','Pottmanager 178','',(#8));
#8 = PRODUCT_CONTEXT('',#2,'mechanical');
#9 = PRODUCT_DEFINITION_CONTEXT('part definition',#2,'design');
#10 = GEOMETRICALLY_BOUNDED_WIREFRAME_SHAPE_REPRESENTATION('',(#11,#15),
  #76);
#11 = AXIS2_PLACEMENT_3D('',#12,#13,#14);
#12 = CARTESIAN_POINT('',(0.,0.,0.));
#13 = DIRECTION('',(0.,0.,1.));
#14 = DIRECTION('',(1.,0.,-0.));
#15 = GEOMETRIC_CURVE_SET('',(#16,#24,#31,#39,#46,#54,#61,#69));
#16 = TRIMMED_CURVE('',#17,(#22,PARAMETER_VALUE(0.)),(#23,
    PARAMETER_VALUE(2.181661564993)),.T.,.PARAMETER.);
#17 = CIRCLE('',#18,0.4);
#18 = AXIS2_PLACEMENT_3D('',#19,#20,#21);
#19 = CARTESIAN_POINT('',(-12.00867055503,2.207153596343E-15,
    -0.10395441374));
#20 = DIRECTION('',(1.110223024625E-16,1.,-2.22044604925E-16));
#21 = DIRECTION('',(0.461748613235,1.456915758171E-16,0.887010833178));
#22 = CARTESIAN_POINT('',(-11.82397110974,2.26543022667E-15,
    0.250849919532));
#23 = CARTESIAN_POINT('',(-11.82397110974,2.107865450656E-15,
    -0.458758747011));
#24 = TRIMMED_CURVE('',#25,(#29,PARAMETER_VALUE(0.)),(#30,
    PARAMETER_VALUE(10.722063457247)),.T.,.PARAMETER.);
#25 = LINE('',#26,#27);
#26 = CARTESIAN_POINT('',(-11.82397110974,2.26543022667E-15,
    0.250849919532));
#27 = VECTOR('',#28,1.);
#28 = DIRECTION('',(-0.887010833178,2.010067734091E-16,0.461748613235));
#29 = CARTESIAN_POINT('',(-11.82397110974,2.26543022667E-15,
    0.250849919532));
#30 = CARTESIAN_POINT('',(-21.33455755034,4.420637606499E-15,
    5.201747851933));
#31 = TRIMMED_CURVE('',#32,(#37,PARAMETER_VALUE(5.323254218583)),(#38,
    PARAMETER_VALUE(6.28318530718)),.T.,.PARAMETER.);
#32 = CIRCLE('',#33,0.4);
#33 = AXIS2_PLACEMENT_3D('',#34,#35,#36);
#34 = CARTESIAN_POINT('',(-21.51925699564,4.362360976172E-15,
    4.846943518662));
#35 = DIRECTION('',(1.110223024625E-16,1.,-2.22044604925E-16));
#36 = DIRECTION('',(0.461748613235,1.456915758171E-16,0.887010833178));
#37 = CARTESIAN_POINT('',(-21.70395644093,4.461649121859E-15,
    5.201747851933));
#38 = CARTESIAN_POINT('',(-21.33455755034,4.420637606499E-15,
    5.201747851933));
#39 = TRIMMED_CURVE('',#40,(#44,PARAMETER_VALUE(0.)),(#45,
    PARAMETER_VALUE(10.722063457247)),.T.,.PARAMETER.);
#40 = LINE('',#41,#42);
#41 = CARTESIAN_POINT('',(-21.70395644093,4.461649121859E-15,
    5.201747851933));
#42 = VECTOR('',#43,1.);
#43 = DIRECTION('',(-0.887010833178,-4.050803391814E-18,-0.461748613235)
  );
#44 = CARTESIAN_POINT('',(-21.70395644093,4.461649121859E-15,
    5.201747851933));
#45 = CARTESIAN_POINT('',(-31.21454288153,4.418216150839E-15,
    0.250849919532));
#46 = TRIMMED_CURVE('',#47,(#52,PARAMETER_VALUE(3.14159265359)),(#53,
    PARAMETER_VALUE(5.323254218583)),.T.,.PARAMETER.);
#47 = CIRCLE('',#48,0.4);
#48 = AXIS2_PLACEMENT_3D('',#49,#50,#51);
#49 = CARTESIAN_POINT('',(-31.02984343624,4.318928005152E-15,
    -0.10395441374));
#50 = DIRECTION('',(1.110223024625E-16,1.,-2.22044604925E-16));
#51 = DIRECTION('',(0.461748613235,1.456915758171E-16,0.887010833178));
#52 = CARTESIAN_POINT('',(-31.21454288153,4.260651374825E-15,
    -0.458758747011));
#53 = CARTESIAN_POINT('',(-31.21454288153,4.418216150839E-15,
    0.250849919532));
#54 = TRIMMED_CURVE('',#55,(#59,PARAMETER_VALUE(0.)),(#60,
    PARAMETER_VALUE(10.722063457247)),.T.,.PARAMETER.);
#55 = LINE('',#56,#57);
#56 = CARTESIAN_POINT('',(-31.21454288153,4.260651374825E-15,
    -0.458758747011));
#57 = VECTOR('',#58,1.);
#58 = DIRECTION('',(0.887010833178,-2.010067734091E-16,-0.461748613235)
  );
#59 = CARTESIAN_POINT('',(-31.21454288153,4.260651374825E-15,
    -0.458758747011));
#60 = CARTESIAN_POINT('',(-21.70395644093,2.105443994996E-15,
    -5.409656679413));
#61 = TRIMMED_CURVE('',#62,(#67,PARAMETER_VALUE(2.181661564993)),(#68,
    PARAMETER_VALUE(3.14159265359)),.T.,.PARAMETER.);
#62 = CIRCLE('',#63,0.4);
#63 = AXIS2_PLACEMENT_3D('',#64,#65,#66);
#64 = CARTESIAN_POINT('',(-21.51925699564,2.163720625323E-15,
    -5.054852346141));
#65 = DIRECTION('',(1.110223024625E-16,1.,-2.22044604925E-16));
#66 = DIRECTION('',(0.461748613235,1.456915758171E-16,0.887010833178));
#67 = CARTESIAN_POINT('',(-21.33455755034,2.064432479636E-15,
    -5.409656679413));
#68 = CARTESIAN_POINT('',(-21.70395644093,2.105443994996E-15,
    -5.409656679413));
#69 = TRIMMED_CURVE('',#70,(#74,PARAMETER_VALUE(0.)),(#75,
    PARAMETER_VALUE(10.722063457247)),.T.,.PARAMETER.);
#70 = LINE('',#71,#72);
#71 = CARTESIAN_POINT('',(-21.33455755034,2.064432479636E-15,
    -5.409656679413));
#72 = VECTOR('',#73,1.);
#73 = DIRECTION('',(0.887010833178,4.050803391814E-18,0.461748613235));
#74 = CARTESIAN_POINT('',(-21.33455755034,2.064432479636E-15,
    -5.409656679413));
#75 = CARTESIAN_POINT('',(-11.82397110974,2.107865450656E-15,
    -0.458758747011));
#76 = ( GEOMETRIC_REPRESENTATION_CONTEXT(3) 
GLOBAL_UNCERTAINTY_ASSIGNED_CONTEXT((#80)) GLOBAL_UNIT_ASSIGNED_CONTEXT(
(#77,#78,#79)) REPRESENTATION_CONTEXT('Context #1',
  '3D Context with UNIT and UNCERTAINTY') );
#77 = ( LENGTH_UNIT() NAMED_UNIT(*) SI_UNIT(.MILLI.,.METRE.) );
#78 = ( NAMED_UNIT(*) PLANE_ANGLE_UNIT() SI_UNIT($,.RADIAN.) );
#79 = ( NAMED_UNIT(*) SI_UNIT($,.STERADIAN.) SOLID_ANGLE_UNIT() );
#80 = UNCERTAINTY_MEASURE_WITH_UNIT(LENGTH_MEASURE(1.E-07),#77,
  'distance_accuracy_value','confusion accuracy');
#81 = PRODUCT_RELATED_PRODUCT_CATEGORY('part',$,(#7));
#82 = MECHANICAL_DESIGN_GEOMETRIC_PRESENTATION_REPRESENTATION('',(#83),
  #76);
#83 = STYLED_ITEM('color',(#84),#15);
#84 = PRESENTATION_STYLE_ASSIGNMENT((#85));
#85 = SURFACE_STYLE_USAGE(.BOTH.,#86);
#86 = SURFACE_SIDE_STYLE('',(#87));
#87 = SURFACE_STYLE_FILL_AREA(#88);
#88 = FILL_AREA_STYLE('',(#89));
#89 = FILL_AREA_STYLE_COLOUR('',#90);
#90 = DRAUGHTING_PRE_DEFINED_COLOUR('green');
ENDSEC;
END-ISO-10303-21;
