ISO-10303-21;
HEADER;
FILE_DESCRIPTION(('Open CASCADE Model'),'2;1');
FILE_NAME('Open CASCADE Shape Model','2026-09-18T15:53:17',('Author'),(
    'Open CASCADE'),'Open CASCADE STEP processor 7.3','Open CASCADE 7.3'
  ,'Unknown');
FILE_SCHEMA(('AUTOMOTIVE_DESIGN { 1 0 10303 214 1 1 1 1 }'));
ENDSEC;
DATA;
#1 = APPLICATION_PROTOCOL_DEFINITION('international standard',
  'automotive_design',2000,#2);
#2 = APPLICATION_CONTEXT(
  'core data for automotive mechanical design processes');
#3 = SHAPE_DEFINITION_REPRESENTATION(#4,#10);
#4 = PRODUCT_DEFINITION_SHAPE('','',#5);
#5 = PRODUCT_DEFINITION('design','',#6,#9);
#6 = PRODUCT_DEFINITION_FORMATION('','',#7);
#7 = PRODUCT('Pottmanager 126','Pottmanager 126','',(#8));
#8 = PRODUCT_CONTEXT('',#2,'mechanical');
#9 = PRODUCT_DEFINITION_CONTEXT('part definition',#2,'design');
#10 = ADVANCED_BREP_SHAPE_REPRESENTATION('',(#11,#15),#253);
#11 = AXIS2_PLACEMENT_3D('',#12,#13,#14);
#12 = CARTESIAN_POINT('',(0.,0.,0.));
#13 = DIRECTION('',(0.,0.,1.));
#14 = DIRECTION('',(1.,0.,-0.));
#15 = MANIFOLD_SOLID_BREP('',#16);
#16 = CLOSED_SHELL('',(#17,#69,#99,#129,#159,#203,#225,#239));
#17 = ADVANCED_FACE('',(#18),#52,.T.);
#18 = FACE_BOUND('',#19,.T.);
#19 = EDGE_LOOP('',(#20,#31,#38,#47));
#20 = ORIENTED_EDGE('',*,*,#21,.T.);
#21 = EDGE_CURVE('',#22,#24,#26,.T.);
#22 = VERTEX_POINT('',#23);
#23 = CARTESIAN_POINT('',(-5.007042957189,-0.397018460657,
    4.874773736206E-02));
#24 = VERTEX_POINT('',#25);
#25 = CARTESIAN_POINT('',(-4.607103879126,9.962501918395E-03,
    4.874773736206E-02));
#26 = CIRCLE('',#27,0.4);
#27 = AXIS2_PLACEMENT_3D('',#28,#29,#30);
#28 = CARTESIAN_POINT('',(-5.007042957189,2.981539343482E-03,
    4.874773736206E-02));
#29 = DIRECTION('',(1.224646799147E-16,1.110223024625E-16,1.));
#30 = DIRECTION('',(0.,-1.,1.110223024625E-16));
#31 = ORIENTED_EDGE('',*,*,#32,.T.);
#32 = EDGE_CURVE('',#24,#33,#35,.T.);
#33 = VERTEX_POINT('',#34);
#34 = CARTESIAN_POINT('',(-4.607103879126,0.746669867336,6.048747737362)
  );
#35 = B_SPLINE_CURVE_WITH_KNOTS('',1,(#36,#37),.UNSPECIFIED.,.F.,.F.,(2,
    2),(0.,1.),.PIECEWISE_BEZIER_KNOTS.);
#36 = CARTESIAN_POINT('',(-4.607103879126,9.962501918395E-03,
    4.874773736206E-02));
#37 = CARTESIAN_POINT('',(-4.607103879126,0.746669867336,6.048747737362)
  );
#38 = ORIENTED_EDGE('',*,*,#39,.F.);
#39 = EDGE_CURVE('',#40,#33,#42,.T.);
#40 = VERTEX_POINT('',#41);
#41 = CARTESIAN_POINT('',(-5.007042957189,0.339688904761,6.048747737362)
  );
#42 = CIRCLE('',#43,0.4);
#43 = AXIS2_PLACEMENT_3D('',#44,#45,#46);
#44 = CARTESIAN_POINT('',(-5.007042957189,0.739688904761,6.048747737362)
  );
#45 = DIRECTION('',(1.224646799147E-16,1.110223024625E-16,1.));
#46 = DIRECTION('',(0.,-1.,1.110223024625E-16));
#47 = ORIENTED_EDGE('',*,*,#48,.F.);
#48 = EDGE_CURVE('',#22,#40,#49,.T.);
#49 = B_SPLINE_CURVE_WITH_KNOTS('',1,(#50,#51),.UNSPECIFIED.,.F.,.F.,(2,
    2),(0.,1.),.PIECEWISE_BEZIER_KNOTS.);
#50 = CARTESIAN_POINT('',(-5.007042957189,-0.397018460657,
    4.874773736206E-02));
#51 = CARTESIAN_POINT('',(-5.007042957189,0.339688904761,6.048747737362)
  );
#52 = B_SPLINE_SURFACE_WITH_KNOTS('',7,1,(
    (#53,#54)
    ,(#55,#56)
    ,(#57,#58)
    ,(#59,#60)
    ,(#61,#62)
    ,(#63,#64)
    ,(#65,#66)
    ,(#67,#68
    )),.UNSPECIFIED.,.F.,.F.,.F.,(8,8),(2,2),(0.,1.588249619315),(0.,1.)
  ,.PIECEWISE_BEZIER_KNOTS.);
#53 = CARTESIAN_POINT('',(-5.007042957189,-0.397018460657,
    4.874773736206E-02));
#54 = CARTESIAN_POINT('',(-5.007042957189,0.339688904761,6.048747737362)
  );
#55 = CARTESIAN_POINT('',(-4.916285836085,-0.397018460657,
    4.874773736206E-02));
#56 = CARTESIAN_POINT('',(-4.916285836085,0.339688904761,6.048747737362)
  );
#57 = CARTESIAN_POINT('',(-4.825529193416,-0.37299376179,
    4.874773736206E-02));
#58 = CARTESIAN_POINT('',(-4.825529193416,0.363713603628,6.048747737362)
  );
#59 = CARTESIAN_POINT('',(-4.742400824767,-0.324948434775,
    4.874773736206E-02));
#60 = CARTESIAN_POINT('',(-4.742400824767,0.411758930643,6.048747737362)
  );
#61 = CARTESIAN_POINT('',(-4.674544286339,-0.255897119609,
    4.874773736206E-02));
#62 = CARTESIAN_POINT('',(-4.674544286338,0.480810245809,6.048747737362)
  );
#63 = CARTESIAN_POINT('',(-4.627957066936,-0.171942905238,
    4.874773736206E-02));
#64 = CARTESIAN_POINT('',(-4.627957066936,0.564764460179,6.048747737362)
  );
#65 = CARTESIAN_POINT('',(-4.605519948962,-8.078079643617E-02,
    4.874773736206E-02));
#66 = CARTESIAN_POINT('',(-4.605519948962,0.655926568981,6.048747737362)
  );
#67 = CARTESIAN_POINT('',(-4.607103879126,9.962501918395E-03,
    4.874773736206E-02));
#68 = CARTESIAN_POINT('',(-4.607103879126,0.746669867336,6.048747737362)
  );
#69 = ADVANCED_FACE('',(#70),#94,.T.);
#70 = FACE_BOUND('',#71,.T.);
#71 = EDGE_LOOP('',(#72,#80,#87,#93));
#72 = ORIENTED_EDGE('',*,*,#73,.T.);
#73 = EDGE_CURVE('',#24,#74,#76,.T.);
#74 = VERTEX_POINT('',#75);
#75 = CARTESIAN_POINT('',(-4.687275324641,4.602981539343,
    4.874773736206E-02));
#76 = LINE('',#77,#78);
#77 = CARTESIAN_POINT('',(-4.607103879126,9.962501918395E-03,
    4.874773736206E-02));
#78 = VECTOR('',#79,1.);
#79 = DIRECTION('',(-1.745240643728E-02,0.999847695156,-1.0886808986E-16
    ));
#80 = ORIENTED_EDGE('',*,*,#81,.T.);
#81 = EDGE_CURVE('',#74,#82,#84,.T.);
#82 = VERTEX_POINT('',#83);
#83 = CARTESIAN_POINT('',(-4.674416049745,4.602981539343,6.048747737362)
  );
#84 = B_SPLINE_CURVE_WITH_KNOTS('',1,(#85,#86),.UNSPECIFIED.,.F.,.F.,(2,
    2),(0.,1.),.PIECEWISE_BEZIER_KNOTS.);
#85 = CARTESIAN_POINT('',(-4.687275324641,4.602981539343,
    4.874773736206E-02));
#86 = CARTESIAN_POINT('',(-4.674416049745,4.602981539343,6.048747737362)
  );
#87 = ORIENTED_EDGE('',*,*,#88,.F.);
#88 = EDGE_CURVE('',#33,#82,#89,.T.);
#89 = LINE('',#90,#91);
#90 = CARTESIAN_POINT('',(-4.607103879126,0.746669867336,6.048747737362)
  );
#91 = VECTOR('',#92,1.);
#92 = DIRECTION('',(-1.745240643728E-02,0.999847695156,-1.0886808986E-16
    ));
#93 = ORIENTED_EDGE('',*,*,#32,.F.);
#94 = B_SPLINE_SURFACE_WITH_KNOTS('',1,1,(
    (#95,#96)
    ,(#97,#98
    )),.UNSPECIFIED.,.F.,.F.,.F.,(2,2),(2,2),(0.,4.593718683031),(0.,1.)
  ,.PIECEWISE_BEZIER_KNOTS.);
#95 = CARTESIAN_POINT('',(-4.607103879126,9.962501918395E-03,
    4.874773736206E-02));
#96 = CARTESIAN_POINT('',(-4.607103879126,0.746669867336,6.048747737362)
  );
#97 = CARTESIAN_POINT('',(-4.687275324641,4.602981539343,
    4.874773736206E-02));
#98 = CARTESIAN_POINT('',(-4.674416049745,4.602981539343,6.048747737362)
  );
#99 = ADVANCED_FACE('',(#100),#124,.T.);
#100 = FACE_BOUND('',#101,.T.);
#101 = EDGE_LOOP('',(#102,#110,#117,#123));
#102 = ORIENTED_EDGE('',*,*,#103,.T.);
#103 = EDGE_CURVE('',#74,#104,#106,.T.);
#104 = VERTEX_POINT('',#105);
#105 = CARTESIAN_POINT('',(-9.512724675359,4.602981539343,
    4.874773736206E-02));
#106 = LINE('',#107,#108);
#107 = CARTESIAN_POINT('',(-4.687275324641,4.602981539343,
    4.874773736206E-02));
#108 = VECTOR('',#109,1.);
#109 = DIRECTION('',(-1.,1.359631073447E-32,1.224646799147E-16));
#110 = ORIENTED_EDGE('',*,*,#111,.T.);
#111 = EDGE_CURVE('',#104,#112,#114,.T.);
#112 = VERTEX_POINT('',#113);
#113 = CARTESIAN_POINT('',(-9.525583950255,4.602981539343,6.048747737362
    ));
#114 = B_SPLINE_CURVE_WITH_KNOTS('',1,(#115,#116),.UNSPECIFIED.,.F.,.F.,
  (2,2),(0.,1.),.PIECEWISE_BEZIER_KNOTS.);
#115 = CARTESIAN_POINT('',(-9.512724675359,4.602981539343,
    4.874773736206E-02));
#116 = CARTESIAN_POINT('',(-9.525583950255,4.602981539343,6.048747737362
    ));
#117 = ORIENTED_EDGE('',*,*,#118,.F.);
#118 = EDGE_CURVE('',#82,#112,#119,.T.);
#119 = LINE('',#120,#121);
#120 = CARTESIAN_POINT('',(-4.674416049745,4.602981539343,6.048747737362
    ));
#121 = VECTOR('',#122,1.);
#122 = DIRECTION('',(-1.,1.359631073447E-32,1.224646799147E-16));
#123 = ORIENTED_EDGE('',*,*,#81,.F.);
#124 = B_SPLINE_SURFACE_WITH_KNOTS('',1,1,(
    (#125,#126)
    ,(#127,#128
    )),.UNSPECIFIED.,.F.,.F.,.F.,(2,2),(2,2),(0.,4.851167900511),(0.,1.)
  ,.PIECEWISE_BEZIER_KNOTS.);
#125 = CARTESIAN_POINT('',(-4.687275324641,4.602981539343,
    4.874773736206E-02));
#126 = CARTESIAN_POINT('',(-4.674416049745,4.602981539343,6.048747737362
    ));
#127 = CARTESIAN_POINT('',(-9.512724675359,4.602981539343,
    4.874773736206E-02));
#128 = CARTESIAN_POINT('',(-9.525583950255,4.602981539343,6.048747737362
    ));
#129 = ADVANCED_FACE('',(#130),#154,.T.);
#130 = FACE_BOUND('',#131,.T.);
#131 = EDGE_LOOP('',(#132,#140,#147,#153));
#132 = ORIENTED_EDGE('',*,*,#133,.T.);
#133 = EDGE_CURVE('',#104,#134,#136,.T.);
#134 = VERTEX_POINT('',#135);
#135 = CARTESIAN_POINT('',(-9.592896120874,9.962501918395E-03,
    4.874773736206E-02));
#136 = LINE('',#137,#138);
#137 = CARTESIAN_POINT('',(-9.512724675359,4.602981539343,
    4.874773736206E-02));
#138 = VECTOR('',#139,1.);
#139 = DIRECTION('',(-1.745240643728E-02,-0.999847695156,
    1.131426965962E-16));
#140 = ORIENTED_EDGE('',*,*,#141,.T.);
#141 = EDGE_CURVE('',#134,#142,#144,.T.);
#142 = VERTEX_POINT('',#143);
#143 = CARTESIAN_POINT('',(-9.592896120874,0.746669867336,6.048747737362
    ));
#144 = B_SPLINE_CURVE_WITH_KNOTS('',1,(#145,#146),.UNSPECIFIED.,.F.,.F.,
  (2,2),(0.,1.),.PIECEWISE_BEZIER_KNOTS.);
#145 = CARTESIAN_POINT('',(-9.592896120874,9.962501918395E-03,
    4.874773736206E-02));
#146 = CARTESIAN_POINT('',(-9.592896120874,0.746669867336,6.048747737362
    ));
#147 = ORIENTED_EDGE('',*,*,#148,.F.);
#148 = EDGE_CURVE('',#112,#142,#149,.T.);
#149 = LINE('',#150,#151);
#150 = CARTESIAN_POINT('',(-9.525583950255,4.602981539343,6.048747737362
    ));
#151 = VECTOR('',#152,1.);
#152 = DIRECTION('',(-1.745240643728E-02,-0.999847695156,
    1.131426965962E-16));
#153 = ORIENTED_EDGE('',*,*,#111,.F.);
#154 = B_SPLINE_SURFACE_WITH_KNOTS('',1,1,(
    (#155,#156)
    ,(#157,#158
    )),.UNSPECIFIED.,.F.,.F.,.F.,(2,2),(2,2),(0.,4.593718683031),(0.,1.)
  ,.PIECEWISE_BEZIER_KNOTS.);
#155 = CARTESIAN_POINT('',(-9.512724675359,4.602981539343,
    4.874773736206E-02));
#156 = CARTESIAN_POINT('',(-9.525583950255,4.602981539343,6.048747737362
    ));
#157 = CARTESIAN_POINT('',(-9.592896120874,9.962501918395E-03,
    4.874773736206E-02));
#158 = CARTESIAN_POINT('',(-9.592896120874,0.746669867336,6.048747737362
    ));
#159 = ADVANCED_FACE('',(#160),#186,.T.);
#160 = FACE_BOUND('',#161,.T.);
#161 = EDGE_LOOP('',(#162,#171,#178,#185));
#162 = ORIENTED_EDGE('',*,*,#163,.T.);
#163 = EDGE_CURVE('',#134,#164,#166,.T.);
#164 = VERTEX_POINT('',#165);
#165 = CARTESIAN_POINT('',(-9.192957042811,-0.397018460657,
    4.874773736206E-02));
#166 = CIRCLE('',#167,0.4);
#167 = AXIS2_PLACEMENT_3D('',#168,#169,#170);
#168 = CARTESIAN_POINT('',(-9.192957042811,2.981539343482E-03,
    4.874773736206E-02));
#169 = DIRECTION('',(1.224646799147E-16,1.110223024625E-16,1.));
#170 = DIRECTION('',(0.,-1.,1.110223024625E-16));
#171 = ORIENTED_EDGE('',*,*,#172,.T.);
#172 = EDGE_CURVE('',#164,#173,#175,.T.);
#173 = VERTEX_POINT('',#174);
#174 = CARTESIAN_POINT('',(-9.192957042811,0.339688904761,6.048747737362
    ));
#175 = B_SPLINE_CURVE_WITH_KNOTS('',1,(#176,#177),.UNSPECIFIED.,.F.,.F.,
  (2,2),(0.,1.),.PIECEWISE_BEZIER_KNOTS.);
#176 = CARTESIAN_POINT('',(-9.192957042811,-0.397018460657,
    4.874773736206E-02));
#177 = CARTESIAN_POINT('',(-9.192957042811,0.339688904761,6.048747737362
    ));
#178 = ORIENTED_EDGE('',*,*,#179,.F.);
#179 = EDGE_CURVE('',#142,#173,#180,.T.);
#180 = CIRCLE('',#181,0.4);
#181 = AXIS2_PLACEMENT_3D('',#182,#183,#184);
#182 = CARTESIAN_POINT('',(-9.192957042811,0.739688904761,6.048747737362
    ));
#183 = DIRECTION('',(1.224646799147E-16,1.110223024625E-16,1.));
#184 = DIRECTION('',(0.,-1.,1.110223024625E-16));
#185 = ORIENTED_EDGE('',*,*,#141,.F.);
#186 = B_SPLINE_SURFACE_WITH_KNOTS('',7,1,(
    (#187,#188)
    ,(#189,#190)
    ,(#191,#192)
    ,(#193,#194)
    ,(#195,#196)
    ,(#197,#198)
    ,(#199,#200)
    ,(#201,#202
    )),.UNSPECIFIED.,.F.,.F.,.F.,(8,8),(2,2),(4.694935687865,
    6.28318530718),(0.,1.),.PIECEWISE_BEZIER_KNOTS.);
#187 = CARTESIAN_POINT('',(-9.592896120874,9.962501918395E-03,
    4.874773736206E-02));
#188 = CARTESIAN_POINT('',(-9.592896120874,0.746669867336,6.048747737362
    ));
#189 = CARTESIAN_POINT('',(-9.594480051038,-8.078079643617E-02,
    4.874773736206E-02));
#190 = CARTESIAN_POINT('',(-9.594480051038,0.655926568981,6.048747737362
    ));
#191 = CARTESIAN_POINT('',(-9.572042933064,-0.171942905238,
    4.874773736206E-02));
#192 = CARTESIAN_POINT('',(-9.572042933064,0.564764460179,6.048747737362
    ));
#193 = CARTESIAN_POINT('',(-9.525455713661,-0.255897119609,
    4.874773736206E-02));
#194 = CARTESIAN_POINT('',(-9.525455713661,0.480810245809,6.048747737362
    ));
#195 = CARTESIAN_POINT('',(-9.457599175233,-0.324948434775,
    4.874773736206E-02));
#196 = CARTESIAN_POINT('',(-9.457599175233,0.411758930643,6.048747737362
    ));
#197 = CARTESIAN_POINT('',(-9.374470806584,-0.37299376179,
    4.874773736206E-02));
#198 = CARTESIAN_POINT('',(-9.374470806584,0.363713603628,6.048747737362
    ));
#199 = CARTESIAN_POINT('',(-9.283714163915,-0.397018460657,
    4.874773736206E-02));
#200 = CARTESIAN_POINT('',(-9.283714163915,0.339688904761,6.048747737362
    ));
#201 = CARTESIAN_POINT('',(-9.192957042811,-0.397018460657,
    4.874773736206E-02));
#202 = CARTESIAN_POINT('',(-9.192957042811,0.339688904761,6.048747737362
    ));
#203 = ADVANCED_FACE('',(#204),#220,.F.);
#204 = FACE_BOUND('',#205,.T.);
#205 = EDGE_LOOP('',(#206,#212,#213,#219));
#206 = ORIENTED_EDGE('',*,*,#207,.T.);
#207 = EDGE_CURVE('',#164,#22,#208,.T.);
#208 = LINE('',#209,#210);
#209 = CARTESIAN_POINT('',(-9.192957042811,-0.397018460657,
    4.874773736206E-02));
#210 = VECTOR('',#211,1.);
#211 = DIRECTION('',(1.,-1.359631073447E-32,-1.224646799147E-16));
#212 = ORIENTED_EDGE('',*,*,#48,.T.);
#213 = ORIENTED_EDGE('',*,*,#214,.F.);
#214 = EDGE_CURVE('',#173,#40,#215,.T.);
#215 = LINE('',#216,#217);
#216 = CARTESIAN_POINT('',(-9.192957042811,0.339688904761,6.048747737362
    ));
#217 = VECTOR('',#218,1.);
#218 = DIRECTION('',(1.,-1.359631073447E-32,-1.224646799147E-16));
#219 = ORIENTED_EDGE('',*,*,#172,.F.);
#220 = PLANE('',#221);
#221 = AXIS2_PLACEMENT_3D('',#222,#223,#224);
#222 = CARTESIAN_POINT('',(-9.192957042811,0.339688904761,6.048747737362
    ));
#223 = DIRECTION('',(-1.492469013153E-17,0.992546151641,-0.121869343405)
  );
#224 = DIRECTION('',(-1.,1.359631073447E-32,1.224646799147E-16));
#225 = ADVANCED_FACE('',(#226),#234,.T.);
#226 = FACE_BOUND('',#227,.F.);
#227 = EDGE_LOOP('',(#228,#229,#230,#231,#232,#233));
#228 = ORIENTED_EDGE('',*,*,#21,.T.);
#229 = ORIENTED_EDGE('',*,*,#73,.T.);
#230 = ORIENTED_EDGE('',*,*,#103,.T.);
#231 = ORIENTED_EDGE('',*,*,#133,.T.);
#232 = ORIENTED_EDGE('',*,*,#163,.T.);
#233 = ORIENTED_EDGE('',*,*,#207,.T.);
#234 = PLANE('',#235);
#235 = AXIS2_PLACEMENT_3D('',#236,#237,#238);
#236 = CARTESIAN_POINT('',(-5.007042957189,2.981539343482E-03,
    4.874773736206E-02));
#237 = DIRECTION('',(-1.224646799147E-16,-1.110223024625E-16,-1.));
#238 = DIRECTION('',(-0.,1.,-1.110223024625E-16));
#239 = ADVANCED_FACE('',(#240),#248,.F.);
#240 = FACE_BOUND('',#241,.T.);
#241 = EDGE_LOOP('',(#242,#243,#244,#245,#246,#247));
#242 = ORIENTED_EDGE('',*,*,#39,.T.);
#243 = ORIENTED_EDGE('',*,*,#88,.T.);
#244 = ORIENTED_EDGE('',*,*,#118,.T.);
#245 = ORIENTED_EDGE('',*,*,#148,.T.);
#246 = ORIENTED_EDGE('',*,*,#179,.T.);
#247 = ORIENTED_EDGE('',*,*,#214,.T.);
#248 = PLANE('',#249);
#249 = AXIS2_PLACEMENT_3D('',#250,#251,#252);
#250 = CARTESIAN_POINT('',(-5.007042957189,0.739688904761,6.048747737362
    ));
#251 = DIRECTION('',(-1.224646799147E-16,-1.110223024625E-16,-1.));
#252 = DIRECTION('',(-0.,1.,-1.110223024625E-16));
#253 = ( GEOMETRIC_REPRESENTATION_CONTEXT(3) 
GLOBAL_UNCERTAINTY_ASSIGNED_CONTEXT((#257)) GLOBAL_UNIT_ASSIGNED_CONTEXT
((#254,#255,#256)) REPRESENTATION_CONTEXT('Context #1',
  '3D Context with UNIT and UNCERTAINTY') );
#254 = ( LENGTH_UNIT() NAMED_UNIT(*) SI_UNIT(.MILLI.,.METRE.) );
#255 = ( NAMED_UNIT(*) PLANE_ANGLE_UNIT() SI_UNIT($,.RADIAN.) );
#256 = ( NAMED_UNIT(*) SI_UNIT($,.STERADIAN.) SOLID_ANGLE_UNIT() );
#257 = UNCERTAINTY_MEASURE_WITH_UNIT(LENGTH_MEASURE(1.E-07),#254,
  'distance_accuracy_value','confusion accuracy');
#258 = PRODUCT_RELATED_PRODUCT_CATEGORY('part',$,(#7));
#259 = MECHANICAL_DESIGN_GEOMETRIC_PRESENTATION_REPRESENTATION('',(#260)
  ,#253);
#260 = STYLED_ITEM('color',(#261),#15);
#261 = PRESENTATION_STYLE_ASSIGNMENT((#262));
#262 = SURFACE_STYLE_USAGE(.BOTH.,#263);
#263 = SURFACE_SIDE_STYLE('',(#264));
#264 = SURFACE_STYLE_FILL_AREA(#265);
#265 = FILL_AREA_STYLE('',(#266));
#266 = FILL_AREA_STYLE_COLOUR('',#267);
#267 = DRAUGHTING_PRE_DEFINED_COLOUR('green');
ENDSEC;
END-ISO-10303-21;
