ISO-10303-21;
HEADER;
FILE_DESCRIPTION(('Open CASCADE Model'),'2;1');
FILE_NAME('Open CASCADE Shape Model','2026-09-18T15:55:24',('Author'),(
    'Open CASCADE'),'Open CASCADE STEP processor 7.3','Open CASCADE 7.3'
  ,'Unknown');
FILE_SCHEMA(('AUTOMOTIVE_DESIGN { 1 0 10303 214 1 1 1 1 }'));
ENDSEC;
DATA;
#1 = APPLICATION_PROTOCOL_DEFINITION('international standard',
  'automotive_design',2000,#2);
#2 = APPLICATION_CONTEXT(
  'core data for automotive mechanical design processes');
#3 = SHAPE_DEFINITION_REPRESENTATION(#4,#10);
#4 = PRODUCT_DEFINITION_SHAPE('','',#5);
#5 = PRODUCT_DEFINITION('design','',#6,#9);
#6 = PRODUCT_DEFINITION_FORMATION('','',#7);
#7 = PRODUCT('Pottmanager 166','Pottmanager 166','',(#8));
#8 = PRODUCT_CONTEXT('',#2,'mechanical');
#9 = PRODUCT_DEFINITION_CONTEXT('part definition',#2,'design');
#10 = ADVANCED_BREP_SHAPE_REPRESENTATION('',(#11,#15),#99);
#11 = AXIS2_PLACEMENT_3D('',#12,#13,#14);
#12 = CARTESIAN_POINT('',(0.,0.,0.));
#13 = DIRECTION('',(0.,0.,1.));
#14 = DIRECTION('',(1.,0.,-0.));
#15 = MANIFOLD_SOLID_BREP('',#16);
#16 = CLOSED_SHELL('',(#17,#57,#79,#89));
#17 = ADVANCED_FACE('',(#18),#52,.F.);
#18 = FACE_BOUND('',#19,.F.);
#19 = EDGE_LOOP('',(#20,#30,#38,#46));
#20 = ORIENTED_EDGE('',*,*,#21,.T.);
#21 = EDGE_CURVE('',#22,#24,#26,.T.);
#22 = VERTEX_POINT('',#23);
#23 = CARTESIAN_POINT('',(-7.,0.,0.1));
#24 = VERTEX_POINT('',#25);
#25 = CARTESIAN_POINT('',(-7.,1.110223024625E-16,1.));
#26 = LINE('',#27,#28);
#27 = CARTESIAN_POINT('',(-7.,0.,0.1));
#28 = VECTOR('',#29,1.);
#29 = DIRECTION('',(2.449293598295E-16,0.,1.));
#30 = ORIENTED_EDGE('',*,*,#31,.T.);
#31 = EDGE_CURVE('',#24,#32,#34,.T.);
#32 = VERTEX_POINT('',#33);
#33 = CARTESIAN_POINT('',(-6.,1.110223024625E-16,1.));
#34 = LINE('',#35,#36);
#35 = CARTESIAN_POINT('',(-7.,0.,1.));
#36 = VECTOR('',#37,1.);
#37 = DIRECTION('',(1.,-2.719262146894E-32,-2.449293598295E-16));
#38 = ORIENTED_EDGE('',*,*,#39,.F.);
#39 = EDGE_CURVE('',#40,#32,#42,.T.);
#40 = VERTEX_POINT('',#41);
#41 = CARTESIAN_POINT('',(-6.,0.,0.1));
#42 = LINE('',#43,#44);
#43 = CARTESIAN_POINT('',(-6.,0.,0.1));
#44 = VECTOR('',#45,1.);
#45 = DIRECTION('',(2.449293598295E-16,0.,1.));
#46 = ORIENTED_EDGE('',*,*,#47,.F.);
#47 = EDGE_CURVE('',#22,#40,#48,.T.);
#48 = LINE('',#49,#50);
#49 = CARTESIAN_POINT('',(-7.,0.,0.1));
#50 = VECTOR('',#51,1.);
#51 = DIRECTION('',(1.,-2.719262146894E-32,-2.449293598295E-16));
#52 = PLANE('',#53);
#53 = AXIS2_PLACEMENT_3D('',#54,#55,#56);
#54 = CARTESIAN_POINT('',(-7.,0.,0.1));
#55 = DIRECTION('',(2.719262146894E-32,1.,0.));
#56 = DIRECTION('',(1.,-2.719262146894E-32,-2.449293598295E-16));
#57 = ADVANCED_FACE('',(#58),#74,.F.);
#58 = FACE_BOUND('',#59,.F.);
#59 = EDGE_LOOP('',(#60,#61,#67,#68));
#60 = ORIENTED_EDGE('',*,*,#39,.T.);
#61 = ORIENTED_EDGE('',*,*,#62,.T.);
#62 = EDGE_CURVE('',#32,#24,#63,.T.);
#63 = LINE('',#64,#65);
#64 = CARTESIAN_POINT('',(-6.,0.,1.));
#65 = VECTOR('',#66,1.);
#66 = DIRECTION('',(-1.,2.719262146894E-32,2.449293598295E-16));
#67 = ORIENTED_EDGE('',*,*,#21,.F.);
#68 = ORIENTED_EDGE('',*,*,#69,.F.);
#69 = EDGE_CURVE('',#40,#22,#70,.T.);
#70 = LINE('',#71,#72);
#71 = CARTESIAN_POINT('',(-6.,0.,0.1));
#72 = VECTOR('',#73,1.);
#73 = DIRECTION('',(-1.,2.719262146894E-32,2.449293598295E-16));
#74 = PLANE('',#75);
#75 = AXIS2_PLACEMENT_3D('',#76,#77,#78);
#76 = CARTESIAN_POINT('',(-6.,0.,0.1));
#77 = DIRECTION('',(-2.719262146894E-32,-1.,0.));
#78 = DIRECTION('',(-1.,2.719262146894E-32,2.449293598295E-16));
#79 = ADVANCED_FACE('',(#80),#84,.T.);
#80 = FACE_BOUND('',#81,.F.);
#81 = EDGE_LOOP('',(#82,#83));
#82 = ORIENTED_EDGE('',*,*,#47,.T.);
#83 = ORIENTED_EDGE('',*,*,#69,.T.);
#84 = PLANE('',#85);
#85 = AXIS2_PLACEMENT_3D('',#86,#87,#88);
#86 = CARTESIAN_POINT('',(-6.5,0.,0.1));
#87 = DIRECTION('',(-2.449293598295E-16,0.,-1.));
#88 = DIRECTION('',(-1.,2.719262146894E-32,2.449293598295E-16));
#89 = ADVANCED_FACE('',(#90),#94,.F.);
#90 = FACE_BOUND('',#91,.T.);
#91 = EDGE_LOOP('',(#92,#93));
#92 = ORIENTED_EDGE('',*,*,#31,.T.);
#93 = ORIENTED_EDGE('',*,*,#62,.T.);
#94 = PLANE('',#95);
#95 = AXIS2_PLACEMENT_3D('',#96,#97,#98);
#96 = CARTESIAN_POINT('',(-6.5,0.,1.));
#97 = DIRECTION('',(-2.449293598295E-16,0.,-1.));
#98 = DIRECTION('',(-1.,2.719262146894E-32,2.449293598295E-16));
#99 = ( GEOMETRIC_REPRESENTATION_CONTEXT(3) 
GLOBAL_UNCERTAINTY_ASSIGNED_CONTEXT((#103)) GLOBAL_UNIT_ASSIGNED_CONTEXT
((#100,#101,#102)) REPRESENTATION_CONTEXT('Context #1',
  '3D Context with UNIT and UNCERTAINTY') );
#100 = ( LENGTH_UNIT() NAMED_UNIT(*) SI_UNIT(.MILLI.,.METRE.) );
#101 = ( NAMED_UNIT(*) PLANE_ANGLE_UNIT() SI_UNIT($,.RADIAN.) );
#102 = ( NAMED_UNIT(*) SI_UNIT($,.STERADIAN.) SOLID_ANGLE_UNIT() );
#103 = UNCERTAINTY_MEASURE_WITH_UNIT(LENGTH_MEASURE(1.E-07),#100,
  'distance_accuracy_value','confusion accuracy');
#104 = PRODUCT_RELATED_PRODUCT_CATEGORY('part',$,(#7));
#105 = MECHANICAL_DESIGN_GEOMETRIC_PRESENTATION_REPRESENTATION('',(#106)
  ,#99);
#106 = STYLED_ITEM('color',(#107),#15);
#107 = PRESENTATION_STYLE_ASSIGNMENT((#108));
#108 = SURFACE_STYLE_USAGE(.BOTH.,#109);
#109 = SURFACE_SIDE_STYLE('',(#110));
#110 = SURFACE_STYLE_FILL_AREA(#111);
#111 = FILL_AREA_STYLE('',(#112));
#112 = FILL_AREA_STYLE_COLOUR('',#113);
#113 = COLOUR_RGB('',0.784313738346,0.784313738346,0.784313738346);
ENDSEC;
END-ISO-10303-21;
