ISO-10303-21;
HEADER;
FILE_DESCRIPTION(('Open CASCADE Model'),'2;1');
FILE_NAME('Open CASCADE Shape Model','2026-09-18T15:45:42',('Author'),(
    'Open CASCADE'),'Open CASCADE STEP processor 7.3','Open CASCADE 7.3'
  ,'Unknown');
FILE_SCHEMA(('AUTOMOTIVE_DESIGN { 1 0 10303 214 1 1 1 1 }'));
ENDSEC;
DATA;
#1 = APPLICATION_PROTOCOL_DEFINITION('international standard',
  'automotive_design',2000,#2);
#2 = APPLICATION_CONTEXT(
  'core data for automotive mechanical design processes');
#3 = SHAPE_DEFINITION_REPRESENTATION(#4,#10);
#4 = PRODUCT_DEFINITION_SHAPE('','',#5);
#5 = PRODUCT_DEFINITION('design','',#6,#9);
#6 = PRODUCT_DEFINITION_FORMATION('','',#7);
#7 = PRODUCT('Pottmanager 61','Pottmanager 61','',(#8));
#8 = PRODUCT_CONTEXT('',#2,'mechanical');
#9 = PRODUCT_DEFINITION_CONTEXT('part definition',#2,'design');
#10 = ADVANCED_BREP_SHAPE_REPRESENTATION('',(#11,#15),#322);
#11 = AXIS2_PLACEMENT_3D('',#12,#13,#14);
#12 = CARTESIAN_POINT('',(0.,0.,0.));
#13 = DIRECTION('',(0.,0.,1.));
#14 = DIRECTION('',(1.,0.,-0.));
#15 = MANIFOLD_SOLID_BREP('',#16);
#16 = CLOSED_SHELL('',(#17,#229,#251,#261,#278,#288,#313));
#17 = ADVANCED_FACE('',(#18),#224,.T.);
#18 = FACE_BOUND('',#19,.F.);
#19 = EDGE_LOOP('',(#20,#30,#39,#47,#54,#55,#200,#209,#217));
#20 = ORIENTED_EDGE('',*,*,#21,.T.);
#21 = EDGE_CURVE('',#22,#24,#26,.T.);
#22 = VERTEX_POINT('',#23);
#23 = CARTESIAN_POINT('',(-40.68882852585,1.927555746406,0.202828038193)
  );
#24 = VERTEX_POINT('',#25);
#25 = CARTESIAN_POINT('',(-40.68882852585,13.612963767833,0.202828038193
    ));
#26 = LINE('',#27,#28);
#27 = CARTESIAN_POINT('',(-40.68882852585,-0.387036232167,0.202828038193
    ));
#28 = VECTOR('',#29,1.);
#29 = DIRECTION('',(0.,1.,0.));
#30 = ORIENTED_EDGE('',*,*,#31,.T.);
#31 = EDGE_CURVE('',#24,#32,#34,.T.);
#32 = VERTEX_POINT('',#33);
#33 = CARTESIAN_POINT('',(-40.68918567327,13.612963767833,0.102828038193
    ));
#34 = CIRCLE('',#35,14.);
#35 = AXIS2_PLACEMENT_3D('',#36,#37,#38);
#36 = CARTESIAN_POINT('',(-26.68918567327,13.612963767833,0.102828038193
    ));
#37 = DIRECTION('',(-0.,-1.,-0.));
#38 = DIRECTION('',(-1.,0.,0.));
#39 = ORIENTED_EDGE('',*,*,#40,.T.);
#40 = EDGE_CURVE('',#32,#41,#43,.T.);
#41 = VERTEX_POINT('',#42);
#42 = CARTESIAN_POINT('',(-40.68918567327,29.612963767833,0.102828038193
    ));
#43 = LINE('',#44,#45);
#44 = CARTESIAN_POINT('',(-40.68918567327,-0.387036232167,0.102828038193
    ));
#45 = VECTOR('',#46,1.);
#46 = DIRECTION('',(0.,1.,0.));
#47 = ORIENTED_EDGE('',*,*,#48,.F.);
#48 = EDGE_CURVE('',#41,#41,#49,.T.);
#49 = CIRCLE('',#50,14.);
#50 = AXIS2_PLACEMENT_3D('',#51,#52,#53);
#51 = CARTESIAN_POINT('',(-26.68918567327,29.612963767833,0.102828038193
    ));
#52 = DIRECTION('',(-0.,-1.,-0.));
#53 = DIRECTION('',(-1.,0.,0.));
#54 = ORIENTED_EDGE('',*,*,#40,.F.);
#55 = ORIENTED_EDGE('',*,*,#56,.F.);
#56 = EDGE_CURVE('',#57,#32,#59,.T.);
#57 = VERTEX_POINT('',#58);
#58 = CARTESIAN_POINT('',(-12.68918567327,13.612963767833,0.102828038193
    ));
#59 = B_SPLINE_CURVE_WITH_KNOTS('',7,(#60,#61,#62,#63,#64,#65,#66,#67,
    #68,#69,#70,#71,#72,#73,#74,#75,#76,#77,#78,#79,#80,#81,#82,#83,#84,
    #85,#86,#87,#88,#89,#90,#91,#92,#93,#94,#95,#96,#97,#98,#99,#100,
    #101,#102,#103,#104,#105,#106,#107,#108,#109,#110,#111,#112,#113,
    #114,#115,#116,#117,#118,#119,#120,#121,#122,#123,#124,#125,#126,
    #127,#128,#129,#130,#131,#132,#133,#134,#135,#136,#137,#138,#139,
    #140,#141,#142,#143,#144,#145,#146,#147,#148,#149,#150,#151,#152,
    #153,#154,#155,#156,#157,#158,#159,#160,#161,#162,#163,#164,#165,
    #166,#167,#168,#169,#170,#171,#172,#173,#174,#175,#176,#177,#178,
    #179,#180,#181,#182,#183,#184,#185,#186,#187,#188,#189,#190,#191,
    #192,#193,#194,#195,#196,#197,#198,#199),.UNSPECIFIED.,.F.,.F.,(8,6,
    6,6,6,6,6,6,6,6,6,6,6,6,6,6,6,6,6,6,6,6,6,8),(0.,2.094359579239E-02,
    5.416913505588E-02,7.907434711524E-02,0.112933152847,0.181501568732,
    0.240958090329,0.301884160958,0.369462770298,0.391638423697,
    0.427246560862,0.452311363656,0.486380740856,0.51452931567,
    0.554600271781,0.620639446154,0.704892156556,0.754891069976,
    0.776797415986,0.814007749198,0.849587089198,0.871744808725,
    0.937859773543,1.),.UNSPECIFIED.);
#60 = CARTESIAN_POINT('',(-17.21934172001,0.494963585868,-10.20843063865
    ));
#61 = CARTESIAN_POINT('',(-17.04160090221,0.534643431313,-10.04519374766
    ));
#62 = CARTESIAN_POINT('',(-16.86648759518,0.577848263101,-9.877780602649
    ));
#63 = CARTESIAN_POINT('',(-16.69426254142,0.624804299519,-9.706343261962
    ));
#64 = CARTESIAN_POINT('',(-16.52516577337,0.67573988198,-9.531048101716)
  );
#65 = CARTESIAN_POINT('',(-16.35941698732,0.730884611388,-9.352074618514
    ));
#66 = CARTESIAN_POINT('',(-16.19721591735,0.790468484519,-9.169614232163
    ));
#67 = CARTESIAN_POINT('',(-15.78733612895,0.956653167861,-8.689197503436
    ));
#68 = CARTESIAN_POINT('',(-15.54508225479,1.070428273206,-8.385990105969
    ));
#69 = CARTESIAN_POINT('',(-15.31337350577,1.196741794925,-8.075779914064
    ));
#70 = CARTESIAN_POINT('',(-15.09325082878,1.336150757548,-7.760197193018
    ));
#71 = CARTESIAN_POINT('',(-14.88543965226,1.489035726255,-7.44093552748)
  );
#72 = CARTESIAN_POINT('',(-14.69038386431,1.655565313078,-7.119722343679
    ));
#73 = CARTESIAN_POINT('',(-14.37177469529,1.970661084112,-6.557357415837
    ));
#74 = CARTESIAN_POINT('',(-14.24269919699,2.113132234911,-6.316567917427
    ));
#75 = CARTESIAN_POINT('',(-14.12112774867,2.262992130761,-6.076697169487
    ));
#76 = CARTESIAN_POINT('',(-14.00705392082,2.420063638739,-5.838523276586
    ));
#77 = CARTESIAN_POINT('',(-13.90039547317,2.584071561213,-5.602817459509
    ));
#78 = CARTESIAN_POINT('',(-13.80100140197,2.754637157755,-5.370330849909
    ));
#79 = CARTESIAN_POINT('',(-13.58311884424,3.171409847184,-4.831066591924
    ));
#80 = CARTESIAN_POINT('',(-13.47072670788,3.422547577285,-4.527911427855
    ));
#81 = CARTESIAN_POINT('',(-13.37059139108,3.68403018037,-4.233312952923)
  );
#82 = CARTESIAN_POINT('',(-13.28179684186,3.955058266349,-3.948194602987
    ));
#83 = CARTESIAN_POINT('',(-13.20341150785,4.234680935689,-3.673399674415
    ));
#84 = CARTESIAN_POINT('',(-13.13450209319,4.521786050586,-3.409678670311
    ));
#85 = CARTESIAN_POINT('',(-12.95193445183,5.409063728616,-2.64732141757)
  );
#86 = CARTESIAN_POINT('',(-12.86477368102,6.028674825247,-2.184819794231
    ));
#87 = CARTESIAN_POINT('',(-12.80390773713,6.669089274776,-1.770546024216
    ));
#88 = CARTESIAN_POINT('',(-12.76246877358,7.326012288021,-1.404143553908
    ));
#89 = CARTESIAN_POINT('',(-12.73498994736,7.99571385722,-1.084897907318)
  );
#90 = CARTESIAN_POINT('',(-12.71724108614,8.67499267165,-0.811900963077)
  );
#91 = CARTESIAN_POINT('',(-12.69635378055,9.956061879605,-0.386791237609
    ));
#92 = CARTESIAN_POINT('',(-12.69157725231,10.556761833145,
    -0.223233529887));
#93 = CARTESIAN_POINT('',(-12.68967308817,11.161815404765,
    -9.293997443683E-02));
#94 = CARTESIAN_POINT('',(-12.6891898985,11.770007672727,
    4.565941120243E-03));
#95 = CARTESIAN_POINT('',(-12.68918582696,12.380253334851,
    6.96129183429E-02));
#96 = CARTESIAN_POINT('',(-12.68918567339,12.991540667824,0.10236742109)
  );
#97 = CARTESIAN_POINT('',(-12.68918567314,14.22931986574,0.103292407829)
  );
#98 = CARTESIAN_POINT('',(-12.68918585317,14.855738032029,
    6.984654292661E-02));
#99 = CARTESIAN_POINT('',(-12.68918065722,15.481061432788,
    2.496000657529E-03));
#100 = CARTESIAN_POINT('',(-12.68968452477,16.104203119215,
    -9.893969133138E-02));
#101 = CARTESIAN_POINT('',(-12.69172574862,16.723993778078,
    -0.234820048385));
#102 = CARTESIAN_POINT('',(-12.69689579159,17.339118221129,
    -0.405666845176));
#103 = CARTESIAN_POINT('',(-12.7191651944,18.623475738621,
    -0.841160781294));
#104 = CARTESIAN_POINT('',(-12.73751948264,19.29208352652,
    -1.114284636104));
#105 = CARTESIAN_POINT('',(-12.76562146118,19.951200324807,
    -1.432410787481));
#106 = CARTESIAN_POINT('',(-12.80758625148,20.59770838895,
    -1.796395761718));
#107 = CARTESIAN_POINT('',(-12.86870210983,21.227994398774,
    -2.206899215609));
#108 = CARTESIAN_POINT('',(-12.9555838815,21.837918418437,
    -2.664230404846));
#109 = CARTESIAN_POINT('',(-13.11634864543,22.614781270755,
    -3.333303446002));
#110 = CARTESIAN_POINT('',(-13.15972777075,22.803933718191,
    -3.503529518958));
#111 = CARTESIAN_POINT('',(-13.20702664847,22.989997451935,
    -3.678527991826));
#112 = CARTESIAN_POINT('',(-13.25851200676,23.172692925273,
    -3.858136003093));
#113 = CARTESIAN_POINT('',(-13.31445547673,23.351761769466,
    -4.042174357152));
#114 = CARTESIAN_POINT('',(-13.37513266585,23.526966448238,
    -4.230448759657));
#115 = CARTESIAN_POINT('',(-13.54630201196,23.972868186892,
    -4.731536832969));
#116 = CARTESIAN_POINT('',(-13.66483527635,24.237461435419,
    -5.051087624598));
#117 = CARTESIAN_POINT('',(-13.79730432503,24.490065829679,
    -5.379622311985));
#118 = CARTESIAN_POINT('',(-13.94443494623,24.72933649147,
    -5.715213813079));
#119 = CARTESIAN_POINT('',(-14.10674237349,24.95433986657,
    -6.055839214329));
#120 = CARTESIAN_POINT('',(-14.28448172036,25.164509259915,
    -6.399422225081));
#121 = CARTESIAN_POINT('',(-14.61354215949,25.496931677796,
    -6.986325572104));
#122 = CARTESIAN_POINT('',(-14.75692855181,25.626614743755,
    -7.228900176614));
#123 = CARTESIAN_POINT('',(-14.907679885,25.748571543751,-7.470805384755
    ));
#124 = CARTESIAN_POINT('',(-15.06562047085,25.862807278116,
    -7.711246427693));
#125 = CARTESIAN_POINT('',(-15.23047527628,25.969406528974,
    -7.94943366292));
#126 = CARTESIAN_POINT('',(-15.40186408282,26.06852625564,
    -8.184596089067));
#127 = CARTESIAN_POINT('',(-15.82046980981,26.285253101145,
    -8.730524047274));
#128 = CARTESIAN_POINT('',(-16.07258550513,26.396593209967,
    -9.037808459075));
#129 = CARTESIAN_POINT('',(-16.33499445689,26.495331119676,
    -9.336825293246));
#130 = CARTESIAN_POINT('',(-16.60690347798,26.582415834812,
    -9.626627571327));
#131 = CARTESIAN_POINT('',(-16.88736587557,26.65881436578,
    -9.906348470051));
#132 = CARTESIAN_POINT('',(-17.17527062738,26.725498079165,
    -10.17521239242));
#133 = CARTESIAN_POINT('',(-17.71228455621,26.831283889307,
    -10.64517084625));
#134 = CARTESIAN_POINT('',(-17.95966965321,26.873210514858,
    -10.85012292972));
#135 = CARTESIAN_POINT('',(-18.21112456671,26.909793041643,
    -11.04731498091));
#136 = CARTESIAN_POINT('',(-18.4662916286,26.94157769121,-11.2366788241)
  );
#137 = CARTESIAN_POINT('',(-18.72481610787,26.96907032255,
    -11.41817002706));
#138 = CARTESIAN_POINT('',(-18.98634676372,26.992738619112,
    -11.59176577164));
#139 = CARTESIAN_POINT('',(-19.62662404603,27.041877724695,
    -11.99334093002));
#140 = CARTESIAN_POINT('',(-20.00819530517,27.06387316433,
    -12.21327207485));
#141 = CARTESIAN_POINT('',(-20.39455412554,27.080261763575,
    -12.41742146597));
#142 = CARTESIAN_POINT('',(-20.78507819886,27.092127436245,
    -12.60598067567));
#143 = CARTESIAN_POINT('',(-21.1792140236,27.100401550026,
    -12.77915123735));
#144 = CARTESIAN_POINT('',(-21.57647134925,27.10588104264,
    -12.93713174209));
#145 = CARTESIAN_POINT('',(-22.63554977841,27.114775604397,
    -13.31574174985));
#146 = CARTESIAN_POINT('',(-23.30209286417,27.114552955138,
    -13.51066205194));
#147 = CARTESIAN_POINT('',(-23.97420612919,27.11158469734,-13.6657112742
    ));
#148 = CARTESIAN_POINT('',(-24.65031599534,27.107987301273,
    -13.7815485149));
#149 = CARTESIAN_POINT('',(-25.32903452979,27.105129614115,
    -13.85862639872));
#150 = CARTESIAN_POINT('',(-26.00907811208,27.103701331065,
    -13.8971719618));
#151 = CARTESIAN_POINT('',(-27.55686619684,27.103701331065,
    -13.8971719618));
#152 = CARTESIAN_POINT('',(-28.4243212226,27.106026983541,
    -13.83443287889));
#153 = CARTESIAN_POINT('',(-29.28905328511,27.110673307918,
    -13.7090130975));
#154 = CARTESIAN_POINT('',(-30.14844896741,27.115832936847,
    -13.52028470991));
#155 = CARTESIAN_POINT('',(-30.99950680671,27.117854525194,
    -13.26701895355));
#156 = CARTESIAN_POINT('',(-31.83854247922,27.111066095706,
    -12.94748827208));
#157 = CARTESIAN_POINT('',(-33.1488796034,27.072655710402,
    -12.32952772239));
#158 = CARTESIAN_POINT('',(-33.63144159535,27.052238887992,
    -12.07512754716));
#159 = CARTESIAN_POINT('',(-34.10714742243,27.023925228654,
    -11.79616730498));
#160 = CARTESIAN_POINT('',(-34.57446717136,26.98558946963,-11.4924352772
    ));
#161 = CARTESIAN_POINT('',(-35.03175164247,26.934743375397,
    -11.16383680065));
#162 = CARTESIAN_POINT('',(-35.47723488331,26.868485628234,
    -10.81044132707));
#163 = CARTESIAN_POINT('',(-36.09823246072,26.746155967315,
    -10.26698603542));
#164 = CARTESIAN_POINT('',(-36.28475448551,26.705286446985,
    -10.09675525605));
#165 = CARTESIAN_POINT('',(-36.46832595268,26.660558234462,
    -9.922000840589));
#166 = CARTESIAN_POINT('',(-36.64868461841,26.611708312526,
    -9.742879250122));
#167 = CARTESIAN_POINT('',(-36.82558782975,26.55846900195,-9.55956198319
    ));
#168 = CARTESIAN_POINT('',(-36.99881221873,26.500568718308,
    -9.372234551639));
#169 = CARTESIAN_POINT('',(-37.45579797439,26.33099890346,
    -8.856424723367));
#170 = CARTESIAN_POINT('',(-37.73267007462,26.209864055163,
    -8.520269148555));
#171 = CARTESIAN_POINT('',(-37.99669292665,26.073279857358,
    -8.174687675191));
#172 = CARTESIAN_POINT('',(-38.24634053717,25.920391519905,
    -7.821904220948));
#173 = CARTESIAN_POINT('',(-38.48057609225,25.750603718569,
    -7.464248076744));
#174 = CARTESIAN_POINT('',(-38.69879441151,25.563641124253,
    -7.104103421303));
#175 = CARTESIAN_POINT('',(-39.09388962617,25.164509259915,
    -6.399422225081));
#176 = CARTESIAN_POINT('',(-39.27162897304,24.954339866572,
    -6.05583921433));
#177 = CARTESIAN_POINT('',(-39.43393640031,24.729336491468,
    -5.715213813077));
#178 = CARTESIAN_POINT('',(-39.5810670215,24.490065829678,
    -5.379622311984));
#179 = CARTESIAN_POINT('',(-39.71353607018,24.237461435421,-5.0510876246
    ));
#180 = CARTESIAN_POINT('',(-39.83206933457,23.972868186892,
    -4.731536832969));
#181 = CARTESIAN_POINT('',(-40.00323868103,23.526966447333,
    -4.230448758639));
#182 = CARTESIAN_POINT('',(-40.06391586981,23.351761769308,
    -4.042174357064));
#183 = CARTESIAN_POINT('',(-40.11985933953,23.172692925984,
    -3.858136003859));
#184 = CARTESIAN_POINT('',(-40.17134469788,22.989997452723,
    -3.678527992537));
#185 = CARTESIAN_POINT('',(-40.21864357584,22.803933718141,
    -3.503529518839));
#186 = CARTESIAN_POINT('',(-40.2620227013,22.614781269788,
    -3.333303445169));
#187 = CARTESIAN_POINT('',(-40.42026168279,21.850123744716,
    -2.674742240684));
#188 = CARTESIAN_POINT('',(-40.50603458849,21.253408104826,
    -2.225979918909));
#189 = CARTESIAN_POINT('',(-40.56693525324,20.637057026512,
    -1.822097154766));
#190 = CARTESIAN_POINT('',(-40.60920652904,20.004981035854,
    -1.462831802144));
#191 = CARTESIAN_POINT('',(-40.63786655382,19.360612361027,
    -1.147587875064));
#192 = CARTESIAN_POINT('',(-40.65684857137,18.706930572241,
    -0.87557505598));
#193 = CARTESIAN_POINT('',(-40.68070706672,17.425788047697,
    -0.430127484894));
#194 = CARTESIAN_POINT('',(-40.6863757941,16.798431461057,-0.25151221769
    ));
#195 = CARTESIAN_POINT('',(-40.68862345017,16.166082538812,
    -0.109387230722));
#196 = CARTESIAN_POINT('',(-40.68918606719,15.530152492113,
    -3.184888173379E-03));
#197 = CARTESIAN_POINT('',(-40.68918549339,14.891889305354,
    6.748748119541E-02));
#198 = CARTESIAN_POINT('',(-40.68918567327,14.252448458617,
    0.102828028664));
#199 = CARTESIAN_POINT('',(-40.68918567327,13.612963968999,
    0.102828038193));
#200 = ORIENTED_EDGE('',*,*,#201,.T.);
#201 = EDGE_CURVE('',#57,#202,#204,.T.);
#202 = VERTEX_POINT('',#203);
#203 = CARTESIAN_POINT('',(-12.68954282068,13.612963767833,
    0.202828038193));
#204 = CIRCLE('',#205,14.);
#205 = AXIS2_PLACEMENT_3D('',#206,#207,#208);
#206 = CARTESIAN_POINT('',(-26.68918567327,13.612963767833,
    0.102828038193));
#207 = DIRECTION('',(-0.,-1.,-0.));
#208 = DIRECTION('',(-1.,0.,0.));
#209 = ORIENTED_EDGE('',*,*,#210,.F.);
#210 = EDGE_CURVE('',#211,#202,#213,.T.);
#211 = VERTEX_POINT('',#212);
#212 = CARTESIAN_POINT('',(-12.68954282068,0.494964185896,0.202828038193
    ));
#213 = LINE('',#214,#215);
#214 = CARTESIAN_POINT('',(-12.68954282068,-0.387036232167,
    0.202828038193));
#215 = VECTOR('',#216,1.);
#216 = DIRECTION('',(0.,1.,0.));
#217 = ORIENTED_EDGE('',*,*,#218,.T.);
#218 = EDGE_CURVE('',#211,#22,#219,.T.);
#219 = ELLIPSE('',#220,14.018313230331,14.);
#220 = AXIS2_PLACEMENT_3D('',#221,#222,#223);
#221 = CARTESIAN_POINT('',(-26.68918567327,1.211259966151,0.102828038193
    ));
#222 = DIRECTION('',(-5.109844829659E-02,-0.998693620978,-0.));
#223 = DIRECTION('',(-0.998693620978,5.109844829659E-02,
    -1.155557966632E-32));
#224 = CYLINDRICAL_SURFACE('',#225,14.);
#225 = AXIS2_PLACEMENT_3D('',#226,#227,#228);
#226 = CARTESIAN_POINT('',(-26.68918567327,-0.387036232167,
    0.102828038193));
#227 = DIRECTION('',(0.,1.,0.));
#228 = DIRECTION('',(-1.,0.,0.));
#229 = ADVANCED_FACE('',(#230),#246,.T.);
#230 = FACE_BOUND('',#231,.F.);
#231 = EDGE_LOOP('',(#232,#233,#239,#240));
#232 = ORIENTED_EDGE('',*,*,#210,.T.);
#233 = ORIENTED_EDGE('',*,*,#234,.T.);
#234 = EDGE_CURVE('',#202,#24,#235,.T.);
#235 = LINE('',#236,#237);
#236 = CARTESIAN_POINT('',(1.310814326729,13.612963767833,0.202828038193
    ));
#237 = VECTOR('',#238,1.);
#238 = DIRECTION('',(-1.,0.,0.));
#239 = ORIENTED_EDGE('',*,*,#21,.F.);
#240 = ORIENTED_EDGE('',*,*,#241,.T.);
#241 = EDGE_CURVE('',#22,#211,#242,.T.);
#242 = LINE('',#243,#244);
#243 = CARTESIAN_POINT('',(0.979541488414,-0.204418470765,0.202828038193
    ));
#244 = VECTOR('',#245,1.);
#245 = DIRECTION('',(0.998693620978,-5.109844829659E-02,
    1.155557966632E-32));
#246 = PLANE('',#247);
#247 = AXIS2_PLACEMENT_3D('',#248,#249,#250);
#248 = CARTESIAN_POINT('',(1.310814326729,-0.387036232167,0.202828038193
    ));
#249 = DIRECTION('',(0.,0.,-1.));
#250 = DIRECTION('',(1.,0.,0.));
#251 = ADVANCED_FACE('',(#252),#256,.F.);
#252 = FACE_BOUND('',#253,.T.);
#253 = EDGE_LOOP('',(#254,#255));
#254 = ORIENTED_EDGE('',*,*,#241,.T.);
#255 = ORIENTED_EDGE('',*,*,#218,.T.);
#256 = PLANE('',#257);
#257 = AXIS2_PLACEMENT_3D('',#258,#259,#260);
#258 = CARTESIAN_POINT('',(0.639814326729,-0.187036232167,0.102828038193
    ));
#259 = DIRECTION('',(5.109844829659E-02,0.998693620978,
    1.232595164408E-32));
#260 = DIRECTION('',(0.,0.,-1.));
#261 = ADVANCED_FACE('',(#262),#273,.F.);
#262 = FACE_BOUND('',#263,.T.);
#263 = EDGE_LOOP('',(#264,#265,#266,#267));
#264 = ORIENTED_EDGE('',*,*,#201,.T.);
#265 = ORIENTED_EDGE('',*,*,#234,.T.);
#266 = ORIENTED_EDGE('',*,*,#31,.T.);
#267 = ORIENTED_EDGE('',*,*,#268,.T.);
#268 = EDGE_CURVE('',#32,#57,#269,.T.);
#269 = LINE('',#270,#271);
#270 = CARTESIAN_POINT('',(-53.68918567327,13.612963767833,
    0.102828038193));
#271 = VECTOR('',#272,1.);
#272 = DIRECTION('',(1.,0.,0.));
#273 = PLANE('',#274);
#274 = AXIS2_PLACEMENT_3D('',#275,#276,#277);
#275 = CARTESIAN_POINT('',(-26.68918567327,13.612963767833,
    -13.8471719618));
#276 = DIRECTION('',(0.,1.,0.));
#277 = DIRECTION('',(0.,0.,-1.));
#278 = ADVANCED_FACE('',(#279),#283,.F.);
#279 = FACE_BOUND('',#280,.T.);
#280 = EDGE_LOOP('',(#281,#282));
#281 = ORIENTED_EDGE('',*,*,#56,.F.);
#282 = ORIENTED_EDGE('',*,*,#268,.F.);
#283 = CYLINDRICAL_SURFACE('',#284,13.5);
#284 = AXIS2_PLACEMENT_3D('',#285,#286,#287);
#285 = CARTESIAN_POINT('',(-53.68918567327,13.612963767833,
    -13.3971719618));
#286 = DIRECTION('',(1.,0.,0.));
#287 = DIRECTION('',(0.,0.,-1.));
#288 = ADVANCED_FACE('',(#289),#308,.T.);
#289 = FACE_BOUND('',#290,.F.);
#290 = EDGE_LOOP('',(#291,#299,#300,#301));
#291 = ORIENTED_EDGE('',*,*,#292,.F.);
#292 = EDGE_CURVE('',#41,#293,#295,.T.);
#293 = VERTEX_POINT('',#294);
#294 = CARTESIAN_POINT('',(-40.18918567327,39.651964767833,
    0.102828038193));
#295 = LINE('',#296,#297);
#296 = CARTESIAN_POINT('',(-40.68918567327,29.612963767833,
    0.102828038193));
#297 = VECTOR('',#298,1.);
#298 = DIRECTION('',(4.974409287763E-02,0.998761996285,
    -1.232595164408E-32));
#299 = ORIENTED_EDGE('',*,*,#48,.T.);
#300 = ORIENTED_EDGE('',*,*,#292,.T.);
#301 = ORIENTED_EDGE('',*,*,#302,.F.);
#302 = EDGE_CURVE('',#293,#293,#303,.T.);
#303 = CIRCLE('',#304,13.5);
#304 = AXIS2_PLACEMENT_3D('',#305,#306,#307);
#305 = CARTESIAN_POINT('',(-26.68918567327,39.651964767833,
    0.102828038193));
#306 = DIRECTION('',(-0.,-1.,-0.));
#307 = DIRECTION('',(-1.,0.,0.));
#308 = CONICAL_SURFACE('',#309,14.,4.976463083901E-02);
#309 = AXIS2_PLACEMENT_3D('',#310,#311,#312);
#310 = CARTESIAN_POINT('',(-26.68918567327,29.612963767833,
    0.102828038193));
#311 = DIRECTION('',(0.,-1.,0.));
#312 = DIRECTION('',(-1.,0.,0.));
#313 = ADVANCED_FACE('',(#314),#317,.T.);
#314 = FACE_BOUND('',#315,.F.);
#315 = EDGE_LOOP('',(#316));
#316 = ORIENTED_EDGE('',*,*,#302,.T.);
#317 = PLANE('',#318);
#318 = AXIS2_PLACEMENT_3D('',#319,#320,#321);
#319 = CARTESIAN_POINT('',(-26.68918567327,39.651964767833,
    0.102828038193));
#320 = DIRECTION('',(0.,1.,0.));
#321 = DIRECTION('',(1.,0.,0.));
#322 = ( GEOMETRIC_REPRESENTATION_CONTEXT(3) 
GLOBAL_UNCERTAINTY_ASSIGNED_CONTEXT((#326)) GLOBAL_UNIT_ASSIGNED_CONTEXT
((#323,#324,#325)) REPRESENTATION_CONTEXT('Context #1',
  '3D Context with UNIT and UNCERTAINTY') );
#323 = ( LENGTH_UNIT() NAMED_UNIT(*) SI_UNIT(.MILLI.,.METRE.) );
#324 = ( NAMED_UNIT(*) PLANE_ANGLE_UNIT() SI_UNIT($,.RADIAN.) );
#325 = ( NAMED_UNIT(*) SI_UNIT($,.STERADIAN.) SOLID_ANGLE_UNIT() );
#326 = UNCERTAINTY_MEASURE_WITH_UNIT(LENGTH_MEASURE(1.E-07),#323,
  'distance_accuracy_value','confusion accuracy');
#327 = PRODUCT_RELATED_PRODUCT_CATEGORY('part',$,(#7));
#328 = MECHANICAL_DESIGN_GEOMETRIC_PRESENTATION_REPRESENTATION('',(#329)
  ,#322);
#329 = STYLED_ITEM('color',(#330),#15);
#330 = PRESENTATION_STYLE_ASSIGNMENT((#331));
#331 = SURFACE_STYLE_USAGE(.BOTH.,#332);
#332 = SURFACE_SIDE_STYLE('',(#333));
#333 = SURFACE_STYLE_FILL_AREA(#334);
#334 = FILL_AREA_STYLE('',(#335));
#335 = FILL_AREA_STYLE_COLOUR('',#336);
#336 = COLOUR_RGB('',0.784313738346,0.784313738346,0.784313738346);
ENDSEC;
END-ISO-10303-21;
