ISO-10303-21;
HEADER;
FILE_DESCRIPTION(('Open CASCADE Model'),'2;1');
FILE_NAME('Open CASCADE Shape Model','2026-09-18T15:45:42',('Author'),(
    'Open CASCADE'),'Open CASCADE STEP processor 7.3','Open CASCADE 7.3'
  ,'Unknown');
FILE_SCHEMA(('AUTOMOTIVE_DESIGN { 1 0 10303 214 1 1 1 1 }'));
ENDSEC;
DATA;
#1 = APPLICATION_PROTOCOL_DEFINITION('international standard',
  'automotive_design',2000,#2);
#2 = APPLICATION_CONTEXT(
  'core data for automotive mechanical design processes');
#3 = SHAPE_DEFINITION_REPRESENTATION(#4,#10);
#4 = PRODUCT_DEFINITION_SHAPE('','',#5);
#5 = PRODUCT_DEFINITION('design','',#6,#9);
#6 = PRODUCT_DEFINITION_FORMATION('','',#7);
#7 = PRODUCT('Pottmanager 59','Pottmanager 59','',(#8));
#8 = PRODUCT_CONTEXT('',#2,'mechanical');
#9 = PRODUCT_DEFINITION_CONTEXT('part definition',#2,'design');
#10 = ADVANCED_BREP_SHAPE_REPRESENTATION('',(#11,#15),#378);
#11 = AXIS2_PLACEMENT_3D('',#12,#13,#14);
#12 = CARTESIAN_POINT('',(0.,0.,0.));
#13 = DIRECTION('',(0.,0.,1.));
#14 = DIRECTION('',(1.,0.,-0.));
#15 = MANIFOLD_SOLID_BREP('',#16);
#16 = CLOSED_SHELL('',(#17,#34,#59,#84,#104,#129,#149,#192,#224,#247,
    #272,#314,#331,#343,#369));
#17 = ADVANCED_FACE('',(#18),#29,.T.);
#18 = FACE_BOUND('',#19,.F.);
#19 = EDGE_LOOP('',(#20));
#20 = ORIENTED_EDGE('',*,*,#21,.F.);
#21 = EDGE_CURVE('',#22,#22,#24,.T.);
#22 = VERTEX_POINT('',#23);
#23 = CARTESIAN_POINT('',(18.310814326729,281.65196476783,0.102828038193
    ));
#24 = CIRCLE('',#25,50.);
#25 = AXIS2_PLACEMENT_3D('',#26,#27,#28);
#26 = CARTESIAN_POINT('',(-31.68918567327,281.65196476783,0.102828038193
    ));
#27 = DIRECTION('',(0.,-1.,1.110223024625E-16));
#28 = DIRECTION('',(1.,0.,0.));
#29 = PLANE('',#30);
#30 = AXIS2_PLACEMENT_3D('',#31,#32,#33);
#31 = CARTESIAN_POINT('',(-31.68918567327,281.65196476783,0.102828038193
    ));
#32 = DIRECTION('',(0.,-1.,1.110223024625E-16));
#33 = DIRECTION('',(1.,0.,0.));
#34 = ADVANCED_FACE('',(#35),#54,.T.);
#35 = FACE_BOUND('',#36,.F.);
#36 = EDGE_LOOP('',(#37,#38,#46,#53));
#37 = ORIENTED_EDGE('',*,*,#21,.T.);
#38 = ORIENTED_EDGE('',*,*,#39,.T.);
#39 = EDGE_CURVE('',#22,#40,#42,.T.);
#40 = VERTEX_POINT('',#41);
#41 = CARTESIAN_POINT('',(18.310814326729,286.30196476783,0.102828038193
    ));
#42 = LINE('',#43,#44);
#43 = CARTESIAN_POINT('',(18.310814326729,281.65196476783,0.102828038193
    ));
#44 = VECTOR('',#45,1.);
#45 = DIRECTION('',(0.,1.,-1.110223024625E-16));
#46 = ORIENTED_EDGE('',*,*,#47,.F.);
#47 = EDGE_CURVE('',#40,#40,#48,.T.);
#48 = CIRCLE('',#49,50.);
#49 = AXIS2_PLACEMENT_3D('',#50,#51,#52);
#50 = CARTESIAN_POINT('',(-31.68918567327,286.30196476783,0.102828038193
    ));
#51 = DIRECTION('',(0.,-1.,1.110223024625E-16));
#52 = DIRECTION('',(1.,0.,0.));
#53 = ORIENTED_EDGE('',*,*,#39,.F.);
#54 = CYLINDRICAL_SURFACE('',#55,50.);
#55 = AXIS2_PLACEMENT_3D('',#56,#57,#58);
#56 = CARTESIAN_POINT('',(-31.68918567327,281.65196476783,0.102828038193
    ));
#57 = DIRECTION('',(-0.,1.,-1.110223024625E-16));
#58 = DIRECTION('',(1.,0.,0.));
#59 = ADVANCED_FACE('',(#60),#79,.T.);
#60 = FACE_BOUND('',#61,.F.);
#61 = EDGE_LOOP('',(#62,#63,#71,#78));
#62 = ORIENTED_EDGE('',*,*,#47,.T.);
#63 = ORIENTED_EDGE('',*,*,#64,.T.);
#64 = EDGE_CURVE('',#40,#65,#67,.T.);
#65 = VERTEX_POINT('',#66);
#66 = CARTESIAN_POINT('',(15.810814326729,287.80196476783,0.102828038193
    ));
#67 = LINE('',#68,#69);
#68 = CARTESIAN_POINT('',(18.310814326729,286.30196476783,0.102828038193
    ));
#69 = VECTOR('',#70,1.);
#70 = DIRECTION('',(-0.857492925713,0.514495755428,-5.712050337476E-17)
  );
#71 = ORIENTED_EDGE('',*,*,#72,.F.);
#72 = EDGE_CURVE('',#65,#65,#73,.T.);
#73 = CIRCLE('',#74,47.5);
#74 = AXIS2_PLACEMENT_3D('',#75,#76,#77);
#75 = CARTESIAN_POINT('',(-31.68918567327,287.80196476783,0.102828038193
    ));
#76 = DIRECTION('',(0.,-1.,1.110223024625E-16));
#77 = DIRECTION('',(1.,0.,0.));
#78 = ORIENTED_EDGE('',*,*,#64,.F.);
#79 = CONICAL_SURFACE('',#80,50.,1.030376826524);
#80 = AXIS2_PLACEMENT_3D('',#81,#82,#83);
#81 = CARTESIAN_POINT('',(-31.68918567327,286.30196476783,0.102828038193
    ));
#82 = DIRECTION('',(0.,-1.,1.110223024625E-16));
#83 = DIRECTION('',(1.,0.,0.));
#84 = ADVANCED_FACE('',(#85,#88),#99,.F.);
#85 = FACE_BOUND('',#86,.F.);
#86 = EDGE_LOOP('',(#87));
#87 = ORIENTED_EDGE('',*,*,#72,.T.);
#88 = FACE_BOUND('',#89,.F.);
#89 = EDGE_LOOP('',(#90));
#90 = ORIENTED_EDGE('',*,*,#91,.F.);
#91 = EDGE_CURVE('',#92,#92,#94,.T.);
#92 = VERTEX_POINT('',#93);
#93 = CARTESIAN_POINT('',(14.310814326729,287.80196476783,0.102828038193
    ));
#94 = CIRCLE('',#95,46.);
#95 = AXIS2_PLACEMENT_3D('',#96,#97,#98);
#96 = CARTESIAN_POINT('',(-31.68918567327,287.80196476783,0.102828038193
    ));
#97 = DIRECTION('',(0.,-1.,1.110223024625E-16));
#98 = DIRECTION('',(1.,0.,0.));
#99 = PLANE('',#100);
#100 = AXIS2_PLACEMENT_3D('',#101,#102,#103);
#101 = CARTESIAN_POINT('',(-31.68918567327,287.80196476783,
    0.102828038193));
#102 = DIRECTION('',(0.,-1.,1.110223024625E-16));
#103 = DIRECTION('',(1.,0.,0.));
#104 = ADVANCED_FACE('',(#105),#124,.T.);
#105 = FACE_BOUND('',#106,.F.);
#106 = EDGE_LOOP('',(#107,#108,#116,#123));
#107 = ORIENTED_EDGE('',*,*,#91,.T.);
#108 = ORIENTED_EDGE('',*,*,#109,.T.);
#109 = EDGE_CURVE('',#92,#110,#112,.T.);
#110 = VERTEX_POINT('',#111);
#111 = CARTESIAN_POINT('',(14.310814326729,291.55196476783,
    0.102828038193));
#112 = LINE('',#113,#114);
#113 = CARTESIAN_POINT('',(14.310814326729,287.80196476783,
    0.102828038193));
#114 = VECTOR('',#115,1.);
#115 = DIRECTION('',(0.,1.,-1.110223024625E-16));
#116 = ORIENTED_EDGE('',*,*,#117,.F.);
#117 = EDGE_CURVE('',#110,#110,#118,.T.);
#118 = CIRCLE('',#119,46.);
#119 = AXIS2_PLACEMENT_3D('',#120,#121,#122);
#120 = CARTESIAN_POINT('',(-31.68918567327,291.55196476783,
    0.102828038193));
#121 = DIRECTION('',(0.,-1.,1.110223024625E-16));
#122 = DIRECTION('',(1.,0.,0.));
#123 = ORIENTED_EDGE('',*,*,#109,.F.);
#124 = CYLINDRICAL_SURFACE('',#125,46.);
#125 = AXIS2_PLACEMENT_3D('',#126,#127,#128);
#126 = CARTESIAN_POINT('',(-31.68918567327,287.80196476783,
    0.102828038193));
#127 = DIRECTION('',(-0.,1.,-1.110223024625E-16));
#128 = DIRECTION('',(1.,0.,0.));
#129 = ADVANCED_FACE('',(#130,#133),#144,.T.);
#130 = FACE_BOUND('',#131,.F.);
#131 = EDGE_LOOP('',(#132));
#132 = ORIENTED_EDGE('',*,*,#117,.T.);
#133 = FACE_BOUND('',#134,.F.);
#134 = EDGE_LOOP('',(#135));
#135 = ORIENTED_EDGE('',*,*,#136,.F.);
#136 = EDGE_CURVE('',#137,#137,#139,.T.);
#137 = VERTEX_POINT('',#138);
#138 = CARTESIAN_POINT('',(15.810814326729,291.55196476783,
    0.102828038193));
#139 = CIRCLE('',#140,47.5);
#140 = AXIS2_PLACEMENT_3D('',#141,#142,#143);
#141 = CARTESIAN_POINT('',(-31.68918567327,291.55196476783,
    0.102828038193));
#142 = DIRECTION('',(0.,-1.,1.110223024625E-16));
#143 = DIRECTION('',(1.,0.,0.));
#144 = PLANE('',#145);
#145 = AXIS2_PLACEMENT_3D('',#146,#147,#148);
#146 = CARTESIAN_POINT('',(-31.68918567327,291.55196476783,
    0.102828038193));
#147 = DIRECTION('',(0.,-1.,1.110223024625E-16));
#148 = DIRECTION('',(1.,0.,0.));
#149 = ADVANCED_FACE('',(#150),#187,.T.);
#150 = FACE_BOUND('',#151,.F.);
#151 = EDGE_LOOP('',(#152,#160,#161,#162,#171,#180));
#152 = ORIENTED_EDGE('',*,*,#153,.F.);
#153 = EDGE_CURVE('',#137,#154,#156,.T.);
#154 = VERTEX_POINT('',#155);
#155 = CARTESIAN_POINT('',(18.310814326729,293.05196476783,
    0.102828038193));
#156 = LINE('',#157,#158);
#157 = CARTESIAN_POINT('',(15.810814326729,291.55196476783,
    0.102828038193));
#158 = VECTOR('',#159,1.);
#159 = DIRECTION('',(0.857492925713,0.514495755428,-5.712050337476E-17)
  );
#160 = ORIENTED_EDGE('',*,*,#136,.T.);
#161 = ORIENTED_EDGE('',*,*,#153,.T.);
#162 = ORIENTED_EDGE('',*,*,#163,.F.);
#163 = EDGE_CURVE('',#164,#154,#166,.T.);
#164 = VERTEX_POINT('',#165);
#165 = CARTESIAN_POINT('',(0.130619480124,293.05196476783,
    38.670949589547));
#166 = CIRCLE('',#167,50.);
#167 = AXIS2_PLACEMENT_3D('',#168,#169,#170);
#168 = CARTESIAN_POINT('',(-31.68918567327,293.05196476783,
    0.102828038193));
#169 = DIRECTION('',(0.,-1.,1.110223024625E-16));
#170 = DIRECTION('',(1.,0.,0.));
#171 = ORIENTED_EDGE('',*,*,#172,.F.);
#172 = EDGE_CURVE('',#173,#164,#175,.T.);
#173 = VERTEX_POINT('',#174);
#174 = CARTESIAN_POINT('',(6.878935878084,293.05196476783,
    31.922633191587));
#175 = CIRCLE('',#176,50.);
#176 = AXIS2_PLACEMENT_3D('',#177,#178,#179);
#177 = CARTESIAN_POINT('',(-31.68918567327,293.05196476783,
    0.102828038193));
#178 = DIRECTION('',(0.,-1.,1.110223024625E-16));
#179 = DIRECTION('',(1.,0.,0.));
#180 = ORIENTED_EDGE('',*,*,#181,.F.);
#181 = EDGE_CURVE('',#154,#173,#182,.T.);
#182 = CIRCLE('',#183,50.);
#183 = AXIS2_PLACEMENT_3D('',#184,#185,#186);
#184 = CARTESIAN_POINT('',(-31.68918567327,293.05196476783,
    0.102828038193));
#185 = DIRECTION('',(0.,-1.,1.110223024625E-16));
#186 = DIRECTION('',(1.,0.,0.));
#187 = CONICAL_SURFACE('',#188,47.5,1.030376826524);
#188 = AXIS2_PLACEMENT_3D('',#189,#190,#191);
#189 = CARTESIAN_POINT('',(-31.68918567327,291.55196476783,
    0.102828038193));
#190 = DIRECTION('',(-0.,1.,-1.110223024625E-16));
#191 = DIRECTION('',(1.,0.,0.));
#192 = ADVANCED_FACE('',(#193),#219,.T.);
#193 = FACE_BOUND('',#194,.F.);
#194 = EDGE_LOOP('',(#195,#203,#204,#212));
#195 = ORIENTED_EDGE('',*,*,#196,.F.);
#196 = EDGE_CURVE('',#154,#197,#199,.T.);
#197 = VERTEX_POINT('',#198);
#198 = CARTESIAN_POINT('',(18.310814326729,307.65196476783,
    0.102828038193));
#199 = LINE('',#200,#201);
#200 = CARTESIAN_POINT('',(18.310814326729,293.05196476783,
    0.102828038193));
#201 = VECTOR('',#202,1.);
#202 = DIRECTION('',(0.,1.,-1.110223024625E-16));
#203 = ORIENTED_EDGE('',*,*,#181,.T.);
#204 = ORIENTED_EDGE('',*,*,#205,.T.);
#205 = EDGE_CURVE('',#173,#206,#208,.T.);
#206 = VERTEX_POINT('',#207);
#207 = CARTESIAN_POINT('',(6.878935878084,307.65196476783,
    31.922633191587));
#208 = LINE('',#209,#210);
#209 = CARTESIAN_POINT('',(6.878935878083,293.05196476783,
    31.922633191588));
#210 = VECTOR('',#211,1.);
#211 = DIRECTION('',(-0.,1.,-1.110223024625E-16));
#212 = ORIENTED_EDGE('',*,*,#213,.F.);
#213 = EDGE_CURVE('',#197,#206,#214,.T.);
#214 = CIRCLE('',#215,50.);
#215 = AXIS2_PLACEMENT_3D('',#216,#217,#218);
#216 = CARTESIAN_POINT('',(-31.68918567327,307.65196476783,
    0.102828038193));
#217 = DIRECTION('',(0.,-1.,1.110223024625E-16));
#218 = DIRECTION('',(1.,0.,0.));
#219 = CYLINDRICAL_SURFACE('',#220,50.);
#220 = AXIS2_PLACEMENT_3D('',#221,#222,#223);
#221 = CARTESIAN_POINT('',(-31.68918567327,293.05196476783,
    0.102828038193));
#222 = DIRECTION('',(-0.,1.,-1.110223024625E-16));
#223 = DIRECTION('',(1.,0.,0.));
#224 = ADVANCED_FACE('',(#225),#242,.F.);
#225 = FACE_BOUND('',#226,.F.);
#226 = EDGE_LOOP('',(#227,#235,#241));
#227 = ORIENTED_EDGE('',*,*,#228,.T.);
#228 = EDGE_CURVE('',#164,#229,#231,.T.);
#229 = VERTEX_POINT('',#230);
#230 = CARTESIAN_POINT('',(0.130619480124,293.05196476783,
    31.922633191588));
#231 = LINE('',#232,#233);
#232 = CARTESIAN_POINT('',(0.130619480124,293.05196476783,
    38.993701003453));
#233 = VECTOR('',#234,1.);
#234 = DIRECTION('',(0.,-1.110223024625E-16,-1.));
#235 = ORIENTED_EDGE('',*,*,#236,.T.);
#236 = EDGE_CURVE('',#229,#173,#237,.T.);
#237 = LINE('',#238,#239);
#238 = CARTESIAN_POINT('',(0.130619480124,293.05196476783,
    31.922633191588));
#239 = VECTOR('',#240,1.);
#240 = DIRECTION('',(1.,0.,0.));
#241 = ORIENTED_EDGE('',*,*,#172,.T.);
#242 = PLANE('',#243);
#243 = AXIS2_PLACEMENT_3D('',#244,#245,#246);
#244 = CARTESIAN_POINT('',(3.048128920356,293.05196476783,34.84014263182
    ));
#245 = DIRECTION('',(0.,-1.,1.110223024625E-16));
#246 = DIRECTION('',(1.,0.,0.));
#247 = ADVANCED_FACE('',(#248),#267,.T.);
#248 = FACE_BOUND('',#249,.F.);
#249 = EDGE_LOOP('',(#250,#251,#252,#261));
#250 = ORIENTED_EDGE('',*,*,#163,.T.);
#251 = ORIENTED_EDGE('',*,*,#196,.T.);
#252 = ORIENTED_EDGE('',*,*,#253,.F.);
#253 = EDGE_CURVE('',#254,#197,#256,.T.);
#254 = VERTEX_POINT('',#255);
#255 = CARTESIAN_POINT('',(0.130619480124,307.65196476783,
    38.670949589547));
#256 = CIRCLE('',#257,50.);
#257 = AXIS2_PLACEMENT_3D('',#258,#259,#260);
#258 = CARTESIAN_POINT('',(-31.68918567327,307.65196476783,
    0.102828038193));
#259 = DIRECTION('',(0.,-1.,1.110223024625E-16));
#260 = DIRECTION('',(1.,0.,0.));
#261 = ORIENTED_EDGE('',*,*,#262,.F.);
#262 = EDGE_CURVE('',#164,#254,#263,.T.);
#263 = LINE('',#264,#265);
#264 = CARTESIAN_POINT('',(0.130619480124,293.05196476783,
    38.670949589547));
#265 = VECTOR('',#266,1.);
#266 = DIRECTION('',(-0.,1.,-1.110223024625E-16));
#267 = CYLINDRICAL_SURFACE('',#268,50.);
#268 = AXIS2_PLACEMENT_3D('',#269,#270,#271);
#269 = CARTESIAN_POINT('',(-31.68918567327,293.05196476783,
    0.102828038193));
#270 = DIRECTION('',(-0.,1.,-1.110223024625E-16));
#271 = DIRECTION('',(1.,0.,0.));
#272 = ADVANCED_FACE('',(#273,#291),#309,.F.);
#273 = FACE_BOUND('',#274,.F.);
#274 = EDGE_LOOP('',(#275,#276,#277,#285));
#275 = ORIENTED_EDGE('',*,*,#253,.T.);
#276 = ORIENTED_EDGE('',*,*,#213,.T.);
#277 = ORIENTED_EDGE('',*,*,#278,.F.);
#278 = EDGE_CURVE('',#279,#206,#281,.T.);
#279 = VERTEX_POINT('',#280);
#280 = CARTESIAN_POINT('',(0.130619480124,307.65196476783,
    31.922633191588));
#281 = LINE('',#282,#283);
#282 = CARTESIAN_POINT('',(0.130619480124,307.65196476783,
    31.922633191588));
#283 = VECTOR('',#284,1.);
#284 = DIRECTION('',(1.,0.,0.));
#285 = ORIENTED_EDGE('',*,*,#286,.F.);
#286 = EDGE_CURVE('',#254,#279,#287,.T.);
#287 = LINE('',#288,#289);
#288 = CARTESIAN_POINT('',(0.130619480124,307.65196476783,
    38.993701003453));
#289 = VECTOR('',#290,1.);
#290 = DIRECTION('',(0.,-1.110223024625E-16,-1.));
#291 = FACE_BOUND('',#292,.F.);
#292 = EDGE_LOOP('',(#293,#302));
#293 = ORIENTED_EDGE('',*,*,#294,.F.);
#294 = EDGE_CURVE('',#279,#295,#297,.T.);
#295 = VERTEX_POINT('',#296);
#296 = CARTESIAN_POINT('',(13.310814326729,307.65196476783,
    0.102828038193));
#297 = CIRCLE('',#298,45.);
#298 = AXIS2_PLACEMENT_3D('',#299,#300,#301);
#299 = CARTESIAN_POINT('',(-31.68918567327,307.65196476783,
    0.102828038193));
#300 = DIRECTION('',(0.,-1.,1.110223024625E-16));
#301 = DIRECTION('',(1.,0.,0.));
#302 = ORIENTED_EDGE('',*,*,#303,.F.);
#303 = EDGE_CURVE('',#295,#279,#304,.T.);
#304 = CIRCLE('',#305,45.);
#305 = AXIS2_PLACEMENT_3D('',#306,#307,#308);
#306 = CARTESIAN_POINT('',(-31.68918567327,307.65196476783,
    0.102828038193));
#307 = DIRECTION('',(0.,-1.,1.110223024625E-16));
#308 = DIRECTION('',(1.,0.,0.));
#309 = PLANE('',#310);
#310 = AXIS2_PLACEMENT_3D('',#311,#312,#313);
#311 = CARTESIAN_POINT('',(-31.68918567327,307.65196476783,
    0.102828038193));
#312 = DIRECTION('',(0.,-1.,1.110223024625E-16));
#313 = DIRECTION('',(1.,0.,0.));
#314 = ADVANCED_FACE('',(#315),#326,.T.);
#315 = FACE_BOUND('',#316,.T.);
#316 = EDGE_LOOP('',(#317,#318,#324,#325));
#317 = ORIENTED_EDGE('',*,*,#278,.F.);
#318 = ORIENTED_EDGE('',*,*,#319,.T.);
#319 = EDGE_CURVE('',#279,#229,#320,.T.);
#320 = LINE('',#321,#322);
#321 = CARTESIAN_POINT('',(0.130619480124,307.65196476783,
    31.922633191588));
#322 = VECTOR('',#323,1.);
#323 = DIRECTION('',(0.,-1.,1.110223024625E-16));
#324 = ORIENTED_EDGE('',*,*,#236,.T.);
#325 = ORIENTED_EDGE('',*,*,#205,.T.);
#326 = PLANE('',#327);
#327 = AXIS2_PLACEMENT_3D('',#328,#329,#330);
#328 = CARTESIAN_POINT('',(0.130619480124,307.65196476783,
    31.922633191588));
#329 = DIRECTION('',(0.,1.110223024625E-16,1.));
#330 = DIRECTION('',(1.,0.,0.));
#331 = ADVANCED_FACE('',(#332),#338,.T.);
#332 = FACE_BOUND('',#333,.T.);
#333 = EDGE_LOOP('',(#334,#335,#336,#337));
#334 = ORIENTED_EDGE('',*,*,#286,.F.);
#335 = ORIENTED_EDGE('',*,*,#262,.F.);
#336 = ORIENTED_EDGE('',*,*,#228,.T.);
#337 = ORIENTED_EDGE('',*,*,#319,.F.);
#338 = PLANE('',#339);
#339 = AXIS2_PLACEMENT_3D('',#340,#341,#342);
#340 = CARTESIAN_POINT('',(0.130619480124,307.65196476783,
    38.993701003453));
#341 = DIRECTION('',(1.,0.,0.));
#342 = DIRECTION('',(0.,-1.110223024625E-16,-1.));
#343 = ADVANCED_FACE('',(#344),#364,.T.);
#344 = FACE_BOUND('',#345,.F.);
#345 = EDGE_LOOP('',(#346,#354,#355,#356,#357));
#346 = ORIENTED_EDGE('',*,*,#347,.F.);
#347 = EDGE_CURVE('',#295,#348,#350,.T.);
#348 = VERTEX_POINT('',#349);
#349 = CARTESIAN_POINT('',(12.310814326729,310.65196476783,
    0.102828038193));
#350 = LINE('',#351,#352);
#351 = CARTESIAN_POINT('',(13.310814326729,307.65196476783,
    0.102828038193));
#352 = VECTOR('',#353,1.);
#353 = DIRECTION('',(-0.316227766017,0.948683298051,-1.053250040573E-16)
  );
#354 = ORIENTED_EDGE('',*,*,#303,.T.);
#355 = ORIENTED_EDGE('',*,*,#294,.T.);
#356 = ORIENTED_EDGE('',*,*,#347,.T.);
#357 = ORIENTED_EDGE('',*,*,#358,.F.);
#358 = EDGE_CURVE('',#348,#348,#359,.T.);
#359 = CIRCLE('',#360,44.);
#360 = AXIS2_PLACEMENT_3D('',#361,#362,#363);
#361 = CARTESIAN_POINT('',(-31.68918567327,310.65196476783,
    0.102828038193));
#362 = DIRECTION('',(0.,-1.,1.110223024625E-16));
#363 = DIRECTION('',(1.,0.,0.));
#364 = CONICAL_SURFACE('',#365,45.,0.321750554397);
#365 = AXIS2_PLACEMENT_3D('',#366,#367,#368);
#366 = CARTESIAN_POINT('',(-31.68918567327,307.65196476783,
    0.102828038193));
#367 = DIRECTION('',(0.,-1.,1.110223024625E-16));
#368 = DIRECTION('',(1.,0.,0.));
#369 = ADVANCED_FACE('',(#370),#373,.F.);
#370 = FACE_BOUND('',#371,.F.);
#371 = EDGE_LOOP('',(#372));
#372 = ORIENTED_EDGE('',*,*,#358,.T.);
#373 = PLANE('',#374);
#374 = AXIS2_PLACEMENT_3D('',#375,#376,#377);
#375 = CARTESIAN_POINT('',(-31.68918567327,310.65196476783,
    0.102828038193));
#376 = DIRECTION('',(0.,-1.,1.110223024625E-16));
#377 = DIRECTION('',(1.,0.,0.));
#378 = ( GEOMETRIC_REPRESENTATION_CONTEXT(3) 
GLOBAL_UNCERTAINTY_ASSIGNED_CONTEXT((#382)) GLOBAL_UNIT_ASSIGNED_CONTEXT
((#379,#380,#381)) REPRESENTATION_CONTEXT('Context #1',
  '3D Context with UNIT and UNCERTAINTY') );
#379 = ( LENGTH_UNIT() NAMED_UNIT(*) SI_UNIT(.MILLI.,.METRE.) );
#380 = ( NAMED_UNIT(*) PLANE_ANGLE_UNIT() SI_UNIT($,.RADIAN.) );
#381 = ( NAMED_UNIT(*) SI_UNIT($,.STERADIAN.) SOLID_ANGLE_UNIT() );
#382 = UNCERTAINTY_MEASURE_WITH_UNIT(LENGTH_MEASURE(1.E-07),#379,
  'distance_accuracy_value','confusion accuracy');
#383 = PRODUCT_RELATED_PRODUCT_CATEGORY('part',$,(#7));
#384 = MECHANICAL_DESIGN_GEOMETRIC_PRESENTATION_REPRESENTATION('',(#385)
  ,#378);
#385 = STYLED_ITEM('color',(#386),#15);
#386 = PRESENTATION_STYLE_ASSIGNMENT((#387));
#387 = SURFACE_STYLE_USAGE(.BOTH.,#388);
#388 = SURFACE_SIDE_STYLE('',(#389));
#389 = SURFACE_STYLE_FILL_AREA(#390);
#390 = FILL_AREA_STYLE('',(#391));
#391 = FILL_AREA_STYLE_COLOUR('',#392);
#392 = COLOUR_RGB('',0.29411765933,0.29411765933,0.29411765933);
ENDSEC;
END-ISO-10303-21;
