ISO-10303-21;
HEADER;
FILE_DESCRIPTION(('Open CASCADE Model'),'2;1');
FILE_NAME('Open CASCADE Shape Model','2026-09-18T15:45:12',('Author'),(
    'Open CASCADE'),'Open CASCADE STEP processor 7.3','Open CASCADE 7.3'
  ,'Unknown');
FILE_SCHEMA(('AUTOMOTIVE_DESIGN { 1 0 10303 214 1 1 1 1 }'));
ENDSEC;
DATA;
#1 = APPLICATION_PROTOCOL_DEFINITION('international standard',
  'automotive_design',2000,#2);
#2 = APPLICATION_CONTEXT(
  'core data for automotive mechanical design processes');
#3 = SHAPE_DEFINITION_REPRESENTATION(#4,#10);
#4 = PRODUCT_DEFINITION_SHAPE('','',#5);
#5 = PRODUCT_DEFINITION('design','',#6,#9);
#6 = PRODUCT_DEFINITION_FORMATION('','',#7);
#7 = PRODUCT('Pottmanager 157','Pottmanager 157','',(#8));
#8 = PRODUCT_CONTEXT('',#2,'mechanical');
#9 = PRODUCT_DEFINITION_CONTEXT('part definition',#2,'design');
#10 = ADVANCED_BREP_SHAPE_REPRESENTATION('',(#11,#15),#210);
#11 = AXIS2_PLACEMENT_3D('',#12,#13,#14);
#12 = CARTESIAN_POINT('',(0.,0.,0.));
#13 = DIRECTION('',(0.,0.,1.));
#14 = DIRECTION('',(1.,0.,-0.));
#15 = MANIFOLD_SOLID_BREP('',#16);
#16 = CLOSED_SHELL('',(#17,#57,#99,#130,#147,#164,#176,#201));
#17 = ADVANCED_FACE('',(#18),#52,.T.);
#18 = FACE_BOUND('',#19,.T.);
#19 = EDGE_LOOP('',(#20,#30,#38,#46));
#20 = ORIENTED_EDGE('',*,*,#21,.T.);
#21 = EDGE_CURVE('',#22,#24,#26,.T.);
#22 = VERTEX_POINT('',#23);
#23 = CARTESIAN_POINT('',(-72.11795441374,11.142398326957,-44.));
#24 = VERTEX_POINT('',#25);
#25 = CARTESIAN_POINT('',(33.88204558626,11.142398326957,-44.));
#26 = LINE('',#27,#28);
#27 = CARTESIAN_POINT('',(-72.11795441374,11.142398326957,-44.));
#28 = VECTOR('',#29,1.);
#29 = DIRECTION('',(1.,0.,0.));
#30 = ORIENTED_EDGE('',*,*,#31,.T.);
#31 = EDGE_CURVE('',#24,#32,#34,.T.);
#32 = VERTEX_POINT('',#33);
#33 = CARTESIAN_POINT('',(33.88204558626,-74.85760167304,-44.));
#34 = LINE('',#35,#36);
#35 = CARTESIAN_POINT('',(33.88204558626,11.142398326957,-44.));
#36 = VECTOR('',#37,1.);
#37 = DIRECTION('',(0.,-1.,1.110223024625E-16));
#38 = ORIENTED_EDGE('',*,*,#39,.F.);
#39 = EDGE_CURVE('',#40,#32,#42,.T.);
#40 = VERTEX_POINT('',#41);
#41 = CARTESIAN_POINT('',(-72.11795441374,-74.85760167304,-44.));
#42 = LINE('',#43,#44);
#43 = CARTESIAN_POINT('',(-72.11795441374,-74.85760167304,-44.));
#44 = VECTOR('',#45,1.);
#45 = DIRECTION('',(1.,0.,0.));
#46 = ORIENTED_EDGE('',*,*,#47,.F.);
#47 = EDGE_CURVE('',#22,#40,#48,.T.);
#48 = LINE('',#49,#50);
#49 = CARTESIAN_POINT('',(-72.11795441374,11.142398326957,-44.));
#50 = VECTOR('',#51,1.);
#51 = DIRECTION('',(0.,-1.,1.110223024625E-16));
#52 = PLANE('',#53);
#53 = AXIS2_PLACEMENT_3D('',#54,#55,#56);
#54 = CARTESIAN_POINT('',(-72.11795441374,11.142398326957,-44.));
#55 = DIRECTION('',(0.,-1.110223024625E-16,-1.));
#56 = DIRECTION('',(0.,-1.,1.110223024625E-16));
#57 = ADVANCED_FACE('',(#58,#83),#94,.T.);
#58 = FACE_BOUND('',#59,.T.);
#59 = EDGE_LOOP('',(#60,#70,#76,#77));
#60 = ORIENTED_EDGE('',*,*,#61,.T.);
#61 = EDGE_CURVE('',#62,#64,#66,.T.);
#62 = VERTEX_POINT('',#63);
#63 = CARTESIAN_POINT('',(-72.11795441374,11.142398326957,44.));
#64 = VERTEX_POINT('',#65);
#65 = CARTESIAN_POINT('',(33.88204558626,11.142398326957,44.));
#66 = LINE('',#67,#68);
#67 = CARTESIAN_POINT('',(-72.11795441374,11.142398326957,44.));
#68 = VECTOR('',#69,1.);
#69 = DIRECTION('',(1.,0.,0.));
#70 = ORIENTED_EDGE('',*,*,#71,.T.);
#71 = EDGE_CURVE('',#64,#24,#72,.T.);
#72 = LINE('',#73,#74);
#73 = CARTESIAN_POINT('',(33.88204558626,11.142398326957,44.));
#74 = VECTOR('',#75,1.);
#75 = DIRECTION('',(0.,-1.110223024625E-16,-1.));
#76 = ORIENTED_EDGE('',*,*,#21,.F.);
#77 = ORIENTED_EDGE('',*,*,#78,.F.);
#78 = EDGE_CURVE('',#62,#22,#79,.T.);
#79 = LINE('',#80,#81);
#80 = CARTESIAN_POINT('',(-72.11795441374,11.142398326957,44.));
#81 = VECTOR('',#82,1.);
#82 = DIRECTION('',(0.,-1.110223024625E-16,-1.));
#83 = FACE_BOUND('',#84,.T.);
#84 = EDGE_LOOP('',(#85));
#85 = ORIENTED_EDGE('',*,*,#86,.T.);
#86 = EDGE_CURVE('',#87,#87,#89,.T.);
#87 = VERTEX_POINT('',#88);
#88 = CARTESIAN_POINT('',(-16.11795441374,11.142398326957,
    -1.237054717213E-15));
#89 = CIRCLE('',#90,3.);
#90 = AXIS2_PLACEMENT_3D('',#91,#92,#93);
#91 = CARTESIAN_POINT('',(-19.11795441374,11.142398326957,
    -1.237054717213E-15));
#92 = DIRECTION('',(0.,-1.,1.110223024625E-16));
#93 = DIRECTION('',(1.,0.,0.));
#94 = PLANE('',#95);
#95 = AXIS2_PLACEMENT_3D('',#96,#97,#98);
#96 = CARTESIAN_POINT('',(-72.11795441374,11.142398326957,44.));
#97 = DIRECTION('',(0.,1.,-1.110223024625E-16));
#98 = DIRECTION('',(0.,-1.110223024625E-16,-1.));
#99 = ADVANCED_FACE('',(#100),#125,.T.);
#100 = FACE_BOUND('',#101,.T.);
#101 = EDGE_LOOP('',(#102,#103,#111,#119));
#102 = ORIENTED_EDGE('',*,*,#39,.T.);
#103 = ORIENTED_EDGE('',*,*,#104,.T.);
#104 = EDGE_CURVE('',#32,#105,#107,.T.);
#105 = VERTEX_POINT('',#106);
#106 = CARTESIAN_POINT('',(33.88204558626,-74.85760167304,44.));
#107 = LINE('',#108,#109);
#108 = CARTESIAN_POINT('',(33.88204558626,-74.85760167304,-44.));
#109 = VECTOR('',#110,1.);
#110 = DIRECTION('',(0.,1.110223024625E-16,1.));
#111 = ORIENTED_EDGE('',*,*,#112,.F.);
#112 = EDGE_CURVE('',#113,#105,#115,.T.);
#113 = VERTEX_POINT('',#114);
#114 = CARTESIAN_POINT('',(-72.11795441374,-74.85760167304,44.));
#115 = LINE('',#116,#117);
#116 = CARTESIAN_POINT('',(-72.11795441374,-74.85760167304,44.));
#117 = VECTOR('',#118,1.);
#118 = DIRECTION('',(1.,0.,0.));
#119 = ORIENTED_EDGE('',*,*,#120,.F.);
#120 = EDGE_CURVE('',#40,#113,#121,.T.);
#121 = LINE('',#122,#123);
#122 = CARTESIAN_POINT('',(-72.11795441374,-74.85760167304,-44.));
#123 = VECTOR('',#124,1.);
#124 = DIRECTION('',(0.,1.110223024625E-16,1.));
#125 = PLANE('',#126);
#126 = AXIS2_PLACEMENT_3D('',#127,#128,#129);
#127 = CARTESIAN_POINT('',(-72.11795441374,-74.85760167304,-44.));
#128 = DIRECTION('',(0.,-1.,1.110223024625E-16));
#129 = DIRECTION('',(0.,1.110223024625E-16,1.));
#130 = ADVANCED_FACE('',(#131),#142,.T.);
#131 = FACE_BOUND('',#132,.T.);
#132 = EDGE_LOOP('',(#133,#134,#135,#141));
#133 = ORIENTED_EDGE('',*,*,#47,.T.);
#134 = ORIENTED_EDGE('',*,*,#120,.T.);
#135 = ORIENTED_EDGE('',*,*,#136,.T.);
#136 = EDGE_CURVE('',#113,#62,#137,.T.);
#137 = LINE('',#138,#139);
#138 = CARTESIAN_POINT('',(-72.11795441374,-74.85760167304,44.));
#139 = VECTOR('',#140,1.);
#140 = DIRECTION('',(0.,1.,-1.110223024625E-16));
#141 = ORIENTED_EDGE('',*,*,#78,.T.);
#142 = PLANE('',#143);
#143 = AXIS2_PLACEMENT_3D('',#144,#145,#146);
#144 = CARTESIAN_POINT('',(-72.11795441374,-31.85760167304,
    3.536904288675E-15));
#145 = DIRECTION('',(-1.,0.,-0.));
#146 = DIRECTION('',(0.,1.,-1.110223024625E-16));
#147 = ADVANCED_FACE('',(#148),#159,.F.);
#148 = FACE_BOUND('',#149,.F.);
#149 = EDGE_LOOP('',(#150,#151,#152,#158));
#150 = ORIENTED_EDGE('',*,*,#31,.T.);
#151 = ORIENTED_EDGE('',*,*,#104,.T.);
#152 = ORIENTED_EDGE('',*,*,#153,.T.);
#153 = EDGE_CURVE('',#105,#64,#154,.T.);
#154 = LINE('',#155,#156);
#155 = CARTESIAN_POINT('',(33.88204558626,-74.85760167304,44.));
#156 = VECTOR('',#157,1.);
#157 = DIRECTION('',(0.,1.,-1.110223024625E-16));
#158 = ORIENTED_EDGE('',*,*,#71,.T.);
#159 = PLANE('',#160);
#160 = AXIS2_PLACEMENT_3D('',#161,#162,#163);
#161 = CARTESIAN_POINT('',(33.88204558626,-31.85760167304,
    3.536904288675E-15));
#162 = DIRECTION('',(-1.,0.,-0.));
#163 = DIRECTION('',(0.,1.,-1.110223024625E-16));
#164 = ADVANCED_FACE('',(#165),#171,.T.);
#165 = FACE_BOUND('',#166,.T.);
#166 = EDGE_LOOP('',(#167,#168,#169,#170));
#167 = ORIENTED_EDGE('',*,*,#112,.T.);
#168 = ORIENTED_EDGE('',*,*,#153,.T.);
#169 = ORIENTED_EDGE('',*,*,#61,.F.);
#170 = ORIENTED_EDGE('',*,*,#136,.F.);
#171 = PLANE('',#172);
#172 = AXIS2_PLACEMENT_3D('',#173,#174,#175);
#173 = CARTESIAN_POINT('',(-72.11795441374,-74.85760167304,44.));
#174 = DIRECTION('',(0.,1.110223024625E-16,1.));
#175 = DIRECTION('',(0.,1.,-1.110223024625E-16));
#176 = ADVANCED_FACE('',(#177),#196,.T.);
#177 = FACE_BOUND('',#178,.T.);
#178 = EDGE_LOOP('',(#179,#187,#194,#195));
#179 = ORIENTED_EDGE('',*,*,#180,.T.);
#180 = EDGE_CURVE('',#87,#181,#183,.T.);
#181 = VERTEX_POINT('',#182);
#182 = CARTESIAN_POINT('',(-16.11795441374,26.142398326957,
    -2.902389254151E-15));
#183 = LINE('',#184,#185);
#184 = CARTESIAN_POINT('',(-16.11795441374,11.142398326957,
    -1.237054717213E-15));
#185 = VECTOR('',#186,1.);
#186 = DIRECTION('',(0.,1.,-1.110223024625E-16));
#187 = ORIENTED_EDGE('',*,*,#188,.T.);
#188 = EDGE_CURVE('',#181,#181,#189,.T.);
#189 = CIRCLE('',#190,3.);
#190 = AXIS2_PLACEMENT_3D('',#191,#192,#193);
#191 = CARTESIAN_POINT('',(-19.11795441374,26.142398326957,
    -2.902389254151E-15));
#192 = DIRECTION('',(0.,-1.,1.110223024625E-16));
#193 = DIRECTION('',(1.,0.,0.));
#194 = ORIENTED_EDGE('',*,*,#180,.F.);
#195 = ORIENTED_EDGE('',*,*,#86,.F.);
#196 = CYLINDRICAL_SURFACE('',#197,3.);
#197 = AXIS2_PLACEMENT_3D('',#198,#199,#200);
#198 = CARTESIAN_POINT('',(-19.11795441374,11.142398326957,
    -1.237054717213E-15));
#199 = DIRECTION('',(0.,-1.,1.110223024625E-16));
#200 = DIRECTION('',(1.,0.,0.));
#201 = ADVANCED_FACE('',(#202),#205,.F.);
#202 = FACE_BOUND('',#203,.F.);
#203 = EDGE_LOOP('',(#204));
#204 = ORIENTED_EDGE('',*,*,#188,.T.);
#205 = PLANE('',#206);
#206 = AXIS2_PLACEMENT_3D('',#207,#208,#209);
#207 = CARTESIAN_POINT('',(-19.11795441374,26.142398326957,
    -2.910900589687E-15));
#208 = DIRECTION('',(0.,-1.,1.110223024625E-16));
#209 = DIRECTION('',(1.,0.,0.));
#210 = ( GEOMETRIC_REPRESENTATION_CONTEXT(3) 
GLOBAL_UNCERTAINTY_ASSIGNED_CONTEXT((#214)) GLOBAL_UNIT_ASSIGNED_CONTEXT
((#211,#212,#213)) REPRESENTATION_CONTEXT('Context #1',
  '3D Context with UNIT and UNCERTAINTY') );
#211 = ( LENGTH_UNIT() NAMED_UNIT(*) SI_UNIT(.MILLI.,.METRE.) );
#212 = ( NAMED_UNIT(*) PLANE_ANGLE_UNIT() SI_UNIT($,.RADIAN.) );
#213 = ( NAMED_UNIT(*) SI_UNIT($,.STERADIAN.) SOLID_ANGLE_UNIT() );
#214 = UNCERTAINTY_MEASURE_WITH_UNIT(LENGTH_MEASURE(1.E-07),#211,
  'distance_accuracy_value','confusion accuracy');
#215 = PRODUCT_RELATED_PRODUCT_CATEGORY('part',$,(#7));
#216 = MECHANICAL_DESIGN_GEOMETRIC_PRESENTATION_REPRESENTATION('',(#217)
  ,#210);
#217 = STYLED_ITEM('color',(#218),#15);
#218 = PRESENTATION_STYLE_ASSIGNMENT((#219));
#219 = SURFACE_STYLE_USAGE(.BOTH.,#220);
#220 = SURFACE_SIDE_STYLE('',(#221));
#221 = SURFACE_STYLE_FILL_AREA(#222);
#222 = FILL_AREA_STYLE('',(#223));
#223 = FILL_AREA_STYLE_COLOUR('',#224);
#224 = COLOUR_RGB('',0.29411765933,0.29411765933,0.29411765933);
ENDSEC;
END-ISO-10303-21;
