ISO-10303-21;
HEADER;
FILE_DESCRIPTION(('Open CASCADE Model'),'2;1');
FILE_NAME('Open CASCADE Shape Model','2026-09-18T15:44:48',('Author'),(
    'Open CASCADE'),'Open CASCADE STEP processor 7.3','Open CASCADE 7.3'
  ,'Unknown');
FILE_SCHEMA(('AUTOMOTIVE_DESIGN { 1 0 10303 214 1 1 1 1 }'));
ENDSEC;
DATA;
#1 = APPLICATION_PROTOCOL_DEFINITION('international standard',
  'automotive_design',2000,#2);
#2 = APPLICATION_CONTEXT(
  'core data for automotive mechanical design processes');
#3 = SHAPE_DEFINITION_REPRESENTATION(#4,#10);
#4 = PRODUCT_DEFINITION_SHAPE('','',#5);
#5 = PRODUCT_DEFINITION('design','',#6,#9);
#6 = PRODUCT_DEFINITION_FORMATION('','',#7);
#7 = PRODUCT('Pottmanager 77','Pottmanager 77','',(#8));
#8 = PRODUCT_CONTEXT('',#2,'mechanical');
#9 = PRODUCT_DEFINITION_CONTEXT('part definition',#2,'design');
#10 = ADVANCED_BREP_SHAPE_REPRESENTATION('',(#11,#15),#249);
#11 = AXIS2_PLACEMENT_3D('',#12,#13,#14);
#12 = CARTESIAN_POINT('',(0.,0.,0.));
#13 = DIRECTION('',(0.,0.,1.));
#14 = DIRECTION('',(1.,0.,-0.));
#15 = MANIFOLD_SOLID_BREP('',#16);
#16 = CLOSED_SHELL('',(#17,#67,#97,#127,#157,#199,#221,#235));
#17 = ADVANCED_FACE('',(#18),#52,.F.);
#18 = FACE_BOUND('',#19,.F.);
#19 = EDGE_LOOP('',(#20,#31,#38,#47));
#20 = ORIENTED_EDGE('',*,*,#21,.T.);
#21 = EDGE_CURVE('',#22,#24,#26,.T.);
#22 = VERTEX_POINT('',#23);
#23 = CARTESIAN_POINT('',(-5.E-02,2.399119630351,-2.602325512489E-16));
#24 = VERTEX_POINT('',#25);
#25 = CARTESIAN_POINT('',(8.726203218643E-04,2.449112015109,
    -2.720129200744E-16));
#26 = CIRCLE('',#27,5.E-02);
#27 = AXIS2_PLACEMENT_3D('',#28,#29,#30);
#28 = CARTESIAN_POINT('',(0.,2.399119630351,-2.663557852446E-16));
#29 = DIRECTION('',(-1.224646799147E-16,-1.110223024625E-16,-1.));
#30 = DIRECTION('',(-1.,-1.110223024625E-16,1.224646799147E-16));
#31 = ORIENTED_EDGE('',*,*,#32,.T.);
#32 = EDGE_CURVE('',#24,#33,#35,.T.);
#33 = VERTEX_POINT('',#34);
#34 = CARTESIAN_POINT('',(0.17719960103,2.449112015109,1.));
#35 = B_SPLINE_CURVE_WITH_KNOTS('',1,(#36,#37),.UNSPECIFIED.,.F.,.F.,(2,
    2),(0.,1.),.PIECEWISE_BEZIER_KNOTS.);
#36 = CARTESIAN_POINT('',(8.726203218643E-04,2.449112015109,
    -2.720129200744E-16));
#37 = CARTESIAN_POINT('',(0.17719960103,2.449112015109,1.));
#38 = ORIENTED_EDGE('',*,*,#39,.F.);
#39 = EDGE_CURVE('',#40,#33,#42,.T.);
#40 = VERTEX_POINT('',#41);
#41 = CARTESIAN_POINT('',(0.126326980708,2.399119630351,1.));
#42 = CIRCLE('',#43,5.E-02);
#43 = AXIS2_PLACEMENT_3D('',#44,#45,#46);
#44 = CARTESIAN_POINT('',(0.176326980708,2.399119630351,1.));
#45 = DIRECTION('',(-1.224646799147E-16,-1.110223024625E-16,-1.));
#46 = DIRECTION('',(-1.,-1.110223024625E-16,1.224646799147E-16));
#47 = ORIENTED_EDGE('',*,*,#48,.F.);
#48 = EDGE_CURVE('',#22,#40,#49,.T.);
#49 = B_SPLINE_CURVE_WITH_KNOTS('',1,(#50,#51),.UNSPECIFIED.,.F.,.F.,(2,
    2),(0.,1.),.PIECEWISE_BEZIER_KNOTS.);
#50 = CARTESIAN_POINT('',(-5.E-02,2.399119630351,-2.602325512489E-16));
#51 = CARTESIAN_POINT('',(0.126326980708,2.399119630351,1.));
#52 = B_SPLINE_SURFACE_WITH_KNOTS('',6,1,(
    (#53,#54)
    ,(#55,#56)
    ,(#57,#58)
    ,(#59,#60)
    ,(#61,#62)
    ,(#63,#64)
    ,(#65,#66
    )),.UNSPECIFIED.,.F.,.F.,.F.,(7,7),(2,2),(0.,1.588249619315),(0.,1.)
  ,.PIECEWISE_BEZIER_KNOTS.);
#53 = CARTESIAN_POINT('',(-5.E-02,2.399119630351,-2.602325512489E-16));
#54 = CARTESIAN_POINT('',(0.126326980708,2.399119630351,1.));
#55 = CARTESIAN_POINT('',(-5.E-02,2.412355043846,-2.617019773291E-16));
#56 = CARTESIAN_POINT('',(0.126326980708,2.412355043846,1.));
#57 = CARTESIAN_POINT('',(-4.579680809106E-02,2.42558926278,
    -2.636860133382E-16));
#58 = CARTESIAN_POINT('',(0.130530172617,2.42558926278,1.));
#59 = CARTESIAN_POINT('',(-3.73835150328E-02,2.437161371624,
    -2.660011067478E-16));
#60 = CARTESIAN_POINT('',(0.138943465676,2.437161371624,1.));
#61 = CARTESIAN_POINT('',(-2.566633646705E-02,2.44537142215,
    -2.683475459831E-16));
#62 = CARTESIAN_POINT('',(0.150660644241,2.44537142215,1.));
#63 = CARTESIAN_POINT('',(-1.236077735484E-02,2.449343004925,
    -2.70417941285E-16));
#64 = CARTESIAN_POINT('',(0.163966203354,2.449343004925,1.));
#65 = CARTESIAN_POINT('',(8.726203218643E-04,2.449112015109,
    -2.720129200744E-16));
#66 = CARTESIAN_POINT('',(0.17719960103,2.449112015109,1.));
#67 = ADVANCED_FACE('',(#68),#92,.F.);
#68 = FACE_BOUND('',#69,.F.);
#69 = EDGE_LOOP('',(#70,#78,#85,#91));
#70 = ORIENTED_EDGE('',*,*,#71,.T.);
#71 = EDGE_CURVE('',#24,#72,#74,.T.);
#72 = VERTEX_POINT('',#73);
#73 = CARTESIAN_POINT('',(1.95,2.415089870144,-5.06934963871E-16));
#74 = LINE('',#75,#76);
#75 = CARTESIAN_POINT('',(8.726203218643E-04,2.449112015109,
    -2.720129200744E-16));
#76 = VECTOR('',#77,1.);
#77 = DIRECTION('',(0.999847695156,-1.745240643728E-02,
    -1.205084216046E-16));
#78 = ORIENTED_EDGE('',*,*,#79,.T.);
#79 = EDGE_CURVE('',#72,#80,#82,.T.);
#80 = VERTEX_POINT('',#81);
#81 = CARTESIAN_POINT('',(1.95,2.41816766904,1.));
#82 = B_SPLINE_CURVE_WITH_KNOTS('',1,(#83,#84),.UNSPECIFIED.,.F.,.F.,(2,
    2),(0.,1.),.PIECEWISE_BEZIER_KNOTS.);
#83 = CARTESIAN_POINT('',(1.95,2.415089870144,-5.06934963871E-16));
#84 = CARTESIAN_POINT('',(1.95,2.41816766904,1.));
#85 = ORIENTED_EDGE('',*,*,#86,.F.);
#86 = EDGE_CURVE('',#33,#80,#87,.T.);
#87 = LINE('',#88,#89);
#88 = CARTESIAN_POINT('',(0.17719960103,2.449112015109,1.));
#89 = VECTOR('',#90,1.);
#90 = DIRECTION('',(0.999847695156,-1.745240643728E-02,
    -1.205084216046E-16));
#91 = ORIENTED_EDGE('',*,*,#32,.F.);
#92 = B_SPLINE_SURFACE_WITH_KNOTS('',1,1,(
    (#93,#94)
    ,(#95,#96
    )),.UNSPECIFIED.,.F.,.F.,.F.,(2,2),(2,2),(0.,1.949424286439),(0.,1.)
  ,.PIECEWISE_BEZIER_KNOTS.);
#93 = CARTESIAN_POINT('',(8.726203218643E-04,2.449112015109,
    -2.720129200744E-16));
#94 = CARTESIAN_POINT('',(0.17719960103,2.449112015109,1.));
#95 = CARTESIAN_POINT('',(1.95,2.415089870144,-5.06934963871E-16));
#96 = CARTESIAN_POINT('',(1.95,2.41816766904,1.));
#97 = ADVANCED_FACE('',(#98),#122,.F.);
#98 = FACE_BOUND('',#99,.F.);
#99 = EDGE_LOOP('',(#100,#108,#115,#121));
#100 = ORIENTED_EDGE('',*,*,#101,.T.);
#101 = EDGE_CURVE('',#72,#102,#104,.T.);
#102 = VERTEX_POINT('',#103);
#103 = CARTESIAN_POINT('',(1.95,-1.508987014358E-02,-2.371308137065E-16)
  );
#104 = LINE('',#105,#106);
#105 = CARTESIAN_POINT('',(1.95,2.415089870144,-5.06934963871E-16));
#106 = VECTOR('',#107,1.);
#107 = DIRECTION('',(1.110223024625E-16,-1.,1.110223024625E-16));
#108 = ORIENTED_EDGE('',*,*,#109,.T.);
#109 = EDGE_CURVE('',#102,#110,#112,.T.);
#110 = VERTEX_POINT('',#111);
#111 = CARTESIAN_POINT('',(1.95,-1.816766904044E-02,1.));
#112 = B_SPLINE_CURVE_WITH_KNOTS('',1,(#113,#114),.UNSPECIFIED.,.F.,.F.,
  (2,2),(0.,1.),.PIECEWISE_BEZIER_KNOTS.);
#113 = CARTESIAN_POINT('',(1.95,-1.508987014358E-02,-2.371308137065E-16)
  );
#114 = CARTESIAN_POINT('',(1.95,-1.816766904044E-02,1.));
#115 = ORIENTED_EDGE('',*,*,#116,.F.);
#116 = EDGE_CURVE('',#80,#110,#117,.T.);
#117 = LINE('',#118,#119);
#118 = CARTESIAN_POINT('',(1.95,2.41816766904,1.));
#119 = VECTOR('',#120,1.);
#120 = DIRECTION('',(1.110223024625E-16,-1.,1.110223024625E-16));
#121 = ORIENTED_EDGE('',*,*,#79,.F.);
#122 = B_SPLINE_SURFACE_WITH_KNOTS('',1,1,(
    (#123,#124)
    ,(#125,#126
    )),.UNSPECIFIED.,.F.,.F.,.F.,(2,2),(2,2),(0.,2.436335338081),(0.,1.)
  ,.PIECEWISE_BEZIER_KNOTS.);
#123 = CARTESIAN_POINT('',(1.95,2.415089870144,-5.06934963871E-16));
#124 = CARTESIAN_POINT('',(1.95,2.41816766904,1.));
#125 = CARTESIAN_POINT('',(1.95,-1.508987014358E-02,-2.371308137065E-16)
  );
#126 = CARTESIAN_POINT('',(1.95,-1.816766904044E-02,1.));
#127 = ADVANCED_FACE('',(#128),#152,.F.);
#128 = FACE_BOUND('',#129,.F.);
#129 = EDGE_LOOP('',(#130,#138,#145,#151));
#130 = ORIENTED_EDGE('',*,*,#131,.T.);
#131 = EDGE_CURVE('',#102,#132,#134,.T.);
#132 = VERTEX_POINT('',#133);
#133 = CARTESIAN_POINT('',(8.726203218643E-04,-4.911201510922E-02,
    5.345663827595E-18));
#134 = LINE('',#135,#136);
#135 = CARTESIAN_POINT('',(1.95,-1.508987014358E-02,-2.371308137065E-16)
  );
#136 = VECTOR('',#137,1.);
#137 = DIRECTION('',(-0.999847695156,-1.745240643728E-02,
    1.24383634297E-16));
#138 = ORIENTED_EDGE('',*,*,#139,.T.);
#139 = EDGE_CURVE('',#132,#140,#142,.T.);
#140 = VERTEX_POINT('',#141);
#141 = CARTESIAN_POINT('',(0.17719960103,-4.911201510922E-02,1.));
#142 = B_SPLINE_CURVE_WITH_KNOTS('',1,(#143,#144),.UNSPECIFIED.,.F.,.F.,
  (2,2),(0.,1.),.PIECEWISE_BEZIER_KNOTS.);
#143 = CARTESIAN_POINT('',(8.726203218643E-04,-4.911201510922E-02,
    5.345663827595E-18));
#144 = CARTESIAN_POINT('',(0.17719960103,-4.911201510922E-02,1.));
#145 = ORIENTED_EDGE('',*,*,#146,.F.);
#146 = EDGE_CURVE('',#110,#140,#147,.T.);
#147 = LINE('',#148,#149);
#148 = CARTESIAN_POINT('',(1.95,-1.816766904044E-02,1.));
#149 = VECTOR('',#150,1.);
#150 = DIRECTION('',(-0.999847695156,-1.745240643728E-02,
    1.24383634297E-16));
#151 = ORIENTED_EDGE('',*,*,#109,.F.);
#152 = B_SPLINE_SURFACE_WITH_KNOTS('',1,1,(
    (#153,#154)
    ,(#155,#156
    )),.UNSPECIFIED.,.F.,.F.,.F.,(2,2),(2,2),(0.,1.949424286439),(0.,1.)
  ,.PIECEWISE_BEZIER_KNOTS.);
#153 = CARTESIAN_POINT('',(1.95,-1.508987014358E-02,-2.371308137065E-16)
  );
#154 = CARTESIAN_POINT('',(1.95,-1.816766904044E-02,1.));
#155 = CARTESIAN_POINT('',(8.726203218643E-04,-4.911201510922E-02,
    5.345663827595E-18));
#156 = CARTESIAN_POINT('',(0.17719960103,-4.911201510922E-02,1.));
#157 = ADVANCED_FACE('',(#158),#184,.F.);
#158 = FACE_BOUND('',#159,.F.);
#159 = EDGE_LOOP('',(#160,#169,#176,#183));
#160 = ORIENTED_EDGE('',*,*,#161,.T.);
#161 = EDGE_CURVE('',#132,#162,#164,.T.);
#162 = VERTEX_POINT('',#163);
#163 = CARTESIAN_POINT('',(-5.E-02,8.803696485948E-04,6.025493330331E-18
    ));
#164 = CIRCLE('',#165,5.E-02);
#165 = AXIS2_PLACEMENT_3D('',#166,#167,#168);
#166 = CARTESIAN_POINT('',(0.,8.803696485948E-04,-9.774066540551E-20));
#167 = DIRECTION('',(-1.224646799147E-16,-1.110223024625E-16,-1.));
#168 = DIRECTION('',(-1.,-1.110223024625E-16,1.224646799147E-16));
#169 = ORIENTED_EDGE('',*,*,#170,.T.);
#170 = EDGE_CURVE('',#162,#171,#173,.T.);
#171 = VERTEX_POINT('',#172);
#172 = CARTESIAN_POINT('',(0.126326980708,8.803696485948E-04,1.));
#173 = B_SPLINE_CURVE_WITH_KNOTS('',1,(#174,#175),.UNSPECIFIED.,.F.,.F.,
  (2,2),(0.,1.),.PIECEWISE_BEZIER_KNOTS.);
#174 = CARTESIAN_POINT('',(-5.E-02,8.803696485948E-04,6.025493330331E-18
    ));
#175 = CARTESIAN_POINT('',(0.126326980708,8.803696485948E-04,1.));
#176 = ORIENTED_EDGE('',*,*,#177,.F.);
#177 = EDGE_CURVE('',#140,#171,#178,.T.);
#178 = CIRCLE('',#179,5.E-02);
#179 = AXIS2_PLACEMENT_3D('',#180,#181,#182);
#180 = CARTESIAN_POINT('',(0.176326980708,8.803696485948E-04,1.));
#181 = DIRECTION('',(-1.224646799147E-16,-1.110223024625E-16,-1.));
#182 = DIRECTION('',(-1.,-1.110223024625E-16,1.224646799147E-16));
#183 = ORIENTED_EDGE('',*,*,#139,.F.);
#184 = B_SPLINE_SURFACE_WITH_KNOTS('',6,1,(
    (#185,#186)
    ,(#187,#188)
    ,(#189,#190)
    ,(#191,#192)
    ,(#193,#194)
    ,(#195,#196)
    ,(#197,#198
    )),.UNSPECIFIED.,.F.,.F.,.F.,(7,7),(2,2),(4.694935687865,
    6.28318530718),(0.,1.),.PIECEWISE_BEZIER_KNOTS.);
#185 = CARTESIAN_POINT('',(8.726203218643E-04,-4.911201510922E-02,
    5.345663827595E-18));
#186 = CARTESIAN_POINT('',(0.17719960103,-4.911201510922E-02,1.));
#187 = CARTESIAN_POINT('',(-1.236077735484E-02,-4.93430049249E-02,
    6.991932659439E-18));
#188 = CARTESIAN_POINT('',(0.163966203354,-4.93430049249E-02,1.));
#189 = CARTESIAN_POINT('',(-2.566633646705E-02,-4.537142215016E-02,
    8.18045943313E-18));
#190 = CARTESIAN_POINT('',(0.150660644241,-4.537142215016E-02,1.));
#191 = CARTESIAN_POINT('',(-3.73835150328E-02,-3.716137162408E-02,
    8.703901242949E-18));
#192 = CARTESIAN_POINT('',(0.138943465676,-3.716137162408E-02,1.));
#193 = CARTESIAN_POINT('',(-4.579680809106E-02,-2.558926278001E-02,
    8.449470316143E-18));
#194 = CARTESIAN_POINT('',(0.130530172617,-2.558926278001E-02,1.));
#195 = CARTESIAN_POINT('',(-5.E-02,-1.23550438457E-02,7.494919410511E-18
    ));
#196 = CARTESIAN_POINT('',(0.126326980708,-1.23550438457E-02,1.));
#197 = CARTESIAN_POINT('',(-5.E-02,8.803696485948E-04,6.025493330331E-18
    ));
#198 = CARTESIAN_POINT('',(0.126326980708,8.803696485948E-04,1.));
#199 = ADVANCED_FACE('',(#200),#216,.F.);
#200 = FACE_BOUND('',#201,.F.);
#201 = EDGE_LOOP('',(#202,#208,#209,#215));
#202 = ORIENTED_EDGE('',*,*,#203,.T.);
#203 = EDGE_CURVE('',#162,#22,#204,.T.);
#204 = LINE('',#205,#206);
#205 = CARTESIAN_POINT('',(-5.E-02,8.803696485948E-04,6.025493330331E-18
    ));
#206 = VECTOR('',#207,1.);
#207 = DIRECTION('',(-1.110223024625E-16,1.,-1.110223024625E-16));
#208 = ORIENTED_EDGE('',*,*,#48,.T.);
#209 = ORIENTED_EDGE('',*,*,#210,.F.);
#210 = EDGE_CURVE('',#171,#40,#211,.T.);
#211 = LINE('',#212,#213);
#212 = CARTESIAN_POINT('',(0.126326980708,8.803696485948E-04,1.));
#213 = VECTOR('',#214,1.);
#214 = DIRECTION('',(-1.110223024625E-16,1.,-1.110223024625E-16));
#215 = ORIENTED_EDGE('',*,*,#170,.F.);
#216 = PLANE('',#217);
#217 = AXIS2_PLACEMENT_3D('',#218,#219,#220);
#218 = CARTESIAN_POINT('',(0.126326980708,8.803696485948E-04,1.));
#219 = DIRECTION('',(0.984807753012,9.005680371935E-17,-0.173648177667)
  );
#220 = DIRECTION('',(-1.110223024625E-16,1.,-1.110223024625E-16));
#221 = ADVANCED_FACE('',(#222),#230,.T.);
#222 = FACE_BOUND('',#223,.T.);
#223 = EDGE_LOOP('',(#224,#225,#226,#227,#228,#229));
#224 = ORIENTED_EDGE('',*,*,#21,.T.);
#225 = ORIENTED_EDGE('',*,*,#71,.T.);
#226 = ORIENTED_EDGE('',*,*,#101,.T.);
#227 = ORIENTED_EDGE('',*,*,#131,.T.);
#228 = ORIENTED_EDGE('',*,*,#161,.T.);
#229 = ORIENTED_EDGE('',*,*,#203,.T.);
#230 = PLANE('',#231);
#231 = AXIS2_PLACEMENT_3D('',#232,#233,#234);
#232 = CARTESIAN_POINT('',(0.,2.399119630351,-2.663557852446E-16));
#233 = DIRECTION('',(-1.224646799147E-16,-1.110223024625E-16,-1.));
#234 = DIRECTION('',(-1.,-1.110223024625E-16,1.224646799147E-16));
#235 = ADVANCED_FACE('',(#236),#244,.F.);
#236 = FACE_BOUND('',#237,.F.);
#237 = EDGE_LOOP('',(#238,#239,#240,#241,#242,#243));
#238 = ORIENTED_EDGE('',*,*,#39,.T.);
#239 = ORIENTED_EDGE('',*,*,#86,.T.);
#240 = ORIENTED_EDGE('',*,*,#116,.T.);
#241 = ORIENTED_EDGE('',*,*,#146,.T.);
#242 = ORIENTED_EDGE('',*,*,#177,.T.);
#243 = ORIENTED_EDGE('',*,*,#210,.T.);
#244 = PLANE('',#245);
#245 = AXIS2_PLACEMENT_3D('',#246,#247,#248);
#246 = CARTESIAN_POINT('',(0.176326980708,2.399119630351,1.));
#247 = DIRECTION('',(-1.224646799147E-16,-1.110223024625E-16,-1.));
#248 = DIRECTION('',(-1.,-1.110223024625E-16,1.224646799147E-16));
#249 = ( GEOMETRIC_REPRESENTATION_CONTEXT(3) 
GLOBAL_UNCERTAINTY_ASSIGNED_CONTEXT((#253)) GLOBAL_UNIT_ASSIGNED_CONTEXT
((#250,#251,#252)) REPRESENTATION_CONTEXT('Context #1',
  '3D Context with UNIT and UNCERTAINTY') );
#250 = ( LENGTH_UNIT() NAMED_UNIT(*) SI_UNIT(.MILLI.,.METRE.) );
#251 = ( NAMED_UNIT(*) PLANE_ANGLE_UNIT() SI_UNIT($,.RADIAN.) );
#252 = ( NAMED_UNIT(*) SI_UNIT($,.STERADIAN.) SOLID_ANGLE_UNIT() );
#253 = UNCERTAINTY_MEASURE_WITH_UNIT(LENGTH_MEASURE(1.E-07),#250,
  'distance_accuracy_value','confusion accuracy');
#254 = PRODUCT_RELATED_PRODUCT_CATEGORY('part',$,(#7));
#255 = MECHANICAL_DESIGN_GEOMETRIC_PRESENTATION_REPRESENTATION('',(#256)
  ,#249);
#256 = STYLED_ITEM('color',(#257),#15);
#257 = PRESENTATION_STYLE_ASSIGNMENT((#258));
#258 = SURFACE_STYLE_USAGE(.BOTH.,#259);
#259 = SURFACE_SIDE_STYLE('',(#260));
#260 = SURFACE_STYLE_FILL_AREA(#261);
#261 = FILL_AREA_STYLE('',(#262));
#262 = FILL_AREA_STYLE_COLOUR('',#263);
#263 = DRAUGHTING_PRE_DEFINED_COLOUR('green');
ENDSEC;
END-ISO-10303-21;
