ISO-10303-21;
HEADER;
FILE_DESCRIPTION(('Open CASCADE Model'),'2;1');
FILE_NAME('Open CASCADE Shape Model','2026-09-18T15:44:48',('Author'),(
    'Open CASCADE'),'Open CASCADE STEP processor 7.3','Open CASCADE 7.3'
  ,'Unknown');
FILE_SCHEMA(('AUTOMOTIVE_DESIGN { 1 0 10303 214 1 1 1 1 }'));
ENDSEC;
DATA;
#1 = APPLICATION_PROTOCOL_DEFINITION('international standard',
  'automotive_design',2000,#2);
#2 = APPLICATION_CONTEXT(
  'core data for automotive mechanical design processes');
#3 = SHAPE_DEFINITION_REPRESENTATION(#4,#10);
#4 = PRODUCT_DEFINITION_SHAPE('','',#5);
#5 = PRODUCT_DEFINITION('design','',#6,#9);
#6 = PRODUCT_DEFINITION_FORMATION('','',#7);
#7 = PRODUCT('Pottmanager 79','Pottmanager 79','',(#8));
#8 = PRODUCT_CONTEXT('',#2,'mechanical');
#9 = PRODUCT_DEFINITION_CONTEXT('part definition',#2,'design');
#10 = ADVANCED_BREP_SHAPE_REPRESENTATION('',(#11,#15),#537);
#11 = AXIS2_PLACEMENT_3D('',#12,#13,#14);
#12 = CARTESIAN_POINT('',(0.,0.,0.));
#13 = DIRECTION('',(0.,0.,1.));
#14 = DIRECTION('',(1.,0.,-0.));
#15 = MANIFOLD_SOLID_BREP('',#16);
#16 = CLOSED_SHELL('',(#17,#87,#140,#185,#211,#338,#368,#394,#405,#428,
    #452,#468,#485,#497,#509,#527));
#17 = ADVANCED_FACE('',(#18),#82,.T.);
#18 = FACE_BOUND('',#19,.F.);
#19 = EDGE_LOOP('',(#20,#31,#38,#45,#52,#61,#68,#75));
#20 = ORIENTED_EDGE('',*,*,#21,.T.);
#21 = EDGE_CURVE('',#22,#24,#26,.T.);
#22 = VERTEX_POINT('',#23);
#23 = CARTESIAN_POINT('',(8.05,0.2,4.172828776741));
#24 = VERTEX_POINT('',#25);
#25 = CARTESIAN_POINT('',(-1.9,0.2,2.104784313455E-16));
#26 = CIRCLE('',#27,5.85);
#27 = AXIS2_PLACEMENT_3D('',#28,#29,#30);
#28 = CARTESIAN_POINT('',(3.95,0.2,-5.059399461557E-16));
#29 = DIRECTION('',(0.,-1.,1.110223024625E-16));
#30 = DIRECTION('',(-1.,1.359631073447E-32,1.224646799147E-16));
#31 = ORIENTED_EDGE('',*,*,#32,.T.);
#32 = EDGE_CURVE('',#24,#33,#35,.T.);
#33 = VERTEX_POINT('',#34);
#34 = CARTESIAN_POINT('',(-1.9,3.700000000001,-1.780996272734E-16));
#35 = B_SPLINE_CURVE_WITH_KNOTS('',1,(#36,#37),.UNSPECIFIED.,.F.,.F.,(2,
    2),(0.,1.),.PIECEWISE_BEZIER_KNOTS.);
#36 = CARTESIAN_POINT('',(-1.9,0.2,2.104784313455E-16));
#37 = CARTESIAN_POINT('',(-1.9,14.95,-1.427100529977E-15));
#38 = ORIENTED_EDGE('',*,*,#39,.T.);
#39 = EDGE_CURVE('',#33,#40,#42,.T.);
#40 = VERTEX_POINT('',#41);
#41 = CARTESIAN_POINT('',(-1.9,4.199999999239,-2.336107784201E-16));
#42 = B_SPLINE_CURVE_WITH_KNOTS('',1,(#43,#44),.UNSPECIFIED.,.F.,.F.,(2,
    2),(0.,1.),.PIECEWISE_BEZIER_KNOTS.);
#43 = CARTESIAN_POINT('',(-1.9,0.2,2.104784313455E-16));
#44 = CARTESIAN_POINT('',(-1.9,14.95,-1.427100529977E-15));
#45 = ORIENTED_EDGE('',*,*,#46,.T.);
#46 = EDGE_CURVE('',#40,#47,#49,.T.);
#47 = VERTEX_POINT('',#48);
#48 = CARTESIAN_POINT('',(-1.9,14.95,-1.427100529977E-15));
#49 = B_SPLINE_CURVE_WITH_KNOTS('',1,(#50,#51),.UNSPECIFIED.,.F.,.F.,(2,
    2),(0.,1.),.PIECEWISE_BEZIER_KNOTS.);
#50 = CARTESIAN_POINT('',(-1.9,0.2,2.104784313455E-16));
#51 = CARTESIAN_POINT('',(-1.9,14.95,-1.427100529977E-15));
#52 = ORIENTED_EDGE('',*,*,#53,.F.);
#53 = EDGE_CURVE('',#54,#47,#56,.T.);
#54 = VERTEX_POINT('',#55);
#55 = CARTESIAN_POINT('',(9.8,14.95,-3.57635566248E-15));
#56 = CIRCLE('',#57,5.85);
#57 = AXIS2_PLACEMENT_3D('',#58,#59,#60);
#58 = CARTESIAN_POINT('',(3.95,14.95,-2.143518907478E-15));
#59 = DIRECTION('',(0.,-1.,1.110223024625E-16));
#60 = DIRECTION('',(-1.,1.359631073447E-32,1.224646799147E-16));
#61 = ORIENTED_EDGE('',*,*,#62,.F.);
#62 = EDGE_CURVE('',#63,#54,#65,.T.);
#63 = VERTEX_POINT('',#64);
#64 = CARTESIAN_POINT('',(9.8,4.2,-2.382865911008E-15));
#65 = B_SPLINE_CURVE_WITH_KNOTS('',1,(#66,#67),.UNSPECIFIED.,.F.,.F.,(2,
    2),(0.,1.),.PIECEWISE_BEZIER_KNOTS.);
#66 = CARTESIAN_POINT('',(9.8,0.2,-1.938776701158E-15));
#67 = CARTESIAN_POINT('',(9.8,14.95,-3.57635566248E-15));
#68 = ORIENTED_EDGE('',*,*,#69,.F.);
#69 = EDGE_CURVE('',#70,#63,#72,.T.);
#70 = VERTEX_POINT('',#71);
#71 = CARTESIAN_POINT('',(9.8,3.700000000001,-1.969145571026E-15));
#72 = B_SPLINE_CURVE_WITH_KNOTS('',1,(#73,#74),.UNSPECIFIED.,.F.,.F.,(2,
    2),(0.,1.),.PIECEWISE_BEZIER_KNOTS.);
#73 = CARTESIAN_POINT('',(9.8,0.2,-1.938776701158E-15));
#74 = CARTESIAN_POINT('',(9.8,14.95,-3.57635566248E-15));
#75 = ORIENTED_EDGE('',*,*,#76,.F.);
#76 = EDGE_CURVE('',#22,#70,#77,.T.);
#77 = ELLIPSE('',#78,13.080997668374,5.85);
#78 = AXIS2_PLACEMENT_3D('',#79,#80,#81);
#79 = CARTESIAN_POINT('',(3.95,-8.,4.044429340369E-16));
#80 = DIRECTION('',(-0.894427191,0.4472135955,5.98850565879E-17));
#81 = DIRECTION('',(0.4472135955,0.894427191,-1.540692359563E-16));
#82 = CYLINDRICAL_SURFACE('',#83,5.85);
#83 = AXIS2_PLACEMENT_3D('',#84,#85,#86);
#84 = CARTESIAN_POINT('',(3.95,0.2,-5.059399461557E-16));
#85 = DIRECTION('',(-0.,1.,-1.110223024625E-16));
#86 = DIRECTION('',(-1.,1.359631073447E-32,1.224646799147E-16));
#87 = ADVANCED_FACE('',(#88),#135,.T.);
#88 = FACE_BOUND('',#89,.T.);
#89 = EDGE_LOOP('',(#90,#98,#99,#107,#114,#122,#129));
#90 = ORIENTED_EDGE('',*,*,#91,.F.);
#91 = EDGE_CURVE('',#22,#92,#94,.T.);
#92 = VERTEX_POINT('',#93);
#93 = CARTESIAN_POINT('',(8.05,0.2,-1.008045133806E-15));
#94 = LINE('',#95,#96);
#95 = CARTESIAN_POINT('',(8.05,0.2,-1.008045133806E-15));
#96 = VECTOR('',#97,1.);
#97 = DIRECTION('',(-1.224646799147E-16,-1.110223024625E-16,-1.));
#98 = ORIENTED_EDGE('',*,*,#21,.T.);
#99 = ORIENTED_EDGE('',*,*,#100,.T.);
#100 = EDGE_CURVE('',#24,#101,#103,.T.);
#101 = VERTEX_POINT('',#102);
#102 = CARTESIAN_POINT('',(1.95,0.2,-2.610105863262E-16));
#103 = LINE('',#104,#105);
#104 = CARTESIAN_POINT('',(9.8,0.2,-1.222358323657E-15));
#105 = VECTOR('',#106,1.);
#106 = DIRECTION('',(1.,-1.359631073447E-32,-1.224646799147E-16));
#107 = ORIENTED_EDGE('',*,*,#108,.T.);
#108 = EDGE_CURVE('',#101,#109,#111,.T.);
#109 = VERTEX_POINT('',#110);
#110 = CARTESIAN_POINT('',(1.95,0.2,1.));
#111 = B_SPLINE_CURVE_WITH_KNOTS('',1,(#112,#113),.UNSPECIFIED.,.F.,.F.,
  (2,2),(0.,1.),.PIECEWISE_BEZIER_KNOTS.);
#112 = CARTESIAN_POINT('',(1.95,0.2,-2.610105863262E-16));
#113 = CARTESIAN_POINT('',(1.95,0.2,1.));
#114 = ORIENTED_EDGE('',*,*,#115,.F.);
#115 = EDGE_CURVE('',#116,#109,#118,.T.);
#116 = VERTEX_POINT('',#117);
#117 = CARTESIAN_POINT('',(2.45,0.2,1.));
#118 = LINE('',#119,#120);
#119 = CARTESIAN_POINT('',(2.45,0.2,1.));
#120 = VECTOR('',#121,1.);
#121 = DIRECTION('',(-1.,-1.110223024625E-16,1.224646799147E-16));
#122 = ORIENTED_EDGE('',*,*,#123,.F.);
#123 = EDGE_CURVE('',#124,#116,#126,.T.);
#124 = VERTEX_POINT('',#125);
#125 = CARTESIAN_POINT('',(2.45,0.2,-3.222429262836E-16));
#126 = B_SPLINE_CURVE_WITH_KNOTS('',1,(#127,#128),.UNSPECIFIED.,.F.,.F.,
  (2,2),(0.,1.),.PIECEWISE_BEZIER_KNOTS.);
#127 = CARTESIAN_POINT('',(2.45,0.2,-3.222429262836E-16));
#128 = CARTESIAN_POINT('',(2.45,0.2,1.));
#129 = ORIENTED_EDGE('',*,*,#130,.T.);
#130 = EDGE_CURVE('',#124,#92,#131,.T.);
#131 = LINE('',#132,#133);
#132 = CARTESIAN_POINT('',(9.8,0.2,-1.222358323657E-15));
#133 = VECTOR('',#134,1.);
#134 = DIRECTION('',(1.,-1.359631073447E-32,-1.224646799147E-16));
#135 = PLANE('',#136);
#136 = AXIS2_PLACEMENT_3D('',#137,#138,#139);
#137 = CARTESIAN_POINT('',(3.95,0.2,-5.059399461557E-16));
#138 = DIRECTION('',(0.,-1.,1.110223024625E-16));
#139 = DIRECTION('',(-1.,1.359631073447E-32,1.224646799147E-16));
#140 = ADVANCED_FACE('',(#141),#180,.T.);
#141 = FACE_BOUND('',#142,.T.);
#142 = EDGE_LOOP('',(#143,#149,#155,#156,#164,#172,#178,#179));
#143 = ORIENTED_EDGE('',*,*,#144,.F.);
#144 = EDGE_CURVE('',#70,#33,#145,.T.);
#145 = LINE('',#146,#147);
#146 = CARTESIAN_POINT('',(15.65,3.7,-2.327354759777E-15));
#147 = VECTOR('',#148,1.);
#148 = DIRECTION('',(-1.,1.359631073447E-32,1.224646799147E-16));
#149 = ORIENTED_EDGE('',*,*,#150,.F.);
#150 = EDGE_CURVE('',#92,#70,#151,.T.);
#151 = LINE('',#152,#153);
#152 = CARTESIAN_POINT('',(9.385,2.87,-1.467965029067E-15));
#153 = VECTOR('',#154,1.);
#154 = DIRECTION('',(0.4472135955,0.894427191,-1.540692359563E-16));
#155 = ORIENTED_EDGE('',*,*,#130,.F.);
#156 = ORIENTED_EDGE('',*,*,#157,.F.);
#157 = EDGE_CURVE('',#158,#124,#160,.T.);
#158 = VERTEX_POINT('',#159);
#159 = CARTESIAN_POINT('',(2.45,2.2,-5.442875312086E-16));
#160 = LINE('',#161,#162);
#161 = CARTESIAN_POINT('',(2.45,2.2,-5.442875312086E-16));
#162 = VECTOR('',#163,1.);
#163 = DIRECTION('',(1.110223024625E-16,-1.,1.110223024625E-16));
#164 = ORIENTED_EDGE('',*,*,#165,.F.);
#165 = EDGE_CURVE('',#166,#158,#168,.T.);
#166 = VERTEX_POINT('',#167);
#167 = CARTESIAN_POINT('',(1.95,2.2,-4.830551912513E-16));
#168 = LINE('',#169,#170);
#169 = CARTESIAN_POINT('',(1.95,2.2,-4.830551912513E-16));
#170 = VECTOR('',#171,1.);
#171 = DIRECTION('',(1.,1.110223024625E-16,-1.224646799147E-16));
#172 = ORIENTED_EDGE('',*,*,#173,.F.);
#173 = EDGE_CURVE('',#101,#166,#174,.T.);
#174 = LINE('',#175,#176);
#175 = CARTESIAN_POINT('',(1.95,0.2,-2.610105863262E-16));
#176 = VECTOR('',#177,1.);
#177 = DIRECTION('',(-1.110223024625E-16,1.,-1.110223024625E-16));
#178 = ORIENTED_EDGE('',*,*,#100,.F.);
#179 = ORIENTED_EDGE('',*,*,#32,.T.);
#180 = PLANE('',#181);
#181 = AXIS2_PLACEMENT_3D('',#182,#183,#184);
#182 = CARTESIAN_POINT('',(15.65,3.7,-2.327354759777E-15));
#183 = DIRECTION('',(-1.224646799147E-16,-1.110223024625E-16,-1.));
#184 = DIRECTION('',(0.,-1.,1.110223024625E-16));
#185 = ADVANCED_FACE('',(#186),#206,.T.);
#186 = FACE_BOUND('',#187,.F.);
#187 = EDGE_LOOP('',(#188,#189,#198));
#188 = ORIENTED_EDGE('',*,*,#39,.F.);
#189 = ORIENTED_EDGE('',*,*,#190,.F.);
#190 = EDGE_CURVE('',#191,#33,#193,.T.);
#191 = VERTEX_POINT('',#192);
#192 = CARTESIAN_POINT('',(-1.89998895163,3.7,-1.136951208205E-02));
#193 = CIRCLE('',#194,5.85);
#194 = AXIS2_PLACEMENT_3D('',#195,#196,#197);
#195 = CARTESIAN_POINT('',(3.95,3.7,-8.945180047745E-16));
#196 = DIRECTION('',(0.,1.,-1.110223024625E-16));
#197 = DIRECTION('',(-1.,1.359631073447E-32,1.224646799147E-16));
#198 = ORIENTED_EDGE('',*,*,#199,.F.);
#199 = EDGE_CURVE('',#40,#191,#200,.T.);
#200 = B_SPLINE_CURVE_WITH_KNOTS('',4,(#201,#202,#203,#204,#205),
  .UNSPECIFIED.,.F.,.F.,(5,5),(0.,1.),.PIECEWISE_BEZIER_KNOTS.);
#201 = CARTESIAN_POINT('',(-1.9,4.2,-2.336107785046E-16));
#202 = CARTESIAN_POINT('',(-1.9,4.074977583262,-2.273859170629E-16));
#203 = CARTESIAN_POINT('',(-1.899999999175,3.949955182538,
    -1.894618656749E-03));
#204 = CARTESIAN_POINT('',(-1.900000001787,3.824955003001,
    -5.683855739554E-03));
#205 = CARTESIAN_POINT('',(-1.899988951577,3.6999994,-1.136953938301E-02
    ));
#206 = CYLINDRICAL_SURFACE('',#207,5.85);
#207 = AXIS2_PLACEMENT_3D('',#208,#209,#210);
#208 = CARTESIAN_POINT('',(3.95,0.2,-5.059399461557E-16));
#209 = DIRECTION('',(-0.,1.,-1.110223024625E-16));
#210 = DIRECTION('',(-1.,1.359631073447E-32,1.224646799147E-16));
#211 = ADVANCED_FACE('',(#212),#333,.T.);
#212 = FACE_BOUND('',#213,.F.);
#213 = EDGE_LOOP('',(#214,#215,#325,#326));
#214 = ORIENTED_EDGE('',*,*,#46,.F.);
#215 = ORIENTED_EDGE('',*,*,#216,.T.);
#216 = EDGE_CURVE('',#40,#63,#217,.T.);
#217 = B_SPLINE_CURVE_WITH_KNOTS('',8,(#218,#219,#220,#221,#222,#223,
    #224,#225,#226,#227,#228,#229,#230,#231,#232,#233,#234,#235,#236,
    #237,#238,#239,#240,#241,#242,#243,#244,#245,#246,#247,#248,#249,
    #250,#251,#252,#253,#254,#255,#256,#257,#258,#259,#260,#261,#262,
    #263,#264,#265,#266,#267,#268,#269,#270,#271,#272,#273,#274,#275,
    #276,#277,#278,#279,#280,#281,#282,#283,#284,#285,#286,#287,#288,
    #289,#290,#291,#292,#293,#294,#295,#296,#297,#298,#299,#300,#301,
    #302,#303,#304,#305,#306,#307,#308,#309,#310,#311,#312,#313,#314,
    #315,#316,#317,#318,#319,#320,#321,#322,#323,#324),.UNSPECIFIED.,.F.
  ,.F.,(9,7,7,7,7,7,7,7,7,7,7,7,7,7,7,9),(0.,1.493560836964E-02,
    5.543172652972E-02,0.234575298336,0.271553157968,0.336571748011,
    0.380796611552,0.406909613717,0.435553569474,0.50058210241,
    0.565016009404,0.617745073199,0.709071402211,0.766900118084,
    0.884017431901,1.),.UNSPECIFIED.);
#218 = CARTESIAN_POINT('',(-1.9,4.2,-2.336107785046E-16));
#219 = CARTESIAN_POINT('',(-1.9,4.253103569716,-2.362548032496E-16));
#220 = CARTESIAN_POINT('',(-1.899999999932,4.306207137112,
    -2.929858684893E-04));
#221 = CARTESIAN_POINT('',(-1.899999999912,4.359309729711,
    -8.789575957674E-04));
#222 = CARTESIAN_POINT('',(-1.899999917798,4.412410373967,
    -1.757928774855E-03));
#223 = CARTESIAN_POINT('',(-1.899999589194,4.465508095267,
    -2.929926601494E-03));
#224 = CARTESIAN_POINT('',(-1.899998767444,4.518601917931,
    -4.394991874147E-03));
#225 = CARTESIAN_POINT('',(-1.899997123636,4.57169086521,
    -6.153178993995E-03));
#226 = CARTESIAN_POINT('',(-1.899986445864,4.76870242855,
    -1.376661960175E-02));
#227 = CARTESIAN_POINT('',(-1.89996952963,4.91258787518,
    -2.14840956865E-02));
#228 = CARTESIAN_POINT('',(-1.899935390788,5.056410884477,
    -3.135834221466E-02));
#229 = CARTESIAN_POINT('',(-1.899871385718,5.20015183925,
    -4.339144883923E-02));
#230 = CARTESIAN_POINT('',(-1.899760334282,5.343790919811,
    -5.758623687079E-02));
#231 = CARTESIAN_POINT('',(-1.899580519828,5.487308103979,
    -7.394625927748E-02));
#232 = CARTESIAN_POINT('',(-1.89930568919,5.630683167079,
    -9.2475800685E-02));
#233 = CARTESIAN_POINT('',(-1.89713274815,6.40742804519,-0.204768958454)
  );
#234 = CARTESIAN_POINT('',(-1.892895099713,7.038437338737,
    -0.339007160392));
#235 = CARTESIAN_POINT('',(-1.883508946787,7.665103919035,
    -0.516481816223));
#236 = CARTESIAN_POINT('',(-1.864464252744,8.284999624167,
    -0.737973006837));
#237 = CARTESIAN_POINT('',(-1.829281647548,8.895092712889,
    -1.004239372481));
#238 = CARTESIAN_POINT('',(-1.76908300966,9.491443276541,-1.315657131365
    ));
#239 = CARTESIAN_POINT('',(-1.672107015511,10.068838674719,
    -1.671617395847));
#240 = CARTESIAN_POINT('',(-1.491192833261,10.734650005879,
    -2.150252360171));
#241 = CARTESIAN_POINT('',(-1.458005987674,10.847391531731,
    -2.233818081495));
#242 = CARTESIAN_POINT('',(-1.422469185153,10.958830127804,
    -2.31896712541));
#243 = CARTESIAN_POINT('',(-1.384464673106,11.068847762863,
    -2.405603048828));
#244 = CARTESIAN_POINT('',(-1.343874169679,11.177334034186,
    -2.493622330025));
#245 = CARTESIAN_POINT('',(-1.300578992171,11.284186096825,
    -2.582914631144));
#246 = CARTESIAN_POINT('',(-1.254460185454,11.389308592871,
    -2.673363060694));
#247 = CARTESIAN_POINT('',(-1.119133196765,11.674255912648,
    -2.925697176043));
#248 = CARTESIAN_POINT('',(-1.023639576968,11.850553440735,
    -3.089986347424));
#249 = CARTESIAN_POINT('',(-0.918489002984,12.020432868224,
    -3.256558471497));
#250 = CARTESIAN_POINT('',(-0.803365654905,12.183057400076,
    -3.42420105076));
#251 = CARTESIAN_POINT('',(-0.678087616004,12.337799231228,
    -3.591665532913));
#252 = CARTESIAN_POINT('',(-0.542627481592,12.48421231919,-3.75769050747
    ));
#253 = CARTESIAN_POINT('',(-0.397132641675,12.622005441005,
    -3.92102513501));
#254 = CARTESIAN_POINT('',(-0.136388630076,12.838766649688,
    -4.188893596858));
#255 = CARTESIAN_POINT('',(-2.648549730018E-02,12.922339885662,
    -4.295385424298));
#256 = CARTESIAN_POINT('',(8.764149503729E-02,13.001706995636,
    -4.399559500275));
#257 = CARTESIAN_POINT('',(0.205828154611,13.07686576698,-4.501056676714
    ));
#258 = CARTESIAN_POINT('',(0.327868049564,13.147837346532,
    -4.599532993112));
#259 = CARTESIAN_POINT('',(0.453511795407,13.214663565864,
    -4.694665221118));
#260 = CARTESIAN_POINT('',(0.582466341909,13.277404266551,
    -4.786156409116));
#261 = CARTESIAN_POINT('',(0.792292386419,13.370812538869,
    -4.925456855029));
#262 = CARTESIAN_POINT('',(0.871246539272,13.404100887104,
    -4.975823281802));
#263 = CARTESIAN_POINT('',(0.951211767431,13.436024438473,
    -5.024800622128));
#264 = CARTESIAN_POINT('',(1.032140637727,13.46660802769,-5.072351064511
    ));
#265 = CARTESIAN_POINT('',(1.113983228711,13.495876470152,
    -5.118439214419));
#266 = CARTESIAN_POINT('',(1.19668712441,13.523854476225,-5.163032237757
    ));
#267 = CARTESIAN_POINT('',(1.280197408089,13.55056656553,-5.206100004337
    ));
#268 = CARTESIAN_POINT('',(1.45688257297,13.603976069047,-5.293154243625
    ));
#269 = CARTESIAN_POINT('',(1.550212528724,13.630421970428,-5.33682660601
    ));
#270 = CARTESIAN_POINT('',(1.644391794956,13.655412938478,
    -5.378606436402));
#271 = CARTESIAN_POINT('',(1.739364613012,13.678985355607,
    -5.418470362255));
#272 = CARTESIAN_POINT('',(1.835074193911,13.701173733538,
    -5.456397520589));
#273 = CARTESIAN_POINT('',(1.931462718338,13.722010713307,
    -5.492369557987));
#274 = CARTESIAN_POINT('',(2.028471336649,13.741527065261,
    -5.526370630597));
#275 = CARTESIAN_POINT('',(2.347544421749,13.801125881893,
    -5.631073028632));
#276 = CARTESIAN_POINT('',(2.571887002867,13.835833327422,
    -5.693515689676));
#277 = CARTESIAN_POINT('',(2.79856432639,13.864254342591,-5.745633581518
    ));
#278 = CARTESIAN_POINT('',(3.027083692312,13.886689436914,
    -5.787369652022));
#279 = CARTESIAN_POINT('',(3.25696136652,13.903362881503,-5.818686966274
    ));
#280 = CARTESIAN_POINT('',(3.487720622739,13.914425074596,
    -5.839565448171));
#281 = CARTESIAN_POINT('',(3.718889746335,13.919953703593,-5.85));
#282 = CARTESIAN_POINT('',(4.178996963605,13.919953703593,-5.85));
#283 = CARTESIAN_POINT('',(4.408050851505,13.914525720723,
    -5.839755403819));
#284 = CARTESIAN_POINT('',(4.636706082007,13.903665026638,-5.81925722721
    ));
#285 = CARTESIAN_POINT('',(4.864504239528,13.887296710233,
    -5.788510331358));
#286 = CARTESIAN_POINT('',(5.090982107345,13.865275717875,
    -5.747533899112));
#287 = CARTESIAN_POINT('',(5.315669733954,13.837385747355,
    -5.696363217717));
#288 = CARTESIAN_POINT('',(5.538088533046,13.803336995566,
    -5.635052768046));
#289 = CARTESIAN_POINT('',(5.937507456121,13.729559101138,-5.50527369289
    ));
#290 = CARTESIAN_POINT('',(6.115499039913,13.69197049289,-5.440102487414
    ));
#291 = CARTESIAN_POINT('',(6.291285842915,13.649820273543,
    -5.368253564545));
#292 = CARTESIAN_POINT('',(6.464447192714,13.602916272859,
    -5.289855169156));
#293 = CARTESIAN_POINT('',(6.634582638612,13.551051358364,
    -5.205073998298));
#294 = CARTESIAN_POINT('',(6.801314520191,13.494003981726,
    -5.114111969153));
#295 = CARTESIAN_POINT('',(6.964290535887,13.431538725134,
    -5.017202986987));
#296 = CARTESIAN_POINT('',(7.398392561078,13.24540296503,-4.736918959451
    ));
#297 = CARTESIAN_POINT('',(7.661887260437,13.110173654431,
    -4.541835191149));
#298 = CARTESIAN_POINT('',(7.9101493709,12.957064996644,-4.331739476004)
  );
#299 = CARTESIAN_POINT('',(8.140619579904,12.785753047939,
    -4.109705078877));
#300 = CARTESIAN_POINT('',(8.35166217289,12.596350942144,-3.879229263332
    ));
#301 = CARTESIAN_POINT('',(8.542493548266,12.3895397906,-3.644011440972)
  );
#302 = CARTESIAN_POINT('',(8.713077375516,12.166723380014,
    -3.407777668461));
#303 = CARTESIAN_POINT('',(8.959543449791,11.780441996041,
    -3.026217135155));
#304 = CARTESIAN_POINT('',(9.047094174948,11.625368517945,
    -2.879510306496));
#305 = CARTESIAN_POINT('',(9.127018894593,11.465280557792,
    -2.734635296301));
#306 = CARTESIAN_POINT('',(9.199718078348,11.300520649297,
    -2.592156091344));
#307 = CARTESIAN_POINT('',(9.26560890547,11.131485518877,-2.452597826155
    ));
#308 = CARTESIAN_POINT('',(9.325121191511,10.958632542917,
    -2.316446636828));
#309 = CARTESIAN_POINT('',(9.378692678939,10.782486679461,
    -2.184147917589));
#310 = CARTESIAN_POINT('',(9.524119266816,10.241455490333,
    -1.796780619362));
#311 = CARTESIAN_POINT('',(9.598956119519,9.868061325551,-1.554793855457
    ));
#312 = CARTESIAN_POINT('',(9.655722272439,9.485359266572,-1.331301740814
    ));
#313 = CARTESIAN_POINT('',(9.698107795945,9.095044188685,-1.12688507063)
  );
#314 = CARTESIAN_POINT('',(9.729208372765,8.698612690633,-0.941781655471
    ));
#315 = CARTESIAN_POINT('',(9.751611682314,8.297372948322,-0.776012831875
    ));
#316 = CARTESIAN_POINT('',(9.767445900427,7.892454982708,-0.629454334314
    ));
#317 = CARTESIAN_POINT('',(9.789306899076,7.081119924526,-0.37559079396)
  );
#318 = CARTESIAN_POINT('',(9.795439648457,6.674309029552,-0.26777946603)
  );
#319 = CARTESIAN_POINT('',(9.798482581086,6.265031196056,-0.17826332529)
  );
#320 = CARTESIAN_POINT('',(9.799696863315,5.853860974519,-0.106855209358
    ));
#321 = CARTESIAN_POINT('',(9.800000527977,5.441312862715,
    -5.340333945433E-02));
#322 = CARTESIAN_POINT('',(9.799999610754,5.027858131135,
    -1.780232934331E-02));
#323 = CARTESIAN_POINT('',(9.8,4.613941833164,-2.04526687061E-15));
#324 = CARTESIAN_POINT('',(9.8,4.2,-2.024656722258E-15));
#325 = ORIENTED_EDGE('',*,*,#62,.T.);
#326 = ORIENTED_EDGE('',*,*,#327,.F.);
#327 = EDGE_CURVE('',#47,#54,#328,.T.);
#328 = CIRCLE('',#329,5.85);
#329 = AXIS2_PLACEMENT_3D('',#330,#331,#332);
#330 = CARTESIAN_POINT('',(3.95,14.95,-2.143518907478E-15));
#331 = DIRECTION('',(0.,-1.,1.110223024625E-16));
#332 = DIRECTION('',(-1.,1.359631073447E-32,1.224646799147E-16));
#333 = CYLINDRICAL_SURFACE('',#334,5.85);
#334 = AXIS2_PLACEMENT_3D('',#335,#336,#337);
#335 = CARTESIAN_POINT('',(3.95,0.2,-5.059399461557E-16));
#336 = DIRECTION('',(-0.,1.,-1.110223024625E-16));
#337 = DIRECTION('',(-1.,1.359631073447E-32,1.224646799147E-16));
#338 = ADVANCED_FACE('',(#339),#363,.T.);
#339 = FACE_BOUND('',#340,.F.);
#340 = EDGE_LOOP('',(#341,#342,#349,#358));
#341 = ORIENTED_EDGE('',*,*,#53,.T.);
#342 = ORIENTED_EDGE('',*,*,#343,.T.);
#343 = EDGE_CURVE('',#47,#344,#346,.T.);
#344 = VERTEX_POINT('',#345);
#345 = CARTESIAN_POINT('',(1.55,15.95,-2.25454120994E-15));
#346 = B_SPLINE_CURVE_WITH_KNOTS('',1,(#347,#348),.UNSPECIFIED.,.F.,.F.,
  (2,2),(0.,1.),.PIECEWISE_BEZIER_KNOTS.);
#347 = CARTESIAN_POINT('',(-1.9,14.95,-1.427100529977E-15));
#348 = CARTESIAN_POINT('',(1.55,15.95,-2.25454120994E-15));
#349 = ORIENTED_EDGE('',*,*,#350,.T.);
#350 = EDGE_CURVE('',#344,#351,#353,.T.);
#351 = VERTEX_POINT('',#352);
#352 = CARTESIAN_POINT('',(6.35,15.95,-2.548456441736E-15));
#353 = CIRCLE('',#354,2.4);
#354 = AXIS2_PLACEMENT_3D('',#355,#356,#357);
#355 = CARTESIAN_POINT('',(3.95,15.95,-2.25454120994E-15));
#356 = DIRECTION('',(0.,1.,-1.110223024625E-16));
#357 = DIRECTION('',(1.,-1.359631073447E-32,-1.224646799147E-16));
#358 = ORIENTED_EDGE('',*,*,#359,.F.);
#359 = EDGE_CURVE('',#54,#351,#360,.T.);
#360 = B_SPLINE_CURVE_WITH_KNOTS('',1,(#361,#362),.UNSPECIFIED.,.F.,.F.,
  (2,2),(0.,1.),.PIECEWISE_BEZIER_KNOTS.);
#361 = CARTESIAN_POINT('',(9.8,14.95,-3.57635566248E-15));
#362 = CARTESIAN_POINT('',(6.35,15.95,-2.548456441736E-15));
#363 = CONICAL_SURFACE('',#364,5.85,1.288672594652);
#364 = AXIS2_PLACEMENT_3D('',#365,#366,#367);
#365 = CARTESIAN_POINT('',(3.95,14.95,-2.143518907478E-15));
#366 = DIRECTION('',(0.,-1.,1.110223024625E-16));
#367 = DIRECTION('',(-1.,1.359631073447E-32,1.224646799147E-16));
#368 = ADVANCED_FACE('',(#369),#389,.T.);
#369 = FACE_BOUND('',#370,.F.);
#370 = EDGE_LOOP('',(#371,#372,#382));
#371 = ORIENTED_EDGE('',*,*,#69,.T.);
#372 = ORIENTED_EDGE('',*,*,#373,.F.);
#373 = EDGE_CURVE('',#374,#63,#376,.T.);
#374 = VERTEX_POINT('',#375);
#375 = CARTESIAN_POINT('',(9.79998895163,3.7,-1.136951208204E-02));
#376 = B_SPLINE_CURVE_WITH_KNOTS('',4,(#377,#378,#379,#380,#381),
  .UNSPECIFIED.,.F.,.F.,(5,5),(0.,1.),.PIECEWISE_BEZIER_KNOTS.);
#377 = CARTESIAN_POINT('',(9.799988951577,3.6999994,-1.136953938301E-02)
  );
#378 = CARTESIAN_POINT('',(9.800000001787,3.824955001424,
    -5.683855811333E-03));
#379 = CARTESIAN_POINT('',(9.799999999159,3.9499551838,
    -1.894618684489E-03));
#380 = CARTESIAN_POINT('',(9.8,4.074977577154,-2.018431860512E-15));
#381 = CARTESIAN_POINT('',(9.8,4.2,-2.024656722258E-15));
#382 = ORIENTED_EDGE('',*,*,#383,.F.);
#383 = EDGE_CURVE('',#70,#374,#384,.T.);
#384 = CIRCLE('',#385,5.85);
#385 = AXIS2_PLACEMENT_3D('',#386,#387,#388);
#386 = CARTESIAN_POINT('',(3.95,3.7,-8.945180047745E-16));
#387 = DIRECTION('',(0.,1.,-1.110223024625E-16));
#388 = DIRECTION('',(-1.,1.359631073447E-32,1.224646799147E-16));
#389 = CYLINDRICAL_SURFACE('',#390,5.85);
#390 = AXIS2_PLACEMENT_3D('',#391,#392,#393);
#391 = CARTESIAN_POINT('',(3.95,0.2,-5.059399461557E-16));
#392 = DIRECTION('',(-0.,1.,-1.110223024625E-16));
#393 = DIRECTION('',(-1.,1.359631073447E-32,1.224646799147E-16));
#394 = ADVANCED_FACE('',(#395),#400,.F.);
#395 = FACE_BOUND('',#396,.F.);
#396 = EDGE_LOOP('',(#397,#398,#399));
#397 = ORIENTED_EDGE('',*,*,#76,.T.);
#398 = ORIENTED_EDGE('',*,*,#150,.F.);
#399 = ORIENTED_EDGE('',*,*,#91,.F.);
#400 = PLANE('',#401);
#401 = AXIS2_PLACEMENT_3D('',#402,#403,#404);
#402 = CARTESIAN_POINT('',(7.8,-0.3,-9.219178125962E-16));
#403 = DIRECTION('',(-0.894427191,0.4472135955,5.98850565879E-17));
#404 = DIRECTION('',(-0.4472135955,-0.894427191,1.540692359563E-16));
#405 = ADVANCED_FACE('',(#406),#423,.T.);
#406 = FACE_BOUND('',#407,.T.);
#407 = EDGE_LOOP('',(#408,#409,#410,#418));
#408 = ORIENTED_EDGE('',*,*,#157,.T.);
#409 = ORIENTED_EDGE('',*,*,#123,.T.);
#410 = ORIENTED_EDGE('',*,*,#411,.F.);
#411 = EDGE_CURVE('',#412,#116,#414,.T.);
#412 = VERTEX_POINT('',#413);
#413 = CARTESIAN_POINT('',(2.45,2.2,1.));
#414 = LINE('',#415,#416);
#415 = CARTESIAN_POINT('',(2.45,2.2,1.));
#416 = VECTOR('',#417,1.);
#417 = DIRECTION('',(1.110223024625E-16,-1.,1.110223024625E-16));
#418 = ORIENTED_EDGE('',*,*,#419,.F.);
#419 = EDGE_CURVE('',#158,#412,#420,.T.);
#420 = B_SPLINE_CURVE_WITH_KNOTS('',1,(#421,#422),.UNSPECIFIED.,.F.,.F.,
  (2,2),(0.,1.),.PIECEWISE_BEZIER_KNOTS.);
#421 = CARTESIAN_POINT('',(2.45,2.2,-5.442875312086E-16));
#422 = CARTESIAN_POINT('',(2.45,2.2,1.));
#423 = PLANE('',#424);
#424 = AXIS2_PLACEMENT_3D('',#425,#426,#427);
#425 = CARTESIAN_POINT('',(2.45,2.2,1.));
#426 = DIRECTION('',(-1.,-1.110223024625E-16,1.224646799147E-16));
#427 = DIRECTION('',(1.110223024625E-16,-1.,1.110223024625E-16));
#428 = ADVANCED_FACE('',(#429),#447,.F.);
#429 = FACE_BOUND('',#430,.T.);
#430 = EDGE_LOOP('',(#431,#439,#445,#446));
#431 = ORIENTED_EDGE('',*,*,#432,.T.);
#432 = EDGE_CURVE('',#109,#433,#435,.T.);
#433 = VERTEX_POINT('',#434);
#434 = CARTESIAN_POINT('',(1.95,2.2,1.));
#435 = LINE('',#436,#437);
#436 = CARTESIAN_POINT('',(1.95,0.2,1.));
#437 = VECTOR('',#438,1.);
#438 = DIRECTION('',(-1.110223024625E-16,1.,-1.110223024625E-16));
#439 = ORIENTED_EDGE('',*,*,#440,.T.);
#440 = EDGE_CURVE('',#433,#412,#441,.T.);
#441 = LINE('',#442,#443);
#442 = CARTESIAN_POINT('',(1.95,2.2,1.));
#443 = VECTOR('',#444,1.);
#444 = DIRECTION('',(1.,1.110223024625E-16,-1.224646799147E-16));
#445 = ORIENTED_EDGE('',*,*,#411,.T.);
#446 = ORIENTED_EDGE('',*,*,#115,.T.);
#447 = PLANE('',#448);
#448 = AXIS2_PLACEMENT_3D('',#449,#450,#451);
#449 = CARTESIAN_POINT('',(1.95,0.2,1.));
#450 = DIRECTION('',(1.224646799147E-16,1.110223024625E-16,1.));
#451 = DIRECTION('',(0.242535625036,0.970142500145,-1.374095017709E-16)
  );
#452 = ADVANCED_FACE('',(#453),#463,.T.);
#453 = FACE_BOUND('',#454,.T.);
#454 = EDGE_LOOP('',(#455,#456,#461,#462));
#455 = ORIENTED_EDGE('',*,*,#173,.T.);
#456 = ORIENTED_EDGE('',*,*,#457,.T.);
#457 = EDGE_CURVE('',#166,#433,#458,.T.);
#458 = B_SPLINE_CURVE_WITH_KNOTS('',1,(#459,#460),.UNSPECIFIED.,.F.,.F.,
  (2,2),(0.,1.),.PIECEWISE_BEZIER_KNOTS.);
#459 = CARTESIAN_POINT('',(1.95,2.2,-4.830551912513E-16));
#460 = CARTESIAN_POINT('',(1.95,2.2,1.));
#461 = ORIENTED_EDGE('',*,*,#432,.F.);
#462 = ORIENTED_EDGE('',*,*,#108,.F.);
#463 = PLANE('',#464);
#464 = AXIS2_PLACEMENT_3D('',#465,#466,#467);
#465 = CARTESIAN_POINT('',(1.95,0.2,1.));
#466 = DIRECTION('',(1.,1.110223024625E-16,-1.224646799147E-16));
#467 = DIRECTION('',(-1.110223024625E-16,1.,-1.110223024625E-16));
#468 = ADVANCED_FACE('',(#469),#480,.T.);
#469 = FACE_BOUND('',#470,.T.);
#470 = EDGE_LOOP('',(#471,#472,#473,#474));
#471 = ORIENTED_EDGE('',*,*,#383,.F.);
#472 = ORIENTED_EDGE('',*,*,#144,.T.);
#473 = ORIENTED_EDGE('',*,*,#190,.F.);
#474 = ORIENTED_EDGE('',*,*,#475,.F.);
#475 = EDGE_CURVE('',#374,#191,#476,.T.);
#476 = LINE('',#477,#478);
#477 = CARTESIAN_POINT('',(15.65,3.7,-1.136951208205E-02));
#478 = VECTOR('',#479,1.);
#479 = DIRECTION('',(-1.,1.359631073447E-32,1.224646799147E-16));
#480 = PLANE('',#481);
#481 = AXIS2_PLACEMENT_3D('',#482,#483,#484);
#482 = CARTESIAN_POINT('',(15.65,3.7,-2.327354759777E-15));
#483 = DIRECTION('',(0.,-1.,1.110223024625E-16));
#484 = DIRECTION('',(-1.,1.359631073447E-32,1.224646799147E-16));
#485 = ADVANCED_FACE('',(#486),#492,.T.);
#486 = FACE_BOUND('',#487,.T.);
#487 = EDGE_LOOP('',(#488,#489,#490,#491));
#488 = ORIENTED_EDGE('',*,*,#165,.T.);
#489 = ORIENTED_EDGE('',*,*,#419,.T.);
#490 = ORIENTED_EDGE('',*,*,#440,.F.);
#491 = ORIENTED_EDGE('',*,*,#457,.F.);
#492 = PLANE('',#493);
#493 = AXIS2_PLACEMENT_3D('',#494,#495,#496);
#494 = CARTESIAN_POINT('',(1.95,2.2,1.));
#495 = DIRECTION('',(1.110223024625E-16,-1.,1.110223024625E-16));
#496 = DIRECTION('',(1.,1.110223024625E-16,-1.224646799147E-16));
#497 = ADVANCED_FACE('',(#498),#504,.F.);
#498 = FACE_BOUND('',#499,.F.);
#499 = EDGE_LOOP('',(#500,#501,#502,#503));
#500 = ORIENTED_EDGE('',*,*,#216,.F.);
#501 = ORIENTED_EDGE('',*,*,#199,.T.);
#502 = ORIENTED_EDGE('',*,*,#475,.F.);
#503 = ORIENTED_EDGE('',*,*,#373,.T.);
#504 = CYLINDRICAL_SURFACE('',#505,11.);
#505 = AXIS2_PLACEMENT_3D('',#506,#507,#508);
#506 = CARTESIAN_POINT('',(15.65,4.2,-11.));
#507 = DIRECTION('',(-1.,1.359631073447E-32,1.224646799147E-16));
#508 = DIRECTION('',(0.,-1.,1.110223024625E-16));
#509 = ADVANCED_FACE('',(#510),#522,.T.);
#510 = FACE_BOUND('',#511,.F.);
#511 = EDGE_LOOP('',(#512,#513,#514,#521));
#512 = ORIENTED_EDGE('',*,*,#327,.T.);
#513 = ORIENTED_EDGE('',*,*,#359,.T.);
#514 = ORIENTED_EDGE('',*,*,#515,.T.);
#515 = EDGE_CURVE('',#351,#344,#516,.T.);
#516 = CIRCLE('',#517,2.4);
#517 = AXIS2_PLACEMENT_3D('',#518,#519,#520);
#518 = CARTESIAN_POINT('',(3.95,15.95,-2.25454120994E-15));
#519 = DIRECTION('',(0.,1.,-1.110223024625E-16));
#520 = DIRECTION('',(1.,-1.359631073447E-32,-1.224646799147E-16));
#521 = ORIENTED_EDGE('',*,*,#343,.F.);
#522 = CONICAL_SURFACE('',#523,5.85,1.288672594652);
#523 = AXIS2_PLACEMENT_3D('',#524,#525,#526);
#524 = CARTESIAN_POINT('',(3.95,14.95,-2.143518907478E-15));
#525 = DIRECTION('',(0.,-1.,1.110223024625E-16));
#526 = DIRECTION('',(-1.,1.359631073447E-32,1.224646799147E-16));
#527 = ADVANCED_FACE('',(#528),#532,.T.);
#528 = FACE_BOUND('',#529,.F.);
#529 = EDGE_LOOP('',(#530,#531));
#530 = ORIENTED_EDGE('',*,*,#515,.F.);
#531 = ORIENTED_EDGE('',*,*,#350,.F.);
#532 = PLANE('',#533);
#533 = AXIS2_PLACEMENT_3D('',#534,#535,#536);
#534 = CARTESIAN_POINT('',(3.95,15.95,-2.25454120994E-15));
#535 = DIRECTION('',(-0.,1.,-1.110223024625E-16));
#536 = DIRECTION('',(1.,-1.359631073447E-32,-1.224646799147E-16));
#537 = ( GEOMETRIC_REPRESENTATION_CONTEXT(3) 
GLOBAL_UNCERTAINTY_ASSIGNED_CONTEXT((#541)) GLOBAL_UNIT_ASSIGNED_CONTEXT
((#538,#539,#540)) REPRESENTATION_CONTEXT('Context #1',
  '3D Context with UNIT and UNCERTAINTY') );
#538 = ( LENGTH_UNIT() NAMED_UNIT(*) SI_UNIT(.MILLI.,.METRE.) );
#539 = ( NAMED_UNIT(*) PLANE_ANGLE_UNIT() SI_UNIT($,.RADIAN.) );
#540 = ( NAMED_UNIT(*) SI_UNIT($,.STERADIAN.) SOLID_ANGLE_UNIT() );
#541 = UNCERTAINTY_MEASURE_WITH_UNIT(LENGTH_MEASURE(2.E-07),#538,
  'distance_accuracy_value','confusion accuracy');
#542 = PRODUCT_RELATED_PRODUCT_CATEGORY('part',$,(#7));
#543 = MECHANICAL_DESIGN_GEOMETRIC_PRESENTATION_REPRESENTATION('',(#544)
  ,#537);
#544 = STYLED_ITEM('color',(#545),#15);
#545 = PRESENTATION_STYLE_ASSIGNMENT((#546));
#546 = SURFACE_STYLE_USAGE(.BOTH.,#547);
#547 = SURFACE_SIDE_STYLE('',(#548));
#548 = SURFACE_STYLE_FILL_AREA(#549);
#549 = FILL_AREA_STYLE('',(#550));
#550 = FILL_AREA_STYLE_COLOUR('',#551);
#551 = COLOUR_RGB('',0.784313738346,0.784313738346,0.784313738346);
ENDSEC;
END-ISO-10303-21;
