ISO-10303-21;
HEADER;
FILE_DESCRIPTION(('Open CASCADE Model'),'2;1');
FILE_NAME('Open CASCADE Shape Model','2026-09-18T15:44:48',('Author'),(
    'Open CASCADE'),'Open CASCADE STEP processor 7.3','Open CASCADE 7.3'
  ,'Unknown');
FILE_SCHEMA(('AUTOMOTIVE_DESIGN { 1 0 10303 214 1 1 1 1 }'));
ENDSEC;
DATA;
#1 = APPLICATION_PROTOCOL_DEFINITION('international standard',
  'automotive_design',2000,#2);
#2 = APPLICATION_CONTEXT(
  'core data for automotive mechanical design processes');
#3 = SHAPE_DEFINITION_REPRESENTATION(#4,#10);
#4 = PRODUCT_DEFINITION_SHAPE('','',#5);
#5 = PRODUCT_DEFINITION('design','',#6,#9);
#6 = PRODUCT_DEFINITION_FORMATION('','',#7);
#7 = PRODUCT('Pottmanager 75','Pottmanager 75','',(#8));
#8 = PRODUCT_CONTEXT('',#2,'mechanical');
#9 = PRODUCT_DEFINITION_CONTEXT('part definition',#2,'design');
#10 = GEOMETRICALLY_BOUNDED_WIREFRAME_SHAPE_REPRESENTATION('',(#11,#15),
  #58);
#11 = AXIS2_PLACEMENT_3D('',#12,#13,#14);
#12 = CARTESIAN_POINT('',(0.,0.,0.));
#13 = DIRECTION('',(0.,0.,1.));
#14 = DIRECTION('',(1.,0.,-0.));
#15 = GEOMETRIC_CURVE_SET('',(#16,#23,#30,#37,#44,#51));
#16 = TRIMMED_CURVE('',#17,(#21,PARAMETER_VALUE(0.)),(#22,
    PARAMETER_VALUE(17.5)),.T.,.PARAMETER.);
#17 = LINE('',#18,#19);
#18 = CARTESIAN_POINT('',(3.95,46.95,-5.696232586278E-15));
#19 = VECTOR('',#20,1.);
#20 = DIRECTION('',(1.,0.,0.));
#21 = CARTESIAN_POINT('',(3.95,46.95,-5.696232586278E-15));
#22 = CARTESIAN_POINT('',(21.45,46.95,-5.696232586278E-15));
#23 = TRIMMED_CURVE('',#24,(#28,PARAMETER_VALUE(0.)),(#29,
    PARAMETER_VALUE(3.)),.T.,.PARAMETER.);
#24 = LINE('',#25,#26);
#25 = CARTESIAN_POINT('',(21.45,46.95,-5.696232586278E-15));
#26 = VECTOR('',#27,1.);
#27 = DIRECTION('',(0.,1.,-1.110223024625E-16));
#28 = CARTESIAN_POINT('',(21.45,46.95,-5.696232586278E-15));
#29 = CARTESIAN_POINT('',(21.45,49.95,-6.029299493666E-15));
#30 = TRIMMED_CURVE('',#31,(#35,PARAMETER_VALUE(0.)),(#36,
    PARAMETER_VALUE(1.5)),.T.,.PARAMETER.);
#31 = LINE('',#32,#33);
#32 = CARTESIAN_POINT('',(21.45,49.95,-6.029299493666E-15));
#33 = VECTOR('',#34,1.);
#34 = DIRECTION('',(-1.,0.,0.));
#35 = CARTESIAN_POINT('',(21.45,49.95,-6.029299493666E-15));
#36 = CARTESIAN_POINT('',(19.95,49.95,-6.029299493666E-15));
#37 = TRIMMED_CURVE('',#38,(#42,PARAMETER_VALUE(0.)),(#43,
    PARAMETER_VALUE(68.)),.T.,.PARAMETER.);
#38 = LINE('',#39,#40);
#39 = CARTESIAN_POINT('',(19.95,49.95,-6.029299493666E-15));
#40 = VECTOR('',#41,1.);
#41 = DIRECTION('',(0.,1.,-1.110223024625E-16));
#42 = CARTESIAN_POINT('',(19.95,49.95,-6.029299493666E-15));
#43 = CARTESIAN_POINT('',(19.95,117.95,-1.357881606112E-14));
#44 = TRIMMED_CURVE('',#45,(#49,PARAMETER_VALUE(0.)),(#50,
    PARAMETER_VALUE(16.)),.T.,.PARAMETER.);
#45 = LINE('',#46,#47);
#46 = CARTESIAN_POINT('',(19.95,117.95,-1.357881606112E-14));
#47 = VECTOR('',#48,1.);
#48 = DIRECTION('',(-1.,0.,0.));
#49 = CARTESIAN_POINT('',(19.95,117.95,-1.357881606112E-14));
#50 = CARTESIAN_POINT('',(3.95,117.95,-1.357881606112E-14));
#51 = TRIMMED_CURVE('',#52,(#56,PARAMETER_VALUE(0.)),(#57,
    PARAMETER_VALUE(71.)),.T.,.PARAMETER.);
#52 = LINE('',#53,#54);
#53 = CARTESIAN_POINT('',(3.95,117.95,-1.357881606112E-14));
#54 = VECTOR('',#55,1.);
#55 = DIRECTION('',(0.,-1.,1.110223024625E-16));
#56 = CARTESIAN_POINT('',(3.95,117.95,-1.357881606112E-14));
#57 = CARTESIAN_POINT('',(3.95,46.95,-5.696232586278E-15));
#58 = ( GEOMETRIC_REPRESENTATION_CONTEXT(3) 
GLOBAL_UNCERTAINTY_ASSIGNED_CONTEXT((#62)) GLOBAL_UNIT_ASSIGNED_CONTEXT(
(#59,#60,#61)) REPRESENTATION_CONTEXT('Context #1',
  '3D Context with UNIT and UNCERTAINTY') );
#59 = ( LENGTH_UNIT() NAMED_UNIT(*) SI_UNIT(.MILLI.,.METRE.) );
#60 = ( NAMED_UNIT(*) PLANE_ANGLE_UNIT() SI_UNIT($,.RADIAN.) );
#61 = ( NAMED_UNIT(*) SI_UNIT($,.STERADIAN.) SOLID_ANGLE_UNIT() );
#62 = UNCERTAINTY_MEASURE_WITH_UNIT(LENGTH_MEASURE(1.),#59,
  'distance_accuracy_value','confusion accuracy');
#63 = PRODUCT_RELATED_PRODUCT_CATEGORY('part',$,(#7));
#64 = MECHANICAL_DESIGN_GEOMETRIC_PRESENTATION_REPRESENTATION('',(#65),
  #58);
#65 = STYLED_ITEM('color',(#66),#15);
#66 = PRESENTATION_STYLE_ASSIGNMENT((#67));
#67 = SURFACE_STYLE_USAGE(.BOTH.,#68);
#68 = SURFACE_SIDE_STYLE('',(#69));
#69 = SURFACE_STYLE_FILL_AREA(#70);
#70 = FILL_AREA_STYLE('',(#71));
#71 = FILL_AREA_STYLE_COLOUR('',#72);
#72 = COLOUR_RGB('',0.588235318661,0.588235318661,0.588235318661);
ENDSEC;
END-ISO-10303-21;
