ISO-10303-21;
HEADER;
FILE_DESCRIPTION(('Open CASCADE Model'),'2;1');
FILE_NAME('Open CASCADE Shape Model','2026-09-18T15:45:09',('Author'),(
    'Open CASCADE'),'Open CASCADE STEP processor 7.3','Open CASCADE 7.3'
  ,'Unknown');
FILE_SCHEMA(('AUTOMOTIVE_DESIGN { 1 0 10303 214 1 1 1 1 }'));
ENDSEC;
DATA;
#1 = APPLICATION_PROTOCOL_DEFINITION('international standard',
  'automotive_design',2000,#2);
#2 = APPLICATION_CONTEXT(
  'core data for automotive mechanical design processes');
#3 = SHAPE_DEFINITION_REPRESENTATION(#4,#10);
#4 = PRODUCT_DEFINITION_SHAPE('','',#5);
#5 = PRODUCT_DEFINITION('design','',#6,#9);
#6 = PRODUCT_DEFINITION_FORMATION('','',#7);
#7 = PRODUCT('Pottmanager 143','Pottmanager 143','',(#8));
#8 = PRODUCT_CONTEXT('',#2,'mechanical');
#9 = PRODUCT_DEFINITION_CONTEXT('part definition',#2,'design');
#10 = ADVANCED_BREP_SHAPE_REPRESENTATION('',(#11,#15),#1190);
#11 = AXIS2_PLACEMENT_3D('',#12,#13,#14);
#12 = CARTESIAN_POINT('',(0.,0.,0.));
#13 = DIRECTION('',(0.,0.,1.));
#14 = DIRECTION('',(1.,0.,-0.));
#15 = MANIFOLD_SOLID_BREP('',#16);
#16 = CLOSED_SHELL('',(#17,#54,#91,#142,#193,#260,#292,#334,#376,#398,
    #434,#464,#493,#515,#544,#613,#635,#670,#686,#723,#743,#780,#796,
    #818,#840,#871,#901,#938,#954,#974,#1000,#1013,#1030,#1060,#1072,
    #1107,#1133,#1164));
#17 = ADVANCED_FACE('',(#18),#49,.T.);
#18 = FACE_BOUND('',#19,.T.);
#19 = EDGE_LOOP('',(#20,#29,#36,#43));
#20 = ORIENTED_EDGE('',*,*,#21,.T.);
#21 = EDGE_CURVE('',#22,#24,#26,.T.);
#22 = VERTEX_POINT('',#23);
#23 = CARTESIAN_POINT('',(5.508,1.59210709443,-0.15));
#24 = VERTEX_POINT('',#25);
#25 = CARTESIAN_POINT('',(5.508,9.40000000004,-0.15));
#26 = B_SPLINE_CURVE_WITH_KNOTS('',1,(#27,#28),.UNSPECIFIED.,.F.,.F.,(2,
    2),(0.,1.),.PIECEWISE_BEZIER_KNOTS.);
#27 = CARTESIAN_POINT('',(5.508,1.59210709443,-0.15));
#28 = CARTESIAN_POINT('',(5.508,9.40000000004,-0.15));
#29 = ORIENTED_EDGE('',*,*,#30,.T.);
#30 = EDGE_CURVE('',#24,#31,#33,.T.);
#31 = VERTEX_POINT('',#32);
#32 = CARTESIAN_POINT('',(5.358,9.40000000004,-1.043609643152E-15));
#33 = B_SPLINE_CURVE_WITH_KNOTS('',1,(#34,#35),.UNSPECIFIED.,.F.,.F.,(2,
    2),(0.,1.),.PIECEWISE_BEZIER_KNOTS.);
#34 = CARTESIAN_POINT('',(5.508,9.40000000004,-0.15));
#35 = CARTESIAN_POINT('',(5.358,9.40000000004,-1.043609643152E-15));
#36 = ORIENTED_EDGE('',*,*,#37,.T.);
#37 = EDGE_CURVE('',#31,#38,#40,.T.);
#38 = VERTEX_POINT('',#39);
#39 = CARTESIAN_POINT('',(5.358,2.05087907985,-2.276933175172E-16));
#40 = B_SPLINE_CURVE_WITH_KNOTS('',1,(#41,#42),.UNSPECIFIED.,.F.,.F.,(2,
    2),(0.,1.),.PIECEWISE_BEZIER_KNOTS.);
#41 = CARTESIAN_POINT('',(5.358,9.40000000004,-1.043609643152E-15));
#42 = CARTESIAN_POINT('',(5.358,2.05087907985,-2.276933175172E-16));
#43 = ORIENTED_EDGE('',*,*,#44,.T.);
#44 = EDGE_CURVE('',#38,#22,#45,.T.);
#45 = B_SPLINE_CURVE_WITH_KNOTS('',2,(#46,#47,#48),.UNSPECIFIED.,.F.,.F.
  ,(3,3),(2.030225222203E-02,7.043148026175E-02),
  .PIECEWISE_BEZIER_KNOTS.);
#46 = CARTESIAN_POINT('',(5.358,2.05087907985,-2.276933175172E-16));
#47 = CARTESIAN_POINT('',(5.44244497104,1.82149308714,-8.4444971038E-02)
  );
#48 = CARTESIAN_POINT('',(5.508,1.59210709443,-0.15));
#49 = B_SPLINE_SURFACE_WITH_KNOTS('',1,1,(
    (#50,#51)
    ,(#52,#53
    )),.UNSPECIFIED.,.F.,.F.,.F.,(2,2),(2,2),(31.174,38.983892905612),(
    -0.10748023074,0.10748023074),.PIECEWISE_BEZIER_KNOTS.);
#50 = CARTESIAN_POINT('',(5.357,9.40100000004,1.E-03));
#51 = CARTESIAN_POINT('',(5.509,9.40100000004,-0.151));
#52 = CARTESIAN_POINT('',(5.357,1.59110709443,1.000000000001E-03));
#53 = CARTESIAN_POINT('',(5.509,1.59110709443,-0.151));
#54 = ADVANCED_FACE('',(#55),#86,.T.);
#55 = FACE_BOUND('',#56,.T.);
#56 = EDGE_LOOP('',(#57,#66,#74,#81));
#57 = ORIENTED_EDGE('',*,*,#58,.T.);
#58 = EDGE_CURVE('',#59,#61,#63,.T.);
#59 = VERTEX_POINT('',#60);
#60 = CARTESIAN_POINT('',(0.392,9.40000000004,-0.15));
#61 = VERTEX_POINT('',#62);
#62 = CARTESIAN_POINT('',(0.392,1.59210709443,-0.15));
#63 = B_SPLINE_CURVE_WITH_KNOTS('',1,(#64,#65),.UNSPECIFIED.,.F.,.F.,(2,
    2),(0.,1.),.PIECEWISE_BEZIER_KNOTS.);
#64 = CARTESIAN_POINT('',(0.392,9.40000000004,-0.15));
#65 = CARTESIAN_POINT('',(0.392,1.59210709443,-0.15));
#66 = ORIENTED_EDGE('',*,*,#67,.F.);
#67 = EDGE_CURVE('',#68,#61,#70,.T.);
#68 = VERTEX_POINT('',#69);
#69 = CARTESIAN_POINT('',(0.542,2.05087907985,-2.276933175172E-16));
#70 = B_SPLINE_CURVE_WITH_KNOTS('',2,(#71,#72,#73),.UNSPECIFIED.,.F.,.F.
  ,(3,3),(0.,5.012922803972E-02),.PIECEWISE_BEZIER_KNOTS.);
#71 = CARTESIAN_POINT('',(0.542,2.05087907985,-2.276933175172E-16));
#72 = CARTESIAN_POINT('',(0.45755502897,1.82149308714,-8.4444971038E-02)
  );
#73 = CARTESIAN_POINT('',(0.392,1.59210709443,-0.15));
#74 = ORIENTED_EDGE('',*,*,#75,.T.);
#75 = EDGE_CURVE('',#68,#76,#78,.T.);
#76 = VERTEX_POINT('',#77);
#77 = CARTESIAN_POINT('',(0.542,9.40000000004,-1.043609643152E-15));
#78 = B_SPLINE_CURVE_WITH_KNOTS('',1,(#79,#80),.UNSPECIFIED.,.F.,.F.,(2,
    2),(0.,1.),.PIECEWISE_BEZIER_KNOTS.);
#79 = CARTESIAN_POINT('',(0.542,2.05087907985,-2.276933175172E-16));
#80 = CARTESIAN_POINT('',(0.542,9.40000000004,-1.043609643152E-15));
#81 = ORIENTED_EDGE('',*,*,#82,.F.);
#82 = EDGE_CURVE('',#59,#76,#83,.T.);
#83 = B_SPLINE_CURVE_WITH_KNOTS('',1,(#84,#85),.UNSPECIFIED.,.F.,.F.,(2,
    2),(0.,1.),.PIECEWISE_BEZIER_KNOTS.);
#84 = CARTESIAN_POINT('',(0.392,9.40000000004,-0.15));
#85 = CARTESIAN_POINT('',(0.542,9.40000000004,-1.043609643152E-15));
#86 = B_SPLINE_SURFACE_WITH_KNOTS('',1,1,(
    (#87,#88)
    ,(#89,#90
    )),.UNSPECIFIED.,.F.,.F.,.F.,(2,2),(2,2),(31.174,38.983892905612),(
    -0.10748023074,0.10748023074),.PIECEWISE_BEZIER_KNOTS.);
#87 = CARTESIAN_POINT('',(0.391,9.40100000004,-0.151));
#88 = CARTESIAN_POINT('',(0.543,9.40100000004,1.E-03));
#89 = CARTESIAN_POINT('',(0.391,1.59110709443,-0.151));
#90 = CARTESIAN_POINT('',(0.543,1.59110709443,1.000000000001E-03));
#91 = ADVANCED_FACE('',(#92),#137,.T.);
#92 = FACE_BOUND('',#93,.T.);
#93 = EDGE_LOOP('',(#94,#95,#103,#111,#118,#125,#132));
#94 = ORIENTED_EDGE('',*,*,#21,.F.);
#95 = ORIENTED_EDGE('',*,*,#96,.F.);
#96 = EDGE_CURVE('',#97,#22,#99,.T.);
#97 = VERTEX_POINT('',#98);
#98 = CARTESIAN_POINT('',(5.508,1.49532772332,-0.2));
#99 = ( BOUNDED_CURVE() B_SPLINE_CURVE(2,(#100,#101,#102),
.UNSPECIFIED.,.F.,.F.) B_SPLINE_CURVE_WITH_KNOTS((3,3),(0.,
1.129886291487E-02),.PIECEWISE_BEZIER_KNOTS.) CURVE() 
GEOMETRIC_REPRESENTATION_ITEM() RATIONAL_B_SPLINE_CURVE((1.,
1.000483268294,1.000704238783)) REPRESENTATION_ITEM('') );
#100 = CARTESIAN_POINT('',(5.508,1.49532772332,-0.2));
#101 = CARTESIAN_POINT('',(5.508,1.54331172444,-0.175784101031));
#102 = CARTESIAN_POINT('',(5.508,1.59210709443,-0.15));
#103 = ORIENTED_EDGE('',*,*,#104,.F.);
#104 = EDGE_CURVE('',#105,#97,#107,.T.);
#105 = VERTEX_POINT('',#106);
#106 = CARTESIAN_POINT('',(5.508,0.94222501158,-2.28));
#107 = ( BOUNDED_CURVE() B_SPLINE_CURVE(2,(#108,#109,#110),
.UNSPECIFIED.,.F.,.F.) B_SPLINE_CURVE_WITH_KNOTS((3,3),(0.,
0.218947645756),.PIECEWISE_BEZIER_KNOTS.) CURVE() 
GEOMETRIC_REPRESENTATION_ITEM() RATIONAL_B_SPLINE_CURVE((1.,
1.005127544456,1.000731896094)) REPRESENTATION_ITEM('') );
#108 = CARTESIAN_POINT('',(5.508,0.94222501158,-2.28));
#109 = CARTESIAN_POINT('',(5.508,1.20725612538,-1.475985384849));
#110 = CARTESIAN_POINT('',(5.508,1.49532772332,-0.2));
#111 = ORIENTED_EDGE('',*,*,#112,.F.);
#112 = EDGE_CURVE('',#113,#105,#115,.T.);
#113 = VERTEX_POINT('',#114);
#114 = CARTESIAN_POINT('',(5.508,1.000000039994E-03,-2.28));
#115 = B_SPLINE_CURVE_WITH_KNOTS('',1,(#116,#117),.UNSPECIFIED.,.F.,.F.,
  (2,2),(0.,1.),.PIECEWISE_BEZIER_KNOTS.);
#116 = CARTESIAN_POINT('',(5.508,1.000000039994E-03,-2.28));
#117 = CARTESIAN_POINT('',(5.508,0.94222501158,-2.28));
#118 = ORIENTED_EDGE('',*,*,#119,.F.);
#119 = EDGE_CURVE('',#120,#113,#122,.T.);
#120 = VERTEX_POINT('',#121);
#121 = CARTESIAN_POINT('',(5.508,1.000000039994E-03,-24.75));
#122 = B_SPLINE_CURVE_WITH_KNOTS('',1,(#123,#124),.UNSPECIFIED.,.F.,.F.,
  (2,2),(0.,1.),.PIECEWISE_BEZIER_KNOTS.);
#123 = CARTESIAN_POINT('',(5.508,1.000000039994E-03,-24.75));
#124 = CARTESIAN_POINT('',(5.508,1.000000039994E-03,-2.28));
#125 = ORIENTED_EDGE('',*,*,#126,.F.);
#126 = EDGE_CURVE('',#127,#120,#129,.T.);
#127 = VERTEX_POINT('',#128);
#128 = CARTESIAN_POINT('',(5.508,9.40000000004,-24.75));
#129 = B_SPLINE_CURVE_WITH_KNOTS('',1,(#130,#131),.UNSPECIFIED.,.F.,.F.,
  (2,2),(0.,1.),.PIECEWISE_BEZIER_KNOTS.);
#130 = CARTESIAN_POINT('',(5.508,9.40000000004,-24.75));
#131 = CARTESIAN_POINT('',(5.508,1.000000039994E-03,-24.75));
#132 = ORIENTED_EDGE('',*,*,#133,.T.);
#133 = EDGE_CURVE('',#127,#24,#134,.T.);
#134 = B_SPLINE_CURVE_WITH_KNOTS('',1,(#135,#136),.UNSPECIFIED.,.F.,.F.,
  (2,2),(0.,1.),.PIECEWISE_BEZIER_KNOTS.);
#135 = CARTESIAN_POINT('',(5.508,9.40000000004,-24.75));
#136 = CARTESIAN_POINT('',(5.508,9.40000000004,-0.15));
#137 = B_SPLINE_SURFACE_WITH_KNOTS('',1,1,(
    (#138,#139)
    ,(#140,#141
    )),.UNSPECIFIED.,.F.,.F.,.F.,(2,2),(2,2),(-1.000000000001E-03,9.4),(
    -24.751,-0.149),.PIECEWISE_BEZIER_KNOTS.);
#138 = CARTESIAN_POINT('',(5.508,3.998934516858E-11,-24.751));
#139 = CARTESIAN_POINT('',(5.508,3.998934516858E-11,-0.149));
#140 = CARTESIAN_POINT('',(5.508,9.40100000004,-24.751));
#141 = CARTESIAN_POINT('',(5.508,9.40100000004,-0.149));
#142 = ADVANCED_FACE('',(#143),#188,.T.);
#143 = FACE_BOUND('',#144,.T.);
#144 = EDGE_LOOP('',(#145,#146,#153,#160,#167,#174,#182));
#145 = ORIENTED_EDGE('',*,*,#58,.F.);
#146 = ORIENTED_EDGE('',*,*,#147,.F.);
#147 = EDGE_CURVE('',#148,#59,#150,.T.);
#148 = VERTEX_POINT('',#149);
#149 = CARTESIAN_POINT('',(0.392,9.40000000004,-24.75));
#150 = B_SPLINE_CURVE_WITH_KNOTS('',1,(#151,#152),.UNSPECIFIED.,.F.,.F.,
  (2,2),(0.,1.),.PIECEWISE_BEZIER_KNOTS.);
#151 = CARTESIAN_POINT('',(0.392,9.40000000004,-24.75));
#152 = CARTESIAN_POINT('',(0.392,9.40000000004,-0.15));
#153 = ORIENTED_EDGE('',*,*,#154,.F.);
#154 = EDGE_CURVE('',#155,#148,#157,.T.);
#155 = VERTEX_POINT('',#156);
#156 = CARTESIAN_POINT('',(0.392,1.000000039994E-03,-24.75));
#157 = B_SPLINE_CURVE_WITH_KNOTS('',1,(#158,#159),.UNSPECIFIED.,.F.,.F.,
  (2,2),(0.,1.),.PIECEWISE_BEZIER_KNOTS.);
#158 = CARTESIAN_POINT('',(0.392,1.000000039994E-03,-24.75));
#159 = CARTESIAN_POINT('',(0.392,9.40000000004,-24.75));
#160 = ORIENTED_EDGE('',*,*,#161,.T.);
#161 = EDGE_CURVE('',#155,#162,#164,.T.);
#162 = VERTEX_POINT('',#163);
#163 = CARTESIAN_POINT('',(0.392,1.000000039994E-03,-2.28));
#164 = B_SPLINE_CURVE_WITH_KNOTS('',1,(#165,#166),.UNSPECIFIED.,.F.,.F.,
  (2,2),(0.,1.),.PIECEWISE_BEZIER_KNOTS.);
#165 = CARTESIAN_POINT('',(0.392,1.000000039994E-03,-24.75));
#166 = CARTESIAN_POINT('',(0.392,1.000000039994E-03,-2.28));
#167 = ORIENTED_EDGE('',*,*,#168,.F.);
#168 = EDGE_CURVE('',#169,#162,#171,.T.);
#169 = VERTEX_POINT('',#170);
#170 = CARTESIAN_POINT('',(0.392,0.94222501158,-2.28));
#171 = B_SPLINE_CURVE_WITH_KNOTS('',1,(#172,#173),.UNSPECIFIED.,.F.,.F.,
  (2,2),(0.,1.),.PIECEWISE_BEZIER_KNOTS.);
#172 = CARTESIAN_POINT('',(0.392,0.94222501158,-2.28));
#173 = CARTESIAN_POINT('',(0.392,1.000000039994E-03,-2.28));
#174 = ORIENTED_EDGE('',*,*,#175,.F.);
#175 = EDGE_CURVE('',#176,#169,#178,.T.);
#176 = VERTEX_POINT('',#177);
#177 = CARTESIAN_POINT('',(0.392,1.49532772332,-0.2));
#178 = ( BOUNDED_CURVE() B_SPLINE_CURVE(2,(#179,#180,#181),
.UNSPECIFIED.,.F.,.F.) B_SPLINE_CURVE_WITH_KNOTS((3,3),(
1.014233042823E-02,0.145316029718),.PIECEWISE_BEZIER_KNOTS.) CURVE() 
GEOMETRIC_REPRESENTATION_ITEM() RATIONAL_B_SPLINE_CURVE((1.004127354041,
1.03128333067,1.049162093465)) REPRESENTATION_ITEM('') );
#179 = CARTESIAN_POINT('',(0.392,1.49532772332,-0.200000000002));
#180 = CARTESIAN_POINT('',(0.392,1.20725612538,-1.47598538485));
#181 = CARTESIAN_POINT('',(0.392,0.94222501158,-2.28));
#182 = ORIENTED_EDGE('',*,*,#183,.F.);
#183 = EDGE_CURVE('',#61,#176,#184,.T.);
#184 = ( BOUNDED_CURVE() B_SPLINE_CURVE(2,(#185,#186,#187),
.UNSPECIFIED.,.F.,.F.) B_SPLINE_CURVE_WITH_KNOTS((3,3),(
    2.370781610879E-02,3.269626628959E-02),.PIECEWISE_BEZIER_KNOTS.) 
CURVE() GEOMETRIC_REPRESENTATION_ITEM() RATIONAL_B_SPLINE_CURVE((
1.026925148088,1.031700053568,1.0362253215)) REPRESENTATION_ITEM('') );
#185 = CARTESIAN_POINT('',(0.392,1.59210709443,-0.15));
#186 = CARTESIAN_POINT('',(0.392,1.54331254203,-0.175783655176));
#187 = CARTESIAN_POINT('',(0.392,1.49532772332,-0.199999999999));
#188 = B_SPLINE_SURFACE_WITH_KNOTS('',1,1,(
    (#189,#190)
    ,(#191,#192
    )),.UNSPECIFIED.,.F.,.F.,.F.,(2,2),(2,2),(-1.000000000001E-03,9.4),(
    -24.751,-0.149),.PIECEWISE_BEZIER_KNOTS.);
#189 = CARTESIAN_POINT('',(0.392,9.40100000004,-24.751));
#190 = CARTESIAN_POINT('',(0.392,9.40100000004,-0.149));
#191 = CARTESIAN_POINT('',(0.392,3.998934516858E-11,-24.751));
#192 = CARTESIAN_POINT('',(0.392,3.998934516858E-11,-0.149));
#193 = ADVANCED_FACE('',(#194),#255,.T.);
#194 = FACE_BOUND('',#195,.T.);
#195 = EDGE_LOOP('',(#196,#204,#205,#213,#220,#227,#234,#241,#248,#254)
  );
#196 = ORIENTED_EDGE('',*,*,#197,.T.);
#197 = EDGE_CURVE('',#68,#38,#198,.T.);
#198 = ( BOUNDED_CURVE() B_SPLINE_CURVE(2,(#199,#200,#201,#202,#203),
.UNSPECIFIED.,.F.,.F.) B_SPLINE_CURVE_WITH_KNOTS((3,2,3),(
    2.381142423556E-12,49.579163724708,99.158327449414),.UNSPECIFIED.) 
CURVE() GEOMETRIC_REPRESENTATION_ITEM() RATIONAL_B_SPLINE_CURVE((1.,
0.907853732835,1.,0.907853732835,1.)) REPRESENTATION_ITEM('') );
#199 = CARTESIAN_POINT('',(0.542,2.05087907985,-2.276933175172E-16));
#200 = CARTESIAN_POINT('',(1.48918668166,3.16300000004,
    -3.511635426934E-16));
#201 = CARTESIAN_POINT('',(2.95,3.16300000004,-3.511635426934E-16));
#202 = CARTESIAN_POINT('',(4.41081331834,3.16300000004,
    -3.511635426934E-16));
#203 = CARTESIAN_POINT('',(5.358,2.05087907985,-2.276933175172E-16));
#204 = ORIENTED_EDGE('',*,*,#37,.F.);
#205 = ORIENTED_EDGE('',*,*,#206,.F.);
#206 = EDGE_CURVE('',#207,#31,#209,.T.);
#207 = VERTEX_POINT('',#208);
#208 = CARTESIAN_POINT('',(13.433,23.38631027116,-2.596402012407E-15));
#209 = ( BOUNDED_CURVE() B_SPLINE_CURVE(2,(#210,#211,#212),
.UNSPECIFIED.,.F.,.F.) B_SPLINE_CURVE_WITH_KNOTS((3,3),(0.,
59.999999999995),.PIECEWISE_BEZIER_KNOTS.) CURVE() 
GEOMETRIC_REPRESENTATION_ITEM() RATIONAL_B_SPLINE_CURVE((1.,
0.866025403784,1.)) REPRESENTATION_ITEM('') );
#210 = CARTESIAN_POINT('',(13.433,23.38631027116,-2.596402012407E-15));
#211 = CARTESIAN_POINT('',(5.358,18.72420684746,-2.078804555989E-15));
#212 = CARTESIAN_POINT('',(5.358,9.40000000004,-1.043609643152E-15));
#213 = ORIENTED_EDGE('',*,*,#214,.F.);
#214 = EDGE_CURVE('',#215,#207,#217,.T.);
#215 = VERTEX_POINT('',#216);
#216 = CARTESIAN_POINT('',(15.25,24.43535571028,-2.712869452446E-15));
#217 = B_SPLINE_CURVE_WITH_KNOTS('',1,(#218,#219),.UNSPECIFIED.,.F.,.F.,
  (2,2),(0.,1.),.PIECEWISE_BEZIER_KNOTS.);
#218 = CARTESIAN_POINT('',(15.25,24.43535571028,-2.712869452446E-15));
#219 = CARTESIAN_POINT('',(13.433,23.38631027116,-2.596402012407E-15));
#220 = ORIENTED_EDGE('',*,*,#221,.F.);
#221 = EDGE_CURVE('',#222,#215,#224,.T.);
#222 = VERTEX_POINT('',#223);
#223 = CARTESIAN_POINT('',(15.25,147.75,-1.640354518884E-14));
#224 = B_SPLINE_CURVE_WITH_KNOTS('',1,(#225,#226),.UNSPECIFIED.,.F.,.F.,
  (2,2),(0.,1.),.PIECEWISE_BEZIER_KNOTS.);
#225 = CARTESIAN_POINT('',(15.25,147.75,-1.640354518884E-14));
#226 = CARTESIAN_POINT('',(15.25,24.43535571028,-2.712869452446E-15));
#227 = ORIENTED_EDGE('',*,*,#228,.F.);
#228 = EDGE_CURVE('',#229,#222,#231,.T.);
#229 = VERTEX_POINT('',#230);
#230 = CARTESIAN_POINT('',(-9.35,147.75,-1.640354518884E-14));
#231 = B_SPLINE_CURVE_WITH_KNOTS('',1,(#232,#233),.UNSPECIFIED.,.F.,.F.,
  (2,2),(0.,1.),.PIECEWISE_BEZIER_KNOTS.);
#232 = CARTESIAN_POINT('',(-9.35,147.75,-1.640354518884E-14));
#233 = CARTESIAN_POINT('',(15.25,147.75,-1.640354518884E-14));
#234 = ORIENTED_EDGE('',*,*,#235,.F.);
#235 = EDGE_CURVE('',#236,#229,#238,.T.);
#236 = VERTEX_POINT('',#237);
#237 = CARTESIAN_POINT('',(-9.35,24.43535571028,-2.712869452446E-15));
#238 = B_SPLINE_CURVE_WITH_KNOTS('',1,(#239,#240),.UNSPECIFIED.,.F.,.F.,
  (2,2),(0.,1.),.PIECEWISE_BEZIER_KNOTS.);
#239 = CARTESIAN_POINT('',(-9.35,24.43535571028,-2.712869452446E-15));
#240 = CARTESIAN_POINT('',(-9.35,147.75,-1.640354518884E-14));
#241 = ORIENTED_EDGE('',*,*,#242,.F.);
#242 = EDGE_CURVE('',#243,#236,#245,.T.);
#243 = VERTEX_POINT('',#244);
#244 = CARTESIAN_POINT('',(-7.533,23.38631027116,-2.596402012407E-15));
#245 = B_SPLINE_CURVE_WITH_KNOTS('',1,(#246,#247),.UNSPECIFIED.,.F.,.F.,
  (2,2),(0.,1.),.PIECEWISE_BEZIER_KNOTS.);
#246 = CARTESIAN_POINT('',(-7.533,23.38631027116,-2.596402012407E-15));
#247 = CARTESIAN_POINT('',(-9.35,24.43535571028,-2.712869452446E-15));
#248 = ORIENTED_EDGE('',*,*,#249,.F.);
#249 = EDGE_CURVE('',#76,#243,#250,.T.);
#250 = ( BOUNDED_CURVE() B_SPLINE_CURVE(2,(#251,#252,#253),
.UNSPECIFIED.,.F.,.F.) B_SPLINE_CURVE_WITH_KNOTS((3,3),(
8.822838992543E-14,60.000000000001),.PIECEWISE_BEZIER_KNOTS.) CURVE() 
GEOMETRIC_REPRESENTATION_ITEM() RATIONAL_B_SPLINE_CURVE((1.,
0.866025403784,1.)) REPRESENTATION_ITEM('') );
#251 = CARTESIAN_POINT('',(0.542,9.40000000004,-1.043609643152E-15));
#252 = CARTESIAN_POINT('',(0.542,18.72420684746,-2.078804555989E-15));
#253 = CARTESIAN_POINT('',(-7.533,23.38631027116,-2.596402012407E-15));
#254 = ORIENTED_EDGE('',*,*,#75,.F.);
#255 = B_SPLINE_SURFACE_WITH_KNOTS('',1,1,(
    (#256,#257)
    ,(#258,#259
    )),.UNSPECIFIED.,.F.,.F.,.F.,(2,2),(2,2),(-76.001,69.700120920191),(
    -12.301,12.301),.PIECEWISE_BEZIER_KNOTS.);
#256 = CARTESIAN_POINT('',(-9.351,147.751,-1.640365621114E-14));
#257 = CARTESIAN_POINT('',(15.251,147.751,-1.640365621114E-14));
#258 = CARTESIAN_POINT('',(-9.351,2.04987907985,-2.275822952147E-16));
#259 = CARTESIAN_POINT('',(15.251,2.04987907985,-2.275822952147E-16));
#260 = ADVANCED_FACE('',(#261),#287,.T.);
#261 = FACE_BOUND('',#262,.T.);
#262 = EDGE_LOOP('',(#263,#271,#272,#280,#286));
#263 = ORIENTED_EDGE('',*,*,#264,.F.);
#264 = EDGE_CURVE('',#169,#105,#265,.T.);
#265 = ( BOUNDED_CURVE() B_SPLINE_CURVE(2,(#266,#267,#268,#269,#270),
.UNSPECIFIED.,.F.,.F.) B_SPLINE_CURVE_WITH_KNOTS((3,2,3),(0.,
69.779006938412,139.55801387682),.UNSPECIFIED.) CURVE() 
GEOMETRIC_REPRESENTATION_ITEM() RATIONAL_B_SPLINE_CURVE((1.,
0.820256678675,1.,0.820256678675,1.)) REPRESENTATION_ITEM('') );
#266 = CARTESIAN_POINT('',(0.392,0.94222501158,-2.28));
#267 = CARTESIAN_POINT('',(1.04904868598,2.72601393478,-2.28));
#268 = CARTESIAN_POINT('',(2.95,2.72601393478,-2.28));
#269 = CARTESIAN_POINT('',(4.85095131403,2.72601393478,-2.28));
#270 = CARTESIAN_POINT('',(5.508,0.94222501158,-2.28));
#271 = ORIENTED_EDGE('',*,*,#168,.T.);
#272 = ORIENTED_EDGE('',*,*,#273,.T.);
#273 = EDGE_CURVE('',#162,#274,#276,.T.);
#274 = VERTEX_POINT('',#275);
#275 = CARTESIAN_POINT('',(2.95,-2.55699999996,-2.28));
#276 = ( BOUNDED_CURVE() B_SPLINE_CURVE(2,(#277,#278,#279),
.UNSPECIFIED.,.F.,.F.) B_SPLINE_CURVE_WITH_KNOTS((3,3),(0.,90.),
.PIECEWISE_BEZIER_KNOTS.) CURVE() GEOMETRIC_REPRESENTATION_ITEM() 
RATIONAL_B_SPLINE_CURVE((1.,0.707106781187,1.)) REPRESENTATION_ITEM('') 
  );
#277 = CARTESIAN_POINT('',(0.392,1.000000039994E-03,-2.28));
#278 = CARTESIAN_POINT('',(0.392,-2.55699999996,-2.28));
#279 = CARTESIAN_POINT('',(2.95,-2.55699999996,-2.28));
#280 = ORIENTED_EDGE('',*,*,#281,.T.);
#281 = EDGE_CURVE('',#274,#113,#282,.T.);
#282 = ( BOUNDED_CURVE() B_SPLINE_CURVE(2,(#283,#284,#285),
.UNSPECIFIED.,.F.,.F.) B_SPLINE_CURVE_WITH_KNOTS((3,3),(0.,90.),
.PIECEWISE_BEZIER_KNOTS.) CURVE() GEOMETRIC_REPRESENTATION_ITEM() 
RATIONAL_B_SPLINE_CURVE((1.,0.707106781187,1.)) REPRESENTATION_ITEM('') 
  );
#283 = CARTESIAN_POINT('',(2.95,-2.55699999996,-2.28));
#284 = CARTESIAN_POINT('',(5.508,-2.55699999996,-2.28));
#285 = CARTESIAN_POINT('',(5.508,1.000000039994E-03,-2.28));
#286 = ORIENTED_EDGE('',*,*,#112,.T.);
#287 = B_SPLINE_SURFACE_WITH_KNOTS('',1,1,(
    (#288,#289)
    ,(#290,#291
    )),.UNSPECIFIED.,.F.,.F.,.F.,(2,2),(2,2),(-2.727013934733,2.558),(
    -2.559,2.559),.PIECEWISE_BEZIER_KNOTS.);
#288 = CARTESIAN_POINT('',(0.391,2.72701393478,-2.28));
#289 = CARTESIAN_POINT('',(5.509,2.72701393478,-2.28));
#290 = CARTESIAN_POINT('',(0.391,-2.55799999996,-2.28));
#291 = CARTESIAN_POINT('',(5.509,-2.55799999996,-2.28));
#292 = ADVANCED_FACE('',(#293),#329,.T.);
#293 = FACE_BOUND('',#294,.T.);
#294 = EDGE_LOOP('',(#295,#302,#303,#310,#317,#324));
#295 = ORIENTED_EDGE('',*,*,#296,.T.);
#296 = EDGE_CURVE('',#297,#229,#299,.T.);
#297 = VERTEX_POINT('',#298);
#298 = CARTESIAN_POINT('',(-9.425,147.825,-7.500000000002E-02));
#299 = B_SPLINE_CURVE_WITH_KNOTS('',1,(#300,#301),.UNSPECIFIED.,.F.,.F.,
  (2,2),(0.,1.),.PIECEWISE_BEZIER_KNOTS.);
#300 = CARTESIAN_POINT('',(-9.425,147.825,-7.500000000002E-02));
#301 = CARTESIAN_POINT('',(-9.35,147.75,-1.640354518884E-14));
#302 = ORIENTED_EDGE('',*,*,#228,.T.);
#303 = ORIENTED_EDGE('',*,*,#304,.T.);
#304 = EDGE_CURVE('',#222,#305,#307,.T.);
#305 = VERTEX_POINT('',#306);
#306 = CARTESIAN_POINT('',(15.325,147.825,-7.500000000002E-02));
#307 = B_SPLINE_CURVE_WITH_KNOTS('',1,(#308,#309),.UNSPECIFIED.,.F.,.F.,
  (2,2),(0.,1.),.PIECEWISE_BEZIER_KNOTS.);
#308 = CARTESIAN_POINT('',(15.25,147.75,-1.640354518884E-14));
#309 = CARTESIAN_POINT('',(15.325,147.825,-7.500000000002E-02));
#310 = ORIENTED_EDGE('',*,*,#311,.T.);
#311 = EDGE_CURVE('',#305,#312,#314,.T.);
#312 = VERTEX_POINT('',#313);
#313 = CARTESIAN_POINT('',(14.9,148.25,-0.5));
#314 = B_SPLINE_CURVE_WITH_KNOTS('',1,(#315,#316),.UNSPECIFIED.,.F.,.F.,
  (2,2),(0.,1.),.PIECEWISE_BEZIER_KNOTS.);
#315 = CARTESIAN_POINT('',(15.325,147.825,-7.500000000002E-02));
#316 = CARTESIAN_POINT('',(14.9,148.25,-0.5));
#317 = ORIENTED_EDGE('',*,*,#318,.T.);
#318 = EDGE_CURVE('',#312,#319,#321,.T.);
#319 = VERTEX_POINT('',#320);
#320 = CARTESIAN_POINT('',(-9.,148.25,-0.5));
#321 = B_SPLINE_CURVE_WITH_KNOTS('',1,(#322,#323),.UNSPECIFIED.,.F.,.F.,
  (2,2),(0.,1.),.PIECEWISE_BEZIER_KNOTS.);
#322 = CARTESIAN_POINT('',(14.9,148.25,-0.5));
#323 = CARTESIAN_POINT('',(-9.,148.25,-0.5));
#324 = ORIENTED_EDGE('',*,*,#325,.T.);
#325 = EDGE_CURVE('',#319,#297,#326,.T.);
#326 = B_SPLINE_CURVE_WITH_KNOTS('',1,(#327,#328),.UNSPECIFIED.,.F.,.F.,
  (2,2),(0.,1.),.PIECEWISE_BEZIER_KNOTS.);
#327 = CARTESIAN_POINT('',(-9.,148.25,-0.5));
#328 = CARTESIAN_POINT('',(-9.425,147.825,-7.500000000002E-02));
#329 = B_SPLINE_SURFACE_WITH_KNOTS('',1,1,(
    (#330,#331)
    ,(#332,#333
    )),.UNSPECIFIED.,.F.,.F.,.F.,(2,2),(2,2),(-0.354967604156,
    0.354967604156),(-18.601,6.151),.PIECEWISE_BEZIER_KNOTS.);
#330 = CARTESIAN_POINT('',(-9.426,148.251,-0.501));
#331 = CARTESIAN_POINT('',(15.326,148.251,-0.501));
#332 = CARTESIAN_POINT('',(-9.426,147.749,9.999999999846E-04));
#333 = CARTESIAN_POINT('',(15.326,147.749,9.999999999846E-04));
#334 = ADVANCED_FACE('',(#335),#371,.T.);
#335 = FACE_BOUND('',#336,.T.);
#336 = EDGE_LOOP('',(#337,#338,#345,#352,#359,#366));
#337 = ORIENTED_EDGE('',*,*,#325,.F.);
#338 = ORIENTED_EDGE('',*,*,#339,.T.);
#339 = EDGE_CURVE('',#319,#340,#342,.T.);
#340 = VERTEX_POINT('',#341);
#341 = CARTESIAN_POINT('',(-9.,148.25,-24.4));
#342 = B_SPLINE_CURVE_WITH_KNOTS('',1,(#343,#344),.UNSPECIFIED.,.F.,.F.,
  (2,2),(0.,1.),.PIECEWISE_BEZIER_KNOTS.);
#343 = CARTESIAN_POINT('',(-9.,148.25,-0.5));
#344 = CARTESIAN_POINT('',(-9.,148.25,-24.4));
#345 = ORIENTED_EDGE('',*,*,#346,.F.);
#346 = EDGE_CURVE('',#347,#340,#349,.T.);
#347 = VERTEX_POINT('',#348);
#348 = CARTESIAN_POINT('',(-9.425,147.825,-24.825));
#349 = B_SPLINE_CURVE_WITH_KNOTS('',1,(#350,#351),.UNSPECIFIED.,.F.,.F.,
  (2,2),(0.,1.),.PIECEWISE_BEZIER_KNOTS.);
#350 = CARTESIAN_POINT('',(-9.425,147.825,-24.825));
#351 = CARTESIAN_POINT('',(-9.,148.25,-24.4));
#352 = ORIENTED_EDGE('',*,*,#353,.T.);
#353 = EDGE_CURVE('',#347,#354,#356,.T.);
#354 = VERTEX_POINT('',#355);
#355 = CARTESIAN_POINT('',(-9.5,147.75,-24.75));
#356 = B_SPLINE_CURVE_WITH_KNOTS('',1,(#357,#358),.UNSPECIFIED.,.F.,.F.,
  (2,2),(0.,1.),.PIECEWISE_BEZIER_KNOTS.);
#357 = CARTESIAN_POINT('',(-9.425,147.825,-24.825));
#358 = CARTESIAN_POINT('',(-9.5,147.75,-24.75));
#359 = ORIENTED_EDGE('',*,*,#360,.T.);
#360 = EDGE_CURVE('',#354,#361,#363,.T.);
#361 = VERTEX_POINT('',#362);
#362 = CARTESIAN_POINT('',(-9.5,147.75,-0.15));
#363 = B_SPLINE_CURVE_WITH_KNOTS('',1,(#364,#365),.UNSPECIFIED.,.F.,.F.,
  (2,2),(0.,1.),.PIECEWISE_BEZIER_KNOTS.);
#364 = CARTESIAN_POINT('',(-9.5,147.75,-24.75));
#365 = CARTESIAN_POINT('',(-9.5,147.75,-0.15));
#366 = ORIENTED_EDGE('',*,*,#367,.T.);
#367 = EDGE_CURVE('',#361,#297,#368,.T.);
#368 = B_SPLINE_CURVE_WITH_KNOTS('',1,(#369,#370),.UNSPECIFIED.,.F.,.F.,
  (2,2),(0.,1.),.PIECEWISE_BEZIER_KNOTS.);
#369 = CARTESIAN_POINT('',(-9.5,147.75,-0.15));
#370 = CARTESIAN_POINT('',(-9.425,147.825,-7.500000000002E-02));
#371 = B_SPLINE_SURFACE_WITH_KNOTS('',1,1,(
    (#372,#373)
    ,(#374,#375
  )),.UNSPECIFIED.,.F.,.F.,.F.,(2,2),(2,2),(7.4E-02,24.826),(
    -0.354967604156,0.354967604156),.PIECEWISE_BEZIER_KNOTS.);
#372 = CARTESIAN_POINT('',(-9.501,147.749,-24.826));
#373 = CARTESIAN_POINT('',(-8.999,148.251,-24.826));
#374 = CARTESIAN_POINT('',(-9.501,147.749,-7.400000000002E-02));
#375 = CARTESIAN_POINT('',(-8.999,148.251,-7.400000000002E-02));
#376 = ADVANCED_FACE('',(#377),#393,.T.);
#377 = FACE_BOUND('',#378,.T.);
#378 = EDGE_LOOP('',(#379,#380,#387,#392));
#379 = ORIENTED_EDGE('',*,*,#318,.F.);
#380 = ORIENTED_EDGE('',*,*,#381,.F.);
#381 = EDGE_CURVE('',#382,#312,#384,.T.);
#382 = VERTEX_POINT('',#383);
#383 = CARTESIAN_POINT('',(14.9,148.25,-24.4));
#384 = B_SPLINE_CURVE_WITH_KNOTS('',1,(#385,#386),.UNSPECIFIED.,.F.,.F.,
  (2,2),(0.,1.),.PIECEWISE_BEZIER_KNOTS.);
#385 = CARTESIAN_POINT('',(14.9,148.25,-24.4));
#386 = CARTESIAN_POINT('',(14.9,148.25,-0.5));
#387 = ORIENTED_EDGE('',*,*,#388,.F.);
#388 = EDGE_CURVE('',#340,#382,#389,.T.);
#389 = B_SPLINE_CURVE_WITH_KNOTS('',1,(#390,#391),.UNSPECIFIED.,.F.,.F.,
  (2,2),(0.,1.),.PIECEWISE_BEZIER_KNOTS.);
#390 = CARTESIAN_POINT('',(-9.,148.25,-24.4));
#391 = CARTESIAN_POINT('',(14.9,148.25,-24.4));
#392 = ORIENTED_EDGE('',*,*,#339,.F.);
#393 = B_SPLINE_SURFACE_WITH_KNOTS('',1,1,(
    (#394,#395)
    ,(#396,#397
    )),.UNSPECIFIED.,.F.,.F.,.F.,(2,2),(2,2),(0.499,24.401),(0.499,
    24.401),.PIECEWISE_BEZIER_KNOTS.);
#394 = CARTESIAN_POINT('',(14.901,148.25,-24.401));
#395 = CARTESIAN_POINT('',(14.901,148.25,-0.499));
#396 = CARTESIAN_POINT('',(-9.001,148.25,-24.401));
#397 = CARTESIAN_POINT('',(-9.001,148.25,-0.499));
#398 = ADVANCED_FACE('',(#399),#429,.T.);
#399 = FACE_BOUND('',#400,.T.);
#400 = EDGE_LOOP('',(#401,#402,#409,#416,#423,#428));
#401 = ORIENTED_EDGE('',*,*,#311,.F.);
#402 = ORIENTED_EDGE('',*,*,#403,.T.);
#403 = EDGE_CURVE('',#305,#404,#406,.T.);
#404 = VERTEX_POINT('',#405);
#405 = CARTESIAN_POINT('',(15.4,147.75,-0.15));
#406 = B_SPLINE_CURVE_WITH_KNOTS('',1,(#407,#408),.UNSPECIFIED.,.F.,.F.,
  (2,2),(0.,1.),.PIECEWISE_BEZIER_KNOTS.);
#407 = CARTESIAN_POINT('',(15.325,147.825,-7.500000000002E-02));
#408 = CARTESIAN_POINT('',(15.4,147.75,-0.15));
#409 = ORIENTED_EDGE('',*,*,#410,.T.);
#410 = EDGE_CURVE('',#404,#411,#413,.T.);
#411 = VERTEX_POINT('',#412);
#412 = CARTESIAN_POINT('',(15.4,147.75,-24.75));
#413 = B_SPLINE_CURVE_WITH_KNOTS('',1,(#414,#415),.UNSPECIFIED.,.F.,.F.,
  (2,2),(0.,1.),.PIECEWISE_BEZIER_KNOTS.);
#414 = CARTESIAN_POINT('',(15.4,147.75,-0.15));
#415 = CARTESIAN_POINT('',(15.4,147.75,-24.75));
#416 = ORIENTED_EDGE('',*,*,#417,.T.);
#417 = EDGE_CURVE('',#411,#418,#420,.T.);
#418 = VERTEX_POINT('',#419);
#419 = CARTESIAN_POINT('',(15.325,147.825,-24.825));
#420 = B_SPLINE_CURVE_WITH_KNOTS('',1,(#421,#422),.UNSPECIFIED.,.F.,.F.,
  (2,2),(0.,1.),.PIECEWISE_BEZIER_KNOTS.);
#421 = CARTESIAN_POINT('',(15.4,147.75,-24.75));
#422 = CARTESIAN_POINT('',(15.325,147.825,-24.825));
#423 = ORIENTED_EDGE('',*,*,#424,.T.);
#424 = EDGE_CURVE('',#418,#382,#425,.T.);
#425 = B_SPLINE_CURVE_WITH_KNOTS('',1,(#426,#427),.UNSPECIFIED.,.F.,.F.,
  (2,2),(0.,1.),.PIECEWISE_BEZIER_KNOTS.);
#426 = CARTESIAN_POINT('',(15.325,147.825,-24.825));
#427 = CARTESIAN_POINT('',(14.9,148.25,-24.4));
#428 = ORIENTED_EDGE('',*,*,#381,.T.);
#429 = B_SPLINE_SURFACE_WITH_KNOTS('',1,1,(
    (#430,#431)
    ,(#432,#433
    )),.UNSPECIFIED.,.F.,.F.,.F.,(2,2),(2,2),(7.399999999999E-02,24.826)
  ,(-0.354967604156,0.354967604156),.PIECEWISE_BEZIER_KNOTS.);
#430 = CARTESIAN_POINT('',(14.899,148.251,-24.826));
#431 = CARTESIAN_POINT('',(15.401,147.749,-24.826));
#432 = CARTESIAN_POINT('',(14.899,148.251,-7.400000000002E-02));
#433 = CARTESIAN_POINT('',(15.401,147.749,-7.400000000002E-02));
#434 = ADVANCED_FACE('',(#435),#459,.T.);
#435 = FACE_BOUND('',#436,.T.);
#436 = EDGE_LOOP('',(#437,#438,#445,#452,#457,#458));
#437 = ORIENTED_EDGE('',*,*,#424,.F.);
#438 = ORIENTED_EDGE('',*,*,#439,.T.);
#439 = EDGE_CURVE('',#418,#440,#442,.T.);
#440 = VERTEX_POINT('',#441);
#441 = CARTESIAN_POINT('',(15.25,147.75,-24.9));
#442 = B_SPLINE_CURVE_WITH_KNOTS('',1,(#443,#444),.UNSPECIFIED.,.F.,.F.,
  (2,2),(0.,1.),.PIECEWISE_BEZIER_KNOTS.);
#443 = CARTESIAN_POINT('',(15.325,147.825,-24.825));
#444 = CARTESIAN_POINT('',(15.25,147.75,-24.9));
#445 = ORIENTED_EDGE('',*,*,#446,.T.);
#446 = EDGE_CURVE('',#440,#447,#449,.T.);
#447 = VERTEX_POINT('',#448);
#448 = CARTESIAN_POINT('',(-9.35,147.75,-24.9));
#449 = B_SPLINE_CURVE_WITH_KNOTS('',1,(#450,#451),.UNSPECIFIED.,.F.,.F.,
  (2,2),(0.,1.),.PIECEWISE_BEZIER_KNOTS.);
#450 = CARTESIAN_POINT('',(15.25,147.75,-24.9));
#451 = CARTESIAN_POINT('',(-9.35,147.75,-24.9));
#452 = ORIENTED_EDGE('',*,*,#453,.T.);
#453 = EDGE_CURVE('',#447,#347,#454,.T.);
#454 = B_SPLINE_CURVE_WITH_KNOTS('',1,(#455,#456),.UNSPECIFIED.,.F.,.F.,
  (2,2),(0.,1.),.PIECEWISE_BEZIER_KNOTS.);
#455 = CARTESIAN_POINT('',(-9.35,147.75,-24.9));
#456 = CARTESIAN_POINT('',(-9.425,147.825,-24.825));
#457 = ORIENTED_EDGE('',*,*,#346,.T.);
#458 = ORIENTED_EDGE('',*,*,#388,.T.);
#459 = B_SPLINE_SURFACE_WITH_KNOTS('',1,1,(
    (#460,#461)
    ,(#462,#463
    )),.UNSPECIFIED.,.F.,.F.,.F.,(2,2),(2,2),(-0.354967604156,
    0.354967604156),(-18.601,6.151),.PIECEWISE_BEZIER_KNOTS.);
#460 = CARTESIAN_POINT('',(-9.426,147.749,-24.901));
#461 = CARTESIAN_POINT('',(15.326,147.749,-24.901));
#462 = CARTESIAN_POINT('',(-9.426,148.251,-24.399));
#463 = CARTESIAN_POINT('',(15.326,148.251,-24.399));
#464 = ADVANCED_FACE('',(#465),#488,.T.);
#465 = FACE_BOUND('',#466,.T.);
#466 = EDGE_LOOP('',(#467,#468,#475,#482,#487));
#467 = ORIENTED_EDGE('',*,*,#417,.F.);
#468 = ORIENTED_EDGE('',*,*,#469,.T.);
#469 = EDGE_CURVE('',#411,#470,#472,.T.);
#470 = VERTEX_POINT('',#471);
#471 = CARTESIAN_POINT('',(15.4,24.3487531699,-24.75));
#472 = B_SPLINE_CURVE_WITH_KNOTS('',1,(#473,#474),.UNSPECIFIED.,.F.,.F.,
  (2,2),(0.,1.),.PIECEWISE_BEZIER_KNOTS.);
#473 = CARTESIAN_POINT('',(15.4,147.75,-24.75));
#474 = CARTESIAN_POINT('',(15.4,24.3487531699,-24.75));
#475 = ORIENTED_EDGE('',*,*,#476,.T.);
#476 = EDGE_CURVE('',#470,#477,#479,.T.);
#477 = VERTEX_POINT('',#478);
#478 = CARTESIAN_POINT('',(15.25,24.43535571028,-24.9));
#479 = B_SPLINE_CURVE_WITH_KNOTS('',1,(#480,#481),.UNSPECIFIED.,.F.,.F.,
  (2,2),(0.,1.),.PIECEWISE_BEZIER_KNOTS.);
#480 = CARTESIAN_POINT('',(15.4,24.3487531699,-24.75));
#481 = CARTESIAN_POINT('',(15.25,24.43535571028,-24.9));
#482 = ORIENTED_EDGE('',*,*,#483,.T.);
#483 = EDGE_CURVE('',#477,#440,#484,.T.);
#484 = B_SPLINE_CURVE_WITH_KNOTS('',1,(#485,#486),.UNSPECIFIED.,.F.,.F.,
  (2,2),(0.,1.),.PIECEWISE_BEZIER_KNOTS.);
#485 = CARTESIAN_POINT('',(15.25,24.43535571028,-24.9));
#486 = CARTESIAN_POINT('',(15.25,147.75,-24.9));
#487 = ORIENTED_EDGE('',*,*,#439,.F.);
#488 = B_SPLINE_SURFACE_WITH_KNOTS('',1,1,(
    (#489,#490)
    ,(#491,#492
    )),.UNSPECIFIED.,.F.,.F.,.F.,(2,2),(2,2),(-9.152246830142,114.326),(
    -0.10748023074,0.10748023074),.PIECEWISE_BEZIER_KNOTS.);
#489 = CARTESIAN_POINT('',(15.249,24.3477531699,-24.901));
#490 = CARTESIAN_POINT('',(15.401,24.3477531699,-24.749));
#491 = CARTESIAN_POINT('',(15.249,147.826,-24.901));
#492 = CARTESIAN_POINT('',(15.401,147.826,-24.749));
#493 = ADVANCED_FACE('',(#494),#510,.T.);
#494 = FACE_BOUND('',#495,.T.);
#495 = EDGE_LOOP('',(#496,#497,#504,#509));
#496 = ORIENTED_EDGE('',*,*,#410,.F.);
#497 = ORIENTED_EDGE('',*,*,#498,.F.);
#498 = EDGE_CURVE('',#499,#404,#501,.T.);
#499 = VERTEX_POINT('',#500);
#500 = CARTESIAN_POINT('',(15.4,24.3487531699,-0.15));
#501 = B_SPLINE_CURVE_WITH_KNOTS('',1,(#502,#503),.UNSPECIFIED.,.F.,.F.,
  (2,2),(0.,1.),.PIECEWISE_BEZIER_KNOTS.);
#502 = CARTESIAN_POINT('',(15.4,24.3487531699,-0.15));
#503 = CARTESIAN_POINT('',(15.4,147.75,-0.15));
#504 = ORIENTED_EDGE('',*,*,#505,.T.);
#505 = EDGE_CURVE('',#499,#470,#506,.T.);
#506 = B_SPLINE_CURVE_WITH_KNOTS('',1,(#507,#508),.UNSPECIFIED.,.F.,.F.,
  (2,2),(0.,1.),.PIECEWISE_BEZIER_KNOTS.);
#507 = CARTESIAN_POINT('',(15.4,24.3487531699,-0.15));
#508 = CARTESIAN_POINT('',(15.4,24.3487531699,-24.75));
#509 = ORIENTED_EDGE('',*,*,#469,.F.);
#510 = B_SPLINE_SURFACE_WITH_KNOTS('',1,1,(
    (#511,#512)
    ,(#513,#514
    )),.UNSPECIFIED.,.F.,.F.,.F.,(2,2),(2,2),(29.097753169858,152.501),(
    0.149,24.751),.PIECEWISE_BEZIER_KNOTS.);
#511 = CARTESIAN_POINT('',(15.4,24.3477531699,-24.751));
#512 = CARTESIAN_POINT('',(15.4,24.3477531699,-0.149));
#513 = CARTESIAN_POINT('',(15.4,147.751,-24.751));
#514 = CARTESIAN_POINT('',(15.4,147.751,-0.149));
#515 = ADVANCED_FACE('',(#516),#539,.T.);
#516 = FACE_BOUND('',#517,.T.);
#517 = EDGE_LOOP('',(#518,#519,#526,#533,#538));
#518 = ORIENTED_EDGE('',*,*,#453,.F.);
#519 = ORIENTED_EDGE('',*,*,#520,.T.);
#520 = EDGE_CURVE('',#447,#521,#523,.T.);
#521 = VERTEX_POINT('',#522);
#522 = CARTESIAN_POINT('',(-9.35,24.43535571028,-24.9));
#523 = B_SPLINE_CURVE_WITH_KNOTS('',1,(#524,#525),.UNSPECIFIED.,.F.,.F.,
  (2,2),(0.,1.),.PIECEWISE_BEZIER_KNOTS.);
#524 = CARTESIAN_POINT('',(-9.35,147.75,-24.9));
#525 = CARTESIAN_POINT('',(-9.35,24.43535571028,-24.9));
#526 = ORIENTED_EDGE('',*,*,#527,.T.);
#527 = EDGE_CURVE('',#521,#528,#530,.T.);
#528 = VERTEX_POINT('',#529);
#529 = CARTESIAN_POINT('',(-9.5,24.3487531699,-24.75));
#530 = B_SPLINE_CURVE_WITH_KNOTS('',1,(#531,#532),.UNSPECIFIED.,.F.,.F.,
  (2,2),(0.,1.),.PIECEWISE_BEZIER_KNOTS.);
#531 = CARTESIAN_POINT('',(-9.35,24.43535571028,-24.9));
#532 = CARTESIAN_POINT('',(-9.5,24.3487531699,-24.75));
#533 = ORIENTED_EDGE('',*,*,#534,.T.);
#534 = EDGE_CURVE('',#528,#354,#535,.T.);
#535 = B_SPLINE_CURVE_WITH_KNOTS('',1,(#536,#537),.UNSPECIFIED.,.F.,.F.,
  (2,2),(0.,1.),.PIECEWISE_BEZIER_KNOTS.);
#536 = CARTESIAN_POINT('',(-9.5,24.3487531699,-24.75));
#537 = CARTESIAN_POINT('',(-9.5,147.75,-24.75));
#538 = ORIENTED_EDGE('',*,*,#353,.F.);
#539 = B_SPLINE_SURFACE_WITH_KNOTS('',1,1,(
    (#540,#541)
    ,(#542,#543
    )),.UNSPECIFIED.,.F.,.F.,.F.,(2,2),(2,2),(-85.65224683014,37.826),(
    -0.10748023074,0.10748023074),.PIECEWISE_BEZIER_KNOTS.);
#540 = CARTESIAN_POINT('',(-9.501,24.3477531699,-24.749));
#541 = CARTESIAN_POINT('',(-9.349,24.3477531699,-24.901));
#542 = CARTESIAN_POINT('',(-9.501,147.826,-24.749));
#543 = CARTESIAN_POINT('',(-9.349,147.826,-24.901));
#544 = ADVANCED_FACE('',(#545),#608,.T.);
#545 = FACE_BOUND('',#546,.T.);
#546 = EDGE_LOOP('',(#547,#548,#549,#556,#564,#571,#579,#587,#594,#602,
    #607));
#547 = ORIENTED_EDGE('',*,*,#446,.F.);
#548 = ORIENTED_EDGE('',*,*,#483,.F.);
#549 = ORIENTED_EDGE('',*,*,#550,.F.);
#550 = EDGE_CURVE('',#551,#477,#553,.T.);
#551 = VERTEX_POINT('',#552);
#552 = CARTESIAN_POINT('',(13.433,23.38631027116,-24.9));
#553 = B_SPLINE_CURVE_WITH_KNOTS('',1,(#554,#555),.UNSPECIFIED.,.F.,.F.,
  (2,2),(0.,1.),.PIECEWISE_BEZIER_KNOTS.);
#554 = CARTESIAN_POINT('',(13.433,23.38631027116,-24.9));
#555 = CARTESIAN_POINT('',(15.25,24.43535571028,-24.9));
#556 = ORIENTED_EDGE('',*,*,#557,.F.);
#557 = EDGE_CURVE('',#558,#551,#560,.T.);
#558 = VERTEX_POINT('',#559);
#559 = CARTESIAN_POINT('',(5.358,9.40000000004,-24.9));
#560 = ( BOUNDED_CURVE() B_SPLINE_CURVE(2,(#561,#562,#563),
.UNSPECIFIED.,.F.,.F.) B_SPLINE_CURVE_WITH_KNOTS((3,3),(
1.638527241472E-13,60.000000000001),.PIECEWISE_BEZIER_KNOTS.) CURVE() 
GEOMETRIC_REPRESENTATION_ITEM() RATIONAL_B_SPLINE_CURVE((1.,
0.866025403784,1.)) REPRESENTATION_ITEM('') );
#561 = CARTESIAN_POINT('',(5.358,9.40000000004,-24.9));
#562 = CARTESIAN_POINT('',(5.358,18.72420684746,-24.9));
#563 = CARTESIAN_POINT('',(13.433,23.38631027116,-24.9));
#564 = ORIENTED_EDGE('',*,*,#565,.F.);
#565 = EDGE_CURVE('',#566,#558,#568,.T.);
#566 = VERTEX_POINT('',#567);
#567 = CARTESIAN_POINT('',(5.358,1.000000039994E-03,-24.9));
#568 = B_SPLINE_CURVE_WITH_KNOTS('',1,(#569,#570),.UNSPECIFIED.,.F.,.F.,
  (2,2),(0.,1.),.PIECEWISE_BEZIER_KNOTS.);
#569 = CARTESIAN_POINT('',(5.358,1.000000039994E-03,-24.9));
#570 = CARTESIAN_POINT('',(5.358,9.40000000004,-24.9));
#571 = ORIENTED_EDGE('',*,*,#572,.F.);
#572 = EDGE_CURVE('',#573,#566,#575,.T.);
#573 = VERTEX_POINT('',#574);
#574 = CARTESIAN_POINT('',(2.95,-2.40699999996,-24.9));
#575 = ( BOUNDED_CURVE() B_SPLINE_CURVE(2,(#576,#577,#578),
.UNSPECIFIED.,.F.,.F.) B_SPLINE_CURVE_WITH_KNOTS((3,3),(0.,90.),
.PIECEWISE_BEZIER_KNOTS.) CURVE() GEOMETRIC_REPRESENTATION_ITEM() 
RATIONAL_B_SPLINE_CURVE((1.,0.707106781187,1.)) REPRESENTATION_ITEM('') 
  );
#576 = CARTESIAN_POINT('',(2.95,-2.40699999996,-24.9));
#577 = CARTESIAN_POINT('',(5.358,-2.40699999996,-24.9));
#578 = CARTESIAN_POINT('',(5.358,1.000000039994E-03,-24.9));
#579 = ORIENTED_EDGE('',*,*,#580,.F.);
#580 = EDGE_CURVE('',#581,#573,#583,.T.);
#581 = VERTEX_POINT('',#582);
#582 = CARTESIAN_POINT('',(0.542,1.000000039994E-03,-24.9));
#583 = ( BOUNDED_CURVE() B_SPLINE_CURVE(2,(#584,#585,#586),
.UNSPECIFIED.,.F.,.F.) B_SPLINE_CURVE_WITH_KNOTS((3,3),(
1.690660295795E-13,90.),.PIECEWISE_BEZIER_KNOTS.) CURVE() 
GEOMETRIC_REPRESENTATION_ITEM() RATIONAL_B_SPLINE_CURVE((1.,
0.707106781187,1.)) REPRESENTATION_ITEM('') );
#584 = CARTESIAN_POINT('',(0.542,1.000000039994E-03,-24.9));
#585 = CARTESIAN_POINT('',(0.542,-2.40699999996,-24.9));
#586 = CARTESIAN_POINT('',(2.95,-2.40699999996,-24.9));
#587 = ORIENTED_EDGE('',*,*,#588,.F.);
#588 = EDGE_CURVE('',#589,#581,#591,.T.);
#589 = VERTEX_POINT('',#590);
#590 = CARTESIAN_POINT('',(0.542,9.40000000004,-24.9));
#591 = B_SPLINE_CURVE_WITH_KNOTS('',1,(#592,#593),.UNSPECIFIED.,.F.,.F.,
  (2,2),(0.,1.),.PIECEWISE_BEZIER_KNOTS.);
#592 = CARTESIAN_POINT('',(0.542,9.40000000004,-24.9));
#593 = CARTESIAN_POINT('',(0.542,1.000000039994E-03,-24.9));
#594 = ORIENTED_EDGE('',*,*,#595,.F.);
#595 = EDGE_CURVE('',#596,#589,#598,.T.);
#596 = VERTEX_POINT('',#597);
#597 = CARTESIAN_POINT('',(-7.533,23.38631027116,-24.9));
#598 = ( BOUNDED_CURVE() B_SPLINE_CURVE(2,(#599,#600,#601),
.UNSPECIFIED.,.F.,.F.) B_SPLINE_CURVE_WITH_KNOTS((3,3),(0.,
59.999999999995),.PIECEWISE_BEZIER_KNOTS.) CURVE() 
GEOMETRIC_REPRESENTATION_ITEM() RATIONAL_B_SPLINE_CURVE((1.,
0.866025403784,1.)) REPRESENTATION_ITEM('') );
#599 = CARTESIAN_POINT('',(-7.533,23.38631027116,-24.9));
#600 = CARTESIAN_POINT('',(0.542,18.72420684746,-24.9));
#601 = CARTESIAN_POINT('',(0.542,9.40000000004,-24.9));
#602 = ORIENTED_EDGE('',*,*,#603,.F.);
#603 = EDGE_CURVE('',#521,#596,#604,.T.);
#604 = B_SPLINE_CURVE_WITH_KNOTS('',1,(#605,#606),.UNSPECIFIED.,.F.,.F.,
  (2,2),(0.,1.),.PIECEWISE_BEZIER_KNOTS.);
#605 = CARTESIAN_POINT('',(-9.35,24.43535571028,-24.9));
#606 = CARTESIAN_POINT('',(-7.533,23.38631027116,-24.9));
#607 = ORIENTED_EDGE('',*,*,#520,.F.);
#608 = B_SPLINE_SURFACE_WITH_KNOTS('',1,1,(
    (#609,#610)
    ,(#611,#612
  )),.UNSPECIFIED.,.F.,.F.,.F.,(2,2),(2,2),(-76.001,74.158),(-12.301,
    12.301),.PIECEWISE_BEZIER_KNOTS.);
#609 = CARTESIAN_POINT('',(-9.351,-2.40799999996,-24.9));
#610 = CARTESIAN_POINT('',(15.251,-2.40799999996,-24.9));
#611 = CARTESIAN_POINT('',(-9.351,147.751,-24.9));
#612 = CARTESIAN_POINT('',(15.251,147.751,-24.9));
#613 = ADVANCED_FACE('',(#614),#630,.T.);
#614 = FACE_BOUND('',#615,.T.);
#615 = EDGE_LOOP('',(#616,#623,#628,#629));
#616 = ORIENTED_EDGE('',*,*,#617,.T.);
#617 = EDGE_CURVE('',#470,#618,#620,.T.);
#618 = VERTEX_POINT('',#619);
#619 = CARTESIAN_POINT('',(13.508,23.2564064606,-24.75));
#620 = B_SPLINE_CURVE_WITH_KNOTS('',1,(#621,#622),.UNSPECIFIED.,.F.,.F.,
  (2,2),(0.,1.),.PIECEWISE_BEZIER_KNOTS.);
#621 = CARTESIAN_POINT('',(15.4,24.3487531699,-24.75));
#622 = CARTESIAN_POINT('',(13.508,23.2564064606,-24.75));
#623 = ORIENTED_EDGE('',*,*,#624,.T.);
#624 = EDGE_CURVE('',#618,#551,#625,.T.);
#625 = B_SPLINE_CURVE_WITH_KNOTS('',1,(#626,#627),.UNSPECIFIED.,.F.,.F.,
  (2,2),(0.,1.),.PIECEWISE_BEZIER_KNOTS.);
#626 = CARTESIAN_POINT('',(13.508,23.2564064606,-24.75));
#627 = CARTESIAN_POINT('',(13.433,23.38631027116,-24.9));
#628 = ORIENTED_EDGE('',*,*,#550,.T.);
#629 = ORIENTED_EDGE('',*,*,#476,.F.);
#630 = B_SPLINE_SURFACE_WITH_KNOTS('',1,1,(
    (#631,#632)
    ,(#633,#634
    )),.UNSPECIFIED.,.F.,.F.,.F.,(2,2),(2,2),(-4.457821850514,
    -3.465600770951),(-10.74698877922,-8.591197583773),
  .PIECEWISE_BEZIER_KNOTS.);
#631 = CARTESIAN_POINT('',(13.403533493649,23.22949140369,
    -24.77892413015));
#632 = CARTESIAN_POINT('',(15.420091506351,23.72846010861,
    -24.20276469795));
#633 = CARTESIAN_POINT('',(13.403533493649,23.97954003859,
    -25.42848530204));
#634 = CARTESIAN_POINT('',(15.420091506351,24.4785087435,-24.85232586984
    ));
#635 = ADVANCED_FACE('',(#636),#651,.T.);
#636 = FACE_BOUND('',#637,.T.);
#637 = EDGE_LOOP('',(#638,#643,#644,#645));
#638 = ORIENTED_EDGE('',*,*,#639,.T.);
#639 = EDGE_CURVE('',#127,#558,#640,.T.);
#640 = B_SPLINE_CURVE_WITH_KNOTS('',1,(#641,#642),.UNSPECIFIED.,.F.,.F.,
  (2,2),(0.,1.),.PIECEWISE_BEZIER_KNOTS.);
#641 = CARTESIAN_POINT('',(5.508,9.40000000004,-24.75));
#642 = CARTESIAN_POINT('',(5.358,9.40000000004,-24.9));
#643 = ORIENTED_EDGE('',*,*,#557,.T.);
#644 = ORIENTED_EDGE('',*,*,#624,.F.);
#645 = ORIENTED_EDGE('',*,*,#646,.T.);
#646 = EDGE_CURVE('',#618,#127,#647,.T.);
#647 = ( BOUNDED_CURVE() B_SPLINE_CURVE(2,(#648,#649,#650),
.UNSPECIFIED.,.F.,.F.) B_SPLINE_CURVE_WITH_KNOTS((3,3),(
2.862499213317E-14,60.),.PIECEWISE_BEZIER_KNOTS.) CURVE() 
GEOMETRIC_REPRESENTATION_ITEM() RATIONAL_B_SPLINE_CURVE((1.,
0.866025403784,1.)) REPRESENTATION_ITEM('') );
#648 = CARTESIAN_POINT('',(13.508,23.2564064606,-24.75));
#649 = CARTESIAN_POINT('',(5.508,18.63760430708,-24.75));
#650 = CARTESIAN_POINT('',(5.508,9.40000000004,-24.75));
#651 = ( BOUNDED_SURFACE() B_SPLINE_SURFACE(2,1,(
    (#652,#653)
    ,(#654,#655)
    ,(#656,#657)
    ,(#658,#659)
    ,(#660,#661)
    ,(#662,#663)
    ,(#664,#665)
    ,(#666,#667)
,(#668,#669
    )),.UNSPECIFIED.,.T.,.F.,.F.) B_SPLINE_SURFACE_WITH_KNOTS((1,2,2,2,2
    ,2,1),(2,2),(-0.25,0.,0.25,0.5,0.75,1.,1.25),(0.,1.),.UNSPECIFIED.) 
GEOMETRIC_REPRESENTATION_ITEM() RATIONAL_B_SPLINE_SURFACE((
    (1.,1.)
    ,(0.707106781187,0.707106781187)
    ,(1.,1.)
    ,(0.707106781187,0.707106781187)
    ,(1.,1.)
    ,(0.707106781187,0.707106781187)
    ,(1.,1.)
    ,(0.707106781187,0.707106781187)
,(1.,1.))) REPRESENTATION_ITEM('') SURFACE() );
#652 = CARTESIAN_POINT('',(28.362902144256,24.02412792594,-24.901));
#653 = CARTESIAN_POINT('',(28.298389412784,23.88649759686,
    -24.74899999999));
#654 = CARTESIAN_POINT('',(42.987030070148,17.16922578168,-24.901));
#655 = CARTESIAN_POINT('',(42.784887009601,17.09610818408,
    -24.74899999999));
#656 = CARTESIAN_POINT('',(36.132127925892,2.54509785579,-24.901));
#657 = CARTESIAN_POINT('',(35.994497596817,2.60961058726,-24.74899999999
    ));
#658 = CARTESIAN_POINT('',(29.277225781636,-12.0790300701,-24.901));
#659 = CARTESIAN_POINT('',(29.204108184033,-11.87688700956,
    -24.74899999999));
#660 = CARTESIAN_POINT('',(14.653097855744,-5.22412792585,-24.901));
#661 = CARTESIAN_POINT('',(14.717610587216,-5.08649759677,
    -24.74899999999));
#662 = CARTESIAN_POINT('',(2.896992986E-02,1.63077421841,-24.901));
#663 = CARTESIAN_POINT('',(0.2311129904,1.70389181601,-24.74899999999));
#664 = CARTESIAN_POINT('',(6.883872074108,16.2549021443,-24.901));
#665 = CARTESIAN_POINT('',(7.021502403183,16.19038941283,-24.74899999999
    ));
#666 = CARTESIAN_POINT('',(13.738774218364,30.87903007019,-24.901));
#667 = CARTESIAN_POINT('',(13.811891815968,30.67688700965,
    -24.74899999999));
#668 = CARTESIAN_POINT('',(28.362902144256,24.02412792594,-24.901));
#669 = CARTESIAN_POINT('',(28.298389412784,23.88649759686,
    -24.74899999999));
#670 = ADVANCED_FACE('',(#671),#681,.T.);
#671 = FACE_BOUND('',#672,.T.);
#672 = EDGE_LOOP('',(#673,#678,#679,#680));
#673 = ORIENTED_EDGE('',*,*,#674,.T.);
#674 = EDGE_CURVE('',#120,#566,#675,.T.);
#675 = B_SPLINE_CURVE_WITH_KNOTS('',1,(#676,#677),.UNSPECIFIED.,.F.,.F.,
  (2,2),(0.,1.),.PIECEWISE_BEZIER_KNOTS.);
#676 = CARTESIAN_POINT('',(5.508,1.000000039994E-03,-24.75));
#677 = CARTESIAN_POINT('',(5.358,1.000000039994E-03,-24.9));
#678 = ORIENTED_EDGE('',*,*,#565,.T.);
#679 = ORIENTED_EDGE('',*,*,#639,.F.);
#680 = ORIENTED_EDGE('',*,*,#126,.T.);
#681 = B_SPLINE_SURFACE_WITH_KNOTS('',1,1,(
    (#682,#683)
    ,(#684,#685
    )),.UNSPECIFIED.,.F.,.F.,.F.,(2,2),(2,2),(-40.575,-31.174),(
    -0.10748023074,0.10748023074),.PIECEWISE_BEZIER_KNOTS.);
#682 = CARTESIAN_POINT('',(5.357,3.998934516858E-11,-24.901));
#683 = CARTESIAN_POINT('',(5.509,3.998934516858E-11,-24.749));
#684 = CARTESIAN_POINT('',(5.357,9.40100000004,-24.901));
#685 = CARTESIAN_POINT('',(5.509,9.40100000004,-24.749));
#686 = ADVANCED_FACE('',(#687),#704,.T.);
#687 = FACE_BOUND('',#688,.T.);
#688 = EDGE_LOOP('',(#689,#696,#697,#698));
#689 = ORIENTED_EDGE('',*,*,#690,.T.);
#690 = EDGE_CURVE('',#691,#573,#693,.T.);
#691 = VERTEX_POINT('',#692);
#692 = CARTESIAN_POINT('',(2.95,-2.55699999996,-24.75));
#693 = B_SPLINE_CURVE_WITH_KNOTS('',1,(#694,#695),.UNSPECIFIED.,.F.,.F.,
  (2,2),(0.,1.),.PIECEWISE_BEZIER_KNOTS.);
#694 = CARTESIAN_POINT('',(2.95,-2.55699999996,-24.75));
#695 = CARTESIAN_POINT('',(2.95,-2.40699999996,-24.9));
#696 = ORIENTED_EDGE('',*,*,#572,.T.);
#697 = ORIENTED_EDGE('',*,*,#674,.F.);
#698 = ORIENTED_EDGE('',*,*,#699,.T.);
#699 = EDGE_CURVE('',#120,#691,#700,.T.);
#700 = ( BOUNDED_CURVE() B_SPLINE_CURVE(2,(#701,#702,#703),
.UNSPECIFIED.,.F.,.F.) B_SPLINE_CURVE_WITH_KNOTS((3,3),(0.,90.),
.PIECEWISE_BEZIER_KNOTS.) CURVE() GEOMETRIC_REPRESENTATION_ITEM() 
RATIONAL_B_SPLINE_CURVE((1.,0.707106781187,1.)) REPRESENTATION_ITEM('') 
  );
#701 = CARTESIAN_POINT('',(5.508,1.000000039994E-03,-24.75));
#702 = CARTESIAN_POINT('',(5.508,-2.55699999996,-24.75));
#703 = CARTESIAN_POINT('',(2.95,-2.55699999996,-24.75));
#704 = ( BOUNDED_SURFACE() B_SPLINE_SURFACE(2,1,(
    (#705,#706)
    ,(#707,#708)
    ,(#709,#710)
    ,(#711,#712)
    ,(#713,#714)
    ,(#715,#716)
    ,(#717,#718)
    ,(#719,#720)
,(#721,#722
    )),.UNSPECIFIED.,.T.,.F.,.F.) B_SPLINE_SURFACE_WITH_KNOTS((1,2,2,2,2
    ,2,1),(2,2),(-0.25,0.,0.25,0.5,0.75,1.,1.25),(0.,1.),.UNSPECIFIED.) 
GEOMETRIC_REPRESENTATION_ITEM() RATIONAL_B_SPLINE_SURFACE((
    (1.,1.)
    ,(0.707106781187,0.707106781187)
    ,(1.,1.)
    ,(0.707106781187,0.707106781187)
    ,(1.,1.)
    ,(0.707106781187,0.707106781187)
    ,(1.,1.)
    ,(0.707106781187,0.707106781187)
,(1.,1.))) REPRESENTATION_ITEM('') SURFACE() );
#705 = CARTESIAN_POINT('',(2.95,-2.40599999996,-24.901));
#706 = CARTESIAN_POINT('',(2.95,-2.55799999996,-24.749));
#707 = CARTESIAN_POINT('',(5.357,-2.40599999996,-24.901));
#708 = CARTESIAN_POINT('',(5.509,-2.55799999996,-24.749));
#709 = CARTESIAN_POINT('',(5.357,1.000000039994E-03,-24.901));
#710 = CARTESIAN_POINT('',(5.509,1.000000039994E-03,-24.749));
#711 = CARTESIAN_POINT('',(5.357,2.40800000004,-24.901));
#712 = CARTESIAN_POINT('',(5.509,2.56000000004,-24.749));
#713 = CARTESIAN_POINT('',(2.95,2.40800000004,-24.901));
#714 = CARTESIAN_POINT('',(2.95,2.56000000004,-24.749));
#715 = CARTESIAN_POINT('',(0.543,2.40800000004,-24.901));
#716 = CARTESIAN_POINT('',(0.391,2.56000000004,-24.749));
#717 = CARTESIAN_POINT('',(0.543,1.000000039994E-03,-24.901));
#718 = CARTESIAN_POINT('',(0.391,1.000000039994E-03,-24.749));
#719 = CARTESIAN_POINT('',(0.543,-2.40599999996,-24.901));
#720 = CARTESIAN_POINT('',(0.391,-2.55799999996,-24.749));
#721 = CARTESIAN_POINT('',(2.95,-2.40599999996,-24.901));
#722 = CARTESIAN_POINT('',(2.95,-2.55799999996,-24.749));
#723 = ADVANCED_FACE('',(#724),#738,.T.);
#724 = FACE_BOUND('',#725,.T.);
#725 = EDGE_LOOP('',(#726,#731,#732,#737));
#726 = ORIENTED_EDGE('',*,*,#727,.T.);
#727 = EDGE_CURVE('',#148,#589,#728,.T.);
#728 = B_SPLINE_CURVE_WITH_KNOTS('',1,(#729,#730),.UNSPECIFIED.,.F.,.F.,
  (2,2),(0.,1.),.PIECEWISE_BEZIER_KNOTS.);
#729 = CARTESIAN_POINT('',(0.392,9.40000000004,-24.75));
#730 = CARTESIAN_POINT('',(0.542,9.40000000004,-24.9));
#731 = ORIENTED_EDGE('',*,*,#588,.T.);
#732 = ORIENTED_EDGE('',*,*,#733,.F.);
#733 = EDGE_CURVE('',#155,#581,#734,.T.);
#734 = B_SPLINE_CURVE_WITH_KNOTS('',1,(#735,#736),.UNSPECIFIED.,.F.,.F.,
  (2,2),(0.,1.),.PIECEWISE_BEZIER_KNOTS.);
#735 = CARTESIAN_POINT('',(0.392,1.000000039994E-03,-24.75));
#736 = CARTESIAN_POINT('',(0.542,1.000000039994E-03,-24.9));
#737 = ORIENTED_EDGE('',*,*,#154,.T.);
#738 = B_SPLINE_SURFACE_WITH_KNOTS('',1,1,(
    (#739,#740)
    ,(#741,#742
    )),.UNSPECIFIED.,.F.,.F.,.F.,(2,2),(2,2),(-40.575,-31.174),(
    -0.10748023074,0.10748023074),.PIECEWISE_BEZIER_KNOTS.);
#739 = CARTESIAN_POINT('',(0.391,3.998934516858E-11,-24.749));
#740 = CARTESIAN_POINT('',(0.543,3.998934516858E-11,-24.901));
#741 = CARTESIAN_POINT('',(0.391,9.40100000004,-24.749));
#742 = CARTESIAN_POINT('',(0.543,9.40100000004,-24.901));
#743 = ADVANCED_FACE('',(#744),#761,.T.);
#744 = FACE_BOUND('',#745,.T.);
#745 = EDGE_LOOP('',(#746,#753,#754,#755));
#746 = ORIENTED_EDGE('',*,*,#747,.T.);
#747 = EDGE_CURVE('',#748,#596,#750,.T.);
#748 = VERTEX_POINT('',#749);
#749 = CARTESIAN_POINT('',(-7.608,23.2564064606,-24.75));
#750 = B_SPLINE_CURVE_WITH_KNOTS('',1,(#751,#752),.UNSPECIFIED.,.F.,.F.,
  (2,2),(0.,1.),.PIECEWISE_BEZIER_KNOTS.);
#751 = CARTESIAN_POINT('',(-7.608,23.2564064606,-24.75));
#752 = CARTESIAN_POINT('',(-7.533,23.38631027116,-24.9));
#753 = ORIENTED_EDGE('',*,*,#595,.T.);
#754 = ORIENTED_EDGE('',*,*,#727,.F.);
#755 = ORIENTED_EDGE('',*,*,#756,.T.);
#756 = EDGE_CURVE('',#148,#748,#757,.T.);
#757 = ( BOUNDED_CURVE() B_SPLINE_CURVE(2,(#758,#759,#760),
.UNSPECIFIED.,.F.,.F.) B_SPLINE_CURVE_WITH_KNOTS((3,3),(0.,60.),
.PIECEWISE_BEZIER_KNOTS.) CURVE() GEOMETRIC_REPRESENTATION_ITEM() 
RATIONAL_B_SPLINE_CURVE((1.,0.866025403784,1.)) REPRESENTATION_ITEM('') 
  );
#758 = CARTESIAN_POINT('',(0.392,9.40000000004,-24.75));
#759 = CARTESIAN_POINT('',(0.392,18.63760430708,-24.75));
#760 = CARTESIAN_POINT('',(-7.608,23.2564064606,-24.75));
#761 = ( BOUNDED_SURFACE() B_SPLINE_SURFACE(2,1,(
    (#762,#763)
    ,(#764,#765)
    ,(#766,#767)
    ,(#768,#769)
    ,(#770,#771)
    ,(#772,#773)
    ,(#774,#775)
    ,(#776,#777)
,(#778,#779
    )),.UNSPECIFIED.,.T.,.F.,.F.) B_SPLINE_SURFACE_WITH_KNOTS((1,2,2,2,2
    ,2,1),(2,2),(-0.25,0.,0.25,0.5,0.75,1.,1.25),(0.,1.),.UNSPECIFIED.) 
GEOMETRIC_REPRESENTATION_ITEM() RATIONAL_B_SPLINE_SURFACE((
    (1.,1.)
    ,(0.707106781187,0.707106781187)
    ,(1.,1.)
    ,(0.707106781187,0.707106781187)
    ,(1.,1.)
    ,(0.707106781187,0.707106781187)
    ,(1.,1.)
    ,(0.707106781187,0.707106781187)
,(1.,1.))) REPRESENTATION_ITEM('') SURFACE() );
#762 = CARTESIAN_POINT('',(-6.31778605786,-3.81161329702,-24.90100000005
    ));
#763 = CARTESIAN_POINT('',(-6.40521795188,-3.68727640007,-24.74899999994
    ));
#764 = CARTESIAN_POINT('',(-19.52939935493,-13.10182723915,
    -24.90100000009));
#765 = CARTESIAN_POINT('',(-19.492494352,-12.89005844819,-24.74899999997
    ));
#766 = CARTESIAN_POINT('',(-28.81961329706,0.10978605791,-24.90100000009
    ));
#767 = CARTESIAN_POINT('',(-28.69527640011,0.19721795193,-24.74899999997
    ));
#768 = CARTESIAN_POINT('',(-38.10982723919,13.32139935498,
    -24.90100000009));
#769 = CARTESIAN_POINT('',(-37.89805844823,13.28449435205,
    -24.74899999997));
#770 = CARTESIAN_POINT('',(-24.89821394213,22.61161329711,
    -24.90100000005));
#771 = CARTESIAN_POINT('',(-24.81078204811,22.48727640016,
    -24.74899999994));
#772 = CARTESIAN_POINT('',(-11.68660064506,31.90182723924,
    -24.90100000002));
#773 = CARTESIAN_POINT('',(-11.72350564799,31.69005844828,-24.7489999999
    ));
#774 = CARTESIAN_POINT('',(-2.39638670293,18.69021394218,-24.90100000002
    ));
#775 = CARTESIAN_POINT('',(-2.52072359988,18.60278204816,-24.7489999999)
  );
#776 = CARTESIAN_POINT('',(6.893827239199,5.47860064511,-24.90100000002)
  );
#777 = CARTESIAN_POINT('',(6.682058448231,5.51550564804,-24.7489999999)
  );
#778 = CARTESIAN_POINT('',(-6.31778605786,-3.81161329702,-24.90100000005
    ));
#779 = CARTESIAN_POINT('',(-6.40521795188,-3.68727640007,-24.74899999994
    ));
#780 = ADVANCED_FACE('',(#781),#791,.T.);
#781 = FACE_BOUND('',#782,.T.);
#782 = EDGE_LOOP('',(#783,#784,#785,#790));
#783 = ORIENTED_EDGE('',*,*,#603,.T.);
#784 = ORIENTED_EDGE('',*,*,#747,.F.);
#785 = ORIENTED_EDGE('',*,*,#786,.T.);
#786 = EDGE_CURVE('',#748,#528,#787,.T.);
#787 = B_SPLINE_CURVE_WITH_KNOTS('',1,(#788,#789),.UNSPECIFIED.,.F.,.F.,
  (2,2),(0.,1.),.PIECEWISE_BEZIER_KNOTS.);
#788 = CARTESIAN_POINT('',(-7.608,23.2564064606,-24.75));
#789 = CARTESIAN_POINT('',(-9.5,24.3487531699,-24.75));
#790 = ORIENTED_EDGE('',*,*,#527,.F.);
#791 = B_SPLINE_SURFACE_WITH_KNOTS('',1,1,(
    (#792,#793)
    ,(#794,#795
    )),.UNSPECIFIED.,.F.,.F.,.F.,(2,2),(2,2),(-4.457821850514,
    -3.465600770951),(8.591197583773,10.746988779225),
  .PIECEWISE_BEZIER_KNOTS.);
#792 = CARTESIAN_POINT('',(-9.52009150635,23.72846010861,-24.20276469795
    ));
#793 = CARTESIAN_POINT('',(-7.50353349364,23.22949140369,-24.77892413015
    ));
#794 = CARTESIAN_POINT('',(-9.52009150635,24.4785087435,-24.85232586984)
  );
#795 = CARTESIAN_POINT('',(-7.50353349364,23.97954003859,-25.42848530204
    ));
#796 = ADVANCED_FACE('',(#797),#813,.T.);
#797 = FACE_BOUND('',#798,.T.);
#798 = EDGE_LOOP('',(#799,#800,#801,#808));
#799 = ORIENTED_EDGE('',*,*,#360,.F.);
#800 = ORIENTED_EDGE('',*,*,#534,.F.);
#801 = ORIENTED_EDGE('',*,*,#802,.T.);
#802 = EDGE_CURVE('',#528,#803,#805,.T.);
#803 = VERTEX_POINT('',#804);
#804 = CARTESIAN_POINT('',(-9.5,24.3487531699,-0.15));
#805 = B_SPLINE_CURVE_WITH_KNOTS('',1,(#806,#807),.UNSPECIFIED.,.F.,.F.,
  (2,2),(0.,1.),.PIECEWISE_BEZIER_KNOTS.);
#806 = CARTESIAN_POINT('',(-9.5,24.3487531699,-24.75));
#807 = CARTESIAN_POINT('',(-9.5,24.3487531699,-0.15));
#808 = ORIENTED_EDGE('',*,*,#809,.F.);
#809 = EDGE_CURVE('',#361,#803,#810,.T.);
#810 = B_SPLINE_CURVE_WITH_KNOTS('',1,(#811,#812),.UNSPECIFIED.,.F.,.F.,
  (2,2),(0.,1.),.PIECEWISE_BEZIER_KNOTS.);
#811 = CARTESIAN_POINT('',(-9.5,147.75,-0.15));
#812 = CARTESIAN_POINT('',(-9.5,24.3487531699,-0.15));
#813 = B_SPLINE_SURFACE_WITH_KNOTS('',1,1,(
    (#814,#815)
    ,(#816,#817
    )),.UNSPECIFIED.,.F.,.F.,.F.,(2,2),(2,2),(0.499,123.90224683014),(
    0.149,24.751),.PIECEWISE_BEZIER_KNOTS.);
#814 = CARTESIAN_POINT('',(-9.5,147.751,-24.751));
#815 = CARTESIAN_POINT('',(-9.5,147.751,-0.149));
#816 = CARTESIAN_POINT('',(-9.5,24.3477531699,-24.751));
#817 = CARTESIAN_POINT('',(-9.5,24.3477531699,-0.149));
#818 = ADVANCED_FACE('',(#819),#835,.T.);
#819 = FACE_BOUND('',#820,.T.);
#820 = EDGE_LOOP('',(#821,#822,#829,#834));
#821 = ORIENTED_EDGE('',*,*,#786,.F.);
#822 = ORIENTED_EDGE('',*,*,#823,.T.);
#823 = EDGE_CURVE('',#748,#824,#826,.T.);
#824 = VERTEX_POINT('',#825);
#825 = CARTESIAN_POINT('',(-7.608,23.2564064606,-0.15));
#826 = B_SPLINE_CURVE_WITH_KNOTS('',1,(#827,#828),.UNSPECIFIED.,.F.,.F.,
  (2,2),(0.,1.),.PIECEWISE_BEZIER_KNOTS.);
#827 = CARTESIAN_POINT('',(-7.608,23.2564064606,-24.75));
#828 = CARTESIAN_POINT('',(-7.608,23.2564064606,-0.15));
#829 = ORIENTED_EDGE('',*,*,#830,.F.);
#830 = EDGE_CURVE('',#803,#824,#831,.T.);
#831 = B_SPLINE_CURVE_WITH_KNOTS('',1,(#832,#833),.UNSPECIFIED.,.F.,.F.,
  (2,2),(0.,1.),.PIECEWISE_BEZIER_KNOTS.);
#832 = CARTESIAN_POINT('',(-9.5,24.3487531699,-0.15));
#833 = CARTESIAN_POINT('',(-7.608,23.2564064606,-0.15));
#834 = ORIENTED_EDGE('',*,*,#802,.F.);
#835 = B_SPLINE_SURFACE_WITH_KNOTS('',1,1,(
    (#836,#837)
    ,(#838,#839
    )),.UNSPECIFIED.,.F.,.F.,.F.,(2,2),(2,2),(5.772136666493,
    7.959562135914),(-24.751,-0.149),.PIECEWISE_BEZIER_KNOTS.);
#836 = CARTESIAN_POINT('',(-9.5011830127,24.3494361826,-24.751));
#837 = CARTESIAN_POINT('',(-9.5011830127,24.3494361826,-0.149));
#838 = CARTESIAN_POINT('',(-7.60681698729,23.25572344789,-24.751));
#839 = CARTESIAN_POINT('',(-7.60681698729,23.25572344789,-0.149));
#840 = ADVANCED_FACE('',(#841),#852,.T.);
#841 = FACE_BOUND('',#842,.T.);
#842 = EDGE_LOOP('',(#843,#844,#845,#851));
#843 = ORIENTED_EDGE('',*,*,#756,.F.);
#844 = ORIENTED_EDGE('',*,*,#147,.T.);
#845 = ORIENTED_EDGE('',*,*,#846,.F.);
#846 = EDGE_CURVE('',#824,#59,#847,.T.);
#847 = ( BOUNDED_CURVE() B_SPLINE_CURVE(2,(#848,#849,#850),
.UNSPECIFIED.,.F.,.F.) B_SPLINE_CURVE_WITH_KNOTS((3,3),(
2.226388277024E-14,60.),.PIECEWISE_BEZIER_KNOTS.) CURVE() 
GEOMETRIC_REPRESENTATION_ITEM() RATIONAL_B_SPLINE_CURVE((1.,
0.866025403784,1.)) REPRESENTATION_ITEM('') );
#848 = CARTESIAN_POINT('',(-7.608,23.2564064606,-0.15));
#849 = CARTESIAN_POINT('',(0.392,18.63760430708,-0.15));
#850 = CARTESIAN_POINT('',(0.392,9.40000000004,-0.15));
#851 = ORIENTED_EDGE('',*,*,#823,.F.);
#852 = ( BOUNDED_SURFACE() B_SPLINE_SURFACE(2,1,(
    (#853,#854)
    ,(#855,#856)
    ,(#857,#858)
    ,(#859,#860)
    ,(#861,#862)
    ,(#863,#864)
    ,(#865,#866)
    ,(#867,#868)
,(#869,#870
    )),.UNSPECIFIED.,.T.,.F.,.F.) B_SPLINE_SURFACE_WITH_KNOTS((1,2,2,2,2
    ,2,1),(2,2),(-0.25,0.,0.25,0.5,0.75,1.,1.25),(0.,1.),.UNSPECIFIED.) 
GEOMETRIC_REPRESENTATION_ITEM() RATIONAL_B_SPLINE_SURFACE((
    (1.,1.)
    ,(0.707106781187,0.707106781187)
    ,(1.,1.)
    ,(0.707106781187,0.707106781187)
    ,(1.,1.)
    ,(0.707106781187,0.707106781187)
    ,(1.,1.)
    ,(0.707106781187,0.707106781187)
,(1.,1.))) REPRESENTATION_ITEM('') SURFACE() );
#853 = CARTESIAN_POINT('',(-7.608,23.2564064606,-27.2112));
#854 = CARTESIAN_POINT('',(-7.608,23.2564064606,2.3112));
#855 = CARTESIAN_POINT('',(6.248406460551,15.2564064606,-27.2112));
#856 = CARTESIAN_POINT('',(6.248406460551,15.2564064606,2.3112));
#857 = CARTESIAN_POINT('',(-1.75159353944,1.40000000004,-27.2112));
#858 = CARTESIAN_POINT('',(-1.75159353944,1.40000000004,2.3112));
#859 = CARTESIAN_POINT('',(-9.75159353944,-12.45640646051,-27.2112));
#860 = CARTESIAN_POINT('',(-9.75159353944,-12.45640646051,2.3112));
#861 = CARTESIAN_POINT('',(-23.608,-4.45640646051,-27.2112));
#862 = CARTESIAN_POINT('',(-23.608,-4.45640646051,2.3112));
#863 = CARTESIAN_POINT('',(-37.46440646055,3.54359353949,-27.2112));
#864 = CARTESIAN_POINT('',(-37.46440646055,3.54359353949,2.3112));
#865 = CARTESIAN_POINT('',(-29.46440646055,17.40000000004,-27.2112));
#866 = CARTESIAN_POINT('',(-29.46440646055,17.40000000004,2.3112));
#867 = CARTESIAN_POINT('',(-21.46440646055,31.2564064606,-27.2112));
#868 = CARTESIAN_POINT('',(-21.46440646055,31.2564064606,2.3112));
#869 = CARTESIAN_POINT('',(-7.608,23.2564064606,-27.2112));
#870 = CARTESIAN_POINT('',(-7.608,23.2564064606,2.3112));
#871 = ADVANCED_FACE('',(#872),#882,.T.);
#872 = FACE_BOUND('',#873,.T.);
#873 = EDGE_LOOP('',(#874,#879,#880,#881));
#874 = ORIENTED_EDGE('',*,*,#875,.T.);
#875 = EDGE_CURVE('',#274,#691,#876,.T.);
#876 = B_SPLINE_CURVE_WITH_KNOTS('',1,(#877,#878),.UNSPECIFIED.,.F.,.F.,
  (2,2),(0.,1.),.PIECEWISE_BEZIER_KNOTS.);
#877 = CARTESIAN_POINT('',(2.95,-2.55699999996,-2.28));
#878 = CARTESIAN_POINT('',(2.95,-2.55699999996,-24.75));
#879 = ORIENTED_EDGE('',*,*,#699,.F.);
#880 = ORIENTED_EDGE('',*,*,#119,.T.);
#881 = ORIENTED_EDGE('',*,*,#281,.F.);
#882 = ( BOUNDED_SURFACE() B_SPLINE_SURFACE(2,1,(
    (#883,#884)
    ,(#885,#886)
    ,(#887,#888)
    ,(#889,#890)
    ,(#891,#892)
    ,(#893,#894)
    ,(#895,#896)
    ,(#897,#898)
,(#899,#900
    )),.UNSPECIFIED.,.T.,.F.,.F.) B_SPLINE_SURFACE_WITH_KNOTS((1,2,2,2,2
    ,2,1),(2,2),(-0.25,0.,0.25,0.5,0.75,1.,1.25),(0.,1.),.UNSPECIFIED.) 
GEOMETRIC_REPRESENTATION_ITEM() RATIONAL_B_SPLINE_SURFACE((
    (1.,1.)
    ,(0.707106781187,0.707106781187)
    ,(1.,1.)
    ,(0.707106781187,0.707106781187)
    ,(1.,1.)
    ,(0.707106781187,0.707106781187)
    ,(1.,1.)
    ,(0.707106781187,0.707106781187)
,(1.,1.))) REPRESENTATION_ITEM('') SURFACE() );
#883 = CARTESIAN_POINT('',(2.95,-2.55699999996,-26.9982));
#884 = CARTESIAN_POINT('',(2.95,-2.55699999996,-3.18E-02));
#885 = CARTESIAN_POINT('',(5.508,-2.55699999996,-26.9982));
#886 = CARTESIAN_POINT('',(5.508,-2.55699999996,-3.18E-02));
#887 = CARTESIAN_POINT('',(5.508,1.000000039994E-03,-26.9982));
#888 = CARTESIAN_POINT('',(5.508,1.000000039994E-03,-3.18E-02));
#889 = CARTESIAN_POINT('',(5.508,2.55900000004,-26.9982));
#890 = CARTESIAN_POINT('',(5.508,2.55900000004,-3.18E-02));
#891 = CARTESIAN_POINT('',(2.95,2.55900000004,-26.9982));
#892 = CARTESIAN_POINT('',(2.95,2.55900000004,-3.18E-02));
#893 = CARTESIAN_POINT('',(0.392,2.55900000004,-26.9982));
#894 = CARTESIAN_POINT('',(0.392,2.55900000004,-3.18E-02));
#895 = CARTESIAN_POINT('',(0.392,1.000000039994E-03,-26.9982));
#896 = CARTESIAN_POINT('',(0.392,1.000000039994E-03,-3.18E-02));
#897 = CARTESIAN_POINT('',(0.392,-2.55699999996,-26.9982));
#898 = CARTESIAN_POINT('',(0.392,-2.55699999996,-3.18E-02));
#899 = CARTESIAN_POINT('',(2.95,-2.55699999996,-26.9982));
#900 = CARTESIAN_POINT('',(2.95,-2.55699999996,-3.18E-02));
#901 = ADVANCED_FACE('',(#902),#919,.T.);
#902 = FACE_BOUND('',#903,.T.);
#903 = EDGE_LOOP('',(#904,#905,#912,#918));
#904 = ORIENTED_EDGE('',*,*,#646,.F.);
#905 = ORIENTED_EDGE('',*,*,#906,.T.);
#906 = EDGE_CURVE('',#618,#907,#909,.T.);
#907 = VERTEX_POINT('',#908);
#908 = CARTESIAN_POINT('',(13.508,23.2564064606,-0.15));
#909 = B_SPLINE_CURVE_WITH_KNOTS('',1,(#910,#911),.UNSPECIFIED.,.F.,.F.,
  (2,2),(0.,1.),.PIECEWISE_BEZIER_KNOTS.);
#910 = CARTESIAN_POINT('',(13.508,23.2564064606,-24.75));
#911 = CARTESIAN_POINT('',(13.508,23.2564064606,-0.15));
#912 = ORIENTED_EDGE('',*,*,#913,.F.);
#913 = EDGE_CURVE('',#24,#907,#914,.T.);
#914 = ( BOUNDED_CURVE() B_SPLINE_CURVE(2,(#915,#916,#917),
.UNSPECIFIED.,.F.,.F.) B_SPLINE_CURVE_WITH_KNOTS((3,3),(0.,60.),
.PIECEWISE_BEZIER_KNOTS.) CURVE() GEOMETRIC_REPRESENTATION_ITEM() 
RATIONAL_B_SPLINE_CURVE((1.,0.866025403784,1.)) REPRESENTATION_ITEM('') 
  );
#915 = CARTESIAN_POINT('',(5.508,9.40000000004,-0.15));
#916 = CARTESIAN_POINT('',(5.508,18.63760430708,-0.15));
#917 = CARTESIAN_POINT('',(13.508,23.2564064606,-0.15));
#918 = ORIENTED_EDGE('',*,*,#133,.F.);
#919 = ( BOUNDED_SURFACE() B_SPLINE_SURFACE(2,1,(
    (#920,#921)
    ,(#922,#923)
    ,(#924,#925)
    ,(#926,#927)
    ,(#928,#929)
    ,(#930,#931)
    ,(#932,#933)
    ,(#934,#935)
,(#936,#937
    )),.UNSPECIFIED.,.T.,.F.,.F.) B_SPLINE_SURFACE_WITH_KNOTS((1,2,2,2,2
    ,2,1),(2,2),(-0.25,0.,0.25,0.5,0.75,1.,1.25),(0.,1.),.UNSPECIFIED.) 
GEOMETRIC_REPRESENTATION_ITEM() RATIONAL_B_SPLINE_SURFACE((
    (1.,1.)
    ,(0.707106781187,0.707106781187)
    ,(1.,1.)
    ,(0.707106781187,0.707106781187)
    ,(1.,1.)
    ,(0.707106781187,0.707106781187)
    ,(1.,1.)
    ,(0.707106781187,0.707106781187)
,(1.,1.))) REPRESENTATION_ITEM('') SURFACE() );
#920 = CARTESIAN_POINT('',(13.508,23.2564064606,2.3112));
#921 = CARTESIAN_POINT('',(13.508,23.2564064606,-27.2112));
#922 = CARTESIAN_POINT('',(-0.34840646055,15.2564064606,2.3112));
#923 = CARTESIAN_POINT('',(-0.34840646055,15.2564064606,-27.2112));
#924 = CARTESIAN_POINT('',(7.651593539449,1.40000000004,2.3112));
#925 = CARTESIAN_POINT('',(7.651593539449,1.40000000004,-27.2112));
#926 = CARTESIAN_POINT('',(15.651593539449,-12.45640646051,2.3112));
#927 = CARTESIAN_POINT('',(15.651593539449,-12.45640646051,-27.2112));
#928 = CARTESIAN_POINT('',(29.508,-4.45640646051,2.3112));
#929 = CARTESIAN_POINT('',(29.508,-4.45640646051,-27.2112));
#930 = CARTESIAN_POINT('',(43.364406460551,3.54359353949,2.3112));
#931 = CARTESIAN_POINT('',(43.364406460551,3.54359353949,-27.2112));
#932 = CARTESIAN_POINT('',(35.364406460551,17.40000000004,2.3112));
#933 = CARTESIAN_POINT('',(35.364406460551,17.40000000004,-27.2112));
#934 = CARTESIAN_POINT('',(27.364406460551,31.2564064606,2.3112));
#935 = CARTESIAN_POINT('',(27.364406460551,31.2564064606,-27.2112));
#936 = CARTESIAN_POINT('',(13.508,23.2564064606,2.3112));
#937 = CARTESIAN_POINT('',(13.508,23.2564064606,-27.2112));
#938 = ADVANCED_FACE('',(#939),#949,.T.);
#939 = FACE_BOUND('',#940,.T.);
#940 = EDGE_LOOP('',(#941,#942,#943,#948));
#941 = ORIENTED_EDGE('',*,*,#617,.F.);
#942 = ORIENTED_EDGE('',*,*,#505,.F.);
#943 = ORIENTED_EDGE('',*,*,#944,.F.);
#944 = EDGE_CURVE('',#907,#499,#945,.T.);
#945 = B_SPLINE_CURVE_WITH_KNOTS('',1,(#946,#947),.UNSPECIFIED.,.F.,.F.,
  (2,2),(0.,1.),.PIECEWISE_BEZIER_KNOTS.);
#946 = CARTESIAN_POINT('',(13.508,23.2564064606,-0.15));
#947 = CARTESIAN_POINT('',(15.4,24.3487531699,-0.15));
#948 = ORIENTED_EDGE('',*,*,#906,.F.);
#949 = B_SPLINE_SURFACE_WITH_KNOTS('',1,1,(
    (#950,#951)
    ,(#952,#953
    )),.UNSPECIFIED.,.F.,.F.,.F.,(2,2),(2,2),(5.772136666493,
    7.959562135914),(-24.751,-0.149),.PIECEWISE_BEZIER_KNOTS.);
#950 = CARTESIAN_POINT('',(13.506816987298,23.25572344789,-24.751));
#951 = CARTESIAN_POINT('',(13.506816987298,23.25572344789,-0.149));
#952 = CARTESIAN_POINT('',(15.401183012702,24.3494361826,-24.751));
#953 = CARTESIAN_POINT('',(15.401183012702,24.3494361826,-0.149));
#954 = ADVANCED_FACE('',(#955),#969,.T.);
#955 = FACE_BOUND('',#956,.T.);
#956 = EDGE_LOOP('',(#957,#958,#963,#964));
#957 = ORIENTED_EDGE('',*,*,#830,.T.);
#958 = ORIENTED_EDGE('',*,*,#959,.T.);
#959 = EDGE_CURVE('',#824,#243,#960,.T.);
#960 = B_SPLINE_CURVE_WITH_KNOTS('',1,(#961,#962),.UNSPECIFIED.,.F.,.F.,
  (2,2),(0.,1.),.PIECEWISE_BEZIER_KNOTS.);
#961 = CARTESIAN_POINT('',(-7.608,23.2564064606,-0.15));
#962 = CARTESIAN_POINT('',(-7.533,23.38631027116,-2.596402012407E-15));
#963 = ORIENTED_EDGE('',*,*,#242,.T.);
#964 = ORIENTED_EDGE('',*,*,#965,.T.);
#965 = EDGE_CURVE('',#236,#803,#966,.T.);
#966 = B_SPLINE_CURVE_WITH_KNOTS('',1,(#967,#968),.UNSPECIFIED.,.F.,.F.,
  (2,2),(0.,1.),.PIECEWISE_BEZIER_KNOTS.);
#967 = CARTESIAN_POINT('',(-9.35,24.43535571028,-2.712869452446E-15));
#968 = CARTESIAN_POINT('',(-9.5,24.3487531699,-0.15));
#969 = B_SPLINE_SURFACE_WITH_KNOTS('',1,1,(
    (#970,#971)
    ,(#972,#973
    )),.UNSPECIFIED.,.F.,.F.,.F.,(2,2),(2,2),(3.465600770951,
    4.457821850514),(8.591197583773,10.746988779225),
  .PIECEWISE_BEZIER_KNOTS.);
#970 = CARTESIAN_POINT('',(-9.52009150635,24.4785087435,
    -4.7674130155E-02));
#971 = CARTESIAN_POINT('',(-7.50353349364,23.97954003859,0.528485302045)
  );
#972 = CARTESIAN_POINT('',(-9.52009150635,23.72846010861,-0.697235302045
    ));
#973 = CARTESIAN_POINT('',(-7.50353349364,23.22949140369,-0.121075869844
    ));
#974 = ADVANCED_FACE('',(#975),#981,.T.);
#975 = FACE_BOUND('',#976,.T.);
#976 = EDGE_LOOP('',(#977,#978,#979,#980));
#977 = ORIENTED_EDGE('',*,*,#82,.T.);
#978 = ORIENTED_EDGE('',*,*,#249,.T.);
#979 = ORIENTED_EDGE('',*,*,#959,.F.);
#980 = ORIENTED_EDGE('',*,*,#846,.T.);
#981 = ( BOUNDED_SURFACE() B_SPLINE_SURFACE(2,1,(
    (#982,#983)
    ,(#984,#985)
    ,(#986,#987)
    ,(#988,#989)
    ,(#990,#991)
    ,(#992,#993)
    ,(#994,#995)
    ,(#996,#997)
,(#998,#999
    )),.UNSPECIFIED.,.T.,.F.,.F.) B_SPLINE_SURFACE_WITH_KNOTS((1,2,2,2,2
    ,2,1),(2,2),(-0.25,0.,0.25,0.5,0.75,1.,1.25),(0.,1.),.UNSPECIFIED.) 
GEOMETRIC_REPRESENTATION_ITEM() RATIONAL_B_SPLINE_SURFACE((
    (1.,1.)
    ,(0.707106781187,0.707106781187)
    ,(1.,1.)
    ,(0.707106781187,0.707106781187)
    ,(1.,1.)
    ,(0.707106781187,0.707106781187)
    ,(1.,1.)
    ,(0.707106781187,0.707106781187)
,(1.,1.))) REPRESENTATION_ITEM('') SURFACE() );
#982 = CARTESIAN_POINT('',(-22.46290214431,24.02412792606,1.00000014E-03
    ));
#983 = CARTESIAN_POINT('',(-22.39838941272,23.88649759674,
    -0.151000000136));
#984 = CARTESIAN_POINT('',(-37.08703007032,17.16922578175,
    1.000000067998E-03));
#985 = CARTESIAN_POINT('',(-36.88488700942,17.09610818401,
    -0.151000000207));
#986 = CARTESIAN_POINT('',(-30.23212792601,2.54509785573,1.000000068E-03
    ));
#987 = CARTESIAN_POINT('',(-30.09449759669,2.60961058732,-0.151000000207
    ));
#988 = CARTESIAN_POINT('',(-23.3772257817,-12.07903007028,
    1.000000068001E-03));
#989 = CARTESIAN_POINT('',(-23.30410818396,-11.87688700938,
    -0.151000000207));
#990 = CARTESIAN_POINT('',(-8.75309785568,-5.22412792597,
    1.000000140004E-03));
#991 = CARTESIAN_POINT('',(-8.81761058727,-5.08649759665,-0.151000000135
    ));
#992 = CARTESIAN_POINT('',(5.871030070327,1.63077421834,
    1.000000213001E-03));
#993 = CARTESIAN_POINT('',(5.668887009428,1.70389181608,-0.151000000064)
  );
#994 = CARTESIAN_POINT('',(-0.98387207398,16.25490214436,
    1.000000212999E-03));
#995 = CARTESIAN_POINT('',(-1.1215024033,16.19038941277,-0.151000000064)
  );
#996 = CARTESIAN_POINT('',(-7.83877421829,30.87903007037,
    1.000000211999E-03));
#997 = CARTESIAN_POINT('',(-7.91189181603,30.67688700947,-0.151000000064
    ));
#998 = CARTESIAN_POINT('',(-22.46290214431,24.02412792606,1.00000014E-03
    ));
#999 = CARTESIAN_POINT('',(-22.39838941272,23.88649759674,
    -0.151000000136));
#1000 = ADVANCED_FACE('',(#1001),#1008,.T.);
#1001 = FACE_BOUND('',#1002,.T.);
#1002 = EDGE_LOOP('',(#1003,#1004,#1005,#1006,#1007));
#1003 = ORIENTED_EDGE('',*,*,#296,.F.);
#1004 = ORIENTED_EDGE('',*,*,#367,.F.);
#1005 = ORIENTED_EDGE('',*,*,#809,.T.);
#1006 = ORIENTED_EDGE('',*,*,#965,.F.);
#1007 = ORIENTED_EDGE('',*,*,#235,.T.);
#1008 = B_SPLINE_SURFACE_WITH_KNOTS('',1,1,(
    (#1009,#1010)
    ,(#1011,#1012
    )),.UNSPECIFIED.,.F.,.F.,.F.,(2,2),(2,2),(-37.826,85.652246830142),(
    -0.10748023074,0.10748023074),.PIECEWISE_BEZIER_KNOTS.);
#1009 = CARTESIAN_POINT('',(-9.501,147.826,-0.151));
#1010 = CARTESIAN_POINT('',(-9.349,147.826,9.999999999846E-04));
#1011 = CARTESIAN_POINT('',(-9.501,24.3477531699,-0.151));
#1012 = CARTESIAN_POINT('',(-9.349,24.3477531699,9.999999999983E-04));
#1013 = ADVANCED_FACE('',(#1014),#1025,.T.);
#1014 = FACE_BOUND('',#1015,.T.);
#1015 = EDGE_LOOP('',(#1016,#1017,#1018,#1023,#1024));
#1016 = ORIENTED_EDGE('',*,*,#304,.F.);
#1017 = ORIENTED_EDGE('',*,*,#221,.T.);
#1018 = ORIENTED_EDGE('',*,*,#1019,.T.);
#1019 = EDGE_CURVE('',#215,#499,#1020,.T.);
#1020 = B_SPLINE_CURVE_WITH_KNOTS('',1,(#1021,#1022),.UNSPECIFIED.,.F.,
  .F.,(2,2),(0.,1.),.PIECEWISE_BEZIER_KNOTS.);
#1021 = CARTESIAN_POINT('',(15.25,24.43535571028,-2.712869452446E-15));
#1022 = CARTESIAN_POINT('',(15.4,24.3487531699,-0.15));
#1023 = ORIENTED_EDGE('',*,*,#498,.T.);
#1024 = ORIENTED_EDGE('',*,*,#403,.F.);
#1025 = B_SPLINE_SURFACE_WITH_KNOTS('',1,1,(
    (#1026,#1027)
    ,(#1028,#1029
    )),.UNSPECIFIED.,.F.,.F.,.F.,(2,2),(2,2),(-114.326,9.152246830142),(
    -0.10748023074,0.10748023074),.PIECEWISE_BEZIER_KNOTS.);
#1026 = CARTESIAN_POINT('',(15.249,147.826,9.999999999846E-04));
#1027 = CARTESIAN_POINT('',(15.401,147.826,-0.151));
#1028 = CARTESIAN_POINT('',(15.249,24.3477531699,9.999999999983E-04));
#1029 = CARTESIAN_POINT('',(15.401,24.3477531699,-0.151));
#1030 = ADVANCED_FACE('',(#1031),#1041,.T.);
#1031 = FACE_BOUND('',#1032,.T.);
#1032 = EDGE_LOOP('',(#1033,#1038,#1039,#1040));
#1033 = ORIENTED_EDGE('',*,*,#1034,.T.);
#1034 = EDGE_CURVE('',#907,#207,#1035,.T.);
#1035 = B_SPLINE_CURVE_WITH_KNOTS('',1,(#1036,#1037),.UNSPECIFIED.,.F.,
  .F.,(2,2),(0.,1.),.PIECEWISE_BEZIER_KNOTS.);
#1036 = CARTESIAN_POINT('',(13.508,23.2564064606,-0.15));
#1037 = CARTESIAN_POINT('',(13.433,23.38631027116,-2.596402012407E-15));
#1038 = ORIENTED_EDGE('',*,*,#206,.T.);
#1039 = ORIENTED_EDGE('',*,*,#30,.F.);
#1040 = ORIENTED_EDGE('',*,*,#913,.T.);
#1041 = ( BOUNDED_SURFACE() B_SPLINE_SURFACE(2,1,(
    (#1042,#1043)
    ,(#1044,#1045)
    ,(#1046,#1047)
    ,(#1048,#1049)
    ,(#1050,#1051)
    ,(#1052,#1053)
    ,(#1054,#1055)
    ,(#1056,#1057)
    ,(#1058,#1059
)),.UNSPECIFIED.,.T.,.F.,.F.) B_SPLINE_SURFACE_WITH_KNOTS((1,2,2,2,2,2,1
    ),(2,2),(-0.25,0.,0.25,0.5,0.75,1.,1.25),(0.,1.),.UNSPECIFIED.) 
GEOMETRIC_REPRESENTATION_ITEM() RATIONAL_B_SPLINE_SURFACE((
    (1.,1.)
    ,(0.707106781187,0.707106781187)
    ,(1.,1.)
    ,(0.707106781187,0.707106781187)
    ,(1.,1.)
    ,(0.707106781187,0.707106781187)
    ,(1.,1.)
    ,(0.707106781187,0.707106781187)
,(1.,1.))) REPRESENTATION_ITEM('') SURFACE() );
#1042 = CARTESIAN_POINT('',(12.21778605788,-3.81161329701,
    1.000000036001E-03));
#1043 = CARTESIAN_POINT('',(12.305217951873,-3.68727640009,
    -0.151000000038));
#1044 = CARTESIAN_POINT('',(25.42939935493,-13.10182723913,
    1.000000060004E-03));
#1045 = CARTESIAN_POINT('',(25.392494352006,-12.89005844822,
    -0.151000000014));
#1046 = CARTESIAN_POINT('',(34.719613297051,0.10978605792,
    1.000000060003E-03));
#1047 = CARTESIAN_POINT('',(34.595276400133,0.19721795192,
    -0.151000000014));
#1048 = CARTESIAN_POINT('',(44.009827239171,13.32139935498,
    1.000000060002E-03));
#1049 = CARTESIAN_POINT('',(43.79805844826,13.28449435205,
    -0.151000000014));
#1050 = CARTESIAN_POINT('',(30.79821394212,22.6116132971,
    1.000000035998E-03));
#1051 = CARTESIAN_POINT('',(30.710782048127,22.48727640018,
    -0.151000000038));
#1052 = CARTESIAN_POINT('',(17.586600645069,31.90182723922,
    1.000000012997E-03));
#1053 = CARTESIAN_POINT('',(17.623505647994,31.6900584483,
    -0.151000000061));
#1054 = CARTESIAN_POINT('',(8.296386702949,18.69021394216,
    1.000000012999E-03));
#1055 = CARTESIAN_POINT('',(8.420723599867,18.60278204817,
    -0.151000000061));
#1056 = CARTESIAN_POINT('',(-0.99382723917,5.47860064511,1.000000013E-03
    ));
#1057 = CARTESIAN_POINT('',(-0.78205844826,5.51550564804,-0.151000000061
    ));
#1058 = CARTESIAN_POINT('',(12.21778605788,-3.81161329701,
    1.000000036001E-03));
#1059 = CARTESIAN_POINT('',(12.305217951873,-3.68727640009,
    -0.151000000038));
#1060 = ADVANCED_FACE('',(#1061),#1067,.T.);
#1061 = FACE_BOUND('',#1062,.T.);
#1062 = EDGE_LOOP('',(#1063,#1064,#1065,#1066));
#1063 = ORIENTED_EDGE('',*,*,#214,.T.);
#1064 = ORIENTED_EDGE('',*,*,#1034,.F.);
#1065 = ORIENTED_EDGE('',*,*,#944,.T.);
#1066 = ORIENTED_EDGE('',*,*,#1019,.F.);
#1067 = B_SPLINE_SURFACE_WITH_KNOTS('',1,1,(
    (#1068,#1069)
    ,(#1070,#1071
    )),.UNSPECIFIED.,.F.,.F.,.F.,(2,2),(2,2),(3.465600770951,
    4.457821850514),(-10.74698877922,-8.591197583773),
  .PIECEWISE_BEZIER_KNOTS.);
#1068 = CARTESIAN_POINT('',(13.403533493649,23.97954003859,
    0.528485302045));
#1069 = CARTESIAN_POINT('',(15.420091506351,24.4785087435,
    -4.7674130155E-02));
#1070 = CARTESIAN_POINT('',(13.403533493649,23.22949140369,
    -0.121075869844));
#1071 = CARTESIAN_POINT('',(15.420091506351,23.72846010861,
    -0.697235302045));
#1072 = ADVANCED_FACE('',(#1073),#1088,.T.);
#1073 = FACE_BOUND('',#1074,.T.);
#1074 = EDGE_LOOP('',(#1075,#1076,#1077,#1078,#1079,#1087));
#1075 = ORIENTED_EDGE('',*,*,#44,.F.);
#1076 = ORIENTED_EDGE('',*,*,#197,.F.);
#1077 = ORIENTED_EDGE('',*,*,#67,.T.);
#1078 = ORIENTED_EDGE('',*,*,#183,.T.);
#1079 = ORIENTED_EDGE('',*,*,#1080,.F.);
#1080 = EDGE_CURVE('',#97,#176,#1081,.T.);
#1081 = ( BOUNDED_CURVE() B_SPLINE_CURVE(2,(#1082,#1083,#1084,#1085,
#1086),.UNSPECIFIED.,.F.,.F.) B_SPLINE_CURVE_WITH_KNOTS((3,2,3),(0.,
59.690763810901,119.3815276218),.UNSPECIFIED.) CURVE() 
GEOMETRIC_REPRESENTATION_ITEM() RATIONAL_B_SPLINE_CURVE((1.,
0.867371546187,1.,0.867371546187,1.)) REPRESENTATION_ITEM('') );
#1082 = CARTESIAN_POINT('',(5.508,1.49532772332,-0.2));
#1083 = CARTESIAN_POINT('',(4.65004415791,2.96300000004,-0.2));
#1084 = CARTESIAN_POINT('',(2.95,2.96300000004,-0.2));
#1085 = CARTESIAN_POINT('',(1.2499558421,2.96300000004,-0.2));
#1086 = CARTESIAN_POINT('',(0.392,1.49532772332,-0.2));
#1087 = ORIENTED_EDGE('',*,*,#96,.T.);
#1088 = ( BOUNDED_SURFACE() B_SPLINE_SURFACE(2,1,(
    (#1089,#1090)
    ,(#1091,#1092)
    ,(#1093,#1094)
    ,(#1095,#1096)
    ,(#1097,#1098)
    ,(#1099,#1100)
    ,(#1101,#1102)
    ,(#1103,#1104)
    ,(#1105,#1106
)),.UNSPECIFIED.,.T.,.F.,.F.) B_SPLINE_SURFACE_WITH_KNOTS((1,2,2,2,2,2,1
    ),(2,2),(-0.25,0.,0.25,0.5,0.75,1.,1.25),(0.,1.),.UNSPECIFIED.) 
GEOMETRIC_REPRESENTATION_ITEM() RATIONAL_B_SPLINE_SURFACE((
    (1.,1.)
    ,(0.707106781187,0.707106781187)
    ,(1.,1.)
    ,(0.707106781187,0.707106781187)
    ,(1.,1.)
    ,(0.707106781187,0.707106781187)
    ,(1.,1.)
    ,(0.707106781187,0.707106781187)
,(1.,1.))) REPRESENTATION_ITEM('') SURFACE() );
#1089 = CARTESIAN_POINT('',(-0.20196002476,0.2757607701,
    1.000000000001E-03));
#1090 = CARTESIAN_POINT('',(-7.286957399995E-04,0.25815531006,-0.201));
#1091 = CARTESIAN_POINT('',(-0.47772079481,-2.87619925466,
    1.000000000001E-03));
#1092 = CARTESIAN_POINT('',(-0.25888400576,-2.69257338568,-0.201));
#1093 = CARTESIAN_POINT('',(2.67423922995,-3.15196002472,
    1.000000000001E-03));
#1094 = CARTESIAN_POINT('',(2.69184468999,-2.9507286957,-0.201));
#1095 = CARTESIAN_POINT('',(5.826199254708,-3.42772079477,
    1.000000000001E-03));
#1096 = CARTESIAN_POINT('',(5.642573385729,-3.20888400572,-0.201));
#1097 = CARTESIAN_POINT('',(6.101960024762,-0.27576077001,
    1.000000000001E-03));
#1098 = CARTESIAN_POINT('',(5.900728695748,-0.25815530997,-0.201));
#1099 = CARTESIAN_POINT('',(6.377720794817,2.87619925475,
    1.000000000001E-03));
#1100 = CARTESIAN_POINT('',(6.158884005767,2.69257338577,-0.201));
#1101 = CARTESIAN_POINT('',(3.22576077006,3.15196002481,
    1.000000000001E-03));
#1102 = CARTESIAN_POINT('',(3.20815531002,2.95072869579,-0.201));
#1103 = CARTESIAN_POINT('',(7.38007453E-02,3.42772079486,
    1.000000000001E-03));
#1104 = CARTESIAN_POINT('',(0.25742661428,3.20888400581,-0.201));
#1105 = CARTESIAN_POINT('',(-0.20196002476,0.2757607701,
    1.000000000001E-03));
#1106 = CARTESIAN_POINT('',(-7.286957399995E-04,0.25815531006,-0.201));
#1107 = ADVANCED_FACE('',(#1108),#1114,.T.);
#1108 = FACE_BOUND('',#1109,.T.);
#1109 = EDGE_LOOP('',(#1110,#1111,#1112,#1113));
#1110 = ORIENTED_EDGE('',*,*,#1080,.T.);
#1111 = ORIENTED_EDGE('',*,*,#175,.T.);
#1112 = ORIENTED_EDGE('',*,*,#264,.T.);
#1113 = ORIENTED_EDGE('',*,*,#104,.T.);
#1114 = ( BOUNDED_SURFACE() B_SPLINE_SURFACE(2,1,(
    (#1115,#1116)
    ,(#1117,#1118)
    ,(#1119,#1120)
    ,(#1121,#1122)
    ,(#1123,#1124)
    ,(#1125,#1126)
    ,(#1127,#1128)
    ,(#1129,#1130)
    ,(#1131,#1132
)),.UNSPECIFIED.,.T.,.F.,.F.) B_SPLINE_SURFACE_WITH_KNOTS((1,2,2,2,2,2,1
    ),(2,2),(-0.25,0.,0.25,0.5,0.75,1.,1.25),(0.,1.),.UNSPECIFIED.) 
GEOMETRIC_REPRESENTATION_ITEM() RATIONAL_B_SPLINE_SURFACE((
    (1.,1.)
    ,(0.707106781187,0.707106781187)
    ,(1.,1.)
    ,(0.707106781187,0.707106781187)
    ,(1.,1.)
    ,(0.707106781187,0.707106781187)
    ,(1.,1.)
    ,(0.707106781187,0.707106781187)
,(1.,1.))) REPRESENTATION_ITEM('') SURFACE() );
#1115 = CARTESIAN_POINT('',(-1.838392490001E-03,0.25825239595,-0.199));
#1116 = CARTESIAN_POINT('',(0.23447287335,0.23757783912,-2.281));
#1117 = CARTESIAN_POINT('',(-0.26009078839,-2.69358599655,-0.199));
#1118 = CARTESIAN_POINT('',(-3.10496573E-03,-2.47794928753,-2.281));
#1119 = CARTESIAN_POINT('',(2.6917476041,-2.95183839245,-0.199));
#1120 = CARTESIAN_POINT('',(2.71242216092,-2.71552712661,-2.281));
#1121 = CARTESIAN_POINT('',(5.64358599659,-3.21009078836,-0.199));
#1122 = CARTESIAN_POINT('',(5.42794928758,-2.95310496569,-2.281));
#1123 = CARTESIAN_POINT('',(5.901838392495,-0.25825239586,-0.199));
#1124 = CARTESIAN_POINT('',(5.665527126656,-0.23757783904,-2.281));
#1125 = CARTESIAN_POINT('',(6.160090788399,2.69358599663,-0.199));
#1126 = CARTESIAN_POINT('',(5.903104965736,2.47794928762,-2.281));
#1127 = CARTESIAN_POINT('',(3.20825239591,2.95183839254,-0.199));
#1128 = CARTESIAN_POINT('',(3.18757783908,2.7155271267,-2.281));
#1129 = CARTESIAN_POINT('',(0.25641400341,3.21009078844,-0.199));
#1130 = CARTESIAN_POINT('',(0.47205071243,2.95310496578,-2.281));
#1131 = CARTESIAN_POINT('',(-1.838392490001E-03,0.25825239595,-0.199));
#1132 = CARTESIAN_POINT('',(0.23447287335,0.23757783912,-2.281));
#1133 = ADVANCED_FACE('',(#1134),#1145,.T.);
#1134 = FACE_BOUND('',#1135,.T.);
#1135 = EDGE_LOOP('',(#1136,#1137,#1143,#1144));
#1136 = ORIENTED_EDGE('',*,*,#690,.F.);
#1137 = ORIENTED_EDGE('',*,*,#1138,.T.);
#1138 = EDGE_CURVE('',#691,#155,#1139,.T.);
#1139 = ( BOUNDED_CURVE() B_SPLINE_CURVE(2,(#1140,#1141,#1142),
.UNSPECIFIED.,.F.,.F.) B_SPLINE_CURVE_WITH_KNOTS((3,3),(0.,90.),
.PIECEWISE_BEZIER_KNOTS.) CURVE() GEOMETRIC_REPRESENTATION_ITEM() 
RATIONAL_B_SPLINE_CURVE((1.,0.707106781187,1.)) REPRESENTATION_ITEM('') 
  );
#1140 = CARTESIAN_POINT('',(2.95,-2.55699999996,-24.75));
#1141 = CARTESIAN_POINT('',(0.392,-2.55699999996,-24.75));
#1142 = CARTESIAN_POINT('',(0.392,1.000000039994E-03,-24.75));
#1143 = ORIENTED_EDGE('',*,*,#733,.T.);
#1144 = ORIENTED_EDGE('',*,*,#580,.T.);
#1145 = ( BOUNDED_SURFACE() B_SPLINE_SURFACE(2,1,(
    (#1146,#1147)
    ,(#1148,#1149)
    ,(#1150,#1151)
    ,(#1152,#1153)
    ,(#1154,#1155)
    ,(#1156,#1157)
    ,(#1158,#1159)
    ,(#1160,#1161)
    ,(#1162,#1163
)),.UNSPECIFIED.,.T.,.F.,.F.) B_SPLINE_SURFACE_WITH_KNOTS((1,2,2,2,2,2,1
    ),(2,2),(-0.25,0.,0.25,0.5,0.75,1.,1.25),(0.,1.),.UNSPECIFIED.) 
GEOMETRIC_REPRESENTATION_ITEM() RATIONAL_B_SPLINE_SURFACE((
    (1.,1.)
    ,(0.707106781187,0.707106781187)
    ,(1.,1.)
    ,(0.707106781187,0.707106781187)
    ,(1.,1.)
    ,(0.707106781187,0.707106781187)
    ,(1.,1.)
    ,(0.707106781187,0.707106781187)
,(1.,1.))) REPRESENTATION_ITEM('') SURFACE() );
#1146 = CARTESIAN_POINT('',(2.95,-2.40599999996,-24.901));
#1147 = CARTESIAN_POINT('',(2.95,-2.55799999996,-24.749));
#1148 = CARTESIAN_POINT('',(5.357,-2.40599999996,-24.901));
#1149 = CARTESIAN_POINT('',(5.509,-2.55799999996,-24.749));
#1150 = CARTESIAN_POINT('',(5.357,1.000000039994E-03,-24.901));
#1151 = CARTESIAN_POINT('',(5.509,1.000000039994E-03,-24.749));
#1152 = CARTESIAN_POINT('',(5.357,2.40800000004,-24.901));
#1153 = CARTESIAN_POINT('',(5.509,2.56000000004,-24.749));
#1154 = CARTESIAN_POINT('',(2.95,2.40800000004,-24.901));
#1155 = CARTESIAN_POINT('',(2.95,2.56000000004,-24.749));
#1156 = CARTESIAN_POINT('',(0.543,2.40800000004,-24.901));
#1157 = CARTESIAN_POINT('',(0.391,2.56000000004,-24.749));
#1158 = CARTESIAN_POINT('',(0.543,1.000000039994E-03,-24.901));
#1159 = CARTESIAN_POINT('',(0.391,1.000000039994E-03,-24.749));
#1160 = CARTESIAN_POINT('',(0.543,-2.40599999996,-24.901));
#1161 = CARTESIAN_POINT('',(0.391,-2.55799999996,-24.749));
#1162 = CARTESIAN_POINT('',(2.95,-2.40599999996,-24.901));
#1163 = CARTESIAN_POINT('',(2.95,-2.55799999996,-24.749));
#1164 = ADVANCED_FACE('',(#1165),#1171,.T.);
#1165 = FACE_BOUND('',#1166,.T.);
#1166 = EDGE_LOOP('',(#1167,#1168,#1169,#1170));
#1167 = ORIENTED_EDGE('',*,*,#875,.F.);
#1168 = ORIENTED_EDGE('',*,*,#273,.F.);
#1169 = ORIENTED_EDGE('',*,*,#161,.F.);
#1170 = ORIENTED_EDGE('',*,*,#1138,.F.);
#1171 = ( BOUNDED_SURFACE() B_SPLINE_SURFACE(2,1,(
    (#1172,#1173)
    ,(#1174,#1175)
    ,(#1176,#1177)
    ,(#1178,#1179)
    ,(#1180,#1181)
    ,(#1182,#1183)
    ,(#1184,#1185)
    ,(#1186,#1187)
    ,(#1188,#1189
)),.UNSPECIFIED.,.T.,.F.,.F.) B_SPLINE_SURFACE_WITH_KNOTS((1,2,2,2,2,2,1
    ),(2,2),(-0.25,0.,0.25,0.5,0.75,1.,1.25),(0.,1.),.UNSPECIFIED.) 
GEOMETRIC_REPRESENTATION_ITEM() RATIONAL_B_SPLINE_SURFACE((
    (1.,1.)
    ,(0.707106781187,0.707106781187)
    ,(1.,1.)
    ,(0.707106781187,0.707106781187)
    ,(1.,1.)
    ,(0.707106781187,0.707106781187)
    ,(1.,1.)
    ,(0.707106781187,0.707106781187)
,(1.,1.))) REPRESENTATION_ITEM('') SURFACE() );
#1172 = CARTESIAN_POINT('',(2.95,-2.55699999996,-26.9982));
#1173 = CARTESIAN_POINT('',(2.95,-2.55699999996,-3.18E-02));
#1174 = CARTESIAN_POINT('',(5.508,-2.55699999996,-26.9982));
#1175 = CARTESIAN_POINT('',(5.508,-2.55699999996,-3.18E-02));
#1176 = CARTESIAN_POINT('',(5.508,1.000000039994E-03,-26.9982));
#1177 = CARTESIAN_POINT('',(5.508,1.000000039994E-03,-3.18E-02));
#1178 = CARTESIAN_POINT('',(5.508,2.55900000004,-26.9982));
#1179 = CARTESIAN_POINT('',(5.508,2.55900000004,-3.18E-02));
#1180 = CARTESIAN_POINT('',(2.95,2.55900000004,-26.9982));
#1181 = CARTESIAN_POINT('',(2.95,2.55900000004,-3.18E-02));
#1182 = CARTESIAN_POINT('',(0.392,2.55900000004,-26.9982));
#1183 = CARTESIAN_POINT('',(0.392,2.55900000004,-3.18E-02));
#1184 = CARTESIAN_POINT('',(0.392,1.000000039994E-03,-26.9982));
#1185 = CARTESIAN_POINT('',(0.392,1.000000039994E-03,-3.18E-02));
#1186 = CARTESIAN_POINT('',(0.392,-2.55699999996,-26.9982));
#1187 = CARTESIAN_POINT('',(0.392,-2.55699999996,-3.18E-02));
#1188 = CARTESIAN_POINT('',(2.95,-2.55699999996,-26.9982));
#1189 = CARTESIAN_POINT('',(2.95,-2.55699999996,-3.18E-02));
#1190 = ( GEOMETRIC_REPRESENTATION_CONTEXT(3) 
GLOBAL_UNCERTAINTY_ASSIGNED_CONTEXT((#1194)) 
GLOBAL_UNIT_ASSIGNED_CONTEXT((#1191,#1192,#1193)) REPRESENTATION_CONTEXT
('Context #1','3D Context with UNIT and UNCERTAINTY') );
#1191 = ( LENGTH_UNIT() NAMED_UNIT(*) SI_UNIT(.MILLI.,.METRE.) );
#1192 = ( NAMED_UNIT(*) PLANE_ANGLE_UNIT() SI_UNIT($,.RADIAN.) );
#1193 = ( NAMED_UNIT(*) SI_UNIT($,.STERADIAN.) SOLID_ANGLE_UNIT() );
#1194 = UNCERTAINTY_MEASURE_WITH_UNIT(LENGTH_MEASURE(1.E-07),#1191,
  'distance_accuracy_value','confusion accuracy');
#1195 = PRODUCT_RELATED_PRODUCT_CATEGORY('part',$,(#7));
#1196 = MECHANICAL_DESIGN_GEOMETRIC_PRESENTATION_REPRESENTATION('',(
    #1197),#1190);
#1197 = STYLED_ITEM('color',(#1198),#15);
#1198 = PRESENTATION_STYLE_ASSIGNMENT((#1199));
#1199 = SURFACE_STYLE_USAGE(.BOTH.,#1200);
#1200 = SURFACE_SIDE_STYLE('',(#1201));
#1201 = SURFACE_STYLE_FILL_AREA(#1202);
#1202 = FILL_AREA_STYLE('',(#1203));
#1203 = FILL_AREA_STYLE_COLOUR('',#1204);
#1204 = COLOUR_RGB('',0.588235318661,0.588235318661,0.588235318661);
ENDSEC;
END-ISO-10303-21;
