ISO-10303-21;
HEADER;
FILE_DESCRIPTION(('Open CASCADE Model'),'2;1');
FILE_NAME('Open CASCADE Shape Model','2026-09-18T15:45:28',('Author'),(
    'Open CASCADE'),'Open CASCADE STEP processor 7.3','Open CASCADE 7.3'
  ,'Unknown');
FILE_SCHEMA(('AUTOMOTIVE_DESIGN { 1 0 10303 214 1 1 1 1 }'));
ENDSEC;
DATA;
#1 = APPLICATION_PROTOCOL_DEFINITION('international standard',
  'automotive_design',2000,#2);
#2 = APPLICATION_CONTEXT(
  'core data for automotive mechanical design processes');
#3 = SHAPE_DEFINITION_REPRESENTATION(#4,#10);
#4 = PRODUCT_DEFINITION_SHAPE('','',#5);
#5 = PRODUCT_DEFINITION('design','',#6,#9);
#6 = PRODUCT_DEFINITION_FORMATION('','',#7);
#7 = PRODUCT('Pottmanager 18','Pottmanager 18','',(#8));
#8 = PRODUCT_CONTEXT('',#2,'mechanical');
#9 = PRODUCT_DEFINITION_CONTEXT('part definition',#2,'design');
#10 = ADVANCED_BREP_SHAPE_REPRESENTATION('',(#11,#15),#161);
#11 = AXIS2_PLACEMENT_3D('',#12,#13,#14);
#12 = CARTESIAN_POINT('',(0.,0.,0.));
#13 = DIRECTION('',(0.,0.,1.));
#14 = DIRECTION('',(1.,0.,-0.));
#15 = MANIFOLD_SOLID_BREP('',#16);
#16 = CLOSED_SHELL('',(#17,#55,#85,#115,#137,#149));
#17 = ADVANCED_FACE('',(#18),#50,.F.);
#18 = FACE_BOUND('',#19,.T.);
#19 = EDGE_LOOP('',(#20,#30,#37,#45));
#20 = ORIENTED_EDGE('',*,*,#21,.T.);
#21 = EDGE_CURVE('',#22,#24,#26,.T.);
#22 = VERTEX_POINT('',#23);
#23 = CARTESIAN_POINT('',(2.081746244142,19.867068029831,-3.386139464505
    ));
#24 = VERTEX_POINT('',#25);
#25 = CARTESIAN_POINT('',(-0.872677014895,19.34612349683,-3.386139464505
    ));
#26 = LINE('',#27,#28);
#27 = CARTESIAN_POINT('',(2.081746244142,19.867068029831,-3.386139464505
    ));
#28 = VECTOR('',#29,1.);
#29 = DIRECTION('',(-0.984807753012,-0.173648177667,1.9278820503E-17));
#30 = ORIENTED_EDGE('',*,*,#31,.T.);
#31 = EDGE_CURVE('',#24,#32,#34,.T.);
#32 = VERTEX_POINT('',#33);
#33 = CARTESIAN_POINT('',(-0.661601187645,18.14905299519,-10.27979373559
    ));
#34 = B_SPLINE_CURVE_WITH_KNOTS('',1,(#35,#36),.UNSPECIFIED.,.F.,.F.,(2,
    2),(0.,1.),.PIECEWISE_BEZIER_KNOTS.);
#35 = CARTESIAN_POINT('',(-0.872677014895,19.34612349683,-3.386139464505
    ));
#36 = CARTESIAN_POINT('',(-0.661601187645,18.14905299519,-10.27979373559
    ));
#37 = ORIENTED_EDGE('',*,*,#38,.F.);
#38 = EDGE_CURVE('',#39,#32,#41,.T.);
#39 = VERTEX_POINT('',#40);
#40 = CARTESIAN_POINT('',(2.292822071391,18.669997528191,-10.27979373559
    ));
#41 = LINE('',#42,#43);
#42 = CARTESIAN_POINT('',(2.292822071391,18.669997528191,-10.27979373559
    ));
#43 = VECTOR('',#44,1.);
#44 = DIRECTION('',(-0.984807753012,-0.173648177667,1.9278820503E-17));
#45 = ORIENTED_EDGE('',*,*,#46,.F.);
#46 = EDGE_CURVE('',#22,#39,#47,.T.);
#47 = B_SPLINE_CURVE_WITH_KNOTS('',1,(#48,#49),.UNSPECIFIED.,.F.,.F.,(2,
    2),(0.,1.),.PIECEWISE_BEZIER_KNOTS.);
#48 = CARTESIAN_POINT('',(2.081746244142,19.867068029831,-3.386139464505
    ));
#49 = CARTESIAN_POINT('',(2.292822071391,18.669997528191,-10.27979373559
    ));
#50 = PLANE('',#51);
#51 = AXIS2_PLACEMENT_3D('',#52,#53,#54);
#52 = CARTESIAN_POINT('',(2.292822071391,18.669997528191,-10.27979373559
    ));
#53 = DIRECTION('',(-0.171010071663,0.969846310393,-0.173648177667));
#54 = DIRECTION('',(0.984807753012,0.173648177667,-1.9278820503E-17));
#55 = ADVANCED_FACE('',(#56),#80,.F.);
#56 = FACE_BOUND('',#57,.T.);
#57 = EDGE_LOOP('',(#58,#66,#73,#79));
#58 = ORIENTED_EDGE('',*,*,#59,.T.);
#59 = EDGE_CURVE('',#24,#60,#62,.T.);
#60 = VERTEX_POINT('',#61);
#61 = CARTESIAN_POINT('',(-4.292878448151,38.743049704689,
    -6.859103017844));
#62 = LINE('',#63,#64);
#63 = CARTESIAN_POINT('',(-0.872677014895,19.34612349683,-3.386139464505
    ));
#64 = VECTOR('',#65,1.);
#65 = DIRECTION('',(-0.171010071663,0.969846310393,-0.173648177667));
#66 = ORIENTED_EDGE('',*,*,#67,.T.);
#67 = EDGE_CURVE('',#60,#68,#70,.T.);
#68 = VERTEX_POINT('',#69);
#69 = CARTESIAN_POINT('',(-4.081802620902,37.545979203049,
    -13.75275728892));
#70 = B_SPLINE_CURVE_WITH_KNOTS('',1,(#71,#72),.UNSPECIFIED.,.F.,.F.,(2,
    2),(0.,1.),.PIECEWISE_BEZIER_KNOTS.);
#71 = CARTESIAN_POINT('',(-4.292878448151,38.743049704689,
    -6.859103017844));
#72 = CARTESIAN_POINT('',(-4.081802620902,37.545979203049,
    -13.75275728892));
#73 = ORIENTED_EDGE('',*,*,#74,.F.);
#74 = EDGE_CURVE('',#32,#68,#75,.T.);
#75 = LINE('',#76,#77);
#76 = CARTESIAN_POINT('',(-0.661601187645,18.14905299519,-10.27979373559
    ));
#77 = VECTOR('',#78,1.);
#78 = DIRECTION('',(-0.171010071663,0.969846310393,-0.173648177667));
#79 = ORIENTED_EDGE('',*,*,#31,.F.);
#80 = PLANE('',#81);
#81 = AXIS2_PLACEMENT_3D('',#82,#83,#84);
#82 = CARTESIAN_POINT('',(-0.661601187645,18.14905299519,-10.27979373559
    ));
#83 = DIRECTION('',(0.984807753012,0.173648177667,-1.9278820503E-17));
#84 = DIRECTION('',(0.171010071663,-0.969846310393,0.173648177667));
#85 = ADVANCED_FACE('',(#86),#110,.F.);
#86 = FACE_BOUND('',#87,.T.);
#87 = EDGE_LOOP('',(#88,#96,#103,#109));
#88 = ORIENTED_EDGE('',*,*,#89,.T.);
#89 = EDGE_CURVE('',#60,#90,#92,.T.);
#90 = VERTEX_POINT('',#91);
#91 = CARTESIAN_POINT('',(-1.338455189115,39.26399423769,-6.859103017844
    ));
#92 = LINE('',#93,#94);
#93 = CARTESIAN_POINT('',(-4.292878448151,38.743049704689,
    -6.859103017844));
#94 = VECTOR('',#95,1.);
#95 = DIRECTION('',(0.984807753012,0.173648177667,-1.9278820503E-17));
#96 = ORIENTED_EDGE('',*,*,#97,.T.);
#97 = EDGE_CURVE('',#90,#98,#100,.T.);
#98 = VERTEX_POINT('',#99);
#99 = CARTESIAN_POINT('',(-1.127379361865,38.06692373605,-13.75275728892
    ));
#100 = B_SPLINE_CURVE_WITH_KNOTS('',1,(#101,#102),.UNSPECIFIED.,.F.,.F.,
  (2,2),(0.,1.),.PIECEWISE_BEZIER_KNOTS.);
#101 = CARTESIAN_POINT('',(-1.338455189115,39.26399423769,
    -6.859103017844));
#102 = CARTESIAN_POINT('',(-1.127379361865,38.06692373605,
    -13.75275728892));
#103 = ORIENTED_EDGE('',*,*,#104,.F.);
#104 = EDGE_CURVE('',#68,#98,#105,.T.);
#105 = LINE('',#106,#107);
#106 = CARTESIAN_POINT('',(-4.081802620902,37.545979203049,
    -13.75275728892));
#107 = VECTOR('',#108,1.);
#108 = DIRECTION('',(0.984807753012,0.173648177667,-1.9278820503E-17));
#109 = ORIENTED_EDGE('',*,*,#67,.F.);
#110 = PLANE('',#111);
#111 = AXIS2_PLACEMENT_3D('',#112,#113,#114);
#112 = CARTESIAN_POINT('',(-4.081802620902,37.545979203049,
    -13.75275728892));
#113 = DIRECTION('',(0.171010071663,-0.969846310393,0.173648177667));
#114 = DIRECTION('',(-0.984807753012,-0.173648177667,1.9278820503E-17));
#115 = ADVANCED_FACE('',(#116),#132,.F.);
#116 = FACE_BOUND('',#117,.T.);
#117 = EDGE_LOOP('',(#118,#124,#125,#131));
#118 = ORIENTED_EDGE('',*,*,#119,.T.);
#119 = EDGE_CURVE('',#90,#22,#120,.T.);
#120 = LINE('',#121,#122);
#121 = CARTESIAN_POINT('',(-1.338455189115,39.26399423769,
    -6.859103017844));
#122 = VECTOR('',#123,1.);
#123 = DIRECTION('',(0.171010071663,-0.969846310393,0.173648177667));
#124 = ORIENTED_EDGE('',*,*,#46,.T.);
#125 = ORIENTED_EDGE('',*,*,#126,.F.);
#126 = EDGE_CURVE('',#98,#39,#127,.T.);
#127 = LINE('',#128,#129);
#128 = CARTESIAN_POINT('',(-1.127379361865,38.06692373605,
    -13.75275728892));
#129 = VECTOR('',#130,1.);
#130 = DIRECTION('',(0.171010071663,-0.969846310393,0.173648177667));
#131 = ORIENTED_EDGE('',*,*,#97,.F.);
#132 = PLANE('',#133);
#133 = AXIS2_PLACEMENT_3D('',#134,#135,#136);
#134 = CARTESIAN_POINT('',(-1.127379361865,38.06692373605,
    -13.75275728892));
#135 = DIRECTION('',(-0.984807753012,-0.173648177667,1.9278820503E-17));
#136 = DIRECTION('',(-0.171010071663,0.969846310393,-0.173648177667));
#137 = ADVANCED_FACE('',(#138),#144,.F.);
#138 = FACE_BOUND('',#139,.F.);
#139 = EDGE_LOOP('',(#140,#141,#142,#143));
#140 = ORIENTED_EDGE('',*,*,#21,.T.);
#141 = ORIENTED_EDGE('',*,*,#59,.T.);
#142 = ORIENTED_EDGE('',*,*,#89,.T.);
#143 = ORIENTED_EDGE('',*,*,#119,.T.);
#144 = PLANE('',#145);
#145 = AXIS2_PLACEMENT_3D('',#146,#147,#148);
#146 = CARTESIAN_POINT('',(2.081746244142,19.867068029831,
    -3.386139464505));
#147 = DIRECTION('',(3.015368960705E-02,-0.171010071663,-0.984807753012)
  );
#148 = DIRECTION('',(0.315204904705,-0.933357223717,0.171726995504));
#149 = ADVANCED_FACE('',(#150),#156,.T.);
#150 = FACE_BOUND('',#151,.T.);
#151 = EDGE_LOOP('',(#152,#153,#154,#155));
#152 = ORIENTED_EDGE('',*,*,#38,.T.);
#153 = ORIENTED_EDGE('',*,*,#74,.T.);
#154 = ORIENTED_EDGE('',*,*,#104,.T.);
#155 = ORIENTED_EDGE('',*,*,#126,.T.);
#156 = PLANE('',#157);
#157 = AXIS2_PLACEMENT_3D('',#158,#159,#160);
#158 = CARTESIAN_POINT('',(2.292822071391,18.669997528191,
    -10.27979373559));
#159 = DIRECTION('',(3.015368960705E-02,-0.171010071663,-0.984807753012)
  );
#160 = DIRECTION('',(0.315204904705,-0.933357223717,0.171726995504));
#161 = ( GEOMETRIC_REPRESENTATION_CONTEXT(3) 
GLOBAL_UNCERTAINTY_ASSIGNED_CONTEXT((#165)) GLOBAL_UNIT_ASSIGNED_CONTEXT
((#162,#163,#164)) REPRESENTATION_CONTEXT('Context #1',
  '3D Context with UNIT and UNCERTAINTY') );
#162 = ( LENGTH_UNIT() NAMED_UNIT(*) SI_UNIT(.MILLI.,.METRE.) );
#163 = ( NAMED_UNIT(*) PLANE_ANGLE_UNIT() SI_UNIT($,.RADIAN.) );
#164 = ( NAMED_UNIT(*) SI_UNIT($,.STERADIAN.) SOLID_ANGLE_UNIT() );
#165 = UNCERTAINTY_MEASURE_WITH_UNIT(LENGTH_MEASURE(1.E-07),#162,
  'distance_accuracy_value','confusion accuracy');
#166 = PRODUCT_RELATED_PRODUCT_CATEGORY('part',$,(#7));
#167 = MECHANICAL_DESIGN_GEOMETRIC_PRESENTATION_REPRESENTATION('',(#168)
  ,#161);
#168 = STYLED_ITEM('color',(#169),#15);
#169 = PRESENTATION_STYLE_ASSIGNMENT((#170));
#170 = SURFACE_STYLE_USAGE(.BOTH.,#171);
#171 = SURFACE_SIDE_STYLE('',(#172));
#172 = SURFACE_STYLE_FILL_AREA(#173);
#173 = FILL_AREA_STYLE('',(#174));
#174 = FILL_AREA_STYLE_COLOUR('',#175);
#175 = COLOUR_RGB('',0.588235318661,0.588235318661,0.588235318661);
ENDSEC;
END-ISO-10303-21;
