ISO-10303-21;
HEADER;
FILE_DESCRIPTION(('Open CASCADE Model'),'2;1');
FILE_NAME('Open CASCADE Shape Model','2026-09-18T15:44:30',('Author'),(
    'Open CASCADE'),'Open CASCADE STEP processor 7.3','Open CASCADE 7.3'
  ,'Unknown');
FILE_SCHEMA(('AUTOMOTIVE_DESIGN { 1 0 10303 214 1 1 1 1 }'));
ENDSEC;
DATA;
#1 = APPLICATION_PROTOCOL_DEFINITION('international standard',
  'automotive_design',2000,#2);
#2 = APPLICATION_CONTEXT(
  'core data for automotive mechanical design processes');
#3 = SHAPE_DEFINITION_REPRESENTATION(#4,#10);
#4 = PRODUCT_DEFINITION_SHAPE('','',#5);
#5 = PRODUCT_DEFINITION('design','',#6,#9);
#6 = PRODUCT_DEFINITION_FORMATION('','',#7);
#7 = PRODUCT('Pottmanager 17','Pottmanager 17','',(#8));
#8 = PRODUCT_CONTEXT('',#2,'mechanical');
#9 = PRODUCT_DEFINITION_CONTEXT('part definition',#2,'design');
#10 = ADVANCED_BREP_SHAPE_REPRESENTATION('',(#11,#15),#229);
#11 = AXIS2_PLACEMENT_3D('',#12,#13,#14);
#12 = CARTESIAN_POINT('',(0.,0.,0.));
#13 = DIRECTION('',(0.,0.,1.));
#14 = DIRECTION('',(1.,0.,-0.));
#15 = MANIFOLD_SOLID_BREP('',#16);
#16 = CLOSED_SHELL('',(#17,#57,#87,#117,#147,#179,#201,#215));
#17 = ADVANCED_FACE('',(#18),#52,.T.);
#18 = FACE_BOUND('',#19,.T.);
#19 = EDGE_LOOP('',(#20,#31,#38,#47));
#20 = ORIENTED_EDGE('',*,*,#21,.T.);
#21 = EDGE_CURVE('',#22,#24,#26,.T.);
#22 = VERTEX_POINT('',#23);
#23 = CARTESIAN_POINT('',(3.039928294868,3.602137780431E-02,
    8.682408883347E-02));
#24 = VERTEX_POINT('',#25);
#25 = CARTESIAN_POINT('',(2.462019382531,0.434120444167,
    -1.665334536938E-16));
#26 = CIRCLE('',#27,0.5);
#27 = AXIS2_PLACEMENT_3D('',#28,#29,#30);
#28 = CARTESIAN_POINT('',(2.954423259037,0.520944533001,
    -1.804112415016E-16));
#29 = DIRECTION('',(3.015368960705E-02,-0.171010071663,-0.984807753012)
  );
#30 = DIRECTION('',(0.171010071663,-0.969846310393,0.173648177667));
#31 = ORIENTED_EDGE('',*,*,#32,.T.);
#32 = EDGE_CURVE('',#24,#33,#35,.T.);
#33 = VERTEX_POINT('',#34);
#34 = CARTESIAN_POINT('',(2.67309520978,-0.762950057473,-6.893654271085)
  );
#35 = B_SPLINE_CURVE_WITH_KNOTS('',1,(#36,#37),.UNSPECIFIED.,.F.,.F.,(2,
    2),(0.,1.),.PIECEWISE_BEZIER_KNOTS.);
#36 = CARTESIAN_POINT('',(2.462019382531,0.434120444167,
    -1.665334536938E-16));
#37 = CARTESIAN_POINT('',(2.67309520978,-0.762950057473,-6.893654271085)
  );
#38 = ORIENTED_EDGE('',*,*,#39,.F.);
#39 = EDGE_CURVE('',#40,#33,#42,.T.);
#40 = VERTEX_POINT('',#41);
#41 = CARTESIAN_POINT('',(3.251004122117,-1.161049123836,-6.806830182252
    ));
#42 = CIRCLE('',#43,0.5);
#43 = AXIS2_PLACEMENT_3D('',#44,#45,#46);
#44 = CARTESIAN_POINT('',(3.165499086286,-0.676125968639,-6.893654271085
    ));
#45 = DIRECTION('',(3.015368960705E-02,-0.171010071663,-0.984807753012)
  );
#46 = DIRECTION('',(0.171010071663,-0.969846310393,0.173648177667));
#47 = ORIENTED_EDGE('',*,*,#48,.F.);
#48 = EDGE_CURVE('',#22,#40,#49,.T.);
#49 = B_SPLINE_CURVE_WITH_KNOTS('',1,(#50,#51),.UNSPECIFIED.,.F.,.F.,(2,
    2),(0.,1.),.PIECEWISE_BEZIER_KNOTS.);
#50 = CARTESIAN_POINT('',(3.039928294868,3.602137780431E-02,
    8.682408883347E-02));
#51 = CARTESIAN_POINT('',(3.251004122117,-1.161049123836,-6.806830182252
    ));
#52 = CYLINDRICAL_SURFACE('',#53,0.5);
#53 = AXIS2_PLACEMENT_3D('',#54,#55,#56);
#54 = CARTESIAN_POINT('',(2.954423259037,0.520944533001,
    -1.804112415016E-16));
#55 = DIRECTION('',(3.015368960705E-02,-0.171010071663,-0.984807753012)
  );
#56 = DIRECTION('',(0.171010071663,-0.969846310393,0.173648177667));
#57 = ADVANCED_FACE('',(#58),#82,.F.);
#58 = FACE_BOUND('',#59,.T.);
#59 = EDGE_LOOP('',(#60,#68,#75,#81));
#60 = ORIENTED_EDGE('',*,*,#61,.T.);
#61 = EDGE_CURVE('',#24,#62,#64,.T.);
#62 = VERTEX_POINT('',#63);
#63 = CARTESIAN_POINT('',(-0.872677014895,19.34612349683,-3.386139464505
    ));
#64 = LINE('',#65,#66);
#65 = CARTESIAN_POINT('',(2.462019382531,0.434120444167,
    -1.665334536938E-16));
#66 = VECTOR('',#67,1.);
#67 = DIRECTION('',(-0.171010071663,0.969846310393,-0.173648177667));
#68 = ORIENTED_EDGE('',*,*,#69,.T.);
#69 = EDGE_CURVE('',#62,#70,#72,.T.);
#70 = VERTEX_POINT('',#71);
#71 = CARTESIAN_POINT('',(-0.661601187645,18.14905299519,-10.27979373559
    ));
#72 = B_SPLINE_CURVE_WITH_KNOTS('',1,(#73,#74),.UNSPECIFIED.,.F.,.F.,(2,
    2),(0.,1.),.PIECEWISE_BEZIER_KNOTS.);
#73 = CARTESIAN_POINT('',(-0.872677014895,19.34612349683,-3.386139464505
    ));
#74 = CARTESIAN_POINT('',(-0.661601187645,18.14905299519,-10.27979373559
    ));
#75 = ORIENTED_EDGE('',*,*,#76,.F.);
#76 = EDGE_CURVE('',#33,#70,#77,.T.);
#77 = LINE('',#78,#79);
#78 = CARTESIAN_POINT('',(2.67309520978,-0.762950057473,-6.893654271085)
  );
#79 = VECTOR('',#80,1.);
#80 = DIRECTION('',(-0.171010071663,0.969846310393,-0.173648177667));
#81 = ORIENTED_EDGE('',*,*,#32,.F.);
#82 = PLANE('',#83);
#83 = AXIS2_PLACEMENT_3D('',#84,#85,#86);
#84 = CARTESIAN_POINT('',(2.67309520978,-0.762950057473,-6.893654271085)
  );
#85 = DIRECTION('',(0.984807753012,0.173648177667,-1.9278820503E-17));
#86 = DIRECTION('',(0.171010071663,-0.969846310393,0.173648177667));
#87 = ADVANCED_FACE('',(#88),#112,.F.);
#88 = FACE_BOUND('',#89,.T.);
#89 = EDGE_LOOP('',(#90,#98,#105,#111));
#90 = ORIENTED_EDGE('',*,*,#91,.T.);
#91 = EDGE_CURVE('',#62,#92,#94,.T.);
#92 = VERTEX_POINT('',#93);
#93 = CARTESIAN_POINT('',(2.081746244142,19.867068029831,-3.386139464505
    ));
#94 = LINE('',#95,#96);
#95 = CARTESIAN_POINT('',(-0.872677014895,19.34612349683,-3.386139464505
    ));
#96 = VECTOR('',#97,1.);
#97 = DIRECTION('',(0.984807753012,0.173648177667,-1.9278820503E-17));
#98 = ORIENTED_EDGE('',*,*,#99,.T.);
#99 = EDGE_CURVE('',#92,#100,#102,.T.);
#100 = VERTEX_POINT('',#101);
#101 = CARTESIAN_POINT('',(2.292822071391,18.669997528191,
    -10.27979373559));
#102 = B_SPLINE_CURVE_WITH_KNOTS('',1,(#103,#104),.UNSPECIFIED.,.F.,.F.,
  (2,2),(0.,1.),.PIECEWISE_BEZIER_KNOTS.);
#103 = CARTESIAN_POINT('',(2.081746244142,19.867068029831,
    -3.386139464505));
#104 = CARTESIAN_POINT('',(2.292822071391,18.669997528191,
    -10.27979373559));
#105 = ORIENTED_EDGE('',*,*,#106,.F.);
#106 = EDGE_CURVE('',#70,#100,#107,.T.);
#107 = LINE('',#108,#109);
#108 = CARTESIAN_POINT('',(-0.661601187645,18.14905299519,
    -10.27979373559));
#109 = VECTOR('',#110,1.);
#110 = DIRECTION('',(0.984807753012,0.173648177667,-1.9278820503E-17));
#111 = ORIENTED_EDGE('',*,*,#69,.F.);
#112 = PLANE('',#113);
#113 = AXIS2_PLACEMENT_3D('',#114,#115,#116);
#114 = CARTESIAN_POINT('',(-0.661601187645,18.14905299519,
    -10.27979373559));
#115 = DIRECTION('',(0.171010071663,-0.969846310393,0.173648177667));
#116 = DIRECTION('',(-0.984807753012,-0.173648177667,1.9278820503E-17));
#117 = ADVANCED_FACE('',(#118),#142,.F.);
#118 = FACE_BOUND('',#119,.T.);
#119 = EDGE_LOOP('',(#120,#128,#135,#141));
#120 = ORIENTED_EDGE('',*,*,#121,.T.);
#121 = EDGE_CURVE('',#92,#122,#124,.T.);
#122 = VERTEX_POINT('',#123);
#123 = CARTESIAN_POINT('',(5.416442641567,0.955064977168,
    -2.22044604925E-16));
#124 = LINE('',#125,#126);
#125 = CARTESIAN_POINT('',(2.081746244142,19.867068029831,
    -3.386139464505));
#126 = VECTOR('',#127,1.);
#127 = DIRECTION('',(0.171010071663,-0.969846310393,0.173648177667));
#128 = ORIENTED_EDGE('',*,*,#129,.T.);
#129 = EDGE_CURVE('',#122,#130,#132,.T.);
#130 = VERTEX_POINT('',#131);
#131 = CARTESIAN_POINT('',(5.627518468816,-0.242005524472,
    -6.893654271085));
#132 = B_SPLINE_CURVE_WITH_KNOTS('',1,(#133,#134),.UNSPECIFIED.,.F.,.F.,
  (2,2),(0.,1.),.PIECEWISE_BEZIER_KNOTS.);
#133 = CARTESIAN_POINT('',(5.416442641567,0.955064977168,
    -2.22044604925E-16));
#134 = CARTESIAN_POINT('',(5.627518468816,-0.242005524472,
    -6.893654271085));
#135 = ORIENTED_EDGE('',*,*,#136,.F.);
#136 = EDGE_CURVE('',#100,#130,#137,.T.);
#137 = LINE('',#138,#139);
#138 = CARTESIAN_POINT('',(2.292822071391,18.669997528191,
    -10.27979373559));
#139 = VECTOR('',#140,1.);
#140 = DIRECTION('',(0.171010071663,-0.969846310393,0.173648177667));
#141 = ORIENTED_EDGE('',*,*,#99,.F.);
#142 = PLANE('',#143);
#143 = AXIS2_PLACEMENT_3D('',#144,#145,#146);
#144 = CARTESIAN_POINT('',(2.292822071391,18.669997528191,
    -10.27979373559));
#145 = DIRECTION('',(-0.984807753012,-0.173648177667,1.9278820503E-17));
#146 = DIRECTION('',(-0.171010071663,0.969846310393,-0.173648177667));
#147 = ADVANCED_FACE('',(#148),#174,.T.);
#148 = FACE_BOUND('',#149,.T.);
#149 = EDGE_LOOP('',(#150,#159,#166,#173));
#150 = ORIENTED_EDGE('',*,*,#151,.T.);
#151 = EDGE_CURVE('',#122,#152,#154,.T.);
#152 = VERTEX_POINT('',#153);
#153 = CARTESIAN_POINT('',(5.009543800892,0.383317733138,
    8.682408883347E-02));
#154 = CIRCLE('',#155,0.5);
#155 = AXIS2_PLACEMENT_3D('',#156,#157,#158);
#156 = CARTESIAN_POINT('',(4.924038765061,0.868240888335,
    -2.081668171172E-16));
#157 = DIRECTION('',(3.015368960705E-02,-0.171010071663,-0.984807753012)
  );
#158 = DIRECTION('',(0.171010071663,-0.969846310393,0.173648177667));
#159 = ORIENTED_EDGE('',*,*,#160,.T.);
#160 = EDGE_CURVE('',#152,#161,#163,.T.);
#161 = VERTEX_POINT('',#162);
#162 = CARTESIAN_POINT('',(5.220619628142,-0.813752768502,
    -6.806830182252));
#163 = B_SPLINE_CURVE_WITH_KNOTS('',1,(#164,#165),.UNSPECIFIED.,.F.,.F.,
  (2,2),(0.,1.),.PIECEWISE_BEZIER_KNOTS.);
#164 = CARTESIAN_POINT('',(5.009543800892,0.383317733138,
    8.682408883347E-02));
#165 = CARTESIAN_POINT('',(5.220619628142,-0.813752768502,
    -6.806830182252));
#166 = ORIENTED_EDGE('',*,*,#167,.F.);
#167 = EDGE_CURVE('',#130,#161,#168,.T.);
#168 = CIRCLE('',#169,0.5);
#169 = AXIS2_PLACEMENT_3D('',#170,#171,#172);
#170 = CARTESIAN_POINT('',(5.13511459231,-0.328829613305,-6.893654271085
    ));
#171 = DIRECTION('',(3.015368960705E-02,-0.171010071663,-0.984807753012)
  );
#172 = DIRECTION('',(0.171010071663,-0.969846310393,0.173648177667));
#173 = ORIENTED_EDGE('',*,*,#129,.F.);
#174 = CYLINDRICAL_SURFACE('',#175,0.5);
#175 = AXIS2_PLACEMENT_3D('',#176,#177,#178);
#176 = CARTESIAN_POINT('',(4.924038765061,0.868240888335,
    -2.081668171172E-16));
#177 = DIRECTION('',(3.015368960705E-02,-0.171010071663,-0.984807753012)
  );
#178 = DIRECTION('',(0.171010071663,-0.969846310393,0.173648177667));
#179 = ADVANCED_FACE('',(#180),#196,.F.);
#180 = FACE_BOUND('',#181,.T.);
#181 = EDGE_LOOP('',(#182,#188,#189,#195));
#182 = ORIENTED_EDGE('',*,*,#183,.T.);
#183 = EDGE_CURVE('',#152,#22,#184,.T.);
#184 = LINE('',#185,#186);
#185 = CARTESIAN_POINT('',(5.009543800892,0.383317733138,
    8.682408883347E-02));
#186 = VECTOR('',#187,1.);
#187 = DIRECTION('',(-0.984807753012,-0.173648177667,1.9278820503E-17));
#188 = ORIENTED_EDGE('',*,*,#48,.T.);
#189 = ORIENTED_EDGE('',*,*,#190,.F.);
#190 = EDGE_CURVE('',#161,#40,#191,.T.);
#191 = LINE('',#192,#193);
#192 = CARTESIAN_POINT('',(5.220619628142,-0.813752768502,
    -6.806830182252));
#193 = VECTOR('',#194,1.);
#194 = DIRECTION('',(-0.984807753012,-0.173648177667,1.9278820503E-17));
#195 = ORIENTED_EDGE('',*,*,#160,.F.);
#196 = PLANE('',#197);
#197 = AXIS2_PLACEMENT_3D('',#198,#199,#200);
#198 = CARTESIAN_POINT('',(5.220619628142,-0.813752768502,
    -6.806830182252));
#199 = DIRECTION('',(-0.171010071663,0.969846310393,-0.173648177667));
#200 = DIRECTION('',(0.984807753012,0.173648177667,-1.9278820503E-17));
#201 = ADVANCED_FACE('',(#202),#210,.T.);
#202 = FACE_BOUND('',#203,.F.);
#203 = EDGE_LOOP('',(#204,#205,#206,#207,#208,#209));
#204 = ORIENTED_EDGE('',*,*,#21,.T.);
#205 = ORIENTED_EDGE('',*,*,#61,.T.);
#206 = ORIENTED_EDGE('',*,*,#91,.T.);
#207 = ORIENTED_EDGE('',*,*,#121,.T.);
#208 = ORIENTED_EDGE('',*,*,#151,.T.);
#209 = ORIENTED_EDGE('',*,*,#183,.T.);
#210 = PLANE('',#211);
#211 = AXIS2_PLACEMENT_3D('',#212,#213,#214);
#212 = CARTESIAN_POINT('',(2.954423259037,0.520944533001,
    -1.804112415016E-16));
#213 = DIRECTION('',(-3.015368960705E-02,0.171010071663,0.984807753012)
  );
#214 = DIRECTION('',(-0.171010071663,0.969846310393,-0.173648177667));
#215 = ADVANCED_FACE('',(#216),#224,.F.);
#216 = FACE_BOUND('',#217,.T.);
#217 = EDGE_LOOP('',(#218,#219,#220,#221,#222,#223));
#218 = ORIENTED_EDGE('',*,*,#39,.T.);
#219 = ORIENTED_EDGE('',*,*,#76,.T.);
#220 = ORIENTED_EDGE('',*,*,#106,.T.);
#221 = ORIENTED_EDGE('',*,*,#136,.T.);
#222 = ORIENTED_EDGE('',*,*,#167,.T.);
#223 = ORIENTED_EDGE('',*,*,#190,.T.);
#224 = PLANE('',#225);
#225 = AXIS2_PLACEMENT_3D('',#226,#227,#228);
#226 = CARTESIAN_POINT('',(3.165499086286,-0.676125968639,
    -6.893654271085));
#227 = DIRECTION('',(-3.015368960705E-02,0.171010071663,0.984807753012)
  );
#228 = DIRECTION('',(-0.171010071663,0.969846310393,-0.173648177667));
#229 = ( GEOMETRIC_REPRESENTATION_CONTEXT(3) 
GLOBAL_UNCERTAINTY_ASSIGNED_CONTEXT((#233)) GLOBAL_UNIT_ASSIGNED_CONTEXT
((#230,#231,#232)) REPRESENTATION_CONTEXT('Context #1',
  '3D Context with UNIT and UNCERTAINTY') );
#230 = ( LENGTH_UNIT() NAMED_UNIT(*) SI_UNIT(.MILLI.,.METRE.) );
#231 = ( NAMED_UNIT(*) PLANE_ANGLE_UNIT() SI_UNIT($,.RADIAN.) );
#232 = ( NAMED_UNIT(*) SI_UNIT($,.STERADIAN.) SOLID_ANGLE_UNIT() );
#233 = UNCERTAINTY_MEASURE_WITH_UNIT(LENGTH_MEASURE(1.E-07),#230,
  'distance_accuracy_value','confusion accuracy');
#234 = PRODUCT_RELATED_PRODUCT_CATEGORY('part',$,(#7));
#235 = MECHANICAL_DESIGN_GEOMETRIC_PRESENTATION_REPRESENTATION('',(#236)
  ,#229);
#236 = STYLED_ITEM('color',(#237),#15);
#237 = PRESENTATION_STYLE_ASSIGNMENT((#238));
#238 = SURFACE_STYLE_USAGE(.BOTH.,#239);
#239 = SURFACE_SIDE_STYLE('',(#240));
#240 = SURFACE_STYLE_FILL_AREA(#241);
#241 = FILL_AREA_STYLE('',(#242));
#242 = FILL_AREA_STYLE_COLOUR('',#243);
#243 = DRAUGHTING_PRE_DEFINED_COLOUR('green');
ENDSEC;
END-ISO-10303-21;
