ISO-10303-21;
HEADER;
FILE_DESCRIPTION(('Open CASCADE Model'),'2;1');
FILE_NAME('Open CASCADE Shape Model','2026-09-18T15:45:34',('Author'),(
    'Open CASCADE'),'Open CASCADE STEP processor 7.3','Open CASCADE 7.3'
  ,'Unknown');
FILE_SCHEMA(('AUTOMOTIVE_DESIGN { 1 0 10303 214 1 1 1 1 }'));
ENDSEC;
DATA;
#1 = APPLICATION_PROTOCOL_DEFINITION('international standard',
  'automotive_design',2000,#2);
#2 = APPLICATION_CONTEXT(
  'core data for automotive mechanical design processes');
#3 = SHAPE_DEFINITION_REPRESENTATION(#4,#10);
#4 = PRODUCT_DEFINITION_SHAPE('','',#5);
#5 = PRODUCT_DEFINITION('design','',#6,#9);
#6 = PRODUCT_DEFINITION_FORMATION('','',#7);
#7 = PRODUCT('Pottmanager 26','Pottmanager 26','',(#8));
#8 = PRODUCT_CONTEXT('',#2,'mechanical');
#9 = PRODUCT_DEFINITION_CONTEXT('part definition',#2,'design');
#10 = ADVANCED_BREP_SHAPE_REPRESENTATION('',(#11,#15),#1408);
#11 = AXIS2_PLACEMENT_3D('',#12,#13,#14);
#12 = CARTESIAN_POINT('',(0.,0.,0.));
#13 = DIRECTION('',(0.,0.,1.));
#14 = DIRECTION('',(1.,0.,-0.));
#15 = MANIFOLD_SOLID_BREP('',#16);
#16 = CLOSED_SHELL('',(#17,#91,#133,#175,#215,#246,#430,#477,#533,#558,
    #582,#606,#631,#655,#679,#703,#720,#744,#791,#815,#846,#871,#895,
    #920,#944,#968,#999,#1023,#1047,#1071,#1095,#1119,#1143,#1167,#1191,
    #1203,#1243,#1261,#1273,#1291,#1309,#1332,#1344,#1367,#1379));
#17 = ADVANCED_FACE('',(#18),#86,.F.);
#18 = FACE_BOUND('',#19,.F.);
#19 = EDGE_LOOP('',(#20,#30,#39,#54,#62,#71,#79));
#20 = ORIENTED_EDGE('',*,*,#21,.T.);
#21 = EDGE_CURVE('',#22,#24,#26,.T.);
#22 = VERTEX_POINT('',#23);
#23 = CARTESIAN_POINT('',(-0.334999960557,24.847119736048,8.844528071483
    ));
#24 = VERTEX_POINT('',#25);
#25 = CARTESIAN_POINT('',(-3.634999960557,24.847119736048,8.844528077406
    ));
#26 = LINE('',#27,#28);
#27 = CARTESIAN_POINT('',(-0.334999960557,24.847119736048,8.844528071483
    ));
#28 = VECTOR('',#29,1.);
#29 = DIRECTION('',(-1.,1.992735739481E-25,1.794896786755E-09));
#30 = ORIENTED_EDGE('',*,*,#31,.F.);
#31 = EDGE_CURVE('',#32,#24,#34,.T.);
#32 = VERTEX_POINT('',#33);
#33 = CARTESIAN_POINT('',(-3.63499996054,25.229729435154,8.854009637777)
  );
#34 = CIRCLE('',#35,7.724471855);
#35 = AXIS2_PLACEMENT_3D('',#36,#37,#38);
#36 = CARTESIAN_POINT('',(-3.634999946692,24.847119722183,
    16.568999932406));
#37 = DIRECTION('',(-1.,-2.618450527783E-16,1.794896786755E-09));
#38 = DIRECTION('',(2.586233985025E-16,-1.,-1.794896675733E-09));
#39 = ORIENTED_EDGE('',*,*,#40,.T.);
#40 = EDGE_CURVE('',#32,#41,#43,.T.);
#41 = VERTEX_POINT('',#42);
#42 = CARTESIAN_POINT('',(-4.904999960236,26.49972943485,9.023382227944)
  );
#43 = B_SPLINE_CURVE_WITH_KNOTS('',3,(#44,#45,#46,#47,#48,#49,#50,#51,
    #52,#53),.UNSPECIFIED.,.F.,.F.,(4,2,2,2,4),(0.,4.980157199536E-04,
    9.960314399072E-04,1.494047159861E-03,1.992062879814E-03),
  .UNSPECIFIED.);
#44 = CARTESIAN_POINT('',(-3.63499996054,25.229729435154,8.854009637777)
  );
#45 = CARTESIAN_POINT('',(-3.634999960525,25.397951078189,8.862352258065
    ));
#46 = CARTESIAN_POINT('',(-3.668197024852,25.562641267766,8.876187842831
    ));
#47 = CARTESIAN_POINT('',(-3.795481483173,25.869636098991,8.910946055384
    ));
#48 = CARTESIAN_POINT('',(-3.889459814342,26.010010446108,8.931644833002
    ));
#49 = CARTESIAN_POINT('',(-4.122726729229,26.243735764526,8.970909950435
    ));
#50 = CARTESIAN_POINT('',(-4.263897440311,26.338446273888,8.989578544764
    ));
#51 = CARTESIAN_POINT('',(-4.569304446916,26.465680078091,9.015726084509
    ));
#52 = CARTESIAN_POINT('',(-4.736554969591,26.49972943485,9.023382227642)
  );
#53 = CARTESIAN_POINT('',(-4.904999960236,26.49972943485,9.023382227944)
  );
#54 = ORIENTED_EDGE('',*,*,#55,.F.);
#55 = EDGE_CURVE('',#56,#41,#58,.T.);
#56 = VERTEX_POINT('',#57);
#57 = CARTESIAN_POINT('',(-11.98499996023,26.49972943485,9.023382240652)
  );
#58 = LINE('',#59,#60);
#59 = CARTESIAN_POINT('',(-0.334999960236,26.49972943485,9.023382219742)
  );
#60 = VECTOR('',#61,1.);
#61 = DIRECTION('',(1.,-1.992735739481E-25,-1.794896786755E-09));
#62 = ORIENTED_EDGE('',*,*,#63,.F.);
#63 = EDGE_CURVE('',#64,#56,#66,.T.);
#64 = VERTEX_POINT('',#65);
#65 = CARTESIAN_POINT('',(-11.98499995945,27.865311339834,9.458586119926
    ));
#66 = CIRCLE('',#67,7.724471855);
#67 = AXIS2_PLACEMENT_3D('',#68,#69,#70);
#68 = CARTESIAN_POINT('',(-11.98499994669,24.847119722183,
    16.568999947393));
#69 = DIRECTION('',(-1.,1.992735739482E-25,1.794896786755E-09));
#70 = DIRECTION('',(1.794896786755E-09,-1.794896675733E-09,1.));
#71 = ORIENTED_EDGE('',*,*,#72,.F.);
#72 = EDGE_CURVE('',#73,#64,#75,.T.);
#73 = VERTEX_POINT('',#74);
#74 = CARTESIAN_POINT('',(-0.334999959454,27.865311339834,9.458586099016
    ));
#75 = LINE('',#76,#77);
#76 = CARTESIAN_POINT('',(-0.334999959454,27.865311339834,9.458586099016
    ));
#77 = VECTOR('',#78,1.);
#78 = DIRECTION('',(-1.,1.992735739481E-25,1.794896786755E-09));
#79 = ORIENTED_EDGE('',*,*,#80,.T.);
#80 = EDGE_CURVE('',#73,#22,#81,.T.);
#81 = CIRCLE('',#82,7.724471855);
#82 = AXIS2_PLACEMENT_3D('',#83,#84,#85);
#83 = CARTESIAN_POINT('',(-0.334999946692,24.847119722183,
    16.568999926483));
#84 = DIRECTION('',(-1.,1.992735739482E-25,1.794896786755E-09));
#85 = DIRECTION('',(1.794896786755E-09,-1.794896675733E-09,1.));
#86 = CYLINDRICAL_SURFACE('',#87,7.724471855);
#87 = AXIS2_PLACEMENT_3D('',#88,#89,#90);
#88 = CARTESIAN_POINT('',(-0.334999946692,24.847119722183,
    16.568999926483));
#89 = DIRECTION('',(1.,-1.992735739481E-25,-1.794896786755E-09));
#90 = DIRECTION('',(-1.794896786755E-09,1.794896675733E-09,-1.));
#91 = ADVANCED_FACE('',(#92),#128,.T.);
#92 = FACE_BOUND('',#93,.T.);
#93 = EDGE_LOOP('',(#94,#104,#113,#121));
#94 = ORIENTED_EDGE('',*,*,#95,.F.);
#95 = EDGE_CURVE('',#96,#98,#100,.T.);
#96 = VERTEX_POINT('',#97);
#97 = CARTESIAN_POINT('',(-0.334999976025,4.625796596934,0.226550140127)
  );
#98 = VERTEX_POINT('',#99);
#99 = CARTESIAN_POINT('',(-3.634999976025,4.625796596934,0.226550146051)
  );
#100 = LINE('',#101,#102);
#101 = CARTESIAN_POINT('',(5.373845750787,4.625796596934,0.226550129881)
  );
#102 = VECTOR('',#103,1.);
#103 = DIRECTION('',(-1.,1.992735739481E-25,1.794896786755E-09));
#104 = ORIENTED_EDGE('',*,*,#105,.T.);
#105 = EDGE_CURVE('',#96,#106,#108,.T.);
#106 = VERTEX_POINT('',#107);
#107 = CARTESIAN_POINT('',(-0.334999974582,4.902610030913,1.030474730865
    ));
#108 = CIRCLE('',#109,0.675528145);
#109 = AXIS2_PLACEMENT_3D('',#110,#111,#112);
#110 = CARTESIAN_POINT('',(-0.33499997561,5.260585409509,0.45759437424)
  );
#111 = DIRECTION('',(-1.,1.992735739482E-25,1.794896786755E-09));
#112 = DIRECTION('',(1.794896786755E-09,-1.794896675733E-09,1.));
#113 = ORIENTED_EDGE('',*,*,#114,.T.);
#114 = EDGE_CURVE('',#106,#115,#117,.T.);
#115 = VERTEX_POINT('',#116);
#116 = CARTESIAN_POINT('',(-3.634999974582,4.902610030913,1.030474736788
    ));
#117 = LINE('',#118,#119);
#118 = CARTESIAN_POINT('',(5.37384575223,4.902610030913,1.030474720618)
  );
#119 = VECTOR('',#120,1.);
#120 = DIRECTION('',(-1.,1.992735739481E-25,1.794896786755E-09));
#121 = ORIENTED_EDGE('',*,*,#122,.F.);
#122 = EDGE_CURVE('',#98,#115,#123,.T.);
#123 = CIRCLE('',#124,0.675528145);
#124 = AXIS2_PLACEMENT_3D('',#125,#126,#127);
#125 = CARTESIAN_POINT('',(-3.63499997561,5.260585409509,0.457594380163)
  );
#126 = DIRECTION('',(-1.,-2.618450527783E-16,1.794896786755E-09));
#127 = DIRECTION('',(2.586233985025E-16,-1.,-1.794896675733E-09));
#128 = CYLINDRICAL_SURFACE('',#129,0.675528145);
#129 = AXIS2_PLACEMENT_3D('',#130,#131,#132);
#130 = CARTESIAN_POINT('',(5.373845751201,5.260585409509,0.457594363994)
  );
#131 = DIRECTION('',(-1.,1.992735739481E-25,1.794896786755E-09));
#132 = DIRECTION('',(1.794896786755E-09,-1.794896675733E-09,1.));
#133 = ADVANCED_FACE('',(#134),#170,.T.);
#134 = FACE_BOUND('',#135,.T.);
#135 = EDGE_LOOP('',(#136,#147,#155,#164));
#136 = ORIENTED_EDGE('',*,*,#137,.F.);
#137 = EDGE_CURVE('',#138,#140,#142,.T.);
#138 = VERTEX_POINT('',#139);
#139 = CARTESIAN_POINT('',(-3.634999977196,5.23079801029,-0.425647165872
    ));
#140 = VERTEX_POINT('',#141);
#141 = CARTESIAN_POINT('',(-3.634999976414,4.704595323683,
    1.0052424834E-02));
#142 = CIRCLE('',#143,0.675528145);
#143 = AXIS2_PLACEMENT_3D('',#144,#145,#146);
#144 = CARTESIAN_POINT('',(-3.634999975999,5.339384136258,0.241096658947
    ));
#145 = DIRECTION('',(-1.,-2.618450527783E-16,1.794896786755E-09));
#146 = DIRECTION('',(2.586233985025E-16,-1.,-1.794896675733E-09));
#147 = ORIENTED_EDGE('',*,*,#148,.F.);
#148 = EDGE_CURVE('',#149,#138,#151,.T.);
#149 = VERTEX_POINT('',#150);
#150 = CARTESIAN_POINT('',(-0.334999977196,5.23079801029,-0.425647171795
    ));
#151 = LINE('',#152,#153);
#152 = CARTESIAN_POINT('',(5.373845749616,5.23079801029,-0.425647182042)
  );
#153 = VECTOR('',#154,1.);
#154 = DIRECTION('',(-1.,1.992735739481E-25,1.794896786755E-09));
#155 = ORIENTED_EDGE('',*,*,#156,.T.);
#156 = EDGE_CURVE('',#149,#157,#159,.T.);
#157 = VERTEX_POINT('',#158);
#158 = CARTESIAN_POINT('',(-0.334999976414,4.704595323683,
    1.0052418911E-02));
#159 = CIRCLE('',#160,0.675528145);
#160 = AXIS2_PLACEMENT_3D('',#161,#162,#163);
#161 = CARTESIAN_POINT('',(-0.334999975999,5.339384136258,0.241096653024
    ));
#162 = DIRECTION('',(-1.,1.992735739482E-25,1.794896786755E-09));
#163 = DIRECTION('',(1.794896786755E-09,-1.794896675733E-09,1.));
#164 = ORIENTED_EDGE('',*,*,#165,.T.);
#165 = EDGE_CURVE('',#157,#140,#166,.T.);
#166 = LINE('',#167,#168);
#167 = CARTESIAN_POINT('',(5.373845750398,4.704595323683,
    1.0052408664E-02));
#168 = VECTOR('',#169,1.);
#169 = DIRECTION('',(-1.,1.992735739481E-25,1.794896786755E-09));
#170 = CYLINDRICAL_SURFACE('',#171,0.675528145);
#171 = AXIS2_PLACEMENT_3D('',#172,#173,#174);
#172 = CARTESIAN_POINT('',(5.373845750813,5.339384136258,0.241096642777)
  );
#173 = DIRECTION('',(-1.,1.992735739481E-25,1.794896786755E-09));
#174 = DIRECTION('',(1.794896786755E-09,-1.794896675733E-09,1.));
#175 = ADVANCED_FACE('',(#176),#210,.F.);
#176 = FACE_BOUND('',#177,.T.);
#177 = EDGE_LOOP('',(#178,#188,#196,#204));
#178 = ORIENTED_EDGE('',*,*,#179,.T.);
#179 = EDGE_CURVE('',#180,#182,#184,.T.);
#180 = VERTEX_POINT('',#181);
#181 = CARTESIAN_POINT('',(-2.734999984627,0.749729459242,
    -4.566133248706));
#182 = VERTEX_POINT('',#183);
#183 = CARTESIAN_POINT('',(-3.634999984912,1.649729459527,
    -4.724827528113));
#184 = LINE('',#185,#186);
#185 = CARTESIAN_POINT('',(1.257359252076,-3.242629777461,
    -3.862172613149));
#186 = VECTOR('',#187,1.);
#187 = DIRECTION('',(-0.701673843382,0.701673843382,-0.123724027688));
#188 = ORIENTED_EDGE('',*,*,#189,.F.);
#189 = EDGE_CURVE('',#190,#182,#192,.T.);
#190 = VERTEX_POINT('',#191);
#191 = CARTESIAN_POINT('',(-3.635000011751,1.649729486366,
    -19.67788055372));
#192 = LINE('',#193,#194);
#193 = CARTESIAN_POINT('',(-3.634999887584,1.649729362199,
    49.500274887986));
#194 = VECTOR('',#195,1.);
#195 = DIRECTION('',(1.794896786755E-09,-1.794897221381E-09,1.));
#196 = ORIENTED_EDGE('',*,*,#197,.T.);
#197 = EDGE_CURVE('',#190,#198,#200,.T.);
#198 = VERTEX_POINT('',#199);
#199 = CARTESIAN_POINT('',(-2.735000011408,0.749729486023,
    -19.48657965145));
#200 = LINE('',#201,#202);
#201 = CARTESIAN_POINT('',(-33.98863811452,32.00336758914,-26.1297453916
    ));
#202 = VECTOR('',#203,1.);
#203 = DIRECTION('',(0.699252778354,-0.699252778354,0.148630763738));
#204 = ORIENTED_EDGE('',*,*,#205,.F.);
#205 = EDGE_CURVE('',#180,#198,#206,.T.);
#206 = LINE('',#207,#208);
#207 = CARTESIAN_POINT('',(-2.735000030278,0.749729504893,
    -29.99972511524));
#208 = VECTOR('',#209,1.);
#209 = DIRECTION('',(-1.794896786755E-09,1.794897221381E-09,-1.));
#210 = PLANE('',#211);
#211 = AXIS2_PLACEMENT_3D('',#212,#213,#214);
#212 = CARTESIAN_POINT('',(-3.634999887584,1.649729362199,
    49.500274887986));
#213 = DIRECTION('',(0.707106781187,0.707106781187,3.073267577948E-16));
#214 = DIRECTION('',(-0.707106781187,0.707106781187,2.538367300381E-09)
  );
#215 = ADVANCED_FACE('',(#216),#241,.T.);
#216 = FACE_BOUND('',#217,.T.);
#217 = EDGE_LOOP('',(#218,#226,#234,#240));
#218 = ORIENTED_EDGE('',*,*,#219,.F.);
#219 = EDGE_CURVE('',#220,#138,#222,.T.);
#220 = VERTEX_POINT('',#221);
#221 = CARTESIAN_POINT('',(-3.634999978442,9.493103536836,
    -1.119807692887));
#222 = LINE('',#223,#224);
#223 = CARTESIAN_POINT('',(-3.634999973391,-7.785973073284,
    1.694268597822));
#224 = VECTOR('',#225,1.);
#225 = DIRECTION('',(2.885165697573E-10,-0.986996366849,0.160742563832)
  );
#226 = ORIENTED_EDGE('',*,*,#227,.F.);
#227 = EDGE_CURVE('',#228,#220,#230,.T.);
#228 = VERTEX_POINT('',#229);
#229 = CARTESIAN_POINT('',(-0.334999978442,9.493103536836,-1.11980769881
    ));
#230 = LINE('',#231,#232);
#231 = CARTESIAN_POINT('',(5.37384574837,9.493103536836,-1.119807709057)
  );
#232 = VECTOR('',#233,1.);
#233 = DIRECTION('',(-1.,1.992735739481E-25,1.794896786755E-09));
#234 = ORIENTED_EDGE('',*,*,#235,.T.);
#235 = EDGE_CURVE('',#228,#149,#236,.T.);
#236 = LINE('',#237,#238);
#237 = CARTESIAN_POINT('',(-0.334999992748,58.43606505552,
    -9.090675049797));
#238 = VECTOR('',#239,1.);
#239 = DIRECTION('',(2.885163113172E-10,-0.986996366849,0.160742563832)
  );
#240 = ORIENTED_EDGE('',*,*,#148,.T.);
#241 = PLANE('',#242);
#242 = AXIS2_PLACEMENT_3D('',#243,#244,#245);
#243 = CARTESIAN_POINT('',(5.37384574805,10.588106727132,-1.298140300873
    ));
#244 = DIRECTION('',(-1.771556607396E-09,-0.160742563832,-0.986996366849
    ));
#245 = DIRECTION('',(2.885163113172E-10,-0.986996366849,0.160742563832)
  );
#246 = ADVANCED_FACE('',(#247,#258,#269),#425,.F.);
#247 = FACE_BOUND('',#248,.T.);
#248 = EDGE_LOOP('',(#249));
#249 = ORIENTED_EDGE('',*,*,#250,.T.);
#250 = EDGE_CURVE('',#251,#251,#253,.T.);
#251 = VERTEX_POINT('',#252);
#252 = CARTESIAN_POINT('',(-0.334999991026,54.155999991026,
    -8.131000020911));
#253 = CIRCLE('',#254,5.);
#254 = AXIS2_PLACEMENT_3D('',#255,#256,#257);
#255 = CARTESIAN_POINT('',(-0.335,54.156,-13.13100002091));
#256 = DIRECTION('',(-1.,1.992735739482E-25,1.794896786755E-09));
#257 = DIRECTION('',(1.794896786755E-09,-1.794896675733E-09,1.));
#258 = FACE_BOUND('',#259,.T.);
#259 = EDGE_LOOP('',(#260));
#260 = ORIENTED_EDGE('',*,*,#261,.T.);
#261 = EDGE_CURVE('',#262,#262,#264,.T.);
#262 = VERTEX_POINT('',#263);
#263 = CARTESIAN_POINT('',(-0.334999981872,32.216999981872,
    -3.031000060289));
#264 = CIRCLE('',#265,5.);
#265 = AXIS2_PLACEMENT_3D('',#266,#267,#268);
#266 = CARTESIAN_POINT('',(-0.334999990846,32.216999990846,
    -8.031000060289));
#267 = DIRECTION('',(-1.,1.992735739482E-25,1.794896786755E-09));
#268 = DIRECTION('',(1.794896786755E-09,-1.794896675733E-09,1.));
#269 = FACE_BOUND('',#270,.T.);
#270 = EDGE_LOOP('',(#271,#281,#289,#297,#303,#304,#312,#321,#327,#328,
    #334,#335,#336,#344,#353,#361,#369,#377,#385,#393,#402,#410,#418));
#271 = ORIENTED_EDGE('',*,*,#272,.T.);
#272 = EDGE_CURVE('',#273,#275,#277,.T.);
#273 = VERTEX_POINT('',#274);
#274 = CARTESIAN_POINT('',(-0.334999968667,53.001136417688,4.32616640246
    ));
#275 = VERTEX_POINT('',#276);
#276 = CARTESIAN_POINT('',(-0.334999958114,53.001136407135,
    10.205435790178));
#277 = LINE('',#278,#279);
#278 = CARTESIAN_POINT('',(-0.33499992609,53.001136375111,
    28.047272242577));
#279 = VECTOR('',#280,1.);
#280 = DIRECTION('',(1.794896786755E-09,-1.794896655166E-09,1.));
#281 = ORIENTED_EDGE('',*,*,#282,.T.);
#282 = EDGE_CURVE('',#275,#283,#285,.T.);
#283 = VERTEX_POINT('',#284);
#284 = CARTESIAN_POINT('',(-0.334999952077,43.759819748873,
    13.568999960429));
#285 = LINE('',#286,#287);
#286 = CARTESIAN_POINT('',(-0.334999963744,61.619326499267,
    7.068671140912));
#287 = VECTOR('',#288,1.);
#288 = DIRECTION('',(6.138908532333E-10,-0.9396926214,0.342020141639));
#289 = ORIENTED_EDGE('',*,*,#290,.F.);
#290 = EDGE_CURVE('',#291,#283,#293,.T.);
#291 = VERTEX_POINT('',#292);
#292 = CARTESIAN_POINT('',(-0.334999952077,37.548839485171,
    13.568999949281));
#293 = LINE('',#294,#295);
#294 = CARTESIAN_POINT('',(-0.334999952077,60.621136401099,
    13.568999990694));
#295 = VECTOR('',#296,1.);
#296 = DIRECTION('',(3.221654475105E-18,1.,1.794896675733E-09));
#297 = ORIENTED_EDGE('',*,*,#298,.F.);
#298 = EDGE_CURVE('',#73,#291,#299,.T.);
#299 = LINE('',#300,#301);
#300 = CARTESIAN_POINT('',(-0.334999939715,53.774300990913,
    20.456299774217));
#301 = VECTOR('',#302,1.);
#302 = DIRECTION('',(7.013220499766E-10,0.920504852751,0.390731130141));
#303 = ORIENTED_EDGE('',*,*,#80,.T.);
#304 = ORIENTED_EDGE('',*,*,#305,.F.);
#305 = EDGE_CURVE('',#306,#22,#308,.T.);
#306 = VERTEX_POINT('',#307);
#307 = CARTESIAN_POINT('',(-0.334999960557,24.770048554857,
    8.844528071345));
#308 = LINE('',#309,#310);
#309 = CARTESIAN_POINT('',(-0.334999960557,60.621136409579,
    8.844528135694));
#310 = VECTOR('',#311,1.);
#311 = DIRECTION('',(3.221654475105E-18,1.,1.794896675733E-09));
#312 = ORIENTED_EDGE('',*,*,#313,.F.);
#313 = EDGE_CURVE('',#314,#306,#316,.T.);
#314 = VERTEX_POINT('',#315);
#315 = CARTESIAN_POINT('',(-0.334999967559,11.164091578462,
    4.943082663101));
#316 = CIRCLE('',#317,25.675528145);
#317 = AXIS2_PLACEMENT_3D('',#318,#319,#320);
#318 = CARTESIAN_POINT('',(-0.335000006642,24.770048600942,
    -16.83100007365));
#319 = DIRECTION('',(-1.,1.992735739482E-25,1.794896786755E-09));
#320 = DIRECTION('',(1.794896786755E-09,-1.794896675733E-09,1.));
#321 = ORIENTED_EDGE('',*,*,#322,.F.);
#322 = EDGE_CURVE('',#106,#314,#323,.T.);
#323 = LINE('',#324,#325);
#324 = CARTESIAN_POINT('',(-0.334999927977,46.455644324371,
    26.995692443389));
#325 = VECTOR('',#326,1.);
#326 = DIRECTION('',(9.511503873449E-10,0.848048095205,0.529919265755));
#327 = ORIENTED_EDGE('',*,*,#105,.F.);
#328 = ORIENTED_EDGE('',*,*,#329,.F.);
#329 = EDGE_CURVE('',#157,#96,#330,.T.);
#330 = LINE('',#331,#332);
#331 = CARTESIAN_POINT('',(-0.335000001829,9.85841583781,-14.14995298849
    ));
#332 = VECTOR('',#333,1.);
#333 = DIRECTION('',(1.686651264484E-09,-0.342020145012,0.939692620172)
  );
#334 = ORIENTED_EDGE('',*,*,#156,.F.);
#335 = ORIENTED_EDGE('',*,*,#235,.F.);
#336 = ORIENTED_EDGE('',*,*,#337,.T.);
#337 = EDGE_CURVE('',#228,#338,#340,.T.);
#338 = VERTEX_POINT('',#339);
#339 = CARTESIAN_POINT('',(-0.334999966498,49.257971958755,
    5.534549206065));
#340 = LINE('',#341,#342);
#341 = CARTESIAN_POINT('',(-0.334999963237,60.114890238889,7.35137425768
    ));
#342 = VECTOR('',#343,1.);
#343 = DIRECTION('',(2.962434205985E-10,0.986285601241,0.165047607631));
#344 = ORIENTED_EDGE('',*,*,#345,.T.);
#345 = EDGE_CURVE('',#338,#346,#348,.T.);
#346 = VERTEX_POINT('',#347);
#347 = CARTESIAN_POINT('',(-0.334999969286,49.517921940774,
    3.981149384111));
#348 = CIRCLE('',#349,1.397);
#349 = AXIS2_PLACEMENT_3D('',#350,#351,#352);
#350 = CARTESIAN_POINT('',(-0.33499996755,50.526008032506,4.948295408068
    ));
#351 = DIRECTION('',(-1.,1.992735739482E-25,1.794896786755E-09));
#352 = DIRECTION('',(1.794896786755E-09,-1.794896675733E-09,1.));
#353 = ORIENTED_EDGE('',*,*,#354,.T.);
#354 = EDGE_CURVE('',#346,#355,#357,.T.);
#355 = VERTEX_POINT('',#356);
#356 = CARTESIAN_POINT('',(-0.334999981047,10.360948987939,
    -2.571480705798));
#357 = LINE('',#358,#359);
#358 = CARTESIAN_POINT('',(-0.334999966025,60.374840220908,
    5.797974435725));
#359 = VECTOR('',#360,1.);
#360 = DIRECTION('',(-2.962434205985E-10,-0.986285601241,-0.165047607631
    ));
#361 = ORIENTED_EDGE('',*,*,#362,.F.);
#362 = EDGE_CURVE('',#363,#355,#365,.T.);
#363 = VERTEX_POINT('',#364);
#364 = CARTESIAN_POINT('',(-0.33499998747,9.730029591748,-6.149602444615
    ));
#365 = LINE('',#366,#367);
#366 = CARTESIAN_POINT('',(-0.334999953613,13.056046165427,
    12.713175079415));
#367 = VECTOR('',#368,1.);
#368 = DIRECTION('',(1.767628272013E-09,0.173648175899,0.984807753324));
#369 = ORIENTED_EDGE('',*,*,#370,.F.);
#370 = EDGE_CURVE('',#371,#363,#373,.T.);
#371 = VERTEX_POINT('',#372);
#372 = CARTESIAN_POINT('',(-0.334999984912,1.649729459527,
    -4.724827534036));
#373 = LINE('',#374,#375);
#374 = CARTESIAN_POINT('',(-0.335000002523,57.29511984401,
    -14.53661110789));
#375 = VECTOR('',#376,1.);
#376 = DIRECTION('',(-3.116805529476E-10,0.984807753324,-0.173648175899)
  );
#377 = ORIENTED_EDGE('',*,*,#378,.T.);
#378 = EDGE_CURVE('',#371,#379,#381,.T.);
#379 = VERTEX_POINT('',#380);
#380 = CARTESIAN_POINT('',(-0.335000010492,1.649729485107,
    -18.97644390613));
#381 = LINE('',#382,#383);
#382 = CARTESIAN_POINT('',(-0.335000010492,1.649729485107,
    -18.97644390613));
#383 = VECTOR('',#384,1.);
#384 = DIRECTION('',(-1.794896786755E-09,1.794897221381E-09,-1.));
#385 = ORIENTED_EDGE('',*,*,#386,.T.);
#386 = EDGE_CURVE('',#379,#387,#389,.T.);
#387 = VERTEX_POINT('',#388);
#388 = CARTESIAN_POINT('',(-0.335000010492,55.001136459514,
    -18.97644381037));
#389 = LINE('',#390,#391);
#390 = CARTESIAN_POINT('',(-0.335000010492,55.001136459514,
    -18.97644381037));
#391 = VECTOR('',#392,1.);
#392 = DIRECTION('',(3.221654243401E-18,1.,1.794896546643E-09));
#393 = ORIENTED_EDGE('',*,*,#394,.F.);
#394 = EDGE_CURVE('',#395,#387,#397,.T.);
#395 = VERTEX_POINT('',#396);
#396 = CARTESIAN_POINT('',(-0.335000001518,60.001136450539,
    -13.9764438014));
#397 = CIRCLE('',#398,5.);
#398 = AXIS2_PLACEMENT_3D('',#399,#400,#401);
#399 = CARTESIAN_POINT('',(-0.335000001518,55.00113645054,
    -13.97644381037));
#400 = DIRECTION('',(-1.,1.992735739482E-25,1.794896786755E-09));
#401 = DIRECTION('',(1.794896786755E-09,-1.794896675733E-09,1.));
#402 = ORIENTED_EDGE('',*,*,#403,.T.);
#403 = EDGE_CURVE('',#395,#404,#406,.T.);
#404 = VERTEX_POINT('',#405);
#405 = CARTESIAN_POINT('',(-0.334999994093,60.001136443115,
    -9.839962084283));
#406 = LINE('',#407,#408);
#407 = CARTESIAN_POINT('',(-0.334999968667,60.001136417688,
    4.326166415024));
#408 = VECTOR('',#409,1.);
#409 = DIRECTION('',(1.794896786755E-09,-1.794896133632E-09,1.));
#410 = ORIENTED_EDGE('',*,*,#411,.T.);
#411 = EDGE_CURVE('',#404,#412,#414,.T.);
#412 = VERTEX_POINT('',#413);
#413 = CARTESIAN_POINT('',(-0.334999975505,54.022022847689,
    0.516166404292));
#414 = LINE('',#415,#416);
#415 = CARTESIAN_POINT('',(-0.334999975505,54.022022847689,
    0.516166404292));
#416 = VECTOR('',#417,1.);
#417 = DIRECTION('',(1.55442621289E-09,-0.500000001554,0.866025402887));
#418 = ORIENTED_EDGE('',*,*,#419,.T.);
#419 = EDGE_CURVE('',#412,#273,#420,.T.);
#420 = CIRCLE('',#421,7.62);
#421 = AXIS2_PLACEMENT_3D('',#422,#423,#424);
#422 = CARTESIAN_POINT('',(-0.334999968667,60.621136417689,
    4.326166416137));
#423 = DIRECTION('',(-1.,1.992735739482E-25,1.794896786755E-09));
#424 = DIRECTION('',(1.794896786755E-09,-1.794896675733E-09,1.));
#425 = PLANE('',#426);
#426 = AXIS2_PLACEMENT_3D('',#427,#428,#429);
#427 = CARTESIAN_POINT('',(-0.334999968667,60.621136417689,
    4.326166416137));
#428 = DIRECTION('',(-1.,1.992735739481E-25,1.794896786755E-09));
#429 = DIRECTION('',(1.794896786755E-09,-1.794896675733E-09,1.));
#430 = ADVANCED_FACE('',(#431),#472,.T.);
#431 = FACE_BOUND('',#432,.T.);
#432 = EDGE_LOOP('',(#433,#434,#442,#450,#458,#466));
#433 = ORIENTED_EDGE('',*,*,#189,.T.);
#434 = ORIENTED_EDGE('',*,*,#435,.F.);
#435 = EDGE_CURVE('',#436,#182,#438,.T.);
#436 = VERTEX_POINT('',#437);
#437 = CARTESIAN_POINT('',(-3.63499998747,9.730029591748,-6.149602438691
    ));
#438 = LINE('',#439,#440);
#439 = CARTESIAN_POINT('',(-3.634999984627,0.749729459242,
    -4.566133247091));
#440 = VECTOR('',#441,1.);
#441 = DIRECTION('',(3.116808108146E-10,-0.984807753324,0.173648175899)
  );
#442 = ORIENTED_EDGE('',*,*,#443,.T.);
#443 = EDGE_CURVE('',#436,#444,#446,.T.);
#444 = VERTEX_POINT('',#445);
#445 = CARTESIAN_POINT('',(-3.634999981047,10.360948987939,
    -2.571480699875));
#446 = LINE('',#447,#448);
#447 = CARTESIAN_POINT('',(-3.634999893582,18.953314560111,
    46.158246468553));
#448 = VECTOR('',#449,1.);
#449 = DIRECTION('',(1.767628226544E-09,0.173648175899,0.984807753324));
#450 = ORIENTED_EDGE('',*,*,#451,.F.);
#451 = EDGE_CURVE('',#452,#444,#454,.T.);
#452 = VERTEX_POINT('',#453);
#453 = CARTESIAN_POINT('',(-3.634999976581,25.229729451196,
    -8.3300155859E-02));
#454 = LINE('',#455,#456);
#455 = CARTESIAN_POINT('',(-3.634999981529,8.758429141054,
    -2.839650555114));
#456 = VECTOR('',#457,1.);
#457 = DIRECTION('',(-2.962431623445E-10,-0.986285601241,-0.165047607631
    ));
#458 = ORIENTED_EDGE('',*,*,#459,.T.);
#459 = EDGE_CURVE('',#452,#460,#462,.T.);
#460 = VERTEX_POINT('',#461);
#461 = CARTESIAN_POINT('',(-3.635000011751,25.229729486366,
    -19.6778805114));
#462 = LINE('',#463,#464);
#463 = CARTESIAN_POINT('',(-3.634999887584,25.229729362199,
    49.500274930309));
#464 = VECTOR('',#465,1.);
#465 = DIRECTION('',(-1.794896786755E-09,1.794896675733E-09,-1.));
#466 = ORIENTED_EDGE('',*,*,#467,.F.);
#467 = EDGE_CURVE('',#190,#460,#468,.T.);
#468 = LINE('',#469,#470);
#469 = CARTESIAN_POINT('',(-3.635000011751,55.001136460773,
    -19.67788045796));
#470 = VECTOR('',#471,1.);
#471 = DIRECTION('',(-2.586233988341E-16,1.,1.794896490986E-09));
#472 = PLANE('',#473);
#473 = AXIS2_PLACEMENT_3D('',#474,#475,#476);
#474 = CARTESIAN_POINT('',(-3.634999887584,-2.706378010089E-04,
    49.500274885024));
#475 = DIRECTION('',(-1.,-2.618450527783E-16,1.794896786755E-09));
#476 = DIRECTION('',(2.586233985025E-16,-1.,-1.794896675733E-09));
#477 = ADVANCED_FACE('',(#478),#528,.T.);
#478 = FACE_BOUND('',#479,.T.);
#479 = EDGE_LOOP('',(#480,#488,#489,#490,#499,#507,#515,#521,#522));
#480 = ORIENTED_EDGE('',*,*,#481,.T.);
#481 = EDGE_CURVE('',#482,#198,#484,.T.);
#482 = VERTEX_POINT('',#483);
#483 = CARTESIAN_POINT('',(-1.235000010836,0.749729485451,
    -19.16774481164));
#484 = LINE('',#485,#486);
#485 = CARTESIAN_POINT('',(-11.98500001493,0.749729489552,
    -21.45272783029));
#486 = VECTOR('',#487,1.);
#487 = DIRECTION('',(-0.978147601107,3.731801161415E-10,-0.207911689062)
  );
#488 = ORIENTED_EDGE('',*,*,#197,.F.);
#489 = ORIENTED_EDGE('',*,*,#467,.T.);
#490 = ORIENTED_EDGE('',*,*,#491,.F.);
#491 = EDGE_CURVE('',#492,#460,#494,.T.);
#492 = VERTEX_POINT('',#493);
#493 = CARTESIAN_POINT('',(-4.905000012236,26.499729486851,
    -19.94782734016));
#494 = ELLIPSE('',#495,1.298372555479,1.27);
#495 = AXIS2_PLACEMENT_3D('',#496,#497,#498);
#496 = CARTESIAN_POINT('',(-4.905000012236,25.229729486851,
    -19.94782734244));
#497 = DIRECTION('',(0.207911689062,1.755673750664E-09,-0.978147601107)
  );
#498 = DIRECTION('',(0.978147601107,-3.731805967459E-10,0.207911689062)
  );
#499 = ORIENTED_EDGE('',*,*,#500,.T.);
#500 = EDGE_CURVE('',#492,#501,#503,.T.);
#501 = VERTEX_POINT('',#502);
#502 = CARTESIAN_POINT('',(-8.561483411063,26.499729488246,
    -20.72503687236));
#503 = LINE('',#504,#505);
#504 = CARTESIAN_POINT('',(-11.98500001493,26.499729489552,
    -21.45272778408));
#505 = VECTOR('',#506,1.);
#506 = DIRECTION('',(-0.978147601107,3.731783770033E-10,-0.207911689062)
  );
#507 = ORIENTED_EDGE('',*,*,#508,.T.);
#508 = EDGE_CURVE('',#501,#509,#511,.T.);
#509 = VERTEX_POINT('',#510);
#510 = CARTESIAN_POINT('',(-8.561483411063,55.001136462653,
    -20.7250368212));
#511 = LINE('',#512,#513);
#512 = CARTESIAN_POINT('',(-8.561483411063,55.001136462653,
    -20.7250368212));
#513 = VECTOR('',#514,1.);
#514 = DIRECTION('',(3.221654243401E-18,1.,1.794896546643E-09));
#515 = ORIENTED_EDGE('',*,*,#516,.F.);
#516 = EDGE_CURVE('',#387,#509,#517,.T.);
#517 = LINE('',#518,#519);
#518 = CARTESIAN_POINT('',(-10.46456069743,55.001136463379,
    -21.12954838222));
#519 = VECTOR('',#520,1.);
#520 = DIRECTION('',(-0.978147601107,3.731799758555E-10,-0.207911689062)
  );
#521 = ORIENTED_EDGE('',*,*,#386,.F.);
#522 = ORIENTED_EDGE('',*,*,#523,.T.);
#523 = EDGE_CURVE('',#379,#482,#524,.T.);
#524 = LINE('',#525,#526);
#525 = CARTESIAN_POINT('',(19.797727041627,21.782456521864,
    -14.69710066853));
#526 = VECTOR('',#527,1.);
#527 = DIRECTION('',(-0.699252778354,-0.69925277782,-0.148630766248));
#528 = PLANE('',#529);
#529 = AXIS2_PLACEMENT_3D('',#530,#531,#532);
#530 = CARTESIAN_POINT('',(-11.98500001493,55.001136463959,
    -21.45272773292));
#531 = DIRECTION('',(0.207911689062,1.755673750664E-09,-0.978147601107)
  );
#532 = DIRECTION('',(-0.978147601107,3.731800026949E-10,-0.207911689062)
  );
#533 = ADVANCED_FACE('',(#534),#553,.T.);
#534 = FACE_BOUND('',#535,.T.);
#535 = EDGE_LOOP('',(#536,#537,#546,#552));
#536 = ORIENTED_EDGE('',*,*,#516,.T.);
#537 = ORIENTED_EDGE('',*,*,#538,.T.);
#538 = EDGE_CURVE('',#509,#539,#541,.T.);
#539 = VERTEX_POINT('',#540);
#540 = CARTESIAN_POINT('',(-8.56148339895,61.749729476133,-13.9764437835
    ));
#541 = CIRCLE('',#542,6.748593025593);
#542 = AXIS2_PLACEMENT_3D('',#543,#544,#545);
#543 = CARTESIAN_POINT('',(-8.56148339895,55.00113645054,-13.97644379561
    ));
#544 = DIRECTION('',(1.,-1.992735739482E-25,-1.794896786755E-09));
#545 = DIRECTION('',(-1.794896786755E-09,1.794896675733E-09,-1.));
#546 = ORIENTED_EDGE('',*,*,#547,.F.);
#547 = EDGE_CURVE('',#395,#539,#548,.T.);
#548 = LINE('',#549,#550);
#549 = CARTESIAN_POINT('',(-10.46456068459,62.154241040562,
    -13.97644377935));
#550 = VECTOR('',#551,1.);
#551 = DIRECTION('',(-0.978147600734,0.207911690818,2.128853875514E-09)
  );
#552 = ORIENTED_EDGE('',*,*,#394,.T.);
#553 = CONICAL_SURFACE('',#554,7.476283943455,0.209439510239);
#554 = AXIS2_PLACEMENT_3D('',#555,#556,#557);
#555 = CARTESIAN_POINT('',(-11.98500000151,55.00113645054,
    -13.97644378946));
#556 = DIRECTION('',(-1.,1.992735739481E-25,1.794896786755E-09));
#557 = DIRECTION('',(1.794896786755E-09,-1.794896675733E-09,1.));
#558 = ADVANCED_FACE('',(#559),#577,.F.);
#559 = FACE_BOUND('',#560,.T.);
#560 = EDGE_LOOP('',(#561,#562,#570,#576));
#561 = ORIENTED_EDGE('',*,*,#547,.T.);
#562 = ORIENTED_EDGE('',*,*,#563,.T.);
#563 = EDGE_CURVE('',#539,#564,#566,.T.);
#564 = VERTEX_POINT('',#565);
#565 = CARTESIAN_POINT('',(-8.561483390684,61.749729467867,
    -9.37142797728));
#566 = LINE('',#567,#568);
#567 = CARTESIAN_POINT('',(-8.561483390334,61.749729467517,-9.1764437835
    ));
#568 = VECTOR('',#569,1.);
#569 = DIRECTION('',(1.794896786755E-09,-1.794896133632E-09,1.));
#570 = ORIENTED_EDGE('',*,*,#571,.T.);
#571 = EDGE_CURVE('',#564,#404,#572,.T.);
#572 = LINE('',#573,#574);
#573 = CARTESIAN_POINT('',(-11.29933907808,62.33167865891,
    -9.215495155471));
#574 = VECTOR('',#575,1.);
#575 = DIRECTION('',(0.976633245763,-0.207589804653,-5.562352266618E-02)
  );
#576 = ORIENTED_EDGE('',*,*,#403,.F.);
#577 = PLANE('',#578);
#578 = AXIS2_PLACEMENT_3D('',#579,#580,#581);
#579 = CARTESIAN_POINT('',(-11.98500000151,62.477420393995,
    -13.97644377604));
#580 = DIRECTION('',(-0.207911690818,-0.978147600734,-1.3824933209E-09)
  );
#581 = DIRECTION('',(0.978147600734,-0.207911690818,-2.128853988223E-09)
  );
#582 = ADVANCED_FACE('',(#583),#601,.T.);
#583 = FACE_BOUND('',#584,.T.);
#584 = EDGE_LOOP('',(#585,#586,#594,#600));
#585 = ORIENTED_EDGE('',*,*,#571,.F.);
#586 = ORIENTED_EDGE('',*,*,#587,.T.);
#587 = EDGE_CURVE('',#564,#588,#590,.T.);
#588 = VERTEX_POINT('',#589);
#589 = CARTESIAN_POINT('',(-8.561483371368,55.536348827164,
    1.390462934573));
#590 = LINE('',#591,#592);
#591 = CARTESIAN_POINT('',(-8.561483371368,55.536348827164,
    1.390462934573));
#592 = VECTOR('',#593,1.);
#593 = DIRECTION('',(1.55442621289E-09,-0.500000001554,0.866025402887));
#594 = ORIENTED_EDGE('',*,*,#595,.T.);
#595 = EDGE_CURVE('',#588,#412,#596,.T.);
#596 = LINE('',#597,#598);
#597 = CARTESIAN_POINT('',(-13.03106887397,56.359107364242,
    1.865482807424));
#598 = VECTOR('',#599,1.);
#599 = DIRECTION('',(0.978147600547,-0.180056805805,-0.103955847488));
#600 = ORIENTED_EDGE('',*,*,#411,.F.);
#601 = PLANE('',#602);
#602 = AXIS2_PLACEMENT_3D('',#603,#604,#605);
#603 = CARTESIAN_POINT('',(-11.98499997328,56.166547647483,1.75430840078
    ));
#604 = DIRECTION('',(0.207911691696,0.847100670008,0.489073801514));
#605 = DIRECTION('',(-1.554252407332E-09,0.500000001554,-0.866025402887)
  );
#606 = ADVANCED_FACE('',(#607),#626,.F.);
#607 = FACE_BOUND('',#608,.F.);
#608 = EDGE_LOOP('',(#609,#610,#618,#625));
#609 = ORIENTED_EDGE('',*,*,#419,.T.);
#610 = ORIENTED_EDGE('',*,*,#611,.F.);
#611 = EDGE_CURVE('',#612,#273,#614,.T.);
#612 = VERTEX_POINT('',#613);
#613 = CARTESIAN_POINT('',(-8.561483366098,54.749729443282,
    4.326166420364));
#614 = LINE('',#615,#616);
#615 = CARTESIAN_POINT('',(-13.03106886955,55.699769169986,
    4.326166430092));
#616 = VECTOR('',#617,1.);
#617 = DIRECTION('',(0.978147600734,-0.207911690818,-2.128853983947E-09)
  );
#618 = ORIENTED_EDGE('',*,*,#619,.T.);
#619 = EDGE_CURVE('',#612,#588,#620,.T.);
#620 = CIRCLE('',#621,5.871406974407);
#621 = AXIS2_PLACEMENT_3D('',#622,#623,#624);
#622 = CARTESIAN_POINT('',(-8.561483366098,60.621136417689,
    4.326166430903));
#623 = DIRECTION('',(1.,-1.992735739482E-25,-1.794896786755E-09));
#624 = DIRECTION('',(-1.794896786755E-09,1.794896675733E-09,-1.));
#625 = ORIENTED_EDGE('',*,*,#595,.T.);
#626 = CONICAL_SURFACE('',#627,5.143716056545,0.209439510239);
#627 = AXIS2_PLACEMENT_3D('',#628,#629,#630);
#628 = CARTESIAN_POINT('',(-11.98499996866,60.621136417689,
    4.326166437048));
#629 = DIRECTION('',(1.,-1.992735739481E-25,-1.794896786755E-09));
#630 = DIRECTION('',(-1.794896786755E-09,1.794896675733E-09,-1.));
#631 = ADVANCED_FACE('',(#632),#650,.T.);
#632 = FACE_BOUND('',#633,.T.);
#633 = EDGE_LOOP('',(#634,#642,#643,#644));
#634 = ORIENTED_EDGE('',*,*,#635,.F.);
#635 = EDGE_CURVE('',#275,#636,#638,.T.);
#636 = VERTEX_POINT('',#637);
#637 = CARTESIAN_POINT('',(-8.561483356688,54.749729433871,
    9.568999994921));
#638 = LINE('',#639,#640);
#639 = CARTESIAN_POINT('',(-10.60553270114,55.184205534637,
    9.410863631294));
#640 = VECTOR('',#641,1.);
#641 = DIRECTION('',(-0.975358889345,0.20731893202,-7.545791808313E-02)
  );
#642 = ORIENTED_EDGE('',*,*,#272,.F.);
#643 = ORIENTED_EDGE('',*,*,#611,.F.);
#644 = ORIENTED_EDGE('',*,*,#645,.T.);
#645 = EDGE_CURVE('',#612,#636,#646,.T.);
#646 = LINE('',#647,#648);
#647 = CARTESIAN_POINT('',(-8.561483323521,54.749729400705,
    28.047272260481));
#648 = VECTOR('',#649,1.);
#649 = DIRECTION('',(1.794896786755E-09,-1.794896655166E-09,1.));
#650 = PLANE('',#651);
#651 = AXIS2_PLACEMENT_3D('',#652,#653,#654);
#652 = CARTESIAN_POINT('',(-11.98499992608,55.477420318567,
    28.047272267932));
#653 = DIRECTION('',(0.207911690818,0.978147600734,1.382493831037E-09));
#654 = DIRECTION('',(-0.978147600734,0.207911690818,2.128853988223E-09)
  );
#655 = ADVANCED_FACE('',(#656),#674,.T.);
#656 = FACE_BOUND('',#657,.T.);
#657 = EDGE_LOOP('',(#658,#666,#672,#673));
#658 = ORIENTED_EDGE('',*,*,#659,.F.);
#659 = EDGE_CURVE('',#660,#24,#662,.T.);
#660 = VERTEX_POINT('',#661);
#661 = CARTESIAN_POINT('',(-3.634999960557,24.770048554857,
    8.844528077268));
#662 = LINE('',#663,#664);
#663 = CARTESIAN_POINT('',(-3.634999960557,-2.70564829016E-04,
    8.844528032808));
#664 = VECTOR('',#665,1.);
#665 = DIRECTION('',(-2.586233985025E-16,1.,1.794896675733E-09));
#666 = ORIENTED_EDGE('',*,*,#667,.F.);
#667 = EDGE_CURVE('',#306,#660,#668,.T.);
#668 = LINE('',#669,#670);
#669 = CARTESIAN_POINT('',(-0.334999960557,24.770048554857,
    8.844528071345));
#670 = VECTOR('',#671,1.);
#671 = DIRECTION('',(-1.,1.992735739481E-25,1.794896786755E-09));
#672 = ORIENTED_EDGE('',*,*,#305,.T.);
#673 = ORIENTED_EDGE('',*,*,#21,.T.);
#674 = PLANE('',#675);
#675 = AXIS2_PLACEMENT_3D('',#676,#677,#678);
#676 = CARTESIAN_POINT('',(-0.334999960557,-60.74600003944,
    8.844527917852));
#677 = DIRECTION('',(1.794896786755E-09,-1.794896675733E-09,1.));
#678 = DIRECTION('',(3.221654475105E-18,1.,1.794896675733E-09));
#679 = ADVANCED_FACE('',(#680),#698,.T.);
#680 = FACE_BOUND('',#681,.T.);
#681 = EDGE_LOOP('',(#682,#690,#691,#692));
#682 = ORIENTED_EDGE('',*,*,#683,.F.);
#683 = EDGE_CURVE('',#64,#684,#686,.T.);
#684 = VERTEX_POINT('',#685);
#685 = CARTESIAN_POINT('',(-11.98499995207,37.548839485171,
    13.568999970192));
#686 = LINE('',#687,#688);
#687 = CARTESIAN_POINT('',(-11.98499993971,53.774300990913,
    20.456299795128));
#688 = VECTOR('',#689,1.);
#689 = DIRECTION('',(7.013220499766E-10,0.920504852751,0.390731130141));
#690 = ORIENTED_EDGE('',*,*,#72,.F.);
#691 = ORIENTED_EDGE('',*,*,#298,.T.);
#692 = ORIENTED_EDGE('',*,*,#693,.T.);
#693 = EDGE_CURVE('',#291,#684,#694,.T.);
#694 = LINE('',#695,#696);
#695 = CARTESIAN_POINT('',(-0.334999952077,37.548839485171,
    13.568999949281));
#696 = VECTOR('',#697,1.);
#697 = DIRECTION('',(-1.,1.992735739481E-25,1.794896786755E-09));
#698 = PLANE('',#699);
#699 = AXIS2_PLACEMENT_3D('',#700,#701,#702);
#700 = CARTESIAN_POINT('',(-0.334999960596,26.367080708451,
    8.822624923946));
#701 = DIRECTION('',(1.652211202396E-09,-0.390731130141,0.920504852751)
  );
#702 = DIRECTION('',(7.013220499766E-10,0.920504852751,0.390731130141));
#703 = ADVANCED_FACE('',(#704),#715,.T.);
#704 = FACE_BOUND('',#705,.T.);
#705 = EDGE_LOOP('',(#706,#707,#708,#714));
#706 = ORIENTED_EDGE('',*,*,#329,.T.);
#707 = ORIENTED_EDGE('',*,*,#95,.T.);
#708 = ORIENTED_EDGE('',*,*,#709,.F.);
#709 = EDGE_CURVE('',#140,#98,#710,.T.);
#710 = LINE('',#711,#712);
#711 = CARTESIAN_POINT('',(-3.634999895261,-11.75162041684,
    45.223133329114));
#712 = VECTOR('',#713,1.);
#713 = DIRECTION('',(1.686651354041E-09,-0.342020145012,0.939692620172)
  );
#714 = ORIENTED_EDGE('',*,*,#165,.F.);
#715 = PLANE('',#716);
#716 = AXIS2_PLACEMENT_3D('',#717,#718,#719);
#717 = CARTESIAN_POINT('',(5.373845750398,4.704595323683,
    1.0052408664E-02));
#718 = DIRECTION('',(-6.138908592884E-10,-0.939692620172,-0.342020145012
    ));
#719 = DIRECTION('',(1.686651264484E-09,-0.342020145012,0.939692620172)
  );
#720 = ADVANCED_FACE('',(#721),#739,.T.);
#721 = FACE_BOUND('',#722,.T.);
#722 = EDGE_LOOP('',(#723,#724,#732,#738));
#723 = ORIENTED_EDGE('',*,*,#322,.T.);
#724 = ORIENTED_EDGE('',*,*,#725,.T.);
#725 = EDGE_CURVE('',#314,#726,#728,.T.);
#726 = VERTEX_POINT('',#727);
#727 = CARTESIAN_POINT('',(-3.634999967559,11.164091578462,
    4.943082669024));
#728 = LINE('',#729,#730);
#729 = CARTESIAN_POINT('',(5.373845759252,11.164091578462,4.943082652854
    ));
#730 = VECTOR('',#731,1.);
#731 = DIRECTION('',(-1.,1.992735739481E-25,1.794896786755E-09));
#732 = ORIENTED_EDGE('',*,*,#733,.F.);
#733 = EDGE_CURVE('',#115,#726,#734,.T.);
#734 = LINE('',#735,#736);
#735 = CARTESIAN_POINT('',(-3.634999954106,23.158712931218,
    12.438153970054));
#736 = VECTOR('',#737,1.);
#737 = DIRECTION('',(9.511501652877E-10,0.848048095205,0.529919265755));
#738 = ORIENTED_EDGE('',*,*,#114,.F.);
#739 = PLANE('',#740);
#740 = AXIS2_PLACEMENT_3D('',#741,#742,#743);
#741 = CARTESIAN_POINT('',(5.37384575223,4.902610030913,1.030474720618)
  );
#742 = DIRECTION('',(1.5221588011E-09,-0.529919265755,0.848048095205));
#743 = DIRECTION('',(9.511503873449E-10,0.848048095205,0.529919265755));
#744 = ADVANCED_FACE('',(#745),#786,.F.);
#745 = FACE_BOUND('',#746,.T.);
#746 = EDGE_LOOP('',(#747,#755,#763,#771,#778,#779,#785));
#747 = ORIENTED_EDGE('',*,*,#748,.T.);
#748 = EDGE_CURVE('',#346,#749,#751,.T.);
#749 = VERTEX_POINT('',#750);
#750 = CARTESIAN_POINT('',(-11.98499996928,49.517921940774,
    3.981149405021));
#751 = LINE('',#752,#753);
#752 = CARTESIAN_POINT('',(12.732691484337,49.517921940774,
    3.981149360656));
#753 = VECTOR('',#754,1.);
#754 = DIRECTION('',(-1.,1.992735739481E-25,1.794896786755E-09));
#755 = ORIENTED_EDGE('',*,*,#756,.T.);
#756 = EDGE_CURVE('',#749,#757,#759,.T.);
#757 = VERTEX_POINT('',#758);
#758 = CARTESIAN_POINT('',(-11.98499997619,26.499729450814,
    0.129224974941));
#759 = LINE('',#760,#761);
#760 = CARTESIAN_POINT('',(-11.98499996602,60.374840220908,
    5.797974456636));
#761 = VECTOR('',#762,1.);
#762 = DIRECTION('',(-2.962434205985E-10,-0.986285601241,-0.165047607631
    ));
#763 = ORIENTED_EDGE('',*,*,#764,.T.);
#764 = EDGE_CURVE('',#757,#765,#767,.T.);
#765 = VERTEX_POINT('',#766);
#766 = CARTESIAN_POINT('',(-4.9049999762,26.499729450814,0.129224962233)
  );
#767 = LINE('',#768,#769);
#768 = CARTESIAN_POINT('',(-3.6349999762,26.499729450814,0.129224959954)
  );
#769 = VECTOR('',#770,1.);
#770 = DIRECTION('',(1.,1.662010515208E-15,-1.79489650863E-09));
#771 = ORIENTED_EDGE('',*,*,#772,.T.);
#772 = EDGE_CURVE('',#765,#452,#773,.T.);
#773 = ELLIPSE('',#774,1.287659475126,1.27);
#774 = AXIS2_PLACEMENT_3D('',#775,#776,#777);
#775 = CARTESIAN_POINT('',(-4.904999976581,25.229729451196,
    -8.330015358E-02));
#776 = DIRECTION('',(-1.770280856491E-09,0.165047607631,-0.986285601241)
  );
#777 = DIRECTION('',(2.962434205985E-10,0.986285601241,0.165047607631));
#778 = ORIENTED_EDGE('',*,*,#451,.T.);
#779 = ORIENTED_EDGE('',*,*,#780,.T.);
#780 = EDGE_CURVE('',#444,#355,#781,.T.);
#781 = LINE('',#782,#783);
#782 = CARTESIAN_POINT('',(5.373845745764,10.360948987939,
    -2.571480716045));
#783 = VECTOR('',#784,1.);
#784 = DIRECTION('',(1.,-1.992735739481E-25,-1.794896786755E-09));
#785 = ORIENTED_EDGE('',*,*,#354,.F.);
#786 = PLANE('',#787);
#787 = AXIS2_PLACEMENT_3D('',#788,#789,#790);
#788 = CARTESIAN_POINT('',(12.732691484679,50.655983023515,
    4.171595473636));
#789 = DIRECTION('',(-1.770280856491E-09,0.165047607631,-0.986285601241)
  );
#790 = DIRECTION('',(-2.962434205985E-10,-0.986285601241,-0.165047607631
    ));
#791 = ADVANCED_FACE('',(#792),#810,.T.);
#792 = FACE_BOUND('',#793,.T.);
#793 = EDGE_LOOP('',(#794,#802,#803,#804));
#794 = ORIENTED_EDGE('',*,*,#795,.F.);
#795 = EDGE_CURVE('',#180,#796,#798,.T.);
#796 = VERTEX_POINT('',#797);
#797 = CARTESIAN_POINT('',(-1.234999984627,0.749729459242,
    -4.566133251398));
#798 = LINE('',#799,#800);
#799 = CARTESIAN_POINT('',(5.373845742184,0.749729459242,-4.566133263261
    ));
#800 = VECTOR('',#801,1.);
#801 = DIRECTION('',(1.,-1.992735739481E-25,-1.794896786755E-09));
#802 = ORIENTED_EDGE('',*,*,#205,.T.);
#803 = ORIENTED_EDGE('',*,*,#481,.F.);
#804 = ORIENTED_EDGE('',*,*,#805,.T.);
#805 = EDGE_CURVE('',#482,#796,#806,.T.);
#806 = LINE('',#807,#808);
#807 = CARTESIAN_POINT('',(-1.234999984627,0.749729459242,
    -4.566133251398));
#808 = VECTOR('',#809,1.);
#809 = DIRECTION('',(1.794896786755E-09,-1.794897221381E-09,1.));
#810 = PLANE('',#811);
#811 = AXIS2_PLACEMENT_3D('',#812,#813,#814);
#812 = CARTESIAN_POINT('',(5.373845696534,0.749729504893,-29.9997251298)
  );
#813 = DIRECTION('',(-3.221655454487E-18,-1.,-1.794897221381E-09));
#814 = DIRECTION('',(1.794896786755E-09,-1.794897221381E-09,1.));
#815 = ADVANCED_FACE('',(#816),#841,.F.);
#816 = FACE_BOUND('',#817,.T.);
#817 = EDGE_LOOP('',(#818,#826,#834,#840));
#818 = ORIENTED_EDGE('',*,*,#819,.T.);
#819 = EDGE_CURVE('',#564,#820,#822,.T.);
#820 = VERTEX_POINT('',#821);
#821 = CARTESIAN_POINT('',(-11.98499999458,58.977420387063,
    -10.11426595584));
#822 = LINE('',#823,#824);
#823 = CARTESIAN_POINT('',(-9.14827143745,61.27455787714,-9.498749821143
    ));
#824 = VECTOR('',#825,1.);
#825 = DIRECTION('',(-0.766327191355,-0.620559523222,-0.166278422921));
#826 = ORIENTED_EDGE('',*,*,#827,.F.);
#827 = EDGE_CURVE('',#828,#820,#830,.T.);
#828 = VERTEX_POINT('',#829);
#829 = CARTESIAN_POINT('',(-11.98499997642,53.135458737379,
    4.308395338995E-03));
#830 = LINE('',#831,#832);
#831 = CARTESIAN_POINT('',(-11.98499997642,53.135458737379,
    4.308395338995E-03));
#832 = VECTOR('',#833,1.);
#833 = DIRECTION('',(-1.55442621289E-09,0.500000001554,-0.866025402887)
  );
#834 = ORIENTED_EDGE('',*,*,#835,.F.);
#835 = EDGE_CURVE('',#588,#828,#836,.T.);
#836 = LINE('',#837,#838);
#837 = CARTESIAN_POINT('',(-8.561483371368,55.536348827164,
    1.390462934573));
#838 = VECTOR('',#839,1.);
#839 = DIRECTION('',(-0.777145962022,-0.545007445204,-0.314660195108));
#840 = ORIENTED_EDGE('',*,*,#587,.F.);
#841 = PLANE('',#842);
#842 = AXIS2_PLACEMENT_3D('',#843,#844,#845);
#843 = CARTESIAN_POINT('',(-11.98499997642,53.135458737379,
    4.308395338995E-03));
#844 = DIRECTION('',(0.629320390352,-0.673028144373,-0.388572983066));
#845 = DIRECTION('',(0.730426561632,0.682991243035,-8.517874550043E-11)
  );
#846 = ADVANCED_FACE('',(#847),#866,.F.);
#847 = FACE_BOUND('',#848,.F.);
#848 = EDGE_LOOP('',(#849,#850,#858,#865));
#849 = ORIENTED_EDGE('',*,*,#619,.F.);
#850 = ORIENTED_EDGE('',*,*,#851,.T.);
#851 = EDGE_CURVE('',#612,#852,#854,.T.);
#852 = VERTEX_POINT('',#853);
#853 = CARTESIAN_POINT('',(-11.98499996866,51.977420361144,
    4.326166421533));
#854 = LINE('',#855,#856);
#855 = CARTESIAN_POINT('',(-8.561483366098,54.749729443282,
    4.326166420364));
#856 = VECTOR('',#857,1.);
#857 = DIRECTION('',(-0.777145961457,-0.62932039105,2.653317111926E-10)
  );
#858 = ORIENTED_EDGE('',*,*,#859,.F.);
#859 = EDGE_CURVE('',#828,#852,#860,.T.);
#860 = CIRCLE('',#861,8.643716056545);
#861 = AXIS2_PLACEMENT_3D('',#862,#863,#864);
#862 = CARTESIAN_POINT('',(-11.98499996866,60.621136417689,
    4.326166437048));
#863 = DIRECTION('',(-1.,1.992735739482E-25,1.794896786755E-09));
#864 = DIRECTION('',(1.794896786755E-09,-1.794896675733E-09,1.));
#865 = ORIENTED_EDGE('',*,*,#835,.F.);
#866 = CONICAL_SURFACE('',#867,5.871406974407,0.680678408278);
#867 = AXIS2_PLACEMENT_3D('',#868,#869,#870);
#868 = CARTESIAN_POINT('',(-8.561483366098,60.621136417689,
    4.326166430903));
#869 = DIRECTION('',(-1.,1.992735739481E-25,1.794896786755E-09));
#870 = DIRECTION('',(1.794896786755E-09,-1.794896675733E-09,1.));
#871 = ADVANCED_FACE('',(#872),#890,.T.);
#872 = FACE_BOUND('',#873,.T.);
#873 = EDGE_LOOP('',(#874,#882,#888,#889));
#874 = ORIENTED_EDGE('',*,*,#875,.T.);
#875 = EDGE_CURVE('',#539,#876,#878,.T.);
#876 = VERTEX_POINT('',#877);
#877 = CARTESIAN_POINT('',(-11.98500000151,58.977420393995,
    -13.97644378233));
#878 = LINE('',#879,#880);
#879 = CARTESIAN_POINT('',(-8.56148339895,61.749729476133,-13.9764437835
    ));
#880 = VECTOR('',#881,1.);
#881 = DIRECTION('',(-0.777145961457,-0.62932039105,2.653320523479E-10)
  );
#882 = ORIENTED_EDGE('',*,*,#883,.F.);
#883 = EDGE_CURVE('',#820,#876,#884,.T.);
#884 = LINE('',#885,#886);
#885 = CARTESIAN_POINT('',(-11.98500000151,58.977420393995,
    -13.97644378233));
#886 = VECTOR('',#887,1.);
#887 = DIRECTION('',(-1.794896786755E-09,1.794896133632E-09,-1.));
#888 = ORIENTED_EDGE('',*,*,#819,.F.);
#889 = ORIENTED_EDGE('',*,*,#563,.F.);
#890 = PLANE('',#891);
#891 = AXIS2_PLACEMENT_3D('',#892,#893,#894);
#892 = CARTESIAN_POINT('',(-8.56148339895,61.749729476133,-13.9764437835
    ));
#893 = DIRECTION('',(-0.62932039105,0.777145961457,2.524461429221E-09));
#894 = DIRECTION('',(-0.777145961457,-0.62932039105,2.653317111926E-10)
  );
#895 = ADVANCED_FACE('',(#896),#915,.T.);
#896 = FACE_BOUND('',#897,.T.);
#897 = EDGE_LOOP('',(#898,#906,#913,#914));
#898 = ORIENTED_EDGE('',*,*,#899,.T.);
#899 = EDGE_CURVE('',#509,#900,#902,.T.);
#900 = VERTEX_POINT('',#901);
#901 = CARTESIAN_POINT('',(-11.98500000865,55.001136457677,
    -17.95272773292));
#902 = LINE('',#903,#904);
#903 = CARTESIAN_POINT('',(-8.561483411063,55.001136462653,
    -20.7250368212));
#904 = VECTOR('',#905,1.);
#905 = DIRECTION('',(-0.777145960327,-1.129564996629E-09,0.629320392445)
  );
#906 = ORIENTED_EDGE('',*,*,#907,.F.);
#907 = EDGE_CURVE('',#876,#900,#908,.T.);
#908 = CIRCLE('',#909,3.976283943455);
#909 = AXIS2_PLACEMENT_3D('',#910,#911,#912);
#910 = CARTESIAN_POINT('',(-11.98500000151,55.00113645054,
    -13.97644378946));
#911 = DIRECTION('',(-1.,1.992735739482E-25,1.794896786755E-09));
#912 = DIRECTION('',(1.794896786755E-09,-1.794896675733E-09,1.));
#913 = ORIENTED_EDGE('',*,*,#875,.F.);
#914 = ORIENTED_EDGE('',*,*,#538,.F.);
#915 = CONICAL_SURFACE('',#916,3.976283943455,0.680678408278);
#916 = AXIS2_PLACEMENT_3D('',#917,#918,#919);
#917 = CARTESIAN_POINT('',(-11.98500000151,55.00113645054,
    -13.97644378946));
#918 = DIRECTION('',(1.,-1.992735739481E-25,-1.794896786755E-09));
#919 = DIRECTION('',(-1.794896786755E-09,1.794896675733E-09,-1.));
#920 = ADVANCED_FACE('',(#921),#939,.F.);
#921 = FACE_BOUND('',#922,.T.);
#922 = EDGE_LOOP('',(#923,#924,#925,#933));
#923 = ORIENTED_EDGE('',*,*,#899,.F.);
#924 = ORIENTED_EDGE('',*,*,#508,.F.);
#925 = ORIENTED_EDGE('',*,*,#926,.F.);
#926 = EDGE_CURVE('',#927,#501,#929,.T.);
#927 = VERTEX_POINT('',#928);
#928 = CARTESIAN_POINT('',(-11.98500000865,26.49972948327,
    -17.95272778408));
#929 = LINE('',#930,#931);
#930 = CARTESIAN_POINT('',(-11.98500000865,26.49972948327,
    -17.95272778408));
#931 = VECTOR('',#932,1.);
#932 = DIRECTION('',(0.777145960327,1.129566369492E-09,-0.629320392445)
  );
#933 = ORIENTED_EDGE('',*,*,#934,.F.);
#934 = EDGE_CURVE('',#900,#927,#935,.T.);
#935 = LINE('',#936,#937);
#936 = CARTESIAN_POINT('',(-11.98500000865,60.621136457677,
    -17.95272772283));
#937 = VECTOR('',#938,1.);
#938 = DIRECTION('',(-3.221654243401E-18,-1.,-1.794896546643E-09));
#939 = PLANE('',#940);
#940 = AXIS2_PLACEMENT_3D('',#941,#942,#943);
#941 = CARTESIAN_POINT('',(-11.98500000865,60.621136457677,
    -17.95272772283));
#942 = DIRECTION('',(0.629320392445,-1.394896602457E-09,0.777145960327)
  );
#943 = DIRECTION('',(0.777145960327,1.129565077867E-09,-0.629320392445)
  );
#944 = ADVANCED_FACE('',(#945),#963,.F.);
#945 = FACE_BOUND('',#946,.T.);
#946 = EDGE_LOOP('',(#947,#955,#956,#957));
#947 = ORIENTED_EDGE('',*,*,#948,.T.);
#948 = EDGE_CURVE('',#949,#636,#951,.T.);
#949 = VERTEX_POINT('',#950);
#950 = CARTESIAN_POINT('',(-11.98499995744,51.977420349922,
    10.578037982174));
#951 = LINE('',#952,#953);
#952 = CARTESIAN_POINT('',(-10.92759250025,52.83369202635,
    10.266380579351));
#953 = VECTOR('',#954,1.);
#954 = DIRECTION('',(0.757527881232,0.613433983646,-0.223271710847));
#955 = ORIENTED_EDGE('',*,*,#645,.F.);
#956 = ORIENTED_EDGE('',*,*,#851,.T.);
#957 = ORIENTED_EDGE('',*,*,#958,.F.);
#958 = EDGE_CURVE('',#949,#852,#959,.T.);
#959 = LINE('',#960,#961);
#960 = CARTESIAN_POINT('',(-11.98499996866,51.977420361144,
    4.326166421533));
#961 = VECTOR('',#962,1.);
#962 = DIRECTION('',(-1.794896786755E-09,1.794896655166E-09,-1.));
#963 = PLANE('',#964);
#964 = AXIS2_PLACEMENT_3D('',#965,#966,#967);
#965 = CARTESIAN_POINT('',(-11.98499996866,51.977420361144,
    4.326166421533));
#966 = DIRECTION('',(0.62932039105,-0.777145961457,-2.524461834529E-09)
  );
#967 = DIRECTION('',(0.777145961457,0.62932039105,-2.653317111926E-10));
#968 = ADVANCED_FACE('',(#969),#994,.T.);
#969 = FACE_BOUND('',#970,.T.);
#970 = EDGE_LOOP('',(#971,#981,#987,#988));
#971 = ORIENTED_EDGE('',*,*,#972,.F.);
#972 = EDGE_CURVE('',#973,#975,#977,.T.);
#973 = VERTEX_POINT('',#974);
#974 = CARTESIAN_POINT('',(-4.904999973333,26.499729447948,
    1.726125492409));
#975 = VERTEX_POINT('',#976);
#976 = CARTESIAN_POINT('',(-11.98499997333,26.499729447948,
    1.726125505117));
#977 = LINE('',#978,#979);
#978 = CARTESIAN_POINT('',(-3.634999973333,26.499729447948,1.72612549013
    ));
#979 = VECTOR('',#980,1.);
#980 = DIRECTION('',(-1.,-1.662010515208E-15,1.79489650863E-09));
#981 = ORIENTED_EDGE('',*,*,#982,.F.);
#982 = EDGE_CURVE('',#41,#973,#983,.T.);
#983 = LINE('',#984,#985);
#984 = CARTESIAN_POINT('',(-4.904999887584,26.499729362199,
    49.500274934868));
#985 = VECTOR('',#986,1.);
#986 = DIRECTION('',(-1.794896786755E-09,1.794896675733E-09,-1.));
#987 = ORIENTED_EDGE('',*,*,#55,.F.);
#988 = ORIENTED_EDGE('',*,*,#989,.T.);
#989 = EDGE_CURVE('',#56,#975,#990,.T.);
#990 = LINE('',#991,#992);
#991 = CARTESIAN_POINT('',(-11.98499988758,26.499729362199,
    49.500274947576));
#992 = VECTOR('',#993,1.);
#993 = DIRECTION('',(-1.794896786755E-09,1.794896675733E-09,-1.));
#994 = PLANE('',#995);
#995 = AXIS2_PLACEMENT_3D('',#996,#997,#998);
#996 = CARTESIAN_POINT('',(-3.634999887584,26.499729362199,
    49.500274932589));
#997 = DIRECTION('',(1.658788861431E-15,-1.,-1.794896675733E-09));
#998 = DIRECTION('',(1.,1.662010515707E-15,-1.794896786755E-09));
#999 = ADVANCED_FACE('',(#1000),#1018,.T.);
#1000 = FACE_BOUND('',#1001,.T.);
#1001 = EDGE_LOOP('',(#1002,#1010,#1016,#1017));
#1002 = ORIENTED_EDGE('',*,*,#1003,.F.);
#1003 = EDGE_CURVE('',#1004,#283,#1006,.T.);
#1004 = VERTEX_POINT('',#1005);
#1005 = CARTESIAN_POINT('',(-11.98499995207,43.759819748873,
    13.56899998134));
#1006 = LINE('',#1007,#1008);
#1007 = CARTESIAN_POINT('',(-11.48499995207,43.759819748873,
    13.568999980442));
#1008 = VECTOR('',#1009,1.);
#1009 = DIRECTION('',(1.,5.49796807825E-17,-1.794896786755E-09));
#1010 = ORIENTED_EDGE('',*,*,#1011,.F.);
#1011 = EDGE_CURVE('',#684,#1004,#1012,.T.);
#1012 = LINE('',#1013,#1014);
#1013 = CARTESIAN_POINT('',(-11.98499995207,60.621136401099,
    13.569000011604));
#1014 = VECTOR('',#1015,1.);
#1015 = DIRECTION('',(3.221654475105E-18,1.,1.794896675733E-09));
#1016 = ORIENTED_EDGE('',*,*,#693,.F.);
#1017 = ORIENTED_EDGE('',*,*,#290,.T.);
#1018 = PLANE('',#1019);
#1019 = AXIS2_PLACEMENT_3D('',#1020,#1021,#1022);
#1020 = CARTESIAN_POINT('',(-11.48499995207,-9.712850397973,
    13.568999884464));
#1021 = DIRECTION('',(1.794896786755E-09,-1.794896675733E-09,1.));
#1022 = DIRECTION('',(3.221654475105E-18,1.,1.794896675733E-09));
#1023 = ADVANCED_FACE('',(#1024),#1042,.F.);
#1024 = FACE_BOUND('',#1025,.F.);
#1025 = EDGE_LOOP('',(#1026,#1035,#1040,#1041));
#1026 = ORIENTED_EDGE('',*,*,#1027,.F.);
#1027 = EDGE_CURVE('',#1028,#1028,#1030,.T.);
#1028 = VERTEX_POINT('',#1029);
#1029 = CARTESIAN_POINT('',(-1.096999981872,32.216999981872,
    -3.031000058921));
#1030 = CIRCLE('',#1031,5.);
#1031 = AXIS2_PLACEMENT_3D('',#1032,#1033,#1034);
#1032 = CARTESIAN_POINT('',(-1.096999990846,32.216999990846,
    -8.031000058921));
#1033 = DIRECTION('',(-1.,1.992735739482E-25,1.794896786755E-09));
#1034 = DIRECTION('',(1.794896786755E-09,-1.794896675733E-09,1.));
#1035 = ORIENTED_EDGE('',*,*,#1036,.F.);
#1036 = EDGE_CURVE('',#262,#1028,#1037,.T.);
#1037 = B_SPLINE_CURVE_WITH_KNOTS('',1,(#1038,#1039),.UNSPECIFIED.,.F.,
  .F.,(2,2),(0.,0.762),.PIECEWISE_BEZIER_KNOTS.);
#1038 = CARTESIAN_POINT('',(-0.334999981872,32.216999981872,
    -3.031000060289));
#1039 = CARTESIAN_POINT('',(-1.096999981872,32.216999981872,
    -3.031000058921));
#1040 = ORIENTED_EDGE('',*,*,#261,.T.);
#1041 = ORIENTED_EDGE('',*,*,#1036,.T.);
#1042 = CYLINDRICAL_SURFACE('',#1043,5.);
#1043 = AXIS2_PLACEMENT_3D('',#1044,#1045,#1046);
#1044 = CARTESIAN_POINT('',(-0.334999990846,32.216999990846,
    -8.031000060289));
#1045 = DIRECTION('',(-1.,1.992735739481E-25,1.794896786755E-09));
#1046 = DIRECTION('',(1.794896786755E-09,-1.794896675733E-09,1.));
#1047 = ADVANCED_FACE('',(#1048),#1066,.F.);
#1048 = FACE_BOUND('',#1049,.F.);
#1049 = EDGE_LOOP('',(#1050,#1059,#1064,#1065));
#1050 = ORIENTED_EDGE('',*,*,#1051,.F.);
#1051 = EDGE_CURVE('',#1052,#1052,#1054,.T.);
#1052 = VERTEX_POINT('',#1053);
#1053 = CARTESIAN_POINT('',(-1.096999991026,54.155999991026,
    -8.131000019543));
#1054 = CIRCLE('',#1055,5.);
#1055 = AXIS2_PLACEMENT_3D('',#1056,#1057,#1058);
#1056 = CARTESIAN_POINT('',(-1.097,54.156,-13.13100001954));
#1057 = DIRECTION('',(-1.,1.992735739482E-25,1.794896786755E-09));
#1058 = DIRECTION('',(1.794896786755E-09,-1.794896675733E-09,1.));
#1059 = ORIENTED_EDGE('',*,*,#1060,.F.);
#1060 = EDGE_CURVE('',#251,#1052,#1061,.T.);
#1061 = B_SPLINE_CURVE_WITH_KNOTS('',1,(#1062,#1063),.UNSPECIFIED.,.F.,
  .F.,(2,2),(0.,0.762),.PIECEWISE_BEZIER_KNOTS.);
#1062 = CARTESIAN_POINT('',(-0.334999991026,54.155999991026,
    -8.131000020911));
#1063 = CARTESIAN_POINT('',(-1.096999991026,54.155999991026,
    -8.131000019543));
#1064 = ORIENTED_EDGE('',*,*,#250,.T.);
#1065 = ORIENTED_EDGE('',*,*,#1060,.T.);
#1066 = CYLINDRICAL_SURFACE('',#1067,5.);
#1067 = AXIS2_PLACEMENT_3D('',#1068,#1069,#1070);
#1068 = CARTESIAN_POINT('',(-0.335,54.156,-13.13100002091));
#1069 = DIRECTION('',(-1.,1.992735739481E-25,1.794896786755E-09));
#1070 = DIRECTION('',(1.794896786755E-09,-1.794896675733E-09,1.));
#1071 = ADVANCED_FACE('',(#1072),#1090,.F.);
#1072 = FACE_BOUND('',#1073,.F.);
#1073 = EDGE_LOOP('',(#1074,#1083,#1088,#1089));
#1074 = ORIENTED_EDGE('',*,*,#1075,.F.);
#1075 = EDGE_CURVE('',#1076,#1076,#1078,.T.);
#1076 = VERTEX_POINT('',#1077);
#1077 = CARTESIAN_POINT('',(-3.352059678205,32.216999984115,
    -4.281000054874));
#1078 = CIRCLE('',#1079,3.75);
#1079 = AXIS2_PLACEMENT_3D('',#1080,#1081,#1082);
#1080 = CARTESIAN_POINT('',(-3.352059684936,32.216999990846,
    -8.031000054874));
#1081 = DIRECTION('',(-1.,1.992735739482E-25,1.794896786755E-09));
#1082 = DIRECTION('',(1.794896786755E-09,-1.794896675733E-09,1.));
#1083 = ORIENTED_EDGE('',*,*,#1084,.T.);
#1084 = EDGE_CURVE('',#1076,#1028,#1085,.T.);
#1085 = B_SPLINE_CURVE_WITH_KNOTS('',1,(#1086,#1087),.UNSPECIFIED.,.F.,
  .F.,(2,2),(-2.578331674534,-4.440892098501E-16),
  .PIECEWISE_BEZIER_KNOTS.);
#1086 = CARTESIAN_POINT('',(-3.352059678205,32.216999984115,
    -4.281000054874));
#1087 = CARTESIAN_POINT('',(-1.096999981872,32.216999981872,
    -3.031000058921));
#1088 = ORIENTED_EDGE('',*,*,#1027,.T.);
#1089 = ORIENTED_EDGE('',*,*,#1084,.F.);
#1090 = CONICAL_SURFACE('',#1091,5.,0.506145483078);
#1091 = AXIS2_PLACEMENT_3D('',#1092,#1093,#1094);
#1092 = CARTESIAN_POINT('',(-1.096999990846,32.216999990846,
    -8.031000058921));
#1093 = DIRECTION('',(1.,-1.992735739481E-25,-1.794896786755E-09));
#1094 = DIRECTION('',(-1.794896786755E-09,1.794896675733E-09,-1.));
#1095 = ADVANCED_FACE('',(#1096),#1114,.F.);
#1096 = FACE_BOUND('',#1097,.F.);
#1097 = EDGE_LOOP('',(#1098,#1107,#1112,#1113));
#1098 = ORIENTED_EDGE('',*,*,#1099,.F.);
#1099 = EDGE_CURVE('',#1100,#1100,#1102,.T.);
#1100 = VERTEX_POINT('',#1101);
#1101 = CARTESIAN_POINT('',(-11.98499998411,32.216999984115,
    -4.281000039378));
#1102 = CIRCLE('',#1103,3.75);
#1103 = AXIS2_PLACEMENT_3D('',#1104,#1105,#1106);
#1104 = CARTESIAN_POINT('',(-11.98499999084,32.216999990846,
    -8.031000039378));
#1105 = DIRECTION('',(-1.,1.992735739482E-25,1.794896786755E-09));
#1106 = DIRECTION('',(1.794896786755E-09,-1.794896675733E-09,1.));
#1107 = ORIENTED_EDGE('',*,*,#1108,.F.);
#1108 = EDGE_CURVE('',#1076,#1100,#1109,.T.);
#1109 = B_SPLINE_CURVE_WITH_KNOTS('',1,(#1110,#1111),.UNSPECIFIED.,.F.,
  .F.,(2,2),(-47.24494030591,-38.612),.PIECEWISE_BEZIER_KNOTS.);
#1110 = CARTESIAN_POINT('',(-3.352059678205,32.216999984115,
    -4.281000054874));
#1111 = CARTESIAN_POINT('',(-11.98499998411,32.216999984115,
    -4.281000039378));
#1112 = ORIENTED_EDGE('',*,*,#1075,.T.);
#1113 = ORIENTED_EDGE('',*,*,#1108,.T.);
#1114 = CYLINDRICAL_SURFACE('',#1115,3.75);
#1115 = AXIS2_PLACEMENT_3D('',#1116,#1117,#1118);
#1116 = CARTESIAN_POINT('',(-50.59699999084,32.216999990846,
    -8.030999970074));
#1117 = DIRECTION('',(-1.,1.992735739481E-25,1.794896786755E-09));
#1118 = DIRECTION('',(1.794896786755E-09,-1.794896675733E-09,1.));
#1119 = ADVANCED_FACE('',(#1120),#1138,.F.);
#1120 = FACE_BOUND('',#1121,.F.);
#1121 = EDGE_LOOP('',(#1122,#1131,#1136,#1137));
#1122 = ORIENTED_EDGE('',*,*,#1123,.F.);
#1123 = EDGE_CURVE('',#1124,#1124,#1126,.T.);
#1124 = VERTEX_POINT('',#1125);
#1125 = CARTESIAN_POINT('',(-3.352059687359,54.155999993269,
    -9.381000015495));
#1126 = CIRCLE('',#1127,3.75);
#1127 = AXIS2_PLACEMENT_3D('',#1128,#1129,#1130);
#1128 = CARTESIAN_POINT('',(-3.35205969409,54.156,-13.13100001549));
#1129 = DIRECTION('',(-1.,1.992735739482E-25,1.794896786755E-09));
#1130 = DIRECTION('',(1.794896786755E-09,-1.794896675733E-09,1.));
#1131 = ORIENTED_EDGE('',*,*,#1132,.T.);
#1132 = EDGE_CURVE('',#1124,#1052,#1133,.T.);
#1133 = B_SPLINE_CURVE_WITH_KNOTS('',1,(#1134,#1135),.UNSPECIFIED.,.F.,
  .F.,(2,2),(-2.578331674534,0.),.PIECEWISE_BEZIER_KNOTS.);
#1134 = CARTESIAN_POINT('',(-3.352059687359,54.155999993269,
    -9.381000015495));
#1135 = CARTESIAN_POINT('',(-1.096999991026,54.155999991026,
    -8.131000019543));
#1136 = ORIENTED_EDGE('',*,*,#1051,.T.);
#1137 = ORIENTED_EDGE('',*,*,#1132,.F.);
#1138 = CONICAL_SURFACE('',#1139,5.,0.506145483078);
#1139 = AXIS2_PLACEMENT_3D('',#1140,#1141,#1142);
#1140 = CARTESIAN_POINT('',(-1.097,54.156,-13.13100001954));
#1141 = DIRECTION('',(1.,-1.992735739481E-25,-1.794896786755E-09));
#1142 = DIRECTION('',(-1.794896786755E-09,1.794896675733E-09,-1.));
#1143 = ADVANCED_FACE('',(#1144),#1162,.F.);
#1144 = FACE_BOUND('',#1145,.F.);
#1145 = EDGE_LOOP('',(#1146,#1155,#1160,#1161));
#1146 = ORIENTED_EDGE('',*,*,#1147,.F.);
#1147 = EDGE_CURVE('',#1148,#1148,#1150,.T.);
#1148 = VERTEX_POINT('',#1149);
#1149 = CARTESIAN_POINT('',(-11.98499999326,54.155999993269,-9.381));
#1150 = CIRCLE('',#1151,3.75);
#1151 = AXIS2_PLACEMENT_3D('',#1152,#1153,#1154);
#1152 = CARTESIAN_POINT('',(-11.985,54.156,-13.131));
#1153 = DIRECTION('',(-1.,1.992735739482E-25,1.794896786755E-09));
#1154 = DIRECTION('',(1.794896786755E-09,-1.794896675733E-09,1.));
#1155 = ORIENTED_EDGE('',*,*,#1156,.F.);
#1156 = EDGE_CURVE('',#1124,#1148,#1157,.T.);
#1157 = B_SPLINE_CURVE_WITH_KNOTS('',1,(#1158,#1159),.UNSPECIFIED.,.F.,
  .F.,(2,2),(-47.24494030591,-38.612),.PIECEWISE_BEZIER_KNOTS.);
#1158 = CARTESIAN_POINT('',(-3.352059687359,54.155999993269,
    -9.381000015495));
#1159 = CARTESIAN_POINT('',(-11.98499999326,54.155999993269,-9.381));
#1160 = ORIENTED_EDGE('',*,*,#1123,.T.);
#1161 = ORIENTED_EDGE('',*,*,#1156,.T.);
#1162 = CYLINDRICAL_SURFACE('',#1163,3.75);
#1163 = AXIS2_PLACEMENT_3D('',#1164,#1165,#1166);
#1164 = CARTESIAN_POINT('',(-50.59699999999,54.156,-13.13099993069));
#1165 = DIRECTION('',(-1.,1.992735739481E-25,1.794896786755E-09));
#1166 = DIRECTION('',(1.794896786755E-09,-1.794896675733E-09,1.));
#1167 = ADVANCED_FACE('',(#1168),#1186,.T.);
#1168 = FACE_BOUND('',#1169,.T.);
#1169 = EDGE_LOOP('',(#1170,#1171,#1177,#1178,#1179,#1180));
#1170 = ORIENTED_EDGE('',*,*,#370,.T.);
#1171 = ORIENTED_EDGE('',*,*,#1172,.F.);
#1172 = EDGE_CURVE('',#436,#363,#1173,.T.);
#1173 = LINE('',#1174,#1175);
#1174 = CARTESIAN_POINT('',(5.373845739342,9.730029591748,
    -6.149602454861));
#1175 = VECTOR('',#1176,1.);
#1176 = DIRECTION('',(1.,-1.992735739481E-25,-1.794896786755E-09));
#1177 = ORIENTED_EDGE('',*,*,#435,.T.);
#1178 = ORIENTED_EDGE('',*,*,#179,.F.);
#1179 = ORIENTED_EDGE('',*,*,#795,.T.);
#1180 = ORIENTED_EDGE('',*,*,#1181,.T.);
#1181 = EDGE_CURVE('',#796,#371,#1182,.T.);
#1182 = LINE('',#1183,#1184);
#1183 = CARTESIAN_POINT('',(2.01883997652,4.00356942245,-5.139873027638)
  );
#1184 = VECTOR('',#1185,1.);
#1185 = DIRECTION('',(0.701673842938,0.701673843382,-0.123724030206));
#1186 = PLANE('',#1187);
#1187 = AXIS2_PLACEMENT_3D('',#1188,#1189,#1190);
#1188 = CARTESIAN_POINT('',(5.373845742184,0.749729459242,
    -4.566133263261));
#1189 = DIRECTION('',(1.767628272013E-09,0.173648175899,0.984807753324)
  );
#1190 = DIRECTION('',(-3.116805529476E-10,0.984807753324,-0.173648175899
    ));
#1191 = ADVANCED_FACE('',(#1192),#1198,.T.);
#1192 = FACE_BOUND('',#1193,.T.);
#1193 = EDGE_LOOP('',(#1194,#1195,#1196,#1197));
#1194 = ORIENTED_EDGE('',*,*,#362,.T.);
#1195 = ORIENTED_EDGE('',*,*,#780,.F.);
#1196 = ORIENTED_EDGE('',*,*,#443,.F.);
#1197 = ORIENTED_EDGE('',*,*,#1172,.T.);
#1198 = PLANE('',#1199);
#1199 = AXIS2_PLACEMENT_3D('',#1200,#1201,#1202);
#1200 = CARTESIAN_POINT('',(5.373845739342,9.730029591748,
    -6.149602454861));
#1201 = DIRECTION('',(3.116805529476E-10,-0.984807753324,0.173648175899)
  );
#1202 = DIRECTION('',(1.767628272013E-09,0.173648175899,0.984807753324)
  );
#1203 = ADVANCED_FACE('',(#1204),#1238,.F.);
#1204 = FACE_BOUND('',#1205,.T.);
#1205 = EDGE_LOOP('',(#1206,#1207,#1208,#1216,#1223,#1224,#1232));
#1206 = ORIENTED_EDGE('',*,*,#337,.F.);
#1207 = ORIENTED_EDGE('',*,*,#227,.T.);
#1208 = ORIENTED_EDGE('',*,*,#1209,.T.);
#1209 = EDGE_CURVE('',#220,#1210,#1212,.T.);
#1210 = VERTEX_POINT('',#1211);
#1211 = CARTESIAN_POINT('',(-3.634999973715,25.22972944833,
    1.513600374317));
#1212 = LINE('',#1213,#1214);
#1213 = CARTESIAN_POINT('',(-3.63499997874,8.498479159035,-1.28625073316
    ));
#1214 = VECTOR('',#1215,1.);
#1215 = DIRECTION('',(2.962431623445E-10,0.986285601241,0.165047607631)
  );
#1216 = ORIENTED_EDGE('',*,*,#1217,.T.);
#1217 = EDGE_CURVE('',#1210,#973,#1218,.T.);
#1218 = ELLIPSE('',#1219,1.287659475126,1.27);
#1219 = AXIS2_PLACEMENT_3D('',#1220,#1221,#1222);
#1220 = CARTESIAN_POINT('',(-4.904999973715,25.22972944833,
    1.513600376597));
#1221 = DIRECTION('',(1.770280856491E-09,-0.165047607631,0.986285601241)
  );
#1222 = DIRECTION('',(2.962434205985E-10,0.986285601241,0.165047607631)
  );
#1223 = ORIENTED_EDGE('',*,*,#972,.T.);
#1224 = ORIENTED_EDGE('',*,*,#1225,.T.);
#1225 = EDGE_CURVE('',#975,#1226,#1228,.T.);
#1226 = VERTEX_POINT('',#1227);
#1227 = CARTESIAN_POINT('',(-11.98499996649,49.257971958755,
    5.534549226976));
#1228 = LINE('',#1229,#1230);
#1229 = CARTESIAN_POINT('',(-11.98499996323,60.114890238889,
    7.35137427859));
#1230 = VECTOR('',#1231,1.);
#1231 = DIRECTION('',(2.962434205985E-10,0.986285601241,0.165047607631)
  );
#1232 = ORIENTED_EDGE('',*,*,#1233,.F.);
#1233 = EDGE_CURVE('',#338,#1226,#1234,.T.);
#1234 = LINE('',#1235,#1236);
#1235 = CARTESIAN_POINT('',(12.732691487125,49.257971958755,
    5.53454918261));
#1236 = VECTOR('',#1237,1.);
#1237 = DIRECTION('',(-1.,1.992735739481E-25,1.794896786755E-09));
#1238 = PLANE('',#1239);
#1239 = AXIS2_PLACEMENT_3D('',#1240,#1241,#1242);
#1240 = CARTESIAN_POINT('',(12.73269147013,-7.326331771132,
    -3.934415941011));
#1241 = DIRECTION('',(1.770280856491E-09,-0.165047607631,0.986285601241)
  );
#1242 = DIRECTION('',(2.962434205985E-10,0.986285601241,0.165047607631)
  );
#1243 = ADVANCED_FACE('',(#1244),#1256,.F.);
#1244 = FACE_BOUND('',#1245,.F.);
#1245 = EDGE_LOOP('',(#1246,#1253,#1254,#1255));
#1246 = ORIENTED_EDGE('',*,*,#1247,.F.);
#1247 = EDGE_CURVE('',#1226,#749,#1248,.T.);
#1248 = CIRCLE('',#1249,1.397);
#1249 = AXIS2_PLACEMENT_3D('',#1250,#1251,#1252);
#1250 = CARTESIAN_POINT('',(-11.98499996755,50.526008032506,
    4.948295428979));
#1251 = DIRECTION('',(-1.,1.992735739482E-25,1.794896786755E-09));
#1252 = DIRECTION('',(1.794896786755E-09,-1.794896675733E-09,1.));
#1253 = ORIENTED_EDGE('',*,*,#1233,.F.);
#1254 = ORIENTED_EDGE('',*,*,#345,.T.);
#1255 = ORIENTED_EDGE('',*,*,#748,.T.);
#1256 = CYLINDRICAL_SURFACE('',#1257,1.397);
#1257 = AXIS2_PLACEMENT_3D('',#1258,#1259,#1260);
#1258 = CARTESIAN_POINT('',(12.732691486073,50.526008032506,
    4.948295384613));
#1259 = DIRECTION('',(-1.,1.992735739481E-25,1.794896786755E-09));
#1260 = DIRECTION('',(1.794896786755E-09,-1.794896675733E-09,1.));
#1261 = ADVANCED_FACE('',(#1262),#1268,.T.);
#1262 = FACE_BOUND('',#1263,.T.);
#1263 = EDGE_LOOP('',(#1264,#1265,#1266,#1267));
#1264 = ORIENTED_EDGE('',*,*,#378,.F.);
#1265 = ORIENTED_EDGE('',*,*,#1181,.F.);
#1266 = ORIENTED_EDGE('',*,*,#805,.F.);
#1267 = ORIENTED_EDGE('',*,*,#523,.F.);
#1268 = PLANE('',#1269);
#1269 = AXIS2_PLACEMENT_3D('',#1270,#1271,#1272);
#1270 = CARTESIAN_POINT('',(-1.235000030278,0.749729504893,
    -29.99972511793));
#1271 = DIRECTION('',(0.707106781187,-0.707106781187,-2.538367686213E-09
    ));
#1272 = DIRECTION('',(0.707106781187,0.707106781187,-7.850461755751E-17)
  );
#1273 = ADVANCED_FACE('',(#1274),#1286,.F.);
#1274 = FACE_BOUND('',#1275,.T.);
#1275 = EDGE_LOOP('',(#1276,#1282,#1283,#1284,#1285));
#1276 = ORIENTED_EDGE('',*,*,#1277,.T.);
#1277 = EDGE_CURVE('',#949,#1004,#1278,.T.);
#1278 = LINE('',#1279,#1280);
#1279 = CARTESIAN_POINT('',(-11.98499996374,61.619326499267,
    7.068671161823));
#1280 = VECTOR('',#1281,1.);
#1281 = DIRECTION('',(6.138908532333E-10,-0.9396926214,0.342020141639));
#1282 = ORIENTED_EDGE('',*,*,#1003,.T.);
#1283 = ORIENTED_EDGE('',*,*,#282,.F.);
#1284 = ORIENTED_EDGE('',*,*,#635,.T.);
#1285 = ORIENTED_EDGE('',*,*,#948,.F.);
#1286 = PLANE('',#1287);
#1287 = AXIS2_PLACEMENT_3D('',#1288,#1289,#1290);
#1288 = CARTESIAN_POINT('',(-13.23249995925,54.749729433871,
    9.569000003305));
#1289 = DIRECTION('',(-1.686651247884E-09,-0.342020141639,-0.9396926214)
  );
#1290 = DIRECTION('',(6.138908532333E-10,-0.9396926214,0.342020141639));
#1291 = ADVANCED_FACE('',(#1292),#1304,.T.);
#1292 = FACE_BOUND('',#1293,.T.);
#1293 = EDGE_LOOP('',(#1294,#1301,#1302,#1303));
#1294 = ORIENTED_EDGE('',*,*,#1295,.F.);
#1295 = EDGE_CURVE('',#726,#660,#1296,.T.);
#1296 = CIRCLE('',#1297,25.675528145);
#1297 = AXIS2_PLACEMENT_3D('',#1298,#1299,#1300);
#1298 = CARTESIAN_POINT('',(-3.635000006642,24.770048600942,
    -16.83100006773));
#1299 = DIRECTION('',(-1.,-2.618450527783E-16,1.794896786755E-09));
#1300 = DIRECTION('',(2.586233985025E-16,-1.,-1.794896675733E-09));
#1301 = ORIENTED_EDGE('',*,*,#725,.F.);
#1302 = ORIENTED_EDGE('',*,*,#313,.T.);
#1303 = ORIENTED_EDGE('',*,*,#667,.T.);
#1304 = CYLINDRICAL_SURFACE('',#1305,25.675528145);
#1305 = AXIS2_PLACEMENT_3D('',#1306,#1307,#1308);
#1306 = CARTESIAN_POINT('',(-0.335000006642,24.770048600942,
    -16.83100007365));
#1307 = DIRECTION('',(1.,-1.992735739481E-25,-1.794896786755E-09));
#1308 = DIRECTION('',(-1.794896786755E-09,1.794896675733E-09,-1.));
#1309 = ADVANCED_FACE('',(#1310),#1327,.T.);
#1310 = FACE_BOUND('',#1311,.T.);
#1311 = EDGE_LOOP('',(#1312,#1313,#1319,#1320,#1321));
#1312 = ORIENTED_EDGE('',*,*,#764,.F.);
#1313 = ORIENTED_EDGE('',*,*,#1314,.T.);
#1314 = EDGE_CURVE('',#757,#927,#1315,.T.);
#1315 = LINE('',#1316,#1317);
#1316 = CARTESIAN_POINT('',(-11.98499988758,26.499729362199,
    49.500274947576));
#1317 = VECTOR('',#1318,1.);
#1318 = DIRECTION('',(-1.794896786755E-09,1.794896675733E-09,-1.));
#1319 = ORIENTED_EDGE('',*,*,#926,.T.);
#1320 = ORIENTED_EDGE('',*,*,#500,.F.);
#1321 = ORIENTED_EDGE('',*,*,#1322,.F.);
#1322 = EDGE_CURVE('',#765,#492,#1323,.T.);
#1323 = LINE('',#1324,#1325);
#1324 = CARTESIAN_POINT('',(-4.904999887584,26.499729362199,
    49.500274934868));
#1325 = VECTOR('',#1326,1.);
#1326 = DIRECTION('',(-1.794896786755E-09,1.794896675733E-09,-1.));
#1327 = PLANE('',#1328);
#1328 = AXIS2_PLACEMENT_3D('',#1329,#1330,#1331);
#1329 = CARTESIAN_POINT('',(-3.634999887584,26.499729362199,
    49.500274932589));
#1330 = DIRECTION('',(1.658788861431E-15,-1.,-1.794896675733E-09));
#1331 = DIRECTION('',(1.,1.662010515707E-15,-1.794896786755E-09));
#1332 = ADVANCED_FACE('',(#1333),#1339,.F.);
#1333 = FACE_BOUND('',#1334,.F.);
#1334 = EDGE_LOOP('',(#1335,#1336,#1337,#1338));
#1335 = ORIENTED_EDGE('',*,*,#491,.F.);
#1336 = ORIENTED_EDGE('',*,*,#1322,.F.);
#1337 = ORIENTED_EDGE('',*,*,#772,.T.);
#1338 = ORIENTED_EDGE('',*,*,#459,.T.);
#1339 = CYLINDRICAL_SURFACE('',#1340,1.27);
#1340 = AXIS2_PLACEMENT_3D('',#1341,#1342,#1343);
#1341 = CARTESIAN_POINT('',(-4.904999887584,25.229729362199,
    49.500274932589));
#1342 = DIRECTION('',(1.794896786755E-09,-1.794896675733E-09,1.));
#1343 = DIRECTION('',(3.221654475105E-18,1.,1.794896675733E-09));
#1344 = ADVANCED_FACE('',(#1345),#1362,.T.);
#1345 = FACE_BOUND('',#1346,.T.);
#1346 = EDGE_LOOP('',(#1347,#1348,#1349,#1350,#1351,#1357,#1358,#1359,
    #1360,#1361));
#1347 = ORIENTED_EDGE('',*,*,#733,.T.);
#1348 = ORIENTED_EDGE('',*,*,#1295,.T.);
#1349 = ORIENTED_EDGE('',*,*,#659,.T.);
#1350 = ORIENTED_EDGE('',*,*,#31,.F.);
#1351 = ORIENTED_EDGE('',*,*,#1352,.T.);
#1352 = EDGE_CURVE('',#32,#1210,#1353,.T.);
#1353 = LINE('',#1354,#1355);
#1354 = CARTESIAN_POINT('',(-3.634999887584,25.229729362199,
    49.500274930309));
#1355 = VECTOR('',#1356,1.);
#1356 = DIRECTION('',(-1.794896786755E-09,1.794896675733E-09,-1.));
#1357 = ORIENTED_EDGE('',*,*,#1209,.F.);
#1358 = ORIENTED_EDGE('',*,*,#219,.T.);
#1359 = ORIENTED_EDGE('',*,*,#137,.T.);
#1360 = ORIENTED_EDGE('',*,*,#709,.T.);
#1361 = ORIENTED_EDGE('',*,*,#122,.T.);
#1362 = PLANE('',#1363);
#1363 = AXIS2_PLACEMENT_3D('',#1364,#1365,#1366);
#1364 = CARTESIAN_POINT('',(-3.634999887584,-2.706378010089E-04,
    49.500274885024));
#1365 = DIRECTION('',(-1.,-2.618450527783E-16,1.794896786755E-09));
#1366 = DIRECTION('',(2.586233985025E-16,-1.,-1.794896675733E-09));
#1367 = ADVANCED_FACE('',(#1368),#1374,.F.);
#1368 = FACE_BOUND('',#1369,.F.);
#1369 = EDGE_LOOP('',(#1370,#1371,#1372,#1373));
#1370 = ORIENTED_EDGE('',*,*,#40,.F.);
#1371 = ORIENTED_EDGE('',*,*,#1352,.T.);
#1372 = ORIENTED_EDGE('',*,*,#1217,.T.);
#1373 = ORIENTED_EDGE('',*,*,#982,.F.);
#1374 = CYLINDRICAL_SURFACE('',#1375,1.27);
#1375 = AXIS2_PLACEMENT_3D('',#1376,#1377,#1378);
#1376 = CARTESIAN_POINT('',(-4.904999887584,25.229729362199,
    49.500274932589));
#1377 = DIRECTION('',(1.794896786755E-09,-1.794896675733E-09,1.));
#1378 = DIRECTION('',(3.221654475105E-18,1.,1.794896675733E-09));
#1379 = ADVANCED_FACE('',(#1380,#1397,#1400),#1403,.T.);
#1380 = FACE_BOUND('',#1381,.T.);
#1381 = EDGE_LOOP('',(#1382,#1383,#1384,#1385,#1386,#1387,#1388,#1389,
    #1390,#1391,#1392,#1393,#1394,#1395,#1396));
#1382 = ORIENTED_EDGE('',*,*,#1277,.F.);
#1383 = ORIENTED_EDGE('',*,*,#958,.T.);
#1384 = ORIENTED_EDGE('',*,*,#859,.F.);
#1385 = ORIENTED_EDGE('',*,*,#827,.T.);
#1386 = ORIENTED_EDGE('',*,*,#883,.T.);
#1387 = ORIENTED_EDGE('',*,*,#907,.T.);
#1388 = ORIENTED_EDGE('',*,*,#934,.T.);
#1389 = ORIENTED_EDGE('',*,*,#1314,.F.);
#1390 = ORIENTED_EDGE('',*,*,#756,.F.);
#1391 = ORIENTED_EDGE('',*,*,#1247,.F.);
#1392 = ORIENTED_EDGE('',*,*,#1225,.F.);
#1393 = ORIENTED_EDGE('',*,*,#989,.F.);
#1394 = ORIENTED_EDGE('',*,*,#63,.F.);
#1395 = ORIENTED_EDGE('',*,*,#683,.T.);
#1396 = ORIENTED_EDGE('',*,*,#1011,.T.);
#1397 = FACE_BOUND('',#1398,.T.);
#1398 = EDGE_LOOP('',(#1399));
#1399 = ORIENTED_EDGE('',*,*,#1099,.F.);
#1400 = FACE_BOUND('',#1401,.T.);
#1401 = EDGE_LOOP('',(#1402));
#1402 = ORIENTED_EDGE('',*,*,#1147,.F.);
#1403 = PLANE('',#1404);
#1404 = AXIS2_PLACEMENT_3D('',#1405,#1406,#1407);
#1405 = CARTESIAN_POINT('',(-11.98499996866,60.621136417689,
    4.326166437048));
#1406 = DIRECTION('',(-1.,1.992735739481E-25,1.794896786755E-09));
#1407 = DIRECTION('',(1.794896786755E-09,-1.794896675733E-09,1.));
#1408 = ( GEOMETRIC_REPRESENTATION_CONTEXT(3) 
GLOBAL_UNCERTAINTY_ASSIGNED_CONTEXT((#1412)) 
GLOBAL_UNIT_ASSIGNED_CONTEXT((#1409,#1410,#1411)) REPRESENTATION_CONTEXT
('Context #1','3D Context with UNIT and UNCERTAINTY') );
#1409 = ( LENGTH_UNIT() NAMED_UNIT(*) SI_UNIT(.MILLI.,.METRE.) );
#1410 = ( NAMED_UNIT(*) PLANE_ANGLE_UNIT() SI_UNIT($,.RADIAN.) );
#1411 = ( NAMED_UNIT(*) SI_UNIT($,.STERADIAN.) SOLID_ANGLE_UNIT() );
#1412 = UNCERTAINTY_MEASURE_WITH_UNIT(LENGTH_MEASURE(2.E-06),#1409,
  'distance_accuracy_value','confusion accuracy');
#1413 = PRODUCT_RELATED_PRODUCT_CATEGORY('part',$,(#7));
#1414 = MECHANICAL_DESIGN_GEOMETRIC_PRESENTATION_REPRESENTATION('',(
    #1415),#1408);
#1415 = STYLED_ITEM('color',(#1416),#15);
#1416 = PRESENTATION_STYLE_ASSIGNMENT((#1417));
#1417 = SURFACE_STYLE_USAGE(.BOTH.,#1418);
#1418 = SURFACE_SIDE_STYLE('',(#1419));
#1419 = SURFACE_STYLE_FILL_AREA(#1420);
#1420 = FILL_AREA_STYLE('',(#1421));
#1421 = FILL_AREA_STYLE_COLOUR('',#1422);
#1422 = COLOUR_RGB('',0.588235318661,0.588235318661,0.588235318661);
ENDSEC;
END-ISO-10303-21;
