ISO-10303-21;
HEADER;
FILE_DESCRIPTION(('Open CASCADE Model'),'2;1');
FILE_NAME('Open CASCADE Shape Model','2026-09-18T15:45:34',('Author'),(
    'Open CASCADE'),'Open CASCADE STEP processor 7.3','Open CASCADE 7.3'
  ,'Unknown');
FILE_SCHEMA(('AUTOMOTIVE_DESIGN { 1 0 10303 214 1 1 1 1 }'));
ENDSEC;
DATA;
#1 = APPLICATION_PROTOCOL_DEFINITION('international standard',
  'automotive_design',2000,#2);
#2 = APPLICATION_CONTEXT(
  'core data for automotive mechanical design processes');
#3 = SHAPE_DEFINITION_REPRESENTATION(#4,#10);
#4 = PRODUCT_DEFINITION_SHAPE('','',#5);
#5 = PRODUCT_DEFINITION('design','',#6,#9);
#6 = PRODUCT_DEFINITION_FORMATION('','',#7);
#7 = PRODUCT('Pottmanager 27','Pottmanager 27','',(#8));
#8 = PRODUCT_CONTEXT('',#2,'mechanical');
#9 = PRODUCT_DEFINITION_CONTEXT('part definition',#2,'design');
#10 = ADVANCED_BREP_SHAPE_REPRESENTATION('',(#11,#15),#1009);
#11 = AXIS2_PLACEMENT_3D('',#12,#13,#14);
#12 = CARTESIAN_POINT('',(0.,0.,0.));
#13 = DIRECTION('',(0.,0.,1.));
#14 = DIRECTION('',(1.,0.,-0.));
#15 = MANIFOLD_SOLID_BREP('',#16);
#16 = CLOSED_SHELL('',(#17,#88,#164,#195,#257,#298,#349,#371,#413,#455,
    #479,#520,#545,#577,#595,#620,#660,#679,#726,#755,#788,#812,#846,
    #880,#896,#916,#933,#957,#971,#983,#995));
#17 = ADVANCED_FACE('',(#18),#83,.F.);
#18 = FACE_BOUND('',#19,.T.);
#19 = EDGE_LOOP('',(#20,#30,#38,#46,#54,#61,#69,#77));
#20 = ORIENTED_EDGE('',*,*,#21,.T.);
#21 = EDGE_CURVE('',#22,#24,#26,.T.);
#22 = VERTEX_POINT('',#23);
#23 = CARTESIAN_POINT('',(-0.747500000549,4.602478841097,-0.235553054586
    ));
#24 = VERTEX_POINT('',#25);
#25 = CARTESIAN_POINT('',(-3.222500000549,4.602478841029,-0.235553050145
    ));
#26 = LINE('',#27,#28);
#27 = CARTESIAN_POINT('',(-0.832164326445,4.602478841096,-0.235553054434
    ));
#28 = VECTOR('',#29,1.);
#29 = DIRECTION('',(-1.,-2.744125867622E-11,1.794687006813E-09));
#30 = ORIENTED_EDGE('',*,*,#31,.F.);
#31 = EDGE_CURVE('',#32,#24,#34,.T.);
#32 = VERTEX_POINT('',#33);
#33 = CARTESIAN_POINT('',(-3.222499999974,4.481025530458,
    8.290192800294E-02));
#34 = LINE('',#35,#36);
#35 = CARTESIAN_POINT('',(-3.222499998555,4.181128818213,0.869241966778)
  );
#36 = VECTOR('',#37,1.);
#37 = DIRECTION('',(-1.686651264484E-09,0.356346650854,-0.93435382186));
#38 = ORIENTED_EDGE('',*,*,#39,.T.);
#39 = EDGE_CURVE('',#32,#40,#42,.T.);
#40 = VERTEX_POINT('',#41);
#41 = CARTESIAN_POINT('',(-3.510339708173,4.181128818204,0.869241967295)
  );
#42 = LINE('',#43,#44);
#43 = CARTESIAN_POINT('',(-4.076096505033,3.591673651038,2.414814760768)
  );
#44 = VECTOR('',#45,1.);
#45 = DIRECTION('',(-0.323615575522,-0.337171155921,0.884074980358));
#46 = ORIENTED_EDGE('',*,*,#47,.F.);
#47 = EDGE_CURVE('',#48,#40,#50,.T.);
#48 = VERTEX_POINT('',#49);
#49 = CARTESIAN_POINT('',(-3.222499998555,4.181128818213,0.869241966778)
  );
#50 = LINE('',#51,#52);
#51 = CARTESIAN_POINT('',(-1.984999998555,4.181128818247,0.869241964558)
  );
#52 = VECTOR('',#53,1.);
#53 = DIRECTION('',(-1.,-2.744125867622E-11,1.794687006813E-09));
#54 = ORIENTED_EDGE('',*,*,#55,.F.);
#55 = EDGE_CURVE('',#56,#48,#58,.T.);
#56 = VERTEX_POINT('',#57);
#57 = CARTESIAN_POINT('',(-1.984999998555,4.181128818247,0.869241964558)
  );
#58 = B_SPLINE_CURVE_WITH_KNOTS('',1,(#59,#60),.UNSPECIFIED.,.F.,.F.,(2,
    2),(0.,1.),.PIECEWISE_BEZIER_KNOTS.);
#59 = CARTESIAN_POINT('',(-1.984999998555,4.181128818247,0.869241964558)
  );
#60 = CARTESIAN_POINT('',(-3.222499998555,4.181128818213,0.869241966778)
  );
#61 = ORIENTED_EDGE('',*,*,#62,.F.);
#62 = EDGE_CURVE('',#63,#56,#65,.T.);
#63 = VERTEX_POINT('',#64);
#64 = CARTESIAN_POINT('',(-0.459660288937,4.181128818288,0.86924196182)
  );
#65 = LINE('',#66,#67);
#66 = CARTESIAN_POINT('',(-1.984999998555,4.181128818247,0.869241964558)
  );
#67 = VECTOR('',#68,1.);
#68 = DIRECTION('',(-1.,-2.744125867622E-11,1.794687006813E-09));
#69 = ORIENTED_EDGE('',*,*,#70,.F.);
#70 = EDGE_CURVE('',#71,#63,#73,.T.);
#71 = VERTEX_POINT('',#72);
#72 = CARTESIAN_POINT('',(-0.747499999974,4.481025530526,
    8.29019235617E-02));
#73 = LINE('',#74,#75);
#74 = CARTESIAN_POINT('',(0.106096513504,3.591673651152,2.414814753263)
  );
#75 = VECTOR('',#76,1.);
#76 = DIRECTION('',(0.323615578714,-0.337171155902,0.884074979196));
#77 = ORIENTED_EDGE('',*,*,#78,.T.);
#78 = EDGE_CURVE('',#71,#22,#79,.T.);
#79 = LINE('',#80,#81);
#80 = CARTESIAN_POINT('',(-0.747499998555,4.181128818281,0.869241962337)
  );
#81 = VECTOR('',#82,1.);
#82 = DIRECTION('',(-1.686651264484E-09,0.356346650854,-0.93435382186));
#83 = PLANE('',#84);
#84 = AXIS2_PLACEMENT_3D('',#85,#86,#87);
#85 = CARTESIAN_POINT('',(-1.984999998555,4.181128818247,0.869241964558)
  );
#86 = DIRECTION('',(-6.138908592887E-10,-0.93435382186,-0.356346650854)
  );
#87 = DIRECTION('',(1.686651264484E-09,-0.356346650854,0.93435382186));
#88 = ADVANCED_FACE('',(#89),#159,.F.);
#89 = FACE_BOUND('',#90,.T.);
#90 = EDGE_LOOP('',(#91,#101,#110,#118,#127,#135,#144,#152));
#91 = ORIENTED_EDGE('',*,*,#92,.F.);
#92 = EDGE_CURVE('',#93,#95,#97,.T.);
#93 = VERTEX_POINT('',#94);
#94 = CARTESIAN_POINT('',(-0.747500008008,1.018924889019,-4.446580714416
    ));
#95 = VERTEX_POINT('',#96);
#96 = CARTESIAN_POINT('',(-0.747500010732,9.647606445013,-5.832378912972
    ));
#97 = LINE('',#98,#99);
#98 = CARTESIAN_POINT('',(-0.747500009423,5.500747065636,-5.166377946277
    ));
#99 = VECTOR('',#100,1.);
#100 = DIRECTION('',(-3.116805529476E-10,0.987347471281,-0.158571658737)
  );
#101 = ORIENTED_EDGE('',*,*,#102,.F.);
#102 = EDGE_CURVE('',#103,#93,#105,.T.);
#103 = VERTEX_POINT('',#104);
#104 = CARTESIAN_POINT('',(-1.147500007878,0.605940444406,
    -4.380253883157));
#105 = ELLIPSE('',#106,0.418276702595,0.4);
#106 = AXIS2_PLACEMENT_3D('',#107,#108,#109);
#107 = CARTESIAN_POINT('',(-1.147500008008,1.018924889008,
    -4.446580713698));
#108 = DIRECTION('',(1.767628272013E-09,0.158571658737,0.987347471281));
#109 = DIRECTION('',(-3.116805529476E-10,0.987347471281,-0.158571658737)
  );
#110 = ORIENTED_EDGE('',*,*,#111,.T.);
#111 = EDGE_CURVE('',#103,#112,#114,.T.);
#112 = VERTEX_POINT('',#113);
#113 = CARTESIAN_POINT('',(-2.822500007878,0.605940444359,
    -4.380253880151));
#114 = LINE('',#115,#116);
#115 = CARTESIAN_POINT('',(-0.747500007878,0.605940444416,
    -4.380253883875));
#116 = VECTOR('',#117,1.);
#117 = DIRECTION('',(-1.,-2.744125867622E-11,1.794687006813E-09));
#118 = ORIENTED_EDGE('',*,*,#119,.F.);
#119 = EDGE_CURVE('',#120,#112,#122,.T.);
#120 = VERTEX_POINT('',#121);
#121 = CARTESIAN_POINT('',(-3.222500008008,1.018924888951,
    -4.446580709975));
#122 = ELLIPSE('',#123,0.418276702595,0.4);
#123 = AXIS2_PLACEMENT_3D('',#124,#125,#126);
#124 = CARTESIAN_POINT('',(-2.822500008008,1.018924888962,
    -4.446580710693));
#125 = DIRECTION('',(1.767628272013E-09,0.158571658737,0.987347471281));
#126 = DIRECTION('',(-3.116805529476E-10,0.987347471281,-0.158571658737)
  );
#127 = ORIENTED_EDGE('',*,*,#128,.F.);
#128 = EDGE_CURVE('',#129,#120,#131,.T.);
#129 = VERTEX_POINT('',#130);
#130 = CARTESIAN_POINT('',(-3.222500010732,9.647606444943,
    -5.832378908531));
#131 = LINE('',#132,#133);
#132 = CARTESIAN_POINT('',(-3.222500009423,5.500747065568,
    -5.166377941835));
#133 = VECTOR('',#134,1.);
#134 = DIRECTION('',(3.116805529476E-10,-0.987347471281,0.158571658737)
  );
#135 = ORIENTED_EDGE('',*,*,#136,.T.);
#136 = EDGE_CURVE('',#129,#137,#139,.T.);
#137 = VERTEX_POINT('',#138);
#138 = CARTESIAN_POINT('',(-3.022500010794,9.845075939206,
    -5.864093240637));
#139 = CIRCLE('',#140,0.2);
#140 = AXIS2_PLACEMENT_3D('',#141,#142,#143);
#141 = CARTESIAN_POINT('',(-3.022500010732,9.647606444951,-5.83237890889
    ));
#142 = DIRECTION('',(-1.767628272013E-09,-0.158571658737,-0.987347471281
    ));
#143 = DIRECTION('',(3.116805529476E-10,-0.987347471281,0.158571658737)
  );
#144 = ORIENTED_EDGE('',*,*,#145,.F.);
#145 = EDGE_CURVE('',#146,#137,#148,.T.);
#146 = VERTEX_POINT('',#147);
#147 = CARTESIAN_POINT('',(-0.947500010794,9.845075939261,
    -5.864093244361));
#148 = LINE('',#149,#150);
#149 = CARTESIAN_POINT('',(-0.747500010794,9.845075939268,-5.86409324472
    ));
#150 = VECTOR('',#151,1.);
#151 = DIRECTION('',(-1.,-2.744125867622E-11,1.794687006813E-09));
#152 = ORIENTED_EDGE('',*,*,#153,.T.);
#153 = EDGE_CURVE('',#146,#95,#154,.T.);
#154 = CIRCLE('',#155,0.2);
#155 = AXIS2_PLACEMENT_3D('',#156,#157,#158);
#156 = CARTESIAN_POINT('',(-0.947500010732,9.647606445005,
    -5.832378912613));
#157 = DIRECTION('',(-1.767628272013E-09,-0.158571658737,-0.987347471281
    ));
#158 = DIRECTION('',(3.116805529476E-10,-0.987347471281,0.158571658737)
  );
#159 = PLANE('',#160);
#160 = AXIS2_PLACEMENT_3D('',#161,#162,#163);
#161 = CARTESIAN_POINT('',(-0.747500009423,5.500747065636,
    -5.166377946277));
#162 = DIRECTION('',(1.767628272013E-09,0.158571658737,0.987347471281));
#163 = DIRECTION('',(-3.116805529476E-10,0.987347471281,-0.158571658737)
  );
#164 = ADVANCED_FACE('',(#165),#190,.T.);
#165 = FACE_BOUND('',#166,.T.);
#166 = EDGE_LOOP('',(#167,#168,#176,#184));
#167 = ORIENTED_EDGE('',*,*,#145,.T.);
#168 = ORIENTED_EDGE('',*,*,#169,.F.);
#169 = EDGE_CURVE('',#170,#137,#172,.T.);
#170 = VERTEX_POINT('',#171);
#171 = CARTESIAN_POINT('',(-3.022500004384,10.420130568922,
    -2.283511823869));
#172 = LINE('',#173,#174);
#173 = CARTESIAN_POINT('',(-3.022500004384,10.420130568922,
    -2.283511823869));
#174 = VECTOR('',#175,1.);
#175 = DIRECTION('',(-1.767628272013E-09,-0.158571658737,-0.987347471281
    ));
#176 = ORIENTED_EDGE('',*,*,#177,.T.);
#177 = EDGE_CURVE('',#170,#178,#180,.T.);
#178 = VERTEX_POINT('',#179);
#179 = CARTESIAN_POINT('',(-0.947500004384,10.420130568977,
    -2.283511827593));
#180 = LINE('',#181,#182);
#181 = CARTESIAN_POINT('',(-0.747500004384,10.420130568984,
    -2.283511827951));
#182 = VECTOR('',#183,1.);
#183 = DIRECTION('',(1.,2.744125867622E-11,-1.794687006813E-09));
#184 = ORIENTED_EDGE('',*,*,#185,.T.);
#185 = EDGE_CURVE('',#178,#146,#186,.T.);
#186 = LINE('',#187,#188);
#187 = CARTESIAN_POINT('',(-0.947500010794,9.845075939261,
    -5.864093244361));
#188 = VECTOR('',#189,1.);
#189 = DIRECTION('',(-1.767628272013E-09,-0.158571658737,-0.987347471281
    ));
#190 = PLANE('',#191);
#191 = AXIS2_PLACEMENT_3D('',#192,#193,#194);
#192 = CARTESIAN_POINT('',(-0.74750000004,10.809856523106,0.143119376883
    ));
#193 = DIRECTION('',(-3.116805529476E-10,0.987347471281,-0.158571658737)
  );
#194 = DIRECTION('',(-1.767628272013E-09,-0.158571658737,-0.987347471281
    ));
#195 = ADVANCED_FACE('',(#196),#252,.F.);
#196 = FACE_BOUND('',#197,.T.);
#197 = EDGE_LOOP('',(#198,#199,#207,#215,#223,#229,#230,#238,#246));
#198 = ORIENTED_EDGE('',*,*,#92,.T.);
#199 = ORIENTED_EDGE('',*,*,#200,.F.);
#200 = EDGE_CURVE('',#201,#95,#203,.T.);
#201 = VERTEX_POINT('',#202);
#202 = CARTESIAN_POINT('',(-0.747500004353,10.219886430225,
    -2.269073838342));
#203 = LINE('',#204,#205);
#204 = CARTESIAN_POINT('',(-0.747500004322,10.222661074729,
    -2.251797496203));
#205 = VECTOR('',#206,1.);
#206 = DIRECTION('',(-1.767628272013E-09,-0.158571658737,-0.987347471281
    ));
#207 = ORIENTED_EDGE('',*,*,#208,.F.);
#208 = EDGE_CURVE('',#209,#201,#211,.T.);
#209 = VERTEX_POINT('',#210);
#210 = CARTESIAN_POINT('',(-0.747500003135,10.209511959044,
    -1.590572656643));
#211 = LINE('',#212,#213);
#212 = CARTESIAN_POINT('',(-0.747500003251,10.210505465366,
    -1.655549000841));
#213 = VECTOR('',#214,1.);
#214 = DIRECTION('',(-1.794896786755E-09,1.528849017997E-02,
    -0.999883124204));
#215 = ORIENTED_EDGE('',*,*,#216,.F.);
#216 = EDGE_CURVE('',#217,#209,#219,.T.);
#217 = VERTEX_POINT('',#218);
#218 = CARTESIAN_POINT('',(-0.747500001493,7.38153572128,-0.719276713262
    ));
#219 = LINE('',#220,#221);
#220 = CARTESIAN_POINT('',(-0.74750000114,6.772849915191,-0.531741377373
    ));
#221 = VECTOR('',#222,1.);
#222 = DIRECTION('',(-5.546536071925E-10,0.955669764092,-0.294440659558)
  );
#223 = ORIENTED_EDGE('',*,*,#224,.T.);
#224 = EDGE_CURVE('',#217,#22,#225,.T.);
#225 = LINE('',#226,#227);
#226 = CARTESIAN_POINT('',(-0.747500001124,6.293557181299,
    -0.529902770012));
#227 = VECTOR('',#228,1.);
#228 = DIRECTION('',(3.347913897199E-10,-0.985187243946,0.171482052606)
  );
#229 = ORIENTED_EDGE('',*,*,#78,.F.);
#230 = ORIENTED_EDGE('',*,*,#231,.T.);
#231 = EDGE_CURVE('',#71,#232,#234,.T.);
#232 = VERTEX_POINT('',#233);
#233 = CARTESIAN_POINT('',(-0.747500005706,4.529846394828,
    -3.110033268402));
#234 = LINE('',#235,#236);
#235 = CARTESIAN_POINT('',(-0.74750000004,4.481584292049,
    4.635834000213E-02));
#236 = VECTOR('',#237,1.);
#237 = DIRECTION('',(-1.794896786755E-09,1.528849017997E-02,
    -0.999883124204));
#238 = ORIENTED_EDGE('',*,*,#239,.T.);
#239 = EDGE_CURVE('',#232,#240,#242,.T.);
#240 = VERTEX_POINT('',#241);
#241 = CARTESIAN_POINT('',(-0.747500006372,0.893071416387,-3.53680456871
    ));
#242 = LINE('',#243,#244);
#243 = CARTESIAN_POINT('',(-0.747500004502,11.101118848946,
    -2.338902113312));
#244 = VECTOR('',#245,1.);
#245 = DIRECTION('',(-1.819148980604E-10,-0.993184931895,-0.116549092904
    ));
#246 = ORIENTED_EDGE('',*,*,#247,.T.);
#247 = EDGE_CURVE('',#240,#93,#248,.T.);
#248 = LINE('',#249,#250);
#249 = CARTESIAN_POINT('',(-0.747500002299,0.579778154267,
    -1.272053898541));
#250 = VECTOR('',#251,1.);
#251 = DIRECTION('',(-1.781517897894E-09,0.137029631921,-0.99056694876)
  );
#252 = PLANE('',#253);
#253 = AXIS2_PLACEMENT_3D('',#254,#255,#256);
#254 = CARTESIAN_POINT('',(-0.74750000004,10.809856523106,0.143119376883
    ));
#255 = DIRECTION('',(-1.,-2.744125867622E-11,1.794687006813E-09));
#256 = DIRECTION('',(1.767628272012E-09,0.158571658737,0.987347471281));
#257 = ADVANCED_FACE('',(#258),#293,.T.);
#258 = FACE_BOUND('',#259,.T.);
#259 = EDGE_LOOP('',(#260,#271,#277,#278,#286));
#260 = ORIENTED_EDGE('',*,*,#261,.T.);
#261 = EDGE_CURVE('',#262,#264,#266,.T.);
#262 = VERTEX_POINT('',#263);
#263 = CARTESIAN_POINT('',(-3.222489930133,0.890254765849,
    -3.537162806519));
#264 = VERTEX_POINT('',#265);
#265 = CARTESIAN_POINT('',(-3.222500006372,0.893071416319,
    -3.536804564269));
#266 = ELLIPSE('',#267,1.163747612503,0.4);
#267 = AXIS2_PLACEMENT_3D('',#268,#269,#270);
#268 = CARTESIAN_POINT('',(-2.822500008319,1.042819180846,
    -4.619309013848));
#269 = DIRECTION('',(-0.939046404008,4.006846147047E-02,-0.341447462305)
  );
#270 = DIRECTION('',(0.343707319007,0.131254316755,-0.929858904993));
#271 = ORIENTED_EDGE('',*,*,#272,.T.);
#272 = EDGE_CURVE('',#264,#120,#273,.T.);
#273 = LINE('',#274,#275);
#274 = CARTESIAN_POINT('',(-3.222500002299,0.579778154199,-1.2720538941)
  );
#275 = VECTOR('',#276,1.);
#276 = DIRECTION('',(-1.781517897894E-09,0.137029631921,-0.99056694876)
  );
#277 = ORIENTED_EDGE('',*,*,#119,.T.);
#278 = ORIENTED_EDGE('',*,*,#279,.F.);
#279 = EDGE_CURVE('',#280,#112,#282,.T.);
#280 = VERTEX_POINT('',#281);
#281 = CARTESIAN_POINT('',(-2.822500006333,0.487124494352,
    -3.521350944973));
#282 = LINE('',#283,#284);
#283 = CARTESIAN_POINT('',(-2.822499999989,-8.412561823229E-04,
    6.081317895414E-03));
#284 = VECTOR('',#285,1.);
#285 = DIRECTION('',(-1.781517897894E-09,0.137029631921,-0.99056694876)
  );
#286 = ORIENTED_EDGE('',*,*,#287,.T.);
#287 = EDGE_CURVE('',#280,#262,#288,.T.);
#288 = ELLIPSE('',#289,0.406235842495,0.4);
#289 = AXIS2_PLACEMENT_3D('',#290,#291,#292);
#290 = CARTESIAN_POINT('',(-2.822500006246,0.883351273856,
    -3.466539092204));
#291 = DIRECTION('',(0.174542172044,0.134926185817,-0.975361448161));
#292 = DIRECTION('',(-0.984649699222,2.391744980321E-02,-0.172895706762)
  );
#293 = CYLINDRICAL_SURFACE('',#294,0.4);
#294 = AXIS2_PLACEMENT_3D('',#295,#296,#297);
#295 = CARTESIAN_POINT('',(-2.822499999902,0.395385523322,
    6.089317066387E-02));
#296 = DIRECTION('',(-1.781517897894E-09,0.137029631921,-0.99056694876)
  );
#297 = DIRECTION('',(-2.187428960794E-10,-0.99056694876,-0.137029631921)
  );
#298 = ADVANCED_FACE('',(#299),#344,.T.);
#299 = FACE_BOUND('',#300,.T.);
#300 = EDGE_LOOP('',(#301,#311,#320,#329,#337));
#301 = ORIENTED_EDGE('',*,*,#302,.F.);
#302 = EDGE_CURVE('',#303,#305,#307,.T.);
#303 = VERTEX_POINT('',#304);
#304 = CARTESIAN_POINT('',(-3.673415045657,0.732876119546,
    -2.315499932912));
#305 = VERTEX_POINT('',#306);
#306 = CARTESIAN_POINT('',(-3.969860901771,0.411691681257,
    6.294883508003E-03));
#307 = LINE('',#308,#309);
#308 = CARTESIAN_POINT('',(-3.976347849429,0.404663393977,
    5.710133310519E-02));
#309 = VECTOR('',#310,1.);
#310 = DIRECTION('',(-0.125475630263,-0.135946645884,0.982738203024));
#311 = ORIENTED_EDGE('',*,*,#312,.F.);
#312 = EDGE_CURVE('',#313,#303,#315,.T.);
#313 = VERTEX_POINT('',#314);
#314 = CARTESIAN_POINT('',(-3.673590214762,0.721376617025,
    -2.316367637284));
#315 = ELLIPSE('',#316,1.792329910752,0.4);
#316 = AXIS2_PLACEMENT_3D('',#317,#318,#319);
#317 = CARTESIAN_POINT('',(-3.057539897028,0.954827435645,
    -3.983229697362));
#318 = DIRECTION('',(-0.939046404008,4.006846147047E-02,-0.341447462305)
  );
#319 = DIRECTION('',(0.343714510224,0.130290521501,-0.929991782474));
#320 = ORIENTED_EDGE('',*,*,#321,.F.);
#321 = EDGE_CURVE('',#322,#313,#324,.T.);
#322 = VERTEX_POINT('',#323);
#323 = CARTESIAN_POINT('',(-3.282433622306,0.314939416458,
    -2.276650474412));
#324 = ELLIPSE('',#325,0.402546358005,0.4);
#325 = AXIS2_PLACEMENT_3D('',#326,#327,#328);
#326 = CARTESIAN_POINT('',(-3.282433622218,0.711166195961,
    -2.221838621643));
#327 = DIRECTION('',(0.236094156682,0.133155829295,-0.962563802719));
#328 = DIRECTION('',(-0.971730183323,3.235189559937E-02,-0.233867068375)
  );
#329 = ORIENTED_EDGE('',*,*,#330,.T.);
#330 = EDGE_CURVE('',#322,#331,#333,.T.);
#331 = VERTEX_POINT('',#332);
#332 = CARTESIAN_POINT('',(-3.573115466812,-4.359407843797E-11,
    2.850168901999E-09));
#333 = LINE('',#334,#335);
#334 = CARTESIAN_POINT('',(-3.283156558357,0.314156150965,
    -2.270988363973));
#335 = VECTOR('',#336,1.);
#336 = DIRECTION('',(-0.125475630263,-0.135946645884,0.982738203024));
#337 = ORIENTED_EDGE('',*,*,#338,.T.);
#338 = EDGE_CURVE('',#331,#305,#339,.T.);
#339 = ELLIPSE('',#340,0.406214363422,0.4);
#340 = AXIS2_PLACEMENT_3D('',#341,#342,#343);
#341 = CARTESIAN_POINT('',(-3.566903785893,0.402956828734,
    6.161324467921E-03));
#342 = DIRECTION('',(-1.794896762469E-09,1.528849017997E-02,
    -0.999883124204));
#343 = DIRECTION('',(0.720097126947,0.693792182354,1.060827352477E-02));
#344 = CYLINDRICAL_SURFACE('',#345,0.4);
#345 = AXIS2_PLACEMENT_3D('',#346,#347,#348);
#346 = CARTESIAN_POINT('',(-3.716315804594,0.241076288628,1.176371814434
    ));
#347 = DIRECTION('',(0.125475630263,0.135946645884,-0.982738203024));
#348 = DIRECTION('',(-2.188154379912E-10,-0.99056694876,-0.13702963192)
  );
#349 = ADVANCED_FACE('',(#350),#366,.T.);
#350 = FACE_BOUND('',#351,.T.);
#351 = EDGE_LOOP('',(#352,#358,#359,#365));
#352 = ORIENTED_EDGE('',*,*,#353,.F.);
#353 = EDGE_CURVE('',#262,#313,#354,.T.);
#354 = LINE('',#355,#356);
#355 = CARTESIAN_POINT('',(-3.691340081119,0.714731609974,
    -2.268331863773));
#356 = VECTOR('',#357,1.);
#357 = DIRECTION('',(-0.343725796082,-0.128680424561,0.930211763763));
#358 = ORIENTED_EDGE('',*,*,#287,.F.);
#359 = ORIENTED_EDGE('',*,*,#360,.T.);
#360 = EDGE_CURVE('',#280,#322,#361,.T.);
#361 = LINE('',#362,#363);
#362 = CARTESIAN_POINT('',(-2.849528767345,0.477005752953,
    -3.448204059461));
#363 = VECTOR('',#364,1.);
#364 = DIRECTION('',(-0.343725796082,-0.128680424561,0.930211763763));
#365 = ORIENTED_EDGE('',*,*,#321,.T.);
#366 = CYLINDRICAL_SURFACE('',#367,0.4);
#367 = AXIS2_PLACEMENT_3D('',#368,#369,#370);
#368 = CARTESIAN_POINT('',(-2.890346420812,0.857951651451,-3.28292897717
    ));
#369 = DIRECTION('',(0.343725796082,0.128680424561,-0.930211763763));
#370 = DIRECTION('',(-0.933927358203,-5.668347745301E-02,-0.352940041628
    ));
#371 = ADVANCED_FACE('',(#372),#408,.F.);
#372 = FACE_BOUND('',#373,.F.);
#373 = EDGE_LOOP('',(#374,#384,#393,#401));
#374 = ORIENTED_EDGE('',*,*,#375,.T.);
#375 = EDGE_CURVE('',#376,#378,#380,.T.);
#376 = VERTEX_POINT('',#377);
#377 = CARTESIAN_POINT('',(-3.902167927983,2.938507970965,0.258167309031
    ));
#378 = VERTEX_POINT('',#379);
#379 = CARTESIAN_POINT('',(-6.7832071251E-02,2.938507971071,
    0.25816730215));
#380 = LINE('',#381,#382);
#381 = CARTESIAN_POINT('',(-8.848966465E-02,2.93850797107,0.258167302187
    ));
#382 = VECTOR('',#383,1.);
#383 = DIRECTION('',(1.,2.744125867622E-11,-1.794687006813E-09));
#384 = ORIENTED_EDGE('',*,*,#385,.F.);
#385 = EDGE_CURVE('',#386,#378,#388,.T.);
#386 = VERTEX_POINT('',#387);
#387 = CARTESIAN_POINT('',(-7.883177679E-02,2.532239504681,
    3.871864064973E-02));
#388 = ELLIPSE('',#389,0.504101578437,0.5);
#389 = AXIS2_PLACEMENT_3D('',#390,#391,#392);
#390 = CARTESIAN_POINT('',(-1.7397247519E-02,2.524595259593,
    0.538660202642));
#391 = DIRECTION('',(0.991863587177,3.866225454678E-02,-0.121292433836)
  );
#392 = DIRECTION('',(-0.127305241182,0.301226270194,-0.945016460022));
#393 = ORIENTED_EDGE('',*,*,#394,.F.);
#394 = EDGE_CURVE('',#395,#386,#397,.T.);
#395 = VERTEX_POINT('',#396);
#396 = CARTESIAN_POINT('',(-3.89116822321,2.532239504576,
    3.871864749182E-02));
#397 = LINE('',#398,#399);
#398 = CARTESIAN_POINT('',(-3.881510334967,2.532239504577,
    3.871864747438E-02));
#399 = VECTOR('',#400,1.);
#400 = DIRECTION('',(1.,2.744125867622E-11,-1.794687006813E-09));
#401 = ORIENTED_EDGE('',*,*,#402,.F.);
#402 = EDGE_CURVE('',#376,#395,#403,.T.);
#403 = ELLIPSE('',#404,0.504101578437,0.5);
#404 = AXIS2_PLACEMENT_3D('',#405,#406,#407);
#405 = CARTESIAN_POINT('',(-3.952602750686,2.524595259486,0.538660209704
    ));
#406 = DIRECTION('',(-0.991863587614,3.86622544924E-02,-0.121292430277)
  );
#407 = DIRECTION('',(-0.127305237775,-0.301226270202,0.945016460479));
#408 = CYLINDRICAL_SURFACE('',#409,0.5);
#409 = AXIS2_PLACEMENT_3D('',#410,#411,#412);
#410 = CARTESIAN_POINT('',(-1.984999999103,2.52459525954,0.538660206173)
  );
#411 = DIRECTION('',(-1.,-2.744125867622E-11,1.794687006813E-09));
#412 = DIRECTION('',(1.767628272012E-09,0.158571658737,0.987347471281));
#413 = ADVANCED_FACE('',(#414),#450,.T.);
#414 = FACE_BOUND('',#415,.T.);
#415 = EDGE_LOOP('',(#416,#427,#435,#444));
#416 = ORIENTED_EDGE('',*,*,#417,.T.);
#417 = EDGE_CURVE('',#418,#420,#422,.T.);
#418 = VERTEX_POINT('',#419);
#419 = CARTESIAN_POINT('',(-0.296409793592,0.721376617118,
    -2.316367643345));
#420 = VERTEX_POINT('',#421);
#421 = CARTESIAN_POINT('',(-0.687566385883,0.314939416529,
    -2.276650479069));
#422 = ELLIPSE('',#423,0.402546358005,0.4);
#423 = AXIS2_PLACEMENT_3D('',#424,#425,#426);
#424 = CARTESIAN_POINT('',(-0.687566385796,0.711166196032,-2.2218386263)
  );
#425 = DIRECTION('',(-0.236094160144,0.133155829282,-0.962563801872));
#426 = DIRECTION('',(0.971730182482,3.235189565245E-02,-0.233867071863)
  );
#427 = ORIENTED_EDGE('',*,*,#428,.F.);
#428 = EDGE_CURVE('',#429,#420,#431,.T.);
#429 = VERTEX_POINT('',#430);
#430 = CARTESIAN_POINT('',(-1.147500006333,0.487124494398,
    -3.521350947978));
#431 = LINE('',#432,#433);
#432 = CARTESIAN_POINT('',(-0.654278488262,0.302477445955,
    -2.186564736396));
#433 = VECTOR('',#434,1.);
#434 = DIRECTION('',(0.343725799428,-0.128680424542,0.930211762529));
#435 = ORIENTED_EDGE('',*,*,#436,.F.);
#436 = EDGE_CURVE('',#437,#429,#439,.T.);
#437 = VERTEX_POINT('',#438);
#438 = CARTESIAN_POINT('',(-0.747510082612,0.890254765916,-3.53716281096
    ));
#439 = ELLIPSE('',#440,0.406235842495,0.4);
#440 = AXIS2_PLACEMENT_3D('',#441,#442,#443);
#441 = CARTESIAN_POINT('',(-1.147500006246,0.883351273902,
    -3.466539095211));
#442 = DIRECTION('',(-0.174542175552,0.134926185808,-0.975361447535));
#443 = DIRECTION('',(0.9846496986,2.391744985711E-02,-0.172895710296));
#444 = ORIENTED_EDGE('',*,*,#445,.T.);
#445 = EDGE_CURVE('',#437,#418,#446,.T.);
#446 = LINE('',#447,#448);
#447 = CARTESIAN_POINT('',(-0.744852683858,0.889259917114,
    -3.529971196065));
#448 = VECTOR('',#449,1.);
#449 = DIRECTION('',(0.343725799428,-0.128680424542,0.930211762529));
#450 = CYLINDRICAL_SURFACE('',#451,0.4);
#451 = AXIS2_PLACEMENT_3D('',#452,#453,#454);
#452 = CARTESIAN_POINT('',(3.4003463079E-02,0.44103251784,
    -0.269082208172));
#453 = DIRECTION('',(-0.343725799428,0.128680424542,-0.930211762529));
#454 = DIRECTION('',(-0.933927356939,5.668347740216E-02,0.35294004498));
#455 = ADVANCED_FACE('',(#456),#474,.T.);
#456 = FACE_BOUND('',#457,.T.);
#457 = EDGE_LOOP('',(#458,#459,#465,#466,#467));
#458 = ORIENTED_EDGE('',*,*,#436,.T.);
#459 = ORIENTED_EDGE('',*,*,#460,.T.);
#460 = EDGE_CURVE('',#429,#103,#461,.T.);
#461 = LINE('',#462,#463);
#462 = CARTESIAN_POINT('',(-1.147499999989,-8.412561363584E-04,
    6.081314889314E-03));
#463 = VECTOR('',#464,1.);
#464 = DIRECTION('',(-1.781517897894E-09,0.137029631921,-0.99056694876)
  );
#465 = ORIENTED_EDGE('',*,*,#102,.T.);
#466 = ORIENTED_EDGE('',*,*,#247,.F.);
#467 = ORIENTED_EDGE('',*,*,#468,.T.);
#468 = EDGE_CURVE('',#240,#437,#469,.T.);
#469 = ELLIPSE('',#470,1.163747612503,0.4);
#470 = AXIS2_PLACEMENT_3D('',#471,#472,#473);
#471 = CARTESIAN_POINT('',(-1.147500008319,1.042819180891,
    -4.619309016855));
#472 = DIRECTION('',(0.939046402781,4.006846152193E-02,-0.341447465675)
  );
#473 = DIRECTION('',(-0.343707322352,0.131254316736,-0.929858903759));
#474 = CYLINDRICAL_SURFACE('',#475,0.4);
#475 = AXIS2_PLACEMENT_3D('',#476,#477,#478);
#476 = CARTESIAN_POINT('',(-1.147500002299,0.579778154255,
    -1.272053897823));
#477 = DIRECTION('',(-1.781517897894E-09,0.137029631921,-0.99056694876)
  );
#478 = DIRECTION('',(-2.187428960794E-10,-0.99056694876,-0.137029631921)
  );
#479 = ADVANCED_FACE('',(#480),#515,.T.);
#480 = FACE_BOUND('',#481,.T.);
#481 = EDGE_LOOP('',(#482,#493,#499,#500,#509));
#482 = ORIENTED_EDGE('',*,*,#483,.T.);
#483 = EDGE_CURVE('',#484,#486,#488,.T.);
#484 = VERTEX_POINT('',#485);
#485 = CARTESIAN_POINT('',(-1.390982299994E-04,0.411691681366,
    6.294876383674E-03));
#486 = VERTEX_POINT('',#487);
#487 = CARTESIAN_POINT('',(-0.396884533188,4.356568388656E-11,
    -2.850170678148E-09));
#488 = ELLIPSE('',#489,0.406214363422,0.4);
#489 = AXIS2_PLACEMENT_3D('',#490,#491,#492);
#490 = CARTESIAN_POINT('',(-0.403096214107,0.402956828822,
    6.161318789783E-03));
#491 = DIRECTION('',(-1.794896808439E-09,1.528849017997E-02,
    -0.999883124204));
#492 = DIRECTION('',(-0.720097126947,0.693792182314,1.060827610947E-02)
  );
#493 = ORIENTED_EDGE('',*,*,#494,.F.);
#494 = EDGE_CURVE('',#420,#486,#495,.T.);
#495 = LINE('',#496,#497);
#496 = CARTESIAN_POINT('',(-0.390397585347,-7.028287236163E-03,
    5.080644672336E-02));
#497 = VECTOR('',#498,1.);
#498 = DIRECTION('',(0.125475633798,-0.135946645877,0.982738202574));
#499 = ORIENTED_EDGE('',*,*,#417,.F.);
#500 = ORIENTED_EDGE('',*,*,#501,.F.);
#501 = EDGE_CURVE('',#502,#418,#504,.T.);
#502 = VERTEX_POINT('',#503);
#503 = CARTESIAN_POINT('',(-0.296584962694,0.732876119639,
    -2.315499938972));
#504 = ELLIPSE('',#505,1.792329910752,0.4);
#505 = AXIS2_PLACEMENT_3D('',#506,#507,#508);
#506 = CARTESIAN_POINT('',(-0.912460117322,0.954827435704,
    -3.983229701211));
#507 = DIRECTION('',(0.939046402781,4.006846152193E-02,-0.341447465675)
  );
#508 = DIRECTION('',(-0.343714513568,0.130290521482,-0.92999178124));
#509 = ORIENTED_EDGE('',*,*,#510,.T.);
#510 = EDGE_CURVE('',#502,#484,#511,.T.);
#511 = LINE('',#512,#513);
#512 = CARTESIAN_POINT('',(-0.290098014854,0.725847832359,
    -2.264693489399));
#513 = VECTOR('',#514,1.);
#514 = DIRECTION('',(0.125475633798,-0.135946645877,0.982738202574));
#515 = CYLINDRICAL_SURFACE('',#516,0.4);
#516 = AXIS2_PLACEMENT_3D('',#517,#518,#519);
#517 = CARTESIAN_POINT('',(-0.403664892673,0.403572963933,
    1.707369171326E-03));
#518 = DIRECTION('',(-0.125475633798,0.135946645877,-0.982738202574));
#519 = DIRECTION('',(-2.187117917329E-10,-0.99056694876,-0.137029631921)
  );
#520 = ADVANCED_FACE('',(#521),#540,.T.);
#521 = FACE_BOUND('',#522,.T.);
#522 = EDGE_LOOP('',(#523,#532,#533,#534));
#523 = ORIENTED_EDGE('',*,*,#524,.F.);
#524 = EDGE_CURVE('',#170,#525,#527,.T.);
#525 = VERTEX_POINT('',#526);
#526 = CARTESIAN_POINT('',(-3.222500004353,10.219886430156,
    -2.269073833901));
#527 = ELLIPSE('',#528,0.200763967509,0.2);
#528 = AXIS2_PLACEMENT_3D('',#529,#530,#531);
#529 = CARTESIAN_POINT('',(-3.022500004353,10.219886430163,
    -2.269073834259));
#530 = DIRECTION('',(1.78806666287E-09,7.191524349266E-02,0.997410746761
    ));
#531 = DIRECTION('',(1.564355593959E-10,-0.997410746761,
    7.191524349266E-02));
#532 = ORIENTED_EDGE('',*,*,#169,.T.);
#533 = ORIENTED_EDGE('',*,*,#136,.F.);
#534 = ORIENTED_EDGE('',*,*,#535,.F.);
#535 = EDGE_CURVE('',#525,#129,#536,.T.);
#536 = LINE('',#537,#538);
#537 = CARTESIAN_POINT('',(-3.222500010732,9.647606444943,
    -5.832378908531));
#538 = VECTOR('',#539,1.);
#539 = DIRECTION('',(-1.767628272013E-09,-0.158571658737,-0.987347471281
    ));
#540 = CYLINDRICAL_SURFACE('',#541,0.2);
#541 = AXIS2_PLACEMENT_3D('',#542,#543,#544);
#542 = CARTESIAN_POINT('',(-3.022499999977,10.612387028789,
    0.174833712714));
#543 = DIRECTION('',(1.767628272013E-09,0.158571658737,0.987347471281));
#544 = DIRECTION('',(-3.116805529476E-10,0.987347471281,-0.158571658737)
  );
#545 = ADVANCED_FACE('',(#546),#572,.T.);
#546 = FACE_BOUND('',#547,.T.);
#547 = EDGE_LOOP('',(#548,#559,#565,#566));
#548 = ORIENTED_EDGE('',*,*,#549,.F.);
#549 = EDGE_CURVE('',#550,#552,#554,.T.);
#550 = VERTEX_POINT('',#551);
#551 = CARTESIAN_POINT('',(-3.022500003251,10.410482090152,
    -1.652491298723));
#552 = VERTEX_POINT('',#553);
#553 = CARTESIAN_POINT('',(-3.222500003135,10.209511958984,
    -1.590572652204));
#554 = ELLIPSE('',#555,0.210292444848,0.2);
#555 = AXIS2_PLACEMENT_3D('',#556,#557,#558);
#556 = CARTESIAN_POINT('',(-3.022500003135,10.209511958981,
    -1.590572652562));
#557 = DIRECTION('',(1.70704321361E-09,0.294440659558,0.955669764092));
#558 = DIRECTION('',(5.546692187613E-10,-0.955669764092,0.294440659558)
  );
#559 = ORIENTED_EDGE('',*,*,#560,.T.);
#560 = EDGE_CURVE('',#550,#170,#561,.T.);
#561 = LINE('',#562,#563);
#562 = CARTESIAN_POINT('',(-3.022500003251,10.410482090152,
    -1.652491298723));
#563 = VECTOR('',#564,1.);
#564 = DIRECTION('',(-1.794896786755E-09,1.528849017997E-02,
    -0.999883124204));
#565 = ORIENTED_EDGE('',*,*,#524,.T.);
#566 = ORIENTED_EDGE('',*,*,#567,.F.);
#567 = EDGE_CURVE('',#552,#525,#568,.T.);
#568 = LINE('',#569,#570);
#569 = CARTESIAN_POINT('',(-3.222500004384,10.220153944077,
    -2.286569521545));
#570 = VECTOR('',#571,1.);
#571 = DIRECTION('',(-1.794896786755E-09,1.528849017997E-02,
    -0.999883124204));
#572 = CYLINDRICAL_SURFACE('',#573,0.2);
#573 = AXIS2_PLACEMENT_3D('',#574,#575,#576);
#574 = CARTESIAN_POINT('',(-3.02250000004,10.183149846513,0.133536862132
    ));
#575 = DIRECTION('',(1.794896786755E-09,-1.528849017997E-02,
    0.999883124204));
#576 = DIRECTION('',(3.221650937393E-18,0.999883124204,
    1.528849017997E-02));
#577 = ADVANCED_FACE('',(#578),#590,.T.);
#578 = FACE_BOUND('',#579,.T.);
#579 = EDGE_LOOP('',(#580,#587,#588,#589));
#580 = ORIENTED_EDGE('',*,*,#581,.F.);
#581 = EDGE_CURVE('',#201,#178,#582,.T.);
#582 = ELLIPSE('',#583,0.200763967509,0.2);
#583 = AXIS2_PLACEMENT_3D('',#584,#585,#586);
#584 = CARTESIAN_POINT('',(-0.947500004353,10.219886430218,
    -2.269073837982));
#585 = DIRECTION('',(1.78806666287E-09,7.191524349266E-02,0.997410746761
    ));
#586 = DIRECTION('',(1.564355593959E-10,-0.997410746761,
    7.191524349266E-02));
#587 = ORIENTED_EDGE('',*,*,#200,.T.);
#588 = ORIENTED_EDGE('',*,*,#153,.F.);
#589 = ORIENTED_EDGE('',*,*,#185,.F.);
#590 = CYLINDRICAL_SURFACE('',#591,0.2);
#591 = AXIS2_PLACEMENT_3D('',#592,#593,#594);
#592 = CARTESIAN_POINT('',(-0.947499999977,10.612387028843,0.17483370899
    ));
#593 = DIRECTION('',(1.767628272013E-09,0.158571658737,0.987347471281));
#594 = DIRECTION('',(-3.116805529476E-10,0.987347471281,-0.158571658737)
  );
#595 = ADVANCED_FACE('',(#596),#615,.T.);
#596 = FACE_BOUND('',#597,.T.);
#597 = EDGE_LOOP('',(#598,#607,#608,#609));
#598 = ORIENTED_EDGE('',*,*,#599,.F.);
#599 = EDGE_CURVE('',#209,#600,#602,.T.);
#600 = VERTEX_POINT('',#601);
#601 = CARTESIAN_POINT('',(-0.947500003251,10.410482090206,
    -1.652491302447));
#602 = ELLIPSE('',#603,0.210292444848,0.2);
#603 = AXIS2_PLACEMENT_3D('',#604,#605,#606);
#604 = CARTESIAN_POINT('',(-0.947500003135,10.209511959046,
    -1.590572656286));
#605 = DIRECTION('',(1.707053358623E-09,0.294440659558,0.955669764092));
#606 = DIRECTION('',(5.546379956238E-10,-0.955669764092,0.294440659558)
  );
#607 = ORIENTED_EDGE('',*,*,#208,.T.);
#608 = ORIENTED_EDGE('',*,*,#581,.T.);
#609 = ORIENTED_EDGE('',*,*,#610,.F.);
#610 = EDGE_CURVE('',#600,#178,#611,.T.);
#611 = LINE('',#612,#613);
#612 = CARTESIAN_POINT('',(-0.947500004384,10.420130568977,
    -2.283511827593));
#613 = VECTOR('',#614,1.);
#614 = DIRECTION('',(-1.794896786755E-09,1.528849017997E-02,
    -0.999883124204));
#615 = CYLINDRICAL_SURFACE('',#616,0.2);
#616 = AXIS2_PLACEMENT_3D('',#617,#618,#619);
#617 = CARTESIAN_POINT('',(-0.947500004384,10.220153944139,
    -2.286569525628));
#618 = DIRECTION('',(1.794896786755E-09,-1.528849017997E-02,
    0.999883124204));
#619 = DIRECTION('',(3.221650937393E-18,0.999883124204,
    1.528849017997E-02));
#620 = ADVANCED_FACE('',(#621),#655,.T.);
#621 = FACE_BOUND('',#622,.T.);
#622 = EDGE_LOOP('',(#623,#633,#641,#647,#648,#649));
#623 = ORIENTED_EDGE('',*,*,#624,.F.);
#624 = EDGE_CURVE('',#625,#627,#629,.T.);
#625 = VERTEX_POINT('',#626);
#626 = CARTESIAN_POINT('',(-6.5355255499E-02,3.791653433971,
    0.550363519906));
#627 = VERTEX_POINT('',#628);
#628 = CARTESIAN_POINT('',(-6.5355255062E-02,3.787932826003,
    0.793695142327));
#629 = LINE('',#630,#631);
#630 = CARTESIAN_POINT('',(-6.5355269345E-02,3.909593710774,
    -7.163052981986));
#631 = VECTOR('',#632,1.);
#632 = DIRECTION('',(1.794896805002E-09,-1.528849017997E-02,
    0.999883124204));
#633 = ORIENTED_EDGE('',*,*,#634,.T.);
#634 = EDGE_CURVE('',#625,#635,#637,.T.);
#635 = VERTEX_POINT('',#636);
#636 = CARTESIAN_POINT('',(-0.425040397338,4.194391184443,
    -2.262572413721));
#637 = LINE('',#638,#639);
#638 = CARTESIAN_POINT('',(0.180826964548,3.516004367678,2.475644084589)
  );
#639 = VECTOR('',#640,1.);
#640 = DIRECTION('',(-0.125575500214,0.140606293081,-0.982069582103));
#641 = ORIENTED_EDGE('',*,*,#642,.F.);
#642 = EDGE_CURVE('',#232,#635,#643,.T.);
#643 = LINE('',#644,#645);
#644 = CARTESIAN_POINT('',(-1.257101479799,5.059985566586,
    -4.449324421698));
#645 = VECTOR('',#646,1.);
#646 = DIRECTION('',(0.333533247259,-0.346975133402,0.876563648444));
#647 = ORIENTED_EDGE('',*,*,#231,.F.);
#648 = ORIENTED_EDGE('',*,*,#70,.T.);
#649 = ORIENTED_EDGE('',*,*,#650,.F.);
#650 = EDGE_CURVE('',#627,#63,#651,.T.);
#651 = LINE('',#652,#653);
#652 = CARTESIAN_POINT('',(-0.21716998999,3.939320559394,0.822782065878)
  );
#653 = VECTOR('',#654,1.);
#654 = DIRECTION('',(-0.701673842938,0.699700280831,0.134437104781));
#655 = PLANE('',#656);
#656 = AXIS2_PLACEMENT_3D('',#657,#658,#659);
#657 = CARTESIAN_POINT('',(-6.5355251923E-02,3.761197272557,
    2.542228083945));
#658 = DIRECTION('',(0.707106781187,0.707024137538,1.081059381132E-02));
#659 = DIRECTION('',(-0.701673843381,0.703483388073,-0.112982034943));
#660 = ADVANCED_FACE('',(#661),#674,.T.);
#661 = FACE_BOUND('',#662,.T.);
#662 = EDGE_LOOP('',(#663,#664,#665,#666,#667,#668));
#663 = ORIENTED_EDGE('',*,*,#501,.T.);
#664 = ORIENTED_EDGE('',*,*,#445,.F.);
#665 = ORIENTED_EDGE('',*,*,#468,.F.);
#666 = ORIENTED_EDGE('',*,*,#239,.F.);
#667 = ORIENTED_EDGE('',*,*,#642,.T.);
#668 = ORIENTED_EDGE('',*,*,#669,.T.);
#669 = EDGE_CURVE('',#635,#502,#670,.T.);
#670 = LINE('',#671,#672);
#671 = CARTESIAN_POINT('',(-0.719490076151,12.128987348924,
    -2.141250238027));
#672 = VECTOR('',#673,1.);
#673 = DIRECTION('',(3.707974447398E-02,-0.999195514393,
    -1.527797650105E-02));
#674 = PLANE('',#675);
#675 = AXIS2_PLACEMENT_3D('',#676,#677,#678);
#676 = CARTESIAN_POINT('',(-0.628327594042,12.128537666012,
    -1.890588594893));
#677 = DIRECTION('',(0.939046402781,4.006846152193E-02,-0.341447465675)
  );
#678 = DIRECTION('',(-0.332235415099,-0.149564232895,-0.931262674648));
#679 = ADVANCED_FACE('',(#680),#721,.F.);
#680 = FACE_BOUND('',#681,.T.);
#681 = EDGE_LOOP('',(#682,#690,#691,#699,#707,#715));
#682 = ORIENTED_EDGE('',*,*,#683,.T.);
#683 = EDGE_CURVE('',#684,#376,#686,.T.);
#684 = VERTEX_POINT('',#685);
#685 = CARTESIAN_POINT('',(-3.929211094735,3.12965888475,0.540241446651)
  );
#686 = LINE('',#687,#688);
#687 = CARTESIAN_POINT('',(-3.869639144071,2.708582724923,
    -8.112463684572E-02));
#688 = VECTOR('',#689,1.);
#689 = DIRECTION('',(7.911694942901E-02,-0.559227301969,-0.825230472683)
  );
#690 = ORIENTED_EDGE('',*,*,#375,.T.);
#691 = ORIENTED_EDGE('',*,*,#692,.F.);
#692 = EDGE_CURVE('',#693,#378,#695,.T.);
#693 = VERTEX_POINT('',#694);
#694 = CARTESIAN_POINT('',(-4.0788903498E-02,3.129658884856,
    0.540241439672));
#695 = LINE('',#696,#697);
#696 = CARTESIAN_POINT('',(-0.100360856369,2.708582725026,
    -8.112464361151E-02));
#697 = VECTOR('',#698,1.);
#698 = DIRECTION('',(-7.911695236042E-02,-0.559227301973,-0.8252304724)
  );
#699 = ORIENTED_EDGE('',*,*,#700,.T.);
#700 = EDGE_CURVE('',#693,#701,#703,.T.);
#701 = VERTEX_POINT('',#702);
#702 = CARTESIAN_POINT('',(-4.4542018152E-02,3.228586362123,
    0.686224957516));
#703 = LINE('',#704,#705);
#704 = CARTESIAN_POINT('',(0.132591637804,-1.440438524021,
    -6.203677591406));
#705 = VECTOR('',#706,1.);
#706 = DIRECTION('',(-2.127788373214E-02,0.560858794075,0.827638003461)
  );
#707 = ORIENTED_EDGE('',*,*,#708,.T.);
#708 = EDGE_CURVE('',#701,#709,#711,.T.);
#709 = VERTEX_POINT('',#710);
#710 = CARTESIAN_POINT('',(-3.925457979562,3.228586362017,0.686224964481
    ));
#711 = LINE('',#712,#713);
#712 = CARTESIAN_POINT('',(-1.984999998857,3.22858636207,0.686224960998)
  );
#713 = VECTOR('',#714,1.);
#714 = DIRECTION('',(-1.,-2.744125867622E-11,1.794687006813E-09));
#715 = ORIENTED_EDGE('',*,*,#716,.F.);
#716 = EDGE_CURVE('',#684,#709,#717,.T.);
#717 = LINE('',#718,#719);
#718 = CARTESIAN_POINT('',(-4.102591659993,-1.440438524137,
    -6.203677583804));
#719 = VECTOR('',#720,1.);
#720 = DIRECTION('',(2.127788667209E-02,0.560858794077,0.827638003384));
#721 = PLANE('',#722);
#722 = AXIS2_PLACEMENT_3D('',#723,#724,#725);
#723 = CARTESIAN_POINT('',(-1.985,2.792492609061,4.269798619135E-02));
#724 = DIRECTION('',(-1.029510499925E-09,0.827825422956,-0.560985801164)
  );
#725 = DIRECTION('',(-1.470293374005E-09,-0.560985801164,-0.827825422956
    ));
#726 = ADVANCED_FACE('',(#727),#750,.F.);
#727 = FACE_BOUND('',#728,.T.);
#728 = EDGE_LOOP('',(#729,#735,#736,#742,#743,#749));
#729 = ORIENTED_EDGE('',*,*,#730,.T.);
#730 = EDGE_CURVE('',#395,#305,#731,.T.);
#731 = LINE('',#732,#733);
#732 = CARTESIAN_POINT('',(-3.991780408444,-0.178977781465,
    -2.736616296533E-03));
#733 = VECTOR('',#734,1.);
#734 = DIRECTION('',(-3.707974447398E-02,-0.999195514395,
    -1.527797636869E-02));
#735 = ORIENTED_EDGE('',*,*,#338,.F.);
#736 = ORIENTED_EDGE('',*,*,#737,.T.);
#737 = EDGE_CURVE('',#331,#486,#738,.T.);
#738 = LINE('',#739,#740);
#739 = CARTESIAN_POINT('',(-1.985,-1.42108547152E-14,0.));
#740 = VECTOR('',#741,1.);
#741 = DIRECTION('',(1.,2.744125867622E-11,-1.794687006813E-09));
#742 = ORIENTED_EDGE('',*,*,#483,.F.);
#743 = ORIENTED_EDGE('',*,*,#744,.F.);
#744 = EDGE_CURVE('',#386,#484,#745,.T.);
#745 = LINE('',#746,#747);
#746 = CARTESIAN_POINT('',(2.1780408444E-02,-0.178977781355,
    -2.736623499573E-03));
#747 = VECTOR('',#748,1.);
#748 = DIRECTION('',(3.707974447398E-02,-0.999195514393,
    -1.527797650105E-02));
#749 = ORIENTED_EDGE('',*,*,#394,.F.);
#750 = PLANE('',#751);
#751 = AXIS2_PLACEMENT_3D('',#752,#753,#754);
#752 = CARTESIAN_POINT('',(-1.985,-0.253431190216,-3.875033160332E-03));
#753 = DIRECTION('',(-1.794896786755E-09,1.528849017997E-02,
    -0.999883124204));
#754 = DIRECTION('',(-3.221656262368E-18,-0.999883124204,
    -1.528849017997E-02));
#755 = ADVANCED_FACE('',(#756),#783,.F.);
#756 = FACE_BOUND('',#757,.T.);
#757 = EDGE_LOOP('',(#758,#759,#760,#761,#769,#775,#776,#782));
#758 = ORIENTED_EDGE('',*,*,#62,.T.);
#759 = ORIENTED_EDGE('',*,*,#55,.T.);
#760 = ORIENTED_EDGE('',*,*,#47,.T.);
#761 = ORIENTED_EDGE('',*,*,#762,.F.);
#762 = EDGE_CURVE('',#763,#40,#765,.T.);
#763 = VERTEX_POINT('',#764);
#764 = CARTESIAN_POINT('',(-3.904644742297,3.787932825897,0.793695149217
    ));
#765 = LINE('',#766,#767);
#766 = CARTESIAN_POINT('',(-3.752830007273,3.939320559298,0.822782072223
    ));
#767 = VECTOR('',#768,1.);
#768 = DIRECTION('',(0.701673843382,0.699700280869,0.134437102263));
#769 = ORIENTED_EDGE('',*,*,#770,.F.);
#770 = EDGE_CURVE('',#709,#763,#771,.T.);
#771 = LINE('',#772,#773);
#772 = CARTESIAN_POINT('',(-4.093625236466,-1.290833625093,
    -0.182115022059));
#773 = VECTOR('',#774,1.);
#774 = DIRECTION('',(3.65171771313E-02,0.981382840142,0.188558258499));
#775 = ORIENTED_EDGE('',*,*,#708,.F.);
#776 = ORIENTED_EDGE('',*,*,#777,.T.);
#777 = EDGE_CURVE('',#701,#627,#778,.T.);
#778 = LINE('',#779,#780);
#779 = CARTESIAN_POINT('',(0.123625235883,-1.290833624976,
    -0.182115029628));
#780 = VECTOR('',#781,1.);
#781 = DIRECTION('',(-3.651717650835E-02,0.98138284014,0.188558258631));
#782 = ORIENTED_EDGE('',*,*,#650,.T.);
#783 = PLANE('',#784);
#784 = AXIS2_PLACEMENT_3D('',#785,#786,#787);
#785 = CARTESIAN_POINT('',(-0.876084898555,4.181128818276,0.869241962567
    ));
#786 = DIRECTION('',(-1.767628270895E-09,0.188684106059,-0.982037834363)
  );
#787 = DIRECTION('',(-3.11680559293E-10,-0.982037834363,-0.188684106059)
  );
#788 = ADVANCED_FACE('',(#789),#807,.T.);
#789 = FACE_BOUND('',#790,.T.);
#790 = EDGE_LOOP('',(#791,#792,#800,#806));
#791 = ORIENTED_EDGE('',*,*,#224,.F.);
#792 = ORIENTED_EDGE('',*,*,#793,.T.);
#793 = EDGE_CURVE('',#217,#794,#796,.T.);
#794 = VERTEX_POINT('',#795);
#795 = CARTESIAN_POINT('',(-3.222500001493,7.381535721212,
    -0.719276708821));
#796 = LINE('',#797,#798);
#797 = CARTESIAN_POINT('',(-0.832164327389,7.381535721277,
    -0.719276713111));
#798 = VECTOR('',#799,1.);
#799 = DIRECTION('',(-1.,-2.740165955406E-11,1.794680114177E-09));
#800 = ORIENTED_EDGE('',*,*,#801,.F.);
#801 = EDGE_CURVE('',#24,#794,#802,.T.);
#802 = LINE('',#803,#804);
#803 = CARTESIAN_POINT('',(-3.222500001124,6.29355718123,-0.529902765568
    ));
#804 = VECTOR('',#805,1.);
#805 = DIRECTION('',(-3.347913897199E-10,0.985187243946,-0.171482052606)
  );
#806 = ORIENTED_EDGE('',*,*,#21,.F.);
#807 = PLANE('',#808);
#808 = AXIS2_PLACEMENT_3D('',#809,#810,#811);
#809 = CARTESIAN_POINT('',(-3.137835675228,6.293557181233,
    -0.529902765721));
#810 = DIRECTION('',(1.763397062628E-09,0.171482052606,0.985187243946));
#811 = DIRECTION('',(-3.347913897199E-10,0.985187243946,-0.171482052606)
  );
#812 = ADVANCED_FACE('',(#813),#841,.T.);
#813 = FACE_BOUND('',#814,.T.);
#814 = EDGE_LOOP('',(#815,#823,#824,#825,#826,#827,#835));
#815 = ORIENTED_EDGE('',*,*,#816,.T.);
#816 = EDGE_CURVE('',#817,#303,#819,.T.);
#817 = VERTEX_POINT('',#818);
#818 = CARTESIAN_POINT('',(-3.544959611013,4.194391184357,
    -2.262572408122));
#819 = LINE('',#820,#821);
#820 = CARTESIAN_POINT('',(-3.250509932201,12.128987348852,
    -2.141250233484));
#821 = VECTOR('',#822,1.);
#822 = DIRECTION('',(-3.707974447398E-02,-0.999195514395,
    -1.527797636869E-02));
#823 = ORIENTED_EDGE('',*,*,#302,.T.);
#824 = ORIENTED_EDGE('',*,*,#730,.F.);
#825 = ORIENTED_EDGE('',*,*,#402,.F.);
#826 = ORIENTED_EDGE('',*,*,#683,.F.);
#827 = ORIENTED_EDGE('',*,*,#828,.T.);
#828 = EDGE_CURVE('',#684,#829,#831,.T.);
#829 = VERTEX_POINT('',#830);
#830 = CARTESIAN_POINT('',(-3.904644742734,3.791653433865,0.550363526796
    ));
#831 = LINE('',#832,#833);
#832 = CARTESIAN_POINT('',(-4.047499999116,-5.789659432378E-02,
    0.491502839861));
#833 = VECTOR('',#834,1.);
#834 = DIRECTION('',(3.707974447398E-02,0.999195514395,
    1.527797636869E-02));
#835 = ORIENTED_EDGE('',*,*,#836,.T.);
#836 = EDGE_CURVE('',#829,#817,#837,.T.);
#837 = LINE('',#838,#839);
#838 = CARTESIAN_POINT('',(-4.150826955855,3.516004367559,2.475644092363
    ));
#839 = VECTOR('',#840,1.);
#840 = DIRECTION('',(0.125575496681,0.140606293088,-0.982069582554));
#841 = PLANE('',#842);
#842 = AXIS2_PLACEMENT_3D('',#843,#844,#845);
#843 = CARTESIAN_POINT('',(-4.129748596897,-0.511624302318,
    1.019460380234));
#844 = DIRECTION('',(-0.991863587614,3.86622544924E-02,-0.121292430277)
  );
#845 = DIRECTION('',(0.11381473063,-0.157541258714,-0.980931679015));
#846 = ADVANCED_FACE('',(#847),#875,.F.);
#847 = FACE_BOUND('',#848,.T.);
#848 = EDGE_LOOP('',(#849,#850,#851,#852,#853,#861,#867,#868,#869));
#849 = ORIENTED_EDGE('',*,*,#567,.T.);
#850 = ORIENTED_EDGE('',*,*,#535,.T.);
#851 = ORIENTED_EDGE('',*,*,#128,.T.);
#852 = ORIENTED_EDGE('',*,*,#272,.F.);
#853 = ORIENTED_EDGE('',*,*,#854,.F.);
#854 = EDGE_CURVE('',#855,#264,#857,.T.);
#855 = VERTEX_POINT('',#856);
#856 = CARTESIAN_POINT('',(-3.222500005706,4.529846394761,
    -3.110033263961));
#857 = LINE('',#858,#859);
#858 = CARTESIAN_POINT('',(-3.222500004502,11.101118848876,
    -2.338902108871));
#859 = VECTOR('',#860,1.);
#860 = DIRECTION('',(-1.819148980604E-10,-0.993184931895,-0.116549092904
    ));
#861 = ORIENTED_EDGE('',*,*,#862,.F.);
#862 = EDGE_CURVE('',#32,#855,#863,.T.);
#863 = LINE('',#864,#865);
#864 = CARTESIAN_POINT('',(-3.22250000004,4.481584291982,
    4.635834444338E-02));
#865 = VECTOR('',#866,1.);
#866 = DIRECTION('',(-1.794896786755E-09,1.528849017997E-02,
    -0.999883124204));
#867 = ORIENTED_EDGE('',*,*,#31,.T.);
#868 = ORIENTED_EDGE('',*,*,#801,.T.);
#869 = ORIENTED_EDGE('',*,*,#870,.T.);
#870 = EDGE_CURVE('',#794,#552,#871,.T.);
#871 = LINE('',#872,#873);
#872 = CARTESIAN_POINT('',(-3.22250000114,6.772849915122,-0.531741372931
    ));
#873 = VECTOR('',#874,1.);
#874 = DIRECTION('',(-5.546536071925E-10,0.955669764092,-0.294440659558)
  );
#875 = PLANE('',#876);
#876 = AXIS2_PLACEMENT_3D('',#877,#878,#879);
#877 = CARTESIAN_POINT('',(-3.22250000004,10.809856523036,0.143119381325
    ));
#878 = DIRECTION('',(1.,2.744125867622E-11,-1.794687006813E-09));
#879 = DIRECTION('',(1.767628272012E-09,0.158571658737,0.987347471281));
#880 = ADVANCED_FACE('',(#881),#891,.F.);
#881 = FACE_BOUND('',#882,.T.);
#882 = EDGE_LOOP('',(#883,#884,#885,#886,#887,#888,#889,#890));
#883 = ORIENTED_EDGE('',*,*,#360,.F.);
#884 = ORIENTED_EDGE('',*,*,#279,.T.);
#885 = ORIENTED_EDGE('',*,*,#111,.F.);
#886 = ORIENTED_EDGE('',*,*,#460,.F.);
#887 = ORIENTED_EDGE('',*,*,#428,.T.);
#888 = ORIENTED_EDGE('',*,*,#494,.T.);
#889 = ORIENTED_EDGE('',*,*,#737,.F.);
#890 = ORIENTED_EDGE('',*,*,#330,.F.);
#891 = PLANE('',#892);
#892 = AXIS2_PLACEMENT_3D('',#893,#894,#895);
#893 = CARTESIAN_POINT('',(-0.876084899989,-8.412561289112E-04,
    6.081314402209E-03));
#894 = DIRECTION('',(2.187428960794E-10,0.99056694876,0.137029631921));
#895 = DIRECTION('',(-1.781517897894E-09,0.137029631921,-0.99056694876)
  );
#896 = ADVANCED_FACE('',(#897),#911,.T.);
#897 = FACE_BOUND('',#898,.T.);
#898 = EDGE_LOOP('',(#899,#900,#901,#902,#903,#909,#910));
#899 = ORIENTED_EDGE('',*,*,#744,.T.);
#900 = ORIENTED_EDGE('',*,*,#510,.F.);
#901 = ORIENTED_EDGE('',*,*,#669,.F.);
#902 = ORIENTED_EDGE('',*,*,#634,.F.);
#903 = ORIENTED_EDGE('',*,*,#904,.F.);
#904 = EDGE_CURVE('',#693,#625,#905,.T.);
#905 = LINE('',#906,#907);
#906 = CARTESIAN_POINT('',(7.7500000884E-02,-5.78965942106E-02,
    0.491502832458));
#907 = VECTOR('',#908,1.);
#908 = DIRECTION('',(-3.707974447398E-02,0.999195514393,
    1.527797650105E-02));
#909 = ORIENTED_EDGE('',*,*,#692,.T.);
#910 = ORIENTED_EDGE('',*,*,#385,.F.);
#911 = PLANE('',#912);
#912 = AXIS2_PLACEMENT_3D('',#913,#914,#915);
#913 = CARTESIAN_POINT('',(0.159748600584,-0.5116243022,1.019460372536)
  );
#914 = DIRECTION('',(0.991863587177,3.866225454678E-02,-0.121292433836)
  );
#915 = DIRECTION('',(-0.113814734141,-0.15754125872,-0.980931678606));
#916 = ADVANCED_FACE('',(#917),#928,.T.);
#917 = FACE_BOUND('',#918,.T.);
#918 = EDGE_LOOP('',(#919,#920,#921,#927));
#919 = ORIENTED_EDGE('',*,*,#177,.F.);
#920 = ORIENTED_EDGE('',*,*,#560,.F.);
#921 = ORIENTED_EDGE('',*,*,#922,.F.);
#922 = EDGE_CURVE('',#600,#550,#923,.T.);
#923 = LINE('',#924,#925);
#924 = CARTESIAN_POINT('',(-0.832164329147,10.41048209021,
    -1.652491302654));
#925 = VECTOR('',#926,1.);
#926 = DIRECTION('',(-1.,-2.744134021809E-11,1.794692339739E-09));
#927 = ORIENTED_EDGE('',*,*,#610,.T.);
#928 = PLANE('',#929);
#929 = AXIS2_PLACEMENT_3D('',#930,#931,#932);
#930 = CARTESIAN_POINT('',(0.196249995616,10.420130569011,
    -2.283511829646));
#931 = DIRECTION('',(3.221650938001E-18,0.999883124204,
    1.528849017997E-02));
#932 = DIRECTION('',(-1.794896786755E-09,1.528849017997E-02,
    -0.999883124204));
#933 = ADVANCED_FACE('',(#934),#952,.T.);
#934 = FACE_BOUND('',#935,.T.);
#935 = EDGE_LOOP('',(#936,#942,#943,#944,#945,#951));
#936 = ORIENTED_EDGE('',*,*,#937,.T.);
#937 = EDGE_CURVE('',#829,#763,#938,.T.);
#938 = LINE('',#939,#940);
#939 = CARTESIAN_POINT('',(-3.90464475658,3.909593710668,-7.163052975096
    ));
#940 = VECTOR('',#941,1.);
#941 = DIRECTION('',(1.794896768509E-09,-1.528849017997E-02,
    0.999883124204));
#942 = ORIENTED_EDGE('',*,*,#762,.T.);
#943 = ORIENTED_EDGE('',*,*,#39,.F.);
#944 = ORIENTED_EDGE('',*,*,#862,.T.);
#945 = ORIENTED_EDGE('',*,*,#946,.T.);
#946 = EDGE_CURVE('',#855,#817,#947,.T.);
#947 = LINE('',#948,#949);
#948 = CARTESIAN_POINT('',(-2.712898536449,5.059985566546,
    -4.449324419085));
#949 = VECTOR('',#950,1.);
#950 = DIRECTION('',(-0.333533244093,-0.34697513342,0.876563649641));
#951 = ORIENTED_EDGE('',*,*,#836,.F.);
#952 = PLANE('',#953);
#953 = AXIS2_PLACEMENT_3D('',#954,#955,#956);
#954 = CARTESIAN_POINT('',(-3.904644739158,3.761197272451,2.542228090835
    ));
#955 = DIRECTION('',(-0.707106781187,0.707024137499,1.081059634846E-02)
  );
#956 = DIRECTION('',(0.701673842938,0.703483388111,-0.11298203746));
#957 = ADVANCED_FACE('',(#958),#966,.T.);
#958 = FACE_BOUND('',#959,.T.);
#959 = EDGE_LOOP('',(#960,#961,#962,#963,#964,#965));
#960 = ORIENTED_EDGE('',*,*,#261,.F.);
#961 = ORIENTED_EDGE('',*,*,#353,.T.);
#962 = ORIENTED_EDGE('',*,*,#312,.T.);
#963 = ORIENTED_EDGE('',*,*,#816,.F.);
#964 = ORIENTED_EDGE('',*,*,#946,.F.);
#965 = ORIENTED_EDGE('',*,*,#854,.T.);
#966 = PLANE('',#967);
#967 = AXIS2_PLACEMENT_3D('',#968,#969,#970);
#968 = CARTESIAN_POINT('',(-3.34167241341,12.128537665936,
    -1.890588590022));
#969 = DIRECTION('',(-0.939046404008,4.006846147047E-02,-0.341447462305)
  );
#970 = DIRECTION('',(0.332235411766,-0.149564232877,-0.93126267584));
#971 = ADVANCED_FACE('',(#972),#978,.T.);
#972 = FACE_BOUND('',#973,.T.);
#973 = EDGE_LOOP('',(#974,#975,#976,#977));
#974 = ORIENTED_EDGE('',*,*,#716,.T.);
#975 = ORIENTED_EDGE('',*,*,#770,.T.);
#976 = ORIENTED_EDGE('',*,*,#937,.F.);
#977 = ORIENTED_EDGE('',*,*,#828,.F.);
#978 = PLANE('',#979);
#979 = AXIS2_PLACEMENT_3D('',#980,#981,#982);
#980 = CARTESIAN_POINT('',(-4.047500012963,6.004368247885E-02,
    -7.22191366203));
#981 = DIRECTION('',(-0.999312309816,3.707541072192E-02,
    5.668951027014E-04));
#982 = DIRECTION('',(3.651717650835E-02,0.986688935668,-0.158465895546)
  );
#983 = ADVANCED_FACE('',(#984),#990,.T.);
#984 = FACE_BOUND('',#985,.T.);
#985 = EDGE_LOOP('',(#986,#987,#988,#989));
#986 = ORIENTED_EDGE('',*,*,#700,.F.);
#987 = ORIENTED_EDGE('',*,*,#904,.T.);
#988 = ORIENTED_EDGE('',*,*,#624,.T.);
#989 = ORIENTED_EDGE('',*,*,#777,.F.);
#990 = PLANE('',#991);
#991 = AXIS2_PLACEMENT_3D('',#992,#993,#994);
#992 = CARTESIAN_POINT('',(7.7499987037E-02,6.004368259204E-02,
    -7.221913669433));
#993 = DIRECTION('',(0.999312309816,3.707541077677E-02,
    5.668915157957E-04));
#994 = DIRECTION('',(-3.65171771313E-02,0.986688935666,-0.158465895414)
  );
#995 = ADVANCED_FACE('',(#996),#1004,.T.);
#996 = FACE_BOUND('',#997,.T.);
#997 = EDGE_LOOP('',(#998,#999,#1000,#1001,#1002,#1003));
#998 = ORIENTED_EDGE('',*,*,#216,.T.);
#999 = ORIENTED_EDGE('',*,*,#599,.T.);
#1000 = ORIENTED_EDGE('',*,*,#922,.T.);
#1001 = ORIENTED_EDGE('',*,*,#549,.T.);
#1002 = ORIENTED_EDGE('',*,*,#870,.F.);
#1003 = ORIENTED_EDGE('',*,*,#793,.F.);
#1004 = PLANE('',#1005);
#1005 = AXIS2_PLACEMENT_3D('',#1006,#1007,#1008);
#1006 = CARTESIAN_POINT('',(-0.832164327036,6.772849915188,
    -0.53174137722));
#1007 = DIRECTION('',(1.707053358623E-09,0.294440659558,0.955669764092)
  );
#1008 = DIRECTION('',(-5.546536071925E-10,0.955669764092,-0.294440659558
    ));
#1009 = ( GEOMETRIC_REPRESENTATION_CONTEXT(3) 
GLOBAL_UNCERTAINTY_ASSIGNED_CONTEXT((#1013)) 
GLOBAL_UNIT_ASSIGNED_CONTEXT((#1010,#1011,#1012)) REPRESENTATION_CONTEXT
('Context #1','3D Context with UNIT and UNCERTAINTY') );
#1010 = ( LENGTH_UNIT() NAMED_UNIT(*) SI_UNIT(.MILLI.,.METRE.) );
#1011 = ( NAMED_UNIT(*) PLANE_ANGLE_UNIT() SI_UNIT($,.RADIAN.) );
#1012 = ( NAMED_UNIT(*) SI_UNIT($,.STERADIAN.) SOLID_ANGLE_UNIT() );
#1013 = UNCERTAINTY_MEASURE_WITH_UNIT(LENGTH_MEASURE(1.E-07),#1010,
  'distance_accuracy_value','confusion accuracy');
#1014 = PRODUCT_RELATED_PRODUCT_CATEGORY('part',$,(#7));
#1015 = MECHANICAL_DESIGN_GEOMETRIC_PRESENTATION_REPRESENTATION('',(
    #1016),#1009);
#1016 = STYLED_ITEM('color',(#1017),#15);
#1017 = PRESENTATION_STYLE_ASSIGNMENT((#1018));
#1018 = SURFACE_STYLE_USAGE(.BOTH.,#1019);
#1019 = SURFACE_SIDE_STYLE('',(#1020));
#1020 = SURFACE_STYLE_FILL_AREA(#1021);
#1021 = FILL_AREA_STYLE('',(#1022));
#1022 = FILL_AREA_STYLE_COLOUR('',#1023);
#1023 = DRAUGHTING_PRE_DEFINED_COLOUR('green');
ENDSEC;
END-ISO-10303-21;
