ISO-10303-21;
HEADER;
FILE_DESCRIPTION(('Open CASCADE Model'),'2;1');
FILE_NAME('Open CASCADE Shape Model','2026-09-18T15:45:47',('Author'),(
    'Open CASCADE'),'Open CASCADE STEP processor 7.3','Open CASCADE 7.3'
  ,'Unknown');
FILE_SCHEMA(('AUTOMOTIVE_DESIGN { 1 0 10303 214 1 1 1 1 }'));
ENDSEC;
DATA;
#1 = APPLICATION_PROTOCOL_DEFINITION('international standard',
  'automotive_design',2000,#2);
#2 = APPLICATION_CONTEXT(
  'core data for automotive mechanical design processes');
#3 = SHAPE_DEFINITION_REPRESENTATION(#4,#10);
#4 = PRODUCT_DEFINITION_SHAPE('','',#5);
#5 = PRODUCT_DEFINITION('design','',#6,#9);
#6 = PRODUCT_DEFINITION_FORMATION('','',#7);
#7 = PRODUCT('Pottmanager 97','Pottmanager 97','',(#8));
#8 = PRODUCT_CONTEXT('',#2,'mechanical');
#9 = PRODUCT_DEFINITION_CONTEXT('part definition',#2,'design');
#10 = ADVANCED_BREP_SHAPE_REPRESENTATION('',(#11,#15),#550);
#11 = AXIS2_PLACEMENT_3D('',#12,#13,#14);
#12 = CARTESIAN_POINT('',(0.,0.,0.));
#13 = DIRECTION('',(0.,0.,1.));
#14 = DIRECTION('',(1.,0.,-0.));
#15 = MANIFOLD_SOLID_BREP('',#16);
#16 = CLOSED_SHELL('',(#17,#34,#68,#112,#193,#218,#243,#310,#336,#361,
    #386,#420,#445,#479,#496,#508,#520,#538));
#17 = ADVANCED_FACE('',(#18),#29,.F.);
#18 = FACE_BOUND('',#19,.T.);
#19 = EDGE_LOOP('',(#20));
#20 = ORIENTED_EDGE('',*,*,#21,.F.);
#21 = EDGE_CURVE('',#22,#22,#24,.T.);
#22 = VERTEX_POINT('',#23);
#23 = CARTESIAN_POINT('',(88.707757672229,72.665455697669,
    -7.027617664191E-02));
#24 = CIRCLE('',#25,44.);
#25 = AXIS2_PLACEMENT_3D('',#26,#27,#28);
#26 = CARTESIAN_POINT('',(44.707757672229,72.665455697669,
    -7.027617664191E-02));
#27 = DIRECTION('',(0.,-1.,1.110223024625E-16));
#28 = DIRECTION('',(1.,0.,0.));
#29 = PLANE('',#30);
#30 = AXIS2_PLACEMENT_3D('',#31,#32,#33);
#31 = CARTESIAN_POINT('',(44.707757672229,72.665455697669,
    -7.027617664191E-02));
#32 = DIRECTION('',(0.,-1.,1.110223024625E-16));
#33 = DIRECTION('',(1.,0.,0.));
#34 = ADVANCED_FACE('',(#35),#63,.T.);
#35 = FACE_BOUND('',#36,.T.);
#36 = EDGE_LOOP('',(#37,#45,#46,#47,#56));
#37 = ORIENTED_EDGE('',*,*,#38,.F.);
#38 = EDGE_CURVE('',#22,#39,#41,.T.);
#39 = VERTEX_POINT('',#40);
#40 = CARTESIAN_POINT('',(89.707757672229,69.665455697669,
    -7.027617664191E-02));
#41 = LINE('',#42,#43);
#42 = CARTESIAN_POINT('',(88.707757672229,72.665455697669,
    -7.027617664191E-02));
#43 = VECTOR('',#44,1.);
#44 = DIRECTION('',(0.316227766017,-0.948683298051,1.053250040573E-16));
#45 = ORIENTED_EDGE('',*,*,#21,.T.);
#46 = ORIENTED_EDGE('',*,*,#38,.T.);
#47 = ORIENTED_EDGE('',*,*,#48,.F.);
#48 = EDGE_CURVE('',#49,#39,#51,.T.);
#49 = VERTEX_POINT('',#50);
#50 = CARTESIAN_POINT('',(76.527562825624,69.665455697669,
    31.749528976753));
#51 = CIRCLE('',#52,45.);
#52 = AXIS2_PLACEMENT_3D('',#53,#54,#55);
#53 = CARTESIAN_POINT('',(44.707757672229,69.665455697669,
    -7.027617664191E-02));
#54 = DIRECTION('',(0.,-1.,1.110223024625E-16));
#55 = DIRECTION('',(1.,0.,0.));
#56 = ORIENTED_EDGE('',*,*,#57,.F.);
#57 = EDGE_CURVE('',#39,#49,#58,.T.);
#58 = CIRCLE('',#59,45.);
#59 = AXIS2_PLACEMENT_3D('',#60,#61,#62);
#60 = CARTESIAN_POINT('',(44.707757672229,69.665455697669,
    -7.027617664191E-02));
#61 = DIRECTION('',(0.,-1.,1.110223024625E-16));
#62 = DIRECTION('',(1.,0.,0.));
#63 = CONICAL_SURFACE('',#64,44.,0.321750554397);
#64 = AXIS2_PLACEMENT_3D('',#65,#66,#67);
#65 = CARTESIAN_POINT('',(44.707757672229,72.665455697669,
    -7.027617664191E-02));
#66 = DIRECTION('',(0.,-1.,1.110223024625E-16));
#67 = DIRECTION('',(1.,0.,0.));
#68 = ADVANCED_FACE('',(#69,#103),#107,.F.);
#69 = FACE_BOUND('',#70,.T.);
#70 = EDGE_LOOP('',(#71,#79,#87,#96));
#71 = ORIENTED_EDGE('',*,*,#72,.T.);
#72 = EDGE_CURVE('',#73,#49,#75,.T.);
#73 = VERTEX_POINT('',#74);
#74 = CARTESIAN_POINT('',(76.527562825624,69.665455697669,
    38.497845374712));
#75 = LINE('',#76,#77);
#76 = CARTESIAN_POINT('',(76.527562825624,69.665455697669,
    38.820596788618));
#77 = VECTOR('',#78,1.);
#78 = DIRECTION('',(0.,-1.110223024625E-16,-1.));
#79 = ORIENTED_EDGE('',*,*,#80,.T.);
#80 = EDGE_CURVE('',#49,#81,#83,.T.);
#81 = VERTEX_POINT('',#82);
#82 = CARTESIAN_POINT('',(83.275879223584,69.665455697669,
    31.749528976752));
#83 = LINE('',#84,#85);
#84 = CARTESIAN_POINT('',(76.527562825624,69.665455697669,
    31.749528976753));
#85 = VECTOR('',#86,1.);
#86 = DIRECTION('',(1.,0.,0.));
#87 = ORIENTED_EDGE('',*,*,#88,.F.);
#88 = EDGE_CURVE('',#89,#81,#91,.T.);
#89 = VERTEX_POINT('',#90);
#90 = CARTESIAN_POINT('',(94.707757672229,69.665455697669,
    -7.027617664191E-02));
#91 = CIRCLE('',#92,50.);
#92 = AXIS2_PLACEMENT_3D('',#93,#94,#95);
#93 = CARTESIAN_POINT('',(44.707757672229,69.665455697669,
    -7.027617664191E-02));
#94 = DIRECTION('',(0.,-1.,1.110223024625E-16));
#95 = DIRECTION('',(1.,0.,0.));
#96 = ORIENTED_EDGE('',*,*,#97,.F.);
#97 = EDGE_CURVE('',#73,#89,#98,.T.);
#98 = CIRCLE('',#99,50.);
#99 = AXIS2_PLACEMENT_3D('',#100,#101,#102);
#100 = CARTESIAN_POINT('',(44.707757672229,69.665455697669,
    -7.027617664191E-02));
#101 = DIRECTION('',(0.,-1.,1.110223024625E-16));
#102 = DIRECTION('',(1.,0.,0.));
#103 = FACE_BOUND('',#104,.T.);
#104 = EDGE_LOOP('',(#105,#106));
#105 = ORIENTED_EDGE('',*,*,#48,.T.);
#106 = ORIENTED_EDGE('',*,*,#57,.T.);
#107 = PLANE('',#108);
#108 = AXIS2_PLACEMENT_3D('',#109,#110,#111);
#109 = CARTESIAN_POINT('',(44.707757672229,69.665455697669,
    -7.027617664191E-02));
#110 = DIRECTION('',(0.,-1.,1.110223024625E-16));
#111 = DIRECTION('',(1.,0.,0.));
#112 = ADVANCED_FACE('',(#113),#188,.T.);
#113 = FACE_BOUND('',#114,.T.);
#114 = EDGE_LOOP('',(#115,#116,#124,#133,#141,#149,#157,#166,#174,#182)
  );
#115 = ORIENTED_EDGE('',*,*,#72,.F.);
#116 = ORIENTED_EDGE('',*,*,#117,.T.);
#117 = EDGE_CURVE('',#73,#118,#120,.T.);
#118 = VERTEX_POINT('',#119);
#119 = CARTESIAN_POINT('',(76.527562825624,55.065455697669,
    38.497845374712));
#120 = LINE('',#121,#122);
#121 = CARTESIAN_POINT('',(76.527562825624,69.665455697669,
    38.497845374712));
#122 = VECTOR('',#123,1.);
#123 = DIRECTION('',(0.,-1.,1.110223024625E-16));
#124 = ORIENTED_EDGE('',*,*,#125,.F.);
#125 = EDGE_CURVE('',#126,#118,#128,.T.);
#126 = VERTEX_POINT('',#127);
#127 = CARTESIAN_POINT('',(76.527562825624,53.565455697669,
    35.196563772523));
#128 = HYPERBOLA('',#129,19.091883092037,31.819805153395);
#129 = AXIS2_PLACEMENT_3D('',#130,#131,#132);
#130 = CARTESIAN_POINT('',(76.527562825624,25.065455697669,
    -7.02761766419E-02));
#131 = DIRECTION('',(1.,-0.,0.));
#132 = DIRECTION('',(0.,1.,-1.110223024625E-16));
#133 = ORIENTED_EDGE('',*,*,#134,.F.);
#134 = EDGE_CURVE('',#135,#126,#137,.T.);
#135 = VERTEX_POINT('',#136);
#136 = CARTESIAN_POINT('',(76.527562825624,53.565455697669,
    33.148694307104));
#137 = LINE('',#138,#139);
#138 = CARTESIAN_POINT('',(76.527562825624,53.565455697669,
    19.375160305988));
#139 = VECTOR('',#140,1.);
#140 = DIRECTION('',(0.,1.110223024625E-16,1.));
#141 = ORIENTED_EDGE('',*,*,#142,.T.);
#142 = EDGE_CURVE('',#135,#143,#145,.T.);
#143 = VERTEX_POINT('',#144);
#144 = CARTESIAN_POINT('',(76.527562825624,49.815455697669,
    33.148694307104));
#145 = LINE('',#146,#147);
#146 = CARTESIAN_POINT('',(76.527562825624,53.565455697669,
    33.148694307104));
#147 = VECTOR('',#148,1.);
#148 = DIRECTION('',(0.,-1.,1.110223024625E-16));
#149 = ORIENTED_EDGE('',*,*,#150,.F.);
#150 = EDGE_CURVE('',#151,#143,#153,.T.);
#151 = VERTEX_POINT('',#152);
#152 = CARTESIAN_POINT('',(76.527562825624,49.815455697669,
    35.196563772523));
#153 = LINE('',#154,#155);
#154 = CARTESIAN_POINT('',(76.527562825624,49.815455697669,
    19.375160305988));
#155 = VECTOR('',#156,1.);
#156 = DIRECTION('',(0.,-1.110223024625E-16,-1.));
#157 = ORIENTED_EDGE('',*,*,#158,.F.);
#158 = EDGE_CURVE('',#159,#151,#161,.T.);
#159 = VERTEX_POINT('',#160);
#160 = CARTESIAN_POINT('',(76.527562825624,48.315455697669,
    38.497845374712));
#161 = HYPERBOLA('',#162,19.091883092037,31.819805153395);
#162 = AXIS2_PLACEMENT_3D('',#163,#164,#165);
#163 = CARTESIAN_POINT('',(76.527562825624,78.315455697669,
    -7.027617664191E-02));
#164 = DIRECTION('',(1.,0.,0.));
#165 = DIRECTION('',(0.,-1.,1.110223024625E-16));
#166 = ORIENTED_EDGE('',*,*,#167,.T.);
#167 = EDGE_CURVE('',#159,#168,#170,.T.);
#168 = VERTEX_POINT('',#169);
#169 = CARTESIAN_POINT('',(76.527562825624,43.665455697669,
    38.497845374712));
#170 = LINE('',#171,#172);
#171 = CARTESIAN_POINT('',(76.527562825624,48.315455697669,
    38.497845374712));
#172 = VECTOR('',#173,1.);
#173 = DIRECTION('',(0.,-1.,1.110223024625E-16));
#174 = ORIENTED_EDGE('',*,*,#175,.F.);
#175 = EDGE_CURVE('',#176,#168,#178,.T.);
#176 = VERTEX_POINT('',#177);
#177 = CARTESIAN_POINT('',(76.527562825624,43.665455697669,
    31.749528976753));
#178 = LINE('',#179,#180);
#179 = CARTESIAN_POINT('',(76.527562825624,43.665455697669,
    19.375160305988));
#180 = VECTOR('',#181,1.);
#181 = DIRECTION('',(0.,1.110223024625E-16,1.));
#182 = ORIENTED_EDGE('',*,*,#183,.F.);
#183 = EDGE_CURVE('',#49,#176,#184,.T.);
#184 = LINE('',#185,#186);
#185 = CARTESIAN_POINT('',(76.527562825624,69.665455697669,
    31.749528976753));
#186 = VECTOR('',#187,1.);
#187 = DIRECTION('',(0.,-1.,1.110223024625E-16));
#188 = PLANE('',#189);
#189 = AXIS2_PLACEMENT_3D('',#190,#191,#192);
#190 = CARTESIAN_POINT('',(76.527562825624,69.665455697669,
    38.820596788618));
#191 = DIRECTION('',(1.,0.,0.));
#192 = DIRECTION('',(0.,-1.110223024625E-16,-1.));
#193 = ADVANCED_FACE('',(#194),#213,.T.);
#194 = FACE_BOUND('',#195,.T.);
#195 = EDGE_LOOP('',(#196,#197,#205,#212));
#196 = ORIENTED_EDGE('',*,*,#97,.T.);
#197 = ORIENTED_EDGE('',*,*,#198,.T.);
#198 = EDGE_CURVE('',#89,#199,#201,.T.);
#199 = VERTEX_POINT('',#200);
#200 = CARTESIAN_POINT('',(94.707757672229,55.065455697669,
    -7.02761766419E-02));
#201 = LINE('',#202,#203);
#202 = CARTESIAN_POINT('',(94.707757672229,69.665455697669,
    -7.027617664191E-02));
#203 = VECTOR('',#204,1.);
#204 = DIRECTION('',(0.,-1.,1.110223024625E-16));
#205 = ORIENTED_EDGE('',*,*,#206,.F.);
#206 = EDGE_CURVE('',#118,#199,#207,.T.);
#207 = CIRCLE('',#208,50.);
#208 = AXIS2_PLACEMENT_3D('',#209,#210,#211);
#209 = CARTESIAN_POINT('',(44.707757672229,55.065455697669,
    -7.02761766419E-02));
#210 = DIRECTION('',(0.,-1.,1.110223024625E-16));
#211 = DIRECTION('',(1.,0.,0.));
#212 = ORIENTED_EDGE('',*,*,#117,.F.);
#213 = CYLINDRICAL_SURFACE('',#214,50.);
#214 = AXIS2_PLACEMENT_3D('',#215,#216,#217);
#215 = CARTESIAN_POINT('',(44.707757672229,69.665455697669,
    -7.027617664191E-02));
#216 = DIRECTION('',(0.,-1.,1.110223024625E-16));
#217 = DIRECTION('',(1.,0.,0.));
#218 = ADVANCED_FACE('',(#219),#238,.T.);
#219 = FACE_BOUND('',#220,.T.);
#220 = EDGE_LOOP('',(#221,#222,#223,#231));
#221 = ORIENTED_EDGE('',*,*,#198,.F.);
#222 = ORIENTED_EDGE('',*,*,#88,.T.);
#223 = ORIENTED_EDGE('',*,*,#224,.T.);
#224 = EDGE_CURVE('',#81,#225,#227,.T.);
#225 = VERTEX_POINT('',#226);
#226 = CARTESIAN_POINT('',(83.275879223583,55.065455697669,
    31.749528976753));
#227 = LINE('',#228,#229);
#228 = CARTESIAN_POINT('',(83.275879223583,69.665455697669,
    31.749528976753));
#229 = VECTOR('',#230,1.);
#230 = DIRECTION('',(0.,-1.,1.110223024625E-16));
#231 = ORIENTED_EDGE('',*,*,#232,.F.);
#232 = EDGE_CURVE('',#199,#225,#233,.T.);
#233 = CIRCLE('',#234,50.);
#234 = AXIS2_PLACEMENT_3D('',#235,#236,#237);
#235 = CARTESIAN_POINT('',(44.707757672229,55.065455697669,
    -7.02761766419E-02));
#236 = DIRECTION('',(0.,-1.,1.110223024625E-16));
#237 = DIRECTION('',(1.,0.,0.));
#238 = CYLINDRICAL_SURFACE('',#239,50.);
#239 = AXIS2_PLACEMENT_3D('',#240,#241,#242);
#240 = CARTESIAN_POINT('',(44.707757672229,69.665455697669,
    -7.027617664191E-02));
#241 = DIRECTION('',(0.,-1.,1.110223024625E-16));
#242 = DIRECTION('',(1.,0.,0.));
#243 = ADVANCED_FACE('',(#244),#305,.T.);
#244 = FACE_BOUND('',#245,.T.);
#245 = EDGE_LOOP('',(#246,#247,#248,#256,#264,#273,#281,#289,#297,#304)
  );
#246 = ORIENTED_EDGE('',*,*,#80,.F.);
#247 = ORIENTED_EDGE('',*,*,#183,.T.);
#248 = ORIENTED_EDGE('',*,*,#249,.F.);
#249 = EDGE_CURVE('',#250,#176,#252,.T.);
#250 = VERTEX_POINT('',#251);
#251 = CARTESIAN_POINT('',(83.275879223583,43.665455697669,
    31.749528976753));
#252 = LINE('',#253,#254);
#253 = CARTESIAN_POINT('',(60.617660248927,43.665455697669,
    31.749528976753));
#254 = VECTOR('',#255,1.);
#255 = DIRECTION('',(-1.,0.,0.));
#256 = ORIENTED_EDGE('',*,*,#257,.F.);
#257 = EDGE_CURVE('',#258,#250,#260,.T.);
#258 = VERTEX_POINT('',#259);
#259 = CARTESIAN_POINT('',(83.275879223583,48.315455697669,
    31.749528976753));
#260 = LINE('',#261,#262);
#261 = CARTESIAN_POINT('',(83.275879223583,48.315455697669,
    31.749528976753));
#262 = VECTOR('',#263,1.);
#263 = DIRECTION('',(0.,-1.,1.110223024625E-16));
#264 = ORIENTED_EDGE('',*,*,#265,.F.);
#265 = EDGE_CURVE('',#266,#258,#268,.T.);
#266 = VERTEX_POINT('',#267);
#267 = CARTESIAN_POINT('',(79.974597621394,49.815455697669,
    31.749528976753));
#268 = HYPERBOLA('',#269,19.091883092037,31.819805153395);
#269 = AXIS2_PLACEMENT_3D('',#270,#271,#272);
#270 = CARTESIAN_POINT('',(44.707757672229,78.315455697669,
    31.749528976753));
#271 = DIRECTION('',(-0.,1.110223024625E-16,1.));
#272 = DIRECTION('',(0.,-1.,1.110223024625E-16));
#273 = ORIENTED_EDGE('',*,*,#274,.F.);
#274 = EDGE_CURVE('',#275,#266,#277,.T.);
#275 = VERTEX_POINT('',#276);
#276 = CARTESIAN_POINT('',(77.926728155976,49.815455697669,
    31.749528976753));
#277 = LINE('',#278,#279);
#278 = CARTESIAN_POINT('',(60.617660248927,49.815455697669,
    31.749528976753));
#279 = VECTOR('',#280,1.);
#280 = DIRECTION('',(1.,0.,0.));
#281 = ORIENTED_EDGE('',*,*,#282,.F.);
#282 = EDGE_CURVE('',#283,#275,#285,.T.);
#283 = VERTEX_POINT('',#284);
#284 = CARTESIAN_POINT('',(77.926728155976,53.565455697669,
    31.749528976753));
#285 = LINE('',#286,#287);
#286 = CARTESIAN_POINT('',(77.926728155976,53.565455697669,
    31.749528976753));
#287 = VECTOR('',#288,1.);
#288 = DIRECTION('',(0.,-1.,1.110223024625E-16));
#289 = ORIENTED_EDGE('',*,*,#290,.F.);
#290 = EDGE_CURVE('',#291,#283,#293,.T.);
#291 = VERTEX_POINT('',#292);
#292 = CARTESIAN_POINT('',(79.974597621394,53.565455697669,
    31.749528976753));
#293 = LINE('',#294,#295);
#294 = CARTESIAN_POINT('',(60.617660248927,53.565455697669,
    31.749528976753));
#295 = VECTOR('',#296,1.);
#296 = DIRECTION('',(-1.,0.,0.));
#297 = ORIENTED_EDGE('',*,*,#298,.F.);
#298 = EDGE_CURVE('',#225,#291,#299,.T.);
#299 = HYPERBOLA('',#300,19.091883092037,31.819805153395);
#300 = AXIS2_PLACEMENT_3D('',#301,#302,#303);
#301 = CARTESIAN_POINT('',(44.707757672229,25.065455697669,
    31.749528976753));
#302 = DIRECTION('',(0.,1.110223024625E-16,1.));
#303 = DIRECTION('',(0.,1.,-1.110223024625E-16));
#304 = ORIENTED_EDGE('',*,*,#224,.F.);
#305 = PLANE('',#306);
#306 = AXIS2_PLACEMENT_3D('',#307,#308,#309);
#307 = CARTESIAN_POINT('',(76.527562825624,69.665455697669,
    31.749528976753));
#308 = DIRECTION('',(0.,1.110223024625E-16,1.));
#309 = DIRECTION('',(1.,0.,0.));
#310 = ADVANCED_FACE('',(#311),#331,.T.);
#311 = FACE_BOUND('',#312,.T.);
#312 = EDGE_LOOP('',(#313,#322,#329,#330));
#313 = ORIENTED_EDGE('',*,*,#314,.T.);
#314 = EDGE_CURVE('',#168,#315,#317,.T.);
#315 = VERTEX_POINT('',#316);
#316 = CARTESIAN_POINT('',(94.707757672229,43.665455697669,
    -7.02761766419E-02));
#317 = CIRCLE('',#318,50.);
#318 = AXIS2_PLACEMENT_3D('',#319,#320,#321);
#319 = CARTESIAN_POINT('',(44.707757672229,43.665455697669,
    -7.02761766419E-02));
#320 = DIRECTION('',(0.,-1.,1.110223024625E-16));
#321 = DIRECTION('',(1.,0.,0.));
#322 = ORIENTED_EDGE('',*,*,#323,.T.);
#323 = EDGE_CURVE('',#315,#250,#324,.T.);
#324 = CIRCLE('',#325,50.);
#325 = AXIS2_PLACEMENT_3D('',#326,#327,#328);
#326 = CARTESIAN_POINT('',(44.707757672229,43.665455697669,
    -7.02761766419E-02));
#327 = DIRECTION('',(0.,-1.,1.110223024625E-16));
#328 = DIRECTION('',(1.,0.,0.));
#329 = ORIENTED_EDGE('',*,*,#249,.T.);
#330 = ORIENTED_EDGE('',*,*,#175,.T.);
#331 = PLANE('',#332);
#332 = AXIS2_PLACEMENT_3D('',#333,#334,#335);
#333 = CARTESIAN_POINT('',(44.707757672229,43.665455697669,
    -7.02761766419E-02));
#334 = DIRECTION('',(0.,-1.,1.110223024625E-16));
#335 = DIRECTION('',(1.,0.,0.));
#336 = ADVANCED_FACE('',(#337),#356,.T.);
#337 = FACE_BOUND('',#338,.T.);
#338 = EDGE_LOOP('',(#339,#348,#354,#355));
#339 = ORIENTED_EDGE('',*,*,#340,.T.);
#340 = EDGE_CURVE('',#159,#341,#343,.T.);
#341 = VERTEX_POINT('',#342);
#342 = CARTESIAN_POINT('',(94.707757672229,48.315455697669,
    -7.02761766419E-02));
#343 = CIRCLE('',#344,50.);
#344 = AXIS2_PLACEMENT_3D('',#345,#346,#347);
#345 = CARTESIAN_POINT('',(44.707757672229,48.315455697669,
    -7.02761766419E-02));
#346 = DIRECTION('',(0.,-1.,1.110223024625E-16));
#347 = DIRECTION('',(1.,0.,0.));
#348 = ORIENTED_EDGE('',*,*,#349,.T.);
#349 = EDGE_CURVE('',#341,#315,#350,.T.);
#350 = LINE('',#351,#352);
#351 = CARTESIAN_POINT('',(94.707757672229,48.315455697669,
    -7.02761766419E-02));
#352 = VECTOR('',#353,1.);
#353 = DIRECTION('',(0.,-1.,1.110223024625E-16));
#354 = ORIENTED_EDGE('',*,*,#314,.F.);
#355 = ORIENTED_EDGE('',*,*,#167,.F.);
#356 = CYLINDRICAL_SURFACE('',#357,50.);
#357 = AXIS2_PLACEMENT_3D('',#358,#359,#360);
#358 = CARTESIAN_POINT('',(44.707757672229,48.315455697669,
    -7.02761766419E-02));
#359 = DIRECTION('',(0.,-1.,1.110223024625E-16));
#360 = DIRECTION('',(1.,0.,0.));
#361 = ADVANCED_FACE('',(#362),#381,.T.);
#362 = FACE_BOUND('',#363,.T.);
#363 = EDGE_LOOP('',(#364,#373,#379,#380));
#364 = ORIENTED_EDGE('',*,*,#365,.T.);
#365 = EDGE_CURVE('',#151,#366,#368,.T.);
#366 = VERTEX_POINT('',#367);
#367 = CARTESIAN_POINT('',(92.207757672229,49.815455697669,
    -7.02761766419E-02));
#368 = CIRCLE('',#369,47.5);
#369 = AXIS2_PLACEMENT_3D('',#370,#371,#372);
#370 = CARTESIAN_POINT('',(44.707757672229,49.815455697669,
    -7.02761766419E-02));
#371 = DIRECTION('',(0.,-1.,1.110223024625E-16));
#372 = DIRECTION('',(1.,0.,0.));
#373 = ORIENTED_EDGE('',*,*,#374,.T.);
#374 = EDGE_CURVE('',#366,#341,#375,.T.);
#375 = LINE('',#376,#377);
#376 = CARTESIAN_POINT('',(92.207757672229,49.815455697669,
    -7.02761766419E-02));
#377 = VECTOR('',#378,1.);
#378 = DIRECTION('',(0.857492925713,-0.514495755428,5.712050337476E-17)
  );
#379 = ORIENTED_EDGE('',*,*,#340,.F.);
#380 = ORIENTED_EDGE('',*,*,#158,.T.);
#381 = CONICAL_SURFACE('',#382,47.5,1.030376826524);
#382 = AXIS2_PLACEMENT_3D('',#383,#384,#385);
#383 = CARTESIAN_POINT('',(44.707757672229,49.815455697669,
    -7.02761766419E-02));
#384 = DIRECTION('',(0.,-1.,1.110223024625E-16));
#385 = DIRECTION('',(1.,0.,0.));
#386 = ADVANCED_FACE('',(#387),#415,.F.);
#387 = FACE_BOUND('',#388,.T.);
#388 = EDGE_LOOP('',(#389,#398,#405,#406,#413,#414));
#389 = ORIENTED_EDGE('',*,*,#390,.T.);
#390 = EDGE_CURVE('',#143,#391,#393,.T.);
#391 = VERTEX_POINT('',#392);
#392 = CARTESIAN_POINT('',(90.707757672229,49.815455697669,
    -7.02761766419E-02));
#393 = CIRCLE('',#394,46.);
#394 = AXIS2_PLACEMENT_3D('',#395,#396,#397);
#395 = CARTESIAN_POINT('',(44.707757672229,49.815455697669,
    -7.02761766419E-02));
#396 = DIRECTION('',(0.,-1.,1.110223024625E-16));
#397 = DIRECTION('',(1.,0.,0.));
#398 = ORIENTED_EDGE('',*,*,#399,.T.);
#399 = EDGE_CURVE('',#391,#275,#400,.T.);
#400 = CIRCLE('',#401,46.);
#401 = AXIS2_PLACEMENT_3D('',#402,#403,#404);
#402 = CARTESIAN_POINT('',(44.707757672229,49.815455697669,
    -7.02761766419E-02));
#403 = DIRECTION('',(0.,-1.,1.110223024625E-16));
#404 = DIRECTION('',(1.,0.,0.));
#405 = ORIENTED_EDGE('',*,*,#274,.T.);
#406 = ORIENTED_EDGE('',*,*,#407,.F.);
#407 = EDGE_CURVE('',#366,#266,#408,.T.);
#408 = CIRCLE('',#409,47.5);
#409 = AXIS2_PLACEMENT_3D('',#410,#411,#412);
#410 = CARTESIAN_POINT('',(44.707757672229,49.815455697669,
    -7.02761766419E-02));
#411 = DIRECTION('',(0.,-1.,1.110223024625E-16));
#412 = DIRECTION('',(1.,0.,0.));
#413 = ORIENTED_EDGE('',*,*,#365,.F.);
#414 = ORIENTED_EDGE('',*,*,#150,.T.);
#415 = PLANE('',#416);
#416 = AXIS2_PLACEMENT_3D('',#417,#418,#419);
#417 = CARTESIAN_POINT('',(44.707757672229,49.815455697669,
    -7.02761766419E-02));
#418 = DIRECTION('',(0.,-1.,1.110223024625E-16));
#419 = DIRECTION('',(1.,0.,0.));
#420 = ADVANCED_FACE('',(#421),#440,.T.);
#421 = FACE_BOUND('',#422,.T.);
#422 = EDGE_LOOP('',(#423,#432,#438,#439));
#423 = ORIENTED_EDGE('',*,*,#424,.T.);
#424 = EDGE_CURVE('',#135,#425,#427,.T.);
#425 = VERTEX_POINT('',#426);
#426 = CARTESIAN_POINT('',(90.707757672229,53.565455697669,
    -7.02761766419E-02));
#427 = CIRCLE('',#428,46.);
#428 = AXIS2_PLACEMENT_3D('',#429,#430,#431);
#429 = CARTESIAN_POINT('',(44.707757672229,53.565455697669,
    -7.02761766419E-02));
#430 = DIRECTION('',(0.,-1.,1.110223024625E-16));
#431 = DIRECTION('',(1.,0.,0.));
#432 = ORIENTED_EDGE('',*,*,#433,.T.);
#433 = EDGE_CURVE('',#425,#391,#434,.T.);
#434 = LINE('',#435,#436);
#435 = CARTESIAN_POINT('',(90.707757672229,53.565455697669,
    -7.02761766419E-02));
#436 = VECTOR('',#437,1.);
#437 = DIRECTION('',(0.,-1.,1.110223024625E-16));
#438 = ORIENTED_EDGE('',*,*,#390,.F.);
#439 = ORIENTED_EDGE('',*,*,#142,.F.);
#440 = CYLINDRICAL_SURFACE('',#441,46.);
#441 = AXIS2_PLACEMENT_3D('',#442,#443,#444);
#442 = CARTESIAN_POINT('',(44.707757672229,53.565455697669,
    -7.02761766419E-02));
#443 = DIRECTION('',(0.,-1.,1.110223024625E-16));
#444 = DIRECTION('',(1.,0.,0.));
#445 = ADVANCED_FACE('',(#446),#474,.T.);
#446 = FACE_BOUND('',#447,.T.);
#447 = EDGE_LOOP('',(#448,#457,#464,#465,#472,#473));
#448 = ORIENTED_EDGE('',*,*,#449,.T.);
#449 = EDGE_CURVE('',#126,#450,#452,.T.);
#450 = VERTEX_POINT('',#451);
#451 = CARTESIAN_POINT('',(92.207757672229,53.565455697669,
    -7.02761766419E-02));
#452 = CIRCLE('',#453,47.5);
#453 = AXIS2_PLACEMENT_3D('',#454,#455,#456);
#454 = CARTESIAN_POINT('',(44.707757672229,53.565455697669,
    -7.02761766419E-02));
#455 = DIRECTION('',(0.,-1.,1.110223024625E-16));
#456 = DIRECTION('',(1.,0.,0.));
#457 = ORIENTED_EDGE('',*,*,#458,.T.);
#458 = EDGE_CURVE('',#450,#291,#459,.T.);
#459 = CIRCLE('',#460,47.5);
#460 = AXIS2_PLACEMENT_3D('',#461,#462,#463);
#461 = CARTESIAN_POINT('',(44.707757672229,53.565455697669,
    -7.02761766419E-02));
#462 = DIRECTION('',(0.,-1.,1.110223024625E-16));
#463 = DIRECTION('',(1.,0.,0.));
#464 = ORIENTED_EDGE('',*,*,#290,.T.);
#465 = ORIENTED_EDGE('',*,*,#466,.F.);
#466 = EDGE_CURVE('',#425,#283,#467,.T.);
#467 = CIRCLE('',#468,46.);
#468 = AXIS2_PLACEMENT_3D('',#469,#470,#471);
#469 = CARTESIAN_POINT('',(44.707757672229,53.565455697669,
    -7.02761766419E-02));
#470 = DIRECTION('',(0.,-1.,1.110223024625E-16));
#471 = DIRECTION('',(1.,0.,0.));
#472 = ORIENTED_EDGE('',*,*,#424,.F.);
#473 = ORIENTED_EDGE('',*,*,#134,.T.);
#474 = PLANE('',#475);
#475 = AXIS2_PLACEMENT_3D('',#476,#477,#478);
#476 = CARTESIAN_POINT('',(44.707757672229,53.565455697669,
    -7.02761766419E-02));
#477 = DIRECTION('',(0.,-1.,1.110223024625E-16));
#478 = DIRECTION('',(1.,0.,0.));
#479 = ADVANCED_FACE('',(#480),#491,.T.);
#480 = FACE_BOUND('',#481,.T.);
#481 = EDGE_LOOP('',(#482,#483,#489,#490));
#482 = ORIENTED_EDGE('',*,*,#206,.T.);
#483 = ORIENTED_EDGE('',*,*,#484,.T.);
#484 = EDGE_CURVE('',#199,#450,#485,.T.);
#485 = LINE('',#486,#487);
#486 = CARTESIAN_POINT('',(94.707757672229,55.065455697669,
    -7.02761766419E-02));
#487 = VECTOR('',#488,1.);
#488 = DIRECTION('',(-0.857492925713,-0.514495755428,5.712050337476E-17)
  );
#489 = ORIENTED_EDGE('',*,*,#449,.F.);
#490 = ORIENTED_EDGE('',*,*,#125,.T.);
#491 = CONICAL_SURFACE('',#492,50.,1.030376826524);
#492 = AXIS2_PLACEMENT_3D('',#493,#494,#495);
#493 = CARTESIAN_POINT('',(44.707757672229,55.065455697669,
    -7.02761766419E-02));
#494 = DIRECTION('',(-0.,1.,-1.110223024625E-16));
#495 = DIRECTION('',(1.,0.,0.));
#496 = ADVANCED_FACE('',(#497),#503,.T.);
#497 = FACE_BOUND('',#498,.T.);
#498 = EDGE_LOOP('',(#499,#500,#501,#502));
#499 = ORIENTED_EDGE('',*,*,#484,.F.);
#500 = ORIENTED_EDGE('',*,*,#232,.T.);
#501 = ORIENTED_EDGE('',*,*,#298,.T.);
#502 = ORIENTED_EDGE('',*,*,#458,.F.);
#503 = CONICAL_SURFACE('',#504,50.,1.030376826524);
#504 = AXIS2_PLACEMENT_3D('',#505,#506,#507);
#505 = CARTESIAN_POINT('',(44.707757672229,55.065455697669,
    -7.02761766419E-02));
#506 = DIRECTION('',(-0.,1.,-1.110223024625E-16));
#507 = DIRECTION('',(1.,0.,0.));
#508 = ADVANCED_FACE('',(#509),#515,.T.);
#509 = FACE_BOUND('',#510,.T.);
#510 = EDGE_LOOP('',(#511,#512,#513,#514));
#511 = ORIENTED_EDGE('',*,*,#433,.F.);
#512 = ORIENTED_EDGE('',*,*,#466,.T.);
#513 = ORIENTED_EDGE('',*,*,#282,.T.);
#514 = ORIENTED_EDGE('',*,*,#399,.F.);
#515 = CYLINDRICAL_SURFACE('',#516,46.);
#516 = AXIS2_PLACEMENT_3D('',#517,#518,#519);
#517 = CARTESIAN_POINT('',(44.707757672229,53.565455697669,
    -7.02761766419E-02));
#518 = DIRECTION('',(0.,-1.,1.110223024625E-16));
#519 = DIRECTION('',(1.,0.,0.));
#520 = ADVANCED_FACE('',(#521),#533,.T.);
#521 = FACE_BOUND('',#522,.T.);
#522 = EDGE_LOOP('',(#523,#524,#525,#526));
#523 = ORIENTED_EDGE('',*,*,#374,.F.);
#524 = ORIENTED_EDGE('',*,*,#407,.T.);
#525 = ORIENTED_EDGE('',*,*,#265,.T.);
#526 = ORIENTED_EDGE('',*,*,#527,.F.);
#527 = EDGE_CURVE('',#341,#258,#528,.T.);
#528 = CIRCLE('',#529,50.);
#529 = AXIS2_PLACEMENT_3D('',#530,#531,#532);
#530 = CARTESIAN_POINT('',(44.707757672229,48.315455697669,
    -7.02761766419E-02));
#531 = DIRECTION('',(0.,-1.,1.110223024625E-16));
#532 = DIRECTION('',(1.,0.,0.));
#533 = CONICAL_SURFACE('',#534,47.5,1.030376826524);
#534 = AXIS2_PLACEMENT_3D('',#535,#536,#537);
#535 = CARTESIAN_POINT('',(44.707757672229,49.815455697669,
    -7.02761766419E-02));
#536 = DIRECTION('',(0.,-1.,1.110223024625E-16));
#537 = DIRECTION('',(1.,0.,0.));
#538 = ADVANCED_FACE('',(#539),#545,.T.);
#539 = FACE_BOUND('',#540,.T.);
#540 = EDGE_LOOP('',(#541,#542,#543,#544));
#541 = ORIENTED_EDGE('',*,*,#349,.F.);
#542 = ORIENTED_EDGE('',*,*,#527,.T.);
#543 = ORIENTED_EDGE('',*,*,#257,.T.);
#544 = ORIENTED_EDGE('',*,*,#323,.F.);
#545 = CYLINDRICAL_SURFACE('',#546,50.);
#546 = AXIS2_PLACEMENT_3D('',#547,#548,#549);
#547 = CARTESIAN_POINT('',(44.707757672229,48.315455697669,
    -7.02761766419E-02));
#548 = DIRECTION('',(0.,-1.,1.110223024625E-16));
#549 = DIRECTION('',(1.,0.,0.));
#550 = ( GEOMETRIC_REPRESENTATION_CONTEXT(3) 
GLOBAL_UNCERTAINTY_ASSIGNED_CONTEXT((#554)) GLOBAL_UNIT_ASSIGNED_CONTEXT
((#551,#552,#553)) REPRESENTATION_CONTEXT('Context #1',
  '3D Context with UNIT and UNCERTAINTY') );
#551 = ( LENGTH_UNIT() NAMED_UNIT(*) SI_UNIT(.MILLI.,.METRE.) );
#552 = ( NAMED_UNIT(*) PLANE_ANGLE_UNIT() SI_UNIT($,.RADIAN.) );
#553 = ( NAMED_UNIT(*) SI_UNIT($,.STERADIAN.) SOLID_ANGLE_UNIT() );
#554 = UNCERTAINTY_MEASURE_WITH_UNIT(LENGTH_MEASURE(1.E-07),#551,
  'distance_accuracy_value','confusion accuracy');
#555 = PRODUCT_RELATED_PRODUCT_CATEGORY('part',$,(#7));
#556 = MECHANICAL_DESIGN_GEOMETRIC_PRESENTATION_REPRESENTATION('',(#557)
  ,#550);
#557 = STYLED_ITEM('color',(#558),#15);
#558 = PRESENTATION_STYLE_ASSIGNMENT((#559));
#559 = SURFACE_STYLE_USAGE(.BOTH.,#560);
#560 = SURFACE_SIDE_STYLE('',(#561));
#561 = SURFACE_STYLE_FILL_AREA(#562);
#562 = FILL_AREA_STYLE('',(#563));
#563 = FILL_AREA_STYLE_COLOUR('',#564);
#564 = COLOUR_RGB('',0.784313738346,0.784313738346,0.784313738346);
ENDSEC;
END-ISO-10303-21;
