ISO-10303-21;
HEADER;
FILE_DESCRIPTION(('Open CASCADE Model'),'2;1');
FILE_NAME('Open CASCADE Shape Model','2026-09-18T15:53:13',('Author'),(
    'Open CASCADE'),'Open CASCADE STEP processor 7.3','Open CASCADE 7.3'
  ,'Unknown');
FILE_SCHEMA(('AUTOMOTIVE_DESIGN { 1 0 10303 214 1 1 1 1 }'));
ENDSEC;
DATA;
#1 = APPLICATION_PROTOCOL_DEFINITION('international standard',
  'automotive_design',2000,#2);
#2 = APPLICATION_CONTEXT(
  'core data for automotive mechanical design processes');
#3 = SHAPE_DEFINITION_REPRESENTATION(#4,#10);
#4 = PRODUCT_DEFINITION_SHAPE('','',#5);
#5 = PRODUCT_DEFINITION('design','',#6,#9);
#6 = PRODUCT_DEFINITION_FORMATION('','',#7);
#7 = PRODUCT('Pottmanager 105','Pottmanager 105','',(#8));
#8 = PRODUCT_CONTEXT('',#2,'mechanical');
#9 = PRODUCT_DEFINITION_CONTEXT('part definition',#2,'design');
#10 = GEOMETRICALLY_BOUNDED_WIREFRAME_SHAPE_REPRESENTATION('',(#11,#15),
  #121);
#11 = AXIS2_PLACEMENT_3D('',#12,#13,#14);
#12 = CARTESIAN_POINT('',(0.,0.,0.));
#13 = DIRECTION('',(0.,0.,1.));
#14 = DIRECTION('',(1.,0.,-0.));
#15 = GEOMETRIC_CURVE_SET('',(#16,#23,#30,#37,#44,#51,#58,#65,#72,#79,
    #86,#93,#100,#107,#114));
#16 = TRIMMED_CURVE('',#17,(#21,PARAMETER_VALUE(0.)),(#22,
    PARAMETER_VALUE(20.)),.T.,.PARAMETER.);
#17 = LINE('',#18,#19);
#18 = CARTESIAN_POINT('',(0.,40.,-4.440892098501E-15));
#19 = VECTOR('',#20,1.);
#20 = DIRECTION('',(1.,0.,0.));
#21 = CARTESIAN_POINT('',(0.,40.,-4.440892098501E-15));
#22 = CARTESIAN_POINT('',(20.,40.,-4.440892098501E-15));
#23 = TRIMMED_CURVE('',#24,(#28,PARAMETER_VALUE(0.)),(#29,
    PARAMETER_VALUE(14.317821063276)),.T.,.PARAMETER.);
#24 = LINE('',#25,#26);
#25 = CARTESIAN_POINT('',(20.,40.,-4.440892098501E-15));
#26 = VECTOR('',#27,1.);
#27 = DIRECTION('',(0.419058177462,0.9079593845,-1.008037414097E-16));
#28 = CARTESIAN_POINT('',(20.,40.,-4.440892098501E-15));
#29 = CARTESIAN_POINT('',(26.,53.,-5.884182030513E-15));
#30 = TRIMMED_CURVE('',#31,(#35,PARAMETER_VALUE(0.)),(#36,
    PARAMETER_VALUE(24.)),.T.,.PARAMETER.);
#31 = LINE('',#32,#33);
#32 = CARTESIAN_POINT('',(26.,53.,-5.884182030513E-15));
#33 = VECTOR('',#34,1.);
#34 = DIRECTION('',(0.,1.,-1.110223024625E-16));
#35 = CARTESIAN_POINT('',(26.,53.,-5.884182030513E-15));
#36 = CARTESIAN_POINT('',(26.,77.,-8.548717289614E-15));
#37 = TRIMMED_CURVE('',#38,(#42,PARAMETER_VALUE(0.)),(#43,
    PARAMETER_VALUE(24.)),.T.,.PARAMETER.);
#38 = LINE('',#39,#40);
#39 = CARTESIAN_POINT('',(26.,77.,-8.548717289614E-15));
#40 = VECTOR('',#41,1.);
#41 = DIRECTION('',(1.,0.,0.));
#42 = CARTESIAN_POINT('',(26.,77.,-8.548717289614E-15));
#43 = CARTESIAN_POINT('',(50.,77.,-8.548717289614E-15));
#44 = TRIMMED_CURVE('',#45,(#49,PARAMETER_VALUE(0.)),(#50,
    PARAMETER_VALUE(4.65)),.T.,.PARAMETER.);
#45 = LINE('',#46,#47);
#46 = CARTESIAN_POINT('',(50.,77.,-8.548717289614E-15));
#47 = VECTOR('',#48,1.);
#48 = DIRECTION('',(0.,1.,-1.110223024625E-16));
#49 = CARTESIAN_POINT('',(50.,77.,-8.548717289614E-15));
#50 = CARTESIAN_POINT('',(50.,81.65,-9.064970996064E-15));
#51 = TRIMMED_CURVE('',#52,(#56,PARAMETER_VALUE(0.)),(#57,
    PARAMETER_VALUE(2.915475947423)),.T.,.PARAMETER.);
#52 = LINE('',#53,#54);
#53 = CARTESIAN_POINT('',(50.,81.65,-9.064970996064E-15));
#54 = VECTOR('',#55,1.);
#55 = DIRECTION('',(-0.857492925713,0.514495755428,-5.712050337476E-17)
  );
#56 = CARTESIAN_POINT('',(50.,81.65,-9.064970996064E-15));
#57 = CARTESIAN_POINT('',(47.5,83.15,-9.231504449758E-15));
#58 = TRIMMED_CURVE('',#59,(#63,PARAMETER_VALUE(0.)),(#64,
    PARAMETER_VALUE(1.5)),.T.,.PARAMETER.);
#59 = LINE('',#60,#61);
#60 = CARTESIAN_POINT('',(47.5,83.15,-9.231504449758E-15));
#61 = VECTOR('',#62,1.);
#62 = DIRECTION('',(-1.,0.,0.));
#63 = CARTESIAN_POINT('',(47.5,83.15,-9.231504449758E-15));
#64 = CARTESIAN_POINT('',(46.,83.15,-9.231504449758E-15));
#65 = TRIMMED_CURVE('',#66,(#70,PARAMETER_VALUE(0.)),(#71,
    PARAMETER_VALUE(3.75)),.T.,.PARAMETER.);
#66 = LINE('',#67,#68);
#67 = CARTESIAN_POINT('',(46.,83.15,-9.231504449758E-15));
#68 = VECTOR('',#69,1.);
#69 = DIRECTION('',(0.,1.,-1.110223024625E-16));
#70 = CARTESIAN_POINT('',(46.,83.15,-9.231504449758E-15));
#71 = CARTESIAN_POINT('',(46.,86.9,-9.647838083993E-15));
#72 = TRIMMED_CURVE('',#73,(#77,PARAMETER_VALUE(0.)),(#78,
    PARAMETER_VALUE(1.5)),.T.,.PARAMETER.);
#73 = LINE('',#74,#75);
#74 = CARTESIAN_POINT('',(46.,86.9,-9.647838083993E-15));
#75 = VECTOR('',#76,1.);
#76 = DIRECTION('',(1.,0.,0.));
#77 = CARTESIAN_POINT('',(46.,86.9,-9.647838083993E-15));
#78 = CARTESIAN_POINT('',(47.5,86.9,-9.647838083993E-15));
#79 = TRIMMED_CURVE('',#80,(#84,PARAMETER_VALUE(0.)),(#85,
    PARAMETER_VALUE(2.915475947423)),.T.,.PARAMETER.);
#80 = LINE('',#81,#82);
#81 = CARTESIAN_POINT('',(47.5,86.9,-9.647838083993E-15));
#82 = VECTOR('',#83,1.);
#83 = DIRECTION('',(0.857492925713,0.514495755428,-5.712050337476E-17));
#84 = CARTESIAN_POINT('',(47.5,86.9,-9.647838083993E-15));
#85 = CARTESIAN_POINT('',(50.,88.4,-9.814371537686E-15));
#86 = TRIMMED_CURVE('',#87,(#91,PARAMETER_VALUE(0.)),(#92,
    PARAMETER_VALUE(14.6)),.T.,.PARAMETER.);
#87 = LINE('',#88,#89);
#88 = CARTESIAN_POINT('',(50.,88.4,-9.814371537686E-15));
#89 = VECTOR('',#90,1.);
#90 = DIRECTION('',(0.,1.,-1.110223024625E-16));
#91 = CARTESIAN_POINT('',(50.,88.4,-9.814371537686E-15));
#92 = CARTESIAN_POINT('',(50.,103.,-1.143529715364E-14));
#93 = TRIMMED_CURVE('',#94,(#98,PARAMETER_VALUE(0.)),(#99,
    PARAMETER_VALUE(5.)),.T.,.PARAMETER.);
#94 = LINE('',#95,#96);
#95 = CARTESIAN_POINT('',(50.,103.,-1.143529715364E-14));
#96 = VECTOR('',#97,1.);
#97 = DIRECTION('',(-1.,0.,0.));
#98 = CARTESIAN_POINT('',(50.,103.,-1.143529715364E-14));
#99 = CARTESIAN_POINT('',(45.,103.,-1.143529715364E-14));
#100 = TRIMMED_CURVE('',#101,(#105,PARAMETER_VALUE(0.)),(#106,
    PARAMETER_VALUE(3.162277660168)),.T.,.PARAMETER.);
#101 = LINE('',#102,#103);
#102 = CARTESIAN_POINT('',(45.,103.,-1.143529715364E-14));
#103 = VECTOR('',#104,1.);
#104 = DIRECTION('',(-0.316227766017,0.948683298051,-1.053250040573E-16)
  );
#105 = CARTESIAN_POINT('',(45.,103.,-1.143529715364E-14));
#106 = CARTESIAN_POINT('',(44.,106.,-1.176836406103E-14));
#107 = TRIMMED_CURVE('',#108,(#112,PARAMETER_VALUE(0.)),(#113,
    PARAMETER_VALUE(44.)),.T.,.PARAMETER.);
#108 = LINE('',#109,#110);
#109 = CARTESIAN_POINT('',(44.,106.,-1.176836406103E-14));
#110 = VECTOR('',#111,1.);
#111 = DIRECTION('',(-1.,0.,0.));
#112 = CARTESIAN_POINT('',(44.,106.,-1.176836406103E-14));
#113 = CARTESIAN_POINT('',(0.,106.,-1.176836406103E-14));
#114 = TRIMMED_CURVE('',#115,(#119,PARAMETER_VALUE(0.)),(#120,
    PARAMETER_VALUE(66.)),.T.,.PARAMETER.);
#115 = LINE('',#116,#117);
#116 = CARTESIAN_POINT('',(0.,106.,-1.176836406103E-14));
#117 = VECTOR('',#118,1.);
#118 = DIRECTION('',(0.,-1.,1.110223024625E-16));
#119 = CARTESIAN_POINT('',(0.,106.,-1.176836406103E-14));
#120 = CARTESIAN_POINT('',(0.,40.,-4.440892098501E-15));
#121 = ( GEOMETRIC_REPRESENTATION_CONTEXT(3) 
GLOBAL_UNCERTAINTY_ASSIGNED_CONTEXT((#125)) GLOBAL_UNIT_ASSIGNED_CONTEXT
((#122,#123,#124)) REPRESENTATION_CONTEXT('Context #1',
  '3D Context with UNIT and UNCERTAINTY') );
#122 = ( LENGTH_UNIT() NAMED_UNIT(*) SI_UNIT(.MILLI.,.METRE.) );
#123 = ( NAMED_UNIT(*) PLANE_ANGLE_UNIT() SI_UNIT($,.RADIAN.) );
#124 = ( NAMED_UNIT(*) SI_UNIT($,.STERADIAN.) SOLID_ANGLE_UNIT() );
#125 = UNCERTAINTY_MEASURE_WITH_UNIT(LENGTH_MEASURE(10.),#122,
  'distance_accuracy_value','confusion accuracy');
#126 = PRODUCT_RELATED_PRODUCT_CATEGORY('part',$,(#7));
#127 = MECHANICAL_DESIGN_GEOMETRIC_PRESENTATION_REPRESENTATION('',(#128)
  ,#121);
#128 = STYLED_ITEM('color',(#129),#15);
#129 = PRESENTATION_STYLE_ASSIGNMENT((#130));
#130 = SURFACE_STYLE_USAGE(.BOTH.,#131);
#131 = SURFACE_SIDE_STYLE('',(#132));
#132 = SURFACE_STYLE_FILL_AREA(#133);
#133 = FILL_AREA_STYLE('',(#134));
#134 = FILL_AREA_STYLE_COLOUR('',#135);
#135 = COLOUR_RGB('',0.588235318661,0.588235318661,0.588235318661);
ENDSEC;
END-ISO-10303-21;
