ISO-10303-21;
HEADER;
FILE_DESCRIPTION(('Open CASCADE Model'),'2;1');
FILE_NAME('Open CASCADE Shape Model','2026-09-18T15:44:43',('Author'),(
    'Open CASCADE'),'Open CASCADE STEP processor 7.3','Open CASCADE 7.3'
  ,'Unknown');
FILE_SCHEMA(('AUTOMOTIVE_DESIGN { 1 0 10303 214 1 1 1 1 }'));
ENDSEC;
DATA;
#1 = APPLICATION_PROTOCOL_DEFINITION('international standard',
  'automotive_design',2000,#2);
#2 = APPLICATION_CONTEXT(
  'core data for automotive mechanical design processes');
#3 = SHAPE_DEFINITION_REPRESENTATION(#4,#10);
#4 = PRODUCT_DEFINITION_SHAPE('','',#5);
#5 = PRODUCT_DEFINITION('design','',#6,#9);
#6 = PRODUCT_DEFINITION_FORMATION('','',#7);
#7 = PRODUCT('Pottmanager 46','Pottmanager 46','',(#8));
#8 = PRODUCT_CONTEXT('',#2,'mechanical');
#9 = PRODUCT_DEFINITION_CONTEXT('part definition',#2,'design');
#10 = ADVANCED_BREP_SHAPE_REPRESENTATION('',(#11,#15),#297);
#11 = AXIS2_PLACEMENT_3D('',#12,#13,#14);
#12 = CARTESIAN_POINT('',(0.,0.,0.));
#13 = DIRECTION('',(0.,0.,1.));
#14 = DIRECTION('',(1.,0.,-0.));
#15 = MANIFOLD_SOLID_BREP('',#16);
#16 = CLOSED_SHELL('',(#17,#57,#87,#119,#149,#181,#211,#243,#265,#281));
#17 = ADVANCED_FACE('',(#18),#52,.T.);
#18 = FACE_BOUND('',#19,.T.);
#19 = EDGE_LOOP('',(#20,#31,#38,#47));
#20 = ORIENTED_EDGE('',*,*,#21,.T.);
#21 = EDGE_CURVE('',#22,#24,#26,.T.);
#22 = VERTEX_POINT('',#23);
#23 = CARTESIAN_POINT('',(-0.187458816869,4.587088065742E-02,
    1.786439321848E-17));
#24 = VERTEX_POINT('',#25);
#25 = CARTESIAN_POINT('',(0.164989011373,-0.100117789829,
    -9.090018922943E-18));
#26 = CIRCLE('',#27,0.2);
#27 = AXIS2_PLACEMENT_3D('',#28,#29,#30);
#28 = CARTESIAN_POINT('',(1.178012274934E-02,2.843973210789E-02,
    -4.600093501892E-18));
#29 = DIRECTION('',(1.224646799147E-16,1.110223024625E-16,1.));
#30 = DIRECTION('',(-0.996194698092,8.715574274766E-02,
    1.123224336019E-16));
#31 = ORIENTED_EDGE('',*,*,#32,.T.);
#32 = EDGE_CURVE('',#24,#33,#35,.T.);
#33 = VERTEX_POINT('',#34);
#34 = CARTESIAN_POINT('',(0.164989011373,-0.100117789829,4.76));
#35 = B_SPLINE_CURVE_WITH_KNOTS('',1,(#36,#37),.UNSPECIFIED.,.F.,.F.,(2,
    2),(0.,1.),.PIECEWISE_BEZIER_KNOTS.);
#36 = CARTESIAN_POINT('',(0.164989011373,-0.100117789829,
    -9.090018922943E-18));
#37 = CARTESIAN_POINT('',(0.164989011373,-0.100117789829,4.76));
#38 = ORIENTED_EDGE('',*,*,#39,.F.);
#39 = EDGE_CURVE('',#40,#33,#42,.T.);
#40 = VERTEX_POINT('',#41);
#41 = CARTESIAN_POINT('',(-0.187458816869,4.587088065742E-02,4.76));
#42 = CIRCLE('',#43,0.2);
#43 = AXIS2_PLACEMENT_3D('',#44,#45,#46);
#44 = CARTESIAN_POINT('',(1.178012274934E-02,2.843973210789E-02,4.76));
#45 = DIRECTION('',(1.224646799147E-16,1.110223024625E-16,1.));
#46 = DIRECTION('',(-0.996194698092,8.715574274766E-02,
    1.123224336019E-16));
#47 = ORIENTED_EDGE('',*,*,#48,.F.);
#48 = EDGE_CURVE('',#22,#40,#49,.T.);
#49 = B_SPLINE_CURVE_WITH_KNOTS('',1,(#50,#51),.UNSPECIFIED.,.F.,.F.,(2,
    2),(0.,1.),.PIECEWISE_BEZIER_KNOTS.);
#50 = CARTESIAN_POINT('',(-0.187458816869,4.587088065742E-02,
    1.786439321848E-17));
#51 = CARTESIAN_POINT('',(-0.187458816869,4.587088065742E-02,4.76));
#52 = CYLINDRICAL_SURFACE('',#53,0.2);
#53 = AXIS2_PLACEMENT_3D('',#54,#55,#56);
#54 = CARTESIAN_POINT('',(1.178012274934E-02,2.843973210789E-02,
    -4.600093501892E-18));
#55 = DIRECTION('',(1.224646799147E-16,1.110223024625E-16,1.));
#56 = DIRECTION('',(-0.996194698092,8.715574274766E-02,
    1.123224336019E-16));
#57 = ADVANCED_FACE('',(#58),#82,.T.);
#58 = FACE_BOUND('',#59,.T.);
#59 = EDGE_LOOP('',(#60,#68,#75,#81));
#60 = ORIENTED_EDGE('',*,*,#61,.F.);
#61 = EDGE_CURVE('',#62,#24,#64,.T.);
#62 = VERTEX_POINT('',#63);
#63 = CARTESIAN_POINT('',(10.39106579826,12.086845959087,
    -2.614448014844E-15));
#64 = LINE('',#65,#66);
#65 = CARTESIAN_POINT('',(10.39106579826,12.086845959087,
    -2.614448014844E-15));
#66 = VECTOR('',#67,1.);
#67 = DIRECTION('',(-0.642787609687,-0.766044443119,1.637667967371E-16)
  );
#68 = ORIENTED_EDGE('',*,*,#69,.T.);
#69 = EDGE_CURVE('',#62,#70,#72,.T.);
#70 = VERTEX_POINT('',#71);
#71 = CARTESIAN_POINT('',(10.39106579826,12.086845959087,4.76));
#72 = B_SPLINE_CURVE_WITH_KNOTS('',1,(#73,#74),.UNSPECIFIED.,.F.,.F.,(2,
    2),(0.,1.),.PIECEWISE_BEZIER_KNOTS.);
#73 = CARTESIAN_POINT('',(10.39106579826,12.086845959087,
    -2.614448014844E-15));
#74 = CARTESIAN_POINT('',(10.39106579826,12.086845959087,4.76));
#75 = ORIENTED_EDGE('',*,*,#76,.T.);
#76 = EDGE_CURVE('',#70,#33,#77,.T.);
#77 = LINE('',#78,#79);
#78 = CARTESIAN_POINT('',(10.39106579826,12.086845959087,4.76));
#79 = VECTOR('',#80,1.);
#80 = DIRECTION('',(-0.642787609687,-0.766044443119,1.637667967371E-16)
  );
#81 = ORIENTED_EDGE('',*,*,#32,.F.);
#82 = PLANE('',#83);
#83 = AXIS2_PLACEMENT_3D('',#84,#85,#86);
#84 = CARTESIAN_POINT('',(10.39106579826,12.086845959087,4.76));
#85 = DIRECTION('',(0.766044443119,-0.642787609687,-2.244962710525E-17)
  );
#86 = DIRECTION('',(0.642787609687,0.766044443119,-1.637667967371E-16));
#87 = ADVANCED_FACE('',(#88),#114,.T.);
#88 = FACE_BOUND('',#89,.T.);
#89 = EDGE_LOOP('',(#90,#99,#106,#113));
#90 = ORIENTED_EDGE('',*,*,#91,.T.);
#91 = EDGE_CURVE('',#62,#92,#94,.T.);
#92 = VERTEX_POINT('',#93);
#93 = CARTESIAN_POINT('',(10.437095849254,12.197972332475,
    -2.632422576144E-15));
#94 = CIRCLE('',#95,0.2);
#95 = AXIS2_PLACEMENT_3D('',#96,#97,#98);
#96 = CARTESIAN_POINT('',(10.237856909636,12.215403481024,
    -2.609958089423E-15));
#97 = DIRECTION('',(1.224646799147E-16,1.110223024625E-16,1.));
#98 = DIRECTION('',(-0.996194698092,8.715574274766E-02,
    1.123224336019E-16));
#99 = ORIENTED_EDGE('',*,*,#100,.T.);
#100 = EDGE_CURVE('',#92,#101,#103,.T.);
#101 = VERTEX_POINT('',#102);
#102 = CARTESIAN_POINT('',(10.437095849254,12.197972332475,4.76));
#103 = B_SPLINE_CURVE_WITH_KNOTS('',1,(#104,#105),.UNSPECIFIED.,.F.,.F.,
  (2,2),(0.,1.),.PIECEWISE_BEZIER_KNOTS.);
#104 = CARTESIAN_POINT('',(10.437095849254,12.197972332475,
    -2.632422576144E-15));
#105 = CARTESIAN_POINT('',(10.437095849254,12.197972332475,4.76));
#106 = ORIENTED_EDGE('',*,*,#107,.F.);
#107 = EDGE_CURVE('',#70,#101,#108,.T.);
#108 = CIRCLE('',#109,0.2);
#109 = AXIS2_PLACEMENT_3D('',#110,#111,#112);
#110 = CARTESIAN_POINT('',(10.237856909636,12.215403481024,4.76));
#111 = DIRECTION('',(1.224646799147E-16,1.110223024625E-16,1.));
#112 = DIRECTION('',(-0.996194698092,8.715574274766E-02,
    1.123224336019E-16));
#113 = ORIENTED_EDGE('',*,*,#69,.F.);
#114 = CYLINDRICAL_SURFACE('',#115,0.2);
#115 = AXIS2_PLACEMENT_3D('',#116,#117,#118);
#116 = CARTESIAN_POINT('',(10.237856909636,12.215403481024,
    -2.609958089423E-15));
#117 = DIRECTION('',(1.224646799147E-16,1.110223024625E-16,1.));
#118 = DIRECTION('',(-0.996194698092,8.715574274766E-02,
    1.123224336019E-16));
#119 = ADVANCED_FACE('',(#120),#144,.T.);
#120 = FACE_BOUND('',#121,.T.);
#121 = EDGE_LOOP('',(#122,#130,#137,#143));
#122 = ORIENTED_EDGE('',*,*,#123,.F.);
#123 = EDGE_CURVE('',#124,#92,#126,.T.);
#124 = VERTEX_POINT('',#125);
#125 = CARTESIAN_POINT('',(11.823652317246,28.04638528235,
    -4.561754066252E-15));
#126 = LINE('',#127,#128);
#127 = CARTESIAN_POINT('',(11.823652317246,28.04638528235,
    -4.561754066252E-15));
#128 = VECTOR('',#129,1.);
#129 = DIRECTION('',(-8.715574274766E-02,-0.996194698092,
    1.212733292214E-16));
#130 = ORIENTED_EDGE('',*,*,#131,.T.);
#131 = EDGE_CURVE('',#124,#132,#134,.T.);
#132 = VERTEX_POINT('',#133);
#133 = CARTESIAN_POINT('',(11.823652317246,28.04638528235,4.76));
#134 = B_SPLINE_CURVE_WITH_KNOTS('',1,(#135,#136),.UNSPECIFIED.,.F.,.F.,
  (2,2),(0.,1.),.PIECEWISE_BEZIER_KNOTS.);
#135 = CARTESIAN_POINT('',(11.823652317246,28.04638528235,
    -4.561754066252E-15));
#136 = CARTESIAN_POINT('',(11.823652317246,28.04638528235,4.76));
#137 = ORIENTED_EDGE('',*,*,#138,.T.);
#138 = EDGE_CURVE('',#132,#101,#139,.T.);
#139 = LINE('',#140,#141);
#140 = CARTESIAN_POINT('',(11.823652317246,28.04638528235,4.76));
#141 = VECTOR('',#142,1.);
#142 = DIRECTION('',(-8.715574274766E-02,-0.996194698092,
    1.212733292214E-16));
#143 = ORIENTED_EDGE('',*,*,#100,.F.);
#144 = PLANE('',#145);
#145 = AXIS2_PLACEMENT_3D('',#146,#147,#148);
#146 = CARTESIAN_POINT('',(11.823652317246,28.04638528235,4.76));
#147 = DIRECTION('',(0.996194698092,-8.715574274766E-02,
    -1.123224336019E-16));
#148 = DIRECTION('',(8.715574274766E-02,0.996194698092,
    -1.212733292214E-16));
#149 = ADVANCED_FACE('',(#150),#176,.T.);
#150 = FACE_BOUND('',#151,.T.);
#151 = EDGE_LOOP('',(#152,#161,#168,#175));
#152 = ORIENTED_EDGE('',*,*,#153,.T.);
#153 = EDGE_CURVE('',#124,#154,#156,.T.);
#154 = VERTEX_POINT('',#155);
#155 = CARTESIAN_POINT('',(11.471204489004,28.192373952837,
    -4.534799654111E-15));
#156 = CIRCLE('',#157,0.2);
#157 = AXIS2_PLACEMENT_3D('',#158,#159,#160);
#158 = CARTESIAN_POINT('',(11.624413377628,28.0638164309,
    -4.539289579532E-15));
#159 = DIRECTION('',(1.224646799147E-16,1.110223024625E-16,1.));
#160 = DIRECTION('',(-0.996194698092,8.715574274766E-02,
    1.123224336019E-16));
#161 = ORIENTED_EDGE('',*,*,#162,.T.);
#162 = EDGE_CURVE('',#154,#163,#165,.T.);
#163 = VERTEX_POINT('',#164);
#164 = CARTESIAN_POINT('',(11.471204489004,28.192373952837,4.76));
#165 = B_SPLINE_CURVE_WITH_KNOTS('',1,(#166,#167),.UNSPECIFIED.,.F.,.F.,
  (2,2),(0.,1.),.PIECEWISE_BEZIER_KNOTS.);
#166 = CARTESIAN_POINT('',(11.471204489004,28.192373952837,
    -4.534799654111E-15));
#167 = CARTESIAN_POINT('',(11.471204489004,28.192373952837,4.76));
#168 = ORIENTED_EDGE('',*,*,#169,.F.);
#169 = EDGE_CURVE('',#132,#163,#170,.T.);
#170 = CIRCLE('',#171,0.2);
#171 = AXIS2_PLACEMENT_3D('',#172,#173,#174);
#172 = CARTESIAN_POINT('',(11.624413377628,28.0638164309,4.76));
#173 = DIRECTION('',(1.224646799147E-16,1.110223024625E-16,1.));
#174 = DIRECTION('',(-0.996194698092,8.715574274766E-02,
    1.123224336019E-16));
#175 = ORIENTED_EDGE('',*,*,#131,.F.);
#176 = CYLINDRICAL_SURFACE('',#177,0.2);
#177 = AXIS2_PLACEMENT_3D('',#178,#179,#180);
#178 = CARTESIAN_POINT('',(11.624413377628,28.0638164309,
    -4.539289579532E-15));
#179 = DIRECTION('',(1.224646799147E-16,1.110223024625E-16,1.));
#180 = DIRECTION('',(-0.996194698092,8.715574274766E-02,
    1.123224336019E-16));
#181 = ADVANCED_FACE('',(#182),#206,.T.);
#182 = FACE_BOUND('',#183,.T.);
#183 = EDGE_LOOP('',(#184,#192,#199,#205));
#184 = ORIENTED_EDGE('',*,*,#185,.F.);
#185 = EDGE_CURVE('',#186,#154,#188,.T.);
#186 = VERTEX_POINT('',#187);
#187 = CARTESIAN_POINT('',(1.245127702117,16.005410203921,
    -1.929441658189E-15));
#188 = LINE('',#189,#190);
#189 = CARTESIAN_POINT('',(1.245127702117,16.005410203921,
    -1.929441658189E-15));
#190 = VECTOR('',#191,1.);
#191 = DIRECTION('',(0.642787609687,0.766044443119,-1.637667967371E-16)
  );
#192 = ORIENTED_EDGE('',*,*,#193,.T.);
#193 = EDGE_CURVE('',#186,#194,#196,.T.);
#194 = VERTEX_POINT('',#195);
#195 = CARTESIAN_POINT('',(1.245127702117,16.005410203921,4.76));
#196 = B_SPLINE_CURVE_WITH_KNOTS('',1,(#197,#198),.UNSPECIFIED.,.F.,.F.,
  (2,2),(0.,1.),.PIECEWISE_BEZIER_KNOTS.);
#197 = CARTESIAN_POINT('',(1.245127702117,16.005410203921,
    -1.929441658189E-15));
#198 = CARTESIAN_POINT('',(1.245127702117,16.005410203921,4.76));
#199 = ORIENTED_EDGE('',*,*,#200,.T.);
#200 = EDGE_CURVE('',#194,#163,#201,.T.);
#201 = LINE('',#202,#203);
#202 = CARTESIAN_POINT('',(1.245127702117,16.005410203921,4.76));
#203 = VECTOR('',#204,1.);
#204 = DIRECTION('',(0.642787609687,0.766044443119,-1.637667967371E-16)
  );
#205 = ORIENTED_EDGE('',*,*,#162,.F.);
#206 = PLANE('',#207);
#207 = AXIS2_PLACEMENT_3D('',#208,#209,#210);
#208 = CARTESIAN_POINT('',(1.245127702117,16.005410203921,4.76));
#209 = DIRECTION('',(-0.766044443119,0.642787609687,2.244962710525E-17)
  );
#210 = DIRECTION('',(-0.642787609687,-0.766044443119,1.637667967371E-16)
  );
#211 = ADVANCED_FACE('',(#212),#238,.T.);
#212 = FACE_BOUND('',#213,.T.);
#213 = EDGE_LOOP('',(#214,#223,#230,#237));
#214 = ORIENTED_EDGE('',*,*,#215,.T.);
#215 = EDGE_CURVE('',#186,#216,#218,.T.);
#216 = VERTEX_POINT('',#217);
#217 = CARTESIAN_POINT('',(1.199097651123,15.894283830533,
    -1.91146709689E-15));
#218 = CIRCLE('',#219,0.2);
#219 = AXIS2_PLACEMENT_3D('',#220,#221,#222);
#220 = CARTESIAN_POINT('',(1.398336590741,15.876852681983,
    -1.93393158361E-15));
#221 = DIRECTION('',(1.224646799147E-16,1.110223024625E-16,1.));
#222 = DIRECTION('',(-0.996194698092,8.715574274766E-02,
    1.123224336019E-16));
#223 = ORIENTED_EDGE('',*,*,#224,.T.);
#224 = EDGE_CURVE('',#216,#225,#227,.T.);
#225 = VERTEX_POINT('',#226);
#226 = CARTESIAN_POINT('',(1.199097651123,15.894283830533,4.76));
#227 = B_SPLINE_CURVE_WITH_KNOTS('',1,(#228,#229),.UNSPECIFIED.,.F.,.F.,
  (2,2),(0.,1.),.PIECEWISE_BEZIER_KNOTS.);
#228 = CARTESIAN_POINT('',(1.199097651123,15.894283830533,
    -1.91146709689E-15));
#229 = CARTESIAN_POINT('',(1.199097651123,15.894283830533,4.76));
#230 = ORIENTED_EDGE('',*,*,#231,.F.);
#231 = EDGE_CURVE('',#194,#225,#232,.T.);
#232 = CIRCLE('',#233,0.2);
#233 = AXIS2_PLACEMENT_3D('',#234,#235,#236);
#234 = CARTESIAN_POINT('',(1.398336590741,15.876852681983,4.76));
#235 = DIRECTION('',(1.224646799147E-16,1.110223024625E-16,1.));
#236 = DIRECTION('',(-0.996194698092,8.715574274766E-02,
    1.123224336019E-16));
#237 = ORIENTED_EDGE('',*,*,#193,.F.);
#238 = CYLINDRICAL_SURFACE('',#239,0.2);
#239 = AXIS2_PLACEMENT_3D('',#240,#241,#242);
#240 = CARTESIAN_POINT('',(1.398336590741,15.876852681983,
    -1.93393158361E-15));
#241 = DIRECTION('',(1.224646799147E-16,1.110223024625E-16,1.));
#242 = DIRECTION('',(-0.996194698092,8.715574274766E-02,
    1.123224336019E-16));
#243 = ADVANCED_FACE('',(#244),#260,.T.);
#244 = FACE_BOUND('',#245,.T.);
#245 = EDGE_LOOP('',(#246,#252,#253,#259));
#246 = ORIENTED_EDGE('',*,*,#247,.F.);
#247 = EDGE_CURVE('',#22,#216,#248,.T.);
#248 = LINE('',#249,#250);
#249 = CARTESIAN_POINT('',(-0.187458816869,4.587088065742E-02,
    1.786439321848E-17));
#250 = VECTOR('',#251,1.);
#251 = DIRECTION('',(8.715574274766E-02,0.996194698092,
    -1.212733292214E-16));
#252 = ORIENTED_EDGE('',*,*,#48,.T.);
#253 = ORIENTED_EDGE('',*,*,#254,.T.);
#254 = EDGE_CURVE('',#40,#225,#255,.T.);
#255 = LINE('',#256,#257);
#256 = CARTESIAN_POINT('',(-0.187458816869,4.587088065742E-02,4.76));
#257 = VECTOR('',#258,1.);
#258 = DIRECTION('',(8.715574274766E-02,0.996194698092,
    -1.212733292214E-16));
#259 = ORIENTED_EDGE('',*,*,#224,.F.);
#260 = PLANE('',#261);
#261 = AXIS2_PLACEMENT_3D('',#262,#263,#264);
#262 = CARTESIAN_POINT('',(-0.187458816869,4.587088065742E-02,4.76));
#263 = DIRECTION('',(-0.996194698092,8.715574274766E-02,
    1.123224336019E-16));
#264 = DIRECTION('',(-8.715574274766E-02,-0.996194698092,
    1.212733292214E-16));
#265 = ADVANCED_FACE('',(#266),#276,.F.);
#266 = FACE_BOUND('',#267,.F.);
#267 = EDGE_LOOP('',(#268,#269,#270,#271,#272,#273,#274,#275));
#268 = ORIENTED_EDGE('',*,*,#21,.T.);
#269 = ORIENTED_EDGE('',*,*,#61,.F.);
#270 = ORIENTED_EDGE('',*,*,#91,.T.);
#271 = ORIENTED_EDGE('',*,*,#123,.F.);
#272 = ORIENTED_EDGE('',*,*,#153,.T.);
#273 = ORIENTED_EDGE('',*,*,#185,.F.);
#274 = ORIENTED_EDGE('',*,*,#215,.T.);
#275 = ORIENTED_EDGE('',*,*,#247,.F.);
#276 = PLANE('',#277);
#277 = AXIS2_PLACEMENT_3D('',#278,#279,#280);
#278 = CARTESIAN_POINT('',(1.178012274934E-02,2.843973210789E-02,
    -4.600093501892E-18));
#279 = DIRECTION('',(1.224646799147E-16,1.110223024625E-16,1.));
#280 = DIRECTION('',(-0.996194698092,8.715574274766E-02,
    1.123224336019E-16));
#281 = ADVANCED_FACE('',(#282),#292,.T.);
#282 = FACE_BOUND('',#283,.T.);
#283 = EDGE_LOOP('',(#284,#285,#286,#287,#288,#289,#290,#291));
#284 = ORIENTED_EDGE('',*,*,#39,.T.);
#285 = ORIENTED_EDGE('',*,*,#76,.F.);
#286 = ORIENTED_EDGE('',*,*,#107,.T.);
#287 = ORIENTED_EDGE('',*,*,#138,.F.);
#288 = ORIENTED_EDGE('',*,*,#169,.T.);
#289 = ORIENTED_EDGE('',*,*,#200,.F.);
#290 = ORIENTED_EDGE('',*,*,#231,.T.);
#291 = ORIENTED_EDGE('',*,*,#254,.F.);
#292 = PLANE('',#293);
#293 = AXIS2_PLACEMENT_3D('',#294,#295,#296);
#294 = CARTESIAN_POINT('',(1.178012274934E-02,2.843973210789E-02,4.76));
#295 = DIRECTION('',(1.224646799147E-16,1.110223024625E-16,1.));
#296 = DIRECTION('',(-0.996194698092,8.715574274766E-02,
    1.123224336019E-16));
#297 = ( GEOMETRIC_REPRESENTATION_CONTEXT(3) 
GLOBAL_UNCERTAINTY_ASSIGNED_CONTEXT((#301)) GLOBAL_UNIT_ASSIGNED_CONTEXT
((#298,#299,#300)) REPRESENTATION_CONTEXT('Context #1',
  '3D Context with UNIT and UNCERTAINTY') );
#298 = ( LENGTH_UNIT() NAMED_UNIT(*) SI_UNIT(.MILLI.,.METRE.) );
#299 = ( NAMED_UNIT(*) PLANE_ANGLE_UNIT() SI_UNIT($,.RADIAN.) );
#300 = ( NAMED_UNIT(*) SI_UNIT($,.STERADIAN.) SOLID_ANGLE_UNIT() );
#301 = UNCERTAINTY_MEASURE_WITH_UNIT(LENGTH_MEASURE(1.E-07),#298,
  'distance_accuracy_value','confusion accuracy');
#302 = PRODUCT_RELATED_PRODUCT_CATEGORY('part',$,(#7));
#303 = MECHANICAL_DESIGN_GEOMETRIC_PRESENTATION_REPRESENTATION('',(#304)
  ,#297);
#304 = STYLED_ITEM('color',(#305),#15);
#305 = PRESENTATION_STYLE_ASSIGNMENT((#306));
#306 = SURFACE_STYLE_USAGE(.BOTH.,#307);
#307 = SURFACE_SIDE_STYLE('',(#308));
#308 = SURFACE_STYLE_FILL_AREA(#309);
#309 = FILL_AREA_STYLE('',(#310));
#310 = FILL_AREA_STYLE_COLOUR('',#311);
#311 = DRAUGHTING_PRE_DEFINED_COLOUR('green');
ENDSEC;
END-ISO-10303-21;
