ISO-10303-21;
HEADER;
FILE_DESCRIPTION(('Open CASCADE Model'),'2;1');
FILE_NAME('Open CASCADE Shape Model','2026-09-18T15:44:43',('Author'),(
    'Open CASCADE'),'Open CASCADE STEP processor 7.3','Open CASCADE 7.3'
  ,'Unknown');
FILE_SCHEMA(('AUTOMOTIVE_DESIGN { 1 0 10303 214 1 1 1 1 }'));
ENDSEC;
DATA;
#1 = APPLICATION_PROTOCOL_DEFINITION('international standard',
  'automotive_design',2000,#2);
#2 = APPLICATION_CONTEXT(
  'core data for automotive mechanical design processes');
#3 = SHAPE_DEFINITION_REPRESENTATION(#4,#10);
#4 = PRODUCT_DEFINITION_SHAPE('','',#5);
#5 = PRODUCT_DEFINITION('design','',#6,#9);
#6 = PRODUCT_DEFINITION_FORMATION('','',#7);
#7 = PRODUCT('Pottmanager 44','Pottmanager 44','',(#8));
#8 = PRODUCT_CONTEXT('',#2,'mechanical');
#9 = PRODUCT_DEFINITION_CONTEXT('part definition',#2,'design');
#10 = ADVANCED_BREP_SHAPE_REPRESENTATION('',(#11,#15),#261);
#11 = AXIS2_PLACEMENT_3D('',#12,#13,#14);
#12 = CARTESIAN_POINT('',(0.,0.,0.));
#13 = DIRECTION('',(0.,0.,1.));
#14 = DIRECTION('',(1.,0.,-0.));
#15 = MANIFOLD_SOLID_BREP('',#16);
#16 = CLOSED_SHELL('',(#17,#57,#88,#119,#143,#167,#198,#215,#232,#249));
#17 = ADVANCED_FACE('',(#18),#52,.T.);
#18 = FACE_BOUND('',#19,.T.);
#19 = EDGE_LOOP('',(#20,#30,#38,#46));
#20 = ORIENTED_EDGE('',*,*,#21,.F.);
#21 = EDGE_CURVE('',#22,#24,#26,.T.);
#22 = VERTEX_POINT('',#23);
#23 = CARTESIAN_POINT('',(0.757256642992,33.413965695335,
    9.999999999999E-02));
#24 = VERTEX_POINT('',#25);
#25 = CARTESIAN_POINT('',(0.757256642992,33.413965695335,20.));
#26 = LINE('',#27,#28);
#27 = CARTESIAN_POINT('',(0.757256642992,33.413965695335,
    9.999999999999E-02));
#28 = VECTOR('',#29,1.);
#29 = DIRECTION('',(2.449293598295E-16,0.,1.));
#30 = ORIENTED_EDGE('',*,*,#31,.F.);
#31 = EDGE_CURVE('',#32,#22,#34,.T.);
#32 = VERTEX_POINT('',#33);
#33 = CARTESIAN_POINT('',(0.757256642992,1.10571928793,
    9.999999999999E-02));
#34 = LINE('',#35,#36);
#35 = CARTESIAN_POINT('',(0.757256642992,-0.586034304665,
    9.999999999999E-02));
#36 = VECTOR('',#37,1.);
#37 = DIRECTION('',(2.719262146894E-32,1.,0.));
#38 = ORIENTED_EDGE('',*,*,#39,.F.);
#39 = EDGE_CURVE('',#40,#32,#42,.T.);
#40 = VERTEX_POINT('',#41);
#41 = CARTESIAN_POINT('',(0.757256642992,1.10571928793,20.));
#42 = LINE('',#43,#44);
#43 = CARTESIAN_POINT('',(0.757256642992,1.10571928793,
    4.999999999999E-02));
#44 = VECTOR('',#45,1.);
#45 = DIRECTION('',(-2.449293598295E-16,0.,-1.));
#46 = ORIENTED_EDGE('',*,*,#47,.T.);
#47 = EDGE_CURVE('',#40,#24,#48,.T.);
#48 = LINE('',#49,#50);
#49 = CARTESIAN_POINT('',(0.757256642992,-0.586034304665,20.));
#50 = VECTOR('',#51,1.);
#51 = DIRECTION('',(2.719262146894E-32,1.,0.));
#52 = PLANE('',#53);
#53 = AXIS2_PLACEMENT_3D('',#54,#55,#56);
#54 = CARTESIAN_POINT('',(0.757256642992,-0.586034304665,
    9.999999999999E-02));
#55 = DIRECTION('',(-1.,2.719262146894E-32,2.449293598295E-16));
#56 = DIRECTION('',(2.719262146894E-32,1.,0.));
#57 = ADVANCED_FACE('',(#58),#83,.T.);
#58 = FACE_BOUND('',#59,.T.);
#59 = EDGE_LOOP('',(#60,#61,#69,#77));
#60 = ORIENTED_EDGE('',*,*,#21,.T.);
#61 = ORIENTED_EDGE('',*,*,#62,.T.);
#62 = EDGE_CURVE('',#24,#63,#65,.T.);
#63 = VERTEX_POINT('',#64);
#64 = CARTESIAN_POINT('',(6.757256642992,34.413965695335,20.));
#65 = LINE('',#66,#67);
#66 = CARTESIAN_POINT('',(0.757256642992,33.413965695335,20.));
#67 = VECTOR('',#68,1.);
#68 = DIRECTION('',(0.986393923832,0.164398987305,-2.415968323039E-16));
#69 = ORIENTED_EDGE('',*,*,#70,.F.);
#70 = EDGE_CURVE('',#71,#63,#73,.T.);
#71 = VERTEX_POINT('',#72);
#72 = CARTESIAN_POINT('',(6.757256642992,34.413965695335,
    9.999999999999E-02));
#73 = LINE('',#74,#75);
#74 = CARTESIAN_POINT('',(6.757256642992,34.413965695335,
    9.999999999999E-02));
#75 = VECTOR('',#76,1.);
#76 = DIRECTION('',(2.449293598295E-16,0.,1.));
#77 = ORIENTED_EDGE('',*,*,#78,.F.);
#78 = EDGE_CURVE('',#22,#71,#79,.T.);
#79 = LINE('',#80,#81);
#80 = CARTESIAN_POINT('',(0.757256642992,33.413965695335,
    9.999999999999E-02));
#81 = VECTOR('',#82,1.);
#82 = DIRECTION('',(0.986393923832,0.164398987305,-2.415968323039E-16));
#83 = PLANE('',#84);
#84 = AXIS2_PLACEMENT_3D('',#85,#86,#87);
#85 = CARTESIAN_POINT('',(0.757256642992,33.413965695335,
    9.999999999999E-02));
#86 = DIRECTION('',(-0.164398987305,0.986393923832,4.026613871731E-17));
#87 = DIRECTION('',(0.986393923832,0.164398987305,-2.415968323039E-16));
#88 = ADVANCED_FACE('',(#89),#114,.T.);
#89 = FACE_BOUND('',#90,.T.);
#90 = EDGE_LOOP('',(#91,#92,#100,#108));
#91 = ORIENTED_EDGE('',*,*,#31,.T.);
#92 = ORIENTED_EDGE('',*,*,#93,.T.);
#93 = EDGE_CURVE('',#22,#94,#96,.T.);
#94 = VERTEX_POINT('',#95);
#95 = CARTESIAN_POINT('',(26.757256642992,33.413965695335,
    9.999999999999E-02));
#96 = LINE('',#97,#98);
#97 = CARTESIAN_POINT('',(0.757256642992,33.413965695335,
    9.999999999999E-02));
#98 = VECTOR('',#99,1.);
#99 = DIRECTION('',(1.,-2.719262146894E-32,-2.449293598295E-16));
#100 = ORIENTED_EDGE('',*,*,#101,.T.);
#101 = EDGE_CURVE('',#94,#102,#104,.T.);
#102 = VERTEX_POINT('',#103);
#103 = CARTESIAN_POINT('',(26.757256642992,32.091312695379,
    9.999999999999E-02));
#104 = LINE('',#105,#106);
#105 = CARTESIAN_POINT('',(26.757256642992,33.413965695335,
    9.999999999999E-02));
#106 = VECTOR('',#107,1.);
#107 = DIRECTION('',(-2.719262146894E-32,-1.,0.));
#108 = ORIENTED_EDGE('',*,*,#109,.F.);
#109 = EDGE_CURVE('',#32,#102,#110,.T.);
#110 = LINE('',#111,#112);
#111 = CARTESIAN_POINT('',(6.711820002333,8.202091563754,
    9.999999999999E-02));
#112 = VECTOR('',#113,1.);
#113 = DIRECTION('',(0.642787609687,0.766044443119,-1.574375577468E-16)
  );
#114 = PLANE('',#115);
#115 = AXIS2_PLACEMENT_3D('',#116,#117,#118);
#116 = CARTESIAN_POINT('',(13.757256642992,16.413965695335,
    9.999999999999E-02));
#117 = DIRECTION('',(-2.449293598295E-16,0.,-1.));
#118 = DIRECTION('',(-1.,2.719262146894E-32,2.449293598295E-16));
#119 = ADVANCED_FACE('',(#120),#138,.F.);
#120 = FACE_BOUND('',#121,.T.);
#121 = EDGE_LOOP('',(#122,#123,#124,#132));
#122 = ORIENTED_EDGE('',*,*,#39,.T.);
#123 = ORIENTED_EDGE('',*,*,#109,.T.);
#124 = ORIENTED_EDGE('',*,*,#125,.T.);
#125 = EDGE_CURVE('',#102,#126,#128,.T.);
#126 = VERTEX_POINT('',#127);
#127 = CARTESIAN_POINT('',(26.757256642992,32.091312695379,20.));
#128 = LINE('',#129,#130);
#129 = CARTESIAN_POINT('',(26.757256642992,32.091312695379,
    4.999999999999E-02));
#130 = VECTOR('',#131,1.);
#131 = DIRECTION('',(2.449293598295E-16,0.,1.));
#132 = ORIENTED_EDGE('',*,*,#133,.F.);
#133 = EDGE_CURVE('',#40,#126,#134,.T.);
#134 = LINE('',#135,#136);
#135 = CARTESIAN_POINT('',(6.711820002333,8.202091563754,20.));
#136 = VECTOR('',#137,1.);
#137 = DIRECTION('',(0.642787609687,0.766044443119,-1.574375577468E-16)
  );
#138 = PLANE('',#139);
#139 = AXIS2_PLACEMENT_3D('',#140,#141,#142);
#140 = CARTESIAN_POINT('',(-0.242743357008,-8.603430466451E-02,
    -7.70089352321E-15));
#141 = DIRECTION('',(-0.766044443119,0.642787609687,1.876267750541E-16)
  );
#142 = DIRECTION('',(2.449293598295E-16,0.,1.));
#143 = ADVANCED_FACE('',(#144),#162,.F.);
#144 = FACE_BOUND('',#145,.F.);
#145 = EDGE_LOOP('',(#146,#147,#155,#161));
#146 = ORIENTED_EDGE('',*,*,#47,.T.);
#147 = ORIENTED_EDGE('',*,*,#148,.T.);
#148 = EDGE_CURVE('',#24,#149,#151,.T.);
#149 = VERTEX_POINT('',#150);
#150 = CARTESIAN_POINT('',(26.757256642992,33.413965695335,20.));
#151 = LINE('',#152,#153);
#152 = CARTESIAN_POINT('',(0.757256642992,33.413965695335,20.));
#153 = VECTOR('',#154,1.);
#154 = DIRECTION('',(1.,-2.719262146894E-32,-2.449293598295E-16));
#155 = ORIENTED_EDGE('',*,*,#156,.T.);
#156 = EDGE_CURVE('',#149,#126,#157,.T.);
#157 = LINE('',#158,#159);
#158 = CARTESIAN_POINT('',(26.757256642992,33.413965695335,20.));
#159 = VECTOR('',#160,1.);
#160 = DIRECTION('',(-2.719262146894E-32,-1.,0.));
#161 = ORIENTED_EDGE('',*,*,#133,.F.);
#162 = PLANE('',#163);
#163 = AXIS2_PLACEMENT_3D('',#164,#165,#166);
#164 = CARTESIAN_POINT('',(13.757256642992,16.413965695335,20.));
#165 = DIRECTION('',(-2.449293598295E-16,0.,-1.));
#166 = DIRECTION('',(-1.,2.719262146894E-32,2.449293598295E-16));
#167 = ADVANCED_FACE('',(#168),#193,.T.);
#168 = FACE_BOUND('',#169,.T.);
#169 = EDGE_LOOP('',(#170,#171,#179,#187));
#170 = ORIENTED_EDGE('',*,*,#70,.T.);
#171 = ORIENTED_EDGE('',*,*,#172,.T.);
#172 = EDGE_CURVE('',#63,#173,#175,.T.);
#173 = VERTEX_POINT('',#174);
#174 = CARTESIAN_POINT('',(26.757256642992,34.413965695335,20.));
#175 = LINE('',#176,#177);
#176 = CARTESIAN_POINT('',(6.757256642992,34.413965695335,20.));
#177 = VECTOR('',#178,1.);
#178 = DIRECTION('',(1.,-2.719262146894E-32,-2.449293598295E-16));
#179 = ORIENTED_EDGE('',*,*,#180,.F.);
#180 = EDGE_CURVE('',#181,#173,#183,.T.);
#181 = VERTEX_POINT('',#182);
#182 = CARTESIAN_POINT('',(26.757256642992,34.413965695335,
    9.999999999999E-02));
#183 = LINE('',#184,#185);
#184 = CARTESIAN_POINT('',(26.757256642992,34.413965695335,
    9.999999999999E-02));
#185 = VECTOR('',#186,1.);
#186 = DIRECTION('',(2.449293598295E-16,0.,1.));
#187 = ORIENTED_EDGE('',*,*,#188,.F.);
#188 = EDGE_CURVE('',#71,#181,#189,.T.);
#189 = LINE('',#190,#191);
#190 = CARTESIAN_POINT('',(6.757256642992,34.413965695335,
    9.999999999999E-02));
#191 = VECTOR('',#192,1.);
#192 = DIRECTION('',(1.,-2.719262146894E-32,-2.449293598295E-16));
#193 = PLANE('',#194);
#194 = AXIS2_PLACEMENT_3D('',#195,#196,#197);
#195 = CARTESIAN_POINT('',(6.757256642992,34.413965695335,
    9.999999999999E-02));
#196 = DIRECTION('',(2.719262146894E-32,1.,0.));
#197 = DIRECTION('',(1.,-2.719262146894E-32,-2.449293598295E-16));
#198 = ADVANCED_FACE('',(#199),#210,.T.);
#199 = FACE_BOUND('',#200,.T.);
#200 = EDGE_LOOP('',(#201,#202,#203,#209));
#201 = ORIENTED_EDGE('',*,*,#78,.T.);
#202 = ORIENTED_EDGE('',*,*,#188,.T.);
#203 = ORIENTED_EDGE('',*,*,#204,.T.);
#204 = EDGE_CURVE('',#181,#94,#205,.T.);
#205 = LINE('',#206,#207);
#206 = CARTESIAN_POINT('',(26.757256642992,34.413965695335,
    9.999999999999E-02));
#207 = VECTOR('',#208,1.);
#208 = DIRECTION('',(-2.719262146894E-32,-1.,0.));
#209 = ORIENTED_EDGE('',*,*,#93,.F.);
#210 = PLANE('',#211);
#211 = AXIS2_PLACEMENT_3D('',#212,#213,#214);
#212 = CARTESIAN_POINT('',(13.986566010418,33.857450173969,
    9.999999999999E-02));
#213 = DIRECTION('',(-2.449293598295E-16,-9.860761315263E-32,-1.));
#214 = DIRECTION('',(-2.719262146894E-32,-1.,9.860761315263E-32));
#215 = ADVANCED_FACE('',(#216),#227,.F.);
#216 = FACE_BOUND('',#217,.F.);
#217 = EDGE_LOOP('',(#218,#219,#220,#226));
#218 = ORIENTED_EDGE('',*,*,#62,.T.);
#219 = ORIENTED_EDGE('',*,*,#172,.T.);
#220 = ORIENTED_EDGE('',*,*,#221,.T.);
#221 = EDGE_CURVE('',#173,#149,#222,.T.);
#222 = LINE('',#223,#224);
#223 = CARTESIAN_POINT('',(26.757256642992,34.413965695335,20.));
#224 = VECTOR('',#225,1.);
#225 = DIRECTION('',(-2.719262146894E-32,-1.,0.));
#226 = ORIENTED_EDGE('',*,*,#148,.F.);
#227 = PLANE('',#228);
#228 = AXIS2_PLACEMENT_3D('',#229,#230,#231);
#229 = CARTESIAN_POINT('',(13.986566010418,33.857450173968,20.));
#230 = DIRECTION('',(-2.449293598295E-16,-9.860761315263E-32,-1.));
#231 = DIRECTION('',(-2.719262146894E-32,-1.,9.860761315263E-32));
#232 = ADVANCED_FACE('',(#233),#244,.T.);
#233 = FACE_BOUND('',#234,.T.);
#234 = EDGE_LOOP('',(#235,#241,#242,#243));
#235 = ORIENTED_EDGE('',*,*,#236,.T.);
#236 = EDGE_CURVE('',#94,#149,#237,.T.);
#237 = LINE('',#238,#239);
#238 = CARTESIAN_POINT('',(26.757256642992,33.413965695335,
    9.999999999999E-02));
#239 = VECTOR('',#240,1.);
#240 = DIRECTION('',(2.449293598295E-16,0.,1.));
#241 = ORIENTED_EDGE('',*,*,#156,.T.);
#242 = ORIENTED_EDGE('',*,*,#125,.F.);
#243 = ORIENTED_EDGE('',*,*,#101,.F.);
#244 = PLANE('',#245);
#245 = AXIS2_PLACEMENT_3D('',#246,#247,#248);
#246 = CARTESIAN_POINT('',(26.757256642992,33.413965695335,
    9.999999999999E-02));
#247 = DIRECTION('',(1.,-2.719262146894E-32,-2.449293598295E-16));
#248 = DIRECTION('',(-2.719262146894E-32,-1.,0.));
#249 = ADVANCED_FACE('',(#250),#256,.T.);
#250 = FACE_BOUND('',#251,.T.);
#251 = EDGE_LOOP('',(#252,#253,#254,#255));
#252 = ORIENTED_EDGE('',*,*,#180,.T.);
#253 = ORIENTED_EDGE('',*,*,#221,.T.);
#254 = ORIENTED_EDGE('',*,*,#236,.F.);
#255 = ORIENTED_EDGE('',*,*,#204,.F.);
#256 = PLANE('',#257);
#257 = AXIS2_PLACEMENT_3D('',#258,#259,#260);
#258 = CARTESIAN_POINT('',(26.757256642992,34.413965695335,
    9.999999999999E-02));
#259 = DIRECTION('',(1.,-2.719262146894E-32,-2.449293598295E-16));
#260 = DIRECTION('',(-2.719262146894E-32,-1.,0.));
#261 = ( GEOMETRIC_REPRESENTATION_CONTEXT(3) 
GLOBAL_UNCERTAINTY_ASSIGNED_CONTEXT((#265)) GLOBAL_UNIT_ASSIGNED_CONTEXT
((#262,#263,#264)) REPRESENTATION_CONTEXT('Context #1',
  '3D Context with UNIT and UNCERTAINTY') );
#262 = ( LENGTH_UNIT() NAMED_UNIT(*) SI_UNIT(.MILLI.,.METRE.) );
#263 = ( NAMED_UNIT(*) PLANE_ANGLE_UNIT() SI_UNIT($,.RADIAN.) );
#264 = ( NAMED_UNIT(*) SI_UNIT($,.STERADIAN.) SOLID_ANGLE_UNIT() );
#265 = UNCERTAINTY_MEASURE_WITH_UNIT(LENGTH_MEASURE(2.E-07),#262,
  'distance_accuracy_value','confusion accuracy');
#266 = PRODUCT_RELATED_PRODUCT_CATEGORY('part',$,(#7));
#267 = MECHANICAL_DESIGN_GEOMETRIC_PRESENTATION_REPRESENTATION('',(#268)
  ,#261);
#268 = STYLED_ITEM('color',(#269),#15);
#269 = PRESENTATION_STYLE_ASSIGNMENT((#270));
#270 = SURFACE_STYLE_USAGE(.BOTH.,#271);
#271 = SURFACE_SIDE_STYLE('',(#272));
#272 = SURFACE_STYLE_FILL_AREA(#273);
#273 = FILL_AREA_STYLE('',(#274));
#274 = FILL_AREA_STYLE_COLOUR('',#275);
#275 = COLOUR_RGB('',0.784313738346,0.784313738346,0.784313738346);
ENDSEC;
END-ISO-10303-21;
