ISO-10303-21;
HEADER;
FILE_DESCRIPTION(('Open CASCADE Model'),'2;1');
FILE_NAME('Open CASCADE Shape Model','2026-09-18T15:44:43',('Author'),(
    'Open CASCADE'),'Open CASCADE STEP processor 7.3','Open CASCADE 7.3'
  ,'Unknown');
FILE_SCHEMA(('AUTOMOTIVE_DESIGN { 1 0 10303 214 1 1 1 1 }'));
ENDSEC;
DATA;
#1 = APPLICATION_PROTOCOL_DEFINITION('international standard',
  'automotive_design',2000,#2);
#2 = APPLICATION_CONTEXT(
  'core data for automotive mechanical design processes');
#3 = SHAPE_DEFINITION_REPRESENTATION(#4,#10);
#4 = PRODUCT_DEFINITION_SHAPE('','',#5);
#5 = PRODUCT_DEFINITION('design','',#6,#9);
#6 = PRODUCT_DEFINITION_FORMATION('','',#7);
#7 = PRODUCT('Pottmanager 47','Pottmanager 47','',(#8));
#8 = PRODUCT_CONTEXT('',#2,'mechanical');
#9 = PRODUCT_DEFINITION_CONTEXT('part definition',#2,'design');
#10 = GEOMETRICALLY_BOUNDED_WIREFRAME_SHAPE_REPRESENTATION('',(#11,#15),
  #76);
#11 = AXIS2_PLACEMENT_3D('',#12,#13,#14);
#12 = CARTESIAN_POINT('',(0.,0.,0.));
#13 = DIRECTION('',(0.,0.,1.));
#14 = DIRECTION('',(1.,0.,-0.));
#15 = GEOMETRIC_CURVE_SET('',(#16,#24,#31,#39,#46,#54,#61,#69));
#16 = TRIMMED_CURVE('',#17,(#22,PARAMETER_VALUE(0.)),(#23,
    PARAMETER_VALUE(2.530727415392)),.T.,.PARAMETER.);
#17 = CIRCLE('',#18,0.2);
#18 = AXIS2_PLACEMENT_3D('',#19,#20,#21);
#19 = CARTESIAN_POINT('',(1.178012274934E-02,2.843973210789E-02,
    -4.600093501892E-18));
#20 = DIRECTION('',(1.224646799147E-16,1.110223024625E-16,1.));
#21 = DIRECTION('',(-0.996194698092,8.715574274766E-02,
    1.123224336019E-16));
#22 = CARTESIAN_POINT('',(-0.187458816869,4.587088065742E-02,
    1.786439321848E-17));
#23 = CARTESIAN_POINT('',(0.164989011373,-0.100117789829,
    -9.090018922943E-18));
#24 = TRIMMED_CURVE('',#25,(#29,PARAMETER_VALUE(0.)),(#30,
    PARAMETER_VALUE(15.908951312664)),.T.,.PARAMETER.);
#25 = LINE('',#26,#27);
#26 = CARTESIAN_POINT('',(-0.187458816869,4.587088065742E-02,
    1.786439321848E-17));
#27 = VECTOR('',#28,1.);
#28 = DIRECTION('',(8.715574274766E-02,0.996194698092,
    -1.212733292214E-16));
#29 = CARTESIAN_POINT('',(-0.187458816869,4.587088065742E-02,
    1.786439321848E-17));
#30 = CARTESIAN_POINT('',(1.199097651123,15.894283830533,
    -1.91146709689E-15));
#31 = TRIMMED_CURVE('',#32,(#37,PARAMETER_VALUE(5.672320068982)),(#38,
    PARAMETER_VALUE(6.28318530718)),.T.,.PARAMETER.);
#32 = CIRCLE('',#33,0.2);
#33 = AXIS2_PLACEMENT_3D('',#34,#35,#36);
#34 = CARTESIAN_POINT('',(1.398336590741,15.876852681983,
    -1.93393158361E-15));
#35 = DIRECTION('',(1.224646799147E-16,1.110223024625E-16,1.));
#36 = DIRECTION('',(-0.996194698092,8.715574274766E-02,
    1.123224336019E-16));
#37 = CARTESIAN_POINT('',(1.245127702117,16.005410203921,
    -1.929441658189E-15));
#38 = CARTESIAN_POINT('',(1.199097651123,15.894283830533,
    -1.91146709689E-15));
#39 = TRIMMED_CURVE('',#40,(#44,PARAMETER_VALUE(0.)),(#45,
    PARAMETER_VALUE(15.908951312664)),.T.,.PARAMETER.);
#40 = LINE('',#41,#42);
#41 = CARTESIAN_POINT('',(1.245127702117,16.005410203921,
    -1.929441658189E-15));
#42 = VECTOR('',#43,1.);
#43 = DIRECTION('',(0.642787609687,0.766044443119,-1.637667967371E-16));
#44 = CARTESIAN_POINT('',(1.245127702117,16.005410203921,
    -1.929441658189E-15));
#45 = CARTESIAN_POINT('',(11.471204489004,28.192373952837,
    -4.534799654111E-15));
#46 = TRIMMED_CURVE('',#47,(#52,PARAMETER_VALUE(3.14159265359)),(#53,
    PARAMETER_VALUE(5.672320068982)),.T.,.PARAMETER.);
#47 = CIRCLE('',#48,0.2);
#48 = AXIS2_PLACEMENT_3D('',#49,#50,#51);
#49 = CARTESIAN_POINT('',(11.624413377628,28.0638164309,
    -4.539289579532E-15));
#50 = DIRECTION('',(1.224646799147E-16,1.110223024625E-16,1.));
#51 = DIRECTION('',(-0.996194698092,8.715574274766E-02,
    1.123224336019E-16));
#52 = CARTESIAN_POINT('',(11.823652317246,28.04638528235,
    -4.561754066252E-15));
#53 = CARTESIAN_POINT('',(11.471204489004,28.192373952837,
    -4.534799654111E-15));
#54 = TRIMMED_CURVE('',#55,(#59,PARAMETER_VALUE(0.)),(#60,
    PARAMETER_VALUE(15.908951312664)),.T.,.PARAMETER.);
#55 = LINE('',#56,#57);
#56 = CARTESIAN_POINT('',(11.823652317246,28.04638528235,
    -4.561754066252E-15));
#57 = VECTOR('',#58,1.);
#58 = DIRECTION('',(-8.715574274766E-02,-0.996194698092,
    1.212733292214E-16));
#59 = CARTESIAN_POINT('',(11.823652317246,28.04638528235,
    -4.561754066252E-15));
#60 = CARTESIAN_POINT('',(10.437095849254,12.197972332475,
    -2.632422576144E-15));
#61 = TRIMMED_CURVE('',#62,(#67,PARAMETER_VALUE(2.530727415392)),(#68,
    PARAMETER_VALUE(3.14159265359)),.T.,.PARAMETER.);
#62 = CIRCLE('',#63,0.2);
#63 = AXIS2_PLACEMENT_3D('',#64,#65,#66);
#64 = CARTESIAN_POINT('',(10.237856909636,12.215403481024,
    -2.609958089423E-15));
#65 = DIRECTION('',(1.224646799147E-16,1.110223024625E-16,1.));
#66 = DIRECTION('',(-0.996194698092,8.715574274766E-02,
    1.123224336019E-16));
#67 = CARTESIAN_POINT('',(10.39106579826,12.086845959087,
    -2.614448014844E-15));
#68 = CARTESIAN_POINT('',(10.437095849254,12.197972332475,
    -2.632422576144E-15));
#69 = TRIMMED_CURVE('',#70,(#74,PARAMETER_VALUE(0.)),(#75,
    PARAMETER_VALUE(15.908951312664)),.T.,.PARAMETER.);
#70 = LINE('',#71,#72);
#71 = CARTESIAN_POINT('',(10.39106579826,12.086845959087,
    -2.614448014844E-15));
#72 = VECTOR('',#73,1.);
#73 = DIRECTION('',(-0.642787609687,-0.766044443119,1.637667967371E-16)
  );
#74 = CARTESIAN_POINT('',(10.39106579826,12.086845959087,
    -2.614448014844E-15));
#75 = CARTESIAN_POINT('',(0.164989011373,-0.100117789829,
    -9.090018922943E-18));
#76 = ( GEOMETRIC_REPRESENTATION_CONTEXT(3) 
GLOBAL_UNCERTAINTY_ASSIGNED_CONTEXT((#80)) GLOBAL_UNIT_ASSIGNED_CONTEXT(
(#77,#78,#79)) REPRESENTATION_CONTEXT('Context #1',
  '3D Context with UNIT and UNCERTAINTY') );
#77 = ( LENGTH_UNIT() NAMED_UNIT(*) SI_UNIT(.MILLI.,.METRE.) );
#78 = ( NAMED_UNIT(*) PLANE_ANGLE_UNIT() SI_UNIT($,.RADIAN.) );
#79 = ( NAMED_UNIT(*) SI_UNIT($,.STERADIAN.) SOLID_ANGLE_UNIT() );
#80 = UNCERTAINTY_MEASURE_WITH_UNIT(LENGTH_MEASURE(1.E-07),#77,
  'distance_accuracy_value','confusion accuracy');
#81 = PRODUCT_RELATED_PRODUCT_CATEGORY('part',$,(#7));
#82 = MECHANICAL_DESIGN_GEOMETRIC_PRESENTATION_REPRESENTATION('',(#83),
  #76);
#83 = STYLED_ITEM('color',(#84),#15);
#84 = PRESENTATION_STYLE_ASSIGNMENT((#85));
#85 = SURFACE_STYLE_USAGE(.BOTH.,#86);
#86 = SURFACE_SIDE_STYLE('',(#87));
#87 = SURFACE_STYLE_FILL_AREA(#88);
#88 = FILL_AREA_STYLE('',(#89));
#89 = FILL_AREA_STYLE_COLOUR('',#90);
#90 = DRAUGHTING_PRE_DEFINED_COLOUR('green');
ENDSEC;
END-ISO-10303-21;
